<?xml version="1.0" encoding="UTF-8" standalone="no"?>
<svg
   version="1.0"
   width="1312.3334pt"
   height="154.10434pt"
   viewBox="0 0 1181.1 138.6939"
   preserveAspectRatio="xMidYMid meet"
   id="svg1568"
   sodipodi:docname="advision.svg"
   inkscape:version="1.1.2 (0a00cf5339, 2022-02-04)"
   xmlns:inkscape="http://www.inkscape.org/namespaces/inkscape"
   xmlns:sodipodi="http://sodipodi.sourceforge.net/DTD/sodipodi-0.dtd"
   xmlns="http://www.w3.org/2000/svg"
   xmlns:svg="http://www.w3.org/2000/svg">
  <defs
     id="defs1572">
    <inkscape:path-effect
       effect="powermask"
       id="path-effect27590"
       is_visible="true"
       lpeversion="1"
       uri="#mask-powermask-path-effect27590"
       invert="false"
       hide_mask="false"
       background="false"
       background_color="#ffffffff" />
    <inkscape:path-effect
       effect="fill_between_many"
       method="originald"
       linkedpaths="#path1552,0,1"
       id="path-effect27751"
       is_visible="true"
       lpeversion="0"
       join="true"
       close="true"
       autoreverse="true"
       applied="false" />
  </defs>
  <sodipodi:namedview
     id="namedview1570"
     pagecolor="#ffffff"
     bordercolor="#111111"
     borderopacity="1"
     inkscape:pageshadow="0"
     inkscape:pageopacity="0"
     inkscape:pagecheckerboard="1"
     inkscape:document-units="pt"
     showgrid="false"
     inkscape:zoom="0.34599282"
     inkscape:cx="1228.3492"
     inkscape:cy="73.700951"
     inkscape:window-width="1366"
     inkscape:window-height="703"
     inkscape:window-x="0"
     inkscape:window-y="0"
     inkscape:window-maximized="1"
     inkscape:current-layer="g1566"
     fit-margin-top="0"
     fit-margin-left="0"
     fit-margin-right="0"
     fit-margin-bottom="0" />
  <g
     transform="matrix(0.1,0,0,-0.1,-35.799999,178.87443)"
     fill="#000000"
     stroke="none"
     id="g1566"
     style="fill:#000000;fill-opacity:1"
     inkscape:label="Adventure Vision">
    <path
       inkscape:original-d="M 0,0"
       inkscape:path-effect="#path-effect27751"
       d="m 8887.9997,1785 c -4.0001,-4 -166.0001,-7 -361.0001,-6 l -352.9999,2 -33,-98 c -55.0001,-162 -63,-183 -76,-183 -6,0 -36,62 -66,138 l -53.9999,137 -659.0001,3 c -481.9999,1 -661.9999,-1 -666.9999,-9 -5.0001,-9 -23.0001,-9 -71.0001,0 -45,8 -381.9999,11 -1110.9999,11 H 4389.9999 v -95 c 0,-52 -3,-95 -7.0001,-95 -4.9999,1 -37,43 -72,95 l -64,95 h -492.9999 -494.0001 l -72,-107 -72.9999,-108 -3,108 -3,107 h -284 H 2540 v -34 -34 l -52.0001,20 c -108,41 -183,47 -577.9999,47 H 1535 L 1421.9999,1620 1309,1460 H 1100.9999 891.99997 L 624.99998,1087 357.99999,715 563.99998,712 c 113,-1 205.99999,-5 205.99999,-7 0,-3 -40,-62 -89.99999,-131 -49,-69 -90,-127 -90,-130 0,-2 154.99999,-4 343.99999,-4 H 1277.9999 L 1351,542 c 40.9999,56 79.9999,103 87,106 9,3 12,-22 12,-102 V 440 h 374.9999 c 410,0 532.0001,9 643.0001,46 39.9999,13 75,24 76.9999,24 3,0 5,-16 5,-35 v -35 h 248 l 247,1 73.9999,117 c 80.0001,126 99,152 113.0001,152 3.9999,0 8,-61 8,-135 V 440 h 544.9999 545.0001 v 113 c 0.9999,130 -5.0001,131 93,-22 l 57.9999,-91 h 434 434 l 3,59 3,60 57,-39 c 92,-61 158,-82 279,-88 81,-3 119,0 164,12 41,12 61,14 68,7 8,-8 255.9999,-11 804,-11 h 792.9999 v 125 125 h 54 c 29.0001,0 81,3 114,6 l 61,7 15,-34 c 8,-19 33,-83 54,-144 l 40.0001,-110 497.9998,-4 c 631.0001,-5 708,-5 1049.0001,0 l 279.9999,4 3,28 c 4,30 16,30 72,2 61,-31 181,-48 294.0004,-42 106,5 157,16 238,51 48,20 45.999,21 49.999,-12 l 3.001,-27 273,-3 271.999,-2 v 122 c 0,143 -4.999,144 95,-14 L 11052,410 h 228.999 229.001 v 155 155 h 48 47 l 81,108 c 44.999,59 172,226 282,372 l 201,265 -329,3 -330,2 v 155 155 l -272.001,-2 -272.999,-3 -5.001,-105 -5,-105 -74.999,105 -75.001,105 H 10575 10345 l -3.001,-28 c -2.999,-23 -6.999,-27 -19.999,-21 -114,50 -156.001,58 -307,58 -153.0004,0 -179.0004,-5 -307.0003,-59 -13.0001,-5 -17.0001,0 -20.0001,22 l -3,28 -279.9999,3 c -154.0001,2 -332.0001,6 -395.0001,9 -63,3 -117.9999,2 -121.9999,-2 z"
       id="path27753"
       style="display:inline;fill:#ffffff;fill-opacity:1"
       inkscape:label="Background" />
    <path
       d="m 8887.9997,1785 c -4.0001,-4 -166.0001,-7 -361.0001,-6 l -352.9999,2 -33,-98 c -55.0001,-162 -63,-183 -76,-183 -6,0 -36,62 -66,138 l -53.9999,137 -659.0001,3 c -481.9999,1 -661.9999,-1 -666.9999,-9 -5.0001,-9 -23.0001,-9 -71.0001,0 -45,8 -381.9999,11 -1110.9999,11 H 4389.9999 v -95 c 0,-52 -3,-95 -7.0001,-95 -4.9999,1 -37,43 -72,95 l -64,95 h -492.9999 -494.0001 l -72,-107 -72.9999,-108 -3,108 -3,107 h -284 H 2540 v -34 -34 l -52.0001,20 c -108,41 -183,47 -577.9999,47 H 1535 L 1421.9999,1620 1309,1460 H 1100.9999 891.99997 L 624.99998,1087 357.99999,715 563.99998,712 c 113,-1 205.99999,-5 205.99999,-7 0,-3 -40,-62 -89.99999,-131 -49,-69 -90,-127 -90,-130 0,-2 154.99999,-4 343.99999,-4 H 1277.9999 L 1351,542 c 40.9999,56 79.9999,103 87,106 9,3 12,-22 12,-102 V 440 h 374.9999 c 410,0 532.0001,9 643.0001,46 39.9999,13 75,24 76.9999,24 3,0 5,-16 5,-35 v -35 h 248 l 247,1 73.9999,117 c 80.0001,126 99,152 113.0001,152 3.9999,0 8,-61 8,-135 V 440 h 544.9999 545.0001 v 113 c 0.9999,130 -5.0001,131 93,-22 l 57.9999,-91 h 434 434 l 3,59 3,60 57,-39 c 92,-61 158,-82 279,-88 81,-3 119,0 164,12 41,12 61,14 68,7 8,-8 255.9999,-11 804,-11 h 792.9999 v 125 125 h 54 c 29.0001,0 81,3 114,6 l 61,7 15,-34 c 8,-19 33,-83 54,-144 l 40.0001,-110 497.9998,-4 c 631.0001,-5 708,-5 1049.0001,0 l 279.9999,4 3,28 c 4,30 16,30 72,2 61,-31 181,-48 294.0004,-42 106,5 157,16 238,51 48,20 45.999,21 49.999,-12 l 3.001,-27 273,-3 271.999,-2 v 122 c 0,143 -4.999,144 95,-14 L 11052,410 h 228.999 229.001 v 155 155 h 48 47 l 81,108 c 44.999,59 172,226 282,372 l 201,265 -329,3 -330,2 v 155 155 l -272.001,-2 -272.999,-3 -5.001,-105 -5,-105 -74.999,105 -75.001,105 H 10575 10345 l -3.001,-28 c -2.999,-23 -6.999,-27 -19.999,-21 -114,50 -156.001,58 -307,58 -153.0004,0 -179.0004,-5 -307.0003,-59 -13.0001,-5 -17.0001,0 -20.0001,22 l -3,28 -279.9999,3 c -154.0001,2 -332.0001,6 -395.0001,9 -63,3 -117.9999,2 -121.9999,-2 z m 252,-70 c 28.9999,-10 46,-12 47.9999,-5 2,6 80,10 223.0001,10 h 219 v -50 c 0,-27 3,-50 6,-50 3,0 18.9999,9 33.9999,20 49,35 135,68 221.0001,86 142.0003,29 296.0003,6 431.0003,-62 24.999,-13 49,-28 53,-34 13.999,-23 25,-7 25,40 v 50 h 189 189 l 103.999,-147 C 10939,1491 10992,1425 11000,1425 c 13,0 14.999,25 18,148 l 3,147 h 219 219.999 v -150 -150 h 300 c 165.001,0 300,-2 300,-5 0,-3 -94.999,-130 -210.999,-283 -116,-152 -225.001,-296 -243.001,-319 -30,-41 -33,-42 -87.999,-43 h -58.001 V 620 470 l -192,2 -191.999,3 -93,145 c -74,116 -98,146 -118.001,148 l -25,3 V 621 470 h -220 H 10400 v 50 c 0,28 -2.001,50 -5,50 -3,0 -26,-13 -52,-29 -27.001,-16 -84,-42 -128,-57 -70.001,-25 -95.001,-28 -200,-28 -105.0004,0 -130.0003,3 -200.0004,28 -43.9999,15 -100.9999,41 -127.9999,57 -26.0001,16 -49.0001,29 -52.0001,29 -3,0 -4.9999,-22 -4.9999,-50 v -50 h -219 c -143.0001,0 -221.0001,4 -223.0001,10 -1.9999,7 -19.9999,5 -47.9999,-6 -70.0001,-27 -239,-24 -310.0001,4 -64.9999,26 -60,25 -60,7 0,-13 -30.9999,-15 -219.9999,-15 h -220 l -1.0001,93 -0.9999,92 -29.0001,-93 -30,-92 h -186.9999 -187 l -50,140 -49.9999,140 h -162 -163.0001 V 625 500 h -488.9999 -489 l -38,56 -39,57 -3,-57 -3,-56 h -214 -215 v 26 c 0,17 -4,24 -12,21 -98,-43 -147,-58 -210,-63 -173,-15 -339,60 -427,193 l -31,46 V 612 500 h -397 l -398,1 -81,127 c -72.9999,115 -83,127 -111.9999,130 l -32.0001,3 V 631 500 h -495 -495 v 130 130 h -52.9999 -53 l -83.0001,-130 -82.9999,-130 h -209 H 2600 v 54 53 l -78,-38 c -129,-65 -165,-69 -619.0001,-69 h -403 V 630 760 H 1471 c -26,0 -40.0001,-14 -123,-130 L 1255,500 H 977.99996 c -152.99999,0 -277.99998,2 -277.99998,5 0,3 39.99999,61 89.99999,130 l 90,125 -209.99999,2 -208.99999,3 214.99999,300 c 118.99999,165 220.99999,307 227.99999,317 14,20 81,26 291.00003,28 l 150,1 109.9999,157 111,157 324,3 c 425.0001,4 528,-10 659.0001,-88 l 51,-29 v 59 60 l 227.9999,-2 227,-3 3,-152 c 2,-113 6,-153 15,-153 6,0 57.9999,70 114,155 l 102.9999,155 h 463 463.0001 l 103.9999,-150 c 57,-83 108,-149 114,-147 7.0001,2 12,55 13.0001,148 l 0.9999,144 621,3 621,2 v -143 c 0,-142 0,-144 23,-143 21,1 22,4 27,141 l 5,140 h 385 c 389,0 426.9999,-3 522,-40 12,-5 17,0 20,17 l 3,23 304.9999,2 c 168,2 446.0001,-1 619,-5 l 314,-7 50,-132 50,-133 h 52 53 l 44,133 45,132 280.9999,3 c 278.0001,2 282,2 282,-18 0,-20 1.0001,-20 30,-5 89.0001,46 243,55 340.0001,20 z"
       id="path1552"
       style="display:inline;fill:#293789;fill-opacity:1;stroke-width:0.999997"
       inkscape:label="Outline" />
    <path
       id="path1564"
       style="display:inline;fill:#e4150e;fill-opacity:1"
       d="m 7470,1542 v -82 h 35 35 l -27,73 c -14,39 -30,76 -35,82 -4,5 -8,-27 -8,-73 z M 6270,1274 v -177 l 98,5 c 156,8 228,54 239,153 7,58 -11,108 -52,144 -45,39 -91,51 -197,51 h -88 z M 2050,1111 V 770 h 78 c 222,1 327,51 388,185 79,175 4,393 -161,466 -41,19 -73,24 -177,27 l -128,4 z m -501,89 -95,-145 94,-3 c 52,-1 96,-1 99,1 2,2 2,69 1,148 l -3,144 z m 8354,241 c -102,-35 -161,-91 -211,-199 -22,-48 -26,-72 -26,-147 -1,-81 2,-97 31,-157 38,-81 97,-142 172,-177 48,-22 70,-26 146,-26 82,0 97,3 157,33 78,38 120,82 161,170 95,203 -8,445 -217,507 -66,20 -149,18 -213,-4 z m -990,229 c -58,-12 -122,-46 -165,-88 l -38,-36 v 57 57 h -228 -228 l -45,-137 -45,-138 -95,-3 -95,-3 -54,141 -53,140 h -163 c -93,0 -164,-4 -164,-9 0,-5 18,-60 40,-121 22,-61 40,-116 40,-121 0,-5 -47,-9 -105,-9 h -105 v 130 130 h -335 -335 v -50 c 0,-27 -3,-50 -6,-50 -3,0 -21,12 -39,26 -19,14 -58,35 -87,47 -51,21 -70,22 -430,25 l -378,3 v -140 -141 h -85 -85 v 140 140 h -560 -559 l -3,-142 -3,-143 h -59 -59 l -100,143 -100,142 h -433 -434 l -100,-150 -100,-150 h -66 -65 l 3,150 3,150 h -167 -168 v -96 -96 l -60,55 c -32,30 -84,67 -114,81 -108,51 -152,56 -536,56 h -355 l -110,-155 c -60,-85 -116,-156 -124,-156 -9,-1 -106,-4 -215,-8 L 946,1335 763,1080 581,825 785,822 c 113,-1 205,-5 205,-8 0,-3 -38,-59 -85,-125 -47,-66 -85,-122 -85,-125 0,-2 91,-3 202,-2 l 202,3 90,127 91,127 78,1 h 77 V 689 559 l 393,3 c 344,4 399,6 447,22 88,29 149,64 207,118 l 53,51 v -97 -96 h 160 160 l 85,130 85,130 h 100 100 V 690 560 h 430 430 v 130 130 h 83 82 l 84,-130 83,-130 h 139 139 v 130 130 h 55 55 V 690 560 h 150 150 v 130 130 h 49 48 l 32,-64 c 113,-230 441,-285 635,-106 l 46,43 v -67 -66 h 155 154 l 3,121 3,120 85,-120 85,-120 443,-1 h 442 v 125 125 h 214 214 l 16,-42 c 9,-24 32,-86 50,-138 l 34,-95 h 143 143 l 45,138 45,137 h 43 43 V 670 530 h 155 155 v 45 45 l 50,-34 c 73,-50 141,-70 235,-70 88,1 165,25 226,69 l 34,26 3,-41 3,-40 h 155 154 v 91 91 l 40,-36 c 115,-104 250,-158 395,-160 50,0 115,5 145,13 83,20 190,76 254,132 l 56,51 v -91 -91 h 155 155 v 150 150 h 78 l 77,-1 94,-149 95,-150 h 138 137 l 3,153 3,152 77,3 78,3 191,252 191,252 -103,6 c -57,4 -179,7 -271,8 l -168,1 v 150 150 h -155 -155 v -150 -150 h -63 -62 l -105,150 -105,150 h -142 -143 v -92 -92 l -42,41 c -106,103 -244,157 -403,157 -159,-1 -279,-46 -393,-149 l -52,-47 v 91 91 h -155 -155 v -40 c 0,-22 -3,-40 -6,-40 -3,0 -21,12 -39,26 -72,55 -208,84 -302,64 z m 169,-90 c 88,-25 172,-128 180,-220 l 3,-35 -71,-3 -71,-3 -6,39 c -20,121 -195,138 -241,22 -20,-50 -20,-54 0,-96 17,-35 76,-69 185,-108 84,-30 151,-78 184,-130 27,-44 30,-60 33,-140 4,-87 2,-94 -30,-156 -56,-108 -149,-156 -283,-148 -79,5 -135,29 -186,80 -37,38 -74,114 -84,176 l -7,42 h 75 74 l 6,-42 c 11,-82 76,-132 160,-125 89,8 141,71 134,165 -5,74 -33,100 -165,151 -195,77 -247,135 -247,276 0,90 19,136 77,192 68,66 180,90 280,63 z m 1069,-6 c 141,-42 254,-138 317,-271 37,-77 37,-79 37,-208 V 965 l -39,-80 c -87,-179 -256,-285 -451,-285 -169,0 -321,81 -414,221 -186,278 -41,667 280,753 73,20 203,20 270,0 z M 1810,1110 V 640 h -80 -79 l -3,133 -3,132 -137,3 -138,3 -75,-103 C 1159,622 1182,640 1081,640 c -48,0 -90,3 -93,6 -3,3 67,107 156,232 89,125 237,334 330,465 l 169,237 h 84 83 z m 543,450 c 139,-35 221,-103 283,-233 110,-233 29,-522 -174,-626 -80,-41 -149,-52 -354,-58 l -198,-6 v 472 471 h 183 c 150,0 198,-4 260,-20 z m 559,-322 3,-342 225,340 225,339 h 275 275 l 3,-62 3,-63 h -176 -175 v -135 -135 h 175 176 l -3,-62 -3,-63 -173,-3 -173,-2 3,-138 3,-137 173,-3 173,-2 -3,-63 -3,-62 h -235 -235 l -5,389 -5,388 -250,-388 -250,-389 -91,-3 -91,-3 -8,460 c -4,253 -4,464 0,470 3,6 39,11 85,11 h 80 z m 1452,21 221,-316 3,318 2,319 h 70 70 V 1110 640 h -69 -68 l -229,356 -229,357 -5,-354 -5,-354 h -65 -65 l -3,468 -2,468 76,-3 77,-3 z m 966,256 v -65 h -90 -90 l -2,-402 -3,-403 h -65 -65 l -3,403 -2,402 h -90 -90 v 65 65 h 250 250 z m 212,-282 c 3,-316 5,-351 22,-386 28,-56 69,-81 142,-85 75,-5 113,12 152,70 l 27,41 3,354 3,353 h 70 70 l -3,-362 c -3,-355 -4,-364 -26,-413 -50,-108 -139,-166 -267,-173 -66,-3 -91,0 -139,18 -75,28 -137,85 -167,153 -24,51 -24,58 -27,415 l -3,362 h 70 70 z m 1020,328 c 62,-20 120,-71 153,-136 27,-52 30,-68 30,-149 0,-82 -3,-96 -30,-145 -36,-66 -79,-99 -161,-126 l -63,-20 124,-165 c 69,-91 125,-168 125,-172 0,-14 -158,-9 -172,5 -7,8 -76,102 -153,211 l -140,197 -5,-208 -5,-208 h -70 -70 l -3,455 c -1,250 0,461 3,468 4,11 44,13 203,9 112,-2 213,-9 234,-16 z m 768,-46 v -65 h -185 -185 v -135 -135 h 185 185 v -65 -65 h -185 -186 l 3,-137 3,-138 183,-3 183,-2 -3,-63 -3,-62 h -250 -250 l -3,468 -2,467 h 255 255 z m 3598,-266 232,-331 2,329 3,328 h 70 70 V 1096 618 h -73 c -41,0 -75,2 -76,4 -2,1 -106,164 -232,362 l -229,359 -5,-363 -5,-362 h -70 -70 l -3,468 c -1,258 0,475 3,482 3,8 28,12 78,12 h 74 z m -2984,-31 c 72,-191 134,-344 137,-340 4,4 58,161 120,350 l 114,342 h 77 c 43,0 78,-3 78,-7 0,-5 -69,-217 -153,-473 L 8164,625 h -84 -85 l -27,75 c -14,41 -88,246 -163,455 -75,209 -139,388 -142,398 -5,16 1,18 72,15 l 77,-3 z m 676,-123 V 620 h -70 -70 v 475 475 h 70 70 z m 870,0 V 620 h -75 -75 v 475 475 h 75 75 z"
       inkscape:label="Lettering" />
  </g>
</svg>
