<svg height="48.77552mm" viewBox="0 0 161.12752 48.774904" width="161.12955mm" xmlns="http://www.w3.org/2000/svg" xmlns:xlink="http://www.w3.org/1999/xlink"><linearGradient id="a" gradientUnits="userSpaceOnUse" x1="286.89734" x2="286.89734" y1="5.912929" y2="183.29703"><stop offset="0" stop-color="#d4bf03"/><stop offset=".22002029" stop-color="#fff9c0"/><stop offset=".29239172" stop-color="#fff9c0"/><stop offset=".64222145" stop-color="#c5b105"/><stop offset=".79888725" stop-color="#9f8401"/><stop offset="1" stop-color="#fff9c0"/></linearGradient><linearGradient id="b" gradientUnits="userSpaceOnUse" x1="112.59458260135" x2="112.59458260135" y1="86.01785670079" y2="121.58109501733"><stop offset="0" stop-color="#0a1b22"/><stop offset=".31572422" stop-color="#5bf1f5"/><stop offset=".42411202" stop-color="#59ecf2"/><stop offset=".82930082" stop-color="#0a1b21"/><stop offset="1" stop-color="#0a1b21"/></linearGradient><clipPath id="c"><path d="m23.429414 80.320054h161.095196v47.581606h-161.095196zm20.717716 29.203876v-.00001c.298672.0307.294484-.0437.143578-.35748l-3.264428-9.693741c-.145481-.424687-.243812-.391141-.390861.01122l-3.303281 9.668191c-.06051.19311-.189284.37682.1762.37182z"/></clipPath><clipPath id="d"><path d="m119.52663 80.607065h39.17146v47.301245h-39.17146zm26.26085 23.524535c0-8.91684-1.60078-16.145365-6.79847-16.145365-4.96495 0-6.79848 7.228523-6.79848 16.145365 0 12.14619 3.04378 16.14536 6.79848 16.14536 3.75469-.00001 6.79847-3.71683 6.79847-16.14536z"/></clipPath><clipPath id="e"><path d="m-9.96875-9.9570312h618.9859v189.9819112h-618.9859zm453.96693 95.2311022h-11.78862l11.78859-.102346a11.788613 45.529408 0 0 0 -11.80846-45.426997 11.788613 45.529408 0 0 0 -11.76873 45.580516 11.788613 45.529408 0 0 0 11.79523 45.478226 11.788613 45.529408 0 0 0 11.78199-45.529399z"/></clipPath><linearGradient id="f" gradientUnits="userSpaceOnUse" x1="112.59458260135" x2="112.59458260135" y1="86.01785670079" y2="121.58109501733"><stop offset="0" stop-color="#0a1b22"/><stop offset=".31572422" stop-color="#5bf1f5"/><stop offset=".52571917" stop-color="#47bec3"/><stop offset=".85440695" stop-color="#0a1b21"/><stop offset="1" stop-color="#0a1b21"/></linearGradient><clipPath id="g"><path d="m-9.96875-9.9570312h618.9859v189.9819112h-618.9859zm453.96693 95.2311022h-11.78862l11.78859-.102346a11.788613 45.529408 0 0 0 -11.80846-45.426997 11.788613 45.529408 0 0 0 -11.76873 45.580516 11.788613 45.529408 0 0 0 11.79523 45.478226 11.788613 45.529408 0 0 0 11.78199-45.529399z"/></clipPath><g transform="translate(-23.413086 -80.207528)"><text fill="#ef00eb" font-family="TrasksHand" font-size=".52916" stroke="#0105ff" stroke-width=".66145" x="110.63311" y="113.80994"><tspan fill="#fafafa" fill-opacity=".4" font-size=".52916" stroke="none" stroke-width=".66145" x="110.63311" y="113.80994">John Loreth 2022</tspan></text><path clip-path="url(#g)" d="m363.42188-4.9570312a18.961472 18.961472 0 0 0 -12.57422 5.66601558c-10.36513-3.87438108-21.76107-6.17757008-34.06836-4.79882818-11.92123 1.1560234-23.39151 6.1818079-33.01758 14.1542968a18.961472 18.961472 0 0 0 -17.08008-11.9531249h-44.04102a18.961472 18.961472 0 0 0 -18.0371 13.1152339l-9.68946 29.908204-9.91797-29.478516a18.961472 18.961472 0 0 0 -17.9707-12.9121094h-44.17969a18.961472 18.961472 0 0 0 -18.95898 18.9589844v6.498047a18.961472 18.961472 0 0 0 14.53125 17.771484v48.673828l-26.962892-78.791015a18.961472 18.961472 0 0 0 -.173828-.490235c-.911018-2.4414856-1.793477-5.0029536-4.935547-8.5917965-3.14207-3.58884293-12.473285-8.6305778-20.638672-6.4316406-8.157625 2.1968386-10.767293 6.7424661-12.474609 9.4023437-1.707316 2.6598777-2.525636 4.7382674-3.296875 6.8417974a18.961472 18.961472 0 0 0 -.060547.167968l-41.4628906 116.460934a18.961472 18.961472 0 0 0 -13.3808594 18.04297v4.88281a18.961472 18.961472 0 0 0 18.958984 18.95899h36.875a18.961472 18.961472 0 0 0 12.048828-5.10352 18.961472 18.961472 0 0 0 11.75586 4.81836h51.320308l34.63868.14258a18.961472 18.961472 0 0 0 11.11328-4.10742 18.961472 18.961472 0 0 0 12.05469 4.90234h3.83398a18.961472 18.961472 0 0 0 11.77148-4.48437 18.961472 18.961472 0 0 0 10.89454 3.95703h56.5371a18.961472 18.961472 0 0 0 16.27735-9.33984c8.31434 5.55567 18.11597 9.74296 29.22656 11.91406a18.961472 18.961472 0 0 0 .60938.10937c21.57002 3.48928 47.04425-3.37428 65.04882-24.62695 12.18374 14.46058 31.51743 26.92473 55.33399 25.6543 15.77276-.84136 28.79952-6.33042 39.16406-13.71094a18.961472 18.961472 0 0 0 16.72656 10.62891h91.73438a18.961472 18.961472 0 0 0 18.87695-17.19922l4.10352-44.03125a18.961472 18.961472 0 0 0 -18.87696-20.718753h-3.9414a18.961472 18.961472 0 0 0 -6.24219 1.978515l-.11133-13.720703 1.55664.103516a18.961472 18.961472 0 0 0 20.2168-18.917969v-41.382812a18.961472 18.961472 0 0 0 -18.95899-18.95898462h-88.58984a18.961472 18.961472 0 0 0 -16.67773 10.45312502c-11.07774-7.9570127-24.64479-13.4074006-40.06446-13.3300782-16.87219.0846062-32.36676 5.9628025-44.81054 15.6249998a18.961472 18.961472 0 0 0 -18.35547-16.7109372zm-18.75977 19.0117192c-.20334.309401.37405-2.671338 0 0zm-12.46289 30.875c2.51697.07048 2.86761.886556 4.76758 3.162109 2.53329 3.03407 5.85599 10.327665 8.60156 19.820312a18.961472 18.961472 0 0 0 12.66602 12.50586v20.457031c0 .76248.0881 1.52172.11718 2.2832-4.04471 1.66317-7.84213 4.70655-9.8457 7.73438-2.31303 3.49547-5.93249 8.02424-9.625 10.89258-3.58464 2.78454-6.37993 3.91137-9.87305 3.73242-1.63605-.21851-3.83756-1.36146-7.11523-8.38672-3.39095-7.26806-5.78771-19.117023-5.79883-31.015626-.0111-11.898602 2.34065-23.910222 5.81836-31.564453 3.2996-7.262222 6.04222-9.091515 7.94922-9.515625.85716-.05451 1.75705-.121734 2.33789-.105468z" fill="#968a40" opacity=".98" transform="matrix(.26458333 0 0 .27099892 24.727734 81.550878)"/><path clip-path="url(#e)" d="m363.42188-4.9570312a18.961472 18.961472 0 0 0 -12.57422 5.66601558c-10.36513-3.87438108-21.76107-6.17757008-34.06836-4.79882818-11.92123 1.1560234-23.39151 6.1818079-33.01758 14.1542968a18.961472 18.961472 0 0 0 -17.08008-11.9531249h-44.04102a18.961472 18.961472 0 0 0 -18.0371 13.1152339l-9.68946 29.908204-9.91797-29.478516a18.961472 18.961472 0 0 0 -17.9707-12.9121094h-44.17969a18.961472 18.961472 0 0 0 -18.95898 18.9589844v6.498047a18.961472 18.961472 0 0 0 14.53125 17.771484v48.673828l-26.962892-78.791015a18.961472 18.961472 0 0 0 -.173828-.490235c-.911018-2.4414856-1.793477-5.0029536-4.935547-8.5917965-3.14207-3.58884293-12.473285-8.6305778-20.638672-6.4316406-8.157625 2.1968386-10.767293 6.7424661-12.474609 9.4023437-1.707316 2.6598777-2.525636 4.7382674-3.296875 6.8417974a18.961472 18.961472 0 0 0 -.060547.167968l-41.4628906 116.460934a18.961472 18.961472 0 0 0 -13.3808594 18.04297v4.88281a18.961472 18.961472 0 0 0 18.958984 18.95899h36.875a18.961472 18.961472 0 0 0 12.048828-5.10352 18.961472 18.961472 0 0 0 11.75586 4.81836h51.320308l34.63868.14258a18.961472 18.961472 0 0 0 11.11328-4.10742 18.961472 18.961472 0 0 0 12.05469 4.90234h3.83398a18.961472 18.961472 0 0 0 11.77148-4.48437 18.961472 18.961472 0 0 0 10.89454 3.95703h56.5371a18.961472 18.961472 0 0 0 16.27735-9.33984c8.31434 5.55567 18.11597 9.74296 29.22656 11.91406a18.961472 18.961472 0 0 0 .60938.10937c21.57002 3.48928 47.04425-3.37428 65.04882-24.62695 12.18374 14.46058 31.51743 26.92473 55.33399 25.6543 15.77276-.84136 28.79952-6.33042 39.16406-13.71094a18.961472 18.961472 0 0 0 16.72656 10.62891h91.73438a18.961472 18.961472 0 0 0 18.87695-17.19922l4.10352-44.03125a18.961472 18.961472 0 0 0 -18.87696-20.718753h-3.9414a18.961472 18.961472 0 0 0 -6.24219 1.978515l-.11133-13.720703 1.55664.103516a18.961472 18.961472 0 0 0 20.2168-18.917969v-41.382812a18.961472 18.961472 0 0 0 -18.95899-18.95898462h-88.58984a18.961472 18.961472 0 0 0 -16.67773 10.45312502c-11.07774-7.9570127-24.64479-13.4074006-40.06446-13.3300782-16.87219.0846062-32.36676 5.9628025-44.81054 15.6249998a18.961472 18.961472 0 0 0 -18.35547-16.7109372zm-18.75977 19.0117192c-.20334.309401.37405-2.671338 0 0zm-12.46289 30.875c2.51697.07048 2.86761.886556 4.76758 3.162109 2.53329 3.03407 5.85599 10.327665 8.60156 19.820312a18.961472 18.961472 0 0 0 12.66602 12.50586v20.457031c0 .76248.0881 1.52172.11718 2.2832-4.04471 1.66317-7.84213 4.70655-9.8457 7.73438-2.31303 3.49547-5.93249 8.02424-9.625 10.89258-3.58464 2.78454-6.37993 3.91137-9.87305 3.73242-1.63605-.21851-3.83756-1.36146-7.11523-8.38672-3.39095-7.26806-5.78771-19.117023-5.79883-31.015626-.0111-11.898602 2.34065-23.910222 5.81836-31.564453 3.2996-7.262222 6.04222-9.091515 7.94922-9.515625.85716-.05451 1.75705-.121734 2.33789-.105468z" fill="url(#a)" opacity=".98" transform="matrix(.26458333 0 0 .26458333 24.727734 81.615447)"/><path clip-path="url(#d)" d="m139.11826 85.607218c8.49721-.04261 14.57983 8.801331 14.57983 14.777612v7.92054c0 1.54246-2.55417 13.94394-14.58573 14.58573-9.15533.48837-14.58573-9.53883-14.58573-14.58573v-7.92054c0-8.080499 6.51124-14.737093 14.59163-14.777612z" fill="url(#b)"/><path clip-path="url(#c)" d="m178.43881 122.069h-24.27161v-1.489c2.00276.0439 4.04193-.25279 3.72098-3.38895v-27.172682c-.0999-1.917063-1.65711-2.227147-3.7823-2.153776v-1.495878h23.43927v10.949341l-1.15017-.07678c-.64351-2.893787-.87558-8.066475-7.95249-8.183895h-3.25197v13.56231c2.46718-.069 4.83587-.99646 5.09171-7.973879h1.44053l.15155 18.899199-1.42575.0418c-.19847-1.61209-.4665-8.54982-5.20498-8.33862v12.18538c-.0569 1.37895.70823 1.91078 1.81763 2.08784l3.84387-.0754c5.59221-1.35932 6.27041-5.37246 7.57655-9.02709h1.04298zm-53.91218-13.76363c-67.409029-18.667647-33.704515-9.333824 0 0zm-2.14659-10.155057v-12.830259h-1.497c.0827 1.853876-.53366 2.771819-1.98286 2.574466-3.09968-1.719117-6.32742-2.779455-9.84005-2.37436-6.2755.586403-12.842552 8.288688-13.349848 18.08985.148146 9.2403 2.438471 17.07703 12.619158 19.06642 4.90214.79299 9.55694-.36232 13.42963-5.81245l.11284-3.10287s-.47992-.44812-.75211-.0368c-1.56718 2.36834-4.91022 6.46276-9.78915 6.10563-10.62025-1.05354-10.67621-29.651181 0-31.287353 5.80826-.462395 8.05219 4.132221 9.64733 9.647328zm-64.307208 22.523677c2.416551-.34738 2.806446-1.64458 3.002309-3.0327v-27.759547c-.351279-1.021795-.520969-1.85318-1.863007-1.86301h-1.981447v-1.719563h11.689316l7.468526 22.19884 7.24644-22.365785h11.652358v1.545703c-3.577256-.01369-3.812273 1.284841-3.868703 2.653484v27.917958c.04924.77042.71642 1.96763 2.319121 2.31912h1.589973v1.33394h-14.958866v-1.40471h2.034595l1.829565-2.79371v-25.959731l-9.861458 30.297811h-1.013981l-10.071983-29.983251v25.723051c.283252 2.12523 1.916247 2.59824 3.962392 2.73347v1.31602l-9.17515-.0375zm-19.886898 1.19548h-9.75652v-1.29196c1.38969-.41145 2.53387-1.14533 3.09207-2.64875l11.12828-31.256169c.513168-1.399649 1.023364-1.652517 1.52939-.296391l10.724759 31.3395c.652496 1.51299 1.368086 2.94364 3.168919 2.95829v1.1199h-13.588711v-1.13143h1.831677c.294182.0126 1.392658-.73198 1.021764-2.16423l-2.078965-6.52625-9.033763.14371-1.48442 5.28084c-.60557 2.09236 1.06621 2.87073 1.69371 3.04699l1.7792.0618z" fill="url(#f)" transform="matrix(1 0 0 .99254087 0 .636414)"/></g></svg>