<svg height="180.73323" viewBox="0 0 317.91508 54.219969" width="1059.7169" xmlns="http://www.w3.org/2000/svg" xmlns:xlink="http://www.w3.org/1999/xlink"><mask id="a" maskUnits="userSpaceOnUse"><path d="m8.9595587 3.4381411h63.3996243v32.0768389h-63.3996243z" fill="#fff"/><path d="m33.857849 21.45235-3.379899 9.252024 12.214012.05296 3.393472-9.353498z" opacity=".98" stroke-width="2"/></mask><mask id="b" maskUnits="userSpaceOnUse"><path d="m66.640038 3.3969729h62.416262v32.1971131h-62.416262z" fill="#fff"/><path d="m103.79907 17.962744 3.42162-9.5850408-10.779022-.1034765-3.347966 9.5310773z" opacity=".98" stroke-width="2"/></mask><filter id="c" color-interpolation-filters="sRGB" height="1.794177" width="1.081656" x="-.040828" y="-.397088"><feGaussianBlur result="result6" stdDeviation="5"/><feComposite in="SourceGraphic" in2="result6" operator="atop" result="result8"/><feComposite in="result8" in2="SourceAlpha" operator="over" result="result9"/><feColorMatrix result="result10" values="1 0 0 0 0 0 1 0 0 0 0 0 1 0 0 0 0 0 1 0"/><feBlend in="result10" in2="result6" mode="normal"/></filter><g transform="translate(2.040441 7.603027)"><path d="m122.26058 34.565953 10.80037-30.1498532 51.54162.04249-1.5323 3.9338142-31.81731.011014-3.37633 9.0569 32.1399.08151-1.58375 3.978188-31.93188.0214-4.73584 13.075526zm-54.620542-.039068 10.729289-30.1299121 49.686973.0627535-6.01143 16.9761566-30.2029.05652-4.707848 13.101683zm-57.6804793-.01324 5.8018053-16.15057 31.330018-.087788 3.571497-9.665151-12.072816-.010904-2.670917 7.384551-19.33709-.01758 4.181675-11.5280619 50.595452.0150207-10.905534 30.0618182zm284.6305813-.995468q-2.29118 0-4.05547-.716322-1.7563-.716322-2.91388-2.041854-1.15756-1.332226-1.74033-3.20002-.57479-1.867794-.57479-4.190822 0-2.316333.57479-4.184127.58277-1.867795 1.74033-3.20002 1.15758-1.338922 2.9059-2.048549 1.74833-.709629 4.06345-.709629 2.86598 0 4.75001 1.01758 1.89203 1.01758 2.85002 2.577423.96597 1.553148 1.32521 3.253577.35925 1.693735.35925 3.293745 0 1.60001-.35925 3.300439-.35924 1.693736-1.33319 3.260272-.96597 1.559843-2.85002 2.577423-1.87605 1.010884-4.74203 1.010884zm0-3.347301q2.62648 0 3.36892-1.968213.75043-1.974909.75043-4.833504 0-2.858595-.75043-4.826809-.74244-1.968213-3.36892-1.968213-2.55462 0-3.33698 2.028464-.78235 2.028465-.78235 4.766558 0 2.738093.78235 4.773252.78236 2.028465 3.33698 2.028465zm-19.56707 3.332169q-2.29118 0-4.05548-.716322-1.7563-.716323-2.91387-2.041854-1.15756-1.332227-1.74034-3.200021-.57479-1.867794-.57479-4.190822 0-2.316332.57479-4.184127.58278-1.867794 1.74034-3.200021 1.15757-1.33892 2.90589-2.048548 1.74833-.709628 4.06346-.709628 2.86597 0 4.75001 1.01758 1.89202 1.01758 2.85 2.577422.96597 1.553148 1.32522 3.253577.35925 1.693735.35925 3.293745 0 1.600011-.35925 3.30044-.35925 1.693734-1.3332 3.260272-.96596 1.559842-2.85 2.577422-1.87606 1.010885-4.74203 1.010885zm0-3.347301q2.62648 0 3.36891-1.968214.75043-1.974908.75043-4.833504 0-2.858596-.75043-4.826808-.74243-1.968214-3.36891-1.968214-2.55463 0-3.33699 2.028465-.78235 2.028465-.78235 4.766557 0 2.738093.78235 4.773253.78236 2.028465 3.33699 2.028465zm-19.62671 3.365547q-2.29119 0-4.05548-.716322-1.75631-.716323-2.91387-2.041854-1.15757-1.332227-1.74034-3.200021-.5748-1.867794-.5748-4.190822 0-2.316332.5748-4.184127.58277-1.867795 1.74034-3.20002 1.15756-1.338922 2.90589-2.048549 1.74832-.709628 4.06346-.709628 2.86596 0 4.75001 1.017579 1.89201 1.01758 2.85 2.577423.96597 1.553148 1.32522 3.253577.35924 1.693735.35924 3.293745 0 1.600011-.35924 3.30044-.35925 1.693735-1.3332 3.260272-.96597 1.559842-2.85001 2.577422-1.87606 1.010885-4.74202 1.010885zm0-3.347301q2.62647 0 3.36891-1.968214.75042-1.974908.75042-4.833504 0-2.858595-.75042-4.826809-.74244-1.968213-3.36891-1.968213-2.55463 0-3.33699 2.028465-.78236 2.028464-.78236 4.766557 0 2.738093.78236 4.773253.78236 2.028465 3.33699 2.028465zm-25.44534-10.605535v-2.321572h.63791q1.24614 0 2.47003-.437001 1.23129-.44383 2.09172-1.235896.86043-.798894 1.05329-1.823116h3.76808v19.576312h-5.00681v-13.758727zm-23.72054 14.428989-6.17623-15.014213h-.10341v15.014213h-5.82301v-21.018432h8.18329l5.90058 14.442383 5.89196-14.442383h8.18328v21.018432h-5.82305v-15.014213h-.10341l-6.17623 15.014213z" filter="url(#c)" opacity=".98"/><g fill="#fff"><path d="m190.25545 36.852081-5.6978-16.2749h-.0954v16.2749h-5.37195v-22.783271h7.54939l5.44351 15.655056 5.43556-15.655056h7.54939v22.783271h-5.37199v-16.2749h-.0954l-5.6978 16.2749z" transform="scale(1.0839662 .92253798)"/><path d="m220.62689 20.395458v-2.419686h.61204q1.19561 0 2.36987-.45547 1.18137-.462587 2.00691-1.288127.82554-.832657 1.01058-1.900165h3.61529v20.403647h-4.80379v-14.340199z" stroke-width=".999996" transform="scale(1.042262 .95945161)"/><path d="m233.87739 36.60557q-2.09814 0-3.71377-.782231-1.60833-.782231-2.66836-2.229724-1.06003-1.454804-1.5937-3.494453-.52637-2.039649-.52637-4.576418 0-2.529457.52637-4.569106.53367-2.03965 1.5937-3.494453 1.06003-1.462115 2.66105-2.237035 1.60101-.774921 3.72108-.774921 2.62449 0 4.34979 1.111207 1.7326 1.111207 2.60987 2.81457.88458 1.696052 1.21356 3.552937.32897 1.849575.32897 3.596801 0 1.747227-.32897 3.604112-.32898 1.849575-1.22087 3.560248-.88458 1.703363-2.60987 2.81457-1.71799 1.103896-4.34248 1.103896zm0-3.655285q2.40518 0 3.08506-2.149308.68719-2.156619.68719-5.278233 0-3.121613-.68719-5.270921-.67988-2.149308-3.08506-2.149308-2.33938 0-3.05582 2.215103-.71644 2.215103-.71644 5.205126 0 2.990024.71644 5.212438.71644 2.215103 3.05582 2.215103z" transform="scale(1.0920096 .91574291)"/><path d="m251.85041 36.585646q-2.09813 0-3.71377-.782231-1.60832-.782231-2.66836-2.229724-1.06003-1.454804-1.5937-3.494453-.52636-2.039649-.52636-4.576418 0-2.529457.52636-4.569107.53367-2.039649 1.5937-3.494453 1.06004-1.462114 2.66105-2.237034 1.60102-.774921 3.72108-.774921 2.6245 0 4.34979 1.111207 1.73261 1.111207 2.60987 2.81457.88458 1.696052 1.21356 3.552937.32898 1.849575.32898 3.596801 0 1.747227-.32898 3.604112-.32898 1.849574-1.22087 3.560248-.88457 1.703363-2.60987 2.81457-1.71798 1.103896-4.34248 1.103896zm0-3.655285q2.40518 0 3.08506-2.149308.6872-2.156619.6872-5.278233 0-3.121614-.6872-5.270921-.67988-2.149308-3.08506-2.149308-2.33938 0-3.05582 2.215103-.71643 2.215103-.71643 5.205126 0 2.990024.71643 5.212438.71644 2.215103 3.05582 2.215103z" transform="scale(1.0920096 .91574289)"/><path d="m269.76882 36.602171q-2.09813 0-3.71377-.782231-1.60832-.782231-2.66836-2.229724-1.06003-1.454804-1.5937-3.494453-.52636-2.039649-.52636-4.576417 0-2.529458.52636-4.569107.53367-2.03965 1.5937-3.494453 1.06004-1.462115 2.66105-2.237035 1.60102-.774921 3.72108-.774921 2.6245 0 4.34979 1.111207 1.73261 1.111207 2.60988 2.81457.88458 1.696053 1.21355 3.552938.32898 1.849574.32898 3.596801 0 1.747226-.32898 3.604111-.32897 1.849575-1.22086 3.560248-.88458 1.703363-2.60988 2.81457-1.71798 1.103896-4.34248 1.103896zm0-3.655285q2.40518 0 3.08506-2.149308.6872-2.156619.6872-5.278232 0-3.121614-.6872-5.270922-.67988-2.149308-3.08506-2.149308-2.33938 0-3.05582 2.215103-.71643 2.215103-.71643 5.205127 0 2.990023.71643 5.212437.71644 2.215103 3.05582 2.215103z" transform="scale(1.0920096 .91574288)"/><path d="m9.9595587 34.513645 5.8018053-16.15057 31.330018-.087788 3.571497-9.665151-12.072816-.010904-2.670917 7.384551-19.33709-.01758 4.181675-11.5280619 50.595452.0150207-10.905534 30.0618182z" mask="url(#a)" opacity=".98"/><path d="m67.640038 34.526885 10.729289-30.1299121 49.686973.0627535-6.01143 16.9761566-30.2029.05652-4.707848 13.101683z" mask="url(#b)" opacity=".98"/><path d="m122.26058 34.565953 10.80037-30.1498532 51.54162.04249-1.5323 3.9338142-31.81731.011014-3.37633 9.0569 32.1399.08151-1.58375 3.978188-31.93188.0214-4.73584 13.075526z" opacity=".98"/></g></g></svg>