<svg height="169.334" viewBox="0 0 401.01376 84.667" width="802.02753" xmlns="http://www.w3.org/2000/svg" xmlns:xlink="http://www.w3.org/1999/xlink"><mask id="a" maskUnits="userSpaceOnUse"><path d="m363.73035 32.622272h33.96796v35.564232h-33.96796z" fill="#fff"/><path d="m362.70423 51.365572h37" fill="none" opacity=".98" stroke="#000"/></mask><mask id="b" maskUnits="userSpaceOnUse"><path d="m-1.9908566-1h75.8238566v86.667h-75.8238566z" fill="#fff"/><path d="m66.083 39.703568v-29.290504c.0432-.303932-.242808-.42509-.570842-.006-11.957718 15.27697-15.608749 18.919865-20.26579 25.903727-.260059.481763-.01219.73457.707616.707159 1.76671-.143235 3.502467-.06959 5.176208-.0783 7.360865-.03828 11.528289 1.953923 13.890159 3.11517.894819.37957 1.073166-.0088 1.062649-.351255zm-16.415031 1.899948c-3.864212.07917-7.946721 1.035058-11.726563 3.46289l-30.9531248 39.601563h59.5117188l-.0098-37.164063c-.871543-2.001258-8.320999-6.07457-16.822265-5.90039z" opacity=".98"/></mask><g fill="#fff" fill-opacity=".5"><path d="m245.06682 51.541553q0 .12-.029.202-.043.122-.138.122-.063 0-.132-.029-.083-.035-.091-.086.028 0 .066.01.088.023.11.023.085 0 .128-.085.034-.068.034-.163 0-.067-.044-.191-.043-.125-.043-.174 0-.015.008-.024.009-.01.024-.01.039 0 .076.18.031.152.031.225z"/><path d="m245.45182 51.643553q0 .102-.059.16-.059.058-.163.058-.057 0-.088-.027-.031-.027-.031-.083 0-.079.103-.159.098-.076.181-.076.038 0 .05.047.007.027.007.08zm-.061.028q0-.012-.003-.023-.002-.012-.008-.027-.016.011-.053.054-.019.022-.033.032 0-.019.004-.031.008-.017.013-.029-.044 0-.092.037-.047.037-.047.08 0 .029.032.029.061 0 .118-.03.069-.036.069-.092z"/><path d="m245.86382 51.684553q0 .049-.037.11-.042.069-.087.069-.013 0-.022-.014-.008-.015-.008-.029 0-.018.038-.056.039-.039.039-.053 0-.009-.003-.018-.003-.009-.004-.012-.075.017-.153.086-.077.069-.117.078-.008-.022-.008-.045 0-.028.013-.059.009-.022.03-.053.035-.053.074-.12.02-.035.069-.121.05-.086.073-.122.012-.018.021-.027.013-.012.031-.016.012.004.017.015.006.011.006.026 0 .034-.044.092-.08.104-.082.108-.045.068-.045.123l.002.01q.055-.027.065-.031.041-.017.07-.017.032 0 .047.022.015.021.015.054z"/><path d="m246.32782 51.625553q0 .068-.033.145-.036.085-.089.117-.011-.013-.019-.029-.007-.016-.007-.032 0-.017.05-.101.022-.037.02-.065l-.001-.013q-.037.011-.128.067-.09.055-.182.112-.014 0-.026-.01-.011-.011-.011-.024 0-.021.067-.141.02-.036.072-.125.016.021.021.047.005.025.005.06 0 .015 0 .023.092-.055.144-.083.057-.031.078-.031.014 0 .026.032.013.032.013.051z"/><path d="m247.19682 51.819553q0 .018-.016.028-.015.009-.034.009-.017 0-.043-.004-.059-.009-.076-.009-.03 0-.118.007-.05.004-.072.004-.061 0-.061-.061 0-.058.038-.166.021-.061.079-.2.052-.125.066-.176.005-.016.008-.021.008-.012.02-.012.019 0 .032.028.013.027.013.049 0 .035-.041.118-.041.082-.08.161-.043.094-.043.143 0 .025.021.035.015.007.044.007.022 0 .076-.005.054-.006.072-.006.045 0 .074.013.041.018.041.058z"/><path d="m247.56882 51.643553q0 .102-.059.16-.059.058-.163.058-.057 0-.088-.027-.031-.027-.031-.083 0-.079.103-.159.098-.076.181-.076.038 0 .05.047.007.027.007.08zm-.061.028q0-.012-.003-.023-.002-.012-.008-.027-.016.011-.053.054-.019.022-.033.032 0-.019.004-.031.008-.017.013-.029-.044 0-.092.037-.047.037-.047.08 0 .029.032.029.061 0 .118-.03.069-.036.069-.092z"/><path d="m247.98982 51.622553q0 .032-.017.068-.016.036-.041.06l-.001-.014q0-.012.003-.037.003-.025.003-.037 0-.017-.005-.025-.005-.009-.021-.009-.047 0-.117.073-.076.08-.151.159-.006 0-.012-.001-.015-.004-.02-.005.003-.036.025-.08.059-.119.061-.127.008-.032.012-.047.004-.015.011-.031.008-.017.018-.03.011-.014.028-.021l.01.12q.043-.035.066-.054.044-.035.076-.035.032 0 .052.021.02.021.02.052z"/><path d="m248.48082 51.506553q0 .042-.112.111-.108.066-.157.066-.023 0-.031-.016-.007-.016-.007-.045 0-.019 0-.027.067 0 .122-.02.055-.02.096-.066-.03-.011-.061-.011-.073 0-.155.056-.09.061-.09.13 0 .066.09.092.014.004.169.028.091.014.091.049 0 .015-.033.024-.033.01-.084.01-.128 0-.202-.039-.098-.052-.098-.167 0-.12.12-.191.102-.06.232-.06.039 0 .071.018.039.022.039.058z"/><path d="m248.87882 51.327553q0 .022-.053.092-.053.07-.053.107 0 .019.022.038.05.044.05.054 0 .013-.009.025-.008.012-.021.012-.011 0-.031-.012-.014-.008-.054-.039-.015.029-.023.044-.028.053-.038.077-.015.046-.03.092-.026.062-.065.062l-.001-.023q0-.071.046-.168.009-.018.05-.093-.079-.043-.174-.043 0-.037.015-.054.016-.018.053-.018.034 0 .085.012.025.006.05.012.019-.006.052-.065.081-.142.11-.163.008.013.013.026.006.013.006.025z"/><path d="m249.24782 51.684553q0 .049-.037.11-.042.069-.087.069-.013 0-.022-.014-.008-.015-.008-.029 0-.018.038-.056.039-.039.039-.053 0-.009-.003-.018-.003-.009-.004-.012-.075.017-.153.086-.077.069-.117.078-.008-.022-.008-.045 0-.028.013-.059.009-.022.03-.053.035-.053.074-.12.02-.035.069-.121.05-.086.073-.122.012-.018.021-.027.013-.012.031-.016.012.004.017.015.006.011.006.026 0 .034-.044.092-.08.104-.082.108-.045.068-.045.123l.002.01q.055-.027.065-.031.041-.017.07-.017.032 0 .047.022.015.021.015.054z"/><path d="m250.06882 51.358553q0 .047-.05.126-.032.05-.105.144-.073.093-.091.122.003.001.075.024.073.022.073.08-.03.005-.059.009l-.011-.001v-.008q-.016-.004-.026-.004-.019 0-.06.006-.041.006-.062.006-.027 0-.044-.01-.017-.01-.017-.036 0-.021.077-.119.144-.183.145-.185.078-.106.078-.142 0-.014-.01-.021-.009-.007-.037-.007-.019 0-.079.037-.029.018-.047.018l-.017-.003q-.006-.004-.013-.015-.007-.012-.007-.019 0-.042.081-.077.069-.03.12-.03.043 0 .066.032.02.028.02.073z"/><path d="m250.66982 51.538553q0 .121-.131.214-.12.085-.247.085-.063 0-.1-.032-.037-.032-.037-.093 0-.136.119-.236.113-.095.253-.095.071 0 .107.042.036.042.036.115zm-.061.023q0-.046-.052-.069-.039-.017-.093-.017-.079 0-.165.077-.086.077-.086.155 0 .032.016.046.017.013.051.013.098 0 .204-.054.125-.064.125-.151z"/><path d="m251.12782 51.358553q0 .047-.05.126-.032.05-.105.144-.073.093-.091.122.003.001.075.024.073.022.073.08-.03.005-.059.009l-.011-.001v-.008q-.016-.004-.026-.004-.019 0-.06.006-.041.006-.062.006-.027 0-.044-.01-.017-.01-.017-.036 0-.021.077-.119.144-.183.145-.185.078-.106.078-.142 0-.014-.01-.021-.009-.007-.037-.007-.019 0-.079.037-.029.018-.047.018l-.017-.003q-.006-.004-.013-.015-.007-.012-.007-.019 0-.042.081-.077.069-.03.12-.03.043 0 .066.032.02.028.02.073z"/><path d="m251.58782 51.358553q0 .047-.05.126-.032.05-.105.144-.073.093-.091.122.003.001.075.024.073.022.073.08-.03.005-.059.009l-.011-.001v-.008q-.016-.004-.026-.004-.019 0-.06.006-.041.006-.062.006-.027 0-.044-.01-.017-.01-.017-.036 0-.021.077-.119.144-.183.145-.185.078-.106.078-.142 0-.014-.01-.021-.009-.007-.037-.007-.019 0-.079.037-.029.018-.047.018l-.017-.003q-.006-.004-.013-.015-.007-.012-.007-.019 0-.042.081-.077.069-.03.12-.03.043 0 .066.032.02.028.02.073z"/></g><g transform="translate(.990857)"><path d="m396.69831 52.128804c0 8.341966-6.71573 15.0577-15.0577 15.0577h-1.85256c-8.34197 0-15.0577-6.715734-15.0577-15.0577m0 0c3.4885-25.538774 31.69091-19.276729 31.96796 0" fill="#db0404" mask="url(#a)" opacity=".98"/><path d="m364.71022 50.914534c1.6631-39.163424 31.1738-37.397468 32.00278.085466" fill="#fca404" opacity=".98"/><path d="m399.93918 76.31069c.13712.196291.1473.486607-.29243.702835-.84879.417374-2.44044 1.102303-3.52651 1.370139-.3979.09813-.79946.0472-1.0151-.04371-9.90862-6.962779-19.38289-9.816102-30.43814-11.749134v-1.666c3.80789.355847 8.65998 1.454987 13.96119 2.873825.65772.145354.68863-.632858.49515-.62691l3.29366-.08874v1.62782c7.58242 1.691228 14.44776 4.854981 17.52218 7.59987z" fill="#db0404" opacity=".98"/></g><g fill="#fff" transform="matrix(.95143803 0 0 1.0510406 .990857 0)"><path d="m96.635309 37.505556h-6.393659l-4.87136 34.175634h6.469775l2.74014-19.257094c.913379-2.055105 1.902874-3.34906 2.283449-3.881865 3.120715-4.338555 5.175816-4.87136 7.002576-4.87136s3.0446.685035 3.88187 1.141725v-7.30704c-.68504-.228345-1.5223-.532805-2.81626-.532805-4.33855 0-7.230921 3.881865-9.286026 7.839845z"/><path d="m135.75844 37.048866c-1.44618-.30446-2.81625-.60892-5.48028-.60892-16.44084 0-22.53004 11.87394-22.53004 20.627165 0 6.69812 3.57741 15.679689 15.07077 15.679689 4.79525 0 7.83985-1.522299 9.51438-2.435679l.98949-6.85035c-1.82676 1.37007-4.79524 3.50129-9.51437 3.50129-8.37265 0-9.36215-7.535385-9.36215-9.971065 0-6.317545 4.64302-14.76631 15.52746-14.76631 1.75065 0 3.12072.228345 4.94748.532805z"/><path d="m151.59041 19.770762h-6.46977l-7.45927 51.910428h6.46977l3.27295-22.225579c1.82676-2.359565 3.80575-4.26244 4.11021-4.5669 1.14172-1.141725 3.5774-3.425175 6.24143-3.425175 1.06561 0 2.35956.60892 3.12071 1.67453s.83727 2.055105.83727 3.19683c0 1.446185-.0761 1.902875-.30446 3.120715l-3.12072 22.225579h6.54589l3.0446-21.692774c.30446-1.750645.38058-2.207335.38058-4.338555 0-6.69812-4.26244-9.209915-7.76373-9.209915-5.02359 0-9.05769 3.19683-12.25452 6.69812z"/><path d="m184.85265 37.505556h-6.46977l-4.87136 34.175634h6.46978z"/><path d="m199.08614 37.505556h-6.39366l-4.87136 34.175634h6.39366l3.12072-21.692774c.98949-1.293955 6.0892-7.91596 10.27552-7.91596 1.29396 0 3.95798.685035 3.95798 4.795245 0 .989495-.15223 3.272945-.5328 6.165315l-2.66403 18.648174h6.46978l3.19683-21.692774c2.35956-3.19683 6.85035-7.992075 10.65609-7.992075 1.21784 0 3.65352.685035 3.65352 5.099705 0 .837265-.15223 2.055105-.22834 2.89237l-3.12072 21.692774h6.46978l2.89237-20.246589c.22834-1.67453.45669-3.34906.45669-5.099705 0-7.76373-5.02359-9.362145-8.06819-9.362145-5.86085 0-10.57998 4.87136-12.7112 7.6115-.83727-5.860855-4.64302-7.6115-7.83985-7.6115-3.95798 0-7.83984 2.055105-11.95005 6.622005z"/><path d="m271.31924 62.166816c-3.12072 2.359565-7.53539 5.251935-11.79783 5.251935-4.18632 0-8.37265-3.729635-8.37265-10.123295 0-1.141725.0761-2.13122.15223-3.34906h21.38832c.15223-.76115.30446-1.750645.30446-3.34906 0-8.52488-5.25194-14.15739-12.40675-14.15739-9.43826 0-15.98415 9.209915-15.98415 20.09436 0 9.28603 5.48028 16.212494 14.38574 16.212494 3.19683 0 7.30704-.91338 11.34113-3.805749zm-18.95264-12.711205c.76115-2.207335 2.66403-7.76373 8.22042-7.76373 3.50129 0 6.16532 2.74014 6.0892 7.76373z"/><path d="m311.58405 19.770762h-6.54589l-2.35956 16.745299c-3.72964-.07612-6.92647-.15223-11.26502 1.37007-8.75323 3.120715-14.00516 11.645595-14.00516 19.48544 0 4.643015 1.90287 8.600995 4.5669 11.11279 2.51179 2.359565 6.0892 4.262439 13.39624 4.262439 4.79524 0 7.53538-.76115 8.75322-1.06561zm-13.32012 47.495759c-.76115.15223-1.44619.228345-2.89237.228345-8.22042 0-11.18891-5.099705-11.18891-10.427755 0-5.404165 2.89237-11.72171 9.81884-14.15739 3.0446-1.141725 6.16531-1.06561 7.91596-1.06561z"/><path d="m340.5078 62.166816c-3.12071 2.359565-7.53538 5.251935-11.79782 5.251935-4.18632 0-8.37265-3.729635-8.37265-10.123295 0-1.141725.0761-2.13122.15223-3.34906h21.38831c.15223-.76115.30446-1.750645.30446-3.34906 0-8.52488-5.25193-14.15739-12.40674-14.15739-9.43826 0-15.98415 9.209915-15.98415 20.09436 0 9.28603 5.48028 16.212494 14.38574 16.212494 3.19683 0 7.30704-.91338 11.34113-3.805749zm-18.95263-12.711205c.76115-2.207335 2.66403-7.76373 8.22042-7.76373 3.50129 0 6.16532 2.74014 6.0892 7.76373z"/><path d="m368.82256 40.245696c-1.90287-1.21784-5.63251-3.577405-10.50387-3.577405-7.07869 0-10.57998 4.5669-10.57998 9.514375 0 4.186325 2.66402 7.078695 5.70862 9.209915 5.78474 4.186325 7.68762 5.48028 7.68762 7.992075 0 2.207335-1.90288 3.729635-4.26244 3.729635-3.27295 0-6.62201-1.97899-10.73222-5.099705l-1.06561 6.24143c4.64302 3.272944 7.6115 4.490784 11.72171 4.490784 7.0787 0 10.73222-5.023589 10.73222-9.971064 0-5.32805-3.27295-7.687615-8.37265-11.26502-2.5118-1.750645-5.25194-3.65352-5.25194-5.63251 0-1.902875 1.82676-3.34906 4.49079-3.34906 3.88186 0 7.30704 2.13122 10.42775 4.490785z"/></g><path d="m67.490857 84.667c-21.379764-9.402283-40.98467-7.986339-59.511624 0l30.953444-39.599991c12.095495-7.769064 27.280177-.474286 28.547877 2.436635l.0103 37.163356" fill="#fca404" opacity=".98"/><path d="m67.073857 39.703568v-29.290504c.0432-.303932-.242808-.42509-.570842-.006-11.957718 15.27697-15.608749 18.919865-20.26579 25.903727-.260059.481763-.01219.73457.707616.707159 1.76671-.143235 3.502467-.06959 5.176208-.0783 7.360865-.03828 11.528289 1.953923 13.890159 3.11517.894819.37957 1.073166-.0088 1.062649-.351255z" fill="#db0404" opacity=".98"/><path d="m72.833 0h-8.13l-65.69385665 84.647819 73.82385665.019181z" fill="#fffbff" mask="url(#b)" opacity=".98" transform="translate(.990857)"/></svg>