<?xml version="1.0" encoding="UTF-8" standalone="no"?>
<svg
   id="svg"
   version="1.1"
   width="802.02753"
   height="169.334"
   viewBox="0 0 401.01376 84.667"
   sodipodi:docname="archimedes.svg"
   inkscape:version="1.1.2 (0a00cf5339, 2022-02-04)"
   xmlns:inkscape="http://www.inkscape.org/namespaces/inkscape"
   xmlns:sodipodi="http://sodipodi.sourceforge.net/DTD/sodipodi-0.dtd"
   xmlns="http://www.w3.org/2000/svg"
   xmlns:svg="http://www.w3.org/2000/svg">
  <defs
     id="defs14">
    <inkscape:path-effect
       effect="powermask"
       id="path-effect107002"
       is_visible="true"
       lpeversion="1"
       uri="#mask-powermask-path-effect107002"
       invert="false"
       hide_mask="false"
       background="true"
       background_color="#ffffffff" />
    <inkscape:path-effect
       effect="powermask"
       id="path-effect3451"
       is_visible="true"
       lpeversion="1"
       uri="#mask-powermask-path-effect3451"
       invert="false"
       hide_mask="false"
       background="true"
       background_color="#ffffffff" />
    <mask
       maskUnits="userSpaceOnUse"
       id="mask-powermask-path-effect3451">
      <path
         id="mask-powermask-path-effect3451_box"
         style="fill:#ffffff;fill-opacity:1"
         d="m 363.73035,32.622272 h 33.96796 v 35.564232 h -33.96796 z" />
      <path
         style="display:inline;opacity:0.98;fill:none;fill-opacity:1;stroke:#000000;stroke-width:1;stroke-miterlimit:4;stroke-dasharray:none;stroke-opacity:1"
         d="m 362.70423,51.365572 h 37"
         id="path3449" />
    </mask>
    <filter
       id="mask-powermask-path-effect3451_inverse"
       inkscape:label="filtermask-powermask-path-effect3451"
       style="color-interpolation-filters:sRGB"
       height="100"
       width="100"
       x="-50"
       y="-50">
      <feColorMatrix
         id="mask-powermask-path-effect3451_primitive1"
         values="1"
         type="saturate"
         result="fbSourceGraphic" />
      <feColorMatrix
         id="mask-powermask-path-effect3451_primitive2"
         values="-1 0 0 0 1 0 -1 0 0 1 0 0 -1 0 1 0 0 0 1 0 "
         in="fbSourceGraphic" />
    </filter>
    <mask
       maskUnits="userSpaceOnUse"
       id="mask-powermask-path-effect107002">
      <path
         id="mask-powermask-path-effect107002_box"
         style="fill:#ffffff;fill-opacity:1"
         d="M -1.9908566,-1 H 73.833 V 85.667 H -1.9908566 Z" />
      <path
         id="path107000"
         style="display:inline;opacity:0.98;fill:#000000;fill-opacity:1;stroke:none;stroke-width:20;stroke-miterlimit:4;stroke-dasharray:none;stroke-opacity:1"
         d="M 66.083,39.703568 V 10.413064 c 0.0432,-0.303932 -0.242808,-0.42509 -0.570842,-0.006 -11.957718,15.27697 -15.608749,18.919865 -20.26579,25.903727 -0.260059,0.481763 -0.01219,0.73457 0.707616,0.707159 1.76671,-0.143235 3.502467,-0.06959 5.176208,-0.0783 7.360865,-0.03828 11.528289,1.953923 13.890159,3.11517 0.894819,0.37957 1.073166,-0.0088 1.062649,-0.351255 z m -16.415031,1.899948 c -3.864212,0.07917 -7.946721,1.035058 -11.726563,3.46289 L 6.9882812,84.667969 H 66.5 L 66.4902,47.503906 c -0.871543,-2.001258 -8.320999,-6.07457 -16.822265,-5.90039 z" />
    </mask>
    <filter
       id="mask-powermask-path-effect107002_inverse"
       inkscape:label="filtermask-powermask-path-effect107002"
       style="color-interpolation-filters:sRGB"
       height="100"
       width="100"
       x="-50"
       y="-50">
      <feColorMatrix
         id="mask-powermask-path-effect107002_primitive1"
         values="1"
         type="saturate"
         result="fbSourceGraphic" />
      <feColorMatrix
         id="mask-powermask-path-effect107002_primitive2"
         values="-1 0 0 0 1 0 -1 0 0 1 0 0 -1 0 1 0 0 0 1 0 "
         in="fbSourceGraphic" />
    </filter>
  </defs>
  <sodipodi:namedview
     id="namedview12"
     pagecolor="#000000"
     bordercolor="#111111"
     borderopacity="1"
     inkscape:pageshadow="0"
     inkscape:pageopacity="0"
     inkscape:pagecheckerboard="1"
     showgrid="false"
     showguides="true"
     inkscape:guide-bbox="true"
     inkscape:zoom="0.70710678"
     inkscape:cx="311.12698"
     inkscape:cy="92.630988"
     inkscape:window-width="1366"
     inkscape:window-height="703"
     inkscape:window-x="0"
     inkscape:window-y="0"
     inkscape:window-maximized="1"
     inkscape:current-layer="svg"
     fit-margin-top="0"
     fit-margin-left="0"
     fit-margin-right="0"
     fit-margin-bottom="0">
    <sodipodi:guide
       position="182.7745,58.734285"
       orientation="0,-1"
       id="guide3027" />
    <sodipodi:guide
       position="1.1573566,42.3335"
       orientation="0,-1"
       id="guide49400" />
  </sodipodi:namedview>
  <text
     xml:space="preserve"
     style="font-size:1px;line-height:1.25;font-family:TrasksHand;-inkscape-font-specification:TrasksHand;fill:#ffffff;fill-opacity:0.5"
     x="244.59882"
     y="51.862553"
     id="text115436"
     inkscape:label="Signature"><tspan
       sodipodi:role="line"
       id="tspan115434"
       x="244.59882"
       y="51.862553"
       style="font-size:1px">John Loreth 2022</tspan></text>
  <g
     id="g21809"
     inkscape:label="Acorn"
     transform="translate(0.99085665)">
    <path
       id="rect2197"
       mask="url(#mask-powermask-path-effect3451)"
       d="m 396.69831,52.128804 c 0,8.341966 -6.71573,15.0577 -15.0577,15.0577 h -1.85256 c -8.34197,0 -15.0577,-6.715734 -15.0577,-15.0577 m 0,0 c 3.4885,-25.538774 31.69091,-19.276729 31.96796,0"
       style="display:inline;opacity:0.98;fill:#db0404;fill-opacity:1;stroke:none;stroke-width:3"
       sodipodi:nodetypes="cssccc"
       inkscape:label="Lower Acorn" />
    <path
       style="display:inline;opacity:0.98;fill:#fca404;fill-opacity:1;stroke:none;stroke-width:3"
       d="M 364.71022,50.914534 C 366.37332,11.75111 395.88402,13.517066 396.713,51"
       id="path864"
       sodipodi:nodetypes="cc"
       inkscape:label="Upper Acorn" />
    <path
       style="display:inline;opacity:0.98;fill:#db0404;fill-opacity:1;stroke:none;stroke-width:20;stroke-miterlimit:4;stroke-dasharray:none;stroke-opacity:1"
       d="m 399.93918,76.31069 c 0.13712,0.196291 0.1473,0.486607 -0.29243,0.702835 -0.84879,0.417374 -2.44044,1.102303 -3.52651,1.370139 -0.3979,0.09813 -0.79946,0.0472 -1.0151,-0.04371 C 385.19652,71.377175 375.72225,68.523852 364.667,66.59082 v -1.666 c 3.80789,0.355847 8.65998,1.454987 13.96119,2.873825 0.65772,0.145354 0.68863,-0.632858 0.49515,-0.62691 l 3.29366,-0.08874 v 1.62782 c 7.58242,1.691228 14.44776,4.854981 17.52218,7.59987 z"
       id="path4414"
       sodipodi:nodetypes="cssccccccccc"
       inkscape:label="Stem" />
  </g>
  <g
     aria-label="rchimedes"
     transform="matrix(0.95143803,0,0,1.0510406,0.99085665,0)"
     id="text37255"
     style="font-size:76.115px;line-height:1.25;font-family:'Gill Sans MT Pro';-inkscape-font-specification:'Gill Sans MT Pro';fill:#ffffff"
     inkscape:label="Rchimedes">
    <path
       d="M 96.635309,37.505556 H 90.24165 L 85.37029,71.68119 h 6.469775 l 2.74014,-19.257094 c 0.913379,-2.055105 1.902874,-3.34906 2.283449,-3.881865 3.120715,-4.338555 5.175816,-4.87136 7.002576,-4.87136 1.82676,0 3.0446,0.685035 3.88187,1.141725 v -7.30704 c -0.68504,-0.228345 -1.5223,-0.532805 -2.81626,-0.532805 -4.33855,0 -7.230921,3.881865 -9.286026,7.839845 z"
       style="font-style:italic;font-weight:500;-inkscape-font-specification:'Gill Sans MT Pro Medium Italic'"
       id="path107797"
       inkscape:label="r" />
    <path
       d="m 135.75844,37.048866 c -1.44618,-0.30446 -2.81625,-0.60892 -5.48028,-0.60892 -16.44084,0 -22.53004,11.87394 -22.53004,20.627165 0,6.69812 3.57741,15.679689 15.07077,15.679689 4.79525,0 7.83985,-1.522299 9.51438,-2.435679 l 0.98949,-6.85035 c -1.82676,1.37007 -4.79524,3.50129 -9.51437,3.50129 -8.37265,0 -9.36215,-7.535385 -9.36215,-9.971065 0,-6.317545 4.64302,-14.76631 15.52746,-14.76631 1.75065,0 3.12072,0.228345 4.94748,0.532805 z"
       style="font-style:italic;font-weight:500;-inkscape-font-specification:'Gill Sans MT Pro Medium Italic'"
       id="path107799"
       inkscape:label="c" />
    <path
       d="m 151.59041,19.770762 h -6.46977 l -7.45927,51.910428 h 6.46977 l 3.27295,-22.225579 c 1.82676,-2.359565 3.80575,-4.26244 4.11021,-4.5669 1.14172,-1.141725 3.5774,-3.425175 6.24143,-3.425175 1.06561,0 2.35956,0.60892 3.12071,1.67453 0.76115,1.06561 0.83727,2.055105 0.83727,3.19683 0,1.446185 -0.0761,1.902875 -0.30446,3.120715 l -3.12072,22.225579 h 6.54589 l 3.0446,-21.692774 c 0.30446,-1.750645 0.38058,-2.207335 0.38058,-4.338555 0,-6.69812 -4.26244,-9.209915 -7.76373,-9.209915 -5.02359,0 -9.05769,3.19683 -12.25452,6.69812 z"
       style="font-style:italic;font-weight:500;-inkscape-font-specification:'Gill Sans MT Pro Medium Italic'"
       id="path107801"
       inkscape:label="h" />
    <path
       d="m 184.85265,37.505556 h -6.46977 l -4.87136,34.175634 h 6.46978 z"
       style="font-style:italic;font-weight:500;-inkscape-font-specification:'Gill Sans MT Pro Medium Italic'"
       id="path107803"
       sodipodi:nodetypes="ccccc"
       inkscape:label="i" />
    <path
       d="m 199.08614,37.505556 h -6.39366 l -4.87136,34.175634 h 6.39366 l 3.12072,-21.692774 c 0.98949,-1.293955 6.0892,-7.91596 10.27552,-7.91596 1.29396,0 3.95798,0.685035 3.95798,4.795245 0,0.989495 -0.15223,3.272945 -0.5328,6.165315 l -2.66403,18.648174 h 6.46978 l 3.19683,-21.692774 c 2.35956,-3.19683 6.85035,-7.992075 10.65609,-7.992075 1.21784,0 3.65352,0.685035 3.65352,5.099705 0,0.837265 -0.15223,2.055105 -0.22834,2.89237 l -3.12072,21.692774 h 6.46978 l 2.89237,-20.246589 c 0.22834,-1.67453 0.45669,-3.34906 0.45669,-5.099705 0,-7.76373 -5.02359,-9.362145 -8.06819,-9.362145 -5.86085,0 -10.57998,4.87136 -12.7112,7.6115 -0.83727,-5.860855 -4.64302,-7.6115 -7.83985,-7.6115 -3.95798,0 -7.83984,2.055105 -11.95005,6.622005 z"
       style="font-style:italic;font-weight:500;-inkscape-font-specification:'Gill Sans MT Pro Medium Italic'"
       id="path107805"
       inkscape:label="m" />
    <path
       d="m 271.31924,62.166816 c -3.12072,2.359565 -7.53539,5.251935 -11.79783,5.251935 -4.18632,0 -8.37265,-3.729635 -8.37265,-10.123295 0,-1.141725 0.0761,-2.13122 0.15223,-3.34906 h 21.38832 c 0.15223,-0.76115 0.30446,-1.750645 0.30446,-3.34906 0,-8.52488 -5.25194,-14.15739 -12.40675,-14.15739 -9.43826,0 -15.98415,9.209915 -15.98415,20.09436 0,9.28603 5.48028,16.212494 14.38574,16.212494 3.19683,0 7.30704,-0.91338 11.34113,-3.805749 z M 252.3666,49.455611 c 0.76115,-2.207335 2.66403,-7.76373 8.22042,-7.76373 3.50129,0 6.16532,2.74014 6.0892,7.76373 z"
       style="font-style:italic;font-weight:500;-inkscape-font-specification:'Gill Sans MT Pro Medium Italic'"
       id="path107807"
       inkscape:label="e" />
    <path
       d="m 311.58405,19.770762 h -6.54589 l -2.35956,16.745299 c -3.72964,-0.07612 -6.92647,-0.15223 -11.26502,1.37007 -8.75323,3.120715 -14.00516,11.645595 -14.00516,19.48544 0,4.643015 1.90287,8.600995 4.5669,11.11279 2.51179,2.359565 6.0892,4.262439 13.39624,4.262439 4.79524,0 7.53538,-0.76115 8.75322,-1.06561 z m -13.32012,47.495759 c -0.76115,0.15223 -1.44619,0.228345 -2.89237,0.228345 -8.22042,0 -11.18891,-5.099705 -11.18891,-10.427755 0,-5.404165 2.89237,-11.72171 9.81884,-14.15739 3.0446,-1.141725 6.16531,-1.06561 7.91596,-1.06561 z"
       style="font-style:italic;font-weight:500;-inkscape-font-specification:'Gill Sans MT Pro Medium Italic'"
       id="path107809"
       inkscape:label="d" />
    <path
       d="m 340.5078,62.166816 c -3.12071,2.359565 -7.53538,5.251935 -11.79782,5.251935 -4.18632,0 -8.37265,-3.729635 -8.37265,-10.123295 0,-1.141725 0.0761,-2.13122 0.15223,-3.34906 h 21.38831 c 0.15223,-0.76115 0.30446,-1.750645 0.30446,-3.34906 0,-8.52488 -5.25193,-14.15739 -12.40674,-14.15739 -9.43826,0 -15.98415,9.209915 -15.98415,20.09436 0,9.28603 5.48028,16.212494 14.38574,16.212494 3.19683,0 7.30704,-0.91338 11.34113,-3.805749 z M 321.55517,49.455611 c 0.76115,-2.207335 2.66403,-7.76373 8.22042,-7.76373 3.50129,0 6.16532,2.74014 6.0892,7.76373 z"
       style="font-style:italic;font-weight:500;-inkscape-font-specification:'Gill Sans MT Pro Medium Italic'"
       id="path107811"
       inkscape:label="e" />
    <path
       d="m 368.82256,40.245696 c -1.90287,-1.21784 -5.63251,-3.577405 -10.50387,-3.577405 -7.07869,0 -10.57998,4.5669 -10.57998,9.514375 0,4.186325 2.66402,7.078695 5.70862,9.209915 5.78474,4.186325 7.68762,5.48028 7.68762,7.992075 0,2.207335 -1.90288,3.729635 -4.26244,3.729635 -3.27295,0 -6.62201,-1.97899 -10.73222,-5.099705 l -1.06561,6.24143 c 4.64302,3.272944 7.6115,4.490784 11.72171,4.490784 7.0787,0 10.73222,-5.023589 10.73222,-9.971064 0,-5.32805 -3.27295,-7.687615 -8.37265,-11.26502 -2.5118,-1.750645 -5.25194,-3.65352 -5.25194,-5.63251 0,-1.902875 1.82676,-3.34906 4.49079,-3.34906 3.88186,0 7.30704,2.13122 10.42775,4.490785 z"
       style="font-style:italic;font-weight:500;-inkscape-font-specification:'Gill Sans MT Pro Medium Italic'"
       id="path107813"
       inkscape:label="s" />
  </g>
  <path
     style="display:inline;opacity:0.98;fill:#fca404;fill-opacity:1;stroke:none;stroke-width:20;stroke-miterlimit:4;stroke-dasharray:none;stroke-opacity:1"
     d="m 67.490857,84.667 c -21.379764,-9.402283 -40.98467,-7.986339 -59.511624,0 L 38.932677,45.067009 c 12.095495,-7.769064 27.280177,-0.474286 28.547877,2.436635 l 0.0103,37.163356"
     id="path49341"
     sodipodi:nodetypes="ccccc"
     inkscape:label="Orange Cut" />
  <path
     style="display:inline;opacity:0.98;fill:#db0404;fill-opacity:1;stroke:none;stroke-width:20;stroke-miterlimit:4;stroke-dasharray:none;stroke-opacity:1"
     d="M 67.073857,39.703568 V 10.413064 c 0.0432,-0.303932 -0.242808,-0.42509 -0.570842,-0.006 -11.957718,15.27697 -15.608749,18.919865 -20.26579,25.903727 -0.260059,0.481763 -0.01219,0.73457 0.707616,0.707159 1.76671,-0.143235 3.502467,-0.06959 5.176208,-0.0783 7.360865,-0.03828 11.528289,1.953923 13.890159,3.11517 0.894819,0.37957 1.073166,-0.0088 1.062649,-0.351255 z"
     id="path65564"
     sodipodi:nodetypes="ccsccsccc"
     inkscape:label="Red Cut" />
  <path
     style="display:inline;opacity:0.98;fill:#fffbff;fill-opacity:1;stroke:none;stroke-width:20;stroke-miterlimit:4;stroke-dasharray:none;stroke-opacity:1"
     d="m 72.833,0 h -8.13 L -0.99085665,84.647819 72.833,84.667 Z"
     id="path49089"
     sodipodi:nodetypes="ccccc"
     mask="url(#mask-powermask-path-effect107002)"
     inkscape:path-effect="#path-effect107002"
     inkscape:original-d="m 72.833,0 h -8.13 L -0.99085665,84.647819 72.833,84.667 Z"
     inkscape:label="A"
     transform="translate(0.99085665)" />
</svg>
