<svg id="svg" version="1.1" xmlns="http://www.w3.org/2000/svg" xmlns:xlink="http://www.w3.org/1999/xlink" width="400" height="84.73118279569893" viewBox="0, 0, 400,84.73118279569893"><g id="svgg"><path id="path0" d="M64.602 0.402 C 64.546 0.623,64.257 1.069,63.959 1.393 C 63.661 1.717,63.267 2.183,63.083 2.429 C 62.900 2.674,62.544 3.102,62.292 3.379 C 62.040 3.656,61.833 3.936,61.833 4.000 C 61.833 4.105,61.585 4.422,60.754 5.375 C 60.614 5.535,60.500 5.740,60.500 5.829 C 60.500 5.919,60.313 6.115,60.083 6.265 C 59.854 6.415,59.667 6.625,59.667 6.732 C 59.667 6.839,59.460 7.157,59.208 7.440 C 58.956 7.723,58.637 8.129,58.500 8.342 C 58.362 8.556,58.081 8.907,57.875 9.123 C 57.669 9.339,57.500 9.573,57.500 9.644 C 57.500 9.715,57.326 9.925,57.112 10.110 C 56.899 10.296,56.474 10.834,56.168 11.307 C 55.861 11.780,55.546 12.167,55.468 12.167 C 55.389 12.167,55.254 12.354,55.167 12.583 C 55.080 12.813,54.933 13.000,54.842 13.000 C 54.750 13.000,54.550 13.244,54.396 13.542 C 54.243 13.840,53.978 14.181,53.809 14.301 C 53.639 14.421,53.500 14.619,53.500 14.742 C 53.500 14.864,53.387 15.008,53.250 15.060 C 53.112 15.113,53.000 15.269,53.000 15.408 C 53.000 15.546,52.813 15.782,52.583 15.932 C 52.354 16.082,52.167 16.305,52.167 16.428 C 52.167 16.550,52.066 16.710,51.943 16.783 C 51.820 16.857,51.577 17.142,51.403 17.417 C 50.974 18.094,50.814 18.300,50.375 18.743 C 50.169 18.951,50.000 19.204,50.000 19.305 C 50.000 19.406,49.866 19.560,49.702 19.648 C 49.538 19.736,49.294 20.020,49.160 20.279 C 49.026 20.538,48.785 20.848,48.625 20.968 C 48.465 21.088,48.333 21.276,48.333 21.386 C 48.333 21.496,48.183 21.680,48.000 21.795 C 47.817 21.909,47.667 22.087,47.667 22.191 C 47.667 22.294,47.498 22.545,47.292 22.748 C 46.846 23.187,46.111 24.137,46.015 24.398 C 45.978 24.500,45.809 24.681,45.640 24.801 C 45.471 24.921,45.333 25.109,45.333 25.219 C 45.333 25.330,45.183 25.513,45.000 25.628 C 44.817 25.742,44.667 25.930,44.667 26.044 C 44.667 26.159,44.423 26.478,44.125 26.755 C 43.827 27.031,43.471 27.481,43.333 27.754 C 43.196 28.027,42.952 28.348,42.792 28.468 C 42.631 28.588,42.500 28.766,42.500 28.865 C 42.500 28.963,42.256 29.282,41.958 29.572 C 41.420 30.096,41.102 30.521,40.885 31.000 C 40.823 31.137,40.636 31.348,40.469 31.468 C 40.303 31.588,40.167 31.754,40.167 31.837 C 40.167 31.985,40.078 32.095,38.910 33.389 C 38.593 33.741,38.332 34.078,38.331 34.139 C 38.329 34.200,38.123 34.483,37.872 34.767 C 37.622 35.051,37.267 35.495,37.083 35.754 C 36.900 36.013,36.581 36.389,36.375 36.590 C 36.169 36.791,36.000 37.036,36.000 37.135 C 36.000 37.234,35.869 37.412,35.708 37.532 C 35.548 37.652,35.304 37.971,35.167 38.241 C 35.029 38.511,34.673 38.977,34.375 39.277 C 34.077 39.577,33.833 39.899,33.833 39.993 C 33.833 40.087,33.679 40.258,33.490 40.374 C 33.302 40.489,33.029 40.832,32.883 41.135 C 32.635 41.653,32.094 42.325,31.093 43.356 C 30.858 43.597,30.667 43.862,30.667 43.944 C 30.667 44.026,30.535 44.214,30.375 44.363 C 30.215 44.512,29.896 44.913,29.667 45.255 C 29.438 45.596,29.094 46.034,28.904 46.229 C 28.714 46.424,28.510 46.715,28.451 46.875 C 28.392 47.035,28.268 47.167,28.176 47.167 C 28.084 47.167,27.890 47.395,27.746 47.674 C 27.455 48.237,27.068 48.744,26.625 49.144 C 26.465 49.289,26.333 49.502,26.333 49.617 C 26.333 49.732,26.146 49.949,25.917 50.099 C 25.687 50.249,25.500 50.478,25.500 50.608 C 25.500 50.738,25.387 50.887,25.250 50.940 C 25.113 50.992,24.999 51.121,24.997 51.226 C 24.994 51.431,24.296 52.319,23.597 53.006 C 23.360 53.239,23.167 53.520,23.167 53.631 C 23.167 53.742,23.094 53.833,23.004 53.833 C 22.915 53.833,22.723 54.062,22.579 54.342 C 22.330 54.823,22.090 55.126,21.325 55.923 C 21.146 56.109,21.000 56.325,21.000 56.403 C 21.000 56.481,20.831 56.715,20.625 56.924 C 20.157 57.396,19.972 57.630,19.574 58.254 C 19.400 58.527,19.162 58.810,19.046 58.883 C 18.929 58.957,18.833 59.095,18.833 59.191 C 18.833 59.288,18.627 59.568,18.375 59.816 C 18.123 60.063,17.771 60.473,17.594 60.726 C 17.416 60.980,17.135 61.345,16.969 61.536 C 16.803 61.728,16.667 61.937,16.667 62.001 C 16.667 62.065,16.438 62.372,16.158 62.684 C 14.985 63.991,14.734 64.305,14.428 64.847 C 14.251 65.160,13.969 65.515,13.803 65.634 C 13.636 65.754,13.500 65.920,13.500 66.002 C 13.500 66.084,13.331 66.329,13.125 66.546 C 12.919 66.763,12.605 67.146,12.428 67.397 C 12.250 67.648,11.932 68.055,11.719 68.302 C 11.507 68.548,11.334 68.809,11.334 68.882 C 11.333 68.954,11.052 69.309,10.708 69.670 C 9.754 70.672,9.539 70.941,9.266 71.470 C 9.127 71.738,8.767 72.222,8.465 72.546 C 7.650 73.420,7.167 74.014,7.167 74.141 C 7.167 74.203,6.906 74.553,6.587 74.918 C 6.267 75.284,6.005 75.642,6.003 75.713 C 6.001 75.785,5.737 76.085,5.417 76.379 C 5.096 76.673,4.833 77.008,4.833 77.122 C 4.833 77.237,4.683 77.424,4.500 77.539 C 4.317 77.653,4.167 77.841,4.167 77.955 C 4.167 78.070,4.017 78.258,3.833 78.372 C 3.650 78.487,3.500 78.646,3.500 78.726 C 3.500 78.868,2.832 79.737,2.201 80.417 C 2.030 80.600,1.843 80.881,1.784 81.042 C 1.725 81.202,1.600 81.333,1.505 81.333 C 1.411 81.333,1.332 81.427,1.331 81.542 C 1.329 81.656,1.104 82.004,0.831 82.314 C 0.411 82.791,0.333 83.017,0.333 83.773 L 0.333 84.667 3.917 84.667 C 7.368 84.667,7.500 84.655,7.500 84.339 C 7.500 84.159,7.725 83.755,8.000 83.442 C 8.275 83.129,8.500 82.833,8.500 82.784 C 8.500 82.735,8.651 82.520,8.835 82.306 C 9.019 82.092,9.690 81.242,10.325 80.417 C 10.960 79.592,11.706 78.654,11.983 78.333 C 13.033 77.118,14.097 75.699,15.083 74.197 C 15.175 74.058,15.494 73.724,15.792 73.455 C 16.090 73.186,16.333 72.862,16.333 72.737 C 16.333 72.611,16.521 72.385,16.750 72.235 C 16.979 72.085,17.167 71.887,17.167 71.796 C 17.167 71.705,17.654 71.041,18.250 70.321 C 18.846 69.601,19.333 68.955,19.333 68.887 C 19.333 68.818,19.483 68.609,19.667 68.423 C 20.325 67.752,21.667 66.031,21.667 65.856 C 21.667 65.759,21.817 65.598,22.000 65.500 C 22.183 65.402,22.333 65.238,22.333 65.136 C 22.333 65.034,22.896 64.293,23.583 63.489 C 24.271 62.686,24.833 61.984,24.833 61.931 C 24.833 61.877,24.949 61.702,25.091 61.542 C 25.657 60.899,26.833 59.349,26.833 59.245 C 26.833 59.184,27.040 58.925,27.292 58.670 C 27.544 58.416,27.834 58.099,27.937 57.967 C 29.386 56.104,29.776 55.594,29.917 55.373 C 30.123 55.050,30.265 54.871,31.472 53.417 C 32.005 52.775,32.585 52.025,32.762 51.750 C 33.154 51.141,33.326 50.922,34.533 49.494 C 35.055 48.877,35.443 48.332,35.395 48.284 C 35.347 48.236,35.538 48.025,35.820 47.817 C 36.102 47.608,36.333 47.370,36.333 47.288 C 36.333 47.206,36.596 46.819,36.917 46.428 C 37.237 46.036,37.500 45.667,37.500 45.608 C 37.500 45.472,38.132 44.833,38.266 44.833 C 38.321 44.833,38.564 44.697,38.808 44.531 C 39.051 44.365,39.587 44.122,40.000 43.991 C 40.412 43.861,41.010 43.622,41.327 43.460 C 41.644 43.299,42.080 43.167,42.294 43.167 C 42.509 43.167,43.005 43.021,43.395 42.843 C 43.786 42.665,44.494 42.468,44.969 42.405 C 45.445 42.342,45.833 42.239,45.833 42.176 C 45.833 42.009,49.823 41.664,51.667 41.672 C 54.176 41.683,57.965 42.326,58.880 42.896 C 59.083 43.023,59.475 43.174,59.750 43.232 C 60.312 43.349,62.053 44.183,62.139 44.375 C 62.169 44.444,62.319 44.506,62.472 44.513 C 62.625 44.521,63.050 44.705,63.417 44.922 C 63.783 45.139,64.271 45.413,64.500 45.530 C 64.729 45.647,64.963 45.808,65.019 45.887 C 65.076 45.966,65.301 46.118,65.519 46.226 C 66.549 46.732,66.499 45.736,66.500 66.125 L 66.500 84.667 69.667 84.667 L 72.833 84.667 72.833 42.333 L 72.833 0.000 68.768 0.000 L 64.703 0.000 64.602 0.402 M66.333 25.154 C 66.333 36.427,66.286 39.981,66.133 40.133 C 65.906 40.360,65.167 40.406,65.167 40.193 C 65.167 40.116,64.867 39.954,64.500 39.833 C 64.133 39.712,63.833 39.556,63.833 39.487 C 63.833 39.417,63.590 39.307,63.292 39.241 C 62.994 39.176,62.337 38.934,61.833 38.703 C 61.329 38.473,60.598 38.248,60.208 38.204 C 59.819 38.159,59.500 38.067,59.500 37.999 C 59.500 37.931,58.806 37.747,57.958 37.591 C 57.110 37.435,56.253 37.228,56.053 37.131 C 55.670 36.946,48.735 36.851,46.500 37.000 C 44.817 37.112,44.744 36.776,46.083 35.083 C 46.590 34.442,47.118 33.767,47.255 33.583 C 47.393 33.400,48.066 32.564,48.753 31.725 C 49.439 30.887,50.000 30.118,50.000 30.017 C 50.000 29.916,50.068 29.833,50.151 29.833 C 50.235 29.833,50.441 29.613,50.610 29.344 C 50.779 29.076,51.387 28.269,51.962 27.553 C 52.537 26.836,53.062 26.174,53.129 26.082 C 53.195 25.989,53.531 25.564,53.875 25.137 C 54.219 24.710,54.500 24.297,54.500 24.220 C 54.500 24.143,54.650 23.987,54.833 23.872 C 55.017 23.758,55.167 23.570,55.167 23.456 C 55.167 23.341,55.429 23.007,55.750 22.712 C 56.071 22.418,56.333 22.129,56.333 22.071 C 56.333 22.013,56.708 21.517,57.167 20.968 C 57.625 20.420,58.000 19.907,58.000 19.828 C 58.000 19.702,59.628 17.687,60.507 16.727 C 60.686 16.530,60.833 16.287,60.833 16.186 C 60.833 16.085,60.983 15.909,61.167 15.795 C 61.350 15.680,61.501 15.511,61.501 15.418 C 61.503 15.254,62.814 13.593,63.491 12.899 C 63.679 12.706,63.833 12.484,63.833 12.405 C 63.833 12.326,63.979 12.109,64.157 11.923 C 64.336 11.736,64.796 11.226,65.180 10.790 C 66.401 9.403,66.333 8.557,66.333 25.154 M137.255 23.750 C 137.191 24.438,137.081 25.000,137.011 25.000 C 136.941 25.000,136.786 26.012,136.667 27.250 C 136.547 28.488,136.399 29.500,136.337 29.500 C 136.276 29.500,136.086 30.850,135.917 32.500 C 135.747 34.150,135.557 35.500,135.494 35.500 C 135.431 35.500,135.284 36.550,135.167 37.833 C 135.049 39.117,134.902 40.167,134.839 40.167 C 134.776 40.167,134.586 41.517,134.417 43.167 C 134.247 44.817,134.058 46.167,133.996 46.167 C 133.934 46.167,133.786 47.179,133.667 48.417 C 133.547 49.654,133.399 50.667,133.337 50.667 C 133.276 50.667,133.086 52.017,132.917 53.667 C 132.747 55.317,132.558 56.667,132.496 56.667 C 132.434 56.667,132.286 57.679,132.167 58.917 C 132.047 60.154,131.899 61.167,131.837 61.167 C 131.776 61.167,131.586 62.517,131.417 64.167 C 131.247 65.817,131.059 67.167,130.998 67.167 C 130.937 67.167,130.790 68.160,130.671 69.375 C 130.552 70.590,130.399 71.621,130.333 71.667 C 130.266 71.712,130.158 72.256,130.092 72.875 L 129.973 74.000 133.297 74.000 L 136.621 74.000 136.727 73.227 C 136.786 72.801,136.833 72.239,136.833 71.977 C 136.833 71.715,136.895 71.500,136.970 71.500 C 137.046 71.500,137.248 70.187,137.419 68.583 C 137.590 66.979,137.779 65.667,137.838 65.667 C 137.897 65.667,138.042 64.692,138.160 63.500 C 138.278 62.308,138.427 61.333,138.490 61.333 C 138.553 61.333,138.743 60.002,138.911 58.375 C 139.080 56.748,139.270 55.379,139.333 55.333 C 139.397 55.288,139.530 54.524,139.630 53.637 C 139.746 52.593,139.906 51.916,140.082 51.720 C 140.231 51.553,140.649 51.098,141.010 50.708 C 141.371 50.318,141.667 49.956,141.667 49.902 C 141.667 49.722,145.123 46.333,145.307 46.333 C 145.407 46.333,145.569 46.183,145.667 46.000 C 145.765 45.817,145.951 45.667,146.081 45.667 C 146.211 45.667,146.377 45.569,146.450 45.449 C 146.523 45.330,146.958 45.093,147.417 44.923 C 147.875 44.753,148.299 44.539,148.360 44.447 C 148.552 44.154,151.067 44.211,151.372 44.516 C 151.519 44.662,151.864 44.875,152.141 44.989 C 152.447 45.116,152.755 45.435,152.930 45.807 C 153.087 46.142,153.286 46.462,153.371 46.518 C 153.826 46.815,153.792 52.670,153.334 53.000 C 153.270 53.046,153.080 54.415,152.911 56.042 C 152.743 57.669,152.554 59.000,152.492 59.000 C 152.430 59.000,152.281 60.050,152.161 61.333 C 152.040 62.617,151.893 63.667,151.834 63.667 C 151.774 63.667,151.586 65.017,151.417 66.667 C 151.247 68.317,151.057 69.667,150.994 69.667 C 150.931 69.667,150.828 70.248,150.766 70.958 C 150.704 71.669,150.608 72.644,150.553 73.125 L 150.454 74.000 153.789 74.000 L 157.124 74.000 157.219 73.375 C 157.272 73.031,157.407 71.831,157.521 70.708 C 157.634 69.585,157.775 68.667,157.834 68.667 C 157.893 68.667,158.040 67.617,158.161 66.333 C 158.281 65.050,158.431 64.000,158.494 64.000 C 158.557 64.000,158.747 62.631,158.917 60.958 C 159.087 59.285,159.277 57.879,159.340 57.833 C 159.403 57.788,159.550 56.737,159.667 55.500 C 159.783 54.262,159.939 53.211,160.012 53.164 C 160.525 52.830,160.542 45.034,160.030 44.675 C 159.959 44.624,159.807 44.265,159.694 43.875 C 159.580 43.485,159.421 43.167,159.340 43.167 C 159.259 43.167,159.143 42.936,159.081 42.654 C 158.958 42.094,157.411 40.433,156.844 40.254 C 156.655 40.193,156.500 40.086,156.500 40.015 C 156.500 39.945,156.181 39.784,155.792 39.659 C 155.402 39.533,155.030 39.353,154.964 39.257 C 154.798 39.015,150.019 39.034,149.865 39.277 C 149.802 39.378,149.319 39.556,148.792 39.673 C 148.265 39.790,147.833 39.943,147.833 40.013 C 147.833 40.083,147.458 40.264,147.000 40.417 C 146.542 40.569,146.167 40.744,146.167 40.806 C 146.167 40.868,145.930 41.023,145.642 41.151 C 145.112 41.385,144.817 41.604,144.102 42.292 C 143.887 42.498,143.654 42.667,143.584 42.667 C 143.513 42.667,142.891 43.230,142.201 43.917 C 141.511 44.605,140.929 45.149,140.909 45.126 C 140.823 45.027,141.399 40.076,141.504 40.000 C 141.568 39.954,141.718 38.923,141.837 37.708 C 141.957 36.494,142.104 35.500,142.165 35.500 C 142.225 35.500,142.414 34.150,142.583 32.500 C 142.753 30.850,142.941 29.500,143.002 29.500 C 143.063 29.500,143.210 28.506,143.329 27.292 C 143.448 26.077,143.600 25.046,143.666 25.000 C 143.732 24.954,143.839 24.373,143.903 23.708 L 144.020 22.500 140.696 22.500 L 137.372 22.500 137.255 23.750 M290.107 23.042 C 290.054 23.340,289.961 24.165,289.899 24.875 C 289.838 25.585,289.736 26.167,289.673 26.167 C 289.610 26.167,289.420 27.517,289.250 29.167 C 289.080 30.817,288.890 32.167,288.827 32.167 C 288.765 32.167,288.617 33.217,288.500 34.500 C 288.383 35.783,288.222 36.833,288.143 36.833 C 288.064 36.833,288.000 37.086,288.000 37.396 C 288.000 37.705,287.955 38.183,287.900 38.457 L 287.801 38.956 284.385 39.034 C 282.463 39.079,280.921 39.184,280.860 39.275 C 280.799 39.364,280.154 39.527,279.425 39.638 C 278.696 39.749,278.058 39.904,278.008 39.983 C 277.958 40.062,277.477 40.224,276.940 40.344 C 276.402 40.464,275.877 40.644,275.773 40.745 C 275.669 40.846,275.265 41.023,274.875 41.138 C 274.485 41.253,274.167 41.403,274.167 41.473 C 274.167 41.542,273.829 41.738,273.417 41.908 C 273.004 42.078,272.667 42.269,272.667 42.332 C 272.667 42.395,272.485 42.529,272.263 42.630 C 271.856 42.816,271.375 43.172,270.808 43.708 C 270.639 43.869,270.444 44.001,270.375 44.003 C 270.177 44.008,267.833 46.443,267.833 46.644 C 267.833 46.744,267.646 46.949,267.417 47.099 C 267.188 47.249,267.000 47.472,267.000 47.594 C 267.000 47.717,266.902 47.877,266.783 47.950 C 266.663 48.023,266.435 48.365,266.275 48.708 C 266.115 49.052,265.925 49.333,265.852 49.333 C 265.779 49.333,265.621 49.633,265.500 50.000 C 265.379 50.367,265.225 50.667,265.157 50.667 C 265.089 50.667,264.899 51.042,264.734 51.500 C 264.569 51.958,264.384 52.333,264.323 52.333 C 264.262 52.333,264.117 52.783,264.000 53.333 C 263.883 53.883,263.736 54.333,263.673 54.333 C 263.542 54.333,263.167 56.231,263.167 56.894 C 263.167 57.136,263.092 57.333,263.000 57.333 C 262.897 57.333,262.833 58.222,262.833 59.667 C 262.833 61.111,262.897 62.000,263.000 62.000 C 263.092 62.000,263.167 62.198,263.167 62.439 C 263.167 63.106,263.542 65.000,263.674 65.000 C 263.738 65.000,263.885 65.338,264.000 65.750 C 264.115 66.163,264.260 66.500,264.322 66.500 C 264.384 66.500,264.569 66.875,264.734 67.333 C 264.899 67.792,265.089 68.167,265.157 68.167 C 265.224 68.167,265.364 68.351,265.467 68.577 C 265.680 69.046,265.806 69.198,267.164 70.625 C 267.708 71.198,268.228 71.667,268.319 71.667 C 268.409 71.667,268.543 71.766,268.617 71.888 C 268.690 72.010,269.012 72.254,269.333 72.430 C 269.654 72.606,269.954 72.792,270.000 72.843 C 270.046 72.894,270.346 73.041,270.667 73.169 C 270.987 73.298,271.340 73.491,271.451 73.598 C 271.561 73.706,272.142 73.892,272.742 74.011 C 273.342 74.130,273.833 74.280,273.833 74.344 C 273.833 74.497,276.127 74.833,277.173 74.833 C 277.628 74.833,278.000 74.908,278.000 75.000 C 278.000 75.105,279.083 75.167,280.917 75.167 C 282.750 75.167,283.833 75.105,283.833 75.000 C 283.833 74.908,284.138 74.833,284.510 74.833 C 285.610 74.833,288.333 74.458,288.333 74.307 C 288.333 74.230,288.477 74.167,288.653 74.167 C 289.312 74.167,289.500 73.981,289.500 73.329 C 289.500 72.980,289.568 72.669,289.652 72.639 C 289.735 72.608,289.898 71.683,290.012 70.583 C 290.127 69.483,290.273 68.546,290.335 68.500 C 290.398 68.454,290.587 67.085,290.755 65.458 C 290.924 63.831,291.112 62.500,291.174 62.500 C 291.236 62.500,291.385 61.450,291.506 60.167 C 291.626 58.883,291.774 57.833,291.833 57.833 C 291.893 57.833,292.080 56.483,292.250 54.833 C 292.420 53.183,292.609 51.833,292.671 51.833 C 292.732 51.833,292.881 50.821,293.000 49.583 C 293.119 48.346,293.269 47.333,293.333 47.333 C 293.397 47.333,293.547 46.321,293.667 45.083 C 293.786 43.846,293.934 42.833,293.996 42.833 C 294.058 42.833,294.247 41.483,294.417 39.833 C 294.586 38.183,294.776 36.833,294.837 36.833 C 294.899 36.833,295.047 35.821,295.167 34.583 C 295.286 33.346,295.434 32.333,295.496 32.333 C 295.558 32.333,295.747 30.983,295.917 29.333 C 296.086 27.683,296.276 26.333,296.339 26.333 C 296.401 26.333,296.499 25.827,296.557 25.208 C 296.614 24.590,296.710 23.727,296.770 23.292 L 296.879 22.500 293.541 22.500 L 290.204 22.500 290.107 23.042 M120.458 39.112 C 119.931 39.151,119.500 39.255,119.500 39.342 C 119.500 39.429,119.288 39.500,119.028 39.500 C 118.437 39.500,116.612 39.854,116.500 39.990 C 116.454 40.046,115.835 40.234,115.125 40.407 C 114.415 40.581,113.833 40.779,113.833 40.848 C 113.833 40.918,113.571 41.061,113.250 41.167 C 112.929 41.273,112.667 41.413,112.667 41.478 C 112.667 41.544,112.258 41.737,111.759 41.906 C 111.259 42.076,110.811 42.317,110.764 42.441 C 110.716 42.565,110.565 42.667,110.428 42.667 C 110.291 42.667,110.098 42.817,110.000 43.000 C 109.902 43.183,109.716 43.333,109.587 43.333 C 109.458 43.333,109.254 43.471,109.134 43.640 C 109.015 43.809,108.760 44.030,108.568 44.132 C 108.162 44.347,106.500 45.969,106.500 46.150 C 106.500 46.218,106.276 46.524,106.003 46.830 C 105.729 47.137,105.462 47.525,105.408 47.694 C 105.355 47.862,105.253 48.000,105.182 48.000 C 105.112 48.000,104.910 48.299,104.735 48.665 C 104.560 49.030,104.372 49.330,104.318 49.331 C 104.264 49.332,104.121 49.633,104.000 50.000 C 103.879 50.367,103.720 50.667,103.647 50.667 C 103.573 50.667,103.420 50.985,103.306 51.375 C 103.193 51.765,103.053 52.121,102.996 52.167 C 102.850 52.284,102.333 54.199,102.333 54.622 C 102.333 54.815,102.264 54.997,102.179 55.028 C 101.602 55.236,101.576 63.554,102.151 64.000 C 102.210 64.046,102.400 64.665,102.574 65.375 C 102.747 66.085,102.940 66.667,103.001 66.667 C 103.063 66.667,103.212 66.967,103.333 67.333 C 103.454 67.700,103.598 68.000,103.653 68.000 C 103.707 68.000,103.857 68.236,103.984 68.525 C 104.112 68.814,104.356 69.208,104.525 69.400 C 105.198 70.164,105.333 70.337,105.333 70.436 C 105.333 70.571,106.596 71.833,106.730 71.833 C 106.787 71.833,106.983 71.965,107.167 72.125 C 107.922 72.786,108.116 72.928,108.588 73.167 C 108.861 73.304,109.168 73.496,109.272 73.594 C 109.376 73.691,109.882 73.872,110.397 73.995 C 110.912 74.119,111.333 74.270,111.333 74.331 C 111.333 74.468,113.259 74.833,113.978 74.833 C 114.265 74.833,114.500 74.908,114.500 75.000 C 114.500 75.103,115.333 75.167,116.667 75.167 C 118.000 75.167,118.833 75.103,118.833 75.000 C 118.833 74.908,119.106 74.833,119.439 74.833 C 120.210 74.833,122.223 74.474,122.334 74.317 C 122.380 74.251,122.896 74.073,123.481 73.922 C 124.066 73.770,124.652 73.538,124.784 73.406 C 124.916 73.275,125.128 73.167,125.254 73.167 C 125.906 73.167,126.293 72.393,126.416 70.844 C 126.482 70.013,126.593 69.333,126.663 69.333 C 126.733 69.333,126.843 68.715,126.906 67.958 C 126.970 67.202,127.063 66.415,127.113 66.208 C 127.184 65.910,127.131 65.833,126.851 65.833 C 126.658 65.833,126.500 65.906,126.500 65.996 C 126.500 66.085,126.260 66.282,125.966 66.434 C 125.673 66.586,125.330 66.813,125.205 66.938 C 125.079 67.064,124.794 67.212,124.572 67.268 C 124.349 67.324,124.167 67.430,124.167 67.505 C 124.167 67.579,123.773 67.769,123.292 67.928 C 122.810 68.086,122.379 68.268,122.333 68.331 C 122.221 68.486,120.789 68.833,120.260 68.833 C 120.025 68.833,119.833 68.908,119.833 69.000 C 119.833 69.102,119.028 69.167,117.750 69.167 C 116.472 69.167,115.667 69.102,115.667 69.000 C 115.667 68.908,115.518 68.833,115.336 68.833 C 114.849 68.833,113.500 68.450,113.500 68.312 C 113.500 68.247,113.271 68.143,112.992 68.082 C 112.713 68.020,112.395 67.827,112.285 67.652 C 112.176 67.477,112.019 67.333,111.936 67.333 C 111.703 67.333,110.670 66.277,110.668 66.036 C 110.667 65.919,110.554 65.780,110.417 65.727 C 110.279 65.674,110.167 65.541,110.167 65.430 C 110.167 65.320,110.016 65.068,109.833 64.871 C 109.649 64.674,109.370 63.966,109.213 63.298 C 109.056 62.630,108.850 62.030,108.755 61.964 C 108.513 61.796,108.524 56.859,108.768 56.702 C 108.869 56.637,109.002 56.283,109.064 55.917 C 109.226 54.955,109.556 53.833,109.676 53.833 C 109.733 53.833,109.879 53.533,110.000 53.167 C 110.121 52.800,110.269 52.500,110.328 52.500 C 110.387 52.500,110.575 52.181,110.746 51.792 C 110.917 51.402,111.194 50.985,111.362 50.866 C 111.529 50.746,111.667 50.577,111.667 50.489 C 111.667 50.205,113.903 48.070,114.458 47.825 C 114.756 47.693,115.000 47.527,115.000 47.455 C 115.000 47.384,115.188 47.254,115.417 47.167 C 115.646 47.080,115.833 46.933,115.833 46.842 C 115.833 46.751,116.246 46.556,116.750 46.409 C 117.254 46.263,117.667 46.084,117.667 46.011 C 117.667 45.938,118.135 45.781,118.708 45.661 C 119.281 45.542,119.804 45.363,119.869 45.264 C 120.051 44.988,127.700 45.015,127.792 45.292 C 127.889 45.583,128.667 45.558,128.667 45.264 C 128.667 45.134,128.728 45.003,128.803 44.972 C 128.878 44.942,129.065 43.759,129.219 42.343 C 129.527 39.517,129.525 39.507,128.556 39.503 C 128.265 39.501,127.999 39.414,127.964 39.309 C 127.898 39.112,122.409 38.967,120.458 39.112 M245.375 39.110 C 244.985 39.152,244.667 39.243,244.667 39.312 C 244.667 39.382,244.179 39.536,243.583 39.654 C 242.987 39.773,242.500 39.922,242.500 39.985 C 242.500 40.049,242.125 40.236,241.667 40.400 C 241.208 40.565,240.833 40.749,240.833 40.809 C 240.833 40.869,240.590 41.025,240.292 41.156 C 239.994 41.286,239.652 41.529,239.532 41.696 C 239.412 41.863,239.231 42.000,239.130 42.000 C 238.853 42.000,235.833 45.140,235.833 45.428 C 235.833 45.565,235.734 45.715,235.612 45.762 C 235.490 45.809,235.288 46.107,235.164 46.424 C 235.040 46.741,234.888 47.000,234.828 47.000 C 234.767 47.000,234.577 47.319,234.405 47.708 C 234.233 48.098,234.050 48.454,233.998 48.500 C 233.945 48.546,233.796 48.921,233.667 49.333 C 233.537 49.746,233.371 50.126,233.297 50.177 C 233.224 50.229,233.037 50.867,232.882 51.594 C 232.727 52.321,232.547 52.955,232.481 53.001 C 232.324 53.112,232.000 55.475,232.000 56.512 C 232.000 56.964,231.925 57.333,231.833 57.333 C 231.733 57.333,231.667 58.000,231.667 59.000 C 231.667 60.000,231.733 60.667,231.833 60.667 C 231.925 60.667,232.000 60.971,232.000 61.343 C 232.000 62.235,232.337 64.394,232.493 64.500 C 232.561 64.546,232.748 65.127,232.909 65.792 C 233.071 66.456,233.264 67.000,233.338 67.000 C 233.413 67.000,233.561 67.262,233.667 67.583 C 233.773 67.904,233.911 68.167,233.974 68.167 C 234.037 68.167,234.218 68.467,234.377 68.833 C 234.536 69.200,234.741 69.500,234.833 69.500 C 234.925 69.500,235.001 69.594,235.002 69.708 C 235.003 69.823,235.265 70.171,235.585 70.482 C 235.905 70.793,236.167 71.149,236.167 71.273 C 236.167 71.398,236.273 71.500,236.403 71.500 C 236.532 71.500,236.851 71.725,237.110 72.000 C 237.370 72.275,237.679 72.500,237.796 72.500 C 237.914 72.500,238.049 72.600,238.096 72.722 C 238.142 72.844,238.440 73.045,238.757 73.169 C 239.074 73.294,239.333 73.454,239.333 73.526 C 239.333 73.598,239.746 73.777,240.250 73.924 C 240.754 74.070,241.167 74.245,241.167 74.312 C 241.167 74.454,242.900 74.833,243.552 74.833 C 243.798 74.833,244.000 74.908,244.000 75.000 C 244.000 75.102,244.778 75.167,246.000 75.167 C 247.100 75.167,248.000 75.108,248.000 75.036 C 248.000 74.964,248.730 74.819,249.622 74.713 C 250.514 74.607,251.270 74.441,251.302 74.343 C 251.335 74.246,251.472 74.167,251.608 74.167 C 251.941 74.167,253.563 73.637,253.667 73.495 C 253.713 73.432,254.031 73.280,254.375 73.157 C 254.719 73.034,255.000 72.883,255.000 72.822 C 255.000 72.762,255.338 72.583,255.750 72.426 C 256.162 72.268,256.500 72.079,256.500 72.006 C 256.500 71.933,256.718 71.784,256.983 71.674 C 257.451 71.480,257.471 71.425,257.584 69.987 C 257.649 69.169,257.759 68.500,257.828 68.500 C 257.897 68.500,258.004 67.994,258.065 67.375 C 258.126 66.756,258.222 65.885,258.278 65.439 C 258.390 64.563,257.973 64.431,257.333 65.139 C 257.196 65.292,256.858 65.529,256.583 65.666 C 256.308 65.804,256.023 66.010,255.950 66.125 C 255.877 66.239,255.740 66.333,255.647 66.333 C 255.553 66.333,255.150 66.558,254.750 66.833 C 254.350 67.108,253.943 67.333,253.845 67.333 C 253.747 67.333,253.667 67.394,253.667 67.467 C 253.667 67.541,253.292 67.736,252.833 67.900 C 252.375 68.065,252.000 68.256,252.000 68.323 C 252.000 68.391,251.588 68.546,251.083 68.667 C 250.579 68.788,250.167 68.942,250.167 69.010 C 250.167 69.215,248.141 69.500,246.685 69.500 C 245.312 69.500,243.833 69.240,243.833 68.998 C 243.833 68.927,243.628 68.818,243.376 68.755 C 242.874 68.629,242.867 68.623,241.375 67.196 C 240.802 66.648,240.333 66.121,240.333 66.025 C 240.333 65.929,240.235 65.790,240.115 65.717 C 239.995 65.643,239.793 65.321,239.666 65.000 C 239.539 64.679,239.390 64.379,239.335 64.333 C 239.131 64.165,238.809 62.773,238.715 61.653 C 238.662 61.019,238.554 60.500,238.476 60.500 C 238.397 60.500,238.333 60.050,238.333 59.500 C 238.333 58.944,238.407 58.500,238.500 58.500 C 238.592 58.500,238.667 58.087,238.667 57.583 L 238.667 56.667 249.149 56.667 C 260.826 56.667,259.833 56.776,259.833 55.486 C 259.833 55.127,259.908 54.833,260.000 54.833 C 260.101 54.833,260.167 54.139,260.167 53.083 C 260.167 52.121,260.108 51.333,260.037 51.333 C 259.965 51.333,259.815 50.569,259.703 49.635 C 259.592 48.701,259.437 47.895,259.361 47.843 C 259.284 47.792,259.082 47.281,258.912 46.708 C 258.742 46.135,258.543 45.667,258.468 45.667 C 258.394 45.667,258.333 45.554,258.333 45.417 C 258.333 45.279,258.202 45.033,258.042 44.870 C 257.881 44.707,257.637 44.351,257.500 44.079 C 257.217 43.519,254.943 41.167,254.685 41.167 C 254.592 41.167,254.457 41.066,254.383 40.943 C 254.310 40.819,253.875 40.578,253.417 40.407 C 252.958 40.236,252.491 40.006,252.378 39.897 C 252.266 39.787,251.853 39.644,251.462 39.578 C 251.070 39.513,250.704 39.388,250.649 39.300 C 250.540 39.129,246.548 38.986,245.375 39.110 M311.125 39.110 C 310.781 39.152,310.500 39.257,310.500 39.343 C 310.500 39.430,310.340 39.500,310.144 39.500 C 309.721 39.500,308.452 39.855,308.333 40.007 C 308.287 40.066,307.875 40.255,307.417 40.426 C 306.958 40.598,306.438 40.873,306.260 41.036 C 306.083 41.200,305.876 41.333,305.802 41.333 C 305.457 41.333,301.667 45.067,301.667 45.407 C 301.667 45.550,301.595 45.667,301.508 45.667 C 301.420 45.667,301.217 45.948,301.056 46.292 C 300.895 46.635,300.671 47.011,300.559 47.126 C 300.447 47.241,300.308 47.485,300.250 47.668 C 300.192 47.850,300.086 48.000,300.016 48.000 C 299.945 48.000,299.747 48.487,299.577 49.083 C 299.407 49.679,299.212 50.167,299.146 50.167 C 299.079 50.167,298.929 50.598,298.814 51.125 C 298.698 51.652,298.556 52.121,298.497 52.167 C 298.310 52.311,297.994 54.191,297.886 55.792 C 297.830 56.640,297.719 57.333,297.642 57.333 C 297.564 57.333,297.500 58.083,297.500 59.000 C 297.500 60.000,297.567 60.667,297.667 60.667 C 297.758 60.667,297.833 60.994,297.833 61.395 C 297.833 62.318,298.304 65.044,298.483 65.161 C 298.557 65.210,298.712 65.644,298.826 66.125 C 298.940 66.606,299.093 67.000,299.167 67.000 C 299.240 67.000,299.435 67.375,299.600 67.833 C 299.764 68.292,299.961 68.667,300.037 68.667 C 300.113 68.667,300.246 68.854,300.333 69.083 C 300.420 69.313,300.569 69.500,300.663 69.500 C 300.756 69.500,300.833 69.598,300.833 69.717 C 300.833 69.837,301.096 70.189,301.417 70.500 C 301.737 70.811,302.000 71.163,302.000 71.283 C 302.000 71.402,302.098 71.500,302.219 71.500 C 302.339 71.500,302.653 71.725,302.917 72.000 C 303.180 72.275,303.497 72.500,303.620 72.500 C 303.743 72.500,303.887 72.612,303.940 72.750 C 303.992 72.887,304.126 73.000,304.236 73.000 C 304.347 73.000,304.586 73.139,304.769 73.309 C 304.951 73.479,305.509 73.752,306.008 73.917 C 306.508 74.081,306.954 74.265,307.000 74.325 C 307.117 74.477,308.759 74.833,309.346 74.833 C 309.614 74.833,309.833 74.908,309.833 75.000 C 309.833 75.102,310.611 75.167,311.833 75.167 C 312.933 75.167,313.833 75.108,313.833 75.036 C 313.833 74.964,314.563 74.819,315.455 74.713 C 316.347 74.607,317.103 74.441,317.136 74.343 C 317.168 74.246,317.305 74.167,317.441 74.167 C 317.845 74.167,319.401 73.619,319.623 73.399 C 319.737 73.286,320.056 73.144,320.332 73.084 C 320.608 73.023,320.833 72.912,320.833 72.836 C 320.833 72.761,321.058 72.621,321.333 72.525 C 321.608 72.429,322.083 72.160,322.390 71.925 C 322.697 71.691,323.027 71.500,323.123 71.500 C 323.223 71.500,323.349 70.861,323.417 70.000 C 323.482 69.175,323.590 68.500,323.657 68.500 C 323.786 68.500,324.229 64.840,324.114 64.725 C 323.988 64.599,323.253 64.963,322.750 65.399 C 322.475 65.638,322.156 65.833,322.042 65.833 C 321.927 65.833,321.833 65.905,321.833 65.992 C 321.833 66.080,321.552 66.283,321.208 66.444 C 320.865 66.605,320.489 66.829,320.374 66.941 C 320.259 67.053,320.015 67.192,319.832 67.250 C 319.650 67.308,319.500 67.411,319.500 67.478 C 319.500 67.546,319.125 67.736,318.667 67.900 C 318.208 68.065,317.833 68.256,317.833 68.323 C 317.833 68.391,317.421 68.546,316.917 68.667 C 316.412 68.788,316.000 68.942,316.000 69.010 C 316.000 69.213,313.979 69.500,312.541 69.500 C 311.188 69.500,309.500 69.216,309.500 68.988 C 309.500 68.921,309.275 68.788,309.000 68.692 C 308.725 68.596,308.500 68.438,308.500 68.342 C 308.500 68.246,308.406 68.166,308.292 68.164 C 308.044 68.162,306.167 66.284,306.167 66.039 C 306.167 65.946,306.069 65.831,305.949 65.786 C 305.830 65.740,305.630 65.394,305.506 65.018 C 305.382 64.641,305.233 64.333,305.175 64.333 C 305.047 64.333,304.667 62.960,304.667 62.498 C 304.667 62.316,304.602 62.167,304.524 62.167 C 304.303 62.167,304.150 59.696,304.272 58.102 L 304.383 56.667 314.923 56.667 C 324.582 56.667,325.473 56.644,325.570 56.391 C 325.997 55.280,325.678 48.168,325.188 47.839 C 325.114 47.790,324.951 47.394,324.824 46.958 C 324.698 46.523,324.541 46.167,324.477 46.167 C 324.412 46.167,324.309 45.934,324.246 45.650 C 324.184 45.365,324.009 45.007,323.858 44.853 C 323.707 44.699,323.471 44.356,323.333 44.090 C 323.047 43.538,320.761 41.167,320.514 41.167 C 320.424 41.167,320.290 41.069,320.217 40.949 C 320.143 40.830,319.708 40.592,319.250 40.420 C 318.792 40.248,318.325 40.015,318.212 39.902 C 318.099 39.789,317.686 39.644,317.295 39.578 C 316.904 39.513,316.537 39.387,316.481 39.298 C 316.372 39.127,312.181 38.980,311.125 39.110 M338.333 39.333 C 338.333 39.425,338.152 39.500,337.929 39.500 C 337.349 39.500,335.833 39.869,335.833 40.010 C 335.833 40.076,335.567 40.180,335.241 40.241 C 334.915 40.302,334.519 40.479,334.361 40.634 C 334.203 40.790,333.856 41.029,333.590 41.167 C 333.067 41.437,331.795 42.625,331.614 43.012 C 331.453 43.355,331.115 43.868,330.882 44.123 C 330.771 44.245,330.631 44.604,330.571 44.922 C 330.512 45.240,330.404 45.500,330.332 45.500 C 329.756 45.500,329.722 51.421,330.296 51.821 C 330.371 51.874,330.526 52.235,330.640 52.625 C 330.754 53.015,330.910 53.333,330.986 53.333 C 331.063 53.333,331.224 53.569,331.343 53.857 C 331.608 54.498,334.204 57.147,335.004 57.593 C 335.322 57.771,335.681 58.048,335.801 58.208 C 335.921 58.369,336.127 58.500,336.259 58.500 C 336.392 58.500,336.500 58.577,336.500 58.671 C 336.500 58.765,336.688 58.913,336.917 59.000 C 337.146 59.087,337.333 59.232,337.333 59.321 C 337.333 59.411,337.615 59.616,337.958 59.776 C 338.302 59.937,338.681 60.203,338.801 60.367 C 338.921 60.532,339.087 60.667,339.170 60.667 C 339.878 60.667,342.833 64.021,342.833 64.825 C 342.833 65.013,342.908 65.167,343.000 65.167 C 343.092 65.167,343.167 65.392,343.167 65.667 C 343.167 65.942,343.092 66.167,343.000 66.167 C 342.908 66.167,342.833 66.313,342.833 66.492 C 342.833 67.161,341.960 68.500,341.523 68.500 C 341.453 68.500,341.215 68.669,340.994 68.875 C 340.531 69.306,336.950 69.458,336.702 69.057 C 336.636 68.951,336.298 68.811,335.950 68.745 C 335.602 68.680,335.227 68.539,335.117 68.432 C 335.007 68.325,334.610 68.148,334.236 68.037 C 333.861 67.927,333.381 67.686,333.168 67.501 C 332.956 67.317,332.685 67.167,332.566 67.167 C 332.447 67.167,332.290 67.069,332.217 66.949 C 332.143 66.830,331.795 66.598,331.443 66.434 C 331.092 66.271,330.666 66.012,330.497 65.860 C 330.026 65.435,329.784 65.251,329.246 64.907 C 328.973 64.733,328.701 64.521,328.640 64.435 C 328.323 63.986,328.026 64.909,327.746 67.216 C 327.582 68.564,327.384 69.667,327.307 69.667 C 327.230 69.667,327.167 69.929,327.167 70.250 C 327.167 70.571,327.242 70.833,327.333 70.833 C 327.425 70.833,327.634 70.965,327.797 71.125 C 327.960 71.285,328.316 71.529,328.588 71.667 C 328.861 71.804,329.158 71.999,329.250 72.099 C 329.342 72.200,329.679 72.383,330.000 72.506 C 330.321 72.630,330.643 72.829,330.717 72.949 C 330.790 73.069,330.953 73.167,331.080 73.167 C 331.206 73.167,331.409 73.267,331.531 73.389 C 331.653 73.511,332.203 73.750,332.752 73.920 C 333.301 74.090,333.787 74.281,333.833 74.343 C 333.952 74.506,335.574 74.833,336.258 74.833 C 336.575 74.833,336.833 74.908,336.833 75.000 C 336.833 75.102,337.611 75.167,338.833 75.167 C 339.933 75.167,340.833 75.106,340.833 75.033 C 340.833 74.959,341.396 74.804,342.083 74.688 C 342.771 74.573,343.333 74.408,343.333 74.322 C 343.333 74.237,343.443 74.167,343.578 74.167 C 343.916 74.167,345.000 73.635,345.000 73.469 C 345.000 73.394,345.112 73.333,345.249 73.333 C 345.385 73.333,345.591 73.183,345.705 73.000 C 345.820 72.817,345.997 72.667,346.100 72.667 C 346.448 72.667,347.621 71.396,347.947 70.667 C 348.009 70.529,348.108 70.379,348.168 70.333 C 349.411 69.387,349.990 61.946,348.881 61.186 C 348.798 61.129,348.627 60.821,348.500 60.500 C 348.373 60.179,348.171 59.857,348.051 59.783 C 347.931 59.710,347.833 59.567,347.833 59.466 C 347.833 59.267,345.413 56.833,345.215 56.833 C 345.149 56.833,344.942 56.687,344.756 56.508 C 343.957 55.742,343.655 55.503,343.167 55.250 C 342.882 55.103,342.515 54.855,342.352 54.699 C 342.189 54.544,341.884 54.304,341.675 54.167 C 341.466 54.029,341.031 53.710,340.708 53.458 C 340.385 53.206,340.058 53.000,339.980 53.000 C 339.903 53.000,339.569 52.737,339.239 52.417 C 338.908 52.096,338.581 51.833,338.511 51.833 C 338.291 51.833,336.669 50.103,336.559 49.752 C 336.502 49.567,336.382 49.369,336.292 49.312 C 336.045 49.153,336.095 47.567,336.356 47.254 C 337.206 46.236,337.742 45.819,338.421 45.648 C 338.831 45.545,339.167 45.394,339.167 45.314 C 339.167 45.233,339.767 45.167,340.500 45.167 C 341.233 45.167,341.833 45.228,341.833 45.303 C 341.833 45.379,342.411 45.530,343.117 45.640 C 343.823 45.750,344.442 45.902,344.492 45.978 C 344.542 46.055,344.977 46.247,345.458 46.405 C 345.940 46.564,346.333 46.754,346.333 46.829 C 346.333 46.903,346.507 47.007,346.719 47.061 C 346.932 47.114,347.281 47.310,347.495 47.495 C 347.709 47.681,347.981 47.833,348.099 47.833 C 348.218 47.833,348.412 47.965,348.532 48.125 C 348.652 48.285,348.975 48.529,349.250 48.667 C 349.525 48.804,349.825 49.003,349.917 49.108 C 350.008 49.213,350.252 49.350,350.458 49.411 L 350.833 49.522 350.833 46.079 C 350.833 42.776,350.820 42.632,350.500 42.548 C 350.317 42.500,350.167 42.402,350.167 42.330 C 350.167 42.259,349.829 42.061,349.417 41.892 C 349.005 41.722,348.668 41.533,348.667 41.471 C 348.667 41.410,348.404 41.273,348.083 41.167 C 347.762 41.061,347.500 40.916,347.500 40.845 C 347.500 40.774,347.012 40.584,346.417 40.423 C 345.821 40.262,345.333 40.073,345.333 40.005 C 345.333 39.936,344.658 39.780,343.833 39.658 C 343.008 39.535,342.333 39.375,342.333 39.301 C 342.333 39.227,341.433 39.167,340.333 39.167 C 339.111 39.167,338.333 39.231,338.333 39.333 M98.292 39.704 C 97.856 39.795,97.500 39.930,97.500 40.005 C 97.500 40.080,97.219 40.232,96.875 40.343 C 96.194 40.563,96.219 40.544,94.708 41.977 C 94.135 42.521,93.667 43.045,93.667 43.143 C 93.667 43.241,93.517 43.402,93.333 43.500 C 93.150 43.598,93.000 43.770,93.000 43.881 C 93.000 43.992,92.812 44.301,92.583 44.568 C 92.354 44.834,92.167 45.149,92.167 45.268 C 92.167 45.386,92.065 45.543,91.941 45.617 C 91.817 45.690,91.668 45.862,91.610 46.000 C 91.552 46.137,91.550 45.612,91.605 44.833 C 91.661 44.054,91.762 43.379,91.830 43.333 C 91.899 43.288,92.008 42.556,92.073 41.708 L 92.192 40.167 88.947 40.167 C 85.198 40.167,85.607 39.921,85.406 42.292 C 85.343 43.048,85.238 43.667,85.174 43.667 C 85.110 43.667,84.920 45.054,84.752 46.750 C 84.584 48.446,84.397 49.833,84.336 49.833 C 84.275 49.833,84.126 50.883,84.006 52.167 C 83.885 53.450,83.734 54.500,83.669 54.500 C 83.604 54.500,83.453 55.512,83.333 56.750 C 83.214 57.987,83.066 59.000,83.004 59.000 C 82.942 59.000,82.753 60.350,82.583 62.000 C 82.414 63.650,82.224 65.000,82.163 65.000 C 82.101 65.000,81.953 66.012,81.833 67.250 C 81.714 68.487,81.566 69.500,81.505 69.500 C 81.404 69.500,81.000 72.813,81.000 73.647 C 81.000 74.005,81.016 74.007,84.292 73.962 L 87.583 73.917 87.817 71.667 C 87.946 70.429,88.104 69.379,88.169 69.333 C 88.234 69.287,88.385 68.256,88.504 67.042 C 88.623 65.827,88.770 64.833,88.830 64.833 C 88.889 64.833,89.076 63.502,89.245 61.875 C 89.413 60.248,89.602 58.879,89.665 58.833 C 89.727 58.788,89.873 57.850,89.988 56.750 C 90.102 55.650,90.260 54.726,90.338 54.698 C 90.416 54.669,90.601 54.282,90.749 53.837 C 90.896 53.393,91.116 52.991,91.237 52.945 C 91.358 52.898,91.510 52.651,91.574 52.396 C 91.638 52.141,91.835 51.830,92.012 51.706 C 92.189 51.582,92.333 51.370,92.333 51.235 C 92.333 51.100,92.446 50.946,92.583 50.894 C 92.721 50.841,92.833 50.707,92.833 50.596 C 92.833 50.484,93.002 50.234,93.208 50.040 C 93.415 49.846,93.808 49.409,94.083 49.069 C 94.776 48.212,95.193 47.833,95.442 47.833 C 95.559 47.833,95.735 47.683,95.833 47.500 C 95.931 47.317,96.116 47.167,96.244 47.167 C 96.372 47.167,96.582 47.061,96.711 46.932 C 97.396 46.247,101.833 46.145,101.833 46.814 C 101.833 46.942,102.814 47.333,103.137 47.333 C 103.282 47.333,103.333 46.390,103.333 43.750 C 103.333 40.770,103.294 40.167,103.097 40.167 C 102.967 40.167,102.835 40.088,102.803 39.991 C 102.653 39.541,99.912 39.367,98.292 39.704 M196.708 39.699 C 196.227 39.787,195.833 39.928,195.833 40.013 C 195.833 40.097,195.729 40.167,195.602 40.167 C 195.194 40.167,193.667 40.713,193.667 40.859 C 193.667 40.936,193.554 41.000,193.417 41.000 C 193.279 41.000,193.033 41.134,192.869 41.297 C 192.706 41.461,192.302 41.723,191.971 41.880 C 191.640 42.037,191.326 42.278,191.273 42.416 C 191.220 42.554,191.081 42.669,190.964 42.671 C 190.846 42.674,190.531 42.899,190.264 43.171 C 189.997 43.444,189.722 43.667,189.653 43.667 C 189.585 43.667,189.099 44.093,188.573 44.615 L 187.618 45.563 187.720 44.990 C 187.776 44.675,187.873 43.835,187.934 43.125 C 187.996 42.415,188.111 41.833,188.190 41.833 C 188.269 41.833,188.333 41.458,188.333 41.000 L 188.333 40.167 185.105 40.167 L 181.877 40.167 181.774 40.792 C 181.717 41.135,181.670 41.660,181.669 41.958 C 181.667 42.256,181.605 42.500,181.529 42.500 C 181.454 42.500,181.253 43.850,181.083 45.500 C 180.914 47.150,180.724 48.500,180.663 48.500 C 180.601 48.500,180.453 49.512,180.333 50.750 C 180.214 51.987,180.066 53.000,180.004 53.000 C 179.942 53.000,179.753 54.350,179.583 56.000 C 179.414 57.650,179.224 59.000,179.163 59.000 C 179.101 59.000,178.953 60.012,178.833 61.250 C 178.714 62.487,178.566 63.500,178.506 63.500 C 178.445 63.500,178.257 64.831,178.089 66.458 C 177.920 68.085,177.732 69.454,177.669 69.500 C 177.562 69.579,177.166 72.829,177.166 73.625 L 177.167 74.000 180.333 74.000 C 183.389 74.000,183.500 73.988,183.500 73.667 C 183.500 73.483,183.562 73.333,183.637 73.333 C 183.713 73.333,183.914 71.983,184.083 70.333 C 184.253 68.683,184.441 67.333,184.502 67.333 C 184.563 67.333,184.712 66.358,184.833 65.167 C 184.955 63.975,185.104 63.000,185.165 63.000 C 185.225 63.000,185.414 61.650,185.583 60.000 C 185.753 58.350,185.941 57.000,186.002 57.000 C 186.063 57.000,186.211 56.006,186.331 54.792 C 186.509 52.988,186.605 52.543,186.858 52.366 C 187.028 52.246,187.167 52.080,187.167 51.996 C 187.167 51.643,192.299 46.420,192.804 46.259 C 193.003 46.196,193.167 46.088,193.167 46.020 C 193.167 45.951,193.429 45.793,193.750 45.667 C 194.071 45.541,194.333 45.380,194.333 45.310 C 194.333 44.876,197.441 44.665,198.284 45.042 C 198.727 45.240,199.245 45.707,199.865 46.467 C 200.506 47.255,200.633 54.735,200.013 55.167 C 199.947 55.212,199.754 56.619,199.584 58.292 C 199.414 59.965,199.224 61.333,199.163 61.333 C 199.101 61.333,198.953 62.346,198.833 63.583 C 198.714 64.821,198.566 65.833,198.506 65.833 C 198.445 65.833,198.257 67.165,198.089 68.792 C 197.920 70.419,197.730 71.787,197.667 71.833 C 197.603 71.879,197.503 72.385,197.445 72.958 L 197.338 74.000 200.648 74.000 L 203.957 74.000 204.053 73.375 C 204.105 73.031,204.199 72.206,204.262 71.542 C 204.325 70.877,204.430 70.333,204.496 70.333 C 204.562 70.333,204.714 69.321,204.833 68.083 C 204.953 66.846,205.100 65.833,205.160 65.833 C 205.221 65.833,205.410 64.540,205.580 62.958 C 205.750 61.377,205.939 60.046,206.000 60.000 C 206.062 59.954,206.207 59.017,206.322 57.917 C 206.438 56.817,206.588 55.879,206.656 55.833 C 206.723 55.788,206.856 55.008,206.951 54.102 C 207.079 52.880,207.193 52.415,207.395 52.302 C 207.544 52.219,207.667 52.046,207.667 51.918 C 207.667 51.790,207.805 51.588,207.974 51.468 C 208.142 51.348,208.369 51.083,208.477 50.880 C 208.891 50.098,212.583 46.605,213.292 46.324 C 213.498 46.242,213.667 46.113,213.667 46.038 C 213.667 45.962,213.945 45.800,214.286 45.677 C 214.626 45.553,214.999 45.358,215.115 45.242 C 216.335 44.022,219.922 44.919,220.438 46.573 C 220.497 46.762,220.629 46.970,220.731 47.036 C 220.985 47.200,220.981 53.471,220.726 53.634 C 220.627 53.698,220.448 54.744,220.329 55.958 C 220.210 57.173,220.063 58.167,220.002 58.167 C 219.941 58.167,219.753 59.517,219.583 61.167 C 219.414 62.817,219.224 64.167,219.163 64.167 C 219.101 64.167,218.953 65.179,218.833 66.417 C 218.714 67.654,218.566 68.667,218.505 68.667 C 218.443 68.667,218.301 69.585,218.187 70.708 C 218.074 71.831,217.939 73.031,217.886 73.375 L 217.791 74.000 221.062 74.000 L 224.333 74.000 224.333 73.500 C 224.333 73.225,224.397 73.000,224.475 73.000 C 224.553 73.000,224.714 71.987,224.833 70.750 C 224.953 69.512,225.101 68.500,225.163 68.500 C 225.224 68.500,225.414 67.150,225.583 65.500 C 225.753 63.850,225.943 62.500,226.006 62.500 C 226.069 62.500,226.219 61.450,226.339 60.167 C 226.460 58.883,226.608 57.833,226.669 57.833 C 226.729 57.833,226.877 56.840,226.996 55.625 C 227.115 54.410,227.294 53.364,227.394 53.300 C 227.641 53.141,227.654 45.703,227.407 45.536 C 227.310 45.470,227.129 44.985,227.005 44.458 C 226.881 43.931,226.722 43.500,226.651 43.500 C 226.580 43.500,226.471 43.339,226.409 43.143 C 226.137 42.286,223.632 40.167,222.891 40.167 C 222.768 40.167,222.667 40.099,222.667 40.017 C 222.667 39.812,220.778 39.500,219.535 39.500 C 218.353 39.500,216.000 39.822,216.000 39.984 C 216.000 40.044,215.658 40.195,215.241 40.318 C 214.823 40.441,214.390 40.634,214.278 40.746 C 214.166 40.858,213.795 41.042,213.454 41.154 C 213.113 41.267,212.833 41.425,212.833 41.505 C 212.833 41.585,212.567 41.778,212.241 41.932 C 211.915 42.087,211.386 42.447,211.065 42.732 C 210.108 43.583,207.603 46.085,207.315 46.477 C 207.054 46.833,207.045 46.820,206.945 45.976 C 206.888 45.499,206.772 45.065,206.686 45.012 C 206.601 44.959,206.477 44.629,206.411 44.278 C 206.345 43.927,206.167 43.515,206.016 43.362 C 205.864 43.209,205.630 42.865,205.495 42.598 C 205.099 41.812,203.894 40.717,203.084 40.408 C 202.671 40.250,202.333 40.067,202.333 40.000 C 202.333 39.577,198.504 39.372,196.708 39.699 M169.000 40.583 C 169.000 40.813,168.936 41.000,168.859 41.000 C 168.781 41.000,168.619 42.012,168.500 43.250 C 168.381 44.487,168.232 45.500,168.171 45.500 C 168.109 45.500,167.920 46.850,167.750 48.500 C 167.580 50.150,167.391 51.500,167.329 51.500 C 167.268 51.500,167.119 52.512,167.000 53.750 C 166.881 54.987,166.732 56.000,166.671 56.000 C 166.609 56.000,166.420 57.350,166.250 59.000 C 166.080 60.650,165.891 62.000,165.829 62.000 C 165.768 62.000,165.619 63.012,165.500 64.250 C 165.381 65.487,165.232 66.500,165.171 66.500 C 165.109 66.500,164.920 67.850,164.750 69.500 C 164.580 71.150,164.380 72.500,164.304 72.500 C 164.229 72.500,164.167 72.837,164.167 73.250 L 164.167 74.000 167.482 74.000 L 170.798 74.000 170.917 72.500 C 170.982 71.675,171.091 71.000,171.159 71.000 C 171.227 71.000,171.381 69.987,171.500 68.750 C 171.619 67.512,171.768 66.500,171.829 66.500 C 171.891 66.500,172.080 65.150,172.250 63.500 C 172.420 61.850,172.609 60.500,172.671 60.500 C 172.732 60.500,172.881 59.487,173.000 58.250 C 173.119 57.012,173.269 56.000,173.333 56.000 C 173.397 56.000,173.547 54.987,173.667 53.750 C 173.786 52.512,173.947 51.500,174.025 51.500 C 174.103 51.500,174.167 51.256,174.166 50.958 C 174.166 50.021,174.720 45.254,174.840 45.167 C 174.903 45.121,175.052 44.090,175.171 42.875 C 175.290 41.660,175.450 40.667,175.527 40.667 C 175.604 40.667,175.667 40.554,175.667 40.417 C 175.667 40.203,175.185 40.167,172.333 40.167 L 169.000 40.167 169.000 40.583 M248.500 44.467 C 248.500 44.540,248.951 44.693,249.502 44.807 C 250.487 45.010,252.167 46.270,252.167 46.804 C 252.167 46.903,252.271 47.043,252.398 47.117 C 252.626 47.248,253.167 48.627,253.167 49.075 C 253.167 49.202,253.233 49.331,253.314 49.361 C 253.395 49.392,253.515 49.960,253.581 50.625 L 253.700 51.833 246.767 51.833 C 240.715 51.833,239.833 51.802,239.833 51.583 C 239.833 51.446,239.894 51.333,239.968 51.333 C 240.043 51.333,240.200 50.958,240.317 50.500 C 240.435 50.042,240.589 49.667,240.659 49.667 C 240.730 49.667,240.922 49.310,241.087 48.875 C 241.251 48.440,241.486 48.023,241.609 47.950 C 241.732 47.877,241.833 47.741,241.833 47.648 C 241.833 47.427,243.594 45.667,243.814 45.667 C 243.907 45.667,244.043 45.563,244.117 45.436 C 244.282 45.148,245.675 44.667,246.339 44.667 C 246.611 44.667,246.833 44.592,246.833 44.500 C 246.833 44.408,247.208 44.333,247.667 44.333 C 248.125 44.333,248.500 44.393,248.500 44.467 M314.333 44.500 C 314.333 44.592,314.481 44.667,314.661 44.667 C 315.808 44.667,317.563 45.876,318.167 47.083 C 318.304 47.358,318.501 47.673,318.605 47.783 C 318.708 47.894,318.847 48.268,318.912 48.616 C 318.977 48.964,319.090 49.287,319.162 49.333 C 319.234 49.379,319.347 49.960,319.414 50.625 L 319.534 51.833 312.587 51.833 L 305.640 51.833 305.758 51.292 C 305.822 50.994,305.930 50.712,305.997 50.667 C 306.064 50.621,306.210 50.302,306.322 49.958 C 306.434 49.615,306.583 49.333,306.653 49.333 C 306.723 49.333,306.878 49.037,306.997 48.675 C 307.117 48.313,307.316 47.978,307.440 47.931 C 307.565 47.883,307.667 47.754,307.667 47.643 C 307.667 47.405,309.412 45.667,309.651 45.667 C 309.742 45.667,309.877 45.563,309.950 45.436 C 310.106 45.165,311.494 44.667,312.089 44.667 C 312.315 44.667,312.500 44.592,312.500 44.500 C 312.500 44.408,312.912 44.333,313.417 44.333 C 313.921 44.333,314.333 44.408,314.333 44.500 M286.909 45.958 C 286.843 46.669,286.737 47.288,286.672 47.333 C 286.607 47.379,286.417 48.729,286.250 50.333 C 286.083 51.938,285.895 53.288,285.833 53.333 C 285.770 53.379,285.621 54.448,285.501 55.708 C 285.381 56.969,285.232 58.000,285.171 58.000 C 285.109 58.000,284.920 59.350,284.750 61.000 C 284.580 62.650,284.391 64.000,284.329 64.000 C 284.268 64.000,284.119 65.012,284.000 66.250 C 283.881 67.487,283.719 68.500,283.641 68.500 C 283.564 68.500,283.500 68.719,283.500 68.987 C 283.500 69.464,283.479 69.476,282.384 69.593 C 280.530 69.791,276.000 69.352,276.000 68.974 C 276.000 68.899,275.662 68.753,275.250 68.649 C 274.837 68.545,274.500 68.398,274.500 68.321 C 274.500 68.245,274.233 68.056,273.907 67.901 C 273.177 67.554,271.765 66.159,271.470 65.493 C 271.350 65.222,271.201 65.000,271.139 65.000 C 271.077 65.000,270.897 64.606,270.739 64.125 C 270.580 63.644,270.399 63.212,270.337 63.167 C 269.740 62.731,269.745 55.739,270.343 55.528 C 270.429 55.497,270.500 55.361,270.500 55.226 C 270.500 54.822,271.047 53.266,271.268 53.043 C 271.381 52.930,271.522 52.611,271.583 52.335 C 271.644 52.059,271.754 51.833,271.828 51.833 C 271.902 51.833,272.087 51.571,272.239 51.250 C 272.391 50.929,272.587 50.667,272.674 50.667 C 272.762 50.667,272.833 50.561,272.833 50.431 C 272.833 50.301,273.068 49.982,273.354 49.722 C 273.640 49.463,274.034 49.071,274.229 48.851 C 274.882 48.116,275.412 47.667,275.623 47.667 C 275.739 47.667,275.833 47.590,275.833 47.496 C 275.833 47.402,276.021 47.254,276.250 47.167 C 276.479 47.080,276.667 46.946,276.667 46.870 C 276.667 46.795,277.042 46.598,277.500 46.433 C 277.958 46.268,278.333 46.073,278.333 46.000 C 278.333 45.927,278.727 45.773,279.208 45.659 C 279.690 45.545,280.124 45.389,280.174 45.313 C 280.353 45.039,282.960 44.696,284.973 44.682 L 287.028 44.667 286.909 45.958 " stroke="none" fill="#fcfcfc" fill-rule="evenodd"></path><path id="path1" d="M378.056 22.573 C 376.325 23.114,374.821 24.050,373.293 25.537 C 372.073 26.724,370.500 28.648,370.500 28.954 C 370.500 29.071,370.430 29.167,370.345 29.167 C 370.259 29.167,370.142 29.316,370.084 29.499 C 370.026 29.682,369.886 29.926,369.774 30.041 C 369.462 30.362,367.897 33.655,367.656 34.500 C 367.538 34.912,367.383 35.328,367.312 35.424 C 367.191 35.586,366.620 37.374,366.189 38.936 C 366.085 39.313,366.000 39.842,366.000 40.111 C 366.000 40.380,365.937 40.671,365.860 40.758 C 365.686 40.955,365.333 42.923,365.333 43.694 C 365.333 44.009,365.253 44.347,365.155 44.445 C 364.958 44.642,364.570 50.341,364.726 50.747 C 364.812 50.971,366.657 51.000,380.768 51.000 L 396.713 51.000 396.628 48.632 C 396.573 47.091,396.477 46.242,396.355 46.202 C 396.239 46.163,396.167 45.689,396.167 44.967 C 396.167 43.743,395.683 40.311,395.491 40.167 C 395.384 40.087,395.294 39.688,395.059 38.250 C 394.999 37.883,394.895 37.546,394.828 37.500 C 394.760 37.454,394.582 36.932,394.430 36.340 C 394.279 35.747,394.096 35.222,394.024 35.173 C 393.951 35.124,393.794 34.727,393.674 34.292 C 393.555 33.856,393.408 33.500,393.348 33.500 C 393.288 33.500,393.140 33.162,393.018 32.750 C 392.896 32.337,392.749 31.999,392.690 31.999 C 392.556 31.997,392.167 31.172,392.167 30.892 C 392.167 30.777,392.069 30.623,391.949 30.550 C 391.829 30.477,391.632 30.173,391.512 29.875 C 391.391 29.577,391.246 29.333,391.188 29.333 C 391.130 29.333,390.904 28.996,390.685 28.583 C 390.466 28.171,390.222 27.833,390.144 27.833 C 390.065 27.833,390.000 27.723,390.000 27.589 C 390.000 27.455,389.850 27.265,389.667 27.167 C 389.483 27.069,389.333 26.910,389.333 26.814 C 389.333 26.562,386.945 24.327,386.314 23.990 C 386.099 23.875,385.823 23.680,385.700 23.557 C 385.577 23.434,385.356 23.333,385.210 23.333 C 385.063 23.333,384.822 23.224,384.675 23.091 C 383.913 22.401,379.668 22.069,378.056 22.573 M49.263 41.812 C 49.214 41.891,48.479 42.010,47.629 42.075 C 45.813 42.214,44.620 42.434,43.891 42.763 C 43.603 42.893,43.286 43.000,43.187 43.000 C 42.904 43.000,39.926 44.042,39.833 44.173 C 39.787 44.238,39.501 44.345,39.197 44.411 C 38.893 44.477,38.604 44.637,38.554 44.766 C 38.505 44.895,38.362 45.000,38.236 45.000 C 38.111 45.000,37.892 45.225,37.750 45.500 C 37.608 45.775,37.416 46.000,37.324 46.000 C 37.232 46.000,37.107 46.131,37.048 46.292 C 36.930 46.609,35.736 48.158,35.078 48.847 C 34.852 49.084,34.667 49.330,34.667 49.395 C 34.667 49.459,34.179 50.101,33.583 50.821 C 32.987 51.541,32.500 52.187,32.500 52.256 C 32.500 52.325,32.347 52.539,32.159 52.732 C 31.689 53.217,29.637 55.814,29.280 56.378 C 29.120 56.632,28.485 57.438,27.869 58.168 C 26.830 59.402,25.473 61.171,25.083 61.801 C 24.992 61.949,24.748 62.210,24.542 62.380 C 24.335 62.551,24.167 62.760,24.167 62.844 C 24.167 62.929,23.573 63.703,22.848 64.566 C 22.122 65.429,21.436 66.311,21.322 66.526 C 21.209 66.741,20.696 67.408,20.183 68.009 C 19.670 68.611,19.100 69.312,18.917 69.569 C 18.295 70.439,16.340 72.914,15.919 73.364 C 15.688 73.611,15.500 73.857,15.500 73.912 C 15.500 73.967,15.013 74.601,14.417 75.321 C 13.821 76.041,13.333 76.686,13.333 76.753 C 13.333 76.821,12.808 77.494,12.167 78.250 C 11.525 79.006,11.000 79.706,11.000 79.806 C 11.000 79.906,10.850 80.069,10.667 80.167 C 10.483 80.265,10.333 80.425,10.333 80.523 C 10.333 80.692,9.113 82.264,8.281 83.167 C 7.835 83.651,7.406 84.461,7.529 84.585 C 7.645 84.700,9.167 84.128,9.167 83.969 C 9.167 83.899,9.579 83.723,10.083 83.576 C 10.587 83.430,11.000 83.254,11.000 83.186 C 11.000 83.119,11.392 82.963,11.870 82.840 C 12.349 82.717,12.841 82.516,12.965 82.392 C 13.089 82.268,13.336 82.167,13.515 82.167 C 13.946 82.167,15.167 81.781,15.167 81.644 C 15.167 81.585,15.654 81.439,16.250 81.321 C 16.846 81.202,17.333 81.054,17.333 80.992 C 17.333 80.930,18.008 80.742,18.833 80.574 C 19.658 80.407,20.333 80.220,20.333 80.159 C 20.333 80.097,21.008 79.955,21.833 79.842 C 22.658 79.730,23.333 79.578,23.333 79.506 C 23.333 79.368,25.421 79.086,27.833 78.898 C 28.613 78.837,29.289 78.727,29.337 78.654 C 29.646 78.179,44.304 78.201,44.472 78.676 C 44.503 78.763,44.796 78.833,45.123 78.833 C 46.113 78.833,50.411 79.362,50.500 79.494 C 50.546 79.562,51.221 79.719,52.000 79.841 C 52.779 79.964,53.454 80.111,53.500 80.168 C 53.546 80.225,54.240 80.408,55.042 80.574 C 55.844 80.740,56.500 80.928,56.500 80.992 C 56.500 81.056,56.963 81.194,57.529 81.299 C 58.095 81.404,58.601 81.556,58.654 81.635 C 58.707 81.715,59.275 81.919,59.917 82.088 C 60.558 82.258,61.121 82.446,61.167 82.508 C 61.212 82.569,61.550 82.724,61.917 82.851 C 62.283 82.978,62.621 83.119,62.667 83.166 C 62.712 83.212,63.157 83.389,63.654 83.559 C 64.151 83.729,64.663 83.972,64.791 84.101 C 64.919 84.229,65.168 84.333,65.345 84.333 C 65.522 84.333,65.667 84.408,65.667 84.500 C 65.667 84.592,65.854 84.667,66.083 84.667 L 66.500 84.667 66.500 66.083 C 66.500 53.806,66.443 47.500,66.333 47.500 C 66.242 47.500,66.167 47.398,66.167 47.272 C 66.167 46.887,65.541 46.224,64.882 45.911 C 64.537 45.748,63.898 45.363,63.462 45.057 C 63.027 44.751,62.602 44.500,62.519 44.500 C 62.436 44.500,61.914 44.275,61.360 44.000 C 60.806 43.725,60.250 43.500,60.126 43.500 C 60.002 43.500,59.829 43.434,59.742 43.353 C 59.655 43.273,59.283 43.113,58.917 42.998 C 58.550 42.884,58.163 42.721,58.057 42.637 C 57.951 42.554,56.976 42.370,55.891 42.228 C 54.805 42.087,53.786 41.903,53.627 41.819 C 53.259 41.625,49.383 41.618,49.263 41.812 " stroke="none" fill="#fca404" fill-rule="evenodd"></path><path id="path2" d="M64.779 11.447 C 64.175 12.164,63.528 12.921,63.341 13.131 C 63.153 13.340,63.000 13.550,63.000 13.597 C 63.000 13.643,62.619 14.147,62.153 14.716 C 60.852 16.306,60.833 16.330,60.833 16.443 C 60.833 16.501,60.284 17.194,59.613 17.983 C 58.942 18.771,58.344 19.548,58.285 19.708 C 58.226 19.869,58.100 20.000,58.005 20.000 C 57.911 20.000,57.833 20.078,57.833 20.174 C 57.833 20.347,56.518 22.028,55.741 22.847 C 55.517 23.084,55.333 23.336,55.333 23.407 C 55.333 23.478,54.846 24.125,54.250 24.846 C 53.654 25.566,53.167 26.230,53.167 26.322 C 53.167 26.413,53.017 26.569,52.833 26.667 C 52.650 26.765,52.500 26.926,52.500 27.025 C 52.500 27.124,52.125 27.638,51.667 28.167 C 51.208 28.696,50.833 29.194,50.833 29.274 C 50.833 29.354,50.683 29.513,50.500 29.628 C 50.317 29.742,50.167 29.920,50.167 30.023 C 50.167 30.125,49.657 30.818,49.034 31.563 C 47.896 32.923,46.061 35.292,45.750 35.802 C 45.658 35.953,45.477 36.160,45.348 36.264 C 45.218 36.368,45.160 36.574,45.218 36.726 C 45.338 37.040,47.398 37.133,47.583 36.833 C 47.722 36.609,53.778 36.609,53.917 36.833 C 53.973 36.925,54.409 37.000,54.885 37.000 C 55.845 36.999,58.656 37.468,58.917 37.672 C 59.008 37.744,59.525 37.884,60.065 37.983 C 60.604 38.083,61.129 38.230,61.231 38.310 C 61.333 38.390,61.813 38.585,62.297 38.743 C 62.781 38.901,63.675 39.290,64.283 39.607 C 64.891 39.923,65.545 40.160,65.736 40.133 L 66.083 40.083 66.126 25.259 C 66.150 16.940,66.104 10.371,66.023 10.289 C 65.939 10.206,65.407 10.701,64.779 11.447 M364.667 52.893 C 364.667 54.582,364.908 56.216,365.170 56.306 C 365.260 56.336,365.333 56.501,365.333 56.673 C 365.333 57.051,365.674 57.833,365.839 57.833 C 365.905 57.833,366.001 58.047,366.053 58.307 C 366.161 58.848,367.144 60.500,367.358 60.500 C 367.436 60.500,367.500 60.598,367.500 60.719 C 367.500 60.839,367.725 61.153,368.000 61.417 C 368.275 61.680,368.500 62.032,368.500 62.198 C 368.500 62.377,368.621 62.500,368.797 62.500 C 368.960 62.500,369.487 62.875,369.967 63.333 C 370.448 63.792,370.948 64.167,371.078 64.167 C 371.208 64.167,371.412 64.303,371.532 64.470 C 371.652 64.637,371.994 64.881,372.292 65.011 C 372.590 65.141,372.833 65.294,372.833 65.351 C 372.833 65.408,373.246 65.584,373.750 65.743 C 374.254 65.901,374.705 66.095,374.754 66.172 C 374.802 66.250,375.196 66.364,375.629 66.425 C 376.062 66.486,376.583 66.641,376.786 66.768 C 376.989 66.896,377.476 67.001,377.869 67.002 C 378.824 67.005,379.333 67.156,379.333 67.436 C 379.333 67.581,379.148 67.667,378.833 67.667 C 378.558 67.667,378.333 67.599,378.333 67.516 C 378.333 67.433,377.977 67.326,377.542 67.278 C 376.330 67.144,375.632 66.994,375.083 66.749 C 374.808 66.626,374.096 66.473,373.500 66.409 C 372.904 66.346,372.192 66.200,371.917 66.085 C 371.642 65.971,370.743 65.788,369.920 65.678 C 369.097 65.569,368.385 65.420,368.337 65.348 C 368.289 65.276,367.800 65.171,367.250 65.113 C 366.700 65.056,365.894 64.960,365.458 64.899 L 364.667 64.788 364.667 65.621 L 364.667 66.454 365.690 66.546 C 366.253 66.598,366.759 66.712,366.815 66.801 C 366.871 66.891,367.292 67.003,367.750 67.051 C 369.533 67.239,371.500 67.571,371.500 67.684 C 371.500 67.750,372.044 67.898,372.708 68.015 C 373.373 68.131,374.067 68.318,374.250 68.430 C 374.433 68.543,374.902 68.686,375.291 68.748 C 375.680 68.811,376.032 68.917,376.073 68.984 C 376.114 69.050,376.752 69.249,377.491 69.425 C 378.229 69.601,378.833 69.797,378.833 69.860 C 378.833 69.924,379.265 70.071,379.792 70.188 C 380.319 70.304,380.825 70.489,380.917 70.598 C 381.008 70.707,381.362 70.845,381.703 70.905 C 382.044 70.964,382.432 71.123,382.566 71.257 C 382.700 71.390,382.888 71.500,382.983 71.500 C 383.079 71.500,383.553 71.678,384.037 71.896 C 384.521 72.115,385.198 72.392,385.542 72.513 C 385.885 72.634,386.167 72.791,386.167 72.860 C 386.167 72.930,386.467 73.077,386.833 73.186 C 387.200 73.296,387.500 73.442,387.500 73.510 C 387.500 73.578,387.875 73.768,388.333 73.933 C 388.792 74.098,389.167 74.284,389.167 74.346 C 389.167 74.408,389.392 74.553,389.667 74.667 C 389.942 74.781,390.167 74.937,390.167 75.014 C 390.167 75.091,390.467 75.235,390.833 75.333 C 391.200 75.432,391.500 75.607,391.500 75.723 C 391.500 75.838,391.762 76.028,392.083 76.144 C 392.404 76.260,392.667 76.425,392.667 76.511 C 392.667 76.597,392.769 76.667,392.894 76.667 C 393.019 76.667,393.300 76.842,393.519 77.055 C 393.738 77.269,394.160 77.585,394.458 77.758 C 394.756 77.931,395.000 78.131,395.000 78.203 C 395.000 78.538,396.538 78.309,397.474 77.833 C 398.015 77.558,398.580 77.333,398.729 77.333 C 398.878 77.333,399.000 77.268,399.000 77.188 C 399.000 77.107,399.225 76.997,399.500 76.942 C 400.840 76.674,399.663 75.471,397.125 74.514 C 396.873 74.419,396.667 74.277,396.667 74.197 C 396.667 74.118,396.350 73.958,395.964 73.842 C 395.577 73.726,395.184 73.540,395.089 73.427 C 394.994 73.315,394.598 73.124,394.208 73.002 C 393.819 72.880,393.500 72.717,393.500 72.640 C 393.500 72.563,393.369 72.500,393.208 72.499 C 393.048 72.499,392.671 72.349,392.371 72.166 C 392.071 71.983,391.754 71.833,391.667 71.833 C 391.580 71.833,391.017 71.608,390.417 71.333 C 389.816 71.058,389.271 70.833,389.204 70.832 C 389.138 70.832,388.896 70.734,388.667 70.615 C 388.438 70.496,387.875 70.295,387.417 70.170 C 386.958 70.044,386.546 69.895,386.500 69.837 C 386.382 69.690,384.688 69.167,384.328 69.167 C 384.163 69.167,384.003 69.091,383.972 68.998 C 383.941 68.906,383.578 68.772,383.166 68.702 L 382.417 68.574 382.417 67.829 L 382.417 67.083 383.394 67.033 C 383.932 67.005,384.532 66.880,384.728 66.754 C 384.923 66.629,385.437 66.474,385.870 66.412 C 386.302 66.349,386.743 66.193,386.848 66.065 C 386.954 65.938,387.152 65.833,387.288 65.833 C 387.610 65.833,389.201 65.043,389.417 64.776 C 389.508 64.662,389.865 64.438,390.208 64.277 C 390.552 64.116,390.833 63.911,390.833 63.820 C 390.833 63.730,390.965 63.610,391.125 63.553 C 391.651 63.367,394.032 60.812,394.370 60.070 C 394.471 59.848,394.615 59.667,394.691 59.667 C 394.767 59.667,394.945 59.388,395.088 59.048 C 395.230 58.707,395.400 58.388,395.466 58.339 C 395.648 58.204,396.168 56.633,396.167 56.222 C 396.167 56.024,396.248 55.834,396.346 55.801 C 396.567 55.728,396.872 53.332,396.802 52.226 L 396.750 51.417 380.708 51.374 L 364.667 51.332 364.667 52.893 " stroke="none" fill="#db0404" fill-rule="evenodd"></path><path id="path3" d="M65.238 10.713 L 64.583 11.417 65.286 10.763 C 65.804 10.282,66.013 10.172,66.079 10.347 C 66.129 10.477,66.150 17.220,66.126 25.332 L 66.083 40.080 65.583 40.187 C 65.119 40.286,65.114 40.295,65.508 40.314 C 66.365 40.353,66.333 40.932,66.333 25.154 C 66.333 8.672,66.394 9.470,65.238 10.713 M61.833 14.875 C 61.587 15.210,61.547 15.327,61.727 15.180 C 62.001 14.958,62.414 14.333,62.287 14.333 C 62.255 14.333,62.051 14.577,61.833 14.875 M59.045 18.458 C 58.328 19.295,57.650 20.232,58.110 19.750 C 58.600 19.237,60.020 17.500,59.950 17.500 C 59.904 17.500,59.497 17.931,59.045 18.458 M54.500 24.180 C 54.500 24.279,54.228 24.711,53.896 25.139 L 53.292 25.917 53.974 25.167 C 54.573 24.509,54.839 24.000,54.583 24.000 C 54.538 24.000,54.500 24.081,54.500 24.180 M51.239 28.461 C 50.528 29.328,50.345 29.707,50.979 29.000 C 51.465 28.458,51.908 27.829,51.798 27.836 C 51.771 27.838,51.520 28.119,51.239 28.461 M48.532 31.942 C 48.045 32.524,47.682 33.000,47.724 33.000 C 47.844 33.000,49.551 30.994,49.480 30.935 C 49.445 30.907,49.019 31.359,48.532 31.942 M45.810 35.458 C 45.331 36.037,45.127 36.333,45.210 36.333 C 45.256 36.333,45.494 36.071,45.739 35.750 C 46.193 35.155,46.248 34.930,45.810 35.458 M47.724 36.794 C 47.618 36.862,48.980 36.917,50.750 36.917 C 52.520 36.917,53.882 36.862,53.776 36.794 C 53.670 36.727,52.308 36.672,50.750 36.672 C 49.192 36.672,47.830 36.727,47.724 36.794 M56.094 37.150 C 56.149 37.205,56.640 37.331,57.186 37.431 C 57.732 37.531,58.120 37.558,58.048 37.491 C 57.890 37.345,55.951 37.007,56.094 37.150 M59.794 38.118 C 60.001 38.158,60.301 38.156,60.460 38.115 C 60.620 38.073,60.450 38.040,60.083 38.042 C 59.717 38.044,59.586 38.078,59.794 38.118 M62.000 38.786 C 62.137 38.837,62.400 38.947,62.583 39.032 C 62.911 39.183,62.911 39.181,62.593 38.926 C 62.415 38.783,62.153 38.673,62.010 38.680 C 61.785 38.691,61.784 38.706,62.000 38.786 M47.500 41.928 L 45.750 42.142 47.417 42.056 C 48.333 42.008,49.155 41.901,49.242 41.818 C 49.329 41.735,49.366 41.677,49.325 41.691 C 49.284 41.704,48.462 41.811,47.500 41.928 M53.590 41.844 C 53.628 41.906,54.205 42.007,54.871 42.070 C 55.538 42.132,56.233 42.226,56.417 42.279 C 56.600 42.332,56.692 42.314,56.621 42.239 C 56.464 42.073,53.492 41.686,53.590 41.844 M41.417 43.423 C 41.000 43.623,40.986 43.646,41.333 43.562 C 41.806 43.446,42.336 43.176,42.083 43.179 C 41.992 43.181,41.692 43.290,41.417 43.423 M59.730 43.286 C 59.790 43.346,60.110 43.488,60.441 43.602 C 60.771 43.715,60.971 43.738,60.885 43.651 C 60.798 43.565,60.479 43.423,60.174 43.336 C 59.870 43.248,59.670 43.226,59.730 43.286 M63.850 45.330 C 64.253 45.604,64.696 45.824,64.833 45.820 C 64.971 45.816,64.907 45.742,64.692 45.656 C 64.477 45.569,64.111 45.349,63.878 45.166 C 63.645 44.983,63.379 44.833,63.286 44.833 C 63.193 44.833,63.447 45.057,63.850 45.330 M65.783 46.495 C 65.893 46.639,66.057 46.943,66.147 47.170 C 66.257 47.445,66.316 47.489,66.323 47.301 C 66.329 47.146,66.165 46.842,65.958 46.626 C 65.752 46.410,65.673 46.351,65.783 46.495 M34.167 49.885 C 33.623 50.546,33.300 51.000,33.372 51.000 C 33.475 51.000,34.703 49.480,34.642 49.428 C 34.610 49.400,34.396 49.606,34.167 49.885 M31.239 53.628 C 30.528 54.494,30.345 54.873,30.979 54.167 C 31.465 53.625,31.908 52.996,31.798 53.003 C 31.771 53.005,31.520 53.286,31.239 53.628 M26.059 60.292 C 25.472 61.030,25.147 61.603,25.657 61.000 C 26.184 60.377,26.698 59.667,26.623 59.667 C 26.586 59.667,26.332 59.948,26.059 60.292 M23.911 63.078 C 23.822 63.204,23.424 63.688,23.026 64.153 C 22.628 64.619,22.336 65.000,22.376 65.000 C 22.505 65.000,24.208 62.986,24.138 62.916 C 24.102 62.879,23.999 62.952,23.911 63.078 M20.739 67.128 C 20.028 67.994,19.845 68.373,20.479 67.667 C 20.965 67.125,21.408 66.496,21.298 66.503 C 21.271 66.505,21.020 66.786,20.739 67.128 M15.110 74.125 C 15.058 74.285,14.815 74.679,14.570 75.000 L 14.124 75.583 14.649 75.000 C 15.288 74.291,15.566 73.833,15.359 73.833 C 15.274 73.833,15.163 73.965,15.110 74.125 M11.887 78.375 C 11.702 78.581,11.490 78.862,11.417 79.000 C 11.276 79.265,11.315 79.229,11.990 78.458 C 12.211 78.206,12.354 78.000,12.308 78.000 C 12.262 78.000,12.073 78.169,11.887 78.375 M9.833 81.051 C 9.290 81.713,8.967 82.167,9.039 82.167 C 9.141 82.167,10.369 80.647,10.309 80.595 C 10.276 80.567,10.063 80.772,9.833 81.051 " stroke="none" fill="#d4cccc" fill-rule="evenodd"></path><path id="path4" d="" stroke="none" fill="#d0e8100" fill-rule="evenodd"></path><path id="path5" d="" stroke="none" fill="#d0e8100" fill-rule="evenodd"></path><path id="path6" d="" stroke="none" fill="#d0e8100" fill-rule="evenodd"></path><path id="path7" d="" stroke="none" fill="#d0e8100" fill-rule="evenodd"></path></g></svg>