<svg height="179.57674" viewBox="0 0 165.51158 71.830695" width="413.77896" xmlns="http://www.w3.org/2000/svg" xmlns:xlink="http://www.w3.org/1999/xlink"><filter id="a" color-interpolation-filters="sRGB" height="5.460779" width="3.026024" x="-.892713" y="-2.240179"><feGaussianBlur in="SourceGraphic" result="result0" stdDeviation="6"/><feDiffuseLighting diffuseConstant="1" result="result5" surfaceScale="4"><feDistantLight azimuth="235" elevation="45"/></feDiffuseLighting><feComposite in="result5" in2="SourceGraphic" k1="1.4" k2="0" k3="0" k4="0" operator="arithmetic" result="fbSourceGraphic"/><feGaussianBlur in="fbSourceGraphic" result="result0" stdDeviation="6"/><feSpecularLighting in="result0" result="result1" specularConstant="1" specularExponent="25" surfaceScale="4"><feDistantLight azimuth="235" elevation="45"/></feSpecularLighting><feComposite in="fbSourceGraphic" in2="result1" k1="0" k2="1" k3="1" k4="0" operator="arithmetic" result="result4"/><feComposite in="result4" in2="SourceGraphic" operator="in" result="fbSourceGraphic"/><feColorMatrix in="fbSourceGraphic" result="fbSourceGraphicAlpha" values="0 0 0 -1 0 0 0 0 -1 0 0 0 0 -1 0 0 0 0 1 0"/><feFlood in="fbSourceGraphic" result="flood"/><feComposite in="flood" in2="fbSourceGraphic" operator="in" result="composite1"/><feGaussianBlur in="composite1" result="blur" stdDeviation="45"/><feOffset dx="36.0339" dy="-1.7487" result="offset"/><feComposite in="fbSourceGraphic" in2="offset" operator="over" result="fbSourceGraphic"/><feColorMatrix in="fbSourceGraphic" result="fbSourceGraphicAlpha" values="0 0 0 -1 0 0 0 0 -1 0 0 0 0 -1 0 0 0 0 1 0"/><feFlood in="fbSourceGraphic" result="flood"/><feComposite in="flood" in2="fbSourceGraphic" operator="in" result="composite1"/><feGaussianBlur in="composite1" result="blur" stdDeviation="1.8"/><feOffset dx="2" dy=".5" result="offset"/><feComposite in="fbSourceGraphic" in2="offset" operator="over" result="composite2"/></filter><path d="m108.81848 63.327539c-.76309-.634425-.77278-.700208-.41091-2.788646.39564-2.283379 2.04929-7.612128 3.44447-11.099543.46739-1.168291.78013-2.193843.69496-2.279004-.0852-.08516-1.05322.210204-2.15124.656374-1.09803.446166-2.13069.728218-2.29482.626781s-.21055-.584461-.10317-1.073392c.14016-.638138.0552-.94272-.30126-1.079491-.27309-.104794-.49652-.47698-.49652-.827085 0-.781213 1.87267-1.918099 4.85415-2.946925 2.11288-.729098 2.13619-.750019 2.33849-2.099062.11239-.749447.32445-1.436861.47125-1.527588.5311-.328243 3.21611.910266 3.21611 1.483488 0 .497565.27609.535917 2.65129.368295 4.2878-.302592 7.34843.959347 8.29042 3.418259.16857.44.30306 1.647376.29887 2.683059-.0147 3.641411-2.3971 6.867376-7.60385 10.296288-3.5114 2.312439-7.77276 4.608346-8.56632 4.615306-.57351.005-.57779-.02979-.0723-.588375.31482-.347872.45026-.820585.32708-1.141587-.39922-1.040345.62733-2.096217 4.38682-4.512125 6.93202-4.454627 9.38056-8.510435 6.27939-10.401296-1.16612-.711014-3.33778-.825216-5.47219-.287763l-1.36419.343507-.83191 2.959799c-.45755 1.627891-1.56335 4.965312-2.45734 7.416493-1.08916 2.986336-1.62549 4.951945-1.6256 5.957808-.0002 1.694809-.4216 2.200198-1.02669 1.231302-.54994-.880605-.83105-.820704-.95223.202906-.12979 1.096336-.54671 1.203721-1.52277.392217zm-11.632259-3.018105c-3.199213-1.174148-4.7415-3.410445-4.960444-7.19258-.186496-3.221632.455315-5.199472 2.382972-7.343488 2.206707-2.45439 7.724851-4.745196 9.343551-3.878889.35509.190038.9476.345523 1.3167.345523.89062 0 1.17707.841891.5298 1.557117-.28534.315302-.51881.736873-.51881.936822 0 .502096-.86697.899642-2.50936 1.150666-6.357382.971657-9.611756 8.963078-4.690172 11.517152 2.923422 1.517123 6.070412.88968 8.793832-1.753312l1.3109-1.272183-.21228 1.691869c-.26524 2.113965-1.22525 3.215946-3.56391 4.090947-2.01522.753994-5.386811.82418-7.222779.150356zm52.733769-8.507501c-2.38824-1.771584-7.03267-4.912346-11.52-7.79032-2.90044-1.860211-8.14161-5.939325-8.50589-6.619987-.17702-.330762-.94331-.893511-1.70288-1.250548-1.39387-.655196-8.19273-7.278824-8.60281-8.381078-.11458-.308-.41375-.56-.66481-.56s-1.14248-.648-1.98094-1.44c-1.31217-1.23946-1.42594-1.44-.81697-1.44.38913 0 1.24004.276072 1.8909.613493.65087.337421 1.58688.769743 2.08003.960715.57556.222888 1.07218.77667 1.38689 1.546508.5423 1.326589 5.53618 6.383018 7.71648 7.81313.748.490634 1.36 1.093693 1.36 1.340138 0 .246442.792.993549 1.76 1.660237s1.76 1.339571 1.76 1.495296c0 .155728.52199.501241 1.15997.767808.63799.266566 2.26979 1.375219 3.62623 2.46367s3.30002 2.555005 4.31906 3.259005c1.01905.704 2.87925 2.078598 4.13378 3.054659 1.25453.976064 2.95761 2.237927 3.78463 2.804141 1.46774 1.004877 2.15536 1.691008 1.63522 1.631664-.14239-.01626-1.41089-.884083-2.81889-1.928531zm2.56-1.561933c-.10877-.176-.0538-.32.12223-.32.176 0 .409.144.51777.32s.0538.32-.12223.32c-.176 0-.409-.144-.51777-.32zm-4.0085-2.967309c-1.31533-.928019-3.09775-2.188019-3.96095-2.8s-2.3752-1.795411-3.36-2.629846c-.9848-.834439-1.92667-1.518439-2.09304-1.52-.16637-.0016-.67037-.345213-1.12-.763661s-2.46279-1.870125-4.47369-3.225942c-4.36889-2.945661-8.47146-6.362148-12.21551-10.172686-2.0494-2.085785-2.96237-2.800556-3.57715-2.800556-.99303 0-1.83116-.761504-1.83116-1.663756 0-.59367.13142-.637027 1.34339-.443225 1.71675.274519 3.81956 1.873215 6.54864 4.978707 1.16401 1.324551 2.34864 2.552274 2.63253 2.728274.67184.41652 3.43075 2.944875 4.48857 4.113459.45478.5024 1.47487 1.24376 2.26687 1.647466 1.62432.827958 4.12095 2.705853 5.58184 4.198499 1.65894 1.695002 4.69813 4.085357 7.37816 5.803002 2.13016 1.365225 5.47622 4.237574 4.93644 4.237574-.0844 0-1.22962-.75929-2.54494-1.687309zm3.7634-.444723c-.65862-.468618-1.13622-.913315-1.06132-.988211.14335-.143357 3.06642 1.487321 3.06642 1.710649 0 .372192-.94536.03158-2.0051-.722438zm3.18478-1.048803c-2.13152-1.184682-3.16356-1.939165-2.65254-1.939165.50583 0 5.31286 2.638061 5.31286 2.915658 0 .441475-.32117.323587-2.66032-.976493zm-8.44801-2.352167c-1.26958-.916848-3.70195-2.725817-5.40526-4.019926-1.70331-1.294112-3.83257-2.82943-4.73167-3.411821-.89911-.582393-2.57074-2.023913-3.71474-3.203382-1.144-1.179467-2.85528-2.668147-3.80285-3.308178-.94757-.64003-2.17214-1.467363-2.72126-1.838517-.54913-.371154-1.84444-1.638471-2.87848-2.816259-1.28835-1.467447-2.47784-2.443182-3.77932-3.100167-2.16743-1.094117-2.43667-1.976849-.65547-2.149023 1.22391-.118304 1.26315-.25816.34627-1.234136-.53263-.566956-.62273-.888927-.39289-1.404012l.29823-.668354.84693.666197c.46581.366409 1.26412.749635 1.77401.851614.86867.173733 1.03214.02539 2.5945-2.354372 1.02712-1.564492 1.59243-2.735199 1.47215-3.048664-.10741-.279882-.86736-.860297-1.68879-1.289811-1.24328-.650094-1.73473-.740991-2.93326-.542533-2.05658.340535-2.39128.539598-2.97878 1.771603-.35199.738127-.68016 1.039253-.99916.916838-.32881-.126174-.5404.09755-.6874.72681-.1168.500003-.65221 1.609266-1.18981 2.46503-.61947.986088-1.25478 2.744043-1.73467 4.8-.41648 1.784236-.89634 3.820065-1.06638 4.524065s-.45795 2.216-.6398 3.36c-.42492 2.673132-.88057 3.820032-1.26835 3.192579-.36154-.584984-.3217-.642354-1.87875 2.705133-1.02156 2.19624-1.41667 2.770285-1.70695 2.48-.51231-.512304-.88972-.475299-.88972.08723 0 1.208442-1.31666 2.805059-1.86282 2.258902-.42028-.420281.0387-3.575724.71711-4.929843.40615-.810701.84079-2.036272.96586-2.723488.12508-.687215.64872-2.14116 1.16364-3.230989.51492-1.089828.93449-2.32756.9324-2.750516-.004-.802288 1.34885-5.209459 3.03556-9.88901.22203-.616.49894-1.52188.61535-2.013066l.21165-.893066-.95348.493066c-1.07045.553551-2.90527.66285-2.90527.173066 0-.176-.20601-.32-.45781-.32-.74716 0-2.71399-1.399179-2.72864-1.94112-.007-.275617.45445-.929934 1.02645-1.45404.572-.5241053 1.184-1.1829162 1.36-1.4640237.49044-.7833267 8.97917-4.017848 11.2-4.2676137 1.056-.1187632 2.29635-.437258 2.75633-.7077661.72296-.4251597 1.19932-.4387581 3.51396-.1003123 3.00176.4389155 3.3996.6047187 5.34496 2.2276009 1.95328 1.6294768 2.62475 2.9132832 2.62475 5.0183139 0 3.002736-1.66114 5.37129-5.69261 8.116858l-1.62679 1.107898 1.1797 1.139613c.64884.626787 1.95798 2.051899 2.90921 3.166915s2.16776 2.293818 2.7034 2.61956c1.01262.615812 4.06659 3.128957 7.19183 5.918242.99839.891072 2.94077 2.53831 4.3164 3.660531 2.27351 1.854714 3.35055 3.05432 3.03002 3.374851-.19037.190371-3.78336-2.226477-5.37116-3.612937-.792-.691575-2.088-1.696308-2.88-2.232743-.792-.536432-1.728-1.295661-2.08-1.687168s-1.30159-1.047337-2.11019-1.457397c-.80861-.41006-1.71734-1.122764-2.01941-1.583787-.30208-.461023-1.08049-1.323454-1.72982-1.916514-.64931-.59306-1.87187-1.736792-2.71678-2.541626-.84491-.804832-1.75191-1.463333-2.01555-1.463333s-1.37235-.580756-2.4638-1.290568c-1.89931-1.235197-1.93562-1.245494-.84631-.24.62597.577812 2.48163 2.202568 4.12369 3.610568 1.64205 1.408 3.72189 3.25728 4.62186 4.109511s2.28431 1.983455 3.07631 2.51383c.792.530377 2.4835 1.921097 3.75888 3.090489s3.43538 3.148826 4.8 4.398736c1.36462 1.249911 3.38112 2.875277 4.48112 3.611924 1.1.736646 2 1.40599 2 1.487433 0 .362455-.63214.01219-2.78833-1.544925zm2.83794-1.180019c-1.6745-1.082281-2.46005-1.926979-1.79205-1.926979.39428 0 3.98244 2.60561 3.98244 2.891923 0 .444765-.0292.431904-2.19039-.964944zm-142.6137787-2.482973c-2.9179134-1.044665-7.1958213-4.109219-7.1958213-5.154851 0-.661715 1.1500411-.388848 1.9442194.461296 1.4025001 1.501338 3.4556401 2.492381 5.1116992 2.467399 4.3826804-.066116 9.0310514-4.889261 12.0166314-12.46844 1.639132-4.161095 4.320655-14.90287 3.840213-15.3833121-.07313-.073134-1.694424.084628-3.602867.3505831-7.09664.988964-6.945488.989466-8.715497-.02895-.06908-.039746.06006-.2959676.286968-.5693804.345485-.4162844.289914-.6276732-.341773-1.3000729l-.7543409-.8029571.7073729-.184982c.766497-.2004436.935095-.621098.329802-.8228621-.210801-.0702675-.285908-.3647277-.170043-.6666669.169562-.4418733.650893-.5408096 2.631062-.5408096 1.332943 0 3.461462-.2115414 4.730042-.4700918 1.268581-.2585504 4.894117-.8471972 8.056747-1.3081037 3.162631-.4609066 6.114629-1.0209826 6.559999-1.2446134 1.360947-.6833648 12.016764-2.35685616 12.422649-1.95097154.409299.4092997-1.152266 1.11425184-2.492887 1.12538804-1.719891.014287-3.839999.5572518-3.839999.9834337 0 .1677273.288.3049587.64.3049587.351999 0 .639999.070747.639999.1572166 0 .3641891-2.054348 2.0827834-2.489689 2.0827834-.261123 0-.923766.2741062-1.472541.6091251-.548771.3350186-1.618262.7923571-2.376646 1.0163072-.758381.2239504-1.513184.6581395-1.677338.964865-.164154.3067251-.721709.6506429-1.239012.7642617-.517303.1136186-1.079719.3773232-1.249814.5860103-.170096.2086867-.776192 2.3234307-1.346881 4.6994307-2.725019 11.34532-7.419532 21.222186-11.599628 24.404659-3.013767 2.294499-6.376953 2.984695-9.3526267 1.919347zm70.2105097-.510099c-.293699-.644598-.2176-.972486.46696-2.012003 1.100211-1.670691 2.512307-4.921904 2.137725-4.921904-.165498 0-.657063.162275-1.092368.360614-1.104099.50306-2.400419.101613-2.764554-.856134-.166796-.438706-.324512-1.831311-.35048-3.09468l-.04722-2.297034-.774867.943617c-.426176.518989-1.019366 1.265963-1.318201 1.659942-.298835.393978-1.302154 1.162159-2.2296 1.707069-1.447811.850644-1.874813.958889-3.019642.765471-2.071692-.35001-2.471203-1.069428-2.48166-4.468865-.0049-1.584.146553-3.456.336505-4.16.47722-1.768657 2.470704-7.121248 3.158237-8.48.311696-.616.822797-1.912 1.135779-2.88.739398-2.2868467 2.657261-5.9329405 3.635101-6.9107824 1.109475-1.1094739 2.416803-1.0287402 2.917552.1801725.216288.5221648.593756 1.1157968.838822 1.3191824.717014.5950701.533001 1.2874902-.994429 3.7419104-.792 1.2726611-1.44 2.6644381-1.44 3.0928381 0 .428399-.155917.87527-.346483.993046-.190566.117777-.60289.812315-.916278 1.543418-.313389.731104-.805472 1.524872-1.093517 1.76393-.288048.239057-.523722.727425-.523722 1.085262s-.36 1.122597-.8 1.699467-.799999 1.198713-.799999 1.381875-.432 1.420518-.96 2.749681c-1.128698 2.841335-1.271357 4.64-.368013 4.64.820502 0 2.831747-1.515587 5.340611-4.024452 2.282118-2.282117 3.657011-4.904396 4.472345-8.529934.427203-1.899641.973206-3.20461 3.048323-7.285614 1.40127-2.7557939 1.862966-3.1721456 2.925901-2.6385344.407456.204551 1.100832.4139011 1.540832.4652227.583663.068078.825231.3096493.893311.8933117.05132.44.254906 1.122601.45241 1.5168909.284035.5670384.255718.8345991-.135462 1.2800001-.272003.30971-.600624.923109-.730262 1.363109s-1.138253 2.816-2.241369 5.28c-3.112586 6.952497-3.277917 7.364423-3.683479 9.177326-.498268 2.227334-.341446 3.27604.508055 3.397487.511712.07316 1.012128-.429926 2.190752-2.202408 1.465798-2.204357 1.493964-2.288793.696796-2.088717-.810582.203444-1.155244-.205367-.509574-.604414.176646-.109173.233037-.549671.125309-.978885-.14281-.569002-.06504-.780389.28712-.780389.265641 0 1.36087-.659919 2.43384-1.466486 1.387328-1.042873 2.270422-2.036559 3.057145-3.44.608461-1.085433 1.940842-2.93279 2.960851-4.105238 1.020006-1.172448 2.28656-2.732218 2.81456-3.466155.528-.733938 1.572-1.8363031 2.32-2.4497005 1.030553-.8451059 1.36-1.3399015 1.36-2.0425856 0-1.3344407 1.032976-1.8305971 2.086266-1.0020743.43349.3409828 1.2853.713232 1.89291.8272208 1.20764.2265533 1.7 1.0582666 1.19164 2.0129312-.62889 1.1809956-1.41466 8.7994084-1.97332 19.1320874-.14273 2.64-.41066 5.991587-.5954 7.447974-.18474 1.456388-.24532 2.88401-.13461 3.172496.13472.351082.0775.44801-.17311.29314-.20591-.127261-.37438-.421252-.37438-.653312 0-.232064-.22841-.611498-.50758-.843191-.33957-.281821-.44863-.716025-.32948-1.311785.098-.489792-.0268-1.577856-.27731-2.417927-.25047-.840067-.54073-2.067395-.64502-2.727395-.104283-.66-.298661-1.2-.431953-1.2-.397476 0-1.036573-6.117465-.810692-7.76.162861-1.184266.111072-1.518448-.234467-1.512972-.640099.01014-2.931001 1.091916-4.340051 2.04939-.666605.45297-1.441481.823582-1.721945.823582-.818122 0-1.673754 1.189496-3.798022 5.28-1.0968 2.112-2.594771 4.619254-3.328826 5.57168-.734057.952422-1.843196 2.464422-2.464752 3.36-.674086.971264-1.334768 1.594333-1.637312 1.544096-.278963-.04632-.680947.125117-.893292.380979-.212346.255863-.591559.386355-.842688.289987-.251133-.09637-.456605-.02088-.456605.167764 0 .188636-.288627.497443-.641392.68624-.539133.288534-.697331.220483-.992272-.426839zm18.352847-22.607509c.443021-.348481 1.161744-.769048 1.597161-.934593.549748-.209013.850813-.626564.985207-1.366398.106448-.585974.287939-1.389407.403315-1.785407.619997-2.127971-2.214534.465164-3.672784 3.36-.750134 1.489122-.550649 1.700014.687101.726398zm-72.704735 22.073602c-.01797-1.259613 1.022213-4.048506 2.465876-6.611392 1.954797-3.470287 3.919679-7.351897 3.919679-7.743298 0-.159866-.288-.36598-.64-.45803-.965303-.252432-.773361-.748422.542139-1.400925.97239-.482318 1.462294-1.125746 2.761093-3.626355.868426-1.672 2.194701-3.927211 2.947277-5.01158.752579-1.08437 1.471785-2.30837 1.598239-2.72.275466-.896691 2.414596-4.495579 2.859904-4.8115285.172951-.1227094.417466-.056436.543367.1472759.166089.2687411.387948.2335504.808444-.1282336.720077-.6195354 3.447392-1.3800948 3.914256-1.0915578.189904.117367.34528.4455578.34528.7293123 0 .2837549.223658.7630554.497015 1.0651123.434284.4798784.454643 1.1090839.161302 4.9851974-.184643 2.439801-.336301 8.216002-.337014 12.836002-.0013 7.603677-.177911 9.429142-.764807 7.899718-.276019-.719299-.71728-.318816-.984611.893623l-.230781 1.046659-.573785-1.6c-.438218-1.221962-.628368-1.467686-.804791-1.04-.65447 1.586582-.978425-.181097-1.304851-7.12-.181622-3.86077-.293337-4.368741-.861462-3.917109-.217917.173233-1.692214.781363-3.276214 1.351398s-3.122035 1.272516-3.417856 1.561069-1.277704 2.396642-2.181962 4.684642-1.979134 4.664-2.388614 5.28-.969831 1.552-1.245226 2.08l-.500718.96-.01281-.88c-.0182-1.249824-.503466-1.089597-1.186458.391744-.54832 1.189251-1.266755 1.862835-.862075.808256.101306-.264.02479-.48-.170043-.48-.194829 0-.354236.200048-.354236.44455 0 .2445-.283209.7845-.629353 1.2-.440782.529095-.631406.611629-.636202.27545zm14.997446-19.547662 2.268108-1.307663-.013321-2.932337-.013319-2.932338-1.038339 1.174257c-.832211.941147-4.05502 6.642193-4.05502 7.173201 0 .343475.763805.02875 2.851891-1.17512zm71.388101 17.46332c0-.09039.12851-.414388.28557-.72.15706-.305613.47262-.987658.70124-1.515658.4026-.929789.41964-.936179.54153-.203091.0692.416297-.0303.913097-.22125 1.104-.19089.190899-.34709.606291-.34709.923091s-.216.576-.48.576-.48-.07395-.48-.164342zm-55.199993-3.995658c-.108775-.176-.472004-.32-.807178-.32s-1.526973-.858337-2.648438-1.907415c-2.344778-2.193423-2.963872-3.626054-3.297594-7.63087-.388153-4.658025 1.365943-9.093937 5.213197-13.1835918 2.173081-2.3100003 2.455075-2.4990506 4.739027-3.177081 2.276438-.6757993 2.495257-.6892294 3.495587-.214542.586921.2785126 1.30406.8679872 1.593641 1.3099433.289581.4419562.741936.8035565 1.005232.8035565.359898 0 .426509.218423.268378.88-.309853 1.296345-.382183 1.36-1.545335 1.36-1.815225 0-5.92807 2.270892-7.777228 4.294166-3.721072 4.071445-4.559196 8.597085-2.231747 12.050788 1.646957 2.443919 5.626608 3.96429 7.739571 2.956797l.972886-.463887.05595-3.098932c.03078-1.704413.102771-3.528488.16-4.0535.101494-.931082.07282-.951983-1.165514-.849489-.698262.05779-2.102262.525422-3.12 1.039175-1.017737.513752-1.850431.788022-1.850431.609488 0-.178533.132256-.324606.2939-.324606.161645 0 .600906-.496741.976131-1.10387.812384-1.314464 2.165056-2.201195 4.675309-3.064848 1.01752-.350079 2.100099-.862809 2.405728-1.1394.432173-.391111.700985-.425134 1.209347-.153066.359513.192404.839491.311882 1.066621.265505.587036-.119864.38712 1.790943-.593812 5.675679-.642924 2.546148-.781231 3.755774-.676879 5.92.07213 1.496.243865 2.972.381635 3.28.436572.976006-.374531.622118-1.674211-.730463l-1.239994-1.290462-1.411747 1.290462c-1.3749 1.25678-1.471812 1.290463-3.713005 1.290463-1.26569 0-2.390253-.144-2.499027-.32z" fill="#d31909" filter="url(#a)" transform="translate(4.067489 3.568042)"/></svg>