<?xml version="1.0" encoding="UTF-8" standalone="no"?>
<!-- Created with Inkscape (http://www.inkscape.org/) -->

<svg
   width="226.2144mm"
   height="44.528419mm"
   viewBox="0 0 542.91454 106.8682"
   version="1.1"
   id="svg5"
   inkscape:version="1.1.2 (0a00cf5339, 2022-02-04)"
   sodipodi:docname="atom.svg"
   xmlns:inkscape="http://www.inkscape.org/namespaces/inkscape"
   xmlns:sodipodi="http://sodipodi.sourceforge.net/DTD/sodipodi-0.dtd"
   xmlns="http://www.w3.org/2000/svg"
   xmlns:svg="http://www.w3.org/2000/svg">
  <sodipodi:namedview
     id="namedview7"
     pagecolor="#000000"
     bordercolor="#111111"
     borderopacity="1"
     inkscape:pageshadow="0"
     inkscape:pageopacity="0"
     inkscape:pagecheckerboard="1"
     inkscape:document-units="mm"
     showgrid="false"
     fit-margin-top="0"
     fit-margin-left="0"
     fit-margin-right="0"
     fit-margin-bottom="0"
     scale-x="2.4"
     inkscape:zoom="0.14960794"
     inkscape:cx="1417.0371"
     inkscape:cy="270.70756"
     inkscape:window-width="1366"
     inkscape:window-height="703"
     inkscape:window-x="0"
     inkscape:window-y="0"
     inkscape:window-maximized="1"
     inkscape:current-layer="svg5" />
  <defs
     id="defs2" />
  <g
     inkscape:label="Acorn Atom"
     id="layer1"
     transform="translate(161.4294,-25.381956)">
    <text
       xml:space="preserve"
       style="font-size:0.370417px;line-height:1.25;font-family:TrasksHand;-inkscape-font-specification:TrasksHand;fill:#ffffff;fill-opacity:0.5;stroke-width:0.185208"
       x="-58.913097"
       y="75.787498"
       id="text3674"
       inkscape:label="Signature"><tspan
         sodipodi:role="line"
         id="tspan3672"
         style="fill:#ffffff;fill-opacity:0.5;stroke-width:0.185208"
         x="-58.913097"
         y="75.787498">John Loreth 2022</tspan></text>
    <g
       id="g279"
       inkscape:label="Acorn">
      <path
         style="display:inline;fill:#52ad67;stroke-width:0.254"
         d="m -130.99969,79.672158 -30.099,-0.127 -0.0911,-0.762 c -0.12446,-1.040493 0.41809,-7.864409 0.84819,-10.668 0.19287,-1.2573 0.41797,-2.80035 0.5002,-3.429 0.38191,-2.919473 1.88053,-8.965032 3.21115,-12.954 1.38286,-4.145574 2.74292,-7.200991 4.90163,-11.011677 1.99822,-3.527386 3.47571,-5.522265 6.1127,-8.253269 2.85558,-2.957381 5.69055,-4.875177 8.96294,-6.063224 3.69118,-1.095547 6.87752,-1.464076 10.35233,-0.333992 3.92409,1.296008 6.19954,2.758029 9.6782,6.218432 4.67297,4.648453 8.47841,11.337592 11.42276,20.07873 1.77713,5.275918 3.2104,12.570927 3.91746,19.939 0.30164,3.14325 0.51089,6.11505 0.46501,6.604 l -0.0834,0.889 z"
         id="path283"
         sodipodi:nodetypes="cccccsscccsssccc"
         inkscape:label="Upper" />
      <path
         style="display:inline;fill:#38894b;stroke-width:0.254"
         d="m -104.8562,130.6666 c -1.17727,-0.87096 -2.78913,-1.98538 -3.58191,-2.4765 -2.39773,-1.48537 -4.85052,-2.96199 -5.92458,-3.5667 -1.2149,-0.68401 -8.9707,-4.56524 -9.12263,-4.56524 -0.0584,0 -0.65866,-0.24639 -1.33381,-0.54752 -0.67516,-0.30114 -1.36449,-0.5759 -1.53186,-0.61059 -0.16736,-0.0347 -0.79601,-0.29031 -1.397,-0.56806 -0.60098,-0.27774 -1.94995,-0.81295 -2.9977,-1.18934 -1.04775,-0.3764 -2.4765,-0.89439 -3.175,-1.1511 -1.8827,-0.6919 -7.22057,-2.3044 -12.065,-3.64465 -1.52809,-0.42276 -6.99744,-1.61547 -9.017,-1.96635 -4.65348,-0.8085 -6.12255,-1.104 -6.31833,-1.2709 -0.12228,-0.10425 -0.14384,-0.6079 -0.0479,-1.11921 l 0.17441,-0.92967 1.31792,0.1689 c 2.03546,0.26087 6.97564,1.11415 8.81092,1.52186 0.90805,0.20173 3.07975,0.66315 4.826,1.02539 5.01877,1.04108 5.66773,1.18556 6.477,1.44194 0.4191,0.13277 1.39065,0.34573 2.159,0.47324 0.76835,0.12751 1.9685,0.38955 2.667,0.58231 l 1.27,0.35048 0.0803,-0.88085 c 0.0442,-0.48446 0.0253,-0.93591 -0.042,-1.00321 -0.0673,-0.0673 -1.01786,-0.23681 -2.11235,-0.37668 -13.17354,-2.36552 -25.61623,-13.944862 -25.68868,-27.412397 l 0.0767,-1.628595 h 30.353 30.353 l -0.0406,2.667 c -0.0688,4.51248 -1.6347,8.919494 -4.91883,13.843 -1.24693,1.869379 -5.68933,6.187242 -7.79079,7.572382 -3.72711,2.45666 -9.04652,4.53965 -12.44165,4.87193 -2.72438,0.26664 -2.6211,0.18602 -2.6211,2.04597 0,1.57124 0.0248,1.63439 0.6985,1.77988 2.04671,0.44197 11.70279,3.89232 15.5575,5.55908 4.73274,2.04641 5.90509,2.59235 10.795,5.02704 5.638305,2.80731 7.278017,3.75407 7.155845,4.13172 -0.106486,0.32916 -7.455675,3.429 -8.129585,3.429 -0.18331,0 -1.29651,-0.7126 -2.47377,-1.58356 z"
         id="path281"
         sodipodi:nodetypes="sssssssscsssccssssssccsccccccsssscssssss"
         inkscape:label="Lower" />
    </g>
    <path
       d="m -93.840942,101.24749 10.294093,0.0146 13.078251,-16.582564 21.891908,0.110133 -0.06666,16.726261 10.480642,-5.1e-4 1.198086,-60.959459 -9.580072,0.0015 z m 30.556695,-25.548174 16.070167,-21.808259 -1.108608,22.223915 z"
       id="path10131"
       sodipodi:nodetypes="ccccccccccccc"
       inkscape:label="A"
       style="fill:#52ad67;fill-opacity:1" />
    <text
       xml:space="preserve"
       style="font-style:normal;font-variant:normal;font-weight:normal;font-stretch:normal;font-size:79.6193px;line-height:1.25;font-family:AvantGardeGothicC;-inkscape-font-specification:AvantGardeGothicC;display:inline;fill:#52ad67;fill-opacity:1;stroke-width:0.687917"
       x="-35.316559"
       y="101.12345"
       id="text12663"
       transform="scale(0.99966349,1.0003366)"
       inkscape:label="C"><tspan
         sodipodi:role="line"
         id="tspan12661"
         style="font-style:normal;font-variant:normal;font-weight:500;font-stretch:normal;font-size:79.6193px;font-family:ITCAvantGardeGothic-Medium;-inkscape-font-specification:'ITCAvantGardeGothic-Medium Medium';fill:#52ad67;fill-opacity:1;stroke-width:0.687917"
         x="-35.316559"
         y="101.12345">C</tspan></text>
    <text
       xml:space="preserve"
       style="font-style:normal;font-variant:normal;font-weight:500;font-stretch:normal;font-size:79.8109px;line-height:1.25;font-family:ITCAvantGardeGothic-Medium;-inkscape-font-specification:'ITCAvantGardeGothic-Medium Medium';display:inline;fill:#52ad67;fill-opacity:1;stroke-width:0.687917"
       x="23.447803"
       y="101.34402"
       id="text51585"
       transform="scale(1.0041471,0.99587002)"
       inkscape:label="O"><tspan
         sodipodi:role="line"
         id="tspan51583"
         style="font-style:normal;font-variant:normal;font-weight:500;font-stretch:normal;font-size:79.8109px;font-family:ITCAvantGardeGothic-Medium;-inkscape-font-specification:'ITCAvantGardeGothic-Medium Medium';fill:#52ad67;fill-opacity:1;stroke-width:0.687917"
         x="23.447803"
         y="101.34402">O</tspan></text>
    <text
       xml:space="preserve"
       style="font-style:normal;font-variant:normal;font-weight:500;font-stretch:normal;font-size:80.699px;line-height:1.25;font-family:ITCAvantGardeGothic-Medium;-inkscape-font-specification:'ITCAvantGardeGothic-Medium Medium';display:inline;fill:#52ad67;fill-opacity:1;stroke-width:0.687917"
       x="85.942787"
       y="102.22442"
       id="text53305"
       transform="scale(1.0086415,0.99143249)"
       inkscape:label="R"><tspan
         sodipodi:role="line"
         id="tspan53303"
         style="font-style:normal;font-variant:normal;font-weight:500;font-stretch:normal;font-size:80.699px;font-family:ITCAvantGardeGothic-Medium;-inkscape-font-specification:'ITCAvantGardeGothic-Medium Medium';fill:#52ad67;fill-opacity:1;stroke-width:0.687917"
         x="85.942787"
         y="102.22442">R</tspan></text>
    <text
       xml:space="preserve"
       style="font-style:normal;font-variant:normal;font-weight:500;font-stretch:normal;font-size:79.5417px;line-height:1.25;font-family:ITCAvantGardeGothic-Medium;-inkscape-font-specification:'ITCAvantGardeGothic-Medium Medium';display:inline;fill:#52ad67;fill-opacity:1;stroke-width:0.687917"
       x="132.58948"
       y="100.7584"
       id="text54245"
       transform="scale(0.99417646,1.0058576)"
       inkscape:label="N"><tspan
         sodipodi:role="line"
         id="tspan54243"
         style="font-style:normal;font-variant:normal;font-weight:500;font-stretch:normal;font-size:79.5417px;font-family:ITCAvantGardeGothic-Medium;-inkscape-font-specification:'ITCAvantGardeGothic-Medium Medium';fill:#52ad67;fill-opacity:1;stroke-width:0.687917"
         x="132.58948"
         y="100.7584">N</tspan></text>
    <text
       xml:space="preserve"
       style="font-style:normal;font-variant:normal;font-weight:200;font-stretch:normal;font-size:69.5363px;line-height:1.25;font-family:ITCAvantGardeGothic-ExtraLight;-inkscape-font-specification:'ITCAvantGardeGothic-ExtraLight Ultra-Light';fill:#38894b;fill-opacity:1;stroke-width:0.687917"
       x="192.6577"
       y="101.11831"
       id="text72366"
       transform="scale(0.99723355,1.0027741)"
       inkscape:label="A"><tspan
         sodipodi:role="line"
         id="tspan72364"
         style="font-style:normal;font-variant:normal;font-weight:200;font-stretch:normal;font-size:69.5363px;font-family:ITCAvantGardeGothic-ExtraLight;-inkscape-font-specification:'ITCAvantGardeGothic-ExtraLight Ultra-Light';fill:#38894b;fill-opacity:1;stroke-width:0.687917"
         x="192.6577"
         y="101.11831">A</tspan></text>
    <text
       xml:space="preserve"
       style="font-style:normal;font-variant:normal;font-weight:200;font-stretch:normal;font-size:69.1326px;line-height:1.25;font-family:ITCAvantGardeGothic-ExtraLight;-inkscape-font-specification:'ITCAvantGardeGothic-ExtraLight Ultra-Light';fill:#38894b;fill-opacity:1;stroke-width:0.687917"
       x="237.51463"
       y="100.5882"
       id="text79740"
       transform="scale(0.99200556,1.0080589)"
       inkscape:label="T"><tspan
         sodipodi:role="line"
         id="tspan79738"
         style="font-style:normal;font-variant:normal;font-weight:200;font-stretch:normal;font-size:69.1326px;font-family:ITCAvantGardeGothic-ExtraLight;-inkscape-font-specification:'ITCAvantGardeGothic-ExtraLight Ultra-Light';fill:#38894b;fill-opacity:1;stroke-width:0.687917"
         x="237.51463"
         y="100.5882">T</tspan></text>
    <text
       xml:space="preserve"
       style="font-style:normal;font-variant:normal;font-weight:200;font-stretch:normal;font-size:69.7399px;line-height:1.25;font-family:ITCAvantGardeGothic-ExtraLight;-inkscape-font-specification:'ITCAvantGardeGothic-ExtraLight Ultra-Light';fill:#38894b;fill-opacity:1;stroke-width:0.687917"
       x="263.83923"
       y="101.47191"
       id="text81796"
       transform="scale(1.0007207,0.99927986)"
       inkscape:label="O"><tspan
         sodipodi:role="line"
         id="tspan81794"
         style="font-style:normal;font-variant:normal;font-weight:200;font-stretch:normal;font-size:69.7399px;font-family:ITCAvantGardeGothic-ExtraLight;-inkscape-font-specification:'ITCAvantGardeGothic-ExtraLight Ultra-Light';fill:#38894b;fill-opacity:1;stroke-width:0.687917"
         x="263.83923"
         y="101.47191">O</tspan></text>
    <text
       xml:space="preserve"
       style="font-style:normal;font-variant:normal;font-weight:200;font-stretch:normal;font-size:69.7399px;line-height:1.25;font-family:ITCAvantGardeGothic-ExtraLight;-inkscape-font-specification:'ITCAvantGardeGothic-ExtraLight Ultra-Light';fill:#38894b;fill-opacity:1;stroke-width:0.687917"
       x="321.58282"
       y="101.47191"
       id="text84056"
       transform="scale(1.0007207,0.99927982)"
       inkscape:label="M"><tspan
         sodipodi:role="line"
         id="tspan84054"
         style="font-style:normal;font-variant:normal;font-weight:200;font-stretch:normal;font-size:69.7399px;font-family:ITCAvantGardeGothic-ExtraLight;-inkscape-font-specification:'ITCAvantGardeGothic-ExtraLight Ultra-Light';fill:#38894b;fill-opacity:1;stroke-width:0.687917"
         x="321.58282"
         y="101.47191">M</tspan></text>
  </g>
</svg>
