<svg height="169.33528" viewBox="0 0 614.19567 152.40176" width="682.43964" xmlns="http://www.w3.org/2000/svg" xmlns:xlink="http://www.w3.org/1999/xlink"><linearGradient id="a"><stop offset="0" stop-color="#373969"/><stop offset=".43662432" stop-color="#a7bbf1"/><stop offset="1" stop-color="#2170cc"/></linearGradient><linearGradient id="b" gradientUnits="userSpaceOnUse" x1="148.3185" x2="151.97664" xlink:href="#a" y1="162.58894" y2="52.277431"/><filter id="c" color-interpolation-filters="sRGB" height="1.103394" width="1.017012" x="-.005884" y="-.025681"><feGaussianBlur in="SourceGraphic" result="blur" stdDeviation=".8"/><feDiffuseLighting diffuseConstant="1" result="diffuse" surfaceScale="10"><feDistantLight azimuth="236" elevation="13"/></feDiffuseLighting><feComposite in="diffuse" in2="diffuse" k1="1" k2="0" k3="0" k4="0" operator="arithmetic" result="composite1"/><feComposite in="composite1" in2="SourceGraphic" k1="1" k2="0" k3="1" k4="0" operator="arithmetic" result="fbSourceGraphic"/><feColorMatrix in="fbSourceGraphic" result="fbSourceGraphicAlpha" values="0 0 0 -1 0 0 0 0 -1 0 0 0 0 -1 0 0 0 0 1 0"/><feFlood in="fbSourceGraphic" result="flood"/><feComposite in="flood" in2="fbSourceGraphic" operator="in" result="composite1"/><feGaussianBlur in="composite1" result="blur" stdDeviation="0"/><feOffset dx="3" dy="5" result="offset"/><feComposite in="fbSourceGraphic" in2="offset" operator="over" result="composite2"/></filter><filter id="d" color-interpolation-filters="sRGB" height="1.081473" width="1.095714" x="-.032299" y="-.022401"><feGaussianBlur in="SourceGraphic" result="blur" stdDeviation=".926303"/><feDiffuseLighting diffuseConstant="1" result="diffuse" surfaceScale="10"><feDistantLight azimuth="236" elevation="13"/></feDiffuseLighting><feComposite in="diffuse" in2="diffuse" k1="1" k2="0" k3="0" k4="0" operator="arithmetic" result="composite1"/><feComposite in="composite1" in2="SourceGraphic" k1="1" k2="0" k3="1" k4="0" operator="arithmetic" result="fbSourceGraphic"/><feColorMatrix in="fbSourceGraphic" result="fbSourceGraphicAlpha" values="0 0 0 -1 0 0 0 0 -1 0 0 0 0 -1 0 0 0 0 1 0"/><feFlood in="fbSourceGraphic" result="flood"/><feComposite in="flood" in2="fbSourceGraphic" operator="in" result="composite1"/><feGaussianBlur in="composite1" result="blur" stdDeviation="0"/><feOffset dx="3" dy="5" result="offset"/><feComposite in="fbSourceGraphic" in2="offset" operator="over" result="composite2"/></filter><linearGradient id="e" gradientUnits="userSpaceOnUse" x1="37.478284" x2="37.478284" y1="169.473508" y2="32.128748"><stop offset="0" stop-color="#ff7a01"/><stop offset=".35918856" stop-color="#fffc00"/><stop offset=".60327649" stop-color="#ff0"/><stop offset="1" stop-color="#ff7501"/></linearGradient><linearGradient id="f" gradientTransform="scale(.99569185 1.0043268)" gradientUnits="userSpaceOnUse" x1="148.3185" x2="151.97664" xlink:href="#a" y1="162.58894" y2="52.277431"/><linearGradient id="g" gradientTransform="matrix(.99569185 0 0 1.0043268 -4.632975 0)" gradientUnits="userSpaceOnUse" x1="148.3185" x2="151.97664" xlink:href="#a" y1="162.58894" y2="52.277431"/><linearGradient id="h" gradientTransform="matrix(.99569185 0 0 1.0043268 -13.076264 0)" gradientUnits="userSpaceOnUse" x1="148.3185" x2="151.97664" xlink:href="#a" y1="162.58894" y2="52.277431"/><linearGradient id="i" gradientTransform="matrix(.99569185 0 0 1.0043268 -7.076264 -2)" gradientUnits="userSpaceOnUse" x1="148.3185" x2="151.97664" xlink:href="#a" y1="162.58894" y2="52.277431"/><linearGradient id="j" gradientTransform="matrix(.99569185 0 0 1.0043268 -2.632975 0)" gradientUnits="userSpaceOnUse" x1="148.3185" x2="151.97664" xlink:href="#a" y1="162.58894" y2="52.277431"/><linearGradient id="k" gradientTransform="matrix(.99569185 0 0 1.0043268 -8.467382 2)" gradientUnits="userSpaceOnUse" x1="148.3185" x2="151.97664" xlink:href="#a" y1="162.58894" y2="52.277431"/><linearGradient id="l" gradientTransform="matrix(.99569185 0 0 1.0043268 -2 0)" gradientUnits="userSpaceOnUse" x1="148.3185" x2="151.97664" xlink:href="#a" y1="162.58894" y2="52.277431"/><g transform="translate(13.158397 -24.527469)"><text fill="#ef00eb" font-family="TrasksHand" font-size="2" stroke="#0105ff" stroke-width="2.5" transform="matrix(.84154277 .54019049 -.54019049 .84154277 0 0)" x="150.25597" y="53.502819"><tspan fill="#fafafa" fill-opacity=".4" font-size="2" stroke="none" stroke-width="2.5" x="150.25597" y="53.502819">John Loreth 2022</tspan></text><g stroke="#010000" stroke-width="1.25"><path d="m86.543236 112.93656q-.746668 6.72001-.746668 9.89335-1.86667.56-2.986672.56.746668 1.12 2.613338 3.17334-.560001 1.30667-1.680003 4.10667-3.73334.37334-10.826687 1.30667v5.78668q0 2.24-.560001 6.34668-.373334 4.10667-.373334 6.16001 0 5.04001.933335 17.36003-2.800005 1.30667-5.040009 2.24l-1.86667-2.42667 1.306669-3.17334-.373334-5.04.746668-1.49334-1.493336-3.36001-3.360006 5.22668 1.120002 5.60001-1.493336-2.05334q-1.86667 3.36001-6.160011 9.89335l-2.800005-2.24q-2.240004 2.05334-3.546673 2.8-1.866671-13.81335-3.733341-36.40006-4.293341.37333-38.826737 13.25336l1.493336-7.84002q.746668-.74667 2.426671-2.05334-.933335-1.30666-1.306669-2.61333l-2.240004-1.12001q.933335-1.49333 2.0533371-3.92l-.9333351-1.68001q-2.9866721.37334-4.6666752.74667-.186667-.93333-1.493336-2.8l2.4266711-4.66668 1.306669-.93333.186667-3.73334-5.4133432 3.17334-.74666797 2.8q-1.68000313-2.42667-2.98667213-4.48001-.9333351-.56-4.4800085-2.61334 4.1066744-9.33335 19.9733699-36.96006 7.093346-12.320022 22.213374-36.026732.933335 1.86667 2.240004 5.60001 1.493336-1.120002 3.920007-4.106674v-2.800005q3.920007-1.306669 7.280014-1.680003l2.053337 9.893351 2.240004-5.413343-.186667-4.853342.746668-1.493337-.560001-1.120002 4.853342-2.240004q0 .186667 2.426671 6.160012 2.240004-2.986673 5.413343-6.533346.933335-.186667 8.026682-2.800005 0 1.306669-.186668 3.920007 0 2.800005 0 4.293342 1.30667-.186667 5.226677-1.493337-5.413344 52.45343-5.413344 68.880128 2.986673-.37334 8.77335-1.49334-.746668 1.68-1.680003 5.04001 1.120002 0 6.160011-.56zm-27.626717-60.106776-1.306669-2.426671-2.240004 3.73334 1.680003 7.093346q.746668-1.306669 1.120002-4.480008.373334-3.173339.746668-3.920007zm-14.560027 64.026776q-.746668-8.58668-1.680003-25.386706-9.146683 13.066686-17.920032 31.546726 10.453352-3.73334 19.600035-6.16002zm19.600036 25.76005-.933335-1.86667-1.680003 2.80001 1.120002 5.78667 1.120002-2.98667-.186667-2.98667zm-3.920007 8.58668-1.120002-2.42667-2.426671 3.92001 1.493336 7.09335 1.680003-3.73334-.186667-3.92001zm-49.653424-43.30674-4.1066741 2.05334-2.2400041 7.09334 3.3600062-2.61334 1.680003-3.36 1.120002-.56zm588.191993-19.927642q-24.6135 14.823862-24.6135 24.585922 0 3.49506 5.97415 6.267 9.08071 4.33869 11.11192 5.90544 5.97415 4.70025 5.97415 12.77504 0 8.07478-7.76639 17.71632-5.61571 7.47219-14.099 14.10075-.47793-.24104-.47793-1.08467 0-.48208.35845-1.68727.47793-1.20519.47793-1.68727 0-.84364-4.06242-.84364-1.55328 0-2.27018.24104l5.01829-5.30284q-4.30139.60259-7.0495 3.73609l-.95587.24104-.83638.96415-2.86759-1.20519q15.29383-10.84673 15.29383-16.87269 0-3.85661-8.60278-7.95427-13.62107-6.38751-15.89124-7.95426-8.4833-5.66441-8.4833-13.73919 0-13.85972 16.01073-29.406695 12.78468-12.413479 28.31747-19.765151.47794 1.325711 1.91173 3.01298 1.79225 2.289865 2.1507 2.892462l-1.79225.361557-2.86759 2.289865-.83638.120519-1.67277 2.892462 3.46501.361557 3.94294-5.061807q0 .843635-1.07534 5.061807l3.94293 3.012981h-.11948l-2.15069 1.807788-.7169.120519-1.19483 1.807788 2.50914.241039 2.50915-2.651423.59741.723115zm-10.03657-6.146481-2.1507.361558-1.79224 1.687269h-.59742l-.95586 1.807788 2.27018.12052zm-6.09364 73.516723-2.74811.96415-2.03121 1.56675-.59741.36156-1.19483 1.44623 2.62862-.24104zm-33.36087-86.966043q-1.07535 3.133499-1.4338 6.508037h-1.07534l-1.91173.964154-.47793-.120519-1.19483 1.205192 2.27017.361558 2.38966-1.687269q-.11948.964153-.35845 2.651422l-4.8988 3.012981 5.37674.361557q-.59742 2.048827-1.79225 6.508038-15.77176 3.856615-27.00316 8.195307-.47793 3.615576-.83638 7.231155 8.36381-2.89246 18.87831-5.905444-.11948.964154-.35844 2.892464 2.27017-.723118 6.81053-1.687272-.7169 2.410382-1.79225 7.110632-1.43379.6026-2.86759.84363.35845.6026 1.31431 1.92831-.35845.84364-.7169 2.41039-9.55864 2.89246-11.2314 3.25402-6.3326 2.04882-10.87295 4.45921-.35845 5.54388-.35845 12.17244 0 3.97713.11948 9.15946 3.94294-2.28987 8.96123-4.94129l1.55328.96416q4.8988-2.53091 13.97951-6.267-.11948.48207-2.1507 8.31582 1.79225-.72311 2.74811-1.08467-.71689 3.49506-.71689 5.18233-20.07315 9.03894-39.07095 23.74228-.47793-2.65142-.47793-3.01298 0-.84363.47793-2.28986.47793-1.32572.47793-2.04883-1.31431-1.92831-2.38966-3.01298.35845-.6026.95586-2.41039l-1.55328.12052-.11948-.48207q.59742-.6026 2.38966-1.92831-1.31431-10.12362-2.15069-23.62177-1.4338.96416-4.30139 2.41039-.7169-3.01298-1.31431-4.57973.71689-1.92831 1.31431-3.25402l-1.91173-1.20519q.35845-2.53091 1.31431-6.38752 2.8676-1.32572 4.30139-2.28987v-7.23115q-2.98707 1.32571-9.08071 4.33869.47793-1.20519 3.58449-8.43634-.59741-1.084677-1.91172-3.012985 2.03121-1.928307 3.22604-3.495057-.59742-.482077-1.07535-2.410384-.35845-2.048827-.7169-2.771942 1.19483-1.928308 1.91173-3.1335 12.54572-5.543884 23.06022-9.400499l.47794-2.169346q15.17434-3.977134 30.2292-6.02596zm-9.91709 11.810883h-1.55328l-1.4338.843634-.47793-.120519-.83638.843635 1.79225.361557zm-4.65984 21.09086-2.15069.12052-1.79225.96416h-.7169l-1.07534 1.08467 2.50914.36156zm-22.58229 46.3999h-1.4338l-1.31431.6026h-.35845l-.59741.72311 1.55328.24104zm-5.01829 4.70025-2.27017.12052-1.79225.84363.59742 1.68727zm-18.83965-44.2077q0 20.7293-15.41331 39.28926-16.13021 19.28308-36.20336 19.28308-13.3821 0-20.90953-9.52102l1.07535.24104-1.07535-3.7361-3.58449-1.92831q-4.06242-7.95427-4.06242-17.71632 0-20.60878 15.41331-39.04822 16.13021-19.403594 36.20336-19.403594 8.84174 0 15.65227 4.820769l2.62863 5.423364-3.70398-.241038-.59741-2.048827-5.85467-2.771942 1.67276 3.254019 2.62863 1.928308.35845.964153.11948 3.615577-4.65984 2.289865-4.42087-2.169346 1.67276 3.374538.83639.602596-2.1507 3.374538 3.46501-2.289865.35845.241039.47793.843634 2.15069.602596-.71689-2.530903 5.73518-.482077-.47793-2.289865 3.10656-.602596-1.31431-2.410385 6.09363 2.410385 1.19483-1.446231q4.30139 8.195307 4.30139 18.077878zm-13.74055-5.0618-.83638-2.53091-3.82346-1.928304 1.07535 2.289864 1.67276 1.32571.35845.48208zm-5.37674 14.58281q0-7.35166-4.1819-12.29295-4.06242-5.06181-11.23141-5.06181-10.87295 0-19.59521 10.72621-8.00536 10.00309-8.00536 21.45242 0 7.11063 3.94294 12.05192 4.1819 5.30285 11.47037 5.30285 10.99243 0 19.47573-10.72622 8.12484-10.24413 8.12484-21.45242zm-45.28406 35.31213-.7169-2.28986-3.22604-1.56675.95586 1.80779 1.4338 1.20519.23897.6026zm3.46501 9.52102-1.19483-3.97713-5.73519-3.01298 1.67276 3.49506 2.62863 1.80778.47793.96416zm-16.73133-61.53648q0 10.96725-6.09363 23.26021-8.12485 16.14958-23.17971 27.47838-14.93538 11.20829-32.49938 13.61868l.59741-4.45922.11949-.12052 3.82345.12052 5.01829-5.30284-4.18191.84363-.83638.6026q-.59741-1.92831-2.15069-8.55687l4.1819-.72311q-2.50914-20.84982-3.34552-42.42277-4.30139 2.28987-8.60278 5.54389.23897-7.95427 2.38966-13.739192l-2.74811-3.01298h1.55328l4.30139-4.459211-3.34552.482076-2.8676 1.928308.7169-5.423365-2.62862-2.048827q18.75883-11.087767 38.11508-11.087767 14.099 0 22.58229 6.387518 9.08071 7.351672 9.08071 21.09086zm-54.36478-10.967246-2.62862.482077-2.03121 1.446231-.7169.120519-.83638 1.44623 2.98707.12052zm32.73835 21.211376q0-12.89555-15.17434-12.654511-2.1507 20.849821-2.1507 41.338091 7.16899-5.18233 11.82882-12.534 5.49622-8.1953 5.49622-16.14958zm-19.59521 40.25343-1.67276.36155q-1.19484.84364-1.67277.84364l-.47793.72311h1.79225zm-6.09364-.72312-2.27017.36156-1.55328 1.20519h-.47794l-.83638 1.08467h2.38966zm-79.60015-39.45862-.7169 5.78492-7.28847 2.89246q0 15.90854.7169 23.74229 0 .96415.7169 5.0618.47793 3.1335.47793 5.18233 0 .72311-.35845 2.16934.47794 2.77195 1.79225 8.07479-1.19483.6026-3.22604 1.44623-1.07535-.84363-3.70398-2.28986-2.15069 2.77194-3.34552 4.57973l-1.91173-.72312-2.15069 1.44623q-1.19483-3.37454-2.62863-8.67738-16.01073 6.02596-25.68885 6.02596-11.2314 0-18.51987-10.12361-6.45208-9.15946-6.45208-20.84983 0-13.01607 6.3326-25.55007 5.73518-11.690358 16.01072-20.970338 11.70934-10.485172 28.91489-14.221267l-.11948 4.700249-2.50914 4.941288.95586 2.530904-.7169.361557-1.67276 1.56675-.83638.120519-.59741 1.687269 2.86759-.361557 1.55328-1.928308.7169 2.169346-2.38966 3.615576 2.15069 5.182327q-17.20556 7.592705-24.97195 21.934485-4.77932 8.79791-4.77932 15.06491 0 5.18232 3.58449 8.31582 3.58449 3.1335 8.84174 3.1335 5.01829 0 12.90417-3.49506-1.07535-2.41038-2.74811-12.65451-6.3326 3.97713-14.45745 9.64153.47793-2.04882 1.79225-6.38751l1.19483-.36156 1.55328-.96416.59741-.12052.83638-1.32571h-2.50914l-1.31431 1.56675-1.91173-2.28986q.59741-1.20519 2.27018-3.37454l-1.79225-1.44623q.59742-2.04883 1.19483-3.01298 3.22604-2.28987 10.15606-6.267l-.23897-1.68727q2.38966-1.20519 7.7664-3.25401v-.96416q10.27554-4.45921 23.53815-8.43634-.35845 2.04883-.59741 6.02596l-1.4338 1.08467h-2.62862l-4.06243 4.70025 3.34553-.72311 2.50914-1.80779.83638-.12052.23897-.24104zm-25.56937-26.514223-3.46501 1.084672-2.27018 2.048827-.95586.120519-.83638 2.169346 3.82346-.482077zm12.18727 27.357863h-2.50915l-2.62862 3.13349 2.15069-.6026 1.55328-1.20518h.7169zm-18.63935-17.836845-1.91173.602596-1.07535 1.205192-.59741.120519-.47794.964154 1.91173-.241039zm-32.02145 53.751565-1.67277-4.94129-.83638 2.77194.35845 2.65142-.35845.96416.83638 1.32571zm123.04084.0488-1.43379.48207q-1.31431 2.89247-1.67276 3.61558-1.07535 1.44623-2.74811 2.5309-2.50915-1.20519-3.94294-.60259-1.4338.60259-6.09364 2.65142-2.74811-10.00309-5.49622-21.3319-6.3326 2.28986-17.08607 7.47219-1.31431 8.55687-2.27018 16.87269-.23896.12052-.47793.12052-.35845 0-1.07535-.72311-.71689-.84364-.95586-.84364-.7169 0-1.31431 2.04883-.59742 1.9283-1.07535 2.41038-3.70397 2.53091-3.34552 1.80779.47793-.6026.47793-3.85662l.59741-1.08467-.83638-1.92831-2.62862 3.61558.59741 4.70025q-1.19483.6026-2.03121.6026-1.07535 0-1.31431-1.32571-.23897-1.2052-.35845-1.2052-.47794 0-1.55328 2.77194h-.23897q.59742-9.27997.59742-20.97034 0-26.15267 6.09363-62.428953 2.62863-.843635 8.00536-2.771942.95587-.482077 4.06243-2.771942 2.03121-1.446231 4.8988-1.446231 2.03121 0 8.24433-2.651423-.7169 3.1335-1.31432 6.025961 1.31432-.361558 3.70398-1.084673.59741-.964154 2.27018-2.169346.35845-.120519 1.07534-.361557l-1.19483 3.01298 3.22604 5.664403.7169-4.218172-1.07534-3.254019.35844-1.084673-.59741-.723116q2.38966-1.205192 7.64691-3.133499.23897 19.283074 3.70398 42.784322 2.15069-.72311 5.49622-1.80779-.11949 1.20519-.35845 3.85662-.11949.84363-1.31432 1.9283-1.07534.96416-1.07534 2.28987 0 .48208.71689 1.56675.83639 1.08467.83639 1.92831 0 .60259-.23897 1.9283-.23897 1.32572-.23897 1.92831l-1.55328.48208q1.55328 9.76206 3.58449 18.68048zm-17.564-57.608189-.59741-1.928307.11948-.723116-1.07535-1.084673-.95586 2.892462 2.03121 3.495057zm-7.16898 29.888769q-2.62863-12.17245-4.42087-24.344885-4.54036 19.644635-6.3326 29.888765 5.97415-3.49506 10.75347-5.54388zm-23.89661 25.06799-.35844-.96415-1.19483 1.68727.23896 2.89246.83638-1.56675.11949-1.56675zm3.82346 4.82077-.47793-1.56675-1.91173 2.65143.59742 4.33869q1.55328-2.41039 1.43379-4.82077zm-86.73747-69.783703q-3.34553 29.768243-3.34553 58.331293 0 2.16935-.59741 5.42337-.47794 3.25402-.47794 4.82077 0 .48207.7169 10.12361-2.03121 1.08467-3.22604 1.44623-2.15069-2.65142-3.58449-4.09765-2.27018 3.61558-3.82346 6.14648l-1.55328-1.32571-2.38966 1.80779q-.11948-.72312-1.07534-8.67739-9.91709 5.66441-19.7147 13.73919v.48208q-2.62863 1.32571-4.42087 2.28986l-.35845-3.25401.35845-.96416-1.31432-1.92831-1.91173 3.61558 1.55328 4.45921q-1.91172 1.20519-2.86759 2.28987-.11948-1.20519-.11948-3.7361-.95587.48208-2.74811 1.92831 0-.36156-.95587-10.0031-.95586 3.61558-3.10655 10.48518l-.7169-.12052q-1.91173-41.94069-1.91173-56.04144 0-12.65451.7169-23.742281.7169-.241039 1.31431-.241039.59742 0 1.67276.361558 1.07535.241039 1.79225.241039 1.79224 0 4.1819-2.048827l1.79225 6.025961 1.19483-3.495058-.47793-3.133499.47793-.964154-.47793-.843634q.95586-.241039 1.79224-.241039.83638 0 1.79225.602596 1.07535.602596 1.67276.602596 1.79225 0 3.94294-2.169346 2.62863-2.892461 3.82346-3.374538-1.91173 14.823865-3.70398 29.888765-2.03121 17.23425-2.38966 29.76824 5.73519-3.73609 17.08608-11.44932-2.27018-24.4654-2.50915-50.859107 4.30139-1.687269 10.63399-4.338692.7169 2.048826 1.55328 3.856615 1.19483-1.446231 3.22604-3.977134l1.31431-.482077-1.31431 2.169346 2.03121 6.02596 1.19483-3.374538-.47793-3.254018.47793-.964154-.71689-1.084673q.95586-.241039 2.86759-.964154-.11949 1.928308-.11949 4.941288 1.91173-.241038 3.22605-.723115zm-14.099 8.677383-.35845-1.807788.35845-.602596-.7169-1.205192-.95586 2.048826.95586 3.615577zm3.58449 6.025961-.11948-1.807788.11948-.482077-.59741-1.205192-1.19483 2.048826 1.19483 3.615577zm-36.80077 67.852319q-.11948-1.56675 0-2.53091l-.47793-1.20519-1.19483 2.16935 1.19483 3.49505zm-11.82244-78.793593-2.86759-.361557-5.01829 4.338691 3.82346-.241038 2.74811-1.687269h1.19483l-.23897 2.530903-2.03121.602597 1.67276 2.410384-1.07534 3.254019q-2.50915.723115-7.88588 1.807788-.35845 22.175525-5.25725 71.106335l-.47794 1.32571q-24.25505-1.08468-43.133371-11.69037l2.987076-2.77194.716898-1.80779 6.213117 1.92831-2.15069-2.89246-2.98708-1.44623-.597415-.96415q3.703975-3.01298 3.703975-3.61558 0-.72312-.59742-2.28987-.47793-1.56675-.47793-2.28986 0 0 .11948-.72312 10.51451 5.30285 21.8654 8.19531 0-24.58592-1.91173-44.5921-10.03657 4.82076-21.626428 10.96724.238966-2.04883.836381-6.267 1.075347-1.08467 2.509147-2.89246-.35845-.24103-3.106562-1.68726l.238966-.72312 1.672766.36156 5.01829-4.09766-3.82346.12052-2.748113 1.44623q0-3.736091.477932-5.182322-.597415-1.084673-1.433796-3.1335 8.005367-3.495057 24.135577-10.485171 13.38209-6.14648 26.0473-10.003095-.35845 1.325711-.95587 3.977134 1.91173-.241039 4.18191-.723115-.11949.843634-.11949 1.687269 0 1.205192.11949 3.374538.23896 2.169346.23896 3.133499zm-9.55864 5.182327-1.79224-.241039-2.1507 1.928308 1.67276-.12052 1.31432-.723115h.47793zm-2.38966-3.495058-2.86759-.241038-3.58449 2.771942 2.62862-.120519 1.91173-.964154h.95587zm-30.34869 67.731794-1.55328-2.41038-2.03121-1.08468-.35845-.72311-1.79224-.12052 1.31431 2.77194zm2.1507 4.82077-1.4338-1.44623-1.67276-.6026-.59742-.48208-1.19483.12052 1.31432 1.92831z"/><g fill="url(#b)" filter="url(#c)" transform="translate(5.4 7.2)"><path d="m143.23948 70.352844-2.86759-.361557-5.01829 4.338691 3.82346-.241038 2.74811-1.687269h1.19483l-.23897 2.530903-2.03121.602597 1.67276 2.410384-1.07534 3.254019q-2.50915.723115-7.88588 1.807788-.35845 22.175528-5.25725 71.106338l-.47794 1.32571q-24.25505-1.08468-43.133368-11.69037l2.987076-2.77194.716898-1.80779 6.213117 1.92831-2.150695-2.89246-2.987075-1.44623-.597415-.96415q3.703973-3.01298 3.703973-3.61558 0-.72312-.597415-2.28987-.477932-1.56675-.477932-2.28986 0 0 .119483-.72312 10.514503 5.30285 21.865393 8.19531 0-24.58592-1.91173-44.592107-10.03657 4.820769-21.626425 10.967247.238966-2.048825.836381-6.266997 1.075347-1.084673 2.509144-2.892461-.358449-.241039-3.106559-1.687269l.238966-.723116 1.672762.361558 5.018287-4.097653-3.823456.120519-2.74811 1.44623q0-3.736095.477932-5.182326-.597415-1.084673-1.433796-3.1335 8.005362-3.495057 24.135574-10.485171 13.38209-6.14648 26.0473-10.003095-.35845 1.325711-.95587 3.977134 1.91173-.241039 4.18191-.723115-.11949.843634-.11949 1.687269 0 1.205192.11949 3.374538.23896 2.169346.23896 3.133499zm-9.55864 5.182327-1.79224-.241039-2.1507 1.928308 1.67276-.12052 1.31432-.723115h.47793zm-2.38966-3.495058-2.86759-.241038-3.58449 2.771942 2.62862-.120519 1.91173-.964154h.95587zm-30.34869 67.731797-1.553276-2.41038-2.031212-1.08468-.358449-.72311-1.792245-.12052 1.314313 2.77194zm2.1507 4.82077-1.4338-1.44623-1.672761-.6026-.597415-.48208-1.194831.12052 1.314314 1.92831z" fill="url(#f)"/><path d="m202.3772 66.590774q-3.34553 29.768246-3.34553 58.331296 0 2.16935-.59741 5.42337-.47794 3.25402-.47794 4.82077 0 .48207.7169 10.12361-2.03121 1.08467-3.22604 1.44623-2.15069-2.65142-3.58449-4.09765-2.27018 3.61558-3.82346 6.14648l-1.55328-1.32571-2.38966 1.80779q-.11948-.72312-1.07534-8.67739-9.91709 5.66441-19.7147 13.73919v.48208q-2.62863 1.32571-4.42087 2.28986l-.35845-3.25401.35845-.96416-1.31432-1.92831-1.91173 3.61558 1.55328 4.45921q-1.91172 1.20519-2.86759 2.28987-.11948-1.20519-.11948-3.7361-.95587.48208-2.74811 1.92831 0-.36156-.95587-10.0031-.95586 3.61558-3.10655 10.48518l-.7169-.12052q-1.91173-41.94069-1.91173-56.04144 0-12.654516.7169-23.742284.7169-.241039 1.31431-.241039.59742 0 1.67276.361558 1.07535.241039 1.79225.241039 1.79224 0 4.1819-2.048827l1.79225 6.025961 1.19483-3.495058-.47793-3.133499.47793-.964154-.47793-.843634q.95586-.241039 1.79224-.241039.83638 0 1.79225.602596 1.07535.602596 1.67276.602596 1.79225 0 3.94294-2.169346 2.62863-2.892461 3.82346-3.374538-1.91173 14.823864-3.70398 29.888768-2.03121 17.23425-2.38966 29.76824 5.73519-3.73609 17.08608-11.44932-2.27018-24.465402-2.50915-50.85911 4.30139-1.687269 10.63399-4.338692.7169 2.048826 1.55328 3.856615 1.19483-1.446231 3.22604-3.977134l1.31431-.482077-1.31431 2.169346 2.03121 6.02596 1.19483-3.374538-.47793-3.254018.47793-.964154-.71689-1.084673q.95586-.241039 2.86759-.964154-.11949 1.928308-.11949 4.941288 1.91173-.241038 3.22605-.723115zm-14.099 8.677383-.35845-1.807788.35845-.602596-.7169-1.205192-.95586 2.048826.95586 3.615577zm3.58449 6.025961-.11948-1.807788.11948-.482077-.59741-1.205192-1.19483 2.048826 1.19483 3.615577zm-36.80077 67.852322q-.11948-1.56675 0-2.53091l-.47793-1.20519-1.19483 2.16935 1.19483 3.49505z" fill="url(#f)"/><path d="m333.9208 134.20518-1.43379.48207q-1.31431 2.89247-1.67276 3.61558-1.07535 1.44623-2.74811 2.5309-2.50915-1.20519-3.94294-.60259-1.4338.60259-6.09364 2.65142-2.74811-10.00309-5.49622-21.3319-6.3326 2.28986-17.08607 7.47219-1.31431 8.55687-2.27018 16.87269-.23896.12052-.47793.12052-.35845 0-1.07535-.72311-.71689-.84364-.95586-.84364-.7169 0-1.31431 2.04883-.59742 1.9283-1.07535 2.41038-3.70397 2.53091-3.34552 1.80779.47793-.6026.47793-3.85662l.59741-1.08467-.83638-1.92831-2.62862 3.61558.59741 4.70025q-1.19483.6026-2.03121.6026-1.07535 0-1.31431-1.32571-.23897-1.2052-.35845-1.2052-.47794 0-1.55328 2.77194h-.23897q.59742-9.27997.59742-20.97034 0-26.15267 6.09363-62.428956 2.62863-.843635 8.00536-2.771942.95587-.482077 4.06243-2.771942 2.03121-1.446231 4.8988-1.446231 2.03121 0 8.24433-2.651423-.7169 3.1335-1.31432 6.025961 1.31432-.361558 3.70398-1.084673.59741-.964154 2.27018-2.169346.35845-.120519 1.07534-.361557l-1.19483 3.01298 3.22604 5.664403.7169-4.218172-1.07534-3.254019.35844-1.084673-.59741-.723116q2.38966-1.205192 7.64691-3.133499.23897 19.283074 3.70398 42.784325 2.15069-.72311 5.49622-1.807792-.11949 1.205192-.35845 3.856622-.11949.84363-1.31432 1.9283-1.07534.96416-1.07534 2.28987 0 .48208.71689 1.56675.83639 1.08467.83639 1.92831 0 .60259-.23897 1.9283-.23897 1.32572-.23897 1.92831l-1.55328.48208q1.55328 9.76206 3.58449 18.68048zm-17.564-57.608192-.59741-1.928307.11948-.723116-1.07535-1.084673-.95586 2.892462 2.03121 3.495057zm-7.16898 29.888772q-2.62863-12.172447-4.42087-24.344888-4.54036 19.644638-6.3326 29.888768 5.97415-3.49506 10.75347-5.54388zm-23.89661 25.06799-.35844-.96415-1.19483 1.68727.23896 2.89246.83638-1.56675.11949-1.56675zm3.82346 4.82077-.47793-1.56675-1.91173 2.65143.59742 4.33869q1.55328-2.41039 1.43379-4.82077z" fill="url(#j)"/><path d="m274.92286 97.397981-.7169 5.784919-7.28847 2.89246q0 15.90854.7169 23.74229 0 .96415.7169 5.0618.47793 3.1335.47793 5.18233 0 .72311-.35845 2.16934.47794 2.77195 1.79225 8.07479-1.19483.6026-3.22604 1.44623-1.07535-.84363-3.70398-2.28986-2.15069 2.77194-3.34552 4.57973l-1.91173-.72312-2.15069 1.44623q-1.19483-3.37454-2.62863-8.67738-16.01073 6.02596-25.68885 6.02596-11.2314 0-18.51987-10.12361-6.45208-9.15946-6.45208-20.84983 0-13.01607 6.3326-25.550067 5.73518-11.690364 16.01072-20.970344 11.70934-10.485172 28.91489-14.221267l-.11948 4.700249-2.50914 4.941288.95586 2.530904-.7169.361557-1.67276 1.56675-.83638.120519-.59741 1.687269 2.86759-.361557 1.55328-1.928308.7169 2.169346-2.38966 3.615576 2.15069 5.182327q-17.20556 7.59271-24.97195 21.934488-4.77932 8.79791-4.77932 15.06491 0 5.18232 3.58449 8.31582 3.58449 3.1335 8.84174 3.1335 5.01829 0 12.90417-3.49506-1.07535-2.41038-2.74811-12.65451-6.3326 3.97713-14.45745 9.64153.47793-2.04882 1.79225-6.38751l1.19483-.36156 1.55328-.96416.59741-.12052.83638-1.32571h-2.50914l-1.31431 1.56675-1.91173-2.28986q.59741-1.20519 2.27018-3.37454l-1.79225-1.44623q.59742-2.04883 1.19483-3.01298 3.22604-2.28987 10.15606-6.267l-.23897-1.68727q2.38966-1.20519 7.7664-3.254013v-.964154q10.27554-4.459211 23.53815-8.436345-.35845 2.048827-.59741 6.025961l-1.4338 1.084673h-2.62862l-4.06243 4.700248 3.34553-.723114 2.50914-1.807788.83638-.120519.23897-.241039zm-25.56937-26.514227-3.46501 1.084672-2.27018 2.048827-.95586.120519-.83638 2.169346 3.82346-.482077zm12.18727 27.357862h-2.50915l-2.62862 3.133494 2.15069-.6026 1.55328-1.205183h.7169zm-18.63935-17.836844-1.91173.602596-1.07535 1.205192-.59741.120519-.47794.964154 1.91173-.241039zm-32.02145 53.751568-1.67277-4.94129-.83638 2.77194.35845 2.65142-.35845.96416.83638 1.32571z" fill="url(#l)"/><path d="m401.83829 87.08216q0 10.967248-6.09363 23.26021-8.12485 16.14958-23.17971 27.47838-14.93538 11.20829-32.49938 13.61868l.59741-4.45922.11949-.12052 3.82345.12052 5.01829-5.30284-4.18191.84363-.83638.6026q-.59741-1.92831-2.15069-8.55687l4.1819-.72311q-2.50914-20.84982-3.34552-42.422768-4.30139 2.289865-8.60278 5.543884.23897-7.954269 2.38966-13.739191l-2.74811-3.01298h1.55328l4.30139-4.459211-3.34552.482076-2.8676 1.928308.7169-5.423365-2.62862-2.048827q18.75883-11.087767 38.11508-11.087767 14.099 0 22.58229 6.387518 9.08071 7.351672 9.08071 21.090863zm-54.36478-10.967249-2.62862.482077-2.03121 1.446231-.7169.120519-.83638 1.44623 2.98707.12052zm32.73835 21.211382q0-12.895556-15.17434-12.654517-2.1507 20.849824-2.1507 41.338094 7.16899-5.18233 11.82882-12.534 5.49622-8.1953 5.49622-16.149577zm-19.59521 40.253427-1.67276.36155q-1.19484.84364-1.67277.84364l-.47793.72311h1.79225zm-6.09364-.72312-2.27017.36156-1.55328 1.20519h-.47794l-.83638 1.08467h2.38966z" fill="url(#g)"/><path d="m479.50596 94.264481q0 20.729299-15.41331 39.289259-16.13021 19.28308-36.20336 19.28308-13.3821 0-20.90953-9.52102l1.07535.24104-1.07535-3.7361-3.58449-1.92831q-4.06242-7.95427-4.06242-17.71632 0-20.608783 15.41331-39.048223 16.13021-19.403594 36.20336-19.403594 8.84174 0 15.65227 4.820769l2.62863 5.423364-3.70398-.241038-.59741-2.048827-5.85467-2.771942 1.67276 3.254019 2.62863 1.928308.35845.964153.11948 3.615577-4.65984 2.289865-4.42087-2.169346 1.67276 3.374538.83639.602596-2.1507 3.374538 3.46501-2.289865.35845.241039.47793.843634 2.15069.602596-.71689-2.530903 5.73518-.482077-.47793-2.289865 3.10656-.602596-1.31431-2.410385 6.09363 2.410385 1.19483-1.446231q4.30139 8.195307 4.30139 18.077882zm-13.74055-5.061807-.83638-2.530903-3.82346-1.928308 1.07535 2.289865 1.67276 1.325712.35845.482077zm-5.37674 14.582816q0-7.351663-4.1819-12.292951-4.06242-5.061807-11.23141-5.061807-10.87295 0-19.59521 10.726211-8.00536 10.003087-8.00536 21.452417 0 7.11063 3.94294 12.05192 4.1819 5.30285 11.47037 5.30285 10.99243 0 19.47573-10.72622 8.12484-10.24413 8.12484-21.45242zm-45.28406 35.31213-.7169-2.28986-3.22604-1.56675.95586 1.80779 1.4338 1.20519.23897.6026zm3.46501 9.52102-1.19483-3.97713-5.73519-3.01298 1.67276 3.49506 2.62863 1.80778.47793.96416z" fill="url(#k)"/><path d="m540.52312 54.470284q-1.07535 3.133499-1.4338 6.508037h-1.07534l-1.91173.964154-.47793-.120519-1.19483 1.205192 2.27017.361558 2.38966-1.687269q-.11948.964153-.35845 2.651422l-4.8988 3.012981 5.37674.361557q-.59742 2.048827-1.79225 6.508038-15.77176 3.856615-27.00316 8.195307-.47793 3.615576-.83638 7.231153 8.36381-2.892461 18.87831-5.905442-.11948.964154-.35844 2.892461 2.27017-.723115 6.81053-1.687269-.7169 2.410385-1.79225 7.110634-1.43379.602596-2.86759.843635.35845.602596 1.31431 1.928307-.35845.843635-.7169 2.410384-9.55864 2.892465-11.2314 3.254025-6.3326 2.04882-10.87295 4.45921-.35845 5.54388-.35845 12.17244 0 3.97713.11948 9.15946 3.94294-2.28987 8.96123-4.94129l1.55328.96416q4.8988-2.53091 13.97951-6.267-.11948.48207-2.1507 8.31582 1.79225-.72311 2.74811-1.08467-.71689 3.49506-.71689 5.18233-20.07315 9.03894-39.07095 23.74228-.47793-2.65142-.47793-3.01298 0-.84363.47793-2.28986.47793-1.32572.47793-2.04883-1.31431-1.92831-2.38966-3.01298.35845-.6026.95586-2.41039l-1.55328.12052-.11948-.48207q.59742-.6026 2.38966-1.92831-1.31431-10.12362-2.15069-23.62177-1.4338.96416-4.30139 2.41039-.7169-3.01298-1.31431-4.57973.71689-1.92831 1.31431-3.25402l-1.91173-1.20519q.35845-2.53091 1.31431-6.38752 2.8676-1.325717 4.30139-2.289871v-7.231153q-2.98707 1.325711-9.08071 4.338692.47793-1.205192 3.58449-8.436345-.59741-1.084673-1.91172-3.012981 2.03121-1.928307 3.22604-3.495057-.59742-.482077-1.07535-2.410384-.35845-2.048827-.7169-2.771942 1.19483-1.928308 1.91173-3.1335 12.54572-5.543884 23.06022-9.400499l.47794-2.169346q15.17434-3.977134 30.2292-6.02596zm-9.91709 11.810883h-1.55328l-1.4338.843634-.47793-.120519-.83638.843635 1.79225.361557zm-4.65984 21.090863-2.15069.120519-1.79225.964154h-.7169l-1.07534 1.084673 2.50914.361557zm-22.58229 46.3999h-1.4338l-1.31431.6026h-.35845l-.59741.72311 1.55328.24104zm-5.01829 4.70025-2.27017.12052-1.79225.84363.59742 1.68727z" fill="url(#i)"/><path d="m590.0142 74.066085q-24.6135 14.823863-24.6135 24.58592 0 3.495065 5.97415 6.267005 9.08071 4.33869 11.11192 5.90544 5.97415 4.70025 5.97415 12.77504 0 8.07478-7.76639 17.71632-5.61571 7.47219-14.099 14.10075-.47793-.24104-.47793-1.08467 0-.48208.35845-1.68727.47793-1.20519.47793-1.68727 0-.84364-4.06242-.84364-1.55328 0-2.27018.24104l5.01829-5.30284q-4.30139.60259-7.0495 3.73609l-.95587.24104-.83638.96415-2.86759-1.20519q15.29383-10.84673 15.29383-16.87269 0-3.85661-8.60278-7.95427-13.62107-6.38751-15.89124-7.95426-8.4833-5.66441-8.4833-13.73919 0-13.859719 16.01073-29.406698 12.78468-12.413479 28.31747-19.765151.47794 1.325711 1.91173 3.01298 1.79225 2.289865 2.1507 2.892462l-1.79225.361557-2.86759 2.289865-.83638.120519-1.67277 2.892462 3.46501.361557 3.94294-5.061807q0 .843635-1.07534 5.061807l3.94293 3.012981h-.11948l-2.15069 1.807788-.7169.120519-1.19483 1.807788 2.50914.241039 2.50915-2.651423.59741.723115zm-10.03657-6.146481-2.1507.361558-1.79224 1.687269h-.59742l-.95586 1.807788 2.27018.12052zm-6.09364 73.516726-2.74811.96415-2.03121 1.56675-.59741.36156-1.19483 1.44623 2.62862-.24104z" fill="url(#h)"/></g><path d="m83.382349 106.23374q-.746668 6.72001-.746668 9.89335-1.86667.56-2.986672.56.746668 1.12 2.613338 3.17334-.560001 1.30667-1.680003 4.10667-3.73334.37334-10.826687 1.30667v5.78668q0 2.24-.560001 6.34668-.373334 4.10667-.373334 6.16001 0 5.04001.933335 17.36003-2.800005 1.30667-5.040009 2.24l-1.86667-2.42667 1.306669-3.17334-.373334-5.04.746668-1.49334-1.493336-3.36001-3.360006 5.22668 1.120002 5.60001-1.493336-2.05334q-1.86667 3.36001-6.160011 9.89335l-2.800005-2.24q-2.240004 2.05334-3.546673 2.8-1.866671-13.81335-3.733341-36.40006-4.293341.37333-38.8267371 13.25336l1.493336-7.84002q.746668-.74667 2.4266711-2.05334-.933335-1.30666-1.306669-2.61333l-2.2400041-1.12001q.933335-1.49333 2.0533371-3.92l-.9333351-1.68001q-2.9866721.37334-4.6666752.74667-.18666698-.93333-1.49333603-2.8l2.42667113-4.66668 1.306669-.93333.186667-3.73334-5.4133432 3.17334-.746668 2.8q-1.6800031-2.42667-2.9866721-4.48001-.9333351-.56-4.4800085-2.61334 4.1066744-9.33335 19.9733701-36.960063 7.0933459-12.320022 22.2133739-36.026732.933335 1.86667 2.240004 5.60001 1.493336-1.120002 3.920007-4.106674v-2.800005q3.920007-1.306669 7.280014-1.680003l2.053337 9.893351 2.240004-5.413343-.186667-4.853342.746668-1.493337-.560001-1.120002 4.853342-2.240004q0 .186667 2.426671 6.160012 2.240004-2.986673 5.413343-6.533346.933335-.186667 8.026682-2.800005 0 1.306669-.186668 3.920007 0 2.800005 0 4.293342 1.30667-.186667 5.226677-1.493337-5.413344 52.45343-5.413344 68.880131 2.986673-.37334 8.77335-1.49334-.746668 1.68-1.680003 5.04001 1.120002 0 6.160011-.56zm-27.626717-60.106779-1.306669-2.426671-2.240004 3.73334 1.680003 7.093346q.746668-1.306669 1.120002-4.480008.373334-3.173339.746668-3.920007zm-14.560027 64.026779q-.746668-8.58668-1.680003-25.386709-9.146683 13.066691-17.920032 31.546729 10.453352-3.73334 19.600035-6.16002zm19.600036 25.76005-.933335-1.86667-1.680003 2.80001 1.120002 5.78667 1.120002-2.98667-.186667-2.98667zm-3.920007 8.58668-1.120002-2.42667-2.426671 3.92001 1.493336 7.09335 1.680003-3.73334-.186667-3.92001zm-49.653424-43.30674-4.1066742 2.05334-2.24000408 7.09334 3.36000618-2.61334 1.680003-3.36 1.1200021-.56z" fill="url(#e)" filter="url(#d)"/></g></g></svg>