<?xml version="1.0" encoding="UTF-8" standalone="no"?>
<!-- Created with Inkscape (http://www.inkscape.org/) -->

<svg
   version="1.1"
   id="svg2"
   width="576.4953"
   height="166.61093"
   viewBox="0 0 518.84577 149.94984"
   sodipodi:docname="auto-at4players.svg"
   inkscape:version="1.1.2 (0a00cf5339, 2022-02-04)"
   xmlns:inkscape="http://www.inkscape.org/namespaces/inkscape"
   xmlns:sodipodi="http://sodipodi.sourceforge.net/DTD/sodipodi-0.dtd"
   xmlns:xlink="http://www.w3.org/1999/xlink"
   xmlns="http://www.w3.org/2000/svg"
   xmlns:svg="http://www.w3.org/2000/svg">
  <defs
     id="defs6">
    <linearGradient
       inkscape:collect="always"
       id="linearGradient161308">
      <stop
         style="stop-color:#373969;stop-opacity:1"
         offset="0"
         id="stop161304" />
      <stop
         style="stop-color:#a7bbf1;stop-opacity:1"
         offset="0.43662432"
         id="stop161408" />
      <stop
         style="stop-color:#2170cc;stop-opacity:1"
         offset="1"
         id="stop161306" />
    </linearGradient>
    <linearGradient
       inkscape:collect="always"
       id="linearGradient33518">
      <stop
         style="stop-color:#ff7a01;stop-opacity:1"
         offset="0"
         id="stop33514" />
      <stop
         style="stop-color:#fffc00;stop-opacity:1"
         offset="0.35918856"
         id="stop72058" />
      <stop
         style="stop-color:#ffff00;stop-opacity:1"
         offset="0.60327649"
         id="stop44388" />
      <stop
         style="stop-color:#ff7501;stop-opacity:1"
         offset="1"
         id="stop33516" />
    </linearGradient>
    <linearGradient
       inkscape:collect="always"
       xlink:href="#linearGradient161308"
       id="linearGradient161302"
       x1="336.9906"
       y1="161.47"
       x2="336.9906"
       y2="57.731853"
       gradientUnits="userSpaceOnUse" />
    <filter
       style="color-interpolation-filters:sRGB"
       inkscape:label="Drop Shadow"
       id="filter184916"
       x="-0.0067741849"
       y="-0.03033309"
       width="1.0208855"
       height="1.1118864">
      <feGaussianBlur
         in="SourceGraphic"
         stdDeviation="0.926303"
         result="blur"
         id="feGaussianBlur184906" />
      <feDiffuseLighting
         diffuseConstant="1"
         surfaceScale="10"
         lighting-color="#ffffff"
         result="diffuse"
         id="feDiffuseLighting184910">
        <feDistantLight
           elevation="13"
           azimuth="236"
           id="feDistantLight184908" />
      </feDiffuseLighting>
      <feComposite
         in="diffuse"
         in2="diffuse"
         operator="arithmetic"
         k1="1"
         result="composite1"
         id="feComposite184912"
         k2="0"
         k3="0"
         k4="0" />
      <feComposite
         in="composite1"
         in2="SourceGraphic"
         k1="1"
         operator="arithmetic"
         k3="1"
         result="fbSourceGraphic"
         id="feComposite184914"
         k2="0"
         k4="0" />
      <feColorMatrix
         result="fbSourceGraphicAlpha"
         in="fbSourceGraphic"
         values="0 0 0 -1 0 0 0 0 -1 0 0 0 0 -1 0 0 0 0 1 0"
         id="feColorMatrix188362" />
      <feFlood
         id="feFlood188364"
         flood-opacity="1"
         flood-color="rgb(0,0,0)"
         result="flood"
         in="fbSourceGraphic" />
      <feComposite
         in2="fbSourceGraphic"
         id="feComposite188366"
         in="flood"
         operator="in"
         result="composite1" />
      <feGaussianBlur
         id="feGaussianBlur188368"
         in="composite1"
         stdDeviation="0"
         result="blur" />
      <feOffset
         id="feOffset188370"
         dx="3"
         dy="5"
         result="offset" />
      <feComposite
         in2="offset"
         id="feComposite188372"
         in="fbSourceGraphic"
         operator="over"
         result="composite2" />
    </filter>
    <filter
       style="color-interpolation-filters:sRGB"
       inkscape:label="Drop Shadow"
       id="filter184928"
       x="-0.032298655"
       y="-0.022401276"
       width="1.0957136"
       height="1.0814728">
      <feGaussianBlur
         in="SourceGraphic"
         stdDeviation="0.926303"
         result="blur"
         id="feGaussianBlur184918" />
      <feDiffuseLighting
         diffuseConstant="1"
         surfaceScale="10"
         lighting-color="#ffffff"
         result="diffuse"
         id="feDiffuseLighting184922">
        <feDistantLight
           elevation="13"
           azimuth="236"
           id="feDistantLight184920" />
      </feDiffuseLighting>
      <feComposite
         in="diffuse"
         in2="diffuse"
         operator="arithmetic"
         k1="1"
         result="composite1"
         id="feComposite184924"
         k2="0"
         k3="0"
         k4="0" />
      <feComposite
         in="composite1"
         in2="SourceGraphic"
         k1="1"
         operator="arithmetic"
         k3="1"
         result="fbSourceGraphic"
         id="feComposite184926"
         k2="0"
         k4="0" />
      <feColorMatrix
         result="fbSourceGraphicAlpha"
         in="fbSourceGraphic"
         values="0 0 0 -1 0 0 0 0 -1 0 0 0 0 -1 0 0 0 0 1 0"
         id="feColorMatrix188374" />
      <feFlood
         id="feFlood188376"
         flood-opacity="1"
         flood-color="rgb(0,0,0)"
         result="flood"
         in="fbSourceGraphic" />
      <feComposite
         in2="fbSourceGraphic"
         id="feComposite188378"
         in="flood"
         operator="in"
         result="composite1" />
      <feGaussianBlur
         id="feGaussianBlur188380"
         in="composite1"
         stdDeviation="0"
         result="blur" />
      <feOffset
         id="feOffset188382"
         dx="3"
         dy="5"
         result="offset" />
      <feComposite
         in2="offset"
         id="feComposite188384"
         in="fbSourceGraphic"
         operator="over"
         result="composite2" />
    </filter>
    <linearGradient
       inkscape:collect="always"
       xlink:href="#linearGradient161308"
       id="linearGradient1005"
       gradientUnits="userSpaceOnUse"
       x1="336.9906"
       y1="161.47"
       x2="336.9906"
       y2="57.731853" />
    <linearGradient
       inkscape:collect="always"
       xlink:href="#linearGradient161308"
       id="linearGradient1007"
       gradientUnits="userSpaceOnUse"
       x1="336.9906"
       y1="161.47"
       x2="336.9906"
       y2="57.731853" />
    <linearGradient
       inkscape:collect="always"
       xlink:href="#linearGradient161308"
       id="linearGradient1009"
       gradientUnits="userSpaceOnUse"
       x1="336.9906"
       y1="161.47"
       x2="336.9906"
       y2="57.731853" />
    <linearGradient
       inkscape:collect="always"
       xlink:href="#linearGradient161308"
       id="linearGradient1011"
       gradientUnits="userSpaceOnUse"
       x1="336.9906"
       y1="161.47"
       x2="336.9906"
       y2="57.731853" />
    <linearGradient
       inkscape:collect="always"
       xlink:href="#linearGradient161308"
       id="linearGradient1013"
       gradientUnits="userSpaceOnUse"
       x1="336.9906"
       y1="161.47"
       x2="336.9906"
       y2="57.731853" />
    <linearGradient
       inkscape:collect="always"
       xlink:href="#linearGradient161308"
       id="linearGradient1015"
       gradientUnits="userSpaceOnUse"
       x1="336.9906"
       y1="161.47"
       x2="336.9906"
       y2="57.731853" />
    <linearGradient
       inkscape:collect="always"
       xlink:href="#linearGradient161308"
       id="linearGradient1017"
       gradientUnits="userSpaceOnUse"
       x1="336.9906"
       y1="161.47"
       x2="336.9906"
       y2="57.731853" />
    <linearGradient
       inkscape:collect="always"
       xlink:href="#linearGradient33518"
       id="linearGradient894"
       gradientUnits="userSpaceOnUse"
       gradientTransform="translate(-3.7515562,2.5541463)"
       x1="46.776211"
       y1="168.2742"
       x2="46.776211"
       y2="30.92944" />
  </defs>
  <sodipodi:namedview
     id="namedview4"
     pagecolor="#ffffff"
     bordercolor="#111111"
     borderopacity="1"
     inkscape:pageshadow="0"
     inkscape:pageopacity="0"
     inkscape:pagecheckerboard="1"
     showgrid="false"
     fit-margin-top="0"
     fit-margin-left="0"
     fit-margin-right="0"
     fit-margin-bottom="0"
     inkscape:zoom="1.5450283"
     inkscape:cx="103.55797"
     inkscape:cy="73.461437"
     inkscape:window-width="1366"
     inkscape:window-height="703"
     inkscape:window-x="0"
     inkscape:window-y="0"
     inkscape:window-maximized="1"
     inkscape:current-layer="g8" />
  <g
     inkscape:groupmode="layer"
     inkscape:label="4PlayersCollection"
     id="g8"
     transform="translate(7.4395785,-26.153643)">
    <text
       xml:space="preserve"
       style="font-size:1.8px;line-height:1.25;font-family:TrasksHand;-inkscape-font-specification:TrasksHand;text-decoration-color:#000000;fill:#ef00eb;stroke:#0105ff;stroke-width:2.25;-inkscape-stroke:none;stop-color:#000000"
       x="84.584236"
       y="102.141"
       id="text4082"
       inkscape:label="Signature"><tspan
         sodipodi:role="line"
         id="tspan4080"
         style="font-size:1.8px;fill:#fafafa;fill-opacity:0.4;stroke:none;stroke-width:2.25"
         x="84.584236"
         y="102.141">John Loreth 2022</tspan></text>
    <g
       id="g33354"
       inkscape:label="Players"
       style="display:inline;fill:url(#linearGradient161302);fill-opacity:1;stroke:#010000;stroke-width:1.25;stroke-miterlimit:4;stroke-dasharray:none;stroke-opacity:1;filter:url(#filter184916)"
       transform="translate(0.24844378,0.55414633)">
      <path
         d="m 154.50645,81.479828 q 0,14.88 -12.12,27.480002 -8.52,8.64 -25.2,18 v 6.36 q 0,0.72 -0.36,2.28 -0.36,1.56 -0.36,2.16 0,0.12 0.84,9.96 -1.2,0.48 -3.48,1.56 l 0.96,-2.28 -2.64,-5.76 -0.84,3.48 0.6,2.4 -1.44,-1.44 q -1.44,2.16 -3.84,6.48 l -1.8,-1.32 -2.4,2.04 q -4.68,-40.32 -5.16,-61.800002 l -1.44,0.6 -4.08,-0.6 -3.48,3.12 q -0.96,-1.92 -1.32,-3.48 1.92,-0.84 4.08,-2.16 l -2.04,-1.56 1.68,-0.84 h 0.96 l 1.32,-1.92 -3.84,-0.36 -1.56,1.2 -0.6,-1.68 q 1.32,-2.28 1.92,-3.84 -2.16,0.48 -4.08,0.72 v -1.92 q 0.36,-0.12 2.52,-1.8 9,-6.84 19.8,-10.8 11.88,-4.56 22.2,-4.56 10.44,0 17.4,4.8 7.8,5.28 7.8,15.48 z m -20.88,9.6 q 0,-8.16 -11.4,-8.16 -1.2,0 -2.64,0.12 -1.92,17.760002 -1.92,24.720002 15.96,-9.120002 15.96,-16.680002 z m -33.6,-12.72 -2.88,-0.36 -3.72,3 2.76,-0.12 2.04,-1.2 h 0.72 z m 9.12,60.120002 -1.92,-4.2 -0.36,2.76 0.36,2.04 -0.24,0.72 1.08,1.44 z"
         style="font-weight:normal;font-size:120px;line-height:1.25;font-family:'Feast of Flesh BB';-inkscape-font-specification:'Feast of Flesh BB';fill:url(#linearGradient1005);fill-opacity:1;stroke:#010000;stroke-width:1.25;stroke-miterlimit:4;stroke-dasharray:none;stroke-opacity:1"
         id="path33374" />
      <path
         d="m 205.11584,123.30426 q -0.37512,1.19535 -0.76237,3.35063 l -2.87523,-0.39634 -4.84811,3.77908 3.48124,-0.076 2.89947,-1.52351 0.95993,0.0121 q -0.25665,1.31687 -0.77299,4.19058 l -3.01188,0.92204 1.41715,1.81804 -0.63026,2.39223 q -17.5974,6.01825 -39.00089,18.82898 -0.34178,-1.44443 -1.02384,-4.45328 0.50118,-1.67381 1.12386,-3.46609 l -1.66926,-0.86115 0.14424,-1.91833 0.84145,-0.10938 1.57048,-0.82023 0.59995,0.008 0.97508,-1.18778 -2.39678,-0.27029 -1.45504,1.18172 q 0.13818,-1.43837 0.65148,-4.07209 -4.29196,-40.25741 -3.93129,-68.815134 2.41193,-0.929615 7.35427,-2.66734 l -0.98417,1.907724 2.08557,5.906808 1.12387,-3.466083 -0.56056,-3.127329 0.4936,-1.073852 -0.59086,-0.72752 2.5289,-0.688119 q 0.70175,1.448978 1.75591,3.502454 1.09203,-0.946285 3.64972,-3.914222 2.52737,-0.568129 5.90074,-1.605611 -0.2718,2.516768 -0.30211,4.916577 1.32444,-0.343302 3.73031,-0.792956 -4.61337,32.704343 -4.9604,60.182153 6.63585,-2.79642 20.01995,-7.7878 l -0.39786,2.99521 q 2.16741,-0.57267 6.86673,-2.07344 z m -34.49772,-43.159094 -0.33269,-2.164374 0.24907,-0.716912 -0.82175,-1.450493 -1.47322,2.621605 1.62531,4.340871 z m 25.85717,52.650734 -2.39375,-0.51027 -3.0331,2.6019 2.28134,-0.0912 1.57199,-0.94022 0.59996,0.008 z"
         style="font-weight:normal;font-size:120px;line-height:1.25;font-family:'Feast of Flesh BB';-inkscape-font-specification:'Feast of Flesh BB';fill:url(#linearGradient1007);fill-opacity:1;stroke:#010000;stroke-width:1.25;stroke-miterlimit:4;stroke-dasharray:none;stroke-opacity:1"
         id="path33371" />
      <path
         d="m 262.72339,134.48346 -1.44,0.48 q -1.32,2.88 -1.68,3.6 -1.08,1.44 -2.76,2.52 -2.52,-1.2 -3.96,-0.6 -1.44,0.6 -6.12,2.64 -2.76,-9.96 -5.52,-21.24 -6.36,2.28 -17.16,7.44 -1.32,8.52 -2.28,16.8 -0.24,0.12 -0.48,0.12 -0.36,0 -1.08,-0.72 -0.72,-0.84 -0.96,-0.84 -0.72,0 -1.32,2.04 -0.6,1.92 -1.08,2.4 -3.72,2.52 -3.36,1.8 0.48,-0.6 0.48,-3.84 l 0.6,-1.08 -0.84,-1.92 -2.64,3.6 0.6,4.68 q -1.2,0.6 -2.04,0.6 -1.08,0 -1.32,-1.32 -0.24,-1.2 -0.36,-1.2 -0.48,0 -1.56,2.76 h -0.24 q 0.6,-9.24 0.6,-20.88 0,-26.04 6.12,-62.160004 2.64,-0.84 8.04,-2.76 0.96,-0.48 4.08,-2.76 2.04,-1.44 4.92,-1.44 2.04,0 8.28,-2.64 -0.72,3.12 -1.32,6 1.32,-0.36 3.72,-1.08 0.6,-0.96 2.28,-2.16 0.36,-0.12 1.08,-0.36 l -1.2,3 3.24,5.64 0.72,-4.2 -1.08,-3.24 0.36,-1.08 -0.6,-0.72 q 2.4,-1.2 7.68,-3.12 0.24,19.2 3.72,42.600004 2.16,-0.72 5.52,-1.8 -0.12,1.2 -0.36,3.84 -0.12,0.84 -1.32,1.92 -1.08,0.96 -1.08,2.28 0,0.48 0.72,1.56 0.84,1.08 0.84,1.92 0,0.6 -0.24,1.92 -0.24,1.32 -0.24,1.92 l -1.56,0.48 q 1.56,9.72 3.6,18.6 z m -17.64,-57.360004 -0.6,-1.92 0.12,-0.72 -1.08,-1.08 -0.96,2.88 2.04,3.48 z m -7.2,29.760004 q -2.64,-12.120004 -4.44,-24.240004 -4.56,19.560004 -6.36,29.760004 6,-3.48 10.8,-5.52 z m -24,24.96 -0.36,-0.96 -1.2,1.68 0.24,2.88 0.84,-1.56 0.12,-1.56 z m 3.84,4.8 -0.48,-1.56 -1.92,2.64 0.6,4.32 q 1.56,-2.4 1.44,-4.8 z"
         style="font-weight:normal;font-size:120px;line-height:1.25;font-family:'Feast of Flesh BB';-inkscape-font-specification:'Feast of Flesh BB';fill:url(#linearGradient1009);fill-opacity:1;stroke:#010000;stroke-width:1.25;stroke-miterlimit:4;stroke-dasharray:none;stroke-opacity:1"
         id="path33368" />
      <path
         d="m 329.42413,63.710071 q -1.2,2.16 -3.84,6.36 0.96,0.36 3.6,1.08 -4.08,6 -22.44,35.279999 -3,4.56 -8.52,13.8 -2.52,5.04 -8.04,13.92 -2.64,3.36 -5.76,9 -2.28,4.68 -4.68,9.48 -1.44,0 -3.84,-0.24 0,-3.36 -0.12,-5.4 l 0.6,-0.24 1.56,-3 0.96,-0.6 0.24,-2.16 -3.72,1.68 -1.32,3.84 q -3.12,2.4 -6,4.32 l -0.6,-2.76 -3.36,0.96 q 5.4,-13.2 17.28,-39.36 -11.76,-14.759999 -22.56,-31.439999 0.84,-0.84 2.52,-1.32 1.8,-0.6 2.4,-1.44 0.72,-0.96 1.32,-4.68 0.6,-2.76 3.24,-3.24 l 0.24,2.88 5.4,4.44 -0.96,-3.96 -2.28,-2.76 -0.24,-0.96 h -0.12 q 1.32,-1.08 1.8,-4.08 0.6,-3.12 1.32,-4.08 8.88,15.6 17.76,30.24 7.2,-14.64 15.24,-29.64 2.64,0.12 7.56,0.48 l -1.8,0.96 -1.92,6.12 3,-2.16 1.44,-2.88 0.96,-0.48 0.12,-1.44 3,0.36 q -0.84,3.12 -1.2,5.52 2.04,-1.08 5.76,-3.12 3.12,0.48 6,0.72 z m -14.76,6.84 -2.88,1.44 -1.44,4.68 2.28,-1.8 1.2,-2.16 0.72,-0.36 z m -34.32,16.92 -0.48,-1.92 -0.96,-1.2 -0.12,-0.6 -1.08,-0.48 0.12,2.04 z m -6.6,-3.84 -0.84,-2.76 -1.68,-2.04 -0.12,-0.72 -1.8,-0.84 0.24,3.24 z m 6.24,49.319999 -2.64,1.44 -1.56,4.68 2.28,-1.8 1.08,-2.04 0.72,-0.48 z"
         style="font-weight:normal;font-size:120px;line-height:1.25;font-family:'Feast of Flesh BB';-inkscape-font-specification:'Feast of Flesh BB';fill:url(#linearGradient1011);fill-opacity:1;stroke:#010000;stroke-width:1.25;stroke-miterlimit:4;stroke-dasharray:none;stroke-opacity:1"
         id="path33365" />
      <path
         d="m 383.91067,59.510735 q -1.08001,3.26873 -1.44001,6.788902 h -1.08 l -1.92,1.005763 -0.48,-0.12572 -1.2,1.257204 2.28,0.377161 2.4,-1.760086 q -0.12,1.005764 -0.36,2.765849 l -4.92001,3.143011 5.40002,0.377161 q -0.60001,2.137247 -1.80001,6.788902 -15.84002,4.023054 -27.12004,8.548989 -0.48,3.771612 -0.84,7.543225 8.40001,-3.01729 18.96003,-6.1603 -0.12,1.005763 -0.36,3.017289 2.28,-0.754322 6.84001,-1.760085 -0.72001,2.514408 -1.80001,7.417504 -1.43999,0.628602 -2.88,0.880043 0.36,0.628603 1.32,2.011523 -0.36,0.88005 -0.72,2.51441 -9.60001,3.01729 -11.28002,3.39445 -6.36,2.13725 -10.92001,4.65166 -0.36,5.78313 -0.36,12.69776 0,4.14878 0.12,9.55475 3.96,-2.38868 9.00001,-5.15454 l 1.56001,1.00577 q 4.92,-2.64013 14.04001,-6.53747 -0.11999,0.50289 -2.16,8.67472 1.8,-0.75432 2.76001,-1.13149 -0.72,3.6459 -0.72,5.40598 -20.16004,9.42903 -39.24006,24.76693 -0.48,-2.76586 -0.48,-3.14302 0,-0.88004 0.48,-2.38868 0.48,-1.38293 0.48,-2.13725 -1.32,-2.01153 -2.4,-3.14302 0.36,-0.6286 0.95999,-2.51441 l -1.56,0.12573 -0.12,-0.50289 q 0.6,-0.62859 2.4,-2.01152 -1.31999,-10.56052 -2.15999,-24.6412 -1.44001,1.00576 -4.32001,2.51441 -0.72001,-3.14302 -1.32,-4.77738 0.72,-2.01153 1.32,-3.39445 l -1.92001,-1.25721 q 0.36,-2.64012 1.32001,-6.66318 2.88,-1.38293 4.32,-2.38868 v -7.54323 q -3,1.382925 -9.12001,4.52594 0.48,-1.25721 3.6,-8.800434 -0.59999,-1.131483 -1.92,-3.14301 2.04001,-2.011527 3.24001,-3.645892 -0.60001,-0.502882 -1.08001,-2.514408 -0.36,-2.137247 -0.72,-2.89157 1.2,-2.011527 1.92,-3.268731 12.60002,-5.783139 23.16004,-9.806192 l 0.48,-2.262968 q 15.24002,-4.148773 30.36005,-6.28602 z m -9.96002,12.3206 h -1.56 l -1.44,0.880043 -0.48001,-0.125721 -0.84,0.880043 1.80001,0.377162 z m -4.68001,22.001073 -2.15999,0.12572 -1.80001,1.005764 h -0.72 l -1.08,1.131483 2.52,0.377162 z m -22.68003,48.402352 h -1.44001 l -1.31999,0.62861 h -0.36 l -0.60001,0.75432 1.56001,0.25145 z m -5.04001,4.90311 -2.28,0.12571 -1.8,0.88004 0.6,1.76009 z"
         style="font-weight:normal;font-size:122.827px;line-height:1.25;font-family:'Feast of Flesh BB';-inkscape-font-specification:'Feast of Flesh BB';fill:url(#linearGradient1013);fill-opacity:1;stroke:#010000;stroke-width:1.25;stroke-miterlimit:4;stroke-dasharray:none;stroke-opacity:1"
         id="path33362" />
      <path
         d="m 456.15192,135.82899 q -0.60024,3.02848 -0.60024,5.69356 l -1.92075,-0.84799 v 1.93823 l -0.96038,-1.45367 -6.72264,-0.72683 2.88113,2.54392 3.24127,1.09026 0.84034,0.72683 h 0.72028 l 0.24009,3.14962 q -0.48019,-0.24227 -0.84033,-0.24227 -0.36014,0 -1.32051,0.48456 -0.72029,0.24227 -1.68066,-0.12115 l 3.48137,4.96672 q -9.72383,-3.87646 -18.48727,-8.96431 -10.80424,-5.45127 -19.56769,-11.87166 -0.24009,8.23748 0.36015,13.93102 -1.20047,0.48456 -3.48137,1.57482 l -0.12004,-0.12114 0.96037,-2.18051 -2.64104,-5.81469 -0.72028,3.51304 0.60024,2.42279 -1.44057,-1.45367 q -0.12005,0.12114 -3.96155,6.54153 l -1.68067,-1.33254 q -1.44057,1.21139 -2.52098,2.05937 -4.68184,-40.09713 -5.28208,-62.386759 l -1.20047,0.605696 -4.20165,-0.605696 -3.36133,3.149622 q -0.96037,-2.180508 -1.32051,-3.51304 0.12004,0 4.0816,-2.180508 l -2.16085,-1.574812 1.56062,-0.847975 h 1.08042 l 1.32052,-1.938229 -3.84151,-0.363418 -1.56061,1.211393 -0.48019,-1.695951 q 1.32051,-2.301647 1.92075,-3.876458 l -4.20165,0.726836 v -1.93823 q 0.60024,-0.363417 2.64104,-1.817089 21.00825,-15.505836 41.89646,-15.505836 10.68419,0 17.52688,4.845573 7.68302,5.45127 7.68302,15.748114 0,21.683947 -26.29033,39.249147 15.84622,10.78139 29.5316,17.20178 z M 432.14249,89.06921 q 0,-8.358614 -11.40448,-8.358614 -1.20047,0 -2.64103,0.121139 -1.92077,15.748113 -1.92077,24.954695 15.96628,-9.206582 15.96628,-16.71722 z m -33.6132,-12.961909 -3.12123,-0.363417 -3.48136,3.028483 2.76107,-0.12114 1.92077,-1.211393 h 0.84032 z m 46.45824,61.296509 -1.68065,-2.05938 -4.32171,-0.72683 1.80071,1.69595 2.2809,0.6057 0.36014,0.72683 z m -37.33466,-0.6057 -1.92075,-4.23988 -0.48019,2.7862 0.48019,2.05938 -0.12005,0.72683 0.96037,1.45367 z"
         style="font-weight:normal;font-size:120.592px;line-height:1.25;font-family:'Feast of Flesh BB';-inkscape-font-specification:'Feast of Flesh BB';fill:url(#linearGradient1015);fill-opacity:1;stroke:#010000;stroke-width:1.25;stroke-miterlimit:4;stroke-dasharray:none;stroke-opacity:1"
         id="path33359" />
      <path
         d="m 505.22482,79.347537 q -24.72969,14.1331 -24.72969,23.440263 0,3.33219 6.00235,5.97497 9.12358,4.13652 11.16438,5.63026 6.00235,4.48123 6.00235,12.17975 0,7.69852 -7.80306,16.89078 -5.64221,7.12399 -14.16555,13.44368 -0.48019,-0.22981 -0.48019,-1.03414 0,-0.45961 0.36014,-1.60865 0.48019,-1.14903 0.48019,-1.60863 0,-0.80433 -4.0816,-0.80433 -1.56061,0 -2.28089,0.22981 l 5.04197,-5.05575 q -4.32169,0.57452 -7.08277,3.562 l -0.96038,0.22981 -0.84033,0.91923 -2.88112,-1.14904 q 15.36601,-10.34129 15.36601,-16.08645 0,-3.6769 -8.64338,-7.58361 -13.68537,-6.08988 -15.96626,-7.58362 -8.52334,-5.40045 -8.52334,-13.09897 0,-13.213876 16.08631,-28.036396 12.84503,-11.835036 28.45115,-18.844134 0.48018,1.263936 1.92075,2.872581 1.8007,2.183162 2.16084,2.757678 l -1.8007,0.34471 -2.88113,2.183162 -0.84033,0.114903 -1.68066,2.757678 3.48137,0.34471 3.96155,-4.825937 q 0,0.804323 -1.08043,4.825937 l 3.96156,2.872582 h -0.12005 l -2.16085,1.723549 -0.72028,0.114903 -1.20047,1.723549 2.52099,0.229806 2.52098,-2.527871 0.60024,0.689419 z m -10.08395,-5.860067 -2.16085,0.34471 -1.8007,1.608646 h -0.60024 l -0.96037,1.723549 2.28089,0.114903 z m -6.12241,70.09098 -2.76108,0.91923 -2.0408,1.49374 -0.60023,0.34471 -1.20047,1.37885 2.64103,-0.22981 z"
         style="font-weight:normal;font-size:117.447px;line-height:1.25;font-family:'Feast of Flesh BB';-inkscape-font-specification:'Feast of Flesh BB';fill:url(#linearGradient1017);fill-opacity:1;stroke:#010000;stroke-width:1.25;stroke-miterlimit:4;stroke-dasharray:none;stroke-opacity:1"
         id="path33356" />
    </g>
    <path
       d="m 88.92872,107.58858 q -0.746669,6.72001 -0.746669,9.89335 -1.86667,0.56 -2.986672,0.56 0.746668,1.12 2.613338,3.17334 -0.560001,1.30667 -1.680003,4.10668 -3.73334,0.37333 -10.826686,1.30667 v 5.78667 q 0,2.24001 -0.560001,6.34668 -0.373334,4.10667 -0.373334,6.16001 0,5.04001 0.933335,17.36003 -2.800005,1.30667 -5.040009,2.24001 l -1.86667,-2.42667 1.306669,-3.17334 -0.373334,-5.04001 0.746668,-1.49334 -1.493336,-3.36 -3.360006,5.22667 1.120002,5.60001 -1.493336,-2.05333 q -1.866671,3.36 -6.160012,9.89335 l -2.800005,-2.24001 q -2.240004,2.05334 -3.546673,2.80001 -1.86667,-13.81336 -3.73334,-36.40007 -4.293341,0.37334 -38.8267376,13.25336 l 1.4933356,-7.84002 q 0.746668,-0.74666 2.426672,-2.05333 -0.933336,-1.30667 -1.30667,-2.61334 l -2.240004,-1.12 q 0.933335,-1.49334 2.053337,-3.92001 l -0.933335,-1.68 q -2.9866717,0.37333 -4.6666748,0.74667 -0.186667,-0.93334 -1.493336,-2.80001 l 2.4266711,-4.66668 1.306669,-0.93333 0.186667,-3.73334 -5.4133432,3.17334 -0.746668,2.8 q -1.6800031,-2.42667 -2.98667213,-4.48 -0.93333507,-0.56001 -4.48000817,-2.61334 4.10667415,-9.33335 19.9733702,-36.96007 7.093346,-12.320022 22.213373,-36.026732 0.933336,1.86667 2.240005,5.60001 1.493336,-1.120002 3.920007,-4.106674 v -2.800005 q 3.920007,-1.306669 7.280013,-1.680003 l 2.053337,9.893351 2.240004,-5.413343 -0.186667,-4.853342 0.746668,-1.493336 -0.560001,-1.120002 4.853342,-2.240005 q 0,0.186667 2.426671,6.160012 2.240005,-2.986672 5.413344,-6.533346 0.933335,-0.186667 8.026681,-2.800005 0,1.306669 -0.186667,3.920007 0,2.800006 0,4.293342 1.306669,-0.186667 5.226676,-1.493336 -5.413343,52.453429 -5.413343,68.880127 2.986672,-0.37334 8.773349,-1.49334 -0.746668,1.68001 -1.680003,5.04001 1.120002,0 6.160012,-0.56 z m -27.626718,-60.106776 -1.306669,-2.426671 -2.240004,3.73334 1.680003,7.093346 Q 60.182,54.57515 60.555334,51.401811 60.928668,48.228472 61.302002,47.481804 Z M 46.741976,111.50859 q -0.746668,-8.58668 -1.680003,-25.386715 -9.146684,13.06669 -17.920033,31.546725 10.453352,-3.73334 19.600036,-6.16001 z m 19.600036,25.76004 -0.933335,-1.86667 -1.680003,2.80001 1.120002,5.78668 1.120002,-2.98668 -0.186667,-2.98667 z m -3.920008,8.58669 -1.120002,-2.42667 -2.426671,3.92 1.493336,7.09335 1.680003,-3.73334 -0.186667,-3.92001 z m -49.653424,-43.30675 -4.1066737,2.05334 -2.2400041,7.09334 3.3600062,-2.61333 1.6800026,-3.36001 1.120002,-0.56 z"
       style="font-weight:normal;font-size:186.667px;line-height:1.25;font-family:'Feast of Flesh BB';-inkscape-font-specification:'Feast of Flesh BB';fill:url(#linearGradient894);stroke:#010000;stroke-width:1.25;filter:url(#filter184928)"
       id="path873"
       inkscape:label="4" />
  </g>
</svg>
