<?xml version="1.0" encoding="UTF-8" standalone="no"?>
<!-- Generator: Adobe Illustrator 13.0.0, SVG Export Plug-In . SVG Version: 6.00 Build 14948)  -->

<svg
   version="1.1"
   id="Ebene_1"
   x="0px"
   y="0px"
   width="798.33002"
   height="156.56635"
   viewBox="0 0 558.83101 109.59644"
   enable-background="new 0 0 566.929 129.21"
   xml:space="preserve"
   sodipodi:docname="auto-verticalarcade-de.svg"
   inkscape:version="1.1.2 (0a00cf5339, 2022-02-04)"
   xmlns:inkscape="http://www.inkscape.org/namespaces/inkscape"
   xmlns:sodipodi="http://sodipodi.sourceforge.net/DTD/sodipodi-0.dtd"
   xmlns="http://www.w3.org/2000/svg"
   xmlns:svg="http://www.w3.org/2000/svg"
   xmlns:rdf="http://www.w3.org/1999/02/22-rdf-syntax-ns#"
   xmlns:cc="http://creativecommons.org/ns#"
   xmlns:dc="http://purl.org/dc/elements/1.1/"><metadata
   id="metadata36"><rdf:RDF><cc:Work
       rdf:about=""><dc:format>image/svg+xml</dc:format><dc:type
         rdf:resource="http://purl.org/dc/dcmitype/StillImage" /></cc:Work></rdf:RDF></metadata><defs
   id="defs34" /><sodipodi:namedview
   pagecolor="#ffffff"
   bordercolor="#666666"
   borderopacity="1"
   objecttolerance="10"
   gridtolerance="10"
   guidetolerance="10"
   inkscape:pageopacity="0"
   inkscape:pageshadow="2"
   inkscape:window-width="1366"
   inkscape:window-height="708"
   id="namedview32"
   showgrid="false"
   inkscape:zoom="3.562169"
   inkscape:cx="489.58935"
   inkscape:cy="122.95879"
   inkscape:current-layer="g27618"
   inkscape:pagecheckerboard="1"
   inkscape:window-x="0"
   inkscape:window-y="0"
   inkscape:window-maximized="1"
   scale-x="0.7"
   fit-margin-top="0"
   fit-margin-left="0"
   fit-margin-right="0"
   fit-margin-bottom="0"
   showguides="true"
   inkscape:guide-bbox="true"
   inkscape:snap-global="false"><sodipodi:guide
     position="404.07588,45.95588"
     orientation="1,0"
     id="guide24689" /><sodipodi:guide
     position="422.88841,15.468399"
     orientation="1,0"
     id="guide846" /></sodipodi:namedview>
<g
   id="Ebene_2"
   style="display:inline"
   transform="translate(-1.9999818,-9.4194527)">
</g>
<g
   id="g15"
   transform="translate(-2.794,-20.505799)"
   style="display:inline"
   inkscape:label="Arcade Background">
	<path
   d="M 2.794,113.106 55.462,21.59 c 6.676,11.93 14.773,27.044 24.295,45.341 l 23.829,45.896 z M 55.458,27.549 M 7.606,110.324 M 57.964,77.501 c 0.186,1.484 -0.062,2.813 -0.742,3.986 -0.804,1.362 -1.947,2.04 -3.431,2.04 -1.854,0 -3.277,-0.987 -4.265,-2.967 -0.185,-1.174 -0.092,-2.317 0.278,-3.431 0.494,-1.359 1.328,-2.193 2.503,-2.504 0.371,-0.061 0.742,-0.093 1.113,-0.093 1.916,0.002 3.431,0.992 4.544,2.969 z"
   id="path3"
   inkscape:connector-curvature="0"
   style="fill:#f4b20c" />
	<path
   d="m 192.707,111.79 c -14.467,0.252 -28.935,0.473 -43.403,0.663 -17.313,0.25 -31.935,0.313 -43.867,0.189 V 20.755 c 3.461,0.434 14.372,0.371 32.731,-0.185 14.464,-0.371 25.374,0.866 32.73,3.709 10.508,4.019 17.214,11.869 20.121,23.552 0.06,0.804 0.093,1.639 0.093,2.505 0,8.593 -4.142,16.104 -12.426,22.533 -2.227,1.731 -5.101,3.153 -8.625,4.265 -3.091,0.867 -6.184,1.701 -9.273,2.504 z M 154.301,48.943 c 0.123,0.433 0.186,0.897 0.186,1.391 0,1.36 -0.434,2.488 -1.298,3.384 -0.866,0.896 -1.947,1.344 -3.245,1.344 -1.855,0 -3.308,-0.987 -4.358,-2.966 -0.433,-2.782 0.371,-4.759 2.411,-5.934 0.557,-0.247 1.113,-0.371 1.669,-0.371 2.347,0 3.893,1.051 4.635,3.152 z m 21.124,56.298 c -4.508,0.061 -11.148,-0.126 -19.919,-0.561 v -0.842 c 1.73,-0.249 4.326,-0.344 7.789,-0.279 3.461,0.061 6.057,-0.064 7.788,-0.373 l -15.577,-15.949 1.945,0.003 z m 7.619,-52.681 c -0.185,3.029 -1.298,5.98 -3.337,8.854 -2.041,2.875 -4.513,4.96 -7.418,6.259 l -8.344,3.709 v -2.041 c 11.126,-3.584 17.091,-9.18 17.895,-16.782 h 1.204 z"
   id="path5"
   inkscape:connector-curvature="0"
   style="fill:#f4b20c" />
	<path
   d="m 280.586,82.507 c -3.029,8.655 -8.576,15.732 -16.643,21.234 -8.066,5.5 -16.675,8.22 -25.823,8.158 -8.284,0 -16.01,-2.21 -23.181,-6.629 -7.171,-4.42 -12.765,-10.4 -16.783,-17.941 -3.152,-5.935 -4.729,-12.825 -4.729,-20.677 0,-7.356 1.421,-13.783 4.266,-19.286 4.017,-7.913 9.689,-14.141 17.014,-18.684 7.326,-4.544 15.314,-6.815 23.969,-6.815 2.472,0 4.945,0.186 7.418,0.556 6.675,1.052 12.918,3.679 18.729,7.88 6.058,4.39 10.538,9.676 13.444,15.856 -7.85,4.761 -19.626,11.868 -35.326,21.326 13.6,5.999 26.149,11.006 37.645,15.022 z M 267.05,87.33 c 0,1.608 -1.02,3.37 -3.06,5.285 -1.608,1.483 -3.462,2.75 -5.563,3.802 l -0.835,-0.649 c 1.298,-1.051 2.596,-2.133 3.895,-3.245 1.607,-1.359 2.688,-2.72 3.245,-4.08 -2.906,-1.421 -6.894,-3.09 -11.961,-5.007 -6.119,-2.348 -10.168,-3.955 -12.146,-4.82 V 77.13 Z"
   id="path7"
   inkscape:connector-curvature="0"
   style="fill:#f4b20c" />
	<path
   d="M 267.049,113.106 319.716,21.59 c 6.676,11.93 14.773,27.044 24.295,45.341 l 23.829,45.896 z m 55.17,-35.605 c 0.185,1.484 -0.063,2.813 -0.742,3.986 -0.805,1.362 -1.947,2.04 -3.432,2.04 -1.854,0 -3.276,-0.987 -4.266,-2.967 -0.186,-1.174 -0.093,-2.317 0.278,-3.431 0.494,-1.359 1.329,-2.193 2.504,-2.504 0.371,-0.061 0.742,-0.093 1.112,-0.093 1.917,0.002 3.433,0.992 4.546,2.969 z m 33.195,28.188 -19.01,0.371 v -1.206 l 15.857,-0.463 c -0.682,-2.226 -2.195,-5.472 -4.545,-9.736 -2.473,-4.512 -4.079,-7.882 -4.821,-10.106 l 1.112,-0.649 z"
   id="path9"
   inkscape:connector-curvature="0"
   style="fill:#f4b20c" />
	<path
   d="m 462.414,89.046 c -4.636,9.501 -11.623,16.133 -20.955,19.896 -7.109,2.837 -16.69,4.256 -28.745,4.256 -3.276,0 -8.283,-0.125 -15.02,-0.371 -6.738,-0.247 -11.746,-0.371 -15.022,-0.371 -5.067,0 -9.518,0.247 -13.351,0.742 l 0.278,-92.443 c 3.709,0.371 7.941,0.557 12.701,0.557 3.276,0 8.314,-0.093 15.115,-0.278 6.799,-0.186 11.869,-0.278 15.205,-0.278 10.323,0 18.762,1.111 25.313,3.331 8.406,2.838 15.083,7.834 20.028,14.992 6.306,7.094 9.457,16.317 9.457,27.667 10e-4,8.082 -1.667,15.516 -5.004,22.3 z M 424.768,77.13 c 0.124,0.434 0.186,0.896 0.186,1.392 0,1.112 -0.356,2.117 -1.066,3.013 -0.711,0.896 -1.622,1.407 -2.735,1.529 -2.597,-0.492 -4.204,-1.451 -4.821,-2.873 -0.063,-0.433 -0.093,-0.834 -0.093,-1.205 0,-2.164 0.988,-3.74 2.967,-4.73 0.371,-0.061 0.742,-0.092 1.113,-0.092 1.853,0 3.337,0.989 4.449,2.966 z m 35.699,-9.087 c -0.928,7.543 -3.093,14.157 -6.491,19.842 -3.957,6.677 -9.212,11.282 -15.764,13.816 -3.648,1.421 -6.338,2.379 -8.065,2.874 -3.029,0.866 -5.874,1.328 -8.531,1.392 l -0.464,-1.113 c 14.525,-2.535 24.603,-7.82 30.228,-15.855 3.832,-5.501 6.306,-12.485 7.418,-20.955 h 1.669 z"
   id="path11"
   inkscape:connector-curvature="0"
   style="fill:#f4b20c" />
	<path
   d="m 561.625,63.129 h -50.44 c -0.557,1.498 -0.835,3.246 -0.835,5.241 0,1.997 0.278,3.68 0.835,5.053 h 17.895 v 11.589 l -17.895,0.835 v 9.087 l 50.162,0.371 v 17.802 H 471.685 V 20.755 h 89.662 z m -44.785,-33.566 -36.439,0.278 -0.278,30.228 h -1.297 V 27.895 c 8.529,-0.122 21.2,0.033 38.015,0.464 v 1.204 z"
   id="path13"
   inkscape:connector-curvature="0"
   style="fill:#f4b20c" />
</g>
<g
   id="g29"
   transform="translate(-2.794,-20.505799)"
   style="display:inline"
   inkscape:label="Arcade Outline">
	<path
   d="M 2.794,113.106 55.462,21.59 c 6.676,11.93 14.773,27.044 24.295,45.341 l 23.829,45.896 z M 98.812,110.138 55.458,27.549 7.606,110.324 Z M 57.964,77.501 c 0.186,1.484 -0.062,2.813 -0.742,3.986 -0.804,1.362 -1.947,2.04 -3.431,2.04 -1.854,0 -3.277,-0.987 -4.265,-2.967 -0.185,-1.174 -0.092,-2.317 0.278,-3.431 0.494,-1.359 1.328,-2.193 2.503,-2.504 0.371,-0.061 0.742,-0.093 1.113,-0.093 1.916,0.002 3.431,0.992 4.544,2.969 z m 33.195,28.188 -19.009,0.371 v -1.206 l 15.855,-0.463 C 87.324,102.165 85.81,98.919 83.462,94.655 80.989,90.143 79.382,86.773 78.64,84.549 L 79.753,83.9 Z"
   id="path17"
   inkscape:connector-curvature="0" />
	<path
   d="m 192.707,111.79 c -14.467,0.252 -28.935,0.473 -43.403,0.663 -17.313,0.25 -31.935,0.313 -43.867,0.189 V 20.755 c 3.461,0.434 14.372,0.371 32.731,-0.185 14.464,-0.371 25.374,0.866 32.73,3.709 10.508,4.019 17.214,11.869 20.121,23.552 0.06,0.804 0.093,1.639 0.093,2.505 0,8.593 -4.142,16.104 -12.426,22.533 -2.227,1.731 -5.101,3.153 -8.625,4.265 -3.091,0.867 -6.184,1.701 -9.273,2.504 z m -4.562,-63.988 c -2.536,-9.446 -7.728,-16.053 -15.578,-19.819 -6.059,-2.839 -14.557,-4.26 -25.499,-4.26 -3.029,0 -7.603,0.138 -13.723,0.417 -6.12,0.279 -10.632,0.418 -13.538,0.418 -4.45,0 -8.314,-0.216 -11.59,-0.649 v 85.581 h 77.979 L 156.87,79.94 c -0.354,-0.432 -0.529,-0.957 -0.529,-1.575 -0.062,-0.803 0.217,-1.327 0.835,-1.573 6.551,0 12.888,-2.007 19.008,-6.022 8.529,-5.493 12.517,-13.151 11.961,-22.968 z m -33.844,1.141 c 0.123,0.433 0.186,0.897 0.186,1.391 0,1.36 -0.434,2.488 -1.298,3.384 -0.866,0.896 -1.947,1.344 -3.245,1.344 -1.855,0 -3.308,-0.987 -4.358,-2.966 -0.433,-2.782 0.371,-4.759 2.411,-5.934 0.557,-0.247 1.113,-0.371 1.669,-0.371 2.347,0 3.893,1.051 4.635,3.152 z m 21.124,56.298 c -4.508,0.061 -11.148,-0.126 -19.919,-0.561 v -0.842 c 1.73,-0.249 4.326,-0.344 7.789,-0.279 3.461,0.061 6.057,-0.064 7.788,-0.373 l -15.577,-15.949 1.945,0.003 z m 7.619,-52.681 c -0.185,3.029 -1.298,5.98 -3.337,8.854 -2.041,2.875 -4.513,4.96 -7.418,6.259 l -8.344,3.709 v -2.041 c 11.126,-3.584 17.091,-9.18 17.895,-16.782 h 1.204 z"
   id="path19"
   inkscape:connector-curvature="0" />
	<path
   d="m 280.586,82.507 c -3.029,8.655 -8.576,15.732 -16.643,21.234 -8.066,5.5 -16.675,8.22 -25.823,8.158 -8.284,0 -16.01,-2.21 -23.181,-6.629 -7.171,-4.42 -12.765,-10.4 -16.783,-17.941 -3.152,-5.935 -4.729,-12.825 -4.729,-20.677 0,-7.356 1.421,-13.783 4.266,-19.286 4.017,-7.913 9.689,-14.141 17.014,-18.684 7.326,-4.544 15.314,-6.815 23.969,-6.815 2.472,0 4.945,0.186 7.418,0.556 6.675,1.052 12.918,3.679 18.729,7.88 6.058,4.39 10.538,9.676 13.444,15.856 -7.85,4.761 -19.626,11.868 -35.326,21.326 13.6,5.999 26.149,11.006 37.645,15.022 z m -4.855,1.756 C 261.397,78.859 248.36,73.453 236.623,68.05 c 4.824,-2.779 11.164,-6.61 19.021,-11.493 9.401,-5.931 15.618,-9.824 18.649,-11.679 -2.906,-5.319 -7.11,-9.742 -12.612,-13.269 -5.008,-3.217 -10.604,-5.413 -16.785,-6.59 -1.669,-0.122 -3.308,-0.185 -4.915,-0.185 -8.161,0 -15.58,1.793 -22.256,5.377 -7.048,3.834 -12.521,9.273 -16.415,16.32 -3.337,5.997 -5.006,12.765 -5.006,20.306 0,10.262 2.873,18.792 8.618,25.591 4.388,5.193 9.5,9.256 15.339,12.193 5.838,2.936 11.94,4.404 18.306,4.404 4.448,0 8.804,-0.74 13.067,-2.219 5.623,-1.908 10.628,-4.773 15.015,-8.593 5.004,-4.309 8.029,-8.961 9.082,-13.95 z m -8.681,3.067 c 0,1.608 -1.02,3.37 -3.06,5.285 -1.608,1.483 -3.462,2.75 -5.563,3.802 l -0.835,-0.649 c 1.298,-1.051 2.596,-2.133 3.895,-3.245 1.607,-1.359 2.688,-2.72 3.245,-4.08 -2.906,-1.421 -6.894,-3.09 -11.961,-5.007 -6.119,-2.348 -10.168,-3.955 -12.146,-4.82 V 77.13 Z"
   id="path21"
   inkscape:connector-curvature="0" />
	<path
   d="M 267.049,113.106 319.716,21.59 c 6.676,11.93 14.773,27.044 24.295,45.341 l 23.829,45.896 z m 96.018,-2.968 -43.355,-82.589 -47.852,82.775 z M 322.219,77.501 c 0.185,1.484 -0.063,2.813 -0.742,3.986 -0.805,1.362 -1.947,2.04 -3.432,2.04 -1.854,0 -3.276,-0.987 -4.266,-2.967 -0.186,-1.174 -0.093,-2.317 0.278,-3.431 0.494,-1.359 1.329,-2.193 2.504,-2.504 0.371,-0.061 0.742,-0.093 1.112,-0.093 1.917,0.002 3.433,0.992 4.546,2.969 z m 33.195,28.188 -19.01,0.371 v -1.206 l 15.857,-0.463 c -0.682,-2.226 -2.195,-5.472 -4.545,-9.736 -2.473,-4.512 -4.079,-7.882 -4.821,-10.106 l 1.112,-0.649 z"
   id="path23"
   inkscape:connector-curvature="0" />
	<path
   d="m 462.414,89.046 c -4.636,9.501 -11.623,16.133 -20.955,19.896 -7.109,2.837 -16.69,4.256 -28.745,4.256 -3.276,0 -8.283,-0.125 -15.02,-0.371 -6.738,-0.247 -11.746,-0.371 -15.022,-0.371 -5.067,0 -9.518,0.247 -13.351,0.742 l 0.278,-92.443 c 5.184,0.078 8.987,0.264 13.748,0.264 3.275,0 7.342,-0.016 14.429,0 6.801,0.014 11.509,-0.264 14.845,-0.264 10.323,0 18.762,1.111 25.313,3.331 8.406,2.838 15.083,7.834 20.028,14.992 6.306,7.094 9.457,16.317 9.457,27.667 0,8.083 -1.668,15.517 -5.005,22.301 z m 0.835,-34.141 c -2.165,-7.463 -6.538,-14.048 -13.12,-19.753 -6.584,-5.705 -13.709,-9.238 -21.373,-10.595 l -17.76,-0.747 -38.894,0.098 v 86.415 c 3.214,-0.37 6.862,-0.556 10.94,-0.556 3.462,0 8.747,0.186 15.856,0.556 7.107,0.371 12.425,0.557 15.948,0.557 16.504,0 28.682,-3.978 36.532,-11.935 9.088,-9.313 13.631,-19.954 13.631,-31.921 10e-4,-4.07 -0.588,-8.109 -1.76,-12.119 z M 424.768,77.13 c 0.124,0.434 0.186,0.896 0.186,1.392 0,1.112 -0.356,2.117 -1.066,3.013 -0.711,0.896 -1.622,1.407 -2.735,1.529 -2.597,-0.492 -4.204,-1.451 -4.821,-2.873 -0.063,-0.433 -0.093,-0.834 -0.093,-1.205 0,-2.164 0.988,-3.74 2.967,-4.73 0.371,-0.061 0.742,-0.092 1.113,-0.092 1.853,0 3.337,0.989 4.449,2.966 z m 35.699,-9.087 c -0.928,7.543 -3.093,14.157 -6.491,19.842 -3.957,6.677 -9.212,11.282 -15.764,13.816 -3.648,1.421 -6.338,2.379 -8.065,2.874 -3.029,0.866 -5.874,1.328 -8.531,1.392 l -0.464,-1.113 c 14.525,-2.535 24.603,-7.82 30.228,-15.855 3.832,-5.501 6.306,-12.485 7.418,-20.955 h 1.669 z"
   id="path25"
   inkscape:connector-curvature="0" />
	<path
   d="m 561.625,63.129 h -50.44 c -0.557,1.498 -0.835,3.246 -0.835,5.241 0,1.997 0.278,3.68 0.835,5.053 h 17.895 v 11.589 l -17.895,0.835 v 9.087 l 50.162,0.371 v 17.802 H 471.685 V 20.755 h 89.662 z m -2.874,47.288 V 98.365 h -49.514 c -0.927,-3.339 -1.053,-8.624 -0.37,-15.857 h 17.616 v -6.211 h -17.891 c -0.435,-1.359 -0.714,-2.967 -0.839,-4.822 -0.126,-1.174 -0.154,-2.875 -0.093,-5.1 0.061,-2.472 0.093,-4.172 0.093,-5.1 l 0.835,-0.835 H 558.75 V 23.909 h -84.471 v 86.508 z m -41.911,-80.854 -36.439,0.278 -0.278,30.228 h -1.297 V 27.895 c 8.529,-0.122 21.2,0.033 38.015,0.464 v 1.204 z"
   id="path27"
   inkscape:connector-curvature="0" />
</g>
<g
   id="g46250"
   inkscape:label="German"
   style="display:inline"
   transform="translate(-1.9999818,-9.4194527)"><g
     id="g27618"
     transform="translate(56.111012,-1.4)"
     style="fill:#ff0000;fill-opacity:1;stroke:#000004;stroke-opacity:1"
     inkscape:label="Virtuelle"><g
       aria-label="VERTIKALE"
       transform="matrix(1.0274547,0,0,0.97327891,3.3897886,0)"
       id="text24687"
       style="font-weight:bold;font-size:46.6667px;line-height:1.25;font-family:College;-inkscape-font-specification:'College Bold';letter-spacing:-2.45px;display:inline;stroke-width:1.35;stop-color:#000000"><path
         d="m 118.33787,90.631334 h 12.30469 v 6.380213 h -2.73438 l 3.19011,12.760423 3.19011,-12.760423 h -2.73438 v -6.380213 h 12.3047 v 6.380213 h -3.19011 L 134.2884,122.5324 h -6.38022 l -6.38021,-25.520853 h -3.1901 z"
         id="path7891" /><path
         d="m 145.41166,122.5324 v -6.38022 h 3.19011 V 97.011547 h -3.19011 v -6.380213 h 22.33074 v 9.570316 h -6.38021 v -3.190103 h -6.38021 v 6.380213 h 6.38021 v 6.38021 h -6.38021 v 6.38021 h 6.38021 v -3.1901 h 6.38021 v 9.57032 z"
         id="path7893" /><path
         d="m 169.50529,122.5324 v -6.38022 h 3.19011 V 97.011547 h -3.19011 v -6.380213 h 17.22657 l 5.10417,5.10417 v 8.932296 l -1.91406,1.91406 1.91406,1.91407 v 7.65625 h 3.19011 v 6.38022 h -12.3047 v -6.38022 h 2.73438 v -6.38021 h -6.38021 v 6.38021 h 2.73438 v 6.38022 z m 9.57032,-19.14064 h 6.38021 v -6.380213 h -6.38021 z"
         id="path7895" /><path
         d="m 200.78847,122.5324 v -6.38022 h 3.1901 V 97.011547 h -3.1901 v 3.190103 h -6.38022 v -9.570316 h 25.52085 v 9.570316 h -6.38021 v -3.190103 h -3.1901 v 19.140633 h 3.1901 v 6.38022 z"
         id="path7897" /><path
         d="m 221.75997,122.5324 v -6.38022 h 3.19011 V 97.011547 h -3.19011 v -6.380213 h 12.3047 v 6.380213 h -2.73438 v 19.140633 h 2.73438 v 6.38022 z"
         id="path7899" /><path
         d="m 235.76554,122.30447 v -6.38022 h 3.19011 V 96.783616 h -3.19011 v -6.380213 h 12.3047 v 6.380213 h -2.73438 v 8.476564 l 6.38021,-8.476564 h -2.73437 v -6.380213 h 12.30469 v 6.380213 h -2.55208 l -7.38282,9.479174 7.38282,9.66146 h 2.55208 v 6.38022 H 248.9817 v -6.38022 h 2.36979 l -4.10157,-5.28646 -1.91406,2.55209 v 2.73437 h 2.73438 v 6.38022 z"
         id="path7901" /><path
         d="m 262.48223,122.30447 v -6.38022 h 3.19011 l 6.38021,-25.520847 h 6.38021 l 6.38022,25.520847 h 3.1901 v 6.38022 h -12.30469 v -6.38022 h 2.73437 l -0.79752,-3.1901 h -4.78516 l -0.79753,3.1901 h 2.73438 v 6.38022 z m 12.76043,-19.14064 -0.79753,3.1901 h 1.59505 z"
         id="path7903" /><path
         d="m 289.75028,122.30447 v -6.38022 h 3.1901 V 96.783616 h -3.1901 v -6.380213 h 12.76042 v 6.380213 h -3.19011 v 19.140634 h 6.38022 v -3.1901 h 6.38021 v 9.57032 z"
         id="path7905" /><path
         d="m 313.97987,122.30447 v -6.38022 h 3.19011 V 96.783616 h -3.19011 v -6.380213 h 22.33074 v 9.570319 h -6.38021 v -3.190106 h -6.38021 v 6.380214 h 6.38021 v 6.38021 h -6.38021 v 6.38021 h 6.38021 v -3.1901 h 6.38021 v 9.57032 z"
         id="path7907" /></g></g><g
     id="g46134"
     transform="translate(-98.888988,-1.4)"
     style="fill:#ff0000;fill-opacity:1;stroke:#000004;stroke-opacity:1"
     inkscape:label="Spiele"><g
       aria-label="SPIELE"
       transform="scale(1.0274547,0.97327891)"
       id="text32557"
       style="font-weight:bold;font-size:46.6667px;line-height:1.25;font-family:College;-inkscape-font-specification:'College Bold';letter-spacing:-2.45px;display:inline;stroke-width:1.35;stop-color:#000000"><path
         d="m 509.18059,112.73415 h 6.38022 v 3.1901 h 6.38021 v -6.38021 h -7.65626 l -5.10417,-5.10417 v -8.932297 l 5.10417,-5.10417 h 8.9323 l 5.10417,5.10417 v 4.466149 h -6.38021 v -3.190106 h -6.38021 v 6.380214 h 7.56511 l 5.19531,5.10417 v 8.9323 l -5.10417,5.10417 h -8.9323 l -5.10417,-5.10417 z"
         id="path7928" /><path
         d="m 530.42853,122.30447 v -6.38022 h 3.1901 V 96.783616 h -3.1901 v -6.380213 h 17.22657 l 5.10417,5.10417 v 8.932297 l -5.10417,5.10417 h -7.65625 v 6.38021 h 3.1901 v 6.38022 z m 9.57032,-19.14064 h 6.38021 v -6.380214 h -6.38021 z"
         id="path7930" /><path
         d="m 554.86656,122.30447 v -6.38022 h 3.19011 V 96.783616 h -3.19011 v -6.380213 h 12.3047 v 6.380213 h -2.73438 v 19.140634 h 2.73438 v 6.38022 z"
         id="path7932" /><path
         d="m 569.27856,122.30447 v -6.38022 h 3.1901 V 96.783616 h -3.1901 v -6.380213 h 22.33074 v 9.570319 h -6.38021 v -3.190106 h -6.38022 v 6.380214 h 6.38022 v 6.38021 h -6.38022 v 6.38021 h 6.38022 v -3.1901 h 6.38021 v 9.57032 z"
         id="path7934" /><path
         d="m 593.7166,122.30447 v -6.38022 h 3.1901 V 96.783616 h -3.1901 v -6.380213 h 12.76042 v 6.380213 h -3.1901 v 19.140634 h 6.38021 v -3.1901 h 6.38021 v 9.57032 z"
         id="path7936" /><path
         d="m 618.15463,122.30447 v -6.38022 h 3.19011 V 96.783616 h -3.19011 v -6.380213 h 22.33075 v 9.570319 h -6.38022 v -3.190106 h -6.38021 v 6.380214 h 6.38021 v 6.38021 h -6.38021 v 6.38021 h 6.38021 v -3.1901 h 6.38022 v 9.57032 z"
         id="path7938" /></g></g></g></svg>
