<?xml version="1.0" encoding="UTF-8" standalone="no"?>
<!-- Created with Inkscape (http://www.inkscape.org/) -->

<svg
   version="1.1"
   id="svg902"
   width="613.93872"
   height="166.61093"
   viewBox="0 0 552.54485 149.94984"
   sodipodi:docname="auto-at4playersfr.svg"
   inkscape:version="1.1.2 (0a00cf5339, 2022-02-04)"
   xmlns:inkscape="http://www.inkscape.org/namespaces/inkscape"
   xmlns:sodipodi="http://sodipodi.sourceforge.net/DTD/sodipodi-0.dtd"
   xmlns:xlink="http://www.w3.org/1999/xlink"
   xmlns="http://www.w3.org/2000/svg"
   xmlns:svg="http://www.w3.org/2000/svg"
   xmlns:rdf="http://www.w3.org/1999/02/22-rdf-syntax-ns#"
   xmlns:cc="http://creativecommons.org/ns#"
   xmlns:dc="http://purl.org/dc/elements/1.1/">
  <defs
     id="defs906">
    <linearGradient
       inkscape:collect="always"
       id="linearGradient161308">
      <stop
         style="stop-color:#373969;stop-opacity:1"
         offset="0"
         id="stop161304" />
      <stop
         style="stop-color:#a7bbf1;stop-opacity:1"
         offset="0.43662432"
         id="stop161408" />
      <stop
         style="stop-color:#2170cc;stop-opacity:1"
         offset="1"
         id="stop161306" />
    </linearGradient>
    <linearGradient
       inkscape:collect="always"
       id="linearGradient33518">
      <stop
         style="stop-color:#ff7a01;stop-opacity:1"
         offset="0"
         id="stop33514" />
      <stop
         style="stop-color:#fffc00;stop-opacity:1"
         offset="0.35918856"
         id="stop72058" />
      <stop
         style="stop-color:#ffff00;stop-opacity:1"
         offset="0.60327649"
         id="stop44388" />
      <stop
         style="stop-color:#ff7501;stop-opacity:1"
         offset="1"
         id="stop33516" />
    </linearGradient>
    <filter
       style="color-interpolation-filters:sRGB"
       inkscape:label="Drop Shadow"
       id="filter184916"
       x="-0.0067741848"
       y="-0.030333091"
       width="1.0208855"
       height="1.1118864">
      <feGaussianBlur
         in="SourceGraphic"
         stdDeviation="0.926303"
         result="blur"
         id="feGaussianBlur184906" />
      <feDiffuseLighting
         diffuseConstant="1"
         surfaceScale="10"
         lighting-color="#ffffff"
         result="diffuse"
         id="feDiffuseLighting184910">
        <feDistantLight
           elevation="13"
           azimuth="236"
           id="feDistantLight184908" />
      </feDiffuseLighting>
      <feComposite
         in="diffuse"
         in2="diffuse"
         operator="arithmetic"
         k1="1"
         result="composite1"
         id="feComposite184912"
         k2="0"
         k3="0"
         k4="0" />
      <feComposite
         in="composite1"
         in2="SourceGraphic"
         k1="1"
         operator="arithmetic"
         k3="1"
         result="fbSourceGraphic"
         id="feComposite184914"
         k2="0"
         k4="0" />
      <feColorMatrix
         result="fbSourceGraphicAlpha"
         in="fbSourceGraphic"
         values="0 0 0 -1 0 0 0 0 -1 0 0 0 0 -1 0 0 0 0 1 0"
         id="feColorMatrix188362" />
      <feFlood
         id="feFlood188364"
         flood-opacity="1"
         flood-color="rgb(0,0,0)"
         result="flood"
         in="fbSourceGraphic" />
      <feComposite
         in2="fbSourceGraphic"
         id="feComposite188366"
         in="flood"
         operator="in"
         result="composite1" />
      <feGaussianBlur
         id="feGaussianBlur188368"
         in="composite1"
         stdDeviation="0"
         result="blur" />
      <feOffset
         id="feOffset188370"
         dx="3"
         dy="5"
         result="offset" />
      <feComposite
         in2="offset"
         id="feComposite188372"
         in="fbSourceGraphic"
         operator="over"
         result="composite2" />
    </filter>
    <filter
       style="color-interpolation-filters:sRGB"
       inkscape:label="Drop Shadow"
       id="filter184928"
       x="-0.052764859"
       y="-0.029305886"
       width="1.183736"
       height="1.1310055">
      <feGaussianBlur
         in="SourceGraphic"
         stdDeviation="0.926303"
         result="blur"
         id="feGaussianBlur184918" />
      <feDiffuseLighting
         diffuseConstant="1"
         surfaceScale="10"
         lighting-color="#ffffff"
         result="diffuse"
         id="feDiffuseLighting184922">
        <feDistantLight
           elevation="13"
           azimuth="236"
           id="feDistantLight184920" />
      </feDiffuseLighting>
      <feComposite
         in="diffuse"
         in2="diffuse"
         operator="arithmetic"
         k1="1"
         result="composite1"
         id="feComposite184924"
         k2="0"
         k3="0"
         k4="0" />
      <feComposite
         in="composite1"
         in2="SourceGraphic"
         k1="1"
         operator="arithmetic"
         k3="1"
         result="fbSourceGraphic"
         id="feComposite184926"
         k2="0"
         k4="0" />
      <feColorMatrix
         result="fbSourceGraphicAlpha"
         in="fbSourceGraphic"
         values="0 0 0 -1 0 0 0 0 -1 0 0 0 0 -1 0 0 0 0 1 0"
         id="feColorMatrix188374" />
      <feFlood
         id="feFlood188376"
         flood-opacity="1"
         flood-color="rgb(0,0,0)"
         result="flood"
         in="fbSourceGraphic" />
      <feComposite
         in2="fbSourceGraphic"
         id="feComposite188378"
         in="flood"
         operator="in"
         result="composite1" />
      <feGaussianBlur
         id="feGaussianBlur188380"
         in="composite1"
         stdDeviation="0"
         result="blur" />
      <feOffset
         id="feOffset188382"
         dx="3"
         dy="5"
         result="offset" />
      <feComposite
         in2="offset"
         id="feComposite188384"
         in="fbSourceGraphic"
         operator="over"
         result="fbSourceGraphic" />
      <feColorMatrix
         result="fbSourceGraphicAlpha"
         in="fbSourceGraphic"
         values="0 0 0 -1 0 0 0 0 -1 0 0 0 0 -1 0 0 0 0 1 0"
         id="feColorMatrix219082" />
      <feGaussianBlur
         id="feGaussianBlur219084"
         in="fbSourceGraphic"
         stdDeviation="0.5"
         result="blur" />
      <feDiffuseLighting
         id="feDiffuseLighting219086"
         diffuseConstant="1"
         surfaceScale="10"
         lighting-color="#ffffff"
         result="diffuse">
        <feDistantLight
           id="feDistantLight219088"
           elevation="13"
           azimuth="236" />
      </feDiffuseLighting>
      <feComposite
         in2="diffuse"
         id="feComposite219090"
         in="diffuse"
         operator="arithmetic"
         k1="1"
         result="composite1"
         k2="0"
         k3="0"
         k4="0" />
      <feComposite
         in2="fbSourceGraphic"
         id="feComposite219092"
         in="composite1"
         k1="1"
         operator="arithmetic"
         k3="1"
         result="fbSourceGraphic"
         k2="0"
         k4="0" />
      <feColorMatrix
         result="fbSourceGraphicAlpha"
         in="fbSourceGraphic"
         values="0 0 0 -1 0 0 0 0 -1 0 0 0 0 -1 0 0 0 0 1 0"
         id="feColorMatrix219136" />
      <feFlood
         id="feFlood219138"
         flood-opacity="1"
         flood-color="rgb(0,0,0)"
         result="flood"
         in="fbSourceGraphic" />
      <feComposite
         in2="fbSourceGraphic"
         id="feComposite219140"
         in="flood"
         operator="in"
         result="composite1" />
      <feGaussianBlur
         id="feGaussianBlur219142"
         in="composite1"
         stdDeviation="0"
         result="blur" />
      <feOffset
         id="feOffset219144"
         dx="3"
         dy="5"
         result="offset" />
      <feComposite
         in2="offset"
         id="feComposite219146"
         in="fbSourceGraphic"
         operator="over"
         result="composite2" />
    </filter>
    <linearGradient
       inkscape:collect="always"
       xlink:href="#linearGradient161308"
       id="linearGradient218692"
       x1="148.3185"
       y1="162.58894"
       x2="151.97664"
       y2="52.277431"
       gradientUnits="userSpaceOnUse" />
    <filter
       style="color-interpolation-filters:sRGB"
       inkscape:label="Drop Shadow"
       id="filter219104"
       x="-0.0023148248"
       y="-0.011088202"
       width="1.0104167"
       height="1.0683773">
      <feGaussianBlur
         in="SourceGraphic"
         stdDeviation="0.5"
         result="blur"
         id="feGaussianBlur219094" />
      <feDiffuseLighting
         diffuseConstant="1"
         surfaceScale="10"
         lighting-color="#ffffff"
         result="diffuse"
         id="feDiffuseLighting219098">
        <feDistantLight
           elevation="13"
           azimuth="236"
           id="feDistantLight219096" />
      </feDiffuseLighting>
      <feComposite
         in="diffuse"
         in2="diffuse"
         operator="arithmetic"
         k1="1"
         result="composite1"
         id="feComposite219100"
         k2="0"
         k3="0"
         k4="0" />
      <feComposite
         in="composite1"
         in2="SourceGraphic"
         k1="1"
         operator="arithmetic"
         k3="1"
         result="fbSourceGraphic"
         id="feComposite219102"
         k2="0"
         k4="0" />
      <feColorMatrix
         result="fbSourceGraphicAlpha"
         in="fbSourceGraphic"
         values="0 0 0 -1 0 0 0 0 -1 0 0 0 0 -1 0 0 0 0 1 0"
         id="feColorMatrix219148" />
      <feFlood
         id="feFlood219150"
         flood-opacity="1"
         flood-color="rgb(0,0,0)"
         result="flood"
         in="fbSourceGraphic" />
      <feComposite
         in2="fbSourceGraphic"
         id="feComposite219152"
         in="flood"
         operator="in"
         result="composite1" />
      <feGaussianBlur
         id="feGaussianBlur219154"
         in="composite1"
         stdDeviation="0"
         result="blur" />
      <feOffset
         id="feOffset219156"
         dx="3"
         dy="5"
         result="offset" />
      <feComposite
         in2="offset"
         id="feComposite219158"
         in="fbSourceGraphic"
         operator="over"
         result="composite2" />
    </filter>
    <filter
       style="color-interpolation-filters:sRGB"
       inkscape:label="Drop Shadow"
       id="filter219519"
       x="-0.0067378017"
       y="-0.02710103"
       width="1.0194792"
       height="1.0999899">
      <feGaussianBlur
         in="SourceGraphic"
         stdDeviation="0.8"
         result="blur"
         id="feGaussianBlur219509" />
      <feDiffuseLighting
         diffuseConstant="1"
         surfaceScale="10"
         lighting-color="#ffffff"
         result="diffuse"
         id="feDiffuseLighting219513">
        <feDistantLight
           elevation="13"
           azimuth="236"
           id="feDistantLight219511" />
      </feDiffuseLighting>
      <feComposite
         in="diffuse"
         in2="diffuse"
         operator="arithmetic"
         k1="1"
         result="composite1"
         id="feComposite219515"
         k2="0"
         k3="0"
         k4="0" />
      <feComposite
         in="composite1"
         in2="SourceGraphic"
         k1="1"
         operator="arithmetic"
         k3="1"
         result="fbSourceGraphic"
         id="feComposite219517"
         k2="0"
         k4="0" />
      <feColorMatrix
         result="fbSourceGraphicAlpha"
         in="fbSourceGraphic"
         values="0 0 0 -1 0 0 0 0 -1 0 0 0 0 -1 0 0 0 0 1 0"
         id="feColorMatrix219539" />
      <feFlood
         id="feFlood219541"
         flood-opacity="1"
         flood-color="rgb(0,0,0)"
         result="flood"
         in="fbSourceGraphic" />
      <feComposite
         in2="fbSourceGraphic"
         id="feComposite219543"
         in="flood"
         operator="in"
         result="composite1" />
      <feGaussianBlur
         id="feGaussianBlur219545"
         in="composite1"
         stdDeviation="0"
         result="blur" />
      <feOffset
         id="feOffset219547"
         dx="3"
         dy="5"
         result="offset" />
      <feComposite
         in2="offset"
         id="feComposite219549"
         in="fbSourceGraphic"
         operator="over"
         result="composite2" />
    </filter>
    <filter
       style="color-interpolation-filters:sRGB"
       inkscape:label="Drop Shadow"
       id="filter184916-9"
       x="-0.0067741848"
       y="-0.030333091"
       width="1.0208855"
       height="1.1118864">
      <feGaussianBlur
         in="SourceGraphic"
         stdDeviation="0.926303"
         result="blur"
         id="feGaussianBlur184906-1" />
      <feDiffuseLighting
         diffuseConstant="1"
         surfaceScale="10"
         lighting-color="#ffffff"
         result="diffuse"
         id="feDiffuseLighting184910-2">
        <feDistantLight
           elevation="13"
           azimuth="236"
           id="feDistantLight184908-7" />
      </feDiffuseLighting>
      <feComposite
         in="diffuse"
         in2="diffuse"
         operator="arithmetic"
         k1="1"
         result="composite1"
         id="feComposite184912-0"
         k2="0"
         k3="0"
         k4="0" />
      <feComposite
         in="composite1"
         in2="SourceGraphic"
         k1="1"
         operator="arithmetic"
         k3="1"
         result="fbSourceGraphic"
         id="feComposite184914-9"
         k2="0"
         k4="0" />
      <feColorMatrix
         result="fbSourceGraphicAlpha"
         in="fbSourceGraphic"
         values="0 0 0 -1 0 0 0 0 -1 0 0 0 0 -1 0 0 0 0 1 0"
         id="feColorMatrix188362-3" />
      <feFlood
         id="feFlood188364-6"
         flood-opacity="1"
         flood-color="rgb(0,0,0)"
         result="flood"
         in="fbSourceGraphic" />
      <feComposite
         in2="fbSourceGraphic"
         id="feComposite188366-0"
         in="flood"
         operator="in"
         result="composite1" />
      <feGaussianBlur
         id="feGaussianBlur188368-6"
         in="composite1"
         stdDeviation="0"
         result="blur" />
      <feOffset
         id="feOffset188370-2"
         dx="3"
         dy="5"
         result="offset" />
      <feComposite
         in2="offset"
         id="feComposite188372-6"
         in="fbSourceGraphic"
         operator="over"
         result="composite2" />
    </filter>
    <filter
       style="color-interpolation-filters:sRGB"
       inkscape:label="Drop Shadow"
       id="filter184928-1"
       x="-0.03229865"
       y="-0.022401277"
       width="1.0957136"
       height="1.0814728">
      <feGaussianBlur
         in="SourceGraphic"
         stdDeviation="0.926303"
         result="blur"
         id="feGaussianBlur184918-8" />
      <feDiffuseLighting
         diffuseConstant="1"
         surfaceScale="10"
         lighting-color="#ffffff"
         result="diffuse"
         id="feDiffuseLighting184922-7">
        <feDistantLight
           elevation="13"
           azimuth="236"
           id="feDistantLight184920-9" />
      </feDiffuseLighting>
      <feComposite
         in="diffuse"
         in2="diffuse"
         operator="arithmetic"
         k1="1"
         result="composite1"
         id="feComposite184924-2"
         k2="0"
         k3="0"
         k4="0" />
      <feComposite
         in="composite1"
         in2="SourceGraphic"
         k1="1"
         operator="arithmetic"
         k3="1"
         result="fbSourceGraphic"
         id="feComposite184926-0"
         k2="0"
         k4="0" />
      <feColorMatrix
         result="fbSourceGraphicAlpha"
         in="fbSourceGraphic"
         values="0 0 0 -1 0 0 0 0 -1 0 0 0 0 -1 0 0 0 0 1 0"
         id="feColorMatrix188374-2" />
      <feFlood
         id="feFlood188376-3"
         flood-opacity="1"
         flood-color="rgb(0,0,0)"
         result="flood"
         in="fbSourceGraphic" />
      <feComposite
         in2="fbSourceGraphic"
         id="feComposite188378-7"
         in="flood"
         operator="in"
         result="composite1" />
      <feGaussianBlur
         id="feGaussianBlur188380-5"
         in="composite1"
         stdDeviation="0"
         result="blur" />
      <feOffset
         id="feOffset188382-9"
         dx="3"
         dy="5"
         result="offset" />
      <feComposite
         in2="offset"
         id="feComposite188384-2"
         in="fbSourceGraphic"
         operator="over"
         result="composite2" />
    </filter>
    <linearGradient
       inkscape:collect="always"
       xlink:href="#linearGradient161308"
       id="linearGradient1140"
       gradientUnits="userSpaceOnUse"
       gradientTransform="matrix(0.99569185,0,0,1.0043268,-2,-10)"
       x1="148.3185"
       y1="162.58894"
       x2="151.97664"
       y2="52.277431" />
    <linearGradient
       inkscape:collect="always"
       xlink:href="#linearGradient161308"
       id="linearGradient1143"
       gradientUnits="userSpaceOnUse"
       gradientTransform="matrix(0.99569185,0,0,1.0043268,0,-4)"
       x1="148.3185"
       y1="162.58894"
       x2="151.97664"
       y2="52.277431" />
    <linearGradient
       inkscape:collect="always"
       xlink:href="#linearGradient161308"
       id="linearGradient1146"
       gradientUnits="userSpaceOnUse"
       gradientTransform="matrix(0.99569185,0,0,1.0043268,-0.46738232,-2)"
       x1="148.3185"
       y1="162.58894"
       x2="151.97664"
       y2="52.277431" />
    <linearGradient
       inkscape:collect="always"
       xlink:href="#linearGradient161308"
       id="linearGradient1149"
       gradientUnits="userSpaceOnUse"
       gradientTransform="matrix(0.99569185,0,0,1.0043268,3.3670252,0)"
       x1="148.3185"
       y1="162.58894"
       x2="151.97664"
       y2="52.277431" />
    <linearGradient
       inkscape:collect="always"
       xlink:href="#linearGradient161308"
       id="linearGradient1152"
       gradientUnits="userSpaceOnUse"
       gradientTransform="matrix(0.99569185,0,0,1.0043268,-19.076266,2)"
       x1="148.3185"
       y1="162.58894"
       x2="151.97664"
       y2="52.277431" />
    <linearGradient
       inkscape:collect="always"
       xlink:href="#linearGradient161308"
       id="linearGradient1155"
       gradientUnits="userSpaceOnUse"
       gradientTransform="matrix(0.99569185,0,0,1.0043268,7.3670252,0)"
       x1="148.3185"
       y1="162.58894"
       x2="151.97664"
       y2="52.277431" />
    <linearGradient
       inkscape:collect="always"
       xlink:href="#linearGradient161308"
       id="linearGradient1158"
       gradientUnits="userSpaceOnUse"
       gradientTransform="matrix(0.99569185,0,0,1.0043268,18.000002,0)"
       x1="148.3185"
       y1="162.58894"
       x2="151.97664"
       y2="52.277431" />
    <linearGradient
       inkscape:collect="always"
       xlink:href="#linearGradient33518"
       id="linearGradient1182"
       gradientUnits="userSpaceOnUse"
       gradientTransform="translate(-9.2979272,1.1993076)"
       x1="46.776211"
       y1="168.2742"
       x2="46.776211"
       y2="30.92944" />
  </defs>
  <sodipodi:namedview
     id="namedview904"
     pagecolor="#ffffff"
     bordercolor="#111111"
     borderopacity="1"
     inkscape:pageshadow="0"
     inkscape:pageopacity="0"
     inkscape:pagecheckerboard="1"
     showgrid="false"
     inkscape:zoom="0.96875001"
     inkscape:cx="311.74193"
     inkscape:cy="115.09677"
     inkscape:window-width="1366"
     inkscape:window-height="703"
     inkscape:window-x="0"
     inkscape:window-y="0"
     inkscape:window-maximized="1"
     inkscape:current-layer="g908"
     fit-margin-top="0"
     fit-margin-left="0"
     fit-margin-right="0"
     fit-margin-bottom="0" />
  <g
     inkscape:groupmode="layer"
     inkscape:label="4PlayersCollectionFr"
     id="g908"
     transform="translate(12.985949,-24.7988)">
    <text
       xml:space="preserve"
       style="font-size:2px;line-height:1.25;font-family:TrasksHand;-inkscape-font-specification:TrasksHand;text-decoration-color:#000000;fill:#ef00eb;stroke:#0105ff;stroke-width:2.5;-inkscape-stroke:none;stop-color:#000000"
       x="150.25597"
       y="53.502819"
       id="text4082"
       inkscape:label="Signature"
       transform="rotate(32.696607)"><tspan
         sodipodi:role="line"
         id="tspan4080"
         style="font-size:2px;fill:#fafafa;fill-opacity:0.4;stroke:none;stroke-width:2.5"
         x="150.25597"
         y="53.502819">John Loreth 2022</tspan></text>
    <g
       id="g218514"
       inkscape:label="Joueurs"
       style="display:inline;fill:url(#linearGradient218692);fill-opacity:1;stroke:#010000;stroke-width:1.25;stroke-miterlimit:4;stroke-dasharray:none;stroke-opacity:1;filter:url(#filter219519)"
       transform="translate(8,8)">
      <path
         d="m 143.23948,66.352855 -2.86759,-0.361558 -5.01829,4.338692 3.82346,-0.241039 2.74811,-1.687269 H 143.12 l -0.23897,2.530904 -2.03121,0.602596 1.67276,2.410384 -1.07534,3.254019 q -2.50915,0.723115 -7.88588,1.807788 -0.35845,22.175538 -5.25725,71.106338 l -0.47794,1.32572 q -24.25505,-1.08468 -43.133368,-11.69037 l 2.987076,-2.77194 0.716898,-1.80779 6.213117,1.92831 -2.150695,-2.89246 -2.987075,-1.44623 -0.597415,-0.96416 q 3.703973,-3.01298 3.703973,-3.61557 0,-0.72312 -0.597415,-2.28987 -0.477932,-1.56675 -0.477932,-2.28986 0,0 0.119483,-0.72312 10.514503,5.30285 21.865393,8.19531 0,-24.58592 -1.91173,-44.592116 -10.03657,4.820768 -21.626425,10.967248 0.238966,-2.048826 0.836381,-6.266999 1.075347,-1.084673 2.509144,-2.892461 -0.358449,-0.241038 -3.106559,-1.687269 l 0.238966,-0.723115 1.672762,0.361557 5.018287,-4.097653 -3.823456,0.120519 -2.74811,1.446231 q 0,-3.736096 0.477932,-5.182327 -0.597415,-1.084672 -1.433796,-3.133499 8.005362,-3.495057 24.135574,-10.485172 13.38209,-6.14648 26.0473,-10.003095 -0.35845,1.325712 -0.95587,3.977134 1.91173,-0.241038 4.18191,-0.723115 -0.11949,0.843635 -0.11949,1.687269 0,1.205192 0.11949,3.374538 0.23896,2.169346 0.23896,3.1335 z m -9.55864,5.182326 -1.79224,-0.241038 -2.1507,1.928307 1.67276,-0.120519 1.31432,-0.723116 h 0.47793 z m -2.38966,-3.495057 -2.86759,-0.241039 -3.58449,2.771942 2.62862,-0.120519 1.91173,-0.964154 h 0.95587 z m -30.34869,67.731806 -1.553276,-2.41039 -2.031212,-1.08467 -0.358449,-0.72312 -1.792245,-0.12051 1.314313,2.77194 z m 2.1507,4.82077 -1.4338,-1.44623 -1.672761,-0.6026 -0.597415,-0.48208 -1.194831,0.12052 1.314314,1.92831 z"
         id="path1101"
         style="font-weight:bold;font-size:120px;line-height:1.25;font-family:'Feast of Flesh BB';-inkscape-font-specification:'Feast of Flesh BB Bold';fill:url(#linearGradient1143)" />
      <path
         d="m 282.37712,58.590793 q -3.34552,29.768247 -3.34552,58.331297 0,2.16934 -0.59742,5.42336 -0.47793,3.25402 -0.47793,4.82077 0,0.48208 0.7169,10.12362 -2.03121,1.08467 -3.22604,1.44623 -2.1507,-2.65143 -3.58449,-4.09766 -2.27018,3.61558 -3.82346,6.14648 l -1.55328,-1.32571 -2.38966,1.80779 q -0.11948,-0.72311 -1.07535,-8.67738 -9.91709,5.6644 -19.71469,13.73919 v 0.48207 q -2.62863,1.32572 -4.42088,2.28987 l -0.35845,-3.25402 0.35845,-0.96415 -1.31431,-1.92831 -1.91173,3.61558 1.55328,4.45921 q -1.91173,1.20519 -2.86759,2.28986 -0.11948,-1.20519 -0.11948,-3.73609 -0.95587,0.48207 -2.74811,1.9283 0,-0.36155 -0.95587,-10.00309 -0.95586,3.61558 -3.10656,10.48517 l -0.71689,-0.12052 q -1.91173,-41.94069 -1.91173,-56.041429 0,-12.654517 0.71689,-23.742285 0.7169,-0.241039 1.31432,-0.241039 0.59741,0 1.67276,0.361558 1.07535,0.241038 1.79225,0.241038 1.79224,0 4.1819,-2.048826 l 1.79225,6.02596 1.19483,-3.495057 -0.47794,-3.133499 0.47794,-0.964154 -0.47794,-0.843635 q 0.95587,-0.241038 1.79225,-0.241038 0.83638,0 1.79225,0.602596 1.07534,0.602596 1.67276,0.602596 1.79224,0 3.94294,-2.169346 2.62862,-2.892461 3.82345,-3.374538 -1.91172,14.823864 -3.70397,29.888766 -2.03121,17.234242 -2.38966,29.768242 5.73519,-3.7361 17.08607,-11.44933 -2.27018,-24.465392 -2.50914,-50.859101 4.30139,-1.687269 10.63399,-4.338691 0.7169,2.048826 1.55328,3.856615 1.19483,-1.446231 3.22604,-3.977135 l 1.31431,-0.482076 -1.31431,2.169345 2.03121,6.025961 1.19483,-3.374538 -0.47793,-3.254019 0.47793,-0.964153 -0.7169,-1.084673 q 0.95587,-0.241039 2.86759,-0.964154 -0.11948,1.928307 -0.11948,4.941288 1.91173,-0.241039 3.22604,-0.723116 z m -14.09899,8.677384 -0.35845,-1.807788 0.35845,-0.602596 -0.7169,-1.205192 -0.95587,2.048826 0.95587,3.615577 z m 3.58449,6.025961 -0.11949,-1.807788 0.11949,-0.482077 -0.59742,-1.205192 -1.19483,2.048826 1.19483,3.615577 z m -36.80077,67.852312 q -0.11949,-1.56675 0,-2.5309 l -0.47794,-1.20519 -1.19483,2.16934 1.19483,3.49506 z"
         id="path1119"
         style="font-weight:bold;font-size:120px;line-height:1.25;font-family:'Feast of Flesh BB';-inkscape-font-specification:'Feast of Flesh BB Bold';fill:url(#linearGradient1158)" />
      <path
         d="m 219.97242,92.264486 q 0,20.729314 -15.41331,39.289264 -16.13021,19.28308 -36.20336,19.28308 -13.3821,0 -20.90953,-9.52102 l 1.07535,0.24104 -1.07535,-3.7361 -3.58449,-1.9283 q -4.06242,-7.95427 -4.06242,-17.71633 0,-20.608788 15.41331,-39.048228 16.13021,-19.403594 36.20335,-19.403594 8.84175,0 15.65228,4.820768 l 2.62863,5.423365 -3.70398,-0.241038 -0.59741,-2.048827 -5.85467,-2.771942 1.67276,3.254019 2.62863,1.928307 0.35845,0.964154 0.11948,3.615577 -4.65984,2.289865 -4.42087,-2.169346 1.67276,3.374538 0.83638,0.602596 -2.15069,3.374538 3.46501,-2.289865 0.35845,0.241038 0.47793,0.843635 2.15069,0.602596 -0.7169,-2.530904 5.73519,-0.482077 -0.47793,-2.289865 3.10656,-0.602596 -1.31432,-2.410384 6.09364,2.410384 1.19483,-1.44623 q 4.30139,8.195306 4.30139,18.077882 z m -13.74055,-5.061807 -0.83638,-2.530903 -3.82346,-1.928308 1.07535,2.289865 1.67276,1.325712 0.35845,0.482076 z m -5.37674,14.582831 q 0,-7.351678 -4.1819,-12.292966 -4.06243,-5.061807 -11.23141,-5.061807 -10.87295,0 -19.59521,10.72621 -8.00537,10.003103 -8.00537,21.452423 0,7.11064 3.94294,12.05192 4.18191,5.30285 11.47037,5.30285 10.99244,0 19.47574,-10.72621 8.12484,-10.24413 8.12484,-21.45242 z m -45.28406,35.31213 -0.7169,-2.28987 -3.22604,-1.56675 0.95586,1.80779 1.4338,1.20519 0.23896,0.6026 z m 3.465,9.52102 -1.19483,-3.97714 -5.73518,-3.01298 1.67276,3.49506 2.62863,1.80779 0.47793,0.96415 z"
         id="path1116"
         style="font-weight:bold;font-size:120px;line-height:1.25;font-family:'Feast of Flesh BB';-inkscape-font-specification:'Feast of Flesh BB Bold';fill:url(#linearGradient1140)" />
      <path
         d="m 342.96501,56.470279 q -1.07534,3.1335 -1.43379,6.508038 h -1.07535 l -1.91173,0.964153 -0.47793,-0.120519 -1.19483,1.205192 2.27018,0.361558 2.38966,-1.687269 q -0.11949,0.964154 -0.35845,2.651423 l -4.89881,3.01298 5.37674,0.361558 q -0.59742,2.048826 -1.79225,6.508037 -15.77176,3.856615 -27.00316,8.195307 -0.47793,3.615577 -0.83638,7.231153 8.36381,-2.892461 18.87832,-5.905442 -0.11949,0.964154 -0.35845,2.892462 2.27018,-0.723116 6.81053,-1.687269 -0.7169,2.410384 -1.79225,7.110633 -1.43379,0.602596 -2.86759,0.843635 0.35845,0.602596 1.31432,1.928307 -0.35845,0.843635 -0.7169,2.410385 -9.55864,2.892469 -11.23141,3.254019 -6.3326,2.04883 -10.87295,4.45921 -0.35845,5.54389 -0.35845,12.17245 0,3.97713 0.11948,9.15946 3.94294,-2.28987 8.96123,-4.94129 l 1.55328,0.96415 q 4.8988,-2.5309 13.97951,-6.267 -0.11948,0.48208 -2.15069,8.31583 1.79224,-0.72312 2.74811,-1.08467 -0.7169,3.49505 -0.7169,5.18232 -20.07315,9.03894 -39.07095,23.74229 -0.47793,-2.65143 -0.47793,-3.01298 0,-0.84364 0.47793,-2.28987 0.47793,-1.32571 0.47793,-2.04883 -1.31431,-1.9283 -2.38966,-3.01298 0.35845,-0.60259 0.95587,-2.41038 l -1.55328,0.12052 -0.11949,-0.48208 q 0.59742,-0.60259 2.38966,-1.9283 -1.31431,-10.12362 -2.15069,-23.62177 -1.4338,0.96415 -4.30139,2.41038 -0.7169,-3.01298 -1.31431,-4.57973 0.7169,-1.9283 1.31431,-3.25402 l -1.91173,-1.20519 q 0.35845,-2.5309 1.31432,-6.38752 2.86759,-1.32571 4.30139,-2.28987 v -7.231149 q -2.98708,1.325712 -9.08071,4.338692 0.47793,-1.205192 3.58449,-8.436345 -0.59742,-1.084673 -1.91173,-3.01298 2.03121,-1.928308 3.22604,-3.495058 -0.59742,-0.482076 -1.07535,-2.410384 -0.35845,-2.048827 -0.7169,-2.771942 1.19483,-1.928307 1.91173,-3.133499 12.54572,-5.543884 23.06023,-9.400499 l 0.47793,-2.169346 q 15.17434,-3.977134 30.2292,-6.025961 z m -9.91709,11.810883 h -1.55328 l -1.43379,0.843635 -0.47794,-0.12052 -0.83638,0.843635 1.79225,0.361558 z m -4.65984,21.090863 -2.15069,0.120519 -1.79225,0.964154 h -0.71689 l -1.07535,1.084673 2.50914,0.361557 z M 305.80579,135.77193 H 304.372 l -1.31432,0.60259 h -0.35845 l -0.59741,0.72312 1.55328,0.24104 z m -5.01828,4.70025 -2.27018,0.12052 -1.79225,0.84363 0.59742,1.68727 z"
         id="path1113"
         style="font-weight:bold;font-size:120px;line-height:1.25;font-family:'Feast of Flesh BB';-inkscape-font-specification:'Feast of Flesh BB Bold';fill:url(#linearGradient1155)" />
      <path
         d="m 403.7447,56.590798 q -3.34552,29.768247 -3.34552,58.331302 0,2.16935 -0.59742,5.42337 -0.47793,3.25402 -0.47793,4.82077 0,0.48207 0.7169,10.12361 -2.03121,1.08467 -3.22604,1.44623 -2.1507,-2.65142 -3.58449,-4.09765 -2.27018,3.61557 -3.82346,6.14648 l -1.55328,-1.32571 -2.38966,1.80778 q -0.11948,-0.72311 -1.07535,-8.67738 -9.91709,5.6644 -19.7147,13.73919 v 0.48208 q -2.62862,1.32571 -4.42087,2.28986 l -0.35845,-3.25402 0.35845,-0.96415 -1.31431,-1.92831 -1.91173,3.61558 1.55328,4.45921 q -1.91173,1.20519 -2.86759,2.28987 -0.11949,-1.2052 -0.11949,-3.7361 -0.95586,0.48208 -2.74811,1.92831 0,-0.36156 -0.95586,-10.0031 -0.95586,3.61558 -3.10656,10.48517 l -0.7169,-0.12051 q -1.91173,-41.94069 -1.91173,-56.041444 0,-12.654518 0.7169,-23.742286 0.7169,-0.241038 1.31432,-0.241038 0.59741,0 1.67276,0.361558 1.07535,0.241038 1.79224,0.241038 1.79225,0 4.18191,-2.048827 l 1.79224,6.025961 1.19484,-3.495057 -0.47794,-3.1335 0.47794,-0.964153 -0.47794,-0.843635 q 0.95587,-0.241038 1.79225,-0.241038 0.83638,0 1.79224,0.602596 1.07535,0.602596 1.67277,0.602596 1.79224,0 3.94294,-2.169346 2.62862,-2.892461 3.82345,-3.374538 -1.91173,14.823863 -3.70397,29.888765 -2.03121,17.234248 -2.38966,29.768248 5.73518,-3.73609 17.08607,-11.44932 -2.27018,-24.465408 -2.50914,-50.859116 4.30139,-1.687269 10.63399,-4.338692 0.71689,2.048827 1.55328,3.856615 1.19483,-1.44623 3.22604,-3.977134 l 1.31431,-0.482077 -1.31431,2.169346 2.03121,6.025961 1.19483,-3.374538 -0.47793,-3.254019 0.47793,-0.964154 -0.7169,-1.084673 q 0.95586,-0.241038 2.86759,-0.964153 -0.11948,1.928307 -0.11948,4.941287 1.91173,-0.241038 3.22604,-0.723115 z m -14.099,8.677384 -0.35844,-1.807789 0.35844,-0.602596 -0.71689,-1.205192 -0.95587,2.048827 0.95587,3.615576 z m 3.5845,6.025961 -0.11949,-1.807789 0.11949,-0.482077 -0.59742,-1.205192 -1.19483,2.048827 1.19483,3.615576 z m -36.80078,67.852327 q -0.11948,-1.56675 0,-2.53091 l -0.47793,-1.20519 -1.19483,2.16935 1.19483,3.49505 z"
         id="path1110"
         style="font-weight:bold;font-size:120px;line-height:1.25;font-family:'Feast of Flesh BB';-inkscape-font-specification:'Feast of Flesh BB Bold';fill:url(#linearGradient1149)" />
      <path
         d="m 477.46944,132.44622 q -0.59742,3.01298 -0.59742,5.6644 l -1.91172,-0.84363 v 1.92831 l -0.95587,-1.44624 -6.69105,-0.72311 2.8676,2.5309 3.22604,1.08468 0.83638,0.72311 h 0.7169 l 0.23896,3.1335 q -0.47793,-0.24104 -0.83638,-0.24104 -0.35845,0 -1.31431,0.48208 -0.7169,0.24104 -1.67276,-0.12052 l 3.465,4.94129 q -9.67812,-3.85662 -18.40038,-8.91842 -10.75347,-5.42337 -19.47573,-11.81089 -0.23897,8.19531 0.35844,13.85971 -1.19483,0.48208 -3.465,1.56675 l -0.11949,-0.12052 0.95587,-2.16934 -2.62863,-5.78492 -0.7169,3.49505 0.59742,2.41039 -1.4338,-1.44623 q -0.11948,0.12052 -3.94294,6.50803 l -1.67276,-1.32571 q -1.4338,1.20519 -2.50914,2.04883 -4.65984,-39.89186 -5.25726,-62.0674 l -1.19483,0.602596 -4.1819,-0.602596 -3.34553,3.133499 q -0.95586,-2.169345 -1.31431,-3.495057 0.11948,0 4.06242,-2.169346 l -2.15069,-1.56675 1.55328,-0.843634 h 1.07534 l 1.31432,-1.928307 -3.82346,-0.361558 -1.55328,1.205192 -0.47793,-1.687269 q 1.31431,-2.289865 1.91173,-3.856615 l -4.18191,0.723115 v -1.928307 q 0.59742,-0.361558 2.62863,-1.807788 20.90953,-15.42646 41.69957,-15.42646 10.63399,0 17.44452,4.820769 7.64692,5.423364 7.64692,15.667498 0,21.572939 -26.16678,39.048228 15.77176,10.72621 29.39282,17.11373 z m -23.8966,-46.520421 q 0,-8.315826 -11.35089,-8.315826 -1.19483,0 -2.62863,0.120519 -1.91173,15.667498 -1.91173,24.826958 15.89125,-9.15946 15.89125,-16.631651 z m -33.45525,-12.895556 -3.10656,-0.361558 -3.46501,3.012981 2.74811,-0.12052 1.91173,-1.205192 h 0.83638 z m 46.23993,60.982727 -1.67276,-2.04883 -4.30139,-0.72311 1.79224,1.68727 2.27018,0.60259 0.35845,0.72312 z m -37.15922,-0.6026 -1.91173,-4.21817 -0.47793,2.77194 0.47793,2.04883 -0.11948,0.72311 0.95586,1.44624 z"
         id="path1107"
         style="font-weight:bold;font-size:120px;line-height:1.25;font-family:'Feast of Flesh BB';-inkscape-font-specification:'Feast of Flesh BB Bold';fill:url(#linearGradient1146)" />
      <path
         d="m 526.01393,76.06608 q -24.6135,14.823863 -24.6135,24.58591 0,3.49506 5.97415,6.267 9.08071,4.3387 11.11192,5.90545 5.97415,4.70025 5.97415,12.77503 0,8.07479 -7.7664,17.71633 -5.6157,7.47219 -14.09899,14.10075 -0.47794,-0.24104 -0.47794,-1.08468 0,-0.48207 0.35845,-1.68727 0.47793,-1.20519 0.47793,-1.68727 0,-0.84363 -4.06242,-0.84363 -1.55328,0 -2.27018,0.24104 l 5.01829,-5.30285 q -4.30139,0.6026 -7.0495,3.7361 l -0.95586,0.24104 -0.83638,0.96415 -2.86759,-1.20519 q 15.29382,-10.84673 15.29382,-16.87269 0,-3.85662 -8.60278,-7.95427 -13.62106,-6.38752 -15.89124,-7.95427 -8.48329,-5.6644 -8.48329,-13.73919 0,-13.859703 16.01072,-29.406682 12.78469,-12.41348 28.31748,-19.765152 0.47793,1.325712 1.91173,3.012981 1.79224,2.289865 2.15069,2.892461 l -1.79224,0.361557 -2.8676,2.289866 -0.83638,0.120519 -1.67276,2.892461 3.46501,0.361558 3.94294,-5.061807 q 0,0.843634 -1.07535,5.061807 l 3.94294,3.01298 h -0.11948 l -2.1507,1.807788 -0.7169,0.120519 -1.19483,1.807789 2.50915,0.241038 2.50914,-2.651423 0.59742,0.723116 z m -10.03658,-6.14648 -2.15069,0.361557 -1.79225,1.687269 H 511.437 l -0.95586,1.807789 2.27017,0.120519 z m -6.09363,73.51672 -2.74811,0.96415 -2.03121,1.56675 -0.59742,0.36156 -1.19483,1.44623 2.62863,-0.24104 z"
         id="path1104"
         style="font-weight:bold;font-size:120px;line-height:1.25;font-family:'Feast of Flesh BB';-inkscape-font-specification:'Feast of Flesh BB Bold';fill:url(#linearGradient1152)" />
    </g>
    <path
       d="m 83.382349,106.23374 q -0.746668,6.72001 -0.746668,9.89335 -1.86667,0.56 -2.986672,0.56 0.746668,1.12 2.613338,3.17334 -0.560001,1.30667 -1.680003,4.10667 -3.73334,0.37334 -10.826687,1.30667 v 5.78668 q 0,2.24 -0.560001,6.34668 -0.373334,4.10667 -0.373334,6.16001 0,5.04001 0.933335,17.36003 -2.800005,1.30667 -5.040009,2.24 l -1.86667,-2.42667 1.306669,-3.17334 -0.373334,-5.04 0.746668,-1.49334 -1.493336,-3.36001 -3.360006,5.22668 1.120002,5.60001 -1.493336,-2.05334 q -1.86667,3.36001 -6.160011,9.89335 l -2.800005,-2.24 q -2.240004,2.05334 -3.546673,2.8 -1.866671,-13.81335 -3.733341,-36.40006 -4.293341,0.37333 -38.8267371,13.25336 l 1.493336,-7.84002 q 0.746668,-0.74667 2.4266711,-2.05334 -0.933335,-1.30666 -1.306669,-2.61333 l -2.2400041,-1.12001 q 0.933335,-1.49333 2.0533371,-3.92 L 5.7288739,124.5271 q -2.9866721,0.37334 -4.6666752,0.74667 -0.18666698,-0.93333 -1.49333603,-2.8 l 2.42667113,-4.66668 1.306669,-0.93333 0.186667,-3.73334 -5.4133432,3.17334 -0.746668,2.8 q -1.6800031,-2.42667 -2.9866721,-4.48001 -0.9333351,-0.56 -4.4800085,-2.61334 4.1066744,-9.33335 19.9733701,-36.960063 7.0933459,-12.320022 22.2133739,-36.026732 0.933335,1.86667 2.240004,5.60001 1.493336,-1.120002 3.920007,-4.106674 v -2.800005 q 3.920007,-1.306669 7.280014,-1.680003 l 2.053337,9.893351 2.240004,-5.413343 -0.186667,-4.853342 0.746668,-1.493337 -0.560001,-1.120002 4.853342,-2.240004 q 0,0.186667 2.426671,6.160012 2.240004,-2.986673 5.413343,-6.533346 0.933335,-0.186667 8.026682,-2.800005 0,1.306669 -0.186668,3.920007 0,2.800005 0,4.293342 1.30667,-0.186667 5.226677,-1.493337 -5.413344,52.45343 -5.413344,68.880131 2.986673,-0.37334 8.77335,-1.49334 -0.746668,1.68 -1.680003,5.04001 1.120002,0 6.160011,-0.56 z M 55.755632,46.126961 54.448963,43.70029 l -2.240004,3.73334 1.680003,7.093346 q 0.746668,-1.306669 1.120002,-4.480008 0.373334,-3.173339 0.746668,-3.920007 z M 41.195605,110.15374 q -0.746668,-8.58668 -1.680003,-25.386709 -9.146683,13.066691 -17.920032,31.546729 10.453352,-3.73334 19.600035,-6.16002 z m 19.600036,25.76005 -0.933335,-1.86667 -1.680003,2.80001 1.120002,5.78667 1.120002,-2.98667 -0.186667,-2.98667 z m -3.920007,8.58668 -1.120002,-2.42667 -2.426671,3.92001 1.493336,7.09335 1.680003,-3.73334 -0.186667,-3.92001 z M 7.22221,101.19373 l -4.1066742,2.05334 -2.24000408,7.09334 3.36000618,-2.61334 1.680003,-3.36 1.1200021,-0.56 z"
       style="font-weight:normal;font-size:186.667px;line-height:1.25;font-family:'Feast of Flesh BB';-inkscape-font-specification:'Feast of Flesh BB';fill:url(#linearGradient1182);stroke:#010000;stroke-width:1.25;filter:url(#filter184928-1)"
       id="path1161"
       inkscape:label="4" />
  </g>
  <metadata
     id="metadata161234">
    <rdf:RDF>
      <cc:Work
         rdf:about="">
        <dc:description>Feast of Flesh font</dc:description>
      </cc:Work>
    </rdf:RDF>
  </metadata>
</svg>
