<?xml version="1.0" encoding="UTF-8" standalone="no"?>
<!DOCTYPE svg PUBLIC "-//W3C//DTD SVG 1.1//EN" "http://www.w3.org/Graphics/SVG/1.1/DTD/svg11.dtd">
<svg xmlns="http://www.w3.org/2000/svg" version="1.1" viewBox="0.00 0.00 709.00 446.00">
<g stroke-width="2.00" fill="none" stroke-linecap="butt">
<path stroke="#cabce6" stroke-opacity="0.973" vector-effect="non-scaling-stroke" d="
  M 124.87 251.43
  L 116.80 252.52"
/>
<path stroke="#dbbce5" stroke-opacity="0.973" vector-effect="non-scaling-stroke" d="
  M 164.75 251.43
  L 157.03 253.03"
/>
<path stroke="#dbbce5" stroke-opacity="0.973" vector-effect="non-scaling-stroke" d="
  M 142.47 252.81
  L 134.52 251.63"
/>
<path stroke="#dbbce5" stroke-opacity="0.973" vector-effect="non-scaling-stroke" d="
  M 182.57 252.36
  L 174.35 251.79"
/>
<path stroke="#c0c1ed" vector-effect="non-scaling-stroke" d="
  M 190.35 235.56
  Q 189.48 235.26 189.05 234.19
  Q 188.83 233.65 188.24 233.73
  L 186.09 234.03
  Q 185.91 234.06 185.96 233.89
  Q 186.01 233.69 185.81 233.54
  Q 185.42 233.25 185.10 233.62
  Q 184.99 233.75 184.95 233.92
  Q 184.90 234.12 184.70 234.16
  Q 184.15 234.27 183.91 233.74
  Q 183.85 233.61 183.97 233.53
  Q 184.11 233.44 184.10 233.27
  Q 184.08 233.07 183.90 232.99
  L 183.16 232.69"
/>
<path stroke="#c0c1ed" vector-effect="non-scaling-stroke" d="
  M 333.97 208.52
  Q 333.51 209.23 333.36 209.99
  Q 333.32 210.21 333.16 210.06
  Q 333.00 209.92 333.13 209.74
  A 0.05 0.05 0.0 0 0 333.07 209.66
  Q 330.94 210.11 328.74 210.30
  A 0.98 0.96 -12.9 0 0 327.90 211.60
  Q 328.01 211.90 327.71 212.08
  Q 327.38 212.27 327.25 212.63
  Q 326.89 213.60 326.02 214.22"
/>
<path stroke="#dbbce5" stroke-opacity="0.973" vector-effect="non-scaling-stroke" d="
  M 334.01 253.50
  Q 332.52 251.37 328.21 252.22
  Q 327.71 252.32 327.39 252.70
  Q 326.25 254.06 326.04 255.71"
/>
<path stroke="#c0c1ed" vector-effect="non-scaling-stroke" d="
  M 434.82 224.02
  Q 434.13 224.65 433.90 225.15
  Q 433.64 225.70 433.03 225.71
  Q 432.36 225.73 431.82 226.25
  Q 431.42 226.63 430.88 226.69
  Q 428.92 226.90 427.23 227.93
  Q 426.92 228.12 427.12 227.81
  Q 427.15 227.76 427.13 227.70
  Q 427.03 227.36 426.72 227.54
  Q 426.64 227.58 426.59 227.66
  Q 426.29 228.14 426.39 227.58
  Q 426.64 226.21 426.02 225.94"
/>
<path stroke="#dbbce5" stroke-opacity="0.973" vector-effect="non-scaling-stroke" d="
  M 434.01 252.79
  Q 428.52 250.93 426.03 253.47"
/>
<path stroke="#c0c1ed" vector-effect="non-scaling-stroke" d="
  M 233.98 213.69
  Q 233.55 213.88 233.59 214.60
  Q 233.63 215.68 233.10 214.75
  Q 232.96 214.50 232.74 214.32
  Q 232.47 214.11 232.39 214.44
  Q 232.21 215.10 231.55 214.88
  Q 229.43 214.17 227.86 215.13
  Q 227.42 215.39 227.11 214.98
  Q 226.67 214.41 226.02 214.18"
/>
<path stroke="#dbbce5" stroke-opacity="0.973" vector-effect="non-scaling-stroke" d="
  M 313.99 252.13
  L 306.02 252.40"
/>
<path stroke="#dbbce5" stroke-opacity="0.973" vector-effect="non-scaling-stroke" d="
  M 234.00 252.20
  L 226.02 252.10"
/>
<path stroke="#c0c1ed" vector-effect="non-scaling-stroke" d="
  M 313.98 221.21
  Q 313.70 221.19 313.63 221.45
  Q 313.49 222.05 313.20 221.52
  Q 312.98 221.13 312.73 221.52
  Q 312.52 221.85 312.38 221.49
  Q 312.32 221.36 312.17 221.27
  Q 311.92 221.11 311.68 221.28
  Q 310.92 221.84 309.73 221.87
  A 1.32 1.28 21.5 0 0 308.89 222.22
  Q 307.86 223.19 306.04 222.89"
/>
<path stroke="#c0c1ed" vector-effect="non-scaling-stroke" d="
  M 533.98 212.21
  Q 533.70 212.21 533.64 212.50
  Q 533.53 213.01 533.20 212.65
  Q 533.01 212.45 532.95 212.68
  A 0.13 0.13 0.0 0 1 532.73 212.74
  Q 530.99 211.10 528.71 212.08
  Q 528.45 212.19 528.44 212.46
  L 528.32 214.37
  Q 528.27 215.12 527.78 214.56
  L 526.79 213.42"
/>
<path stroke="#dbbce5" stroke-opacity="0.973" vector-effect="non-scaling-stroke" d="
  M 533.98 252.64
  Q 531.05 251.07 526.77 252.02"
/>
<path stroke="#dbbce5" stroke-opacity="0.973" vector-effect="non-scaling-stroke" d="
  M 207.32 329.73
  Q 201.75 330.06 196.27 330.12
  C 195.43 330.13 194.99 330.54 194.63 331.22"
/>
<path stroke="#dbbce5" stroke-opacity="0.973" vector-effect="non-scaling-stroke" d="
  M 505.94 330.38
  L 492.46 329.82"
/>
</g>
<g fill="#e6b7de" fill-opacity="0.945">
<path d="
  M 164.75 251.43
  L 169.45 260.95
  Q 169.69 261.45 169.94 260.94
  L 174.35 251.79
  L 182.57 252.36
  Q 178.05 262.49 173.42 272.17
  Q 171.33 276.52 167.30 274.23
  Q 166.30 273.67 165.04 270.85
  Q 161.15 262.19 157.03 253.03
  L 164.75 251.43
  Z"
/>
<path d="
  M 134.52 251.63
  L 142.47 252.81
  Q 138.06 262.68 133.52 272.11
  Q 132.60 274.02 131.41 274.71
  C 128.45 276.41 126.33 273.14 125.25 270.78
  Q 121.09 261.63 116.80 252.52
  L 124.87 251.43
  L 128.95 260.26
  Q 129.73 261.95 130.51 260.26
  L 134.52 251.63
  Z"
/>
<path d="
  M 533.98 252.64
  L 534.00 266.49
  A 0.51 0.51 0.0 0 0 534.51 267.00
  Q 572.01 266.95 609.47 267.06
  Q 612.69 267.07 614.01 270.85
  Q 614.05 270.95 614.03 271.06
  Q 613.63 274.89 610.23 274.91
  Q 572.37 275.08 529.94 274.99
  A 3.13 3.12 0.1 0 1 526.82 271.87
  L 526.77 252.02
  Q 531.05 251.07 533.98 252.64
  Z"
/>
<path d="
  M 226.02 252.10
  L 234.00 252.20
  Q 234.03 267.10 233.98 271.25
  C 233.93 275.36 227.73 276.61 226.60 272.32
  Q 226.08 270.35 226.05 267.76
  Q 225.96 259.79 226.02 252.10
  Z"
/>
<path d="
  M 313.99 252.13
  Q 314.12 261.04 313.87 271.05
  Q 313.78 274.66 310.07 274.83
  Q 309.99 274.84 309.91 274.83
  Q 306.19 274.73 306.12 271.16
  Q 305.88 260.71 306.02 252.40
  L 313.99 252.13
  Z"
/>
<path d="
  M 334.01 253.50
  L 334.07 265.85
  A 1.14 1.14 0.0 0 0 335.22 266.99
  Q 370.85 266.97 408.78 267.06
  Q 413.27 267.07 413.66 270.89
  Q 413.67 270.97 413.67 271.05
  Q 413.82 274.97 409.85 274.97
  Q 371.56 274.99 331.69 275.00
  Q 329.95 275.00 328.06 274.53
  A 1.14 1.13 -7.3 0 1 327.33 273.97
  Q 326.19 271.91 326.09 270.13
  Q 325.81 265.09 326.04 255.71
  Q 326.25 254.06 327.39 252.70
  Q 327.71 252.32 328.21 252.22
  Q 332.52 251.37 334.01 253.50
  Z"
/>
<path d="
  M 434.01 252.79
  L 434.00 266.07
  A 0.91 0.91 0.0 0 0 434.91 266.98
  Q 470.07 267.04 506.98 266.99
  C 509.21 266.99 511.91 267.27 513.32 269.21
  C 514.72 271.14 513.73 273.69 511.70 274.53
  Q 510.53 275.01 509.11 275.01
  Q 469.27 275.00 431.11 275.00
  Q 429.43 275.00 427.91 274.31
  Q 427.44 274.10 427.25 273.63
  Q 426.06 270.72 426.01 268.00
  Q 425.95 264.56 426.03 253.47
  Q 428.52 250.93 434.01 252.79
  Z"
/>
<path d="
  M 207.32 329.73
  Q 243.59 379.61 302.54 396.51
  Q 309.60 398.53 316.05 399.73
  Q 325.14 401.41 329.79 401.80
  Q 332.84 402.05 335.95 402.46
  Q 340.02 403.00 342.10 403.00
  Q 351.09 403.01 359.64 402.99
  Q 362.35 402.99 364.79 402.43
  C 367.11 401.89 369.33 402.10 371.69 401.76
  Q 396.69 398.23 415.73 390.42
  Q 462.36 371.27 492.46 329.82
  L 505.94 330.38
  Q 488.76 356.15 465.56 374.30
  Q 413.06 415.39 346.00 414.42
  Q 335.86 414.27 326.05 412.99
  Q 274.19 406.20 232.92 373.05
  Q 210.59 355.11 194.63 331.22
  C 194.99 330.54 195.43 330.13 196.27 330.12
  Q 201.75 330.06 207.32 329.73
  Z"
/>
</g>
<g fill="#afc0ee">
<path d="
  M 248.23 85.69
  C 219.57 106.10 196.74 135.60 185.08 169.18
  A 1.27 1.27 0.0 0 1 183.88 170.03
  L 173.41 169.99
  A 0.69 0.69 0.0 0 1 172.76 169.08
  Q 187.09 127.32 216.45 97.31
  C 252.43 60.53 301.62 40.41 352.83 41.01
  Q 358.64 41.08 364.16 41.60
  C 369.23 42.09 374.33 42.54 379.34 43.34
  Q 427.17 50.92 465.22 81.05
  Q 507.85 114.81 526.24 165.98
  Q 526.81 167.57 527.13 169.36
  Q 527.23 169.93 526.66 169.93
  L 515.87 170.04
  Q 515.40 170.04 515.24 169.60
  Q 495.41 116.01 449.48 84.17
  Q 417.15 61.77 376.28 55.18
  C 369.93 54.16 363.34 53.78 356.87 53.21
  Q 350.27 52.63 342.95 53.10
  Q 330.94 53.87 316.56 56.46
  C 292.12 60.85 268.14 71.52 248.23 85.69
  Z"
/>
<path d="
  M 124.87 251.43
  L 116.80 252.52
  Q 102.60 221.31 87.97 190.27
  C 86.65 187.47 84.23 183.11 88.14 181.19
  C 90.98 179.80 93.04 182.02 94.17 184.52
  Q 109.39 218.01 124.87 251.43
  Z"
/>
<path d="
  M 190.35 235.56
  Q 189.48 235.26 189.05 234.19
  Q 188.83 233.65 188.24 233.73
  L 186.09 234.03
  Q 185.91 234.06 185.96 233.89
  Q 186.01 233.69 185.81 233.54
  Q 185.42 233.25 185.10 233.62
  Q 184.99 233.75 184.95 233.92
  Q 184.90 234.12 184.70 234.16
  Q 184.15 234.27 183.91 233.74
  Q 183.85 233.61 183.97 233.53
  Q 184.11 233.44 184.10 233.27
  Q 184.08 233.07 183.90 232.99
  L 183.16 232.69
  L 205.66 183.43
  Q 207.29 179.85 211.01 181.16
  Q 211.17 181.22 211.34 181.30
  Q 214.79 183.02 213.17 186.51
  L 190.35 235.56
  Z"
/>
<path d="
  M 333.97 208.52
  Q 333.51 209.23 333.36 209.99
  Q 333.32 210.21 333.16 210.06
  Q 333.00 209.92 333.13 209.74
  A 0.05 0.05 0.0 0 0 333.07 209.66
  Q 330.94 210.11 328.74 210.30
  A 0.98 0.96 -12.9 0 0 327.90 211.60
  Q 328.01 211.90 327.71 212.08
  Q 327.38 212.27 327.25 212.63
  Q 326.89 213.60 326.02 214.22
  Q 325.96 200.60 326.03 187.00
  Q 326.04 184.52 326.59 182.63
  A 1.44 1.42 -7.1 0 1 327.26 181.78
  Q 328.81 180.90 330.69 180.90
  Q 369.78 180.83 409.62 180.91
  C 415.44 180.92 415.76 188.87 409.25 188.91
  Q 372.51 189.09 334.60 188.97
  Q 334.04 188.96 334.04 189.52
  L 333.97 208.52
  Z"
/>
<path d="
  M 434.82 224.02
  Q 434.13 224.65 433.90 225.15
  Q 433.64 225.70 433.03 225.71
  Q 432.36 225.73 431.82 226.25
  Q 431.42 226.63 430.88 226.69
  Q 428.92 226.90 427.23 227.93
  Q 426.92 228.12 427.12 227.81
  Q 427.15 227.76 427.13 227.70
  Q 427.03 227.36 426.72 227.54
  Q 426.64 227.58 426.59 227.66
  Q 426.29 228.14 426.39 227.58
  Q 426.64 226.21 426.02 225.94
  Q 425.94 205.75 426.05 185.50
  Q 426.08 180.86 430.62 180.85
  Q 469.59 180.82 510.20 180.93
  Q 513.58 180.94 514.11 184.85
  Q 514.12 184.95 514.11 185.03
  Q 513.53 188.95 509.00 188.96
  Q 470.18 189.04 434.54 188.98
  Q 434.00 188.98 434.00 189.52
  L 434.00 223.55
  Q 434.00 224.00 434.44 224.04
  Q 434.62 224.06 434.82 224.02
  Z"
/>
<path d="
  M 233.98 213.69
  Q 233.55 213.88 233.59 214.60
  Q 233.63 215.68 233.10 214.75
  Q 232.96 214.50 232.74 214.32
  Q 232.47 214.11 232.39 214.44
  Q 232.21 215.10 231.55 214.88
  Q 229.43 214.17 227.86 215.13
  Q 227.42 215.39 227.11 214.98
  Q 226.67 214.41 226.02 214.18
  Q 225.93 199.94 226.07 185.06
  C 226.12 179.76 233.96 179.41 233.98 184.78
  Q 234.03 199.65 233.98 213.69
  Z"
/>
<path d="
  M 313.98 221.21
  Q 313.70 221.19 313.63 221.45
  Q 313.49 222.05 313.20 221.52
  Q 312.98 221.13 312.73 221.52
  Q 312.52 221.85 312.38 221.49
  Q 312.32 221.36 312.17 221.27
  Q 311.92 221.11 311.68 221.28
  Q 310.92 221.84 309.73 221.87
  A 1.32 1.28 21.5 0 0 308.89 222.22
  Q 307.86 223.19 306.04 222.89
  Q 305.91 204.24 306.08 184.87
  C 306.13 179.60 313.86 179.66 313.91 184.92
  Q 314.09 203.18 313.98 221.21
  Z"
/>
<path d="
  M 533.98 212.21
  Q 533.70 212.21 533.64 212.50
  Q 533.53 213.01 533.20 212.65
  Q 533.01 212.45 532.95 212.68
  A 0.13 0.13 0.0 0 1 532.73 212.74
  Q 530.99 211.10 528.71 212.08
  Q 528.45 212.19 528.44 212.46
  L 528.32 214.37
  Q 528.27 215.12 527.78 214.56
  L 526.79 213.42
  L 525.97 185.80
  Q 525.86 181.89 529.69 181.09
  Q 529.89 181.05 530.10 181.01
  Q 533.95 180.21 533.95 184.15
  L 533.98 212.21
  Z"
/>
</g>
<g fill="#d1c1ec">
<path d="
  M 333.97 208.52
  L 333.99 223.47
  A 0.53 0.52 90.0 0 0 334.51 224.00
  Q 370.83 223.96 410.01 224.06
  Q 413.64 224.07 413.72 227.92
  Q 413.73 228.00 413.72 228.08
  Q 413.42 231.93 409.65 231.94
  Q 373.37 232.03 334.54 232.01
  Q 334.04 232.01 334.04 232.51
  L 334.01 253.50
  Q 332.52 251.37 328.21 252.22
  Q 327.71 252.32 327.39 252.70
  Q 326.25 254.06 326.04 255.71
  L 326.02 214.22
  Q 326.89 213.60 327.25 212.63
  Q 327.38 212.27 327.71 212.08
  Q 328.01 211.90 327.90 211.60
  A 0.98 0.96 -12.9 0 1 328.74 210.30
  Q 330.94 210.11 333.07 209.66
  A 0.05 0.05 0.0 0 1 333.13 209.74
  Q 333.00 209.92 333.16 210.06
  Q 333.32 210.21 333.36 209.99
  Q 333.51 209.23 333.97 208.52
  Z"
/>
<path d="
  M 533.98 212.21
  L 533.98 252.64
  Q 531.05 251.07 526.77 252.02
  L 526.79 213.42
  L 527.78 214.56
  Q 528.27 215.12 528.32 214.37
  L 528.44 212.46
  Q 528.45 212.19 528.71 212.08
  Q 530.99 211.10 532.73 212.74
  A 0.13 0.13 0.0 0 0 532.95 212.68
  Q 533.01 212.45 533.20 212.65
  Q 533.53 213.01 533.64 212.50
  Q 533.70 212.21 533.98 212.21
  Z"
/>
<path d="
  M 233.98 213.69
  L 234.05 223.48
  Q 234.06 224.00 234.58 224.00
  Q 269.90 224.00 305.54 224.00
  Q 305.87 224.00 305.98 223.70
  Q 306.08 223.41 306.04 222.89
  Q 307.86 223.19 308.89 222.22
  A 1.32 1.28 21.5 0 1 309.73 221.87
  Q 310.92 221.84 311.68 221.28
  Q 311.92 221.11 312.17 221.27
  Q 312.32 221.36 312.38 221.49
  Q 312.52 221.85 312.73 221.52
  Q 312.98 221.13 313.20 221.52
  Q 313.49 222.05 313.63 221.45
  Q 313.70 221.19 313.98 221.21
  L 313.99 252.13
  L 306.02 252.40
  L 306.02 232.30
  A 0.30 0.30 0.0 0 0 305.72 232.00
  L 234.53 232.00
  Q 234.05 232.00 234.04 232.48
  L 234.00 252.20
  L 226.02 252.10
  L 226.02 214.18
  Q 226.67 214.41 227.11 214.98
  Q 227.42 215.39 227.86 215.13
  Q 229.43 214.17 231.55 214.88
  Q 232.21 215.10 232.39 214.44
  Q 232.47 214.11 232.74 214.32
  Q 232.96 214.50 233.10 214.75
  Q 233.63 215.68 233.59 214.60
  Q 233.55 213.88 233.98 213.69
  Z"
/>
<path d="
  M 164.75 251.43
  L 157.03 253.03
  L 150.41 238.49
  Q 150.00 237.60 149.35 238.33
  Q 149.08 238.64 148.67 239.49
  Q 145.44 246.31 142.47 252.81
  L 134.52 251.63
  Q 140.29 238.99 145.84 227.30
  C 146.68 225.52 148.79 222.84 151.00 224.29
  Q 153.18 225.72 154.26 228.14
  Q 159.24 239.29 164.75 251.43
  Z"
/>
<path d="
  M 434.82 224.02
  Q 472.11 223.95 509.94 224.05
  Q 513.76 224.06 513.85 227.92
  Q 513.85 228.01 513.84 228.09
  Q 513.52 231.95 509.75 231.96
  Q 471.81 232.02 434.55 232.01
  Q 434.04 232.01 434.04 232.52
  L 434.01 252.79
  Q 428.52 250.93 426.03 253.47
  L 426.02 225.94
  Q 426.64 226.21 426.39 227.58
  Q 426.29 228.14 426.59 227.66
  Q 426.64 227.58 426.72 227.54
  Q 427.03 227.36 427.13 227.70
  Q 427.15 227.76 427.12 227.81
  Q 426.92 228.12 427.23 227.93
  Q 428.92 226.90 430.88 226.69
  Q 431.42 226.63 431.82 226.25
  Q 432.36 225.73 433.03 225.71
  Q 433.64 225.70 433.90 225.15
  Q 434.13 224.65 434.82 224.02
  Z"
/>
<path d="
  M 183.16 232.69
  L 183.90 232.99
  Q 184.08 233.07 184.10 233.27
  Q 184.11 233.44 183.97 233.53
  Q 183.85 233.61 183.91 233.74
  Q 184.15 234.27 184.70 234.16
  Q 184.90 234.12 184.95 233.92
  Q 184.99 233.75 185.10 233.62
  Q 185.42 233.25 185.81 233.54
  Q 186.01 233.69 185.96 233.89
  Q 185.91 234.06 186.09 234.03
  L 188.24 233.73
  Q 188.83 233.65 189.05 234.19
  Q 189.48 235.26 190.35 235.56
  L 182.57 252.36
  L 174.35 251.79
  L 183.16 232.69
  Z"
/>
<path d="
  M 207.32 329.73
  Q 201.75 330.06 196.27 330.12
  C 195.43 330.13 194.99 330.54 194.63 331.22
  Q 181.30 311.40 172.82 286.69
  Q 172.49 285.73 173.50 285.73
  L 184.12 285.73
  Q 184.61 285.73 184.77 286.20
  Q 193.02 309.47 207.32 329.73
  Z"
/>
<path d="
  M 505.94 330.38
  L 492.46 329.82
  Q 503.75 314.01 511.15 296.43
  Q 513.24 291.45 515.23 286.28
  Q 515.45 285.73 516.03 285.73
  L 526.48 285.73
  Q 527.54 285.73 527.20 286.74
  Q 519.16 310.55 505.94 330.38
  Z"
/>
</g>
</svg>
