<svg enable-background="new 0 0 566.929 129.21" height="150.6516" viewBox="0 0 593.13286 120.52128" width="741.41608" xmlns="http://www.w3.org/2000/svg"><g transform="matrix(.10252157 0 0 .10252157 149.66656 -3.581866)"><text fill="#ef00eb" font-family="TrasksHand" font-size="15.6065" stroke="#0105ff" stroke-width="19.5081" x="2167.3857" y="960.78595"><tspan fill="#fafafa" fill-opacity=".4" font-size="15.6065" stroke="none" stroke-width="19.5081" x="2167.3857" y="960.78595">John Loreth 2022</tspan></text><path d="m-1156.4036 289.56797h5292.9403c120.4937 0 209.376 89.0658 185.0151 179.98179l-87.6189 319.44057c-21.9525 80.03433-110.3027 149.80211-193.2931 149.80211h-5347.304c-82.9904 0-171.7547-69.76781-149.8022-149.80211l95.897-349.62025c18.7065-68.20003 90.9733-149.80211 204.1658-149.80211z" fill="#2285c8"/><path d="m-609.38278 34.937686h2683.87658c152.4609 0 301.3058 161.678464 251.8204 342.091594l-114.9204 418.97603c-78.5424 293.12439-276.2284 409.51379-433.4763 414.50229h-2673.77249c-150.27311 0-311.00111-126.3307-271.25111-271.25118l169.81586-619.11333c41.77631-155.91104 253.84899-280.673069 387.90746-285.205404z" fill="#050608"/><g style="font-weight:bold;font-size:1248.52;font-family:Dynamo D;letter-spacing:0;fill:#ed1e24;stroke-width:32.5135" transform="matrix(.75 0 -.2009618925 .75 -231.55837 148.37249)"><text x="-761.14325" y="1073.6993"><tspan fill="#ed1e24" font-family="Dynamo" font-size="1248.52" font-weight="100" stroke-width="32.5135" x="-761.14325" y="1073.6993">T</tspan></text><text x="-156.39218" y="1073.6993"><tspan fill="#ed1e24" font-family="Dynamo" font-size="1248.52" font-weight="100" stroke-width="32.5135" x="-156.39218" y="1073.6993">O</tspan></text><text x="819.0127" y="1073.6993"><tspan fill="#ed1e24" font-family="Dynamo" font-size="1248.52" font-weight="100" stroke-width="32.5135" x="819.0127" y="1073.6993">D</tspan></text><text x="1638.3517" y="1073.6993"><tspan fill="#ed1e24" font-family="Dynamo" font-size="1248.52" font-weight="100" stroke-width="32.5135" x="1638.3517" y="1073.6993">O</tspan></text><text x="2613.7546" y="1073.6993"><tspan fill="#ed1e24" font-family="Dynamo" font-size="1248.52" font-weight="100" stroke-width="32.5135" x="2613.7546" y="1073.6993">S</tspan></text></g><g fill="#fff" stroke-width="24.3851" transform="matrix(.99612746 0 -.22780655 1.0038876 0 0)"><path d="m2598.4556 781.17651-12.7996-6.3998 27.5684-101.90444 7.3843 5.41521q13.7842 7.87667 24.6146 7.87667 19.6917 0 22.6455-15.26105 3.446-15.75334 3.446-21.16855v-109.28883h-78.2744l25.1069-105.35048h162.9486v238.26932q0 9.35355-1.4768 18.7071-1.4769 9.35354-10.3382 36.4296-8.8612 27.07606-34.4604 42.82941-25.1069 15.75334-42.3371 19.69168-17.2302 3.93833-38.3988 3.93833-25.5992 0-55.629-13.78417z"/><path d="m2807.68 635.45808q-.9846-7.38438-1.4769-15.26105-.4923-7.87668-.4923-22.64544 0-12.3073 2.9538-25.10689 3.446-12.79959 13.7842-39.87565 10.8304-27.07606 41.3525-53.16753 30.5221-26.58377 56.1213-36.9219 25.5992-10.83043 60.0596-13.78418 4.4306 0 8.8612 0 4.4307 0 8.8613-.49229 6.8921 0 10.3381.49229 24.1223 0 44.3063 6.89209 20.184 6.39979 43.814 21.16855 24.1223 14.27647 37.9065 30.52211 13.7842 15.75334 22.6454 29.53752 9.3536 13.78417 15.7534 31.99898 6.3998 18.2148 8.8612 37.41419 2.4615 18.70709 2.4615 30.5221 0 32.98357-13.2919 63.01338-12.7996 30.02981-26.5838 47.26003-13.2919 16.73793-31.0144 29.53752-17.2302 12.79959-31.5067 19.69168-14.2764 6.89209-30.5221 11.81501-15.7533 4.43062-33.9681 5.9075-18.2148 1.47688-35.445 1.47688l-25.5992-3.44605q-30.5221-5.9075-52.6753-17.23022-21.6608-11.81501-44.3062-34.46044-22.1532-22.64543-34.4605-47.26003-12.3073-25.10689-16.7379-57.59816zm115.1963-16.73793q2.4615 24.12231 18.7071 41.35253 16.7379 17.23022 30.5221 19.69168 14.2765 2.46146 17.2302 2.46146 2.9538 0 6.3998 0 2.9538 0 5.9075 0 3.9384-.98459 24.1223-3.93834 20.184-3.44604 28.553-24.6146 8.8612-21.16855 9.8458-26.09147 1.4769-4.92292 1.4769-10.83043 0-29.04523-15.7533-49.72149-15.7534-20.67626-31.999-23.13772-15.7534-2.95375-22.6455-2.95375-10.3381 0-18.707 1.96916-7.8767 1.96917-18.2149 7.87667-9.8458 5.41522-23.1377 19.69168-12.7996 14.27647-12.7996 39.87566 0 5.41521.4923 8.36896z"/><path d="m3313.2636 441.49503q17.7225-6.89209 34.9528-10.33813 17.2302-3.44604 32.4912-3.44604 31.999 0 56.6136 13.78417l6.8921-6.39979 77.2898 40.86023-79.259 84.18193-5.9075-3.44604-9.3535-4.43063q-14.2765-6.39979-21.6609-7.87667-7.3843-1.47688-13.2919-1.96917-5.9075-.49229-11.3227-.49229-46.2754 0-57.5981 23.63001-10.8305 23.13773-12.3073 27.56836-1.4769 4.43062-1.4769 12.3073-.4923 3.93833-.4923 10.83042 0 28.55294 17.7225 46.27545 17.7225 17.23022 33.4759 21.16855 15.7533 3.44605 26.5837 3.44605 19.6917 0 29.0453-6.89209 9.3535-6.89209 12.3073-10.33813 3.446-3.44605 7.3843-8.36897h-57.1058l24.1223-91.56631h164.9178l.4923 6.89209.4923 8.36896q0 29.04523-6.8921 59.56734-6.3998 30.5221-17.2302 52.67524-10.3382 21.66085-28.553 40.36794-18.2148 18.21481-37.4142 31.0144-18.707 12.3073-41.8448 19.69168-22.6454 7.38438-48.2446 7.38438-11.815 0-38.8911-2.95375-27.076-2.46146-50.706-15.75335-23.1378-13.29188-34.4605-22.64543-11.3227-9.35355-29.0452-30.02981-17.2302-21.16856-27.5683-49.2292-10.3382-28.55294-10.3382-66.45942 0-52.18295 18.2148-79.7513 18.2148-28.06065 31.999-42.33711 14.2765-14.76876 31.0144-26.09148 16.7379-11.81501 34.9527-19.19939z"/><path d="m3584.5163 635.45808q-.9845-7.38438-1.4768-15.26105-.4923-7.87668-.4923-22.64544 0-12.3073 2.9537-25.10689 3.4461-12.79959 13.7842-39.87565 10.8304-27.07606 41.3525-53.16753 30.5221-26.58377 56.1213-36.9219 25.5992-10.83043 60.0596-13.78418 4.4307 0 8.8613 0 4.4306 0 8.8613-.49229 6.892 0 10.3381.49229 24.1223 0 44.3063 6.89209 20.1839 6.39979 43.814 21.16855 24.1223 14.27647 37.9064 30.52211 13.7842 15.75334 22.6455 29.53752 9.3535 13.78417 15.7533 31.99898 6.3998 18.2148 8.8613 37.41419 2.4614 18.70709 2.4614 30.5221 0 32.98357-13.2919 63.01338-12.7995 30.02981-26.5837 47.26003-13.2919 16.73793-31.0144 29.53752-17.2302 12.79959-31.5067 19.69168-14.2765 6.89209-30.5221 11.81501-15.7534 4.43062-33.9682 5.9075-18.2148 1.47688-35.445 1.47688l-25.5992-3.44605q-30.5221-5.9075-52.6752-17.23022-21.6609-11.81501-44.3063-34.46044-22.1531-22.64543-34.4604-47.26003-12.3073-25.10689-16.738-57.59816zm115.1964-16.73793q2.4614 24.12231 18.7071 41.35253 16.7379 17.23022 30.5221 19.69168 14.2764 2.46146 17.2302 2.46146 2.9537 0 6.3998 0 2.9537 0 5.9075 0 3.9383-.98459 24.1223-3.93834 20.184-3.44604 28.5529-24.6146 8.8613-21.16855 9.8459-26.09147 1.4769-4.92292 1.4769-10.83043 0-29.04523-15.7534-49.72149-15.7533-20.67626-31.999-23.13772-15.7533-2.95375-22.6454-2.95375-10.3381 0-18.7071 1.96916-7.8767 1.96917-18.2148 7.87667-9.8458 5.41522-23.1377 19.69168-12.7996 14.27647-12.7996 39.87566 0 5.41521.4923 8.36896z"/><path d="m4031.025 784.13026q-27.5684-8.36896-52.6753-22.15314l28.0607-102.39673 16.2456 7.38438q28.0606 12.30729 44.7986 18.2148 17.2302 5.41521 25.1069 5.41521 2.9537.49229 4.9229.49229 1.9691 0 2.4614 0 7.8767 0 15.7534-3.44604 7.8766-3.93834 7.8766-13.78418 0-3.44604-2.9537-7.87667-2.4615-4.43063-6.8921-6.39979l-1.9692-.98459-17.7225-6.89209-42.8294-16.24563q-37.4142-14.27647-54.6444-38.89107-16.7379-25.10689-16.7379-64.49025 0-26.09148 10.3381-46.27545 10.8304-20.18397 28.553-33.47585 18.2148-13.29189 35.445-18.21481 17.2302-5.41521 44.7985-5.41521 9.3536 0 19.6917.49229 10.3382.49229 20.6763 1.96917l3.446-11.81501 93.0432 18.21481-31.5067 112.73486q-21.6608-13.29188-45.7831-19.69168-23.63-6.89208-35.445-6.89208-6.3998 0-12.7996 1.96916-5.9075 1.96917-8.8613 5.90751-2.9537 3.93833-2.9537 8.86125 0 3.93834 2.4614 7.38438 2.9538 3.44605 7.3844 4.92292l50.7061 18.21481 16.7379 6.89208q64.4903 33.96815 64.4903 97.96611 0 8.36896-2.9538 27.07606-2.9538 18.2148-18.2148 38.89107-14.7688 20.67626-29.5375 31.01439-14.7688 10.33814-34.9528 16.73793-20.1839 6.89209-56.1212 6.89209-13.7842 0-28.0607-2.46146-14.2765-2.46146-39.3833-9.84584z"/></g></g></svg>