<?xml version="1.0" encoding="UTF-8" standalone="no"?>
<svg
   width="666.04053pt"
   height="152.01385pt"
   viewBox="0 0 732.64461 167.21524"
   version="1.1"
   id="svg25"
   sodipodi:docname="auto-neverplayed-es.svg"
   inkscape:version="1.1.2 (0a00cf5339, 2022-02-04, custom)"
   xmlns:inkscape="http://www.inkscape.org/namespaces/inkscape"
   xmlns:sodipodi="http://sodipodi.sourceforge.net/DTD/sodipodi-0.dtd"
   xmlns:xlink="http://www.w3.org/1999/xlink"
   xmlns="http://www.w3.org/2000/svg"
   xmlns:svg="http://www.w3.org/2000/svg">
  <defs
     id="defs29">
    <linearGradient
       inkscape:collect="always"
       id="linearGradient853">
      <stop
         style="stop-color:#000000;stop-opacity:1;"
         offset="0"
         id="stop849" />
      <stop
         style="stop-color:#000000;stop-opacity:0;"
         offset="1"
         id="stop851" />
    </linearGradient>
    <radialGradient
       inkscape:collect="always"
       xlink:href="#linearGradient853"
       id="radialGradient857"
       cx="60.35236"
       cy="253.12825"
       fx="60.35236"
       fy="253.12825"
       r="52.697178"
       gradientTransform="matrix(1,0,0,0.19039974,0,204.9327)"
       gradientUnits="userSpaceOnUse" />
  </defs>
  <sodipodi:namedview
     id="namedview27"
     pagecolor="#ffffff"
     bordercolor="#111111"
     borderopacity="1"
     inkscape:pageshadow="0"
     inkscape:pageopacity="0"
     inkscape:pagecheckerboard="1"
     inkscape:document-units="pt"
     showgrid="false"
     scale-x="1.1"
     fit-margin-top="0"
     fit-margin-left="0"
     fit-margin-right="0"
     fit-margin-bottom="0"
     inkscape:zoom="0.73220992"
     inkscape:cx="282.70581"
     inkscape:cy="108.57542"
     inkscape:window-width="1366"
     inkscape:window-height="703"
     inkscape:window-x="0"
     inkscape:window-y="0"
     inkscape:window-maximized="1"
     inkscape:current-layer="layer1" />
  <g
     id="layer1"
     inkscape:label="NeverPlayedES"
     transform="translate(-126.38361,-56.337858)">
    <text
       xml:space="preserve"
       style="font-size:1.5px;line-height:1.25;font-family:TrasksHand;-inkscape-font-specification:TrasksHand;text-decoration-color:#000000;fill:#ef00eb;stroke:#0105ff;stroke-width:1.875;-inkscape-stroke:none;stop-color:#000000"
       x="624.0921"
       y="105.66261"
       id="text4082"
       inkscape:label="Signature"><tspan
         sodipodi:role="line"
         id="tspan4080"
         style="font-size:1.5px;fill:#fafafa;fill-opacity:0.4;stroke:none;stroke-width:1.875"
         x="624.0921"
         y="105.66261">John Loreth 2022</tspan></text>
    <path
       id="path12903"
       style="font-size:164.06px;line-height:1.25;font-family:'Caflisch Script';-inkscape-font-specification:'Caflisch Script';letter-spacing:-3.4611px;fill:#333333;fill-opacity:1;stroke-width:1.875"
       d="m 749.41406,56.341797 c -4.21057,0.06186 -7.85625,3.11938 -9.60388,6.802971 -4.73391,10.214875 -8.89232,20.681292 -13.21615,31.07181 -0.56616,1.374916 -1.12581,2.752146 -1.68778,4.129125 -8.58282,-0.186718 -17.04267,2.932127 -23.85979,8.064547 -6.6571,4.92844 -12.05626,11.35916 -16.65867,18.19824 -1.32259,1.95808 -2.42528,4.07817 -4.07138,5.79581 -2.60232,3.00602 -5.37578,6.07179 -8.42188,8.72265 0.1561,-2.21596 0.44039,-4.24026 0.87549,-6.41068 0.30237,-1.54963 0.62668,-2.91147 1.03966,-4.45376 0.41439,-1.55727 0.99471,-3.43371 1.5318,-4.95691 1.0415,-3.16918 2.50708,-6.27512 3.61555,-9.4599 1.1304,-4.2766 -0.68053,-9.09074 -4.27589,-11.64212 -2.66552,-2.245583 -6.16071,-3.998203 -9.73192,-3.340299 -0.55593,-0.157873 -1.02268,-0.72197 -1.58375,-0.983567 -2.64049,-1.623271 -5.88055,-2.223736 -8.92159,-1.594579 -7.43586,1.064077 -14.11009,5.068325 -19.70737,9.920275 -3.96497,3.44196 -7.53564,7.31508 -10.8537,11.37857 1.64345,-5.91866 -0.45589,-12.53876 -4.85758,-16.74047 -2.78569,-2.762365 -6.52168,-4.492575 -10.41682,-4.910706 -5.61476,-0.723508 -11.21737,0.8717 -16.40233,2.897038 -6.60866,2.729308 -12.45621,6.972558 -17.96386,11.468418 -5.04738,4.24184 -9.49873,9.17175 -13.34009,14.52264 -3.54334,3.56944 -7.12251,7.12611 -10.96238,10.30078 -0.61817,0.51338 -1.24783,1.01222 -1.8792,1.50918 1.42462,-5.51754 3.41911,-11.00168 5.9868,-16.16465 1.66212,-3.32192 3.82784,-6.66496 3.77156,-10.5205 0.0342,-7.34283 -6.26625,-14.127835 -13.62406,-14.50771 -4.41241,-0.325948 -8.57027,2.20225 -11.22841,5.57923 -2.71907,3.34363 -4.74142,7.17115 -7.10706,10.75816 0.003,-3.26441 -1.59072,-6.32321 -3.8233,-8.63027 -2.84446,-2.98801 -6.68154,-5.133107 -10.7936,-5.677499 -3.86013,-0.475581 -7.86741,0.836782 -10.71074,3.488609 -2.54403,2.23444 -4.09757,5.30163 -5.55651,8.29577 -0.85208,1.65746 -1.66877,3.33301 -2.45765,5.02144 1.17768,-4.12901 2.25321,-8.31907 3.98577,-12.25932 0.6301,-1.48091 1.65967,-2.720469 2.67562,-3.944286 3.48955,-4.755432 2.8647,-12.019528 -1.45432,-16.061554 -3.82542,-3.868197 -9.46809,-5.818263 -14.86593,-5.304237 -3.54358,0.421397 -6.64592,2.505055 -9.13997,4.938535 -1.96555,0.366067 -3.9577,0.626521 -5.88169,1.195996 -3.82992,1.064191 -7.61951,3.375795 -9.28628,7.128223 -1.87201,4.214169 -0.82074,9.494222 2.49091,12.695893 1.03032,1.11362 2.2329,2.06599 3.53839,2.83731 -5.06459,18.10944 -10.01891,36.26125 -16.61733,53.89755 -1.36264,3.45905 -2.75976,7.00062 -4.98423,10.07511 -0.66034,0.79214 -1.40801,1.66547 -2.34375,2.06836 -1.89953,-0.98574 -3.90063,-1.85401 -6.01172,-2.42188 -3.84134,-1.26827 -8.18038,-1.56985 -11.95232,0.0968 -4.11163,1.67502 -7.65851,5.34229 -8.24317,9.86523 -0.53236,4.64816 1.71877,9.19553 4.87516,12.48092 2.99522,2.90608 7.05573,4.27537 10.93867,5.54273 3.98596,1.18116 8.32681,1.3285 12.30321,0.024 6.20029,-1.67332 12.2951,-4.09042 17.48185,-7.94381 5.59265,-4.03518 10.23674,-9.39304 13.30859,-15.57629 3.05073,-5.81381 5.35581,-11.98254 7.42082,-18.20439 0.8934,5.09902 3.77308,10.0408 8.32457,12.67482 3.43601,1.9076 7.62455,1.81325 11.2933,0.6724 5.51776,-1.60176 10.069,-5.27796 14.59028,-8.66587 1.22037,-0.93427 2.41344,-1.90358 3.59654,-2.88448 0.70699,4.42111 3.06918,8.77711 7.03916,11.05008 2.79011,1.66718 6.17012,2.10516 9.34974,1.59606 4.3491,-0.58635 8.48873,-2.20716 12.42974,-4.08202 2.08725,-1.00465 4.13509,-2.28428 6.06808,-3.43912 2.29125,3.84023 6.22421,7.00765 10.80694,7.33532 4.26011,0.32268 8.38065,-1.19181 12.26141,-2.76891 2.21242,-0.95496 4.41063,-2.13086 6.45508,-3.30469 -2.18153,8.24285 -4.74224,16.56154 -9.5228,23.71485 -2.48188,3.65256 -5.29091,7.22841 -8.99642,9.7102 -1.24283,0.7626 -2.66872,1.50617 -4.16046,1.41089 -1.61524,-0.49255 -2.78729,-1.80934 -4.1504,-2.74219 -3.5366,-2.69671 -7.95214,-4.75808 -12.49824,-4.18532 -4.77589,0.63215 -8.99351,3.49014 -12.16582,7.00563 -2.71165,3.11365 -4.31805,7.49554 -3.2034,11.59298 1.0422,4.09571 4.2495,7.30387 7.92248,9.20577 3.53637,1.94086 7.58273,2.82421 11.59591,2.8784 2.64222,0.52717 5.26136,1.30217 7.9785,1.29628 3.97001,0.30506 7.98896,-0.29352 11.71121,-1.70187 9.69335,-3.18664 18.65678,-8.8547 25.2453,-16.69734 7.78907,-9.10731 12.96672,-20.21435 16.08076,-31.7277 0.96212,-3.40521 1.77872,-6.93581 2.63604,-10.31331 2.32583,2.9821 5.51413,5.39431 9.16299,6.47708 4.08623,1.19385 8.44805,0.12827 12.21214,-1.60861 4.93509,-2.36162 9.15908,-5.92127 13.29479,-9.4466 2.19481,5.15661 6.59454,9.51048 12.08399,10.97266 4.41548,1.23931 9.15213,0.48643 13.31687,-1.27383 2.24948,-0.90948 4.39451,-2.19359 6.41945,-3.43516 2.506,3.40764 6.60638,5.62088 10.86133,5.62305 5.00667,0.13179 9.77686,-1.76399 14.2537,-3.808 4.80098,-2.31138 9.19373,-5.39212 13.26779,-8.80919 1.60262,4.80023 5.20163,9.12275 10.08676,10.77296 4.89193,1.71471 10.27612,0.75928 14.9647,-1.14167 3.47876,-1.39215 6.69554,-3.36796 9.7044,-5.58637 2.85645,4.55804 7.70377,8.08604 13.168,8.49666 4.21407,0.38335 8.44165,-0.392 12.50429,-1.45779 6.94789,-1.98728 13.28844,-5.79152 18.66755,-10.57793 -0.0559,3.04902 1.22068,6.06492 3.43386,8.1615 3.46315,3.52748 8.36736,5.26622 13.19318,5.83065 4.36134,0.41906 8.72511,-0.73986 12.62425,-2.64398 4.0823,-1.84617 8.00909,-4.07779 11.59888,-6.76059 3.6912,-3.10297 6.21713,-7.54782 7.12249,-12.27312 0.73042,-4.26021 -0.51105,-8.58889 -2.33842,-12.41374 -1.73224,-3.66055 -4.27568,-6.83298 -6.59407,-10.1245 -0.51734,-0.76905 -1.02152,-1.55396 -1.38587,-2.40903 2.24792,-1.34138 4.87109,-1.93447 7.3475,-2.48893 2.88625,-0.57089 5.84836,-0.44193 8.75601,-0.80209 4.86819,-0.81225 9.18564,-4.88852 9.71252,-9.88705 0.84459,-5.34087 -2.05582,-10.95339 -6.77819,-13.52821 -5.22673,-3.190555 -11.71311,-3.564896 -17.60248,-2.387605 -9.21143,1.697778 -17.77741,6.702285 -23.71552,13.955855 -0.46197,0.55495 -0.9047,1.12622 -1.32922,1.7103 -1.55904,-3.23765 -3.87211,-6.14539 -6.77734,-8.25977 -0.69234,-3.88944 -3.15969,-7.572035 -6.85913,-9.156544 -4.69426,-2.214354 -10.38988,-1.840274 -14.96314,0.49834 -1.84407,0.992228 -3.49074,2.311079 -5.00586,3.748047 -4.49409,0.225033 -8.57808,3.069907 -10.89407,6.844047 -1.29843,2.04999 -1.99305,4.43244 -2.21335,6.83369 -0.65074,1.09081 -1.49706,2.06118 -2.20794,3.11832 -2.22496,3.03897 -4.18691,6.25807 -6.05679,9.52312 -1.47986,2.16215 -3.35514,4.01531 -5.04386,6.0109 -1.77541,1.96563 -3.60089,3.88816 -5.52344,5.71094 1.21399,-7.79736 3.1065,-15.38657 5.37477,-22.94869 3.47078,-11.69751 8.58288,-22.821669 13.57754,-33.907381 1.40811,-3.256447 2.54854,-6.82022 1.9715,-10.406761 -0.47962,-3.583445 -2.65826,-6.688232 -5.18558,-9.163701 -2.3163,-2.193455 -5.22222,-3.93063 -8.45848,-4.202339 -0.58971,-0.06943 -1.18456,-0.08486 -1.7778,-0.0723 z M 217.12695,76.548828 c -5.40024,0.218161 -10.25562,3.549383 -13.34805,7.838083 -4.73635,6.466497 -7.43033,14.088559 -10.63279,21.361339 -1.54779,3.69595 -3.02284,7.42236 -4.43127,11.17363 -3.61488,-6.08548 -7.28257,-12.14069 -10.78711,-18.291021 1.55022,-2.89863 1.97816,-6.464082 0.75473,-9.563715 -1.67733,-4.808239 -5.82207,-8.872729 -10.92005,-9.787927 -5.76198,-1.180923 -12.28173,1.176553 -15.47136,6.23045 -0.64317,0.931694 -1.18486,1.936831 -1.56644,3.004005 -3.3625,2.57011 -6.11953,6.229305 -6.86693,10.463505 -0.51095,3.079983 0.37965,6.320473 2.32396,8.753293 -5.68063,13.388 -11.7027,26.62778 -17.48271,39.97159 -1.57213,3.91751 -2.92871,8.20821 -2.02556,12.45864 0.93742,5.00914 4.57664,9.53626 9.48477,11.11033 5.52758,1.92054 11.87993,0.25429 16.20859,-3.55154 4.48025,-3.75368 7.62231,-9.25921 7.96964,-15.15128 0.24136,-2.73192 0.12323,-5.37558 0.4051,-8.07658 0.71342,-3.9534 2.41762,-7.62237 3.9597,-11.30218 4.10076,7.10858 8.29447,14.161 12.64128,21.12123 1.64684,2.75052 3.01631,5.66851 4.77802,8.347 3.09561,4.1908 7.99424,7.07078 13.19032,7.59159 4.00323,0.34708 8.15368,-1.12507 10.90585,-4.08484 0.34124,-0.3105 0.64884,-0.95567 0.98606,-0.32729 2.60608,2.66397 6.33975,4.2796 10.09291,3.95434 5.56966,-0.27829 10.62116,-3.07837 15.03992,-6.28503 2.8282,-1.9832 5.57455,-4.08153 8.24845,-6.26817 0.67897,4.44623 3.01553,8.82615 6.96548,11.1666 2.95033,1.80475 6.56002,2.23748 9.93101,1.65957 4.51228,-0.68744 8.82547,-2.34939 12.90755,-4.34883 1.77879,-0.89145 3.50679,-1.88235 5.18815,-2.94609 3.71175,4.37253 9.27759,6.96181 14.96201,7.39029 7.64876,0.6932 15.25231,-1.43456 22.20092,-4.47967 6.20687,-2.74533 11.96136,-6.43889 17.26871,-10.65281 0.40461,4.03357 2.4959,7.7553 5.43083,10.50158 3.22607,3.0548 7.65407,5.14076 12.17074,4.70155 5.37816,-0.48801 10.20807,-3.28062 14.49054,-6.39858 2.27727,-1.66677 4.44686,-3.50428 6.60125,-5.30455 2.16156,5.14313 6.49964,9.48851 11.92912,11.04334 4.40062,1.34793 9.17689,0.70061 13.38856,-0.99218 5.72398,-2.24185 10.68547,-6.03277 15.23065,-10.10143 6.33586,-5.79476 11.7398,-12.61164 15.96054,-20.08664 1.94104,-3.60839 3.67721,-7.58042 3.49308,-11.76348 -0.19773,-3.43859 -2.17766,-6.85329 -5.40429,-8.25781 -3.80169,-1.78633 -8.54862,-0.69658 -11.47113,2.2354 -2.01694,1.98324 -3.46167,4.44708 -5.33226,6.55907 -3.19435,3.95504 -6.67774,7.80901 -10.39974,11.17819 -0.3675,0.33086 -0.87908,0.79096 -1.3164,1.15429 0.33518,-5.11699 1.51797,-10.14375 3.14453,-14.99609 0.31637,-0.93881 0.74011,-2.12988 1.12791,-3.15276 0.8839,-2.45451 2.00738,-4.81918 2.88677,-7.27182 1.22064,-4.27457 -0.53844,-9.16032 -4.14656,-11.73883 -2.65624,-2.23139 -6.10254,-4.039476 -9.67086,-3.481121 -0.68234,0.263207 -1.0984,-0.539233 -1.68112,-0.776604 -2.69684,-1.737888 -6.04989,-2.424977 -9.20348,-1.786731 -7.53672,1.035233 -14.32214,5.040256 -20.03984,9.897346 -4.83958,4.14929 -9.14612,8.90391 -13.07165,13.91013 -3.19359,-1.44642 -7.0652,-0.89439 -9.88086,1.13672 -2.4346,1.68149 -4.30402,4.02121 -6.59592,5.87554 -6.42197,5.7932 -13.25773,11.36299 -21.22634,14.88422 -1.80281,0.73857 -3.68099,1.36143 -5.63282,1.52735 -0.0932,-2.25385 0.22117,-4.55853 1,-6.68164 1.16946,-1.91147 2.04076,-3.99187 2.61719,-6.1543 0.92588,-1.93547 2.17664,-3.70836 3.47748,-5.40929 0.29724,-0.75382 0.67551,0.0314 1.06799,0.27173 2.51072,2.07957 5.9508,2.69569 9.11273,2.15904 7.71283,-1.21858 14.20861,-8.18976 14.56322,-16.04332 0.2725,-4.12756 -1.48413,-8.27598 -4.54413,-11.0388 -3.25479,-3.047513 -7.74427,-4.509219 -12.15703,-4.528242 -6.81414,-0.119785 -13.38422,2.418918 -19.20029,5.792182 -9.51734,5.56105 -17.18024,14.15098 -21.76963,24.16101 -1.52315,3.2789 -2.73438,6.70226 -3.6187,10.20796 -0.29823,0.13714 -1.23691,1.22126 -0.90738,0.40735 1.15496,-4.18573 2.54908,-8.31741 4.28546,-12.2987 1.54911,-3.51578 3.56249,-6.81656 4.9995,-10.37975 1.59084,-4.65614 0.14897,-9.99346 -3.12651,-13.57296 -3.36614,-3.81426 -8.87313,-5.965398 -13.87802,-4.542663 -4.20345,1.210315 -7.35808,4.571303 -9.63198,8.165673 -1.84476,2.71313 -3.55618,5.51348 -5.33482,8.26987 0.17811,-2.91936 -1.03097,-5.74363 -2.83753,-7.98401 -2.474,-3.08031 -5.96954,-5.323253 -9.75915,-6.407087 -0.74336,-0.198977 -1.50176,-0.344592 -2.2666,-0.429212 0.31958,-3.060369 -0.34439,-6.137354 -1.23512,-9.051065 -1.33562,-4.214657 -3.90361,-8.263994 -7.89459,-10.3877 -2.02004,-1.08412 -4.33557,-1.595537 -6.6242,-1.500688 z"
       inkscape:label="Offset"
       sodipodi:nodetypes="scccccccccccccccccccccccccccccccccccccccccccccccccccccccccccccccccccccccccccccccccccccccccccccccccccccccccccccccccccccccccccccsscccccccccccccccccccccccccccccccccccccccccccccccccccccccccccccccccccccccccccccccccccc" />
    <g
       id="g76444"
       inkscape:label="Jugados"
       transform="matrix(0.4052611,0,0,0.4052611,10.794559,33.775264)"
       style="display:inline;fill:#f4c401;fill-opacity:1;stroke-width:2.46754">
      <path
         d="m 1169.4101,124.17001 c -6,0 -9.2,2.8 -12.4,5.6 -4.8,4.8 -6.8,6 -12.8,6.8 -6.8,1.2 -12,2 -16,4 -3.6,1.6 -7.2,4.4 -7.2,9.2 0,6.8 8.4,13.2 17.6,14.8 2.8,0.4 3.2,1.2 2.8,3.6 -20.8,75.2 -30,106.4 -44,144.8 -6,16.4 -11.6,28 -19.2,36.8 -6.8,6.4 -12.8,9.2 -16.8,9.2 -4,0 -7.6,-1.6 -10.4,-3.2 -3.6,-2 -14.4,-6 -20.8,-6 -6.8,0 -16,5.6 -16,12 0,6 5.2,14.4 10.4,17.2 8.4,4.4 18.8,8 26.4,8 4.8,0 10.4,-2 16,-3.6 4.4,-1.2 10.8,-4 16,-6 4,-2 17.6,-8.8 30,-22.8 14.4,-16 28,-52 41.2,-100.4 19.2,-70 21.2,-78 25.6,-89.2 2,-5.6 5.6,-11.6 8,-14.4 2.8,-2.8 6,-7.6 3.6,-14 -2.4,-6.8 -13.2,-12.4 -22,-12.4 z"
         id="path75980"
         style="font-size:400px;line-height:1.25;font-family:'Caflisch Script';-inkscape-font-specification:'Caflisch Script';fill:#f4c401;fill-opacity:1;stroke-width:4.62665" />
      <path
         d="m 1309.7096,283.37001 c -6,0 -6.8,-5.2 -6,-14 2,-16.8 10,-42.8 18.4,-60 4,-8 6.4,-12.4 8,-16 4.8,-10.4 -5.6,-22.8 -15.6,-22.8 -4.8,0 -9.6,3.2 -16,12.8 -7.2,11.2 -24,40 -42.8,62 -19.2,20.8 -30.4,30.8 -34.8,30.8 -4.8,0 -6.8,-4.4 -2.8,-17.2 4.8,-16.4 8,-24 11.2,-30 2.8,-5.2 7.6,-7.6 11.6,-12.8 3.6,-4.8 11.6,-18.4 11.6,-23.6 0,-7.2 -12,-17.2 -22,-17.2 -4.8,0 -10,3.2 -14,9.2 -4.8,8.8 -17.2,32.4 -26.8,60.8 -11.2,29.6 -12.4,39.6 -12.4,46 0,12.8 8.4,25.2 16.8,25.2 6,0 12.4,-1.6 20.8,-6.8 24,-15.2 50.4,-40.8 56.8,-47.6 2.4,-2.4 5.2,-0.8 4,3.6 -1.2,4.4 -2.4,8.8 -3.6,15.2 -4.8,23.2 2.4,36.8 14.8,36.8 6,0 17.2,-2.8 28.4,-8.4 14,-6.8 37.6,-21.6 68,-61.6 6,-7.6 8.4,-16.4 6,-21.2 -1.6,-3.6 -4.8,-3.6 -8,-0.4 -23.6,26.4 -58,57.2 -71.6,57.2 z"
         id="path75982"
         style="font-size:400px;line-height:1.25;font-family:'Caflisch Script';-inkscape-font-specification:'Caflisch Script';fill:#f4c401;fill-opacity:1;stroke-width:4.62665" />
      <path
         d="m 1467.7096,171.37001 c -8.8,0 -25.2,4.8 -36.4,11.2 -13.6,8 -35.6,22.4 -54,46.4 -18.4,24 -26.8,48 -26.8,63.6 0,11.2 8,24.4 17.6,24.4 11.2,0 28.4,-8.8 36.8,-14 13.6,-8.4 25.2,-18.4 30,-22.4 2.4,-2 4,-2.4 3.6,0.8 -0.8,5.6 -2,16.8 -6.4,34.4 -6.4,26 -14,53.2 -30.4,76.4 -18,25.6 -34,32.8 -45.6,32.8 -7.2,0 -13.6,-4.4 -19.2,-8.8 -5.2,-4.4 -12.4,-8.8 -18.4,-8.8 -8.4,0 -24,11.2 -24,20.8 0,10.8 18,18 27.2,18 6.4,0 9.2,0.8 13.2,2 4.4,1.2 11.6,1.6 17.2,1.6 10.4,0 36,-9.6 52.8,-22.8 19.2,-14.8 42,-44 54,-91.6 4.4,-17.2 15.2,-59.2 22.4,-101.6 0.8,-4 1.6,-9.6 -0.4,-11.6 -1.2,-0.8 -0.4,-2.4 2.8,-4.4 6.8,-4.8 12,-12.8 12,-21.2 0,-8.8 -6.4,-25.2 -28,-25.2 z m -78,101.6 c 0,-10.4 10.8,-31.2 19.2,-42 14.4,-18.4 32.4,-28.4 48.8,-28.4 8.4,0 13.6,4.8 13.6,7.6 0,1.6 -1.2,3.6 -2,4.4 -1.6,1.2 -3.6,1.6 -5.2,2 -4.4,1.2 -9.2,4.4 -13.6,10.8 -2.4,3.6 -7.6,12.8 -21.2,26 -5.6,6 -25.6,26 -35.2,26 -2.8,0 -4.4,-2.8 -4.4,-6.4 z"
         id="path75984"
         style="font-size:400px;line-height:1.25;font-family:'Caflisch Script';-inkscape-font-specification:'Caflisch Script';fill:#f4c401;fill-opacity:1;stroke-width:4.62665" />
      <path
         d="m 1594.9096,172.17001 c -4.4,0 -21.6,1.6 -43.6,20.8 -16.8,15.2 -33.6,34.8 -44,56 -12.8,24.4 -15.2,37.2 -15.2,45.2 0,15.2 15.6,23.6 20.4,23.6 8.4,0 16.8,-3.6 27.6,-11.6 11.2,-8 32.4,-27.2 37.2,-32.8 2.4,-2.4 3.2,-2.4 3.6,1.2 0,4.4 0,8 0.8,14 1.6,16.4 12.4,29.2 27.2,29.2 25.2,0 64,-37.6 81.6,-72.4 3.6,-7.6 5.6,-14.8 3.6,-18.4 -1.6,-2.8 -5.6,-3.2 -10,0.8 -25.2,34.8 -52.4,59.2 -61.6,59.2 -6,0 -10,-5.6 -10,-19.6 0,-24 7.2,-48.8 17.6,-72.4 1.2,-3.6 3.2,-8.4 -8,-14.8 -3.6,-2.4 -6.4,-1.6 -9.6,1.2 -2.4,1.6 -4.4,1.6 -5.2,-0.8 -2.4,-3.2 -6.8,-8.4 -12.4,-8.4 z m -14.8,30 c 5.2,0 8.4,4.8 9.6,8.4 1.2,4 0,9.2 -2.4,13.2 -1.6,2.8 -8,14 -13.6,20.4 -12,14 -17.6,21.6 -24.4,27.2 -6,5.2 -12,9.2 -15.2,9.2 -3.2,0 -4,-5.6 -2.8,-10.8 2.4,-10.8 13.6,-33.2 27.2,-49.2 11.6,-13.6 18,-18.4 21.6,-18.4 z"
         id="path75986"
         style="font-size:400px;line-height:1.25;font-family:'Caflisch Script';-inkscape-font-specification:'Caflisch Script';fill:#f4c401;fill-opacity:1;stroke-width:4.62665" />
      <path
         d="m 1761.3101,177.77001 c -22,0 -43.6,9.2 -65.2,32.8 -30,32.8 -40,64.8 -40,82 0,20 9.2,26 18,26 8.8,0 24.8,-5.2 42.4,-17.2 10,-6.8 29.2,-23.6 38.8,-35.6 2,-2.8 3.6,-2.4 3.2,0.8 -0.8,4.8 -1.6,10 -2,18.8 -0.8,14 6,30.8 22.4,30.8 31.2,0 71.2,-44 83.6,-69.6 3.6,-7.6 5.6,-14.8 3.6,-18.4 -2.4,-4 -7.2,-3.2 -12,3.6 -7.6,11.2 -45.2,54 -57.6,54 -6,0 -8.8,-7.2 -7.6,-20 1.6,-20 10.4,-60.4 22,-92.4 13.2,-36 23.2,-54.8 28.8,-68.4 4,-9.999997 4,-15.199997 -1.6,-21.999997 -6.4,-7.6 -10.4,-8.8 -14.8,-8.8 -2.8,0 -5.6,1.6 -8.8,8.4 -4.8,10 -22.8,52.799997 -39.6,94.399997 -0.8,2.4 -1.6,2.4 -3.6,2 -3.2,-0.8 -6.4,-1.2 -10,-1.2 z m -8,23.2 c 3.2,0 6,2 7.2,4.4 1.6,2.8 2,6 -0.4,11.2 -2.4,6 -20,34.4 -33.6,48 -12.8,12.4 -22.4,17.6 -27.2,17.6 -2.8,0 -5.2,-2.8 -5.2,-6.8 0,-6 2,-14.8 19.2,-38.8 15.2,-21.6 32.8,-35.6 40,-35.6 z"
         id="path75988"
         style="font-size:400px;line-height:1.25;font-family:'Caflisch Script';-inkscape-font-specification:'Caflisch Script';fill:#f4c401;fill-opacity:1;stroke-width:4.62665" />
      <path
         d="m 1836.5108,284.97001 c 0,18.8 12,33.6 26.4,33.6 28.8,0 54.8,-16 74,-38.8 16.4,-18.4 22.4,-37.6 22.4,-53.6 0,-15.6 -5.6,-33.2 -20,-40.4 -2.8,-1.2 -3.2,-2.4 -3.2,-4.8 0,-5.6 -0.8,-15.6 -16,-15.6 -6.8,0 -12.8,2.4 -18.4,8 -4,4 -6.8,6 -12,6 -4.4,0 -7.6,2 -10.4,4.8 -2.8,3.2 -4.8,6 -5.2,10.8 -0.4,7.2 -3.6,10.8 -6.8,15.2 -4.8,6 -15.2,21.6 -21.2,35.2 -7.2,17.6 -9.6,28.8 -9.6,39.6 z m 37.6,-6.8 c 0,-16.8 16,-49.2 34,-70.4 2.4,-3.2 6.4,-6.8 9.2,-6.8 7.2,0 10,11.2 10,21.2 0,14 -13.6,44.8 -25.2,57.6 -7.6,8.4 -14.4,11.6 -19.6,11.6 -3.6,0 -8.4,-4.8 -8.4,-13.2 z"
         id="path75990"
         style="font-size:400px;line-height:1.25;font-family:'Caflisch Script';-inkscape-font-specification:'Caflisch Script';fill:#f4c401;fill-opacity:1;stroke-width:4.62665" />
      <path
         d="m 2046.5108,171.77001 c -13.2,0 -34,6.8 -46.4,17.6 -11.6,9.2 -24,24.8 -24,39.2 0,5.2 2,12 4,16.8 2.8,6 9.2,17.2 13.2,22.4 5.6,7.6 9.2,14.8 9.2,18.8 0,2.4 -3.2,5.6 -8.4,5.6 -5.6,0 -8,-0.8 -12,-2.4 -3.6,-2.8 -6.4,-2.8 -10,-0.8 -3.6,1.6 -8.8,4.8 -14.4,11.2 -2.8,2.4 -3.2,5.6 -3.2,8.4 1.6,8.8 16.8,14.8 27.6,14.8 4.4,0 9.2,-1.2 15.2,-3.6 8.8,-3.6 24,-12 29.2,-16.8 4.8,-4.4 10,-14.4 10,-20.4 0,-10.4 -6,-22 -15.2,-33.6 -6.8,-9.2 -12,-18 -12,-25.6 0,-12.4 27.6,-22.8 52.4,-22.8 6.8,0 12.8,-3.2 12.8,-10.8 0,-4.8 -1.6,-8.8 -6.8,-12.4 -5.2,-3.6 -11.2,-5.6 -21.2,-5.6 z"
         id="path75992"
         style="font-size:400px;line-height:1.25;font-family:'Caflisch Script';-inkscape-font-specification:'Caflisch Script';fill:#f4c401;fill-opacity:1;stroke-width:4.62665" />
    </g>
    <g
       id="g12875"
       inkscape:label="Nunca"
       style="fill:#f4c401;fill-opacity:1">
      <path
         d="m 379.88776,103.56806 c -1.81915,0 -8.93035,0.65102 -18.02608,8.46319 -6.94583,6.18464 -13.89165,14.15957 -18.19145,22.78551 -5.29206,9.92797 -6.28432,15.13609 -6.28432,18.39116 0,6.18464 6.4497,9.60247 8.43422,9.60247 3.47291,0 6.94582,-1.46479 11.411,-4.71986 4.63055,-3.25507 13.39552,-11.06725 15.38005,-13.3458 0.99226,-0.97652 1.32301,-0.97652 1.48839,0.48826 0,1.79029 0,3.25508 0.33075,5.69638 0.66151,6.6729 5.12668,11.88102 11.24563,11.88102 10.41874,0 26.46029,-15.29885 33.73687,-29.45841 1.48839,-3.09232 2.31528,-6.02189 1.48839,-7.48667 -0.6615,-1.13928 -2.31527,-1.30203 -4.13442,0.32551 -10.41874,14.15956 -21.66436,24.08754 -25.46803,24.08754 -2.48065,0 -4.13442,-2.27855 -4.13442,-7.97493 0,-9.76522 2.97678,-19.85595 7.27658,-29.45841 0.49613,-1.46478 1.32301,-3.41783 -3.30754,-6.02189 -1.48839,-0.97652 -2.64603,-0.65101 -3.96904,0.48827 -0.99226,0.65101 -1.81915,0.65101 -2.1499,-0.32551 -0.99226,-1.30203 -2.81141,-3.41783 -5.12668,-3.41783 z m -6.11895,12.20652 c 2.1499,0 3.47292,1.95305 3.96905,3.41783 0.49613,1.62754 0,3.74333 -0.99226,5.37087 -0.66151,1.13928 -3.30754,5.69638 -5.62282,8.30044 -4.9613,5.69637 -7.27658,8.78869 -10.08798,11.06724 -2.48066,2.1158 -4.96131,3.74334 -6.28432,3.74334 -1.32302,0 -1.65377,-2.27855 -1.15764,-4.39435 0.99226,-4.39435 5.62281,-13.50855 11.24562,-20.0187 4.79593,-5.53362 7.44196,-7.48667 8.93035,-7.48667 z"
         id="path12837"
         style="font-size:164.06px;line-height:1.25;font-family:'Caflisch Script';-inkscape-font-specification:'Caflisch Script';letter-spacing:-3.4611px;fill:#f4c401;fill-opacity:1;stroke-width:1.875" />
      <path
         d="m 315.56425,103.56806 c -8.76497,0 -19.18371,6.18464 -25.96417,13.67131 -8.10346,8.95145 -12.0725,21.15797 -12.0725,28.48188 0,12.85754 7.77271,17.08914 15.7108,17.08914 15.54542,0 34.56376,-12.85754 46.47089,-27.99363 2.1499,-2.76681 2.97678,-5.69638 2.1499,-7.16116 -0.66151,-1.13928 -2.31528,-1.30203 -4.13442,0.32551 -11.08025,10.74174 -26.12955,23.11101 -37.8713,23.11101 -3.63829,0 -6.61507,-3.25507 -6.61507,-8.13768 0,-4.5571 1.32301,-11.55551 6.94582,-19.85594 4.63055,-6.83565 9.26111,-9.27696 10.91487,-9.27696 0.99227,0 1.81915,0.81377 1.65377,2.92957 -0.16537,1.62753 0.33076,2.76681 1.32302,3.25507 0.82688,0.48826 2.8114,0.65101 4.9613,-0.32551 3.14216,-1.46478 6.11895,-4.5571 6.11895,-8.95145 0,-3.41782 -3.30754,-7.16116 -9.59186,-7.16116 z"
         id="path12846"
         style="font-size:164.06px;line-height:1.25;font-family:'Caflisch Script';-inkscape-font-specification:'Caflisch Script';letter-spacing:-3.4611px;fill:#f4c401;fill-opacity:1;stroke-width:1.875" />
      <path
         d="m 263.94128,148.81357 c -2.48065,0 -2.8114,-2.11579 -2.48065,-5.69637 0.82688,-6.83566 4.13442,-17.41464 7.60733,-24.41305 1.65377,-3.25507 2.64603,-5.04536 3.30754,-6.51015 1.98452,-4.23159 -2.31528,-9.27695 -6.4497,-9.27695 -1.98452,0 -3.96904,1.30203 -6.61507,5.20811 -2.97678,4.55711 -9.92261,16.27537 -17.69532,25.22682 -7.93809,8.46319 -12.56864,12.53203 -14.38779,12.53203 -1.98452,0 -2.8114,-1.79029 -1.15764,-6.99841 1.98453,-6.6729 3.30754,-9.76522 4.63056,-12.20652 1.15763,-2.1158 3.14216,-3.09232 4.79592,-5.20812 1.4884,-1.95304 4.79593,-7.48667 4.79593,-9.60246 0,-2.92957 -4.9613,-6.99841 -9.09572,-6.99841 -1.98453,0 -4.13442,1.30203 -5.78819,3.74333 -1.98453,3.58058 -7.11121,13.18305 -11.08025,24.73856 -4.63055,12.04377 -5.12668,16.11261 -5.12668,18.71667 0,5.20811 3.47291,10.25348 6.94582,10.25348 2.48066,0 5.12669,-0.65102 8.5996,-2.76682 9.92261,-6.18463 20.83748,-16.60087 23.48351,-19.36768 0.99226,-0.97652 2.1499,-0.32551 1.65377,1.46478 -0.49613,1.79029 -0.99226,3.58058 -1.48839,6.18464 -1.98452,9.43971 0.99226,14.97334 6.11894,14.97334 2.48065,0 7.11121,-1.13928 11.74176,-3.41783 5.78819,-2.76681 15.54542,-8.7887 28.11406,-25.06406 2.48065,-3.09232 3.47291,-6.6729 2.48065,-8.62594 -0.6615,-1.46479 -1.98452,-1.46479 -3.30753,-0.16276 -9.75724,10.74174 -23.97965,23.27377 -29.60246,23.27377 z"
         id="path12843"
         style="font-size:164.06px;line-height:1.25;font-family:'Caflisch Script';-inkscape-font-specification:'Caflisch Script';letter-spacing:-3.4611px;fill:#f4c401;fill-opacity:1;stroke-width:1.875" />
      <path
         d="m 164.62723,86.478926 c -1.81915,0 -3.96905,0.813768 -5.12669,1.953044 -0.82688,0.976521 -1.81914,2.278551 -1.81914,3.092319 0,0.813768 -0.66151,1.79029 -2.1499,2.766812 -2.1499,1.464782 -3.63829,3.743332 -4.13442,5.208119 -0.66151,2.27855 0.49613,3.58058 1.98452,5.04536 0.99226,0.97653 1.48839,2.1158 0.66151,3.90609 -1.65377,4.06884 -11.57638,26.6916 -17.69533,40.3629 -0.82688,1.79029 -2.48065,6.18464 -2.48065,7.97493 0,5.53363 3.80367,7.81218 7.27658,7.81218 2.1499,0 5.29206,-1.13928 7.77271,-3.90609 3.6383,-4.23159 4.13443,-6.34739 4.13443,-14.15957 0,-0.97652 0,-2.27855 0.6615,-5.20811 1.32302,-5.53363 6.28432,-16.27537 9.26111,-22.1345 0.6615,-1.13927 1.32301,-1.46478 2.31527,0.16275 2.31528,3.58058 9.92261,17.41464 15.38005,26.04059 5.29206,8.30043 6.61507,11.71826 7.60733,13.02029 1.32302,1.79029 4.79593,4.39435 8.26885,4.39435 2.64603,0 4.13442,-1.46479 5.62281,-3.41783 1.48839,-1.95304 1.65377,-4.39435 0.82688,-5.69638 -0.99226,-1.46478 -1.98452,-2.4413 -1.98452,-3.90608 0,-2.27856 0,-4.2316 1.48839,-9.92798 3.80367,-14.15956 7.77271,-24.25029 14.22241,-36.78232 1.15764,-2.4413 3.14216,-3.58058 4.96131,-3.743333 2.48065,-0.162758 3.80366,-1.302034 3.80366,-3.255077 0,-2.929565 -1.81914,-12.043769 -7.77271,-12.043769 -1.98452,0 -4.13442,0.813768 -6.28432,2.929566 -2.31527,2.278551 -4.9613,6.347392 -9.2611,16.763623 -3.96905,8.95146 -7.60734,18.55392 -10.91487,28.48189 -0.66151,1.79029 -0.99226,2.1158 -1.98453,0.32551 -1.48839,-2.60406 -16.04155,-26.85435 -17.86069,-30.10942 -0.99227,-1.79029 -1.4884,-3.417835 -1.4884,-4.231603 0,-0.651014 0.49613,-1.302029 1.15764,-2.766811 0.82689,-1.139275 1.32302,-2.929565 0,-5.045363 -1.32301,-2.278551 -2.97678,-3.906087 -6.44969,-3.906087 z"
         id="path12840"
         style="font-size:164.06px;line-height:1.25;font-family:'Caflisch Script';-inkscape-font-specification:'Caflisch Script';letter-spacing:-3.4611px;fill:#f4c401;fill-opacity:1;stroke-width:1.875" />
    </g>
  </g>
</svg>
