<?xml version="1.0" encoding="UTF-8" standalone="no"?>
<!-- Created with Inkscape (http://www.inkscape.org/) -->

<svg
   width="637.91943"
   height="154.14622"
   viewBox="0 0 104.98878 25.369386"
   version="1.1"
   id="svg9136"
   inkscape:version="1.1.2 (0a00cf5339, 2022-02-04, custom)"
   sodipodi:docname="auto-neverplayed.svg"
   xmlns:inkscape="http://www.inkscape.org/namespaces/inkscape"
   xmlns:sodipodi="http://sodipodi.sourceforge.net/DTD/sodipodi-0.dtd"
   xmlns:xlink="http://www.w3.org/1999/xlink"
   xmlns="http://www.w3.org/2000/svg"
   xmlns:svg="http://www.w3.org/2000/svg"
   xmlns:rdf="http://www.w3.org/1999/02/22-rdf-syntax-ns#"
   xmlns:cc="http://creativecommons.org/ns#"
   xmlns:dc="http://purl.org/dc/elements/1.1/">
  <defs
     id="defs9130">
    <linearGradient
       inkscape:collect="always"
       id="linearGradient853">
      <stop
         style="stop-color:#000000;stop-opacity:1;"
         offset="0"
         id="stop849" />
      <stop
         style="stop-color:#000000;stop-opacity:0;"
         offset="1"
         id="stop851" />
    </linearGradient>
    <radialGradient
       inkscape:collect="always"
       xlink:href="#linearGradient853"
       id="radialGradient857"
       cx="60.35236"
       cy="253.12825"
       fx="60.35236"
       fy="253.12825"
       r="52.697178"
       gradientTransform="matrix(1,0,0,0.19039974,0,204.9327)"
       gradientUnits="userSpaceOnUse" />
  </defs>
  <sodipodi:namedview
     id="base"
     pagecolor="#ffffff"
     bordercolor="#666666"
     borderopacity="1.0"
     inkscape:pageopacity="0.0"
     inkscape:pageshadow="2"
     inkscape:zoom="0.9899495"
     inkscape:cx="271.73103"
     inkscape:cy="85.35789"
     inkscape:document-units="px"
     inkscape:current-layer="g30013"
     showgrid="false"
     units="px"
     inkscape:window-width="1366"
     inkscape:window-height="703"
     inkscape:window-x="0"
     inkscape:window-y="0"
     inkscape:window-maximized="1"
     fit-margin-top="0"
     fit-margin-left="0"
     fit-margin-right="0"
     fit-margin-bottom="0"
     inkscape:snap-global="false"
     inkscape:pagecheckerboard="1"
     scale-x="0.16458" />
  <metadata
     id="metadata9133">
    <rdf:RDF>
      <cc:Work
         rdf:about="">
        <dc:format>image/svg+xml</dc:format>
        <dc:type
           rdf:resource="http://purl.org/dc/dcmitype/StillImage" />
      </cc:Work>
    </rdf:RDF>
  </metadata>
  <g
     inkscape:groupmode="layer"
     id="layer2"
     inkscape:label="NeverPlayed"
     transform="translate(-0.09903731,-1.34375)">
    <text
       xml:space="preserve"
       style="font-size:0.32916px;line-height:1.25;font-family:TrasksHand;-inkscape-font-specification:TrasksHand;text-decoration-color:#000000;fill:#ef00eb;stroke:#0105ff;stroke-width:0.41145;-inkscape-stroke:none;stop-color:#000000"
       x="27.168533"
       y="16.331894"
       id="text4082"
       inkscape:label="Signature"><tspan
         sodipodi:role="line"
         id="tspan4080"
         style="font-size:0.32916px;fill:#fafafa;fill-opacity:0.4;stroke:none;stroke-width:0.41145"
         x="27.168533"
         y="16.331894">John Loreth 2022</tspan></text>
    <path
       id="path29820"
       style="font-size:24.3578px;line-height:1.25;font-family:'Caflisch Script';-inkscape-font-specification:'Caflisch Script';letter-spacing:-0.764317px;display:inline;fill:#333333;fill-opacity:1;stroke-width:0.411449"
       d="m 101.55469,1.34375 c -1.2301,0.011785 -1.664347,1.374745 -2.003909,2.3320312 -0.596545,1.3320067 -1.103173,2.7038445 -1.666015,4.0507813 -2.493485,-0.1221011 -4.574803,1.7200418 -5.861328,3.6874995 0.343079,-1.160903 0.04147,-2.6418435 -1.166016,-3.1699214 -0.52015,-0.1906353 -0.935227,-0.479851 -1.376953,-0.7988281 -1.27622,-0.5872322 -2.659504,0.2437306 -3.477272,1.2176515 -0.347854,0.2953044 -0.801314,0.991334 -0.987572,1.1124266 0.218197,-1.3301525 -0.969129,-2.9123418 -2.398437,-2.5625 -0.864697,0.2654448 -1.352955,1.1444362 -1.808807,1.8650788 -0.408492,0.6458691 -0.398611,1.4293676 -0.462344,2.1427236 -0.08565,0.237078 -0.425111,0.954344 -0.483902,0.849789 C 80.01883,10.594978 80.15791,8.869911 79.175781,7.6425781 78.25153,6.8465887 76.825607,7.4807985 76.343906,8.4771625 c -0.617271,0.7777876 -0.729499,1.8168355 -0.510687,2.7561535 0.146123,0.956684 -0.806163,1.471697 -1.295406,2.151879 -0.213228,0.189141 -0.882342,1.065371 -0.701875,0.276914 0.08018,-1.453824 0.765982,-2.787424 1.089416,-4.1722369 -0.02217,-0.9961018 -1.037102,-1.8537737 -2.024963,-1.6793252 -1.132825,-0.9177257 -2.6795,-0.1939506 -3.711583,0.524229 -2.128396,1.42441 -3.088543,3.9999711 -5.194667,5.4464741 0.887553,-3.261827 2.337847,-6.4354062 3.73363,-9.5407505 C 68.123985,2.8046948 66.517251,1.053252 65.072266,1.8007812 63.869015,2.4869972 63.586394,3.9763481 62.988208,5.1200837 62.612624,5.9450093 62.230975,6.976279 61.876953,7.6835938 61.162521,6.0726683 59.413723,5.2538418 57.779297,4.9921875 57.189398,4.6952802 56.725343,4.0792059 55.992188,4.0722656 55.16476,3.9344421 54.449057,4.5131785 54.107422,5.2226562 53.539095,5.706562 52.718842,5.8121055 52.14249,6.3198856 c -0.894239,0.5186871 -1.423057,1.9139737 -0.513584,2.6683956 0.31875,0.2941126 0.745272,0.4604215 1.175782,0.4863282 -0.561033,1.7174466 -1.054404,3.4517006 -1.576172,5.1816406 -0.855455,0.373747 -1.703456,1.321078 -1.233765,2.297842 0.525162,1.54059 2.713546,2.220754 3.981811,1.165049 1.34012,-0.125333 3.073138,-0.257756 3.708985,-1.664063 0.354225,-1.046452 -0.815302,-1.866981 -1.763672,-1.765625 -0.455483,0.02839 -0.750907,-0.0431 -0.502084,-0.559811 0.281532,-0.115778 0.833167,0.07089 1.222787,-0.073 1.347173,-0.35426 2.624395,-1.033556 3.681641,-1.941407 -0.403468,1.409226 -0.954083,2.908591 -0.651987,4.387103 0.277411,1.180837 1.522598,2.062877 2.730833,1.725387 0.92921,-0.134465 1.762734,-0.618766 2.524669,-1.14374 0.683912,1.235297 2.489318,1.581337 3.5735,0.665007 0.616602,-0.311345 1.16539,-0.944005 1.680407,-1.26071 0.463937,1.284123 1.977449,2.208967 3.30535,1.637598 0.931012,-0.263168 1.718285,-0.871824 2.417306,-1.52041 0.386913,0.47869 -0.01641,0.815667 -0.336487,1.200921 -1.054024,1.290249 -1.987027,2.70034 -2.911248,4.063624 -1.232535,0.716249 -2.326643,2.101072 -2.136621,3.588753 0.463299,1.670366 3.094055,1.626242 3.771075,0.142795 0.829828,-0.975291 2.500334,-1.145707 2.854037,-2.539943 0.169727,-0.378241 -0.06561,-0.823718 -0.0083,-1.1568 2.049474,-2.754917 4.430044,-5.273314 6.199179,-8.229038 -0.299012,1.213701 -0.223653,2.619088 0.706196,3.552616 0.83589,1.005717 2.241816,1.257681 3.458591,0.95876 1.102217,-0.141001 2.216624,-0.673669 3.151619,-1.089501 0.496591,1.141498 1.967638,1.573039 3.043325,0.997743 1.084012,-0.355001 2.037808,-1.020505 2.888315,-1.767274 0.290485,1.225458 1.598554,2.197988 2.861251,1.770795 2.265061,-0.513785 3.837521,-2.446778 5.064651,-4.288536 0.51703,-0.832352 0.9585,-2.184204 0.0663,-2.917806 -0.82968,-0.555179 -1.90035,0.06215 -2.28705,0.869065 -0.56961,0.706996 -1.13488,1.430075 -1.83014,2.019607 0.40534,-3.452814 1.83229,-6.6069989 3.14289,-9.7780745 C 103.84213,2.7672332 102.8457,1.3745234 101.5547,1.343751 Z M 13.384766,4.4121094 c -1.58282,0.022476 -2.432736,1.6024965 -2.936892,2.89128 C 9.9674548,8.3990094 9.5270268,9.5125895 9.1230469,10.638672 8.5437329,9.6300389 7.9440337,8.6320699 7.4296875,7.5878906 8.0823451,6.3205785 6.9699652,4.6413818 5.5426492,4.7928334 4.730526,4.8106906 3.8937876,5.326723 3.6640625,6.1328125 2.8171415,6.7455658 2.2336621,8.1161525 3.0585938,8.9804688 2.5045233,9.9897708 2.2050802,11.126894 1.6781709,12.161507 c -0.5847856,1.411282 -1.31723476,2.80727 -1.57856153,4.318962 -0.03786832,1.496113 1.81254723,2.660909 3.10475793,1.807346 1.3730703,-0.677864 1.8059707,-2.342588 1.7306503,-3.757494 0.090079,-0.691156 0.3825917,-1.331404 0.6548262,-1.965868 1.0230239,1.710515 1.8801109,3.55597 3.0944092,5.139502 0.9620068,0.884768 2.764699,0.729592 3.310982,-0.550936 0.410946,-0.635072 0.210929,-1.441974 -0.07407,-2.05339 0.25139,-2.175607 1.129207,-4.147818 2.020243,-6.1347852 0.31814,-0.5158375 1.139043,-0.4241608 1.351561,-1.0742188 0.386823,-1.0544785 -0.04142,-2.3613068 -0.8689,-3.08756 C 14.134138,4.5651608 13.761928,4.4147082 13.384766,4.4121094 Z m 4.410156,2.8261718 c -1.93475,0.094616 -3.21222,1.8227049 -4.144531,3.3300778 -1.016033,1.794052 -1.910211,4.066635 -0.966797,6.074219 0.789718,1.460244 2.6699,1.978537 4.194653,1.496658 1.283344,-0.232376 2.49241,-0.875663 3.594409,-1.482986 0.366507,1.161357 1.725202,1.990586 2.896974,1.461222 2.768744,-0.778664 4.73097,-3.126145 6.124511,-5.521769 0.606503,-0.091 0.570984,0.159277 0.364217,0.656505 -0.514209,1.617371 -0.222842,3.761378 1.409863,4.624366 1.736054,0.88373 3.772389,0.174132 5.410933,-0.601009 0.303654,-0.07569 0.723047,-0.562859 0.898971,-0.332206 0.602075,1.243062 2.591291,1.781619 3.470703,0.541016 0.919797,-1.592341 1.620763,-3.311693 2.748866,-4.780257 0.314472,-0.373945 0.627615,-0.940419 1.061681,-1.110368 0.836098,0.354453 1.699278,-0.151273 2.138289,-0.86842 C 47.756742,9.7924797 47.810826,8.1129139 46.587891,7.5351562 45.279879,6.874626 43.783892,7.7025382 42.898438,8.6894531 42.516707,7.4405838 40.740951,6.9978967 39.817836,7.9284642 39.149614,8.3218663 38.710174,9.1001244 38.521484,9.7792969 38.337865,8.8246913 37.460382,8.1253029 36.53125,7.9589844 35.696878,6.8321089 33.981809,7.1985897 33.081668,8.0482926 32.458756,8.4663105 32.119224,9.4385843 31.239487,9.2654218 30.869311,9.2273602 30.120392,9.3971557 30.111328,8.8476562 29.790405,7.7384525 28.451922,6.9297737 27.369012,7.5266383 26.639372,7.7941075 26.046667,8.4004929 25.767578,9.1230469 25.509071,8.016885 24.253225,7.1150632 23.158203,7.71875 22.147055,8.1633643 21.5519,9.191138 21.220703,10.199219 21.198277,9.1008787 20.298369,8.1477375 19.228516,7.9785156 18.873855,7.5553534 18.353944,7.2549192 17.794922,7.2382812 Z m 39.761719,1.3769532 c 0.440167,0.1278581 0.491772,0.5886319 0.07617,0.7753906 -0.285385,0.2095241 -1.03048,0.891987 -0.642578,0.15625 0.185792,-0.2182061 0.203508,-1.0583946 0.566407,-0.9316406 z"
       inkscape:label="Offset"
       sodipodi:nodetypes="scccccccccccccccccccccccccccccccccccccccccccccccccccccccccccccccssccccccccccccccccccccccccccccccccccccccccccccccccsccss" />
    <g
       id="g30013"
       inkscape:label="Never"
       style="display:inline;fill:#f4c401;fill-opacity:1">
      <path
         d="m 5.588444,5.7640972 c -0.2652837,0 -0.5788008,0.1230066 -0.7476177,0.2952158 -0.1205835,0.1476078 -0.2652837,0.3444183 -0.2652837,0.4674249 0,0.1230065 -0.096467,0.2706144 -0.3135171,0.4182222 C 3.9485084,7.1663719 3.7314581,7.5107902 3.659108,7.732202 c -0.096467,0.3444184 0.07235,0.5412288 0.2894004,0.7626406 0.1447002,0.1476079 0.2170503,0.3198171 0.096467,0.5904315 -0.241167,0.6150327 -1.688169,4.0346149 -2.580487,6.1011249 -0.1205835,0.270614 -0.3617505,0.934849 -0.3617505,1.205464 0,0.836444 0.5546841,1.180863 1.0611348,1.180863 0.3135172,0 0.7717345,-0.172209 1.133485,-0.590432 0.5305674,-0.639633 0.6029175,-0.959451 0.6029175,-2.140313 0,-0.147608 0,-0.344419 0.096467,-0.787243 0.1929336,-0.836444 0.9164346,-2.460131 1.3505352,-3.345777 0.096467,-0.17221 0.1929336,-0.221413 0.3376338,0.0246 0.3376338,0.54123 1.447002,2.632341 2.2428531,3.93621 0.7717344,1.254667 0.964668,1.771295 1.1093682,1.968105 0.1929336,0.270614 0.6993844,0.664236 1.2058355,0.664236 0.385867,0 0.602918,-0.221412 0.819968,-0.516628 0.21705,-0.295216 0.241167,-0.664236 0.120583,-0.861046 -0.1447,-0.221412 -0.2894,-0.36902 -0.2894,-0.590431 0,-0.344418 0,-0.639634 0.21705,-1.50068 0.554684,-2.140314 1.133485,-3.665595 2.074037,-5.5598961 0.168816,-0.3690197 0.458217,-0.5412288 0.723501,-0.5658301 0.36175,-0.024602 0.554684,-0.1968105 0.554684,-0.4920262 0,-0.4428236 -0.265284,-1.8204969 -1.133486,-1.8204969 -0.289399,0 -0.602917,0.1230066 -0.916434,0.4428235 -0.337633,0.3444153 -0.723501,0.9594481 -1.350535,2.5339319 -0.578801,1.353072 -1.1093691,2.8045499 -1.5917027,4.3052299 -0.096467,0.270613 -0.1447002,0.319816 -0.2894004,0.0492 C 8.964782,12.332647 6.8425124,8.6670518 6.5772287,8.1750256 6.4325285,7.9044112 6.3601784,7.6583981 6.3601784,7.5353916 c 0,-0.098405 0.07235,-0.1968105 0.1688169,-0.4182223 0.1205835,-0.1722092 0.1929336,-0.4428236 0,-0.7626406 C 6.3360617,6.0101103 6.0948947,5.7640972 5.588444,5.7640972 Z"
         id="path1804"
         style="font-size:24.3578px;line-height:1.25;font-family:'Caflisch Script';-inkscape-font-specification:'Caflisch Script';letter-spacing:-0.764317px;stroke-width:0.411449" />
      <path
         d="m 13.249071,14.866582 c 0,1.549882 1.085252,2.43553 2.19462,2.43553 2.821655,0 5.836241,-2.091112 7.476178,-4.231426 0.313516,-0.418222 0.4341,-0.861046 0.313516,-1.082458 -0.09646,-0.172208 -0.337633,-0.19681 -0.5788,0.0738 -2.459903,2.533934 -4.67864,3.345777 -6.125642,3.345777 -0.699384,0 -1.085252,-0.369019 -1.085252,-0.910248 0,-0.344419 0.07235,-0.56583 0.192934,-0.811843 0.07235,-0.172209 0.1447,-0.196811 0.313517,-0.123007 0.21705,0.0984 0.482334,0.196811 0.747618,0.196811 1.302302,0 2.146386,-0.639634 2.652837,-1.156262 0.482334,-0.541228 0.916435,-1.254667 0.916435,-2.140313 0,-0.9348504 -0.578801,-1.4760792 -1.398769,-1.5252818 -0.168817,-0.024601 -0.289401,-0.1230066 -0.36175,-0.2214118 -0.144701,-0.2952157 -0.385868,-0.4920262 -0.844085,-0.4920262 -1.012902,0 -2.26697,1.4760786 -2.749304,2.1649148 -1.061135,1.549883 -1.664053,3.37038 -1.664053,4.477439 z m 3.255755,-2.533935 c -0.313517,0 -0.36175,-0.0738 -0.265284,-0.36902 0.289401,-0.76264 1.085252,-1.9681045 1.567586,-1.9681045 0.313517,0 0.554684,0.1968105 0.554684,0.5412285 0,0.688837 -1.109368,1.795896 -1.856986,1.795896 z"
         id="path1801"
         style="font-size:24.3578px;line-height:1.25;font-family:'Caflisch Script';-inkscape-font-specification:'Caflisch Script';letter-spacing:-0.764317px;stroke-width:0.411449" />
      <path
         d="m 28.274173,8.3226335 c -0.675269,0 -1.664054,0.7380393 -1.664054,1.4514772 0,0.4182223 0.144701,0.7626403 0.361751,0.9348503 0.168817,0.123006 0.1447,0.295215 0.09647,0.442823 -0.627035,1.525282 -1.567586,2.779948 -2.604605,3.665595 -0.313516,0.246013 -0.530567,0.36902 -0.699384,0.36902 -0.241167,0 -0.337633,-0.442823 -0.1447,-1.279269 0.168817,-0.738038 0.385867,-1.451477 0.795852,-2.214117 0.409983,-0.76264 0.530566,-1.13166 0.506449,-1.7220918 -0.07235,-0.8118432 -0.482334,-1.4760786 -0.940551,-1.4760786 -0.964668,0 -1.832869,1.5990854 -1.953452,2.4847324 -0.04824,0.319817 0.02412,0.467425 0.1447,0.56583 0.09647,0.0984 0.120583,0.147608 0.02412,0.418222 -0.651151,1.820497 -0.819968,2.878354 -0.868202,3.321177 -0.144699,1.549883 0.771735,1.992706 1.109369,1.992706 0.409984,0 0.868201,-0.0738 1.567585,-0.418223 1.422885,-0.738039 3.062822,-1.8943 4.847457,-5.141673 0.07235,-0.147607 0.168817,-0.221412 0.361751,-0.172209 0.192933,0.0492 0.506451,0.0984 1.181718,0.0984 1.205835,0 2.19462,-0.541229 2.725187,-1.082457 0.265284,-0.270615 0.241167,-0.7380396 -0.192934,-0.516628 -0.241167,0.123007 -0.940551,0.19681 -1.760518,0.221412 -0.723501,0 -1.39877,-0.147608 -1.712286,-0.3444184 C 29.238841,9.7741107 29.238841,9.6019016 29.214724,9.4050911 29.142373,9.0360715 28.87709,8.3226335 28.274173,8.3226335 Z"
         id="path1798"
         style="font-size:24.3578px;line-height:1.25;font-family:'Caflisch Script';-inkscape-font-specification:'Caflisch Script';letter-spacing:-0.764317px;stroke-width:0.411449" />
      <path
         d="m 30.604199,14.866582 c 0,1.549882 1.085251,2.43553 2.194619,2.43553 2.821654,0 5.836242,-2.091112 7.476177,-4.231426 0.313518,-0.418222 0.434101,-0.861046 0.313518,-1.082458 -0.09647,-0.172208 -0.337635,-0.19681 -0.578802,0.0738 -2.459903,2.533934 -4.67864,3.345777 -6.125642,3.345777 -0.699384,0 -1.085251,-0.369019 -1.085251,-0.910248 0,-0.344419 0.07235,-0.56583 0.192934,-0.811843 0.07235,-0.172209 0.144699,-0.196811 0.313517,-0.123007 0.21705,0.0984 0.482334,0.196811 0.747618,0.196811 1.302301,0 2.146386,-0.639634 2.652837,-1.156262 0.482334,-0.541228 0.916434,-1.254667 0.916434,-2.140313 0,-0.9348504 -0.578801,-1.4760792 -1.398768,-1.5252818 -0.168818,-0.024597 -0.289401,-0.1230025 -0.361751,-0.2214078 -0.1447,-0.2952157 -0.385867,-0.4920262 -0.844084,-0.4920262 -1.012902,0 -2.26697,1.4760786 -2.749304,2.1649148 -1.061135,1.549883 -1.664052,3.37038 -1.664052,4.47744 z m 3.255753,-2.533935 c -0.313516,0 -0.36175,-0.0738 -0.265282,-0.36902 0.289399,-0.76264 1.085251,-1.9681045 1.567585,-1.9681045 0.313517,0 0.554684,0.1968105 0.554684,0.5412285 0,0.688837 -1.109369,1.795896 -1.856987,1.795896 z"
         id="path1795"
         style="font-size:24.3578px;line-height:1.25;font-family:'Caflisch Script';-inkscape-font-specification:'Caflisch Script';letter-spacing:-0.764317px;stroke-width:0.411449" />
      <path
         d="m 45.659544,8.2734308 c -0.988785,0 -1.784636,0.7626407 -2.508137,1.5990852 -0.844085,0.885647 -1.688169,2.287922 -1.953453,2.681543 -0.168816,0.221412 -0.313517,0.246013 -0.265284,0 0.120584,-0.787242 0.458218,-1.918903 0.723501,-2.386327 0.168817,-0.295216 0.361751,-0.5904317 0.361751,-0.8118435 0,-0.4428236 -0.361751,-0.9594511 -0.819968,-0.9594511 -0.337634,0 -0.771734,0.2952157 -1.085251,0.5658301 -0.434101,0.3690197 -0.627035,0.6888367 -0.771734,1.7958955 -0.120584,1.254667 -0.313518,3.247373 -0.916436,4.846458 -0.168816,0.492027 -0.09646,0.76264 0.168818,1.057856 0.313516,0.36902 0.65115,0.56583 1.037017,0.56583 0.385868,0 0.747618,-0.319817 0.988785,-0.959451 0.313517,-0.762641 1.543469,-3.148967 2.749304,-4.625046 0.627035,-0.811843 1.061135,-1.156262 1.326419,-1.156262 0.192933,0 0.409984,0.0984 0.5788,0.196811 0.192934,0.123007 0.458217,0.0246 0.747618,-0.319817 0.241167,-0.246013 0.482334,-0.7380391 0.554684,-1.1316601 0.09647,-0.5166275 -0.385867,-0.9594511 -0.916434,-0.9594511 z"
         id="path1792"
         style="font-size:24.3578px;line-height:1.25;font-family:'Caflisch Script';-inkscape-font-specification:'Caflisch Script';letter-spacing:-0.764317px;stroke-width:0.411449" />
    </g>
    <g
       id="g30028"
       inkscape:label="Played"
       style="display:inline;fill:#f4c401;fill-opacity:1">
      <path
         d="m 61.102698,8.7900584 c 0,-0.2952158 -0.09646,-0.8118433 -0.385866,-1.2054642 -0.675268,-0.9348498 -2.41167,-1.6236865 -3.279871,-1.6236865 -0.192935,0 -0.265284,-0.049203 -0.409985,-0.1968105 -0.530567,-0.5412287 -0.988785,-0.7380391 -1.254068,-0.7380391 -0.458218,0 -0.771734,0.56583 -0.892318,0.885647 -0.07235,0.1476079 -0.120583,0.1968105 -0.337634,0.2952157 -0.699384,0.2460131 -1.567585,0.6642354 -2.122269,1.1562616 -0.409984,0.3690196 -0.337634,0.6888367 -0.168817,0.8610458 0.192933,0.2214118 0.482334,0.2706144 0.675267,0.2706144 0.168817,0 0.771735,-0.3444183 1.133485,-0.5412288 0.265284,-0.1476078 0.265284,-0.049203 0.144701,0.319817 -0.578801,1.8943012 -1.639936,5.1908762 -2.04992,6.8391642 -0.120583,0.270614 -0.289401,0.39362 -0.554684,0.492026 -0.651151,0.270614 -0.868201,0.615033 -0.675268,1.057856 0.265284,0.56583 0.819968,0.984053 1.61582,0.984053 0.337633,0 0.699384,-0.147608 0.844084,-0.319817 0.192933,-0.221413 0.50645,-0.246013 0.747617,-0.246013 1.037019,0 1.905219,-0.270615 2.26697,-0.541229 0.434101,-0.319817 0.530568,-0.713438 -0.02412,-0.787243 -0.530568,-0.0738 -1.447002,-0.147607 -1.881103,-0.270613 -0.337634,-0.0984 -0.434101,-0.196811 -0.2894,-0.590432 0.337633,-1.353072 0.819967,-2.755347 1.326418,-4.182222 0.578801,-1.6236869 0.795851,-2.2387197 1.085252,-2.902955 0.09647,-0.2214118 0.241167,-0.2706144 0.4341,-0.2706144 0.578801,0 1.905219,0.3936209 1.905219,1.4514772 0,1.0086537 -1.278184,1.5498822 -2.098152,2.1157122 -0.506451,0.344419 -0.964668,0.688837 -1.157602,0.93485 -0.144701,0.172209 -0.2894,0.467425 -0.2894,0.688837 0,0.270614 0.265283,0.418222 0.458217,0.418222 0.192933,0 0.458217,-0.0246 0.747618,-0.0984 0.892317,-0.246013 2.001686,-0.861045 2.508137,-1.230065 0.916434,-0.590432 1.977568,-1.9189027 1.977568,-3.0259616 z"
         id="path1765"
         style="font-size:24.3578px;line-height:1.25;font-family:'Caflisch Script';-inkscape-font-specification:'Caflisch Script';letter-spacing:-0.764317px;stroke-width:0.411449" />
      <path
         d="m 60.554433,15.703026 c 0,0.885648 0.530567,1.599086 1.229951,1.599086 2.218737,0 5.209208,-3.124367 5.908592,-4.575844 0.192933,-0.393621 0.265284,-0.762641 0.168817,-0.959451 -0.09647,-0.17221 -0.2894,-0.19681 -0.50645,0.0738 -1.591703,1.968105 -3.424572,3.419582 -4.172189,3.419582 -0.385868,0 -0.578802,-0.344418 -0.192934,-1.623685 0.554684,-1.845099 1.615819,-5.2154783 3.400455,-8.7334655 0.50645,-1.0086537 0.627034,-1.4514773 -0.168818,-2.140314 -0.120583,-0.1230065 -0.265283,-0.1722091 -0.4341,-0.1722091 -0.192933,0 -0.409984,0.098405 -0.627034,0.3690196 -0.361751,0.4674249 -1.205835,2.1895166 -2.676954,5.9535169 -1.639936,4.1822221 -1.929336,6.0765241 -1.929336,6.7899611 z"
         id="path1762"
         style="font-size:24.3578px;line-height:1.25;font-family:'Caflisch Script';-inkscape-font-specification:'Caflisch Script';letter-spacing:-0.764317px;stroke-width:0.411449" />
      <path
         d="m 71.769347,8.3472348 c -0.265283,0 -1.302302,0.098405 -2.62872,1.2792681 -1.012901,0.9348501 -2.025803,2.1403141 -2.652837,3.4441831 -0.771734,1.50068 -0.916435,2.287922 -0.916435,2.779948 0,0.93485 0.940552,1.451478 1.229952,1.451478 0.506451,0 1.012901,-0.221412 1.664052,-0.713438 0.675268,-0.492026 1.953453,-1.67289 2.242853,-2.017308 0.144701,-0.147608 0.192934,-0.147608 0.21705,0.0738 0,0.270615 0,0.492027 0.04824,0.861046 0.09647,1.008654 0.747618,1.795897 1.639935,1.795897 1.519353,0 3.858672,-2.312523 4.919808,-4.452838 0.21705,-0.467424 0.337634,-0.910248 0.21705,-1.13166 -0.09646,-0.172209 -0.337633,-0.19681 -0.602917,0.04921 -1.519353,2.140313 -3.159288,3.640993 -3.713972,3.640993 -0.361751,0 -0.602918,-0.344418 -0.602918,-1.205464 0,-1.476078 0.434101,-3.001359 1.061135,-4.4528366 C 73.963973,9.5281006 74.084552,9.2328849 73.409285,8.839264 73.192235,8.6916561 73.023418,8.740859 72.830484,8.913068 72.685784,9.011473 72.565201,9.011473 72.516967,8.863865 72.372264,8.6670518 72.106981,8.3472348 71.769347,8.3472348 Z M 70.87703,10.192333 c 0.313516,0 0.50645,0.295215 0.5788,0.516628 0.07235,0.246013 0,0.56583 -0.1447,0.811843 -0.09647,0.172209 -0.482334,0.861046 -0.819968,1.254667 -0.723501,0.861046 -1.061134,1.32847 -1.471119,1.672888 -0.36175,0.319817 -0.723501,0.56583 -0.916434,0.56583 -0.192933,0 -0.241167,-0.344418 -0.168817,-0.664235 0.1447,-0.664235 0.819968,-2.041908 1.639936,-3.02596 0.699384,-0.836446 1.085251,-1.131661 1.302302,-1.131661 z"
         id="path1759"
         style="font-size:24.3578px;line-height:1.25;font-family:'Caflisch Script';-inkscape-font-specification:'Caflisch Script';letter-spacing:-0.764317px;stroke-width:0.411449" />
      <path
         d="m 76.715872,14.497562 c -0.07235,1.648288 0.192934,2.361725 0.627035,2.361725 h 0.168816 c 0.04824,0 0.02412,0.04921 -0.07235,0.17221 -1.085251,1.32847 -1.905219,2.435529 -2.484019,3.19817 -0.771735,1.107059 -1.085252,1.574484 -1.278186,1.992707 -0.120584,0.246013 -0.337634,0.442823 -0.530567,0.516627 -0.192934,0.0738 -0.554685,0.246013 -1.037019,0.885647 -0.313516,0.418222 -0.530566,0.787242 -0.65115,1.254667 -0.1447,0.467424 0.313517,0.861045 0.819968,0.861045 0.458217,0 0.844084,-0.147608 1.133484,-0.590431 0.289401,-0.442824 0.458218,-0.688837 0.940552,-0.910249 0.50645,-0.246013 1.856986,-0.910248 1.881102,-1.623685 0,-0.221413 -0.1447,-0.393621 -0.36175,-0.467426 -0.07235,-0.0984 0.04824,-0.270614 0.265284,-0.56583 0.241167,-0.418222 2.001686,-2.533934 4.582173,-5.781308 1.109368,-1.377673 2.580486,-3.960811 3.014588,-5.043268 0.21705,-0.541228 0.337633,-1.0578562 0.337633,-1.3530719 0,-0.6396341 -0.723501,-1.2792681 -0.964668,-1.2792681 -0.337633,0 -0.530568,0.1968105 -0.771735,0.4674249 -0.36175,0.4428236 -0.554683,0.7872419 -0.771734,1.1808628 -0.21705,0.3936213 -0.21705,0.7380393 -0.168817,1.0086533 0.07235,0.295217 0.04824,0.615033 -0.313517,1.230066 -1.302301,2.287921 -2.074036,3.124366 -2.170503,3.124366 -0.168817,0 -0.313517,-0.295215 -0.265283,-0.910248 0.04824,-0.811843 0.313516,-2.607739 0.337633,-3.56719 0.02412,-0.9840525 -0.120583,-2.4109285 -0.795851,-2.4109285 -0.554684,0 -0.988785,0.6888367 -1.278185,1.2054642 -0.21705,0.393621 -0.241167,0.6642353 -0.192934,0.8364443 0.04824,0.147608 0.120584,0.344418 0.09647,0.861046 z"
         id="path1756"
         style="font-size:24.3578px;line-height:1.25;font-family:'Caflisch Script';-inkscape-font-specification:'Caflisch Script';letter-spacing:-0.764317px;stroke-width:0.411449" />
      <path
         d="m 84.1575,14.866582 c 0,1.549882 1.085252,2.43553 2.194619,2.43553 2.821654,0 5.836242,-2.091112 7.476177,-4.231426 0.313518,-0.418222 0.434101,-0.861046 0.313518,-1.082458 -0.09647,-0.172208 -0.337635,-0.19681 -0.578802,0.0738 -2.459903,2.533934 -4.678639,3.345777 -6.125641,3.345777 -0.699385,0 -1.085252,-0.369019 -1.085252,-0.910248 0,-0.344419 0.07235,-0.56583 0.192934,-0.811843 0.07235,-0.172209 0.144701,-0.196811 0.313517,-0.123007 0.21705,0.0984 0.482334,0.196811 0.747618,0.196811 1.302302,0 2.146386,-0.639634 2.652837,-1.156262 0.482334,-0.541228 0.916434,-1.254667 0.916434,-2.140313 0,-0.9348504 -0.5788,-1.4760792 -1.398768,-1.5252818 C 89.607874,8.9130607 89.48729,8.8146556 89.41494,8.7162504 89.27024,8.4210347 89.029073,8.2242242 88.570856,8.2242242 c -1.012902,0 -2.26697,1.4760786 -2.749304,2.1649148 -1.061134,1.549883 -1.664052,3.37038 -1.664052,4.477439 z m 3.255755,-2.533935 c -0.313518,0 -0.361751,-0.0738 -0.265284,-0.36902 0.2894,-0.76264 1.085251,-1.9681045 1.567585,-1.9681045 0.313517,0 0.554684,0.1968105 0.554684,0.5412285 0,0.688837 -1.109368,1.795896 -1.856985,1.795896 z"
         id="path1753"
         style="font-size:24.3578px;line-height:1.25;font-family:'Caflisch Script';-inkscape-font-specification:'Caflisch Script';letter-spacing:-0.764317px;stroke-width:0.411449" />
      <path
         d="m 97.758122,8.6916531 c -1.326419,0 -2.62872,0.5658301 -3.931022,2.0173079 -1.808752,2.017307 -2.41167,3.985412 -2.41167,5.043267 0,1.230066 0.554684,1.599086 1.085252,1.599086 0.530567,0 1.495235,-0.319817 2.556369,-1.057856 0.602918,-0.418223 1.76052,-1.451477 2.339321,-2.189517 0.120583,-0.172209 0.21705,-0.147608 0.192933,0.0492 -0.04824,0.295216 -0.09647,0.615033 -0.120584,1.156262 -0.04824,0.861046 0.361751,1.894301 1.350536,1.894301 1.881103,0 4.292773,-2.706144 5.040383,-4.280627 0.21706,-0.467426 0.33764,-0.910249 0.21706,-1.131661 -0.1447,-0.246013 -0.43411,-0.196811 -0.7235,0.221412 -0.45822,0.688836 -2.72519,3.321177 -3.472804,3.321177 -0.361753,0 -0.530575,-0.442824 -0.458219,-1.230066 0.09644,-1.230065 0.627033,-3.714798 1.326423,-5.6829023 0.79584,-2.2141179 1.39876,-3.3703794 1.7364,-4.2068239 0.24117,-0.6150328 0.24117,-0.9348498 -0.0964,-1.3530721 -0.38587,-0.4674248 -0.62704,-0.5412288 -0.89232,-0.5412288 -0.16882,0 -0.33763,0.098405 -0.53056,0.5166275 -0.28941,0.6150328 -1.374661,3.2473728 -2.387561,5.805909 -0.04824,0.1476079 -0.09646,0.1476079 -0.21705,0.1230066 C 98.168176,8.716252 97.975242,8.691651 97.758192,8.691651 Z m -0.482334,1.4268759 c 0.192933,0 0.361751,0.123006 0.4341,0.270614 0.09647,0.17221 0.120584,0.36902 -0.02412,0.688838 -0.1447,0.369019 -1.205835,2.115711 -2.025803,2.952156 -0.771734,0.762641 -1.350535,1.082458 -1.639936,1.082458 -0.168817,0 -0.313516,-0.172209 -0.313516,-0.418222 0,-0.36902 0.120583,-0.910249 1.157601,-2.386327 0.916434,-1.328471 1.97757,-2.189517 2.41167,-2.189517 z"
         id="path1750"
         style="font-size:24.3578px;line-height:1.25;font-family:'Caflisch Script';-inkscape-font-specification:'Caflisch Script';letter-spacing:-0.764317px;stroke-width:0.411449" />
    </g>
  </g>
</svg>
