<?xml version="1.0" encoding="UTF-8" standalone="no"?>
<!-- Created with Inkscape (http://www.inkscape.org/) -->

<svg
   width="739.63519"
   height="151.99992"
   viewBox="0 0 121.72916 25.016147"
   version="1.1"
   id="svg9136"
   inkscape:version="1.1.2 (0a00cf5339, 2022-02-04, custom)"
   sodipodi:docname="auto-neverplayed-fr.svg"
   xmlns:inkscape="http://www.inkscape.org/namespaces/inkscape"
   xmlns:sodipodi="http://sodipodi.sourceforge.net/DTD/sodipodi-0.dtd"
   xmlns:xlink="http://www.w3.org/1999/xlink"
   xmlns="http://www.w3.org/2000/svg"
   xmlns:svg="http://www.w3.org/2000/svg"
   xmlns:rdf="http://www.w3.org/1999/02/22-rdf-syntax-ns#"
   xmlns:cc="http://creativecommons.org/ns#"
   xmlns:dc="http://purl.org/dc/elements/1.1/">
  <defs
     id="defs9130">
    <linearGradient
       inkscape:collect="always"
       id="linearGradient853">
      <stop
         style="stop-color:#000000;stop-opacity:1;"
         offset="0"
         id="stop849" />
      <stop
         style="stop-color:#000000;stop-opacity:0;"
         offset="1"
         id="stop851" />
    </linearGradient>
    <radialGradient
       inkscape:collect="always"
       xlink:href="#linearGradient853"
       id="radialGradient857"
       cx="60.35236"
       cy="253.12825"
       fx="60.35236"
       fy="253.12825"
       r="52.697178"
       gradientTransform="matrix(1,0,0,0.19039974,0,204.9327)"
       gradientUnits="userSpaceOnUse" />
    <radialGradient
       inkscape:collect="always"
       xlink:href="#linearGradient853"
       id="radialGradient857-7"
       cx="60.35236"
       cy="253.12825"
       fx="60.35236"
       fy="253.12825"
       r="52.697178"
       gradientTransform="matrix(1,0,0,0.19039974,0,204.9327)"
       gradientUnits="userSpaceOnUse" />
  </defs>
  <sodipodi:namedview
     id="base"
     pagecolor="#ffffff"
     bordercolor="#666666"
     borderopacity="1.0"
     inkscape:pageopacity="0.0"
     inkscape:pageshadow="2"
     inkscape:zoom="0.9899495"
     inkscape:cx="555.5839"
     inkscape:cy="36.870568"
     inkscape:document-units="px"
     inkscape:current-layer="g35081"
     showgrid="false"
     units="px"
     inkscape:window-width="1366"
     inkscape:window-height="703"
     inkscape:window-x="0"
     inkscape:window-y="0"
     inkscape:window-maximized="1"
     fit-margin-top="0"
     fit-margin-left="0"
     fit-margin-right="0"
     fit-margin-bottom="0"
     inkscape:snap-global="false"
     inkscape:pagecheckerboard="1"
     scale-x="0.16458" />
  <metadata
     id="metadata9133">
    <rdf:RDF>
      <cc:Work
         rdf:about="">
        <dc:format>image/svg+xml</dc:format>
        <dc:type
           rdf:resource="http://purl.org/dc/dcmitype/StillImage" />
      </cc:Work>
    </rdf:RDF>
  </metadata>
  <g
     inkscape:label="NeverPlayedFR"
     inkscape:groupmode="layer"
     id="layer1"
     transform="translate(-11.269265,-275.19294)">
    <text
       xml:space="preserve"
       style="font-size:0.32916px;line-height:1.25;font-family:TrasksHand;-inkscape-font-specification:TrasksHand;text-decoration-color:#000000;fill:#ef00eb;stroke:#0105ff;stroke-width:0.41145;-inkscape-stroke:none;stop-color:#000000"
       x="66.81443"
       y="295.23172"
       id="text4082"
       inkscape:label="Signature"><tspan
         sodipodi:role="line"
         id="tspan4080"
         style="font-size:0.32916px;fill:#fafafa;fill-opacity:0.4;stroke:none;stroke-width:0.41145"
         x="66.81443"
         y="295.23172">John Loreth 2022</tspan></text>
    <path
       id="path35221"
       style="font-size:26.7717px;line-height:1.25;font-family:'Caflisch Script';-inkscape-font-specification:'Caflisch Script';letter-spacing:-0.756919px;fill:#333333;fill-opacity:1;stroke-width:0.41145"
       d="m 74.135242,275.20229 c -1.748341,0.17498 -2.522068,2.21032 -2.218159,3.74938 0.06498,0.86207 0.477849,1.67397 1.063805,2.29988 -1.229799,0.30546 -2.189103,1.27788 -3.06043,2.15467 -0.780924,0.93914 -1.587454,2.12573 -1.449194,3.39355 0.244384,0.55181 -0.03684,1.01578 -0.460998,1.35773 -0.255015,0.20303 -1.097255,1.34334 -0.964222,0.61997 0.161614,-1.50337 0.905944,-2.8506 1.299668,-4.28485 0.25644,-1.55281 -1.301178,-2.86335 -2.785989,-2.70829 -1.604429,-1.08096 -3.622091,-0.15504 -5.030609,0.8222 -2.635581,1.75942 -4.024088,4.76194 -6.390835,6.80541 0.163567,-1.27352 0.647786,-2.63066 1.664934,-3.53854 1.239175,-1.54481 -0.02714,-3.90301 -1.833647,-4.24668 -1.216745,-0.36665 -2.270224,0.48153 -3.06297,1.29202 -0.313505,0.104 -0.901445,1.30142 -0.922314,0.52968 -0.261839,-1.50273 -1.942394,-2.59788 -3.398433,-1.99605 -1.184923,0.44326 -2.020138,1.54187 -2.934432,2.30102 -0.254191,-1.71744 -2.195911,-3.21232 -3.902605,-2.59286 -1.551459,0.71446 -2.064153,2.5112 -2.597296,3.98696 -0.144428,0.80533 0.41389,1.59625 -0.06216,2.35977 -0.219656,0.71402 -0.84311,1.13191 -1.360806,1.61388 0.10751,-1.71551 1.017387,-3.23918 1.363026,-4.89047 0.05303,-1.43321 -1.428105,-2.61895 -2.810408,-2.4308 -1.536793,-1.09162 -3.53828,-0.21295 -4.903163,0.74767 -1.22779,0.81642 -2.290943,1.86619 -3.190635,3.03062 0.403295,-1.4096 0.867904,-2.82754 1.691573,-4.0469 0.57474,-1.05992 0.206711,-2.42613 -0.807076,-3.0706 -1.13713,-0.8458 -2.858027,-1.04657 -3.987933,-0.0706 -0.688896,0.58777 -1.691616,0.25428 -2.380288,0.85895 -1.555132,0.86305 -1.380144,3.22122 0.209214,3.95382 -1.214143,3.87518 -2.162463,7.88901 -4.089076,11.49026 -0.271469,0.45609 -0.734744,0.33034 -1.085537,0.0689 -1.497257,-0.66828 -3.734777,-0.35855 -4.348991,1.35843 -0.586331,1.79243 1.078598,3.5104 2.769419,3.79456 2.432514,0.67611 4.945305,-0.54156 6.800033,-2.0511 1.330841,-1.19704 2.170347,-2.82819 2.797859,-4.48045 0.864259,1.60222 3.155979,2.31079 4.679505,1.20863 0.837652,-0.3858 1.543199,-0.99094 2.257719,-1.5616 0.78934,1.72759 2.995133,2.64026 4.739607,1.80546 0.562038,-0.20664 1.094668,-0.49308 1.587141,-0.83314 0.821468,1.14185 2.728025,1.38965 3.64825,0.23122 0.647527,-0.55248 1.193608,-1.21095 1.715056,-1.88061 -0.01176,1.32265 0.995553,2.78286 2.448751,2.60521 1.738257,-0.17317 2.787516,-1.79238 3.911295,-2.94043 0.303166,1.78207 1.911865,3.36428 3.798269,3.1656 1.078981,-0.0514 2.10615,-0.5158 2.979121,-1.11218 1.264736,1.40617 3.562847,1.28531 4.934864,0.10218 0.5353,-0.34324 1.027421,-0.74766 1.520639,-1.1477 0.775774,1.7227 2.970565,2.64198 4.710748,1.81878 0.567958,-0.21099 1.11515,-0.48693 1.60712,-0.84201 1.058805,1.31392 3.008837,1.4824 4.458073,0.76149 0.604963,-0.2097 1.183326,-0.49737 1.72438,-0.83919 1.182878,1.82248 3.812802,1.91009 5.589371,0.96726 1.615275,-0.70352 3.394864,-1.98806 3.370193,-3.94194 0.100714,-1.54808 -1.000572,-2.73489 -1.809228,-3.92259 -0.199491,-0.44584 0.723498,-0.46315 1.049716,-0.55467 1.25671,-0.12642 2.95324,-0.10661 3.525315,-1.49247 0.627662,-1.37772 -0.268591,-3.10376 -1.726955,-3.45945 -2.871722,-0.9813 -6.127563,0.57245 -7.808575,2.95717 -0.490765,0.70072 -0.832117,1.52399 -0.895628,2.38292 -0.602474,0.5621 -1.192813,1.138 -1.826987,1.66494 0.574726,-1.51046 1.527323,-2.87738 1.99126,-4.41762 0.06363,-0.62725 -0.152138,-1.26386 -0.532779,-1.76039 1.328498,0.0979 2.17245,-1.27544 2.043971,-2.47829 -0.05059,-1.24217 0.548755,-2.77018 -0.497145,-3.7801 -0.73864,-0.72718 -1.810147,-0.94787 -2.814395,-0.88751 z m 48.152098,0.28859 c -1.7715,-0.0141 -2.67526,1.73177 -3.62511,2.94138 -0.83416,1.0298 -2.12071,2.17285 -1.6938,3.65176 -0.63682,0.35068 -1.11334,0.89168 -1.60277,1.41852 -0.23668,-1.8909 -2.80405,-3.17748 -4.30494,-1.81896 -0.79623,0.65133 -1.19726,1.57373 -1.82202,2.37171 -0.21039,-2.4038 -3.89504,-3.5317 -5.28339,-1.4718 -0.26826,0.20115 -0.4535,1.11075 -0.72147,0.85468 -0.45741,-0.42106 -0.84694,-0.87007 -1.0367,-1.46737 -1.0065,-1.6082 -3.488459,-1.64126 -4.750607,-0.32411 -0.528405,0.29501 0.234036,-0.51688 0.152417,-0.7428 0.432705,-1.70556 -1.314186,-3.22887 -2.932099,-3.23755 -0.948208,-0.11606 -1.791794,0.39346 -2.523687,0.90134 -1.133813,0.224 -2.55674,0.57076 -2.888105,1.8625 -0.291619,1.03811 0.255436,2.22839 1.205412,2.72161 -1.210726,3.93098 -2.133869,8.01301 -4.075757,11.67008 -0.489555,0.65134 -1.096167,-0.18337 -1.692231,-0.19318 -1.49054,-0.42595 -3.499113,0.26036 -3.753213,1.958 -0.262888,1.92383 1.634489,3.38216 3.386849,3.56376 2.330328,0.3379 4.623908,-0.8308 6.340804,-2.31616 1.050234,-1.0207 1.788587,-2.35684 2.368645,-3.6562 1.366001,1.33826 3.491844,1.11651 5.124761,0.45516 0.949269,-0.3221 1.856291,-0.94604 2.624951,-1.47631 0.58196,1.43525 2.36201,2.32332 3.80507,1.58606 1.20863,-0.3935 2.22744,-1.19124 3.18987,-1.99675 0.26573,1.46535 1.72485,2.61832 3.22997,2.30205 0.99092,-0.10468 1.90491,-0.53632 2.77712,-0.9923 1.78288,1.55424 4.37943,1.07177 6.4222,0.38182 0.4547,-0.0839 1.00574,-0.69486 1.25869,-0.007 1.52367,1.49542 3.99067,1.24588 5.6936,0.20341 1.51632,-0.68559 2.95658,-2.05488 2.87211,-3.84493 0.0102,-1.54503 -1.13202,-2.78276 -1.95038,-3.93282 1.34873,-0.81686 3.3492,-0.0384 4.42835,-1.41875 1.1407,-1.37343 0.13013,-3.58444 -1.52569,-3.95992 -2.46814,-0.81548 -5.20806,0.32565 -6.98229,2.07678 -0.28834,0.18406 -0.54009,-0.70997 -0.92849,-0.84269 -0.2756,-0.32529 -1.11305,-0.5385 -1.1353,-0.73106 1.25158,-0.90651 2.70479,-1.77957 3.43686,-3.19157 0.61563,-1.82789 -1.39916,-3.41939 -3.08963,-3.29874 z"
       inkscape:label="Offset"
       sodipodi:nodetypes="ccccccccccccccccccccccccccccccccccccccccccccccccccccccccccccccccccccccccccccccccccccccccccccccccccccccccccc" />
    <g
       id="g35081"
       inkscape:label="Jamais"
       style="display:inline;fill:#f4c401;fill-opacity:1;stroke-width:0.879821"
       transform="matrix(1.1365947,0,0,1.1365947,-1.5393221,-37.589902)">
      <path
         d="m 23.241762,278.7398 c -0.413067,0 -0.63337,0.18219 -0.853672,0.36437 -0.330455,0.31233 -0.468143,0.39041 -0.881211,0.44246 -0.468144,0.0781 -0.826135,0.13014 -1.101514,0.26027 -0.24784,0.1041 -0.49568,0.2863 -0.49568,0.59862 0,0.44246 0.578294,0.85888 1.211665,0.96299 0.192764,0.0261 0.220302,0.0781 0.192764,0.23425 -1.431967,4.89305 -2.065337,6.92315 -3.029162,9.42173 -0.413067,1.0671 -0.798596,1.82188 -1.321815,2.39447 -0.468143,0.41643 -0.881211,0.59862 -1.156589,0.59862 -0.275379,0 -0.523219,-0.10411 -0.715984,-0.20822 -0.24784,-0.13013 -0.991362,-0.3904 -1.431967,-0.3904 -0.468143,0 -1.101513,0.36438 -1.101513,0.78081 0,0.3904 0.357992,0.93697 0.715984,1.11915 0.578294,0.2863 1.294278,0.52054 1.817496,0.52054 0.330455,0 0.715984,-0.13013 1.101513,-0.23424 0.302917,-0.0781 0.743522,-0.26027 1.101514,-0.39041 0.275378,-0.13012 1.211664,-0.57258 2.065338,-1.48352 0.991361,-1.04108 1.927648,-3.3835 2.836396,-6.53275 1.321815,-4.55471 1.459505,-5.07525 1.762421,-5.804 0.137689,-0.36437 0.385529,-0.75478 0.550757,-0.93697 0.192765,-0.18218 0.413067,-0.49451 0.24784,-0.91094 -0.165227,-0.44246 -0.908748,-0.80683 -1.514581,-0.80683 z"
         id="path46483"
         style="font-size:26.7717px;line-height:1.25;font-family:'Caflisch Script';-inkscape-font-specification:'Caflisch Script';letter-spacing:-0.769606px;stroke-width:0.362002" />
      <path
         d="m 30.235946,281.85739 c -0.29993,0 -1.472381,0.10514 -2.972028,1.36687 -1.145186,0.99888 -2.290371,2.28689 -2.999295,3.68005 -0.872523,1.60345 -1.03612,2.44461 -1.03612,2.97033 0,0.99887 1.063386,1.55087 1.390582,1.55087 0.572593,0 1.145185,-0.23657 1.881375,-0.76229 0.763458,-0.52572 2.208572,-1.78745 2.535768,-2.15546 0.163597,-0.15772 0.218131,-0.15772 0.245397,0.0788 0,0.28915 0,0.52572 0.05453,0.92001 0.109066,1.07773 0.845256,1.91888 1.85411,1.91888 1.717778,0 4.362611,-2.47089 5.562328,-4.75778 0.245397,-0.49943 0.381728,-0.97258 0.245397,-1.20915 -0.109065,-0.18401 -0.381728,-0.21029 -0.681658,0.0525 -1.717778,2.28689 -3.571888,3.89034 -4.199013,3.89034 -0.408994,0 -0.681657,-0.368 -0.681657,-1.28802 0,-1.57716 0.490793,-3.2069 1.199718,-4.75777 0.08179,-0.23658 0.21813,-0.55201 -0.545326,-0.97258 -0.245398,-0.15772 -0.436262,-0.10515 -0.654392,0.0788 -0.163598,0.10515 -0.29993,0.10515 -0.354462,-0.0525 -0.163598,-0.2103 -0.463528,-0.55201 -0.845256,-0.55201 z m -1.008854,1.97145 c 0.354462,0 0.572593,0.31544 0.654392,0.55202 0.0818,0.26285 0,0.60457 -0.163598,0.86743 -0.109065,0.184 -0.545326,0.92001 -0.927055,1.34059 -0.817989,0.92001 -1.199718,1.41945 -1.663245,1.78745 -0.408995,0.34172 -0.81799,0.60458 -1.03612,0.60458 -0.218131,0 -0.272663,-0.368 -0.190864,-0.70972 0.163598,-0.70973 0.927055,-2.18174 1.854109,-3.23319 0.790724,-0.89372 1.226984,-1.20916 1.472381,-1.20916 z"
         id="path46480"
         style="font-size:26.7717px;line-height:1.25;font-family:'Caflisch Script';-inkscape-font-specification:'Caflisch Script';letter-spacing:-0.756919px;stroke-width:0.362002" />
      <path
         d="m 43.136655,281.85739 c -0.26501,0 -0.689024,0.21029 -1.13954,0.60458 -0.450516,0.368 -0.768527,0.65715 -1.590055,1.49831 -0.980534,0.99887 -1.72256,1.86631 -2.835599,3.10175 -0.397513,0.44687 -0.556519,0.26287 -0.318011,-0.47315 0.344512,-1.1303 0.795027,-2.36574 1.113039,-3.04918 0.344512,-0.70973 -0.0795,-1.20916 -0.636022,-1.65603 -0.265009,-0.21028 -0.503518,-0.28914 -0.742025,-0.28914 -0.715526,0 -1.431051,1.94517 -1.643058,2.57603 -0.106003,0.34172 0.0795,0.49944 0.185506,0.49944 0.132506,0 0.159006,0.13143 0.0795,0.39429 -0.477016,1.78746 -0.87453,3.0229 -0.980534,3.81149 -0.212008,1.78746 0.556519,2.44461 0.954034,2.44461 0.265009,0 0.556519,-0.13143 1.033535,-0.65715 0.503518,-0.55201 3.127109,-3.89035 3.524623,-4.33722 0.291509,-0.34171 0.58302,-0.49943 0.689024,-0.44685 0.132504,0.0789 0.0795,0.31543 -0.0265,0.57829 -0.265009,0.76229 -0.503518,1.55087 -0.689024,2.28689 -0.371013,1.39316 -0.132505,2.54976 0.503517,2.54976 0.371013,0 0.768527,-0.23658 1.298545,-0.73602 0.583021,-0.55201 2.888601,-3.15433 3.524623,-3.89035 0.29151,-0.34172 0.424015,-0.31542 0.318011,0.0526 -0.0795,0.28915 -0.185507,0.9463 -0.238508,1.39317 -0.26501,2.31317 0.583019,3.36462 1.934567,3.36462 1.298544,0 3.498121,-1.39317 5.406188,-4.70522 0.397513,-0.68344 0.477016,-1.1303 0.344512,-1.31431 -0.106005,-0.15772 -0.318012,-0.13142 -0.55652,0.15772 -2.411584,3.0229 -3.683628,3.99549 -4.425654,3.99549 -0.636022,0 -0.768526,-0.70972 -0.609521,-1.76117 0.212008,-1.4983 0.636023,-2.49718 0.901032,-2.99661 0.238507,-0.47315 0.503517,-0.68345 0.689023,-0.84116 0.238509,-0.21029 0.371014,-0.368 0.371014,-0.68344 0,-0.5783 -0.609522,-1.23545 -1.219043,-1.23545 -0.318011,0 -0.742026,0.26286 -1.16604,0.68344 -0.503518,0.49944 -3.233113,3.46977 -4.054641,4.28463 -0.159006,0.13144 -0.29151,0.23658 -0.424015,0.18401 -0.106004,-0.0526 -0.053,-0.26287 0.106003,-0.65716 0.291511,-0.76229 0.927533,-2.20802 1.113039,-2.73375 0.530019,-1.47202 -0.424015,-1.99774 -0.795027,-1.99774 z"
         id="path46477"
         style="font-size:26.3933px;line-height:1.25;font-family:'Caflisch Script';-inkscape-font-specification:'Caflisch Script';letter-spacing:-0.746219px;stroke-width:0.362002" />
      <path
         d="m 57.757107,281.8574 c -0.29993,0 -1.472381,0.10515 -2.972028,1.36688 -1.145186,0.99887 -2.290371,2.28688 -2.999295,3.68005 -0.872523,1.60344 -1.03612,2.4446 -1.03612,2.97032 0,0.99887 1.063387,1.55087 1.390582,1.55087 0.572593,0 1.145185,-0.23656 1.881376,-0.76229 0.763457,-0.52572 2.208571,-1.78745 2.535767,-2.15546 0.163599,-0.15772 0.218131,-0.15772 0.245397,0.0788 0,0.28915 0,0.52572 0.05453,0.92002 0.109065,1.07773 0.845256,1.91887 1.854109,1.91887 1.717778,0 4.362611,-2.47088 5.562328,-4.75777 0.245397,-0.49944 0.381728,-0.97258 0.245397,-1.20915 -0.109065,-0.18401 -0.381728,-0.2103 -0.681658,0.0525 -1.717778,2.28688 -3.571888,3.89033 -4.199013,3.89033 -0.408994,0 -0.681657,-0.368 -0.681657,-1.28801 0,-1.57716 0.490793,-3.2069 1.199718,-4.75778 0.08179,-0.23658 0.21813,-0.55201 -0.545326,-0.97258 -0.245398,-0.15772 -0.436262,-0.10515 -0.654392,0.0788 -0.163598,0.10515 -0.29993,0.10515 -0.354462,-0.0525 -0.163598,-0.21029 -0.463528,-0.55201 -0.845256,-0.55201 z m -1.008854,1.97146 c 0.354462,0 0.572593,0.31543 0.654392,0.55201 0.0818,0.26285 0,0.60457 -0.163598,0.86743 -0.109065,0.184 -0.545326,0.92001 -0.927055,1.34059 -0.817989,0.92002 -1.199718,1.41945 -1.663245,1.78745 -0.408994,0.34173 -0.81799,0.60458 -1.03612,0.60458 -0.218131,0 -0.272663,-0.368 -0.190864,-0.70972 0.163598,-0.70973 0.927055,-2.18174 1.854109,-3.23318 0.790724,-0.89373 1.226985,-1.20916 1.472381,-1.20916 z"
         id="path46474"
         style="font-size:26.7717px;line-height:1.25;font-family:'Caflisch Script';-inkscape-font-specification:'Caflisch Script';letter-spacing:-0.756919px;stroke-width:0.362002" />
      <path
         d="m 66.917159,276.50833 c -0.599859,0 -0.927054,0.28915 -0.981588,1.10402 -0.02726,0.60458 0.05453,1.02516 0.136333,1.3143 0.136331,0.47315 0.572591,0.9463 1.172451,1.15659 0.51806,0.184 0.899788,0.15771 0.899788,-0.368 0,-0.63087 0,-1.28803 0.163598,-2.18175 0.136332,-0.65715 -0.599859,-1.02516 -1.390582,-1.02516 z M 63.50887,291.4651 c 0.463527,0 0.981587,-0.10514 1.663245,-0.36801 1.581446,-0.60457 4.117213,-2.97032 5.1806,-4.62634 0.354462,-0.55201 0.436261,-0.97259 0.299929,-1.20915 -0.109066,-0.18402 -0.381729,-0.2103 -0.708924,0.13143 -1.526914,1.65601 -4.226278,4.02176 -5.098801,4.02176 -0.51806,0 -0.572593,-0.36801 -0.29993,-1.18287 0.654392,-2.02403 1.33605,-3.49605 2.181305,-4.9155 0.272663,-0.49943 0,-1.07773 -0.354462,-1.34059 -0.136331,-0.10514 -0.299928,-0.15772 -0.463527,-0.15772 -0.790723,0 -2.508501,1.76118 -2.944762,2.8389 -0.163597,0.39429 -0.109065,0.63087 0,0.86744 0.136332,0.23658 0.136332,0.39429 0,0.7623 -0.21813,0.47314 -0.681658,1.91888 -0.845256,2.54975 -0.190864,0.63086 -0.190864,1.10401 0.05453,1.57716 0.381727,0.81486 0.927053,1.05144 1.336049,1.05144 z"
         id="path46471"
         style="font-size:26.7717px;line-height:1.25;font-family:'Caflisch Script';-inkscape-font-specification:'Caflisch Script';letter-spacing:-0.756919px;stroke-width:0.362002" />
      <path
         d="m 74.152786,281.79183 c -0.899788,0 -2.317636,0.44686 -3.162892,1.15659 -0.790723,0.60458 -1.635979,1.62973 -1.635979,2.57603 0,0.34173 0.136331,0.78858 0.272663,1.10402 0.190864,0.39429 0.627125,1.1303 0.899788,1.47202 0.381729,0.49943 0.627125,0.97258 0.627125,1.23544 0,0.15772 -0.21813,0.368 -0.572593,0.368 -0.381727,0 -0.545326,-0.0525 -0.817989,-0.15771 -0.245397,-0.18401 -0.436261,-0.18401 -0.681657,-0.0525 -0.245397,0.10514 -0.599859,0.31543 -0.981588,0.73601 -0.190864,0.15771 -0.21813,0.368 -0.21813,0.552 0.109065,0.5783 1.145185,0.97259 1.881375,0.97259 0.29993,0 0.627126,-0.0788 1.03612,-0.23658 0.599859,-0.23657 1.635979,-0.78858 1.990441,-1.10401 0.327197,-0.28915 0.681659,-0.9463 0.681659,-1.34059 0,-0.68344 -0.408996,-1.44573 -1.036121,-2.20803 -0.463527,-0.60458 -0.817989,-1.18288 -0.817989,-1.68231 0,-0.81486 1.881375,-1.49831 3.571887,-1.49831 0.463528,0 0.872522,-0.21028 0.872522,-0.70971 0,-0.31544 -0.109065,-0.5783 -0.463527,-0.81487 -0.354462,-0.23658 -0.763457,-0.36801 -1.445115,-0.36801 z"
         id="path46468"
         style="font-size:26.7717px;line-height:1.25;font-family:'Caflisch Script';-inkscape-font-specification:'Caflisch Script';letter-spacing:-0.756919px;stroke-width:0.362002" />
    </g>
    <g
       id="g35093"
       inkscape:label="Joues"
       style="display:inline;fill:#f4c401;fill-opacity:1;stroke-width:0.879821"
       transform="matrix(1.1365947,0,0,1.1365947,-1.5393221,-37.589902)">
      <path
         d="m 84.411273,278.66379 c -0.408996,0 -0.627126,0.184 -0.845256,0.368 -0.327196,0.31543 -0.463528,0.3943 -0.872522,0.44687 -0.463528,0.0788 -0.81799,0.13143 -1.090653,0.26286 -0.245397,0.10515 -0.490794,0.28915 -0.490794,0.60458 0,0.44686 0.572593,0.86743 1.199718,0.97258 0.190865,0.0263 0.218131,0.0788 0.190865,0.23658 -1.417849,4.94178 -2.044975,6.99209 -2.999295,9.51555 -0.408995,1.07773 -0.790723,1.84002 -1.308784,2.41832 -0.463527,0.42058 -0.872521,0.60458 -1.145185,0.60458 -0.272663,0 -0.518059,-0.10515 -0.708924,-0.2103 -0.245397,-0.13142 -0.981588,-0.39428 -1.417849,-0.39428 -0.463527,0 -1.090652,0.368 -1.090652,0.78858 0,0.39429 0.354462,0.9463 0.708924,1.1303 0.572593,0.28914 1.281517,0.52572 1.799577,0.52572 0.327196,0 0.708924,-0.13143 1.090653,-0.23658 0.299929,-0.0788 0.736191,-0.26286 1.090653,-0.39428 0.272663,-0.13143 1.199717,-0.5783 2.044973,-1.49831 0.981587,-1.05144 1.908642,-3.41719 2.80843,-6.5978 1.308784,-4.60006 1.445115,-5.12578 1.745045,-5.86179 0.136332,-0.36801 0.381728,-0.7623 0.545326,-0.9463 0.190864,-0.184 0.408995,-0.49943 0.245396,-0.92001 -0.163597,-0.44687 -0.899788,-0.81487 -1.499646,-0.81487 z"
         id="path45616"
         style="font-size:26.7717px;line-height:1.25;font-family:'Caflisch Script';-inkscape-font-specification:'Caflisch Script';letter-spacing:-0.756919px;stroke-width:0.362002" />
      <path
         d="m 83.459145,289.23078 c 0,1.23545 0.817989,2.20804 1.799577,2.20804 1.963175,0 3.735485,-1.05145 5.044268,-2.54975 1.117919,-1.20916 1.526914,-2.47089 1.526914,-3.52234 0,-1.02515 -0.381729,-2.18174 -1.363316,-2.65489 -0.190864,-0.0788 -0.21813,-0.15771 -0.21813,-0.31543 0,-0.368 -0.05453,-1.02515 -1.090653,-1.02515 -0.463527,0 -0.872522,0.15772 -1.254251,0.52572 -0.272663,0.26286 -0.463526,0.39428 -0.817989,0.39428 -0.299929,0 -0.51806,0.13143 -0.708924,0.31544 -0.190865,0.21029 -0.327196,0.39429 -0.354462,0.70972 -0.02726,0.47315 -0.245397,0.70973 -0.463528,0.99888 -0.327195,0.39428 -1.036119,1.41944 -1.445114,2.31317 -0.490793,1.15658 -0.654392,1.8926 -0.654392,2.60231 z m 2.563034,-0.44686 c 0,-1.10401 1.090652,-3.23318 2.317637,-4.62634 0.163598,-0.21029 0.436261,-0.44686 0.627125,-0.44686 0.490793,0 0.681657,0.736 0.681657,1.39316 0,0.92001 -0.927054,2.94404 -1.717777,3.78519 -0.51806,0.55201 -0.981587,0.76229 -1.336049,0.76229 -0.245397,0 -0.572593,-0.31543 -0.572593,-0.86744 z"
         id="path45628"
         style="font-size:26.7717px;line-height:1.25;font-family:'Caflisch Script';-inkscape-font-specification:'Caflisch Script';letter-spacing:-0.756919px;stroke-width:0.362002" />
      <path
         d="m 102.90839,287.3721 c -1.13958,0.99058 -2.24323,1.75355 -2.81241,1.75355 -0.408993,0 -0.463526,-0.34173 -0.408993,-0.92002 0.136331,-1.10401 0.681653,-2.8126 1.254253,-3.94291 0.27266,-0.52572 0.43626,-0.81487 0.54532,-1.05144 0.3272,-0.68344 -0.38172,-1.4983 -1.06338,-1.4983 -0.3272,0 -0.654394,0.21028 -1.090655,0.84115 -0.490794,0.73601 -1.635978,2.6286 -2.917495,4.07434 -1.308784,1.36687 -2.072241,2.02403 -2.37217,2.02403 -0.327196,0 -0.463527,-0.28915 -0.190864,-1.13031 0.327195,-1.07773 0.545326,-1.57716 0.763456,-1.97145 0.190864,-0.34172 0.518061,-0.49944 0.790724,-0.84116 0.245396,-0.31543 0.790723,-1.20916 0.790723,-1.55087 0,-0.47315 -0.81799,-1.1303 -1.499647,-1.1303 -0.327197,0 -0.681659,0.21028 -0.954322,0.60458 -0.327195,0.57829 -1.172451,2.12916 -1.826843,3.99548 -0.763456,1.94516 -0.845255,2.60231 -0.845255,3.02289 0,0.84116 0.572592,1.65603 1.145185,1.65603 0.408994,0 0.845256,-0.10515 1.417848,-0.44687 1.635979,-0.99887 3.435555,-2.68117 3.871817,-3.12804 0.163598,-0.15771 0.354462,-0.0525 0.272663,0.23657 -0.08179,0.28915 -0.163598,0.5783 -0.245397,0.99888 -0.327196,1.52459 0.163599,2.41831 1.008854,2.41831 0.408995,0 1.172451,-0.184 1.935908,-0.552 0.72371,-0.33888 1.82376,-0.9801 3.21691,-2.41661"
         id="path45625"
         style="font-size:26.7717px;line-height:1.25;font-family:'Caflisch Script';-inkscape-font-specification:'Caflisch Script';letter-spacing:-0.756919px;display:inline;stroke-width:0.362002"
         sodipodi:nodetypes="cscccsccscccssccssccccscc" />
      <path
         d="m 101.43838,288.78392 c 0,1.65602 1.22699,2.60232 2.48124,2.60232 3.19016,0 6.59844,-2.23431 8.45256,-4.5212 0.35446,-0.44686 0.49079,-0.92001 0.35446,-1.15658 -0.10907,-0.18401 -0.38174,-0.2103 -0.65439,0.0788 -2.78117,2.70747 -5.28967,3.57491 -6.92564,3.57491 -0.79073,0 -1.22699,-0.39429 -1.22699,-0.97259 0,-0.368 0.0818,-0.60458 0.21812,-0.86744 0.0818,-0.184 0.1636,-0.21028 0.35447,-0.13143 0.2454,0.10515 0.54533,0.21029 0.84526,0.21029 1.47238,0 2.4267,-0.68344 2.9993,-1.23544 0.54532,-0.5783 1.03611,-1.34059 1.03611,-2.28689 0,-0.99887 -0.65439,-1.57716 -1.58145,-1.62974 -0.19086,-0.0263 -0.32719,-0.13142 -0.40899,-0.23657 -0.16359,-0.31543 -0.43626,-0.52572 -0.95432,-0.52572 -1.14519,0 -2.56303,1.57716 -3.10836,2.31318 -1.19972,1.65601 -1.88138,3.60118 -1.88138,4.78405 z m 3.68095,-2.70746 c -0.35446,0 -0.40899,-0.0788 -0.29992,-0.3943 0.3272,-0.81486 1.22698,-2.10287 1.77231,-2.10287 0.35446,0 0.62713,0.21028 0.62713,0.57829 0,0.736 -1.25426,1.91888 -2.09952,1.91888 z m 0.35447,-5.33607 c 0,0.26286 0.35446,0.31543 0.68166,0.23657 0.65439,-0.15771 1.79957,-0.78858 3.89908,-2.54975 0.409,-0.34171 0.51805,-0.736 0.2454,-1.07772 -0.29993,-0.34172 -0.7362,-0.57829 -1.30878,-0.57829 -0.59987,0 -0.818,0.26285 -1.1452,0.70972 -1.03611,1.3143 -1.63597,2.12917 -2.12677,2.68118 -0.13633,0.184 -0.24539,0.44686 -0.24539,0.57829 z"
         id="path45622"
         style="font-size:26.7717px;line-height:1.25;font-family:'Caflisch Script';-inkscape-font-specification:'Caflisch Script';letter-spacing:-0.756919px;display:inline;stroke-width:0.362002" />
      <path
         d="m 115.14597,281.79183 c -0.8998,0 -2.31764,0.44686 -3.1629,1.15659 -0.79072,0.60458 -1.63598,1.62973 -1.63598,2.57603 0,0.34173 0.13634,0.78858 0.27267,1.10402 0.19086,0.39429 0.62713,1.1303 0.89978,1.47202 0.38174,0.49943 0.62713,0.97258 0.62713,1.23544 0,0.15772 -0.21813,0.368 -0.57259,0.368 -0.38173,0 -0.54533,-0.0525 -0.81799,-0.15771 -0.2454,-0.18401 -0.43626,-0.18401 -0.68166,-0.0525 -0.24539,0.10514 -0.59985,0.31543 -0.98159,0.73601 -0.19086,0.15771 -0.21813,0.368 -0.21813,0.552 0.10907,0.5783 1.14519,0.97259 1.88138,0.97259 0.29993,0 0.62713,-0.0788 1.03612,-0.23658 0.59986,-0.23657 1.63597,-0.78858 1.99045,-1.10401 0.32719,-0.28915 0.68165,-0.9463 0.68165,-1.34059 0,-0.68344 -0.409,-1.44573 -1.03613,-2.20803 -0.46352,-0.60458 -0.81798,-1.18288 -0.81798,-1.68231 0,-0.81486 1.88137,-1.49831 3.57189,-1.49831 0.46352,0 0.87252,-0.21028 0.87252,-0.70971 0,-0.31544 -0.10907,-0.5783 -0.46353,-0.81487 -0.35446,-0.23658 -0.76346,-0.36801 -1.44511,-0.36801 z"
         id="path45619"
         style="font-size:26.7717px;line-height:1.25;font-family:'Caflisch Script';-inkscape-font-specification:'Caflisch Script';letter-spacing:-0.756919px;display:inline;stroke-width:0.362002" />
    </g>
  </g>
</svg>
