<?xml version="1.0" encoding="UTF-8" standalone="no"?>
<!-- Created with Inkscape (http://www.inkscape.org/) -->

<svg
   version="1.1"
   id="svg902"
   width="682.43964"
   height="169.33528"
   viewBox="0 0 614.19567 152.40176"
   sodipodi:docname="auto-at4playerses.svg"
   inkscape:version="1.1.2 (0a00cf5339, 2022-02-04)"
   xmlns:inkscape="http://www.inkscape.org/namespaces/inkscape"
   xmlns:sodipodi="http://sodipodi.sourceforge.net/DTD/sodipodi-0.dtd"
   xmlns:xlink="http://www.w3.org/1999/xlink"
   xmlns="http://www.w3.org/2000/svg"
   xmlns:svg="http://www.w3.org/2000/svg"
   xmlns:rdf="http://www.w3.org/1999/02/22-rdf-syntax-ns#"
   xmlns:cc="http://creativecommons.org/ns#"
   xmlns:dc="http://purl.org/dc/elements/1.1/">
  <defs
     id="defs906">
    <linearGradient
       inkscape:collect="always"
       id="linearGradient161308">
      <stop
         style="stop-color:#373969;stop-opacity:1"
         offset="0"
         id="stop161304" />
      <stop
         style="stop-color:#a7bbf1;stop-opacity:1"
         offset="0.43662432"
         id="stop161408" />
      <stop
         style="stop-color:#2170cc;stop-opacity:1"
         offset="1"
         id="stop161306" />
    </linearGradient>
    <linearGradient
       inkscape:collect="always"
       id="linearGradient33518">
      <stop
         style="stop-color:#ff7a01;stop-opacity:1"
         offset="0"
         id="stop33514" />
      <stop
         style="stop-color:#fffc00;stop-opacity:1"
         offset="0.35918856"
         id="stop72058" />
      <stop
         style="stop-color:#ffff00;stop-opacity:1"
         offset="0.60327649"
         id="stop44388" />
      <stop
         style="stop-color:#ff7501;stop-opacity:1"
         offset="1"
         id="stop33516" />
    </linearGradient>
    <filter
       style="color-interpolation-filters:sRGB"
       inkscape:label="Drop Shadow"
       id="filter184916"
       x="-0.0067741848"
       y="-0.030333091"
       width="1.0208855"
       height="1.1118864">
      <feGaussianBlur
         in="SourceGraphic"
         stdDeviation="0.926303"
         result="blur"
         id="feGaussianBlur184906" />
      <feDiffuseLighting
         diffuseConstant="1"
         surfaceScale="10"
         lighting-color="#ffffff"
         result="diffuse"
         id="feDiffuseLighting184910">
        <feDistantLight
           elevation="13"
           azimuth="236"
           id="feDistantLight184908" />
      </feDiffuseLighting>
      <feComposite
         in="diffuse"
         in2="diffuse"
         operator="arithmetic"
         k1="1"
         result="composite1"
         id="feComposite184912"
         k2="0"
         k3="0"
         k4="0" />
      <feComposite
         in="composite1"
         in2="SourceGraphic"
         k1="1"
         operator="arithmetic"
         k3="1"
         result="fbSourceGraphic"
         id="feComposite184914"
         k2="0"
         k4="0" />
      <feColorMatrix
         result="fbSourceGraphicAlpha"
         in="fbSourceGraphic"
         values="0 0 0 -1 0 0 0 0 -1 0 0 0 0 -1 0 0 0 0 1 0"
         id="feColorMatrix188362" />
      <feFlood
         id="feFlood188364"
         flood-opacity="1"
         flood-color="rgb(0,0,0)"
         result="flood"
         in="fbSourceGraphic" />
      <feComposite
         in2="fbSourceGraphic"
         id="feComposite188366"
         in="flood"
         operator="in"
         result="composite1" />
      <feGaussianBlur
         id="feGaussianBlur188368"
         in="composite1"
         stdDeviation="0"
         result="blur" />
      <feOffset
         id="feOffset188370"
         dx="3"
         dy="5"
         result="offset" />
      <feComposite
         in2="offset"
         id="feComposite188372"
         in="fbSourceGraphic"
         operator="over"
         result="composite2" />
    </filter>
    <filter
       style="color-interpolation-filters:sRGB"
       inkscape:label="Drop Shadow"
       id="filter184928"
       x="-0.052764859"
       y="-0.029305886"
       width="1.183736"
       height="1.1310055">
      <feGaussianBlur
         in="SourceGraphic"
         stdDeviation="0.926303"
         result="blur"
         id="feGaussianBlur184918" />
      <feDiffuseLighting
         diffuseConstant="1"
         surfaceScale="10"
         lighting-color="#ffffff"
         result="diffuse"
         id="feDiffuseLighting184922">
        <feDistantLight
           elevation="13"
           azimuth="236"
           id="feDistantLight184920" />
      </feDiffuseLighting>
      <feComposite
         in="diffuse"
         in2="diffuse"
         operator="arithmetic"
         k1="1"
         result="composite1"
         id="feComposite184924"
         k2="0"
         k3="0"
         k4="0" />
      <feComposite
         in="composite1"
         in2="SourceGraphic"
         k1="1"
         operator="arithmetic"
         k3="1"
         result="fbSourceGraphic"
         id="feComposite184926"
         k2="0"
         k4="0" />
      <feColorMatrix
         result="fbSourceGraphicAlpha"
         in="fbSourceGraphic"
         values="0 0 0 -1 0 0 0 0 -1 0 0 0 0 -1 0 0 0 0 1 0"
         id="feColorMatrix188374" />
      <feFlood
         id="feFlood188376"
         flood-opacity="1"
         flood-color="rgb(0,0,0)"
         result="flood"
         in="fbSourceGraphic" />
      <feComposite
         in2="fbSourceGraphic"
         id="feComposite188378"
         in="flood"
         operator="in"
         result="composite1" />
      <feGaussianBlur
         id="feGaussianBlur188380"
         in="composite1"
         stdDeviation="0"
         result="blur" />
      <feOffset
         id="feOffset188382"
         dx="3"
         dy="5"
         result="offset" />
      <feComposite
         in2="offset"
         id="feComposite188384"
         in="fbSourceGraphic"
         operator="over"
         result="fbSourceGraphic" />
      <feColorMatrix
         result="fbSourceGraphicAlpha"
         in="fbSourceGraphic"
         values="0 0 0 -1 0 0 0 0 -1 0 0 0 0 -1 0 0 0 0 1 0"
         id="feColorMatrix219082" />
      <feGaussianBlur
         id="feGaussianBlur219084"
         in="fbSourceGraphic"
         stdDeviation="0.5"
         result="blur" />
      <feDiffuseLighting
         id="feDiffuseLighting219086"
         diffuseConstant="1"
         surfaceScale="10"
         lighting-color="#ffffff"
         result="diffuse">
        <feDistantLight
           id="feDistantLight219088"
           elevation="13"
           azimuth="236" />
      </feDiffuseLighting>
      <feComposite
         in2="diffuse"
         id="feComposite219090"
         in="diffuse"
         operator="arithmetic"
         k1="1"
         result="composite1"
         k2="0"
         k3="0"
         k4="0" />
      <feComposite
         in2="fbSourceGraphic"
         id="feComposite219092"
         in="composite1"
         k1="1"
         operator="arithmetic"
         k3="1"
         result="fbSourceGraphic"
         k2="0"
         k4="0" />
      <feColorMatrix
         result="fbSourceGraphicAlpha"
         in="fbSourceGraphic"
         values="0 0 0 -1 0 0 0 0 -1 0 0 0 0 -1 0 0 0 0 1 0"
         id="feColorMatrix219136" />
      <feFlood
         id="feFlood219138"
         flood-opacity="1"
         flood-color="rgb(0,0,0)"
         result="flood"
         in="fbSourceGraphic" />
      <feComposite
         in2="fbSourceGraphic"
         id="feComposite219140"
         in="flood"
         operator="in"
         result="composite1" />
      <feGaussianBlur
         id="feGaussianBlur219142"
         in="composite1"
         stdDeviation="0"
         result="blur" />
      <feOffset
         id="feOffset219144"
         dx="3"
         dy="5"
         result="offset" />
      <feComposite
         in2="offset"
         id="feComposite219146"
         in="fbSourceGraphic"
         operator="over"
         result="composite2" />
    </filter>
    <linearGradient
       inkscape:collect="always"
       xlink:href="#linearGradient161308"
       id="linearGradient218692"
       x1="148.3185"
       y1="162.58894"
       x2="151.97664"
       y2="52.277431"
       gradientUnits="userSpaceOnUse" />
    <filter
       style="color-interpolation-filters:sRGB"
       inkscape:label="Drop Shadow"
       id="filter219104"
       x="-0.0023148248"
       y="-0.011088202"
       width="1.0104167"
       height="1.0683773">
      <feGaussianBlur
         in="SourceGraphic"
         stdDeviation="0.5"
         result="blur"
         id="feGaussianBlur219094" />
      <feDiffuseLighting
         diffuseConstant="1"
         surfaceScale="10"
         lighting-color="#ffffff"
         result="diffuse"
         id="feDiffuseLighting219098">
        <feDistantLight
           elevation="13"
           azimuth="236"
           id="feDistantLight219096" />
      </feDiffuseLighting>
      <feComposite
         in="diffuse"
         in2="diffuse"
         operator="arithmetic"
         k1="1"
         result="composite1"
         id="feComposite219100"
         k2="0"
         k3="0"
         k4="0" />
      <feComposite
         in="composite1"
         in2="SourceGraphic"
         k1="1"
         operator="arithmetic"
         k3="1"
         result="fbSourceGraphic"
         id="feComposite219102"
         k2="0"
         k4="0" />
      <feColorMatrix
         result="fbSourceGraphicAlpha"
         in="fbSourceGraphic"
         values="0 0 0 -1 0 0 0 0 -1 0 0 0 0 -1 0 0 0 0 1 0"
         id="feColorMatrix219148" />
      <feFlood
         id="feFlood219150"
         flood-opacity="1"
         flood-color="rgb(0,0,0)"
         result="flood"
         in="fbSourceGraphic" />
      <feComposite
         in2="fbSourceGraphic"
         id="feComposite219152"
         in="flood"
         operator="in"
         result="composite1" />
      <feGaussianBlur
         id="feGaussianBlur219154"
         in="composite1"
         stdDeviation="0"
         result="blur" />
      <feOffset
         id="feOffset219156"
         dx="3"
         dy="5"
         result="offset" />
      <feComposite
         in2="offset"
         id="feComposite219158"
         in="fbSourceGraphic"
         operator="over"
         result="composite2" />
    </filter>
    <filter
       style="color-interpolation-filters:sRGB"
       inkscape:label="Drop Shadow"
       id="filter219519"
       x="-0.0058844416"
       y="-0.025681155"
       width="1.0170121"
       height="1.1033942">
      <feGaussianBlur
         in="SourceGraphic"
         stdDeviation="0.8"
         result="blur"
         id="feGaussianBlur219509" />
      <feDiffuseLighting
         diffuseConstant="1"
         surfaceScale="10"
         lighting-color="#ffffff"
         result="diffuse"
         id="feDiffuseLighting219513">
        <feDistantLight
           elevation="13"
           azimuth="236"
           id="feDistantLight219511" />
      </feDiffuseLighting>
      <feComposite
         in="diffuse"
         in2="diffuse"
         operator="arithmetic"
         k1="1"
         result="composite1"
         id="feComposite219515"
         k2="0"
         k3="0"
         k4="0" />
      <feComposite
         in="composite1"
         in2="SourceGraphic"
         k1="1"
         operator="arithmetic"
         k3="1"
         result="fbSourceGraphic"
         id="feComposite219517"
         k2="0"
         k4="0" />
      <feColorMatrix
         result="fbSourceGraphicAlpha"
         in="fbSourceGraphic"
         values="0 0 0 -1 0 0 0 0 -1 0 0 0 0 -1 0 0 0 0 1 0"
         id="feColorMatrix219539" />
      <feFlood
         id="feFlood219541"
         flood-opacity="1"
         flood-color="rgb(0,0,0)"
         result="flood"
         in="fbSourceGraphic" />
      <feComposite
         in2="fbSourceGraphic"
         id="feComposite219543"
         in="flood"
         operator="in"
         result="composite1" />
      <feGaussianBlur
         id="feGaussianBlur219545"
         in="composite1"
         stdDeviation="0"
         result="blur" />
      <feOffset
         id="feOffset219547"
         dx="3"
         dy="5"
         result="offset" />
      <feComposite
         in2="offset"
         id="feComposite219549"
         in="fbSourceGraphic"
         operator="over"
         result="composite2" />
    </filter>
    <filter
       style="color-interpolation-filters:sRGB"
       inkscape:label="Drop Shadow"
       id="filter184916-9"
       x="-0.0067741848"
       y="-0.030333091"
       width="1.0208855"
       height="1.1118864">
      <feGaussianBlur
         in="SourceGraphic"
         stdDeviation="0.926303"
         result="blur"
         id="feGaussianBlur184906-1" />
      <feDiffuseLighting
         diffuseConstant="1"
         surfaceScale="10"
         lighting-color="#ffffff"
         result="diffuse"
         id="feDiffuseLighting184910-2">
        <feDistantLight
           elevation="13"
           azimuth="236"
           id="feDistantLight184908-7" />
      </feDiffuseLighting>
      <feComposite
         in="diffuse"
         in2="diffuse"
         operator="arithmetic"
         k1="1"
         result="composite1"
         id="feComposite184912-0"
         k2="0"
         k3="0"
         k4="0" />
      <feComposite
         in="composite1"
         in2="SourceGraphic"
         k1="1"
         operator="arithmetic"
         k3="1"
         result="fbSourceGraphic"
         id="feComposite184914-9"
         k2="0"
         k4="0" />
      <feColorMatrix
         result="fbSourceGraphicAlpha"
         in="fbSourceGraphic"
         values="0 0 0 -1 0 0 0 0 -1 0 0 0 0 -1 0 0 0 0 1 0"
         id="feColorMatrix188362-3" />
      <feFlood
         id="feFlood188364-6"
         flood-opacity="1"
         flood-color="rgb(0,0,0)"
         result="flood"
         in="fbSourceGraphic" />
      <feComposite
         in2="fbSourceGraphic"
         id="feComposite188366-0"
         in="flood"
         operator="in"
         result="composite1" />
      <feGaussianBlur
         id="feGaussianBlur188368-6"
         in="composite1"
         stdDeviation="0"
         result="blur" />
      <feOffset
         id="feOffset188370-2"
         dx="3"
         dy="5"
         result="offset" />
      <feComposite
         in2="offset"
         id="feComposite188372-6"
         in="fbSourceGraphic"
         operator="over"
         result="composite2" />
    </filter>
    <filter
       style="color-interpolation-filters:sRGB"
       inkscape:label="Drop Shadow"
       id="filter184928-1"
       x="-0.03229865"
       y="-0.022401277"
       width="1.0957136"
       height="1.0814728">
      <feGaussianBlur
         in="SourceGraphic"
         stdDeviation="0.926303"
         result="blur"
         id="feGaussianBlur184918-8" />
      <feDiffuseLighting
         diffuseConstant="1"
         surfaceScale="10"
         lighting-color="#ffffff"
         result="diffuse"
         id="feDiffuseLighting184922-7">
        <feDistantLight
           elevation="13"
           azimuth="236"
           id="feDistantLight184920-9" />
      </feDiffuseLighting>
      <feComposite
         in="diffuse"
         in2="diffuse"
         operator="arithmetic"
         k1="1"
         result="composite1"
         id="feComposite184924-2"
         k2="0"
         k3="0"
         k4="0" />
      <feComposite
         in="composite1"
         in2="SourceGraphic"
         k1="1"
         operator="arithmetic"
         k3="1"
         result="fbSourceGraphic"
         id="feComposite184926-0"
         k2="0"
         k4="0" />
      <feColorMatrix
         result="fbSourceGraphicAlpha"
         in="fbSourceGraphic"
         values="0 0 0 -1 0 0 0 0 -1 0 0 0 0 -1 0 0 0 0 1 0"
         id="feColorMatrix188374-2" />
      <feFlood
         id="feFlood188376-3"
         flood-opacity="1"
         flood-color="rgb(0,0,0)"
         result="flood"
         in="fbSourceGraphic" />
      <feComposite
         in2="fbSourceGraphic"
         id="feComposite188378-7"
         in="flood"
         operator="in"
         result="composite1" />
      <feGaussianBlur
         id="feGaussianBlur188380-5"
         in="composite1"
         stdDeviation="0"
         result="blur" />
      <feOffset
         id="feOffset188382-9"
         dx="3"
         dy="5"
         result="offset" />
      <feComposite
         in2="offset"
         id="feComposite188384-2"
         in="fbSourceGraphic"
         operator="over"
         result="composite2" />
    </filter>
    <linearGradient
       inkscape:collect="always"
       xlink:href="#linearGradient33518"
       id="linearGradient9397"
       gradientUnits="userSpaceOnUse"
       gradientTransform="translate(-9.2979272,1.1993076)"
       x1="46.776211"
       y1="168.2742"
       x2="46.776211"
       y2="30.92944" />
    <linearGradient
       inkscape:collect="always"
       xlink:href="#linearGradient161308"
       id="linearGradient9442"
       gradientUnits="userSpaceOnUse"
       x1="148.3185"
       y1="162.58894"
       x2="151.97664"
       y2="52.277431"
       gradientTransform="scale(0.99569185,1.0043268)" />
    <linearGradient
       inkscape:collect="always"
       xlink:href="#linearGradient161308"
       id="linearGradient9445"
       gradientUnits="userSpaceOnUse"
       gradientTransform="matrix(0.99569185,0,0,1.0043268,-4.6329747,0)"
       x1="148.3185"
       y1="162.58894"
       x2="151.97664"
       y2="52.277431" />
    <linearGradient
       inkscape:collect="always"
       xlink:href="#linearGradient161308"
       id="linearGradient9448"
       gradientUnits="userSpaceOnUse"
       gradientTransform="matrix(0.99569185,0,0,1.0043268,-13.076264,0)"
       x1="148.3185"
       y1="162.58894"
       x2="151.97664"
       y2="52.277431" />
    <linearGradient
       inkscape:collect="always"
       xlink:href="#linearGradient161308"
       id="linearGradient9451"
       gradientUnits="userSpaceOnUse"
       gradientTransform="matrix(0.99569185,0,0,1.0043268,-7.0762643,-2)"
       x1="148.3185"
       y1="162.58894"
       x2="151.97664"
       y2="52.277431" />
    <linearGradient
       inkscape:collect="always"
       xlink:href="#linearGradient161308"
       id="linearGradient9454"
       gradientUnits="userSpaceOnUse"
       gradientTransform="matrix(0.99569185,0,0,1.0043268,-2.6329747,0)"
       x1="148.3185"
       y1="162.58894"
       x2="151.97664"
       y2="52.277431" />
    <linearGradient
       inkscape:collect="always"
       xlink:href="#linearGradient161308"
       id="linearGradient9457"
       gradientUnits="userSpaceOnUse"
       gradientTransform="matrix(0.99569185,0,0,1.0043268,-8.4673824,2)"
       x1="148.3185"
       y1="162.58894"
       x2="151.97664"
       y2="52.277431" />
    <linearGradient
       inkscape:collect="always"
       xlink:href="#linearGradient161308"
       id="linearGradient9460"
       gradientUnits="userSpaceOnUse"
       x1="148.3185"
       y1="162.58894"
       x2="151.97664"
       y2="52.277431"
       gradientTransform="scale(0.99569185,1.0043268)" />
    <linearGradient
       inkscape:collect="always"
       xlink:href="#linearGradient161308"
       id="linearGradient9463"
       gradientUnits="userSpaceOnUse"
       gradientTransform="matrix(0.99569185,0,0,1.0043268,-2,0)"
       x1="148.3185"
       y1="162.58894"
       x2="151.97664"
       y2="52.277431" />
  </defs>
  <sodipodi:namedview
     id="namedview904"
     pagecolor="#ffffff"
     bordercolor="#111111"
     borderopacity="1"
     inkscape:pageshadow="0"
     inkscape:pageopacity="0"
     inkscape:pagecheckerboard="1"
     showgrid="false"
     inkscape:zoom="0.96875001"
     inkscape:cx="193.03226"
     inkscape:cy="87.225806"
     inkscape:window-width="1366"
     inkscape:window-height="703"
     inkscape:window-x="0"
     inkscape:window-y="0"
     inkscape:window-maximized="1"
     inkscape:current-layer="g908"
     fit-margin-top="0"
     fit-margin-left="0"
     fit-margin-right="0"
     fit-margin-bottom="0" />
  <g
     inkscape:groupmode="layer"
     inkscape:label="4PlayersCollection"
     id="g908"
     transform="translate(13.158397,-24.527469)">
    <text
       xml:space="preserve"
       style="font-size:2px;line-height:1.25;font-family:TrasksHand;-inkscape-font-specification:TrasksHand;text-decoration-color:#000000;fill:#ef00eb;stroke:#0105ff;stroke-width:2.5;-inkscape-stroke:none;stop-color:#000000"
       x="150.25597"
       y="53.502819"
       id="text4082"
       inkscape:label="Signature"
       transform="rotate(32.696607)"><tspan
         sodipodi:role="line"
         id="tspan4080"
         style="font-size:2px;fill:#fafafa;fill-opacity:0.4;stroke:none;stroke-width:2.5"
         x="150.25597"
         y="53.502819">John Loreth 2022</tspan></text>
    <g
       id="g218514"
       inkscape:label="Jugadores"
       style="fill:url(#linearGradient218692);fill-opacity:1;stroke:#010000;stroke-width:1.25;stroke-miterlimit:4;stroke-dasharray:none;stroke-opacity:1;filter:url(#filter219519)"
       transform="translate(5.4,7.2)">
      <path
         d="m 143.23948,70.352844 -2.86759,-0.361557 -5.01829,4.338691 3.82346,-0.241038 2.74811,-1.687269 H 143.12 l -0.23897,2.530903 -2.03121,0.602597 1.67276,2.410384 -1.07534,3.254019 q -2.50915,0.723115 -7.88588,1.807788 -0.35845,22.175528 -5.25725,71.106338 l -0.47794,1.32571 q -24.25505,-1.08468 -43.133368,-11.69037 l 2.987076,-2.77194 0.716898,-1.80779 6.213117,1.92831 -2.150695,-2.89246 -2.987075,-1.44623 -0.597415,-0.96415 q 3.703973,-3.01298 3.703973,-3.61558 0,-0.72312 -0.597415,-2.28987 -0.477932,-1.56675 -0.477932,-2.28986 0,0 0.119483,-0.72312 10.514503,5.30285 21.865393,8.19531 0,-24.58592 -1.91173,-44.592107 -10.03657,4.820769 -21.626425,10.967247 0.238966,-2.048825 0.836381,-6.266997 1.075347,-1.084673 2.509144,-2.892461 -0.358449,-0.241039 -3.106559,-1.687269 l 0.238966,-0.723116 1.672762,0.361558 5.018287,-4.097653 -3.823456,0.120519 -2.74811,1.44623 q 0,-3.736095 0.477932,-5.182326 -0.597415,-1.084673 -1.433796,-3.1335 8.005362,-3.495057 24.135574,-10.485171 13.38209,-6.14648 26.0473,-10.003095 -0.35845,1.325711 -0.95587,3.977134 1.91173,-0.241039 4.18191,-0.723115 -0.11949,0.843634 -0.11949,1.687269 0,1.205192 0.11949,3.374538 0.23896,2.169346 0.23896,3.133499 z m -9.55864,5.182327 -1.79224,-0.241039 -2.1507,1.928308 1.67276,-0.12052 1.31432,-0.723115 h 0.47793 z m -2.38966,-3.495058 -2.86759,-0.241038 -3.58449,2.771942 2.62862,-0.120519 1.91173,-0.964154 h 0.95587 z m -30.34869,67.731797 -1.553276,-2.41038 -2.031212,-1.08468 -0.358449,-0.72311 -1.792245,-0.12052 1.314313,2.77194 z m 2.1507,4.82077 -1.4338,-1.44623 -1.672761,-0.6026 -0.597415,-0.48208 -1.194831,0.12052 1.314314,1.92831 z"
         id="path9421"
         style="font-weight:bold;font-size:120px;line-height:1.25;font-family:'Feast of Flesh BB';-inkscape-font-specification:'Feast of Flesh BB Bold';fill:url(#linearGradient9442)" />
      <path
         d="m 202.3772,66.590774 q -3.34553,29.768246 -3.34553,58.331296 0,2.16935 -0.59741,5.42337 -0.47794,3.25402 -0.47794,4.82077 0,0.48207 0.7169,10.12361 -2.03121,1.08467 -3.22604,1.44623 -2.15069,-2.65142 -3.58449,-4.09765 -2.27018,3.61558 -3.82346,6.14648 l -1.55328,-1.32571 -2.38966,1.80779 q -0.11948,-0.72312 -1.07534,-8.67739 -9.91709,5.66441 -19.7147,13.73919 v 0.48208 q -2.62863,1.32571 -4.42087,2.28986 l -0.35845,-3.25401 0.35845,-0.96416 -1.31432,-1.92831 -1.91173,3.61558 1.55328,4.45921 q -1.91172,1.20519 -2.86759,2.28987 -0.11948,-1.20519 -0.11948,-3.7361 -0.95587,0.48208 -2.74811,1.92831 0,-0.36156 -0.95587,-10.0031 -0.95586,3.61558 -3.10655,10.48518 l -0.7169,-0.12052 q -1.91173,-41.94069 -1.91173,-56.04144 0,-12.654516 0.7169,-23.742284 0.7169,-0.241039 1.31431,-0.241039 0.59742,0 1.67276,0.361558 1.07535,0.241039 1.79225,0.241039 1.79224,0 4.1819,-2.048827 l 1.79225,6.025961 1.19483,-3.495058 -0.47793,-3.133499 0.47793,-0.964154 -0.47793,-0.843634 q 0.95586,-0.241039 1.79224,-0.241039 0.83638,0 1.79225,0.602596 1.07535,0.602596 1.67276,0.602596 1.79225,0 3.94294,-2.169346 2.62863,-2.892461 3.82346,-3.374538 -1.91173,14.823864 -3.70398,29.888768 -2.03121,17.23425 -2.38966,29.76824 5.73519,-3.73609 17.08608,-11.44932 -2.27018,-24.465402 -2.50915,-50.85911 4.30139,-1.687269 10.63399,-4.338692 0.7169,2.048826 1.55328,3.856615 1.19483,-1.446231 3.22604,-3.977134 l 1.31431,-0.482077 -1.31431,2.169346 2.03121,6.02596 1.19483,-3.374538 -0.47793,-3.254018 0.47793,-0.964154 -0.71689,-1.084673 q 0.95586,-0.241039 2.86759,-0.964154 -0.11949,1.928308 -0.11949,4.941288 1.91173,-0.241038 3.22605,-0.723115 z m -14.099,8.677383 -0.35845,-1.807788 0.35845,-0.602596 -0.7169,-1.205192 -0.95586,2.048826 0.95586,3.615577 z m 3.58449,6.025961 -0.11948,-1.807788 0.11948,-0.482077 -0.59741,-1.205192 -1.19483,2.048826 1.19483,3.615577 z m -36.80077,67.852322 q -0.11948,-1.56675 0,-2.53091 l -0.47793,-1.20519 -1.19483,2.16935 1.19483,3.49505 z"
         id="path9418"
         style="font-weight:bold;font-size:120px;line-height:1.25;font-family:'Feast of Flesh BB';-inkscape-font-specification:'Feast of Flesh BB Bold';fill:url(#linearGradient9460)" />
      <path
         d="m 333.9208,134.20518 -1.43379,0.48207 q -1.31431,2.89247 -1.67276,3.61558 -1.07535,1.44623 -2.74811,2.5309 -2.50915,-1.20519 -3.94294,-0.60259 -1.4338,0.60259 -6.09364,2.65142 -2.74811,-10.00309 -5.49622,-21.3319 -6.3326,2.28986 -17.08607,7.47219 -1.31431,8.55687 -2.27018,16.87269 -0.23896,0.12052 -0.47793,0.12052 -0.35845,0 -1.07535,-0.72311 -0.71689,-0.84364 -0.95586,-0.84364 -0.7169,0 -1.31431,2.04883 -0.59742,1.9283 -1.07535,2.41038 -3.70397,2.53091 -3.34552,1.80779 0.47793,-0.6026 0.47793,-3.85662 l 0.59741,-1.08467 -0.83638,-1.92831 -2.62862,3.61558 0.59741,4.70025 q -1.19483,0.6026 -2.03121,0.6026 -1.07535,0 -1.31431,-1.32571 -0.23897,-1.2052 -0.35845,-1.2052 -0.47794,0 -1.55328,2.77194 h -0.23897 q 0.59742,-9.27997 0.59742,-20.97034 0,-26.15267 6.09363,-62.428956 2.62863,-0.843635 8.00536,-2.771942 0.95587,-0.482077 4.06243,-2.771942 2.03121,-1.446231 4.8988,-1.446231 2.03121,0 8.24433,-2.651423 -0.7169,3.1335 -1.31432,6.025961 1.31432,-0.361558 3.70398,-1.084673 0.59741,-0.964154 2.27018,-2.169346 0.35845,-0.120519 1.07534,-0.361557 l -1.19483,3.01298 3.22604,5.664403 0.7169,-4.218172 -1.07534,-3.254019 0.35844,-1.084673 -0.59741,-0.723116 q 2.38966,-1.205192 7.64691,-3.133499 0.23897,19.283074 3.70398,42.784325 2.15069,-0.72311 5.49622,-1.807792 -0.11949,1.205192 -0.35845,3.856622 -0.11949,0.84363 -1.31432,1.9283 -1.07534,0.96416 -1.07534,2.28987 0,0.48208 0.71689,1.56675 0.83639,1.08467 0.83639,1.92831 0,0.60259 -0.23897,1.9283 -0.23897,1.32572 -0.23897,1.92831 l -1.55328,0.48208 q 1.55328,9.76206 3.58449,18.68048 z m -17.564,-57.608192 -0.59741,-1.928307 0.11948,-0.723116 -1.07535,-1.084673 -0.95586,2.892462 2.03121,3.495057 z m -7.16898,29.888772 q -2.62863,-12.172447 -4.42087,-24.344888 -4.54036,19.644638 -6.3326,29.888768 5.97415,-3.49506 10.75347,-5.54388 z m -23.89661,25.06799 -0.35844,-0.96415 -1.19483,1.68727 0.23896,2.89246 0.83638,-1.56675 0.11949,-1.56675 z m 3.82346,4.82077 -0.47793,-1.56675 -1.91173,2.65143 0.59742,4.33869 q 1.55328,-2.41039 1.43379,-4.82077 z"
         id="path9415"
         style="font-weight:bold;font-size:120px;line-height:1.25;font-family:'Feast of Flesh BB';-inkscape-font-specification:'Feast of Flesh BB Bold';fill:url(#linearGradient9454)" />
      <path
         d="m 274.92286,97.397981 -0.7169,5.784919 -7.28847,2.89246 q 0,15.90854 0.7169,23.74229 0,0.96415 0.7169,5.0618 0.47793,3.1335 0.47793,5.18233 0,0.72311 -0.35845,2.16934 0.47794,2.77195 1.79225,8.07479 -1.19483,0.6026 -3.22604,1.44623 -1.07535,-0.84363 -3.70398,-2.28986 -2.15069,2.77194 -3.34552,4.57973 l -1.91173,-0.72312 -2.15069,1.44623 q -1.19483,-3.37454 -2.62863,-8.67738 -16.01073,6.02596 -25.68885,6.02596 -11.2314,0 -18.51987,-10.12361 -6.45208,-9.15946 -6.45208,-20.84983 0,-13.01607 6.3326,-25.550067 5.73518,-11.690364 16.01072,-20.970344 11.70934,-10.485172 28.91489,-14.221267 l -0.11948,4.700249 -2.50914,4.941288 0.95586,2.530904 -0.7169,0.361557 -1.67276,1.56675 -0.83638,0.120519 -0.59741,1.687269 2.86759,-0.361557 1.55328,-1.928308 0.7169,2.169346 -2.38966,3.615576 2.15069,5.182327 q -17.20556,7.59271 -24.97195,21.934488 -4.77932,8.79791 -4.77932,15.06491 0,5.18232 3.58449,8.31582 3.58449,3.1335 8.84174,3.1335 5.01829,0 12.90417,-3.49506 -1.07535,-2.41038 -2.74811,-12.65451 -6.3326,3.97713 -14.45745,9.64153 0.47793,-2.04882 1.79225,-6.38751 l 1.19483,-0.36156 1.55328,-0.96416 0.59741,-0.12052 0.83638,-1.32571 h -2.50914 l -1.31431,1.56675 -1.91173,-2.28986 q 0.59741,-1.20519 2.27018,-3.37454 l -1.79225,-1.44623 q 0.59742,-2.04883 1.19483,-3.01298 3.22604,-2.28987 10.15606,-6.267 l -0.23897,-1.68727 q 2.38966,-1.20519 7.7664,-3.254013 v -0.964154 q 10.27554,-4.459211 23.53815,-8.436345 -0.35845,2.048827 -0.59741,6.025961 l -1.4338,1.084673 h -2.62862 l -4.06243,4.700248 3.34553,-0.723114 2.50914,-1.807788 0.83638,-0.120519 0.23897,-0.241039 z m -25.56937,-26.514227 -3.46501,1.084672 -2.27018,2.048827 -0.95586,0.120519 -0.83638,2.169346 3.82346,-0.482077 z m 12.18727,27.357862 h -2.50915 l -2.62862,3.133494 2.15069,-0.6026 1.55328,-1.205183 h 0.7169 z m -18.63935,-17.836844 -1.91173,0.602596 -1.07535,1.205192 -0.59741,0.120519 -0.47794,0.964154 1.91173,-0.241039 z m -32.02145,53.751568 -1.67277,-4.94129 -0.83638,2.77194 0.35845,2.65142 -0.35845,0.96416 0.83638,1.32571 z"
         id="path9412"
         style="font-weight:bold;font-size:120px;line-height:1.25;font-family:'Feast of Flesh BB';-inkscape-font-specification:'Feast of Flesh BB Bold';fill:url(#linearGradient9463)" />
      <path
         d="m 401.83829,87.08216 q 0,10.967248 -6.09363,23.26021 -8.12485,16.14958 -23.17971,27.47838 -14.93538,11.20829 -32.49938,13.61868 l 0.59741,-4.45922 0.11949,-0.12052 3.82345,0.12052 5.01829,-5.30284 -4.18191,0.84363 -0.83638,0.6026 q -0.59741,-1.92831 -2.15069,-8.55687 l 4.1819,-0.72311 q -2.50914,-20.84982 -3.34552,-42.422768 -4.30139,2.289865 -8.60278,5.543884 0.23897,-7.954269 2.38966,-13.739191 l -2.74811,-3.01298 h 1.55328 l 4.30139,-4.459211 -3.34552,0.482076 -2.8676,1.928308 0.7169,-5.423365 -2.62862,-2.048827 q 18.75883,-11.087767 38.11508,-11.087767 14.099,0 22.58229,6.387518 9.08071,7.351672 9.08071,21.090863 z m -54.36478,-10.967249 -2.62862,0.482077 -2.03121,1.446231 -0.7169,0.120519 -0.83638,1.44623 2.98707,0.12052 z m 32.73835,21.211382 q 0,-12.895556 -15.17434,-12.654517 -2.1507,20.849824 -2.1507,41.338094 7.16899,-5.18233 11.82882,-12.534 5.49622,-8.1953 5.49622,-16.149577 z m -19.59521,40.253427 -1.67276,0.36155 q -1.19484,0.84364 -1.67277,0.84364 l -0.47793,0.72311 h 1.79225 z m -6.09364,-0.72312 -2.27017,0.36156 -1.55328,1.20519 h -0.47794 l -0.83638,1.08467 h 2.38966 z"
         id="path9409"
         style="font-weight:bold;font-size:120px;line-height:1.25;font-family:'Feast of Flesh BB';-inkscape-font-specification:'Feast of Flesh BB Bold';fill:url(#linearGradient9445)" />
      <path
         d="m 479.50596,94.264481 q 0,20.729299 -15.41331,39.289259 -16.13021,19.28308 -36.20336,19.28308 -13.3821,0 -20.90953,-9.52102 l 1.07535,0.24104 -1.07535,-3.7361 -3.58449,-1.92831 q -4.06242,-7.95427 -4.06242,-17.71632 0,-20.608783 15.41331,-39.048223 16.13021,-19.403594 36.20336,-19.403594 8.84174,0 15.65227,4.820769 l 2.62863,5.423364 -3.70398,-0.241038 -0.59741,-2.048827 -5.85467,-2.771942 1.67276,3.254019 2.62863,1.928308 0.35845,0.964153 0.11948,3.615577 -4.65984,2.289865 -4.42087,-2.169346 1.67276,3.374538 0.83639,0.602596 -2.1507,3.374538 3.46501,-2.289865 0.35845,0.241039 0.47793,0.843634 2.15069,0.602596 -0.71689,-2.530903 5.73518,-0.482077 -0.47793,-2.289865 3.10656,-0.602596 -1.31431,-2.410385 6.09363,2.410385 1.19483,-1.446231 q 4.30139,8.195307 4.30139,18.077882 z m -13.74055,-5.061807 -0.83638,-2.530903 -3.82346,-1.928308 1.07535,2.289865 1.67276,1.325712 0.35845,0.482077 z m -5.37674,14.582816 q 0,-7.351663 -4.1819,-12.292951 -4.06242,-5.061807 -11.23141,-5.061807 -10.87295,0 -19.59521,10.726211 -8.00536,10.003087 -8.00536,21.452417 0,7.11063 3.94294,12.05192 4.1819,5.30285 11.47037,5.30285 10.99243,0 19.47573,-10.72622 8.12484,-10.24413 8.12484,-21.45242 z m -45.28406,35.31213 -0.7169,-2.28986 -3.22604,-1.56675 0.95586,1.80779 1.4338,1.20519 0.23897,0.6026 z m 3.46501,9.52102 -1.19483,-3.97713 -5.73519,-3.01298 1.67276,3.49506 2.62863,1.80778 0.47793,0.96416 z"
         id="path9406"
         style="font-weight:bold;font-size:120px;line-height:1.25;font-family:'Feast of Flesh BB';-inkscape-font-specification:'Feast of Flesh BB Bold';fill:url(#linearGradient9457)" />
      <path
         d="m 540.52312,54.470284 q -1.07535,3.133499 -1.4338,6.508037 h -1.07534 l -1.91173,0.964154 -0.47793,-0.120519 -1.19483,1.205192 2.27017,0.361558 2.38966,-1.687269 q -0.11948,0.964153 -0.35845,2.651422 l -4.8988,3.012981 5.37674,0.361557 q -0.59742,2.048827 -1.79225,6.508038 -15.77176,3.856615 -27.00316,8.195307 -0.47793,3.615576 -0.83638,7.231153 8.36381,-2.892461 18.87831,-5.905442 -0.11948,0.964154 -0.35844,2.892461 2.27017,-0.723115 6.81053,-1.687269 -0.7169,2.410385 -1.79225,7.110634 -1.43379,0.602596 -2.86759,0.843635 0.35845,0.602596 1.31431,1.928307 -0.35845,0.843635 -0.7169,2.410384 -9.55864,2.892465 -11.2314,3.254025 -6.3326,2.04882 -10.87295,4.45921 -0.35845,5.54388 -0.35845,12.17244 0,3.97713 0.11948,9.15946 3.94294,-2.28987 8.96123,-4.94129 l 1.55328,0.96416 q 4.8988,-2.53091 13.97951,-6.267 -0.11948,0.48207 -2.1507,8.31582 1.79225,-0.72311 2.74811,-1.08467 -0.71689,3.49506 -0.71689,5.18233 -20.07315,9.03894 -39.07095,23.74228 -0.47793,-2.65142 -0.47793,-3.01298 0,-0.84363 0.47793,-2.28986 0.47793,-1.32572 0.47793,-2.04883 -1.31431,-1.92831 -2.38966,-3.01298 0.35845,-0.6026 0.95586,-2.41039 l -1.55328,0.12052 -0.11948,-0.48207 q 0.59742,-0.6026 2.38966,-1.92831 -1.31431,-10.12362 -2.15069,-23.62177 -1.4338,0.96416 -4.30139,2.41039 -0.7169,-3.01298 -1.31431,-4.57973 0.71689,-1.92831 1.31431,-3.25402 l -1.91173,-1.20519 q 0.35845,-2.53091 1.31431,-6.38752 2.8676,-1.325717 4.30139,-2.289871 v -7.231153 q -2.98707,1.325711 -9.08071,4.338692 0.47793,-1.205192 3.58449,-8.436345 -0.59741,-1.084673 -1.91172,-3.012981 2.03121,-1.928307 3.22604,-3.495057 -0.59742,-0.482077 -1.07535,-2.410384 -0.35845,-2.048827 -0.7169,-2.771942 1.19483,-1.928308 1.91173,-3.1335 12.54572,-5.543884 23.06022,-9.400499 l 0.47794,-2.169346 q 15.17434,-3.977134 30.2292,-6.02596 z m -9.91709,11.810883 h -1.55328 l -1.4338,0.843634 -0.47793,-0.120519 -0.83638,0.843635 1.79225,0.361557 z m -4.65984,21.090863 -2.15069,0.120519 -1.79225,0.964154 h -0.7169 l -1.07534,1.084673 2.50914,0.361557 z m -22.58229,46.3999 h -1.4338 l -1.31431,0.6026 h -0.35845 l -0.59741,0.72311 1.55328,0.24104 z m -5.01829,4.70025 -2.27017,0.12052 -1.79225,0.84363 0.59742,1.68727 z"
         id="path9403"
         style="font-weight:bold;font-size:120px;line-height:1.25;font-family:'Feast of Flesh BB';-inkscape-font-specification:'Feast of Flesh BB Bold';fill:url(#linearGradient9451)" />
      <path
         d="m 590.0142,74.066085 q -24.6135,14.823863 -24.6135,24.58592 0,3.495065 5.97415,6.267005 9.08071,4.33869 11.11192,5.90544 5.97415,4.70025 5.97415,12.77504 0,8.07478 -7.76639,17.71632 -5.61571,7.47219 -14.099,14.10075 -0.47793,-0.24104 -0.47793,-1.08467 0,-0.48208 0.35845,-1.68727 0.47793,-1.20519 0.47793,-1.68727 0,-0.84364 -4.06242,-0.84364 -1.55328,0 -2.27018,0.24104 l 5.01829,-5.30284 q -4.30139,0.60259 -7.0495,3.73609 l -0.95587,0.24104 -0.83638,0.96415 -2.86759,-1.20519 q 15.29383,-10.84673 15.29383,-16.87269 0,-3.85661 -8.60278,-7.95427 -13.62107,-6.38751 -15.89124,-7.95426 -8.4833,-5.66441 -8.4833,-13.73919 0,-13.859719 16.01073,-29.406698 12.78468,-12.413479 28.31747,-19.765151 0.47794,1.325711 1.91173,3.01298 1.79225,2.289865 2.1507,2.892462 l -1.79225,0.361557 -2.86759,2.289865 -0.83638,0.120519 -1.67277,2.892462 3.46501,0.361557 3.94294,-5.061807 q 0,0.843635 -1.07534,5.061807 l 3.94293,3.012981 h -0.11948 l -2.15069,1.807788 -0.7169,0.120519 -1.19483,1.807788 2.50914,0.241039 2.50915,-2.651423 0.59741,0.723115 z m -10.03657,-6.146481 -2.1507,0.361558 -1.79224,1.687269 h -0.59742 l -0.95586,1.807788 2.27018,0.12052 z m -6.09364,73.516726 -2.74811,0.96415 -2.03121,1.56675 -0.59741,0.36156 -1.19483,1.44623 2.62862,-0.24104 z"
         id="path9400"
         style="font-weight:bold;font-size:120px;line-height:1.25;font-family:'Feast of Flesh BB';-inkscape-font-specification:'Feast of Flesh BB Bold';fill:url(#linearGradient9448)" />
    </g>
    <path
       d="m 83.382349,106.23374 q -0.746668,6.72001 -0.746668,9.89335 -1.86667,0.56 -2.986672,0.56 0.746668,1.12 2.613338,3.17334 -0.560001,1.30667 -1.680003,4.10667 -3.73334,0.37334 -10.826687,1.30667 v 5.78668 q 0,2.24 -0.560001,6.34668 -0.373334,4.10667 -0.373334,6.16001 0,5.04001 0.933335,17.36003 -2.800005,1.30667 -5.040009,2.24 l -1.86667,-2.42667 1.306669,-3.17334 -0.373334,-5.04 0.746668,-1.49334 -1.493336,-3.36001 -3.360006,5.22668 1.120002,5.60001 -1.493336,-2.05334 q -1.86667,3.36001 -6.160011,9.89335 l -2.800005,-2.24 q -2.240004,2.05334 -3.546673,2.8 -1.866671,-13.81335 -3.733341,-36.40006 -4.293341,0.37333 -38.8267371,13.25336 l 1.493336,-7.84002 q 0.746668,-0.74667 2.4266711,-2.05334 -0.933335,-1.30666 -1.306669,-2.61333 l -2.2400041,-1.12001 q 0.933335,-1.49333 2.0533371,-3.92 L 5.7288739,124.5271 q -2.9866721,0.37334 -4.6666752,0.74667 -0.18666698,-0.93333 -1.49333603,-2.8 l 2.42667113,-4.66668 1.306669,-0.93333 0.186667,-3.73334 -5.4133432,3.17334 -0.746668,2.8 q -1.6800031,-2.42667 -2.9866721,-4.48001 -0.9333351,-0.56 -4.4800085,-2.61334 4.1066744,-9.33335 19.9733701,-36.960063 7.0933459,-12.320022 22.2133739,-36.026732 0.933335,1.86667 2.240004,5.60001 1.493336,-1.120002 3.920007,-4.106674 v -2.800005 q 3.920007,-1.306669 7.280014,-1.680003 l 2.053337,9.893351 2.240004,-5.413343 -0.186667,-4.853342 0.746668,-1.493337 -0.560001,-1.120002 4.853342,-2.240004 q 0,0.186667 2.426671,6.160012 2.240004,-2.986673 5.413343,-6.533346 0.933335,-0.186667 8.026682,-2.800005 0,1.306669 -0.186668,3.920007 0,2.800005 0,4.293342 1.30667,-0.186667 5.226677,-1.493337 -5.413344,52.45343 -5.413344,68.880131 2.986673,-0.37334 8.77335,-1.49334 -0.746668,1.68 -1.680003,5.04001 1.120002,0 6.160011,-0.56 z M 55.755632,46.126961 54.448963,43.70029 l -2.240004,3.73334 1.680003,7.093346 q 0.746668,-1.306669 1.120002,-4.480008 0.373334,-3.173339 0.746668,-3.920007 z M 41.195605,110.15374 q -0.746668,-8.58668 -1.680003,-25.386709 -9.146683,13.066691 -17.920032,31.546729 10.453352,-3.73334 19.600035,-6.16002 z m 19.600036,25.76005 -0.933335,-1.86667 -1.680003,2.80001 1.120002,5.78667 1.120002,-2.98667 -0.186667,-2.98667 z m -3.920007,8.58668 -1.120002,-2.42667 -2.426671,3.92001 1.493336,7.09335 1.680003,-3.73334 -0.186667,-3.92001 z M 7.22221,101.19373 l -4.1066742,2.05334 -2.24000408,7.09334 3.36000618,-2.61334 1.680003,-3.36 1.1200021,-0.56 z"
       style="font-weight:normal;font-size:186.667px;line-height:1.25;font-family:'Feast of Flesh BB';-inkscape-font-specification:'Feast of Flesh BB';fill:url(#linearGradient9397);stroke:#010000;stroke-width:1.25;filter:url(#filter184928-1)"
       id="path9376"
       inkscape:label="4" />
  </g>
  <metadata
     id="metadata161234">
    <rdf:RDF>
      <cc:Work
         rdf:about="">
        <dc:description>Feast of Flesh font</dc:description>
      </cc:Work>
    </rdf:RDF>
  </metadata>
</svg>
