<svg enable-background="new 0 0 566.929 129.21" height="150.6516" viewBox="0 0 467.13286 120.52128" width="583.91608" xmlns="http://www.w3.org/2000/svg"><g transform="matrix(.10252157 0 0 .10252157 149.66656 -3.581866)"><path d="m-1156.4036 289.56797h4063.9306c120.4937 0 209.376 89.0658 185.0151 179.98179l-87.6189 319.44057c-21.9526 80.0343-110.3027 149.80211-193.2931 149.80211h-4118.2943c-82.9904 0-171.7547-69.76781-149.8022-149.80211l95.897-349.62025c18.7065-68.20003 90.9733-149.80211 204.1658-149.80211z" fill="#2285c8"/><path d="m-609.38278 34.937686h1493.88306c152.46092 0 301.30582 161.678464 251.82042 342.091594l-114.9204 418.97603c-78.54241 293.12439-276.22837 409.51379-433.47633 414.50229h-1483.77896c-150.27311 0-311.00111-126.3307-271.25111-271.25118l169.81586-619.11333c41.77631-155.91104 253.84899-280.673069 387.90746-285.205404z" fill="#050608"/><g font-family="Dynamo D" font-weight="bold" letter-spacing="0" stroke="#0105ff" stroke-width="24.3851"><text fill="#ed1e24" font-size="1252.04" transform="matrix(1.0012556 0 -.2682856 .99874601 0 0)" x="-762.09088" y="1076.7885"><tspan fill="#ed1e24" font-family="Dynamo" font-weight="100" stroke="none" stroke-width="24.3851" x="-762.09088" y="1076.7885">ALL</tspan></text><text fill="#fff" font-size="489.54" transform="matrix(1.0030514 0 -.25222563 .99695792 0 0)" x="1364.3711" y="789.38458"><tspan style="font-weight:100;font-size:489.54;font-family:Dynamo;fill:#fff;stroke:none;stroke-width:24.3851" x="1364.3711" y="789.38458">GAMES</tspan></text></g></g></svg>