<?xml version="1.0" encoding="UTF-8" standalone="no"?>
<svg
   width="647.90466pt"
   height="150.36137pt"
   viewBox="0 0 712.69516 165.39751"
   version="1.1"
   id="svg25"
   sodipodi:docname="auto-neverplayed-ptbr.svg"
   inkscape:version="1.1.2 (0a00cf5339, 2022-02-04, custom)"
   xmlns:inkscape="http://www.inkscape.org/namespaces/inkscape"
   xmlns:sodipodi="http://sodipodi.sourceforge.net/DTD/sodipodi-0.dtd"
   xmlns:xlink="http://www.w3.org/1999/xlink"
   xmlns="http://www.w3.org/2000/svg"
   xmlns:svg="http://www.w3.org/2000/svg">
  <defs
     id="defs29">
    <linearGradient
       inkscape:collect="always"
       id="linearGradient853">
      <stop
         style="stop-color:#000000;stop-opacity:1;"
         offset="0"
         id="stop849" />
      <stop
         style="stop-color:#000000;stop-opacity:0;"
         offset="1"
         id="stop851" />
    </linearGradient>
    <radialGradient
       inkscape:collect="always"
       xlink:href="#linearGradient853"
       id="radialGradient857"
       cx="60.35236"
       cy="253.12825"
       fx="60.35236"
       fy="253.12825"
       r="52.697178"
       gradientTransform="matrix(1,0,0,0.19039974,0,204.9327)"
       gradientUnits="userSpaceOnUse" />
  </defs>
  <sodipodi:namedview
     id="namedview27"
     pagecolor="#ffffff"
     bordercolor="#111111"
     borderopacity="1"
     inkscape:pageshadow="0"
     inkscape:pageopacity="0"
     inkscape:pagecheckerboard="1"
     inkscape:document-units="pt"
     showgrid="false"
     scale-x="1.1"
     fit-margin-top="0"
     fit-margin-left="0"
     fit-margin-right="0"
     fit-margin-bottom="0"
     inkscape:zoom="1.0355012"
     inkscape:cx="219.21752"
     inkscape:cy="69.048689"
     inkscape:window-width="1366"
     inkscape:window-height="703"
     inkscape:window-x="0"
     inkscape:window-y="0"
     inkscape:window-maximized="1"
     inkscape:current-layer="layer1" />
  <g
     id="layer1"
     inkscape:label="NeverPlayedPTBR"
     transform="translate(-127.28169,-57.236488)">
    <text
       xml:space="preserve"
       style="font-size:1.5px;line-height:1.25;font-family:TrasksHand;-inkscape-font-specification:TrasksHand;text-decoration-color:#000000;fill:#ef00eb;stroke:#0105ff;stroke-width:1.875;-inkscape-stroke:none;stop-color:#000000"
       x="605.94183"
       y="107.31261"
       id="text4082"
       inkscape:label="Signature"><tspan
         sodipodi:role="line"
         id="tspan4080"
         style="font-size:1.5px;fill:#fafafa;fill-opacity:0.4;stroke:none;stroke-width:1.875"
         x="605.94183"
         y="107.31261">John Loreth 2022</tspan></text>
    <path
       id="path31110"
       style="font-size:164.06px;line-height:1.25;font-family:'Caflisch Script';-inkscape-font-specification:'Caflisch Script';letter-spacing:-3.4611px;display:inline;fill:#333333;fill-opacity:1;stroke-width:1.875"
       d="m 731.25391,57.242188 c -3.92334,0.06643 -7.25048,2.985577 -8.8418,6.416015 -4.09286,8.784473 -7.6877,17.788599 -11.42007,26.728388 -1.22178,2.952815 -2.42434,5.912529 -3.63266,8.871221 -7.9483,-0.312911 -15.86547,2.287088 -22.38514,6.776048 -6.79105,4.62915 -12.29888,10.89958 -16.98676,17.59501 -1.32386,1.84917 -2.46478,3.82676 -3.72692,5.71085 -3.55242,4.1882 -7.21049,8.33868 -11.50665,11.78723 0.24153,-9.13862 3.16797,-17.95811 6.78984,-26.26774 1.41402,-3.61585 0.62299,-8.06635 -2.24883,-10.75569 -2.09252,-2.10678 -4.7201,-3.8299 -7.66406,-4.410161 -1.06782,-0.142682 -2.15677,-0.06811 -3.20703,0.160157 -2.60156,-2.231202 -6.17759,-3.391329 -9.58088,-2.734745 -7.18953,0.901671 -13.67284,4.695149 -19.13133,9.298719 -4.84993,4.15111 -9.14504,8.92232 -13.05121,13.96161 -1.79789,2.37565 -3.4361,4.86963 -4.94557,7.43731 0.10887,-0.72039 0.21684,-1.4449 0.17969,-2.17579 4.05058,-3.8183 6.37728,-9.68949 5.19555,-15.2317 -1.19634,-6.55178 -6.63565,-12.133181 -13.21424,-13.330896 -5.35398,-1.144702 -10.86808,0.166637 -15.91378,1.993031 -5.96165,2.137285 -11.26519,5.711355 -16.29178,9.497085 -5.92472,4.52781 -11.21413,9.89831 -15.55895,15.96311 -0.16258,-5.8274 -1.82814,-11.79828 -5.55265,-16.37394 -1.15505,-1.41148 -2.49569,-2.67634 -4.00009,-3.71004 -0.5573,-3.90051 -3.06027,-7.606759 -6.7935,-9.078081 -3.68155,-1.546003 -7.95186,-1.535117 -11.70064,-0.226611 -2.71893,0.982779 -5.1373,2.705687 -7.13672,4.763672 -3.24864,0.0097 -6.35479,1.64231 -8.57838,3.9501 -2.17161,2.25496 -3.70065,5.22075 -3.90951,8.37419 -0.0663,1.28015 -1.15434,2.11268 -1.77175,3.14362 -2.13128,2.86717 -4.09615,5.85523 -5.87512,8.95396 1.60701,-5.75023 3.12864,-11.52503 4.87109,-17.23632 1.03272,-2.95164 1.8563,-6.11046 3.96093,-8.519673 3.40499,-3.721677 3.93456,-9.783439 1.04799,-13.959786 -2.69976,-4.101883 -7.4989,-6.436339 -12.2787,-7.01197 -2.89245,-0.394231 -5.88816,0.23188 -8.36974,1.772517 -1.4426,0.836249 -2.67801,1.983244 -3.8761,3.115393 -3.34176,0.559552 -6.79922,1.065768 -9.81223,2.729508 -2.67919,1.404239 -4.90434,3.860259 -5.52852,6.8764 -0.79351,3.197505 0.0645,6.72454 2.23558,9.203811 1.24488,1.5594 2.83756,2.82701 4.59345,3.76645 -5.12327,18.28869 -10.08188,36.60784 -16.7548,54.41138 -1.54585,4.07456 -3.18668,8.25065 -6.0691,11.58657 -0.62136,0.58796 -1.2946,1.14795 -2.09016,1.48252 -1.34282,-0.55094 -2.58258,-1.33642 -3.98452,-1.75233 -3.92626,-1.51405 -8.35757,-2.55484 -12.48309,-1.19552 -3.95865,1.23028 -7.55646,4.27365 -8.70622,8.34824 -1.03169,4.12118 0.66404,8.41513 3.1914,11.65039 1.90908,2.41535 4.60693,4.07974 7.47821,5.11306 4.47928,1.90851 9.52049,3.19294 14.36098,1.9814 4.40987,-1.00787 8.69973,-2.54485 12.78654,-4.47771 5.07062,-2.55634 9.64435,-6.10847 13.40099,-10.36424 4.26766,-4.86276 7.02392,-10.80147 9.48971,-16.72217 1.87049,-4.62781 3.47939,-9.35773 4.99529,-14.11237 0.36974,5.74029 2.96316,11.44935 7.54589,15.03126 2.77684,2.22876 6.30819,3.46803 9.87195,3.42748 4.05522,-0.0107 8.10492,-0.72838 11.96135,-1.9673 8.60102,-2.79687 16.07948,-8.37687 22.02459,-15.10954 0.23041,-0.12206 0.83379,-1.22378 0.72708,-0.51862 -0.10747,5.55692 2.35553,11.25312 6.85329,14.61026 2.31954,1.78184 5.30531,2.57108 8.20621,2.28508 4.00263,-0.39243 7.81505,-1.86887 11.43296,-3.55972 2.19381,-1.05395 4.31914,-2.24937 6.37082,-3.55827 -0.76019,3.02899 -1.57907,6.0332 -2.46651,8.96787 -2.4534,8.03604 -5.99123,15.90778 -11.58427,22.26845 -0.62683,0.71713 -1.45159,1.62233 -2.22249,2.3494 -1.96615,1.85442 -4.27623,3.55193 -6.96677,4.11059 -1.24809,0.22437 -2.33493,-0.51002 -3.27137,-1.2307 -2.77753,-2.02763 -5.50098,-4.32335 -8.88359,-5.25834 -3.43958,-1.06774 -7.27927,-0.59561 -10.39354,1.19885 -4.26012,2.17189 -8.02908,5.80057 -9.43607,10.46692 -1.0009,3.76787 0.21889,7.98484 3.02658,10.67887 3.20036,3.31911 7.68456,5.15748 12.18567,5.83381 1.93651,0.2063 3.93785,0.0705 5.79534,0.75016 3.49719,0.81095 7.13979,1.02972 10.71021,0.68936 4.29397,-0.57866 8.37114,-2.18474 12.31732,-3.91174 7.1657,-3.23603 13.69137,-7.96069 18.76033,-13.9932 8.16877,-9.47701 13.38379,-21.17882 16.45219,-33.22934 0.91136,-3.50153 1.7785,-7.01489 2.62541,-10.53276 2.40399,4.00504 6.41211,7.18001 11.03125,8.13477 3.16644,0.56062 6.41979,-0.22516 9.35379,-1.41267 5.02146,-2.14154 9.27312,-5.67211 13.40626,-9.16492 0.55078,-0.47601 1.10511,-0.94888 1.65401,-1.42632 1.82168,5.18368 5.9038,9.69211 11.20619,11.39029 3.97926,1.34398 8.35007,0.90387 12.23881,-0.53281 2.93321,-1.0421 5.64855,-2.60766 8.22102,-4.34381 2.17867,3.42303 5.99884,5.80064 10.08649,5.95726 4.69247,0.31147 9.21267,-1.40343 13.44541,-3.23224 5.52456,-2.51183 10.50831,-6.06782 15.08724,-10.02189 1.28672,4.87841 4.60014,9.4541 9.41552,11.30478 4.05649,1.59103 8.60267,1.17939 12.66846,-0.15439 4.55331,-1.44404 8.7027,-3.98707 12.47266,-6.84375 2.58887,4.57945 7.16973,8.27665 12.50872,8.85871 3.82338,0.44954 7.68161,-0.19429 11.40437,-1.0431 8.08343,-2.04016 15.38997,-6.57866 21.33496,-12.36053 -0.77047,3.19378 0.0531,6.74343 2.29297,9.17413 3.1212,3.63878 7.85473,5.43955 12.48761,6.14874 4.08889,0.55093 8.25717,-0.33222 11.9716,-2.05599 4.16329,-1.78224 8.12751,-4.03428 11.83036,-6.63726 3.41437,-2.62061 5.77957,-6.46148 6.97996,-10.56322 0.77112,-2.72062 0.72551,-5.62779 -0.0337,-8.34524 -1.233,-5.15717 -4.29901,-9.60007 -7.45554,-13.76364 -1.02093,-1.46311 -2.10722,-2.92727 -2.6924,-4.63135 2.5171,-1.73648 5.56464,-2.44493 8.51492,-3.05665 2.77116,-0.52174 5.60705,-0.45378 8.39926,-0.74545 4.45811,-0.70372 8.50129,-4.3242 9.08256,-8.89892 0.85509,-4.86388 -1.59139,-10.0598 -5.82487,-12.57828 -4.87268,-3.198195 -11.03452,-3.717696 -16.66212,-2.730222 -7.92428,1.325505 -15.45299,5.064442 -21.1702,10.729712 -1.86965,1.8282 -3.57137,3.83417 -5.01533,6.01614 -1.53977,-3.77989 -4.05159,-7.2296 -7.44336,-9.54688 -0.50647,-3.90622 -3.06304,-7.579287 -6.77344,-9.056641 -4.29872,-1.824287 -9.38199,-1.503901 -13.54492,0.539063 -1.97063,1.01232 -3.70094,2.429264 -5.29102,3.958984 -1.61877,0.05366 -3.20976,0.420114 -4.66296,1.142044 -4.37825,2.07674 -7.51374,6.57964 -7.87011,11.42156 -0.10484,1.15249 -1.10976,1.88371 -1.66269,2.82689 -2.32936,3.1304 -4.46236,6.40306 -6.35595,9.81484 -1.13385,2.03352 -2.84524,3.65043 -4.31567,5.43376 -2.75746,3.14318 -5.59891,6.14431 -8.72832,8.92145 1.62274,-11.37399 4.52341,-22.55192 8.35582,-33.37623 2.89237,-8.066006 6.35742,-15.909217 9.92166,-23.695823 1.44212,-3.355126 3.18911,-6.770273 3.16362,-10.511872 0.0472,-2.838426 -0.92156,-5.655764 -2.69813,-7.869293 -2.45609,-3.409209 -6.09053,-6.331141 -10.41094,-6.695216 -0.52073,-0.04592 -1.04199,-0.06507 -1.56445,-0.04883 z M 217.19727,77.445312 c -5.10463,0.182529 -9.66469,3.353181 -12.62432,7.362782 -4.63786,6.317913 -7.30763,13.785022 -10.42532,20.866636 -1.84574,4.40064 -3.59196,8.84298 -5.24529,13.31941 -4.03958,-6.79863 -8.14012,-13.53293 -12.00195,-20.363281 1.48939,-2.597194 2.11115,-5.798224 1.12222,-8.684245 -1.16242,-3.809011 -3.91111,-7.218251 -7.56753,-8.874348 -5.65723,-2.547129 -13.01523,-0.938349 -16.78711,4.080078 -0.92739,1.17409 -1.71962,2.47909 -2.17188,3.912109 -2.88251,2.125145 -5.27931,5.060903 -6.37684,8.501714 -1.02221,3.048673 -0.46175,6.523593 1.41786,9.125243 0.16998,0.44258 0.92772,0.78764 0.53164,1.28552 -5.76472,13.49314 -11.8115,26.86448 -17.64423,40.32707 -1.48768,3.73 -2.74727,7.8241 -1.83339,11.85797 0.92203,4.68342 4.37906,8.86193 8.98144,10.30105 5.09269,1.71191 10.89648,0.21574 14.94129,-3.20068 3.51236,-2.87984 6.25315,-6.8259 7.37103,-11.25408 0.92459,-3.68393 0.59306,-7.51417 0.91665,-11.261 0.7202,-4.71585 2.90937,-9.01647 4.71161,-13.38228 0.27586,-0.1918 0.62298,0.95774 0.92737,1.30301 3.95679,6.85149 7.97008,13.67129 12.19411,20.36248 1.602,2.68889 3.12778,5.67058 4.79359,8.42836 2.36816,3.70384 6.26467,6.34782 10.49756,7.45719 3.40736,0.96661 7.19924,0.50022 10.21027,-1.38765 1.46534,-0.87079 2.64225,-2.11717 3.71551,-3.41118 2.39121,2.94578 6.07369,4.99968 9.9375,4.79297 5.38543,-0.12608 10.31465,-2.76058 14.59604,-5.8315 3.40406,-2.38036 6.7041,-4.90933 9.88834,-7.57671 0.34285,4.38911 2.17858,8.88865 5.83339,11.53074 2.65909,1.97922 6.09905,2.67687 9.35574,2.25582 3.82804,-0.42277 7.50714,-1.71432 11.03701,-3.20575 2.8762,-1.25779 5.62583,-2.79246 8.26019,-4.49682 3.38235,4.311 8.5968,7.0112 14.02012,7.58338 6.80531,0.85018 13.66759,-0.76717 19.9877,-3.21897 7.67145,-3.00418 14.68567,-7.49831 21.03319,-12.71597 0.0231,3.6245 1.32747,7.2127 3.6875,9.9707 2.58933,3.0995 6.22235,5.48637 10.25718,6.09794 3.65485,0.42453 7.3006,-0.73569 10.56313,-2.29521 5.10708,-2.54884 9.43127,-6.34381 13.77735,-9.98242 1.84435,5.28963 6.02709,9.88736 11.44921,11.57344 3.73072,1.23404 7.81178,0.95511 11.50604,-0.26963 5.57228,-1.7836 10.42258,-5.24574 14.85964,-8.97235 6.8136,-5.84382 12.57709,-12.89257 17.10074,-20.63769 1.91312,-3.43332 3.6799,-7.15132 3.82533,-11.14641 0.0737,-3.17425 -1.40526,-6.50943 -4.27807,-8.06103 -3.11833,-1.80807 -7.21592,-1.31828 -10.03705,0.83667 -2.41813,1.81567 -3.85334,4.55877 -5.82857,6.79353 -1.70418,2.10768 -3.47693,4.19205 -5.23012,6.10541 -2.70337,2.93722 -5.545,5.76427 -8.66012,8.26634 0.014,-1.36217 0.11146,-2.69211 0.25943,-4.10846 0.81753,-7.70766 3.44126,-15.08239 6.50919,-22.15346 1.13103,-2.63964 1.21724,-5.76693 -0.12333,-8.3483 -1.18635,-2.44609 -3.38843,-4.26118 -5.63223,-5.59258 -2.1747,-1.367065 -4.88056,-2.087498 -7.41345,-1.418292 -2.67749,-2.292886 -6.37337,-3.445046 -9.86291,-2.729632 -7.06988,0.911221 -13.47768,4.564064 -18.9227,9.014594 -5.28369,4.39436 -9.93588,9.51166 -14.12087,14.95071 -0.38007,0.14639 -0.95434,-0.42533 -1.44574,-0.48091 -2.97877,-1.0248 -6.36932,-0.25434 -8.79847,1.69467 -2.08625,1.60631 -3.8021,3.6285 -5.82896,5.30565 -5.97877,5.39673 -12.2966,10.56888 -19.52427,14.2096 -2.74767,1.30671 -5.66426,2.54457 -8.75389,2.58805 -0.52005,-1.27955 -0.2109,-2.72628 -0.1099,-4.0648 0.25683,-1.69084 0.53343,-3.45347 1.50261,-4.8999 0.96945,-1.67277 1.59334,-3.51787 2.10924,-5.36538 1.28736,-2.33984 2.76372,-4.59693 4.56055,-6.58007 2.01169,2.52099 5.35221,3.71471 8.52187,3.41916 7.37718,-0.52945 13.88882,-6.73568 14.89033,-14.04586 0.68779,-4.25017 -0.93014,-8.7542 -4.13326,-11.62349 -3.20465,-2.999118 -7.65744,-4.353074 -11.99133,-4.297402 -6.42666,0.02104 -12.62101,2.384433 -18.1197,5.569332 -8.92638,5.18396 -16.26578,13.03686 -20.82305,22.30007 -1.90868,3.79556 -3.40942,7.80063 -4.41322,11.93014 -1.07137,0.85086 -2.14565,1.69985 -3.26563,2.48633 1.64368,-7.07949 4.12126,-13.98148 7.52344,-20.41016 1.3626,-2.53624 2.94989,-5.31824 3.07937,-8.34061 0.33856,-7.18092 -5.89464,-13.890867 -13.05893,-14.181723 -4.06084,-0.250834 -7.8061,2.105361 -10.32774,5.128103 -3.04585,3.80616 -5.41432,8.08885 -8.09968,12.14531 -0.81176,1.22604 -1.64546,2.43758 -2.46412,3.65908 1.16048,-2.57386 1.87426,-5.55616 0.9036,-8.30961 -1.36095,-4.26676 -5.0187,-7.39266 -8.95803,-9.263846 -1.7696,-0.802666 -3.68551,-1.309552 -5.63111,-1.389437 0.6399,-3.325145 -0.14503,-6.734484 -1.14857,-9.90662 -1.36366,-4.206784 -4.12524,-8.25603 -8.31698,-10.016138 -1.62424,-0.688841 -3.40381,-1.015264 -5.16726,-0.942477 z m 548.26562,52.724608 c -1.37646,3.64556 -3.06357,7.19327 -5.26367,10.41797 0.95513,-2.67753 2.2015,-5.20555 3.52734,-7.65625 0.61248,-1.10749 1.24696,-2.20295 1.91602,-3.27734 -0.0599,0.17187 -0.11979,0.34375 -0.17969,0.51562 z m -249.57617,1.12891 c -1.31942,3.25614 -2.89397,6.42106 -4.85352,9.34179 1.37356,-3.86004 3.34447,-7.47788 5.45508,-10.97851 -0.20052,0.54557 -0.40104,1.09115 -0.60156,1.63672 z m 275.20898,8.51953 c 0.75702,1.32736 1.54078,2.63993 2.37891,3.91797 -2.509,0.0478 -4.80936,1.19303 -6.87305,2.52734 1.56065,-2.33261 2.90791,-4.81125 3.97461,-7.4082 0.17318,0.32096 0.34636,0.64193 0.51953,0.96289 z"
       inkscape:label="Offset" />
    <g
       id="g76444"
       inkscape:label="Jogados"
       transform="matrix(0.4052611,0,0,0.4052611,10.794559,33.775264)"
       style="display:inline;fill:#f4c401;fill-opacity:1;stroke-width:2.46754">
      <path
         d="m 1169.4101,124.17001 c -6,0 -9.2,2.8 -12.4,5.6 -4.8,4.8 -6.8,6 -12.8,6.8 -6.8,1.2 -12,2 -16,4 -3.6,1.6 -7.2,4.4 -7.2,9.2 0,6.8 8.4,13.2 17.6,14.8 2.8,0.4 3.2,1.2 2.8,3.6 -20.8,75.2 -30,106.4 -44,144.8 -6,16.4 -11.6,28 -19.2,36.8 -6.8,6.4 -12.8,9.2 -16.8,9.2 -4,0 -7.6,-1.6 -10.4,-3.2 -3.6,-2 -14.4,-6 -20.8,-6 -6.8,0 -16,5.6 -16,12 0,6 5.2,14.4 10.4,17.2 8.4,4.4 18.8,8 26.4,8 4.8,0 10.4,-2 16,-3.6 4.4,-1.2 10.8,-4 16,-6 4,-2 17.6,-8.8 30,-22.8 14.4,-16 28,-52 41.2,-100.4 19.2,-70 21.2,-78 25.6,-89.2 2,-5.6 5.6,-11.6 8,-14.4 2.8,-2.8 6,-7.6 3.6,-14 -2.4,-6.8 -13.2,-12.4 -22,-12.4 z"
         id="path75980"
         style="font-size:400px;line-height:1.25;font-family:'Caflisch Script';-inkscape-font-specification:'Caflisch Script';fill:#f4c401;fill-opacity:1;stroke-width:4.62665" />
      <path
         d="m 1176.944,284.97001 c 0,18.8 12,33.6 26.4,33.6 28.8,0 54.8,-16 74,-38.8 16.4,-18.4 22.4,-37.6 22.4,-53.6 0,-15.6 -5.6,-33.2 -20,-40.4 -2.8,-1.2 -3.2,-2.4 -3.2,-4.8 0,-5.6 -0.8,-15.6 -16,-15.6 -6.8,0 -12.8,2.4 -18.4,8 -4,4 -6.8,6 -12,6 -4.4,0 -7.6,2 -10.4,4.8 -2.8,3.2 -4.8,6 -5.2,10.8 -0.4,7.2 -3.6,10.8 -6.8,15.2 -4.8,6 -15.2,21.6 -21.2,35.2 -7.2,17.6 -9.6,28.8 -9.6,39.6 z m 37.6,-6.8 c 0,-16.8 16,-49.2 34,-70.4 2.4,-3.2 6.4,-6.8 9.2,-6.8 7.2,0 10,11.2 10,21.2 0,14 -13.6,44.8 -25.2,57.6 -7.6,8.4 -14.4,11.6 -19.6,11.6 -3.6,0 -8.4,-4.8 -8.4,-13.2 z"
         id="path30596"
         style="font-size:400px;line-height:1.25;font-family:'Caflisch Script';-inkscape-font-specification:'Caflisch Script';fill:#f4c401;fill-opacity:1;stroke-width:4.62665" />
      <path
         d="m 1422.9242,171.37001 c -8.8,0 -25.2,4.8 -36.4,11.2 -13.6,8 -35.6,22.4 -54,46.4 -18.4,24 -26.8,48 -26.8,63.6 0,11.2 8,24.4 17.6,24.4 11.2,0 28.4,-8.8 36.8,-14 13.6,-8.4 25.2,-18.4 30,-22.4 2.4,-2 4,-2.4 3.6,0.8 -0.8,5.6 -2,16.8 -6.4,34.4 -6.4,26 -14,53.2 -30.4,76.4 -18,25.6 -34,32.8 -45.6,32.8 -7.2,0 -13.6,-4.4 -19.2,-8.8 -5.2,-4.4 -12.4,-8.8 -18.4,-8.8 -8.4,0 -24,11.2 -24,20.8 0,10.8 18,18 27.2,18 6.4,0 9.2,0.8 13.2,2 4.4,1.2 11.6,1.6 17.2,1.6 10.4,0 36,-9.6 52.8,-22.8 19.2,-14.8 42,-44 54,-91.6 4.4,-17.2 15.2,-59.2 22.4,-101.6 0.8,-4 1.6,-9.6 -0.4,-11.6 -1.2,-0.8 -0.4,-2.4 2.8,-4.4 6.8,-4.8 12,-12.8 12,-21.2 0,-8.8 -6.4,-25.2 -28,-25.2 z m -78,101.6 c 0,-10.4 10.8,-31.2 19.2,-42 14.4,-18.4 32.4,-28.4 48.8,-28.4 8.4,0 13.6,4.8 13.6,7.6 0,1.6 -1.2,3.6 -2,4.4 -1.6,1.2 -3.6,1.6 -5.2,2 -4.4,1.2 -9.2,4.4 -13.6,10.8 -2.4,3.6 -7.6,12.8 -21.2,26 -5.6,6 -25.6,26 -35.2,26 -2.8,0 -4.4,-2.8 -4.4,-6.4 z"
         id="path75984"
         style="font-size:400px;line-height:1.25;font-family:'Caflisch Script';-inkscape-font-specification:'Caflisch Script';fill:#f4c401;fill-opacity:1;stroke-width:4.62665" />
      <path
         d="m 1550.1242,172.17001 c -4.4,0 -21.6,1.6 -43.6,20.8 -16.8,15.2 -33.6,34.8 -44,56 -12.8,24.4 -15.2,37.2 -15.2,45.2 0,15.2 15.6,23.6 20.4,23.6 8.4,0 16.8,-3.6 27.6,-11.6 11.2,-8 32.4,-27.2 37.2,-32.8 2.4,-2.4 3.2,-2.4 3.6,1.2 0,4.4 0,8 0.8,14 1.6,16.4 12.4,29.2 27.2,29.2 25.2,0 64,-37.6 81.6,-72.4 3.6,-7.6 5.6,-14.8 3.6,-18.4 -1.6,-2.8 -5.6,-3.2 -10,0.8 -25.2,34.8 -52.4,59.2 -61.6,59.2 -6,0 -10,-5.6 -10,-19.6 0,-24 7.2,-48.8 17.6,-72.4 1.2,-3.6 3.2,-8.4 -8,-14.8 -3.6,-2.4 -6.4,-1.6 -9.6,1.2 -2.4,1.6 -4.4,1.6 -5.2,-0.8 -2.4,-3.2 -6.8,-8.4 -12.4,-8.4 z m -14.8,30 c 5.2,0 8.4,4.8 9.6,8.4 1.2,4 0,9.2 -2.4,13.2 -1.6,2.8 -8,14 -13.6,20.4 -12,14 -17.6,21.6 -24.4,27.2 -6,5.2 -12,9.2 -15.2,9.2 -3.2,0 -4,-5.6 -2.8,-10.8 2.4,-10.8 13.6,-33.2 27.2,-49.2 11.6,-13.6 18,-18.4 21.6,-18.4 z"
         id="path75986"
         style="font-size:400px;line-height:1.25;font-family:'Caflisch Script';-inkscape-font-specification:'Caflisch Script';fill:#f4c401;fill-opacity:1;stroke-width:4.62665" />
      <path
         d="m 1716.5247,177.77001 c -22,0 -43.6,9.2 -65.2,32.8 -30,32.8 -40,64.8 -40,82 0,20 9.2,26 18,26 8.8,0 24.8,-5.2 42.4,-17.2 10,-6.8 29.2,-23.6 38.8,-35.6 2,-2.8 3.6,-2.4 3.2,0.8 -0.8,4.8 -1.6,10 -2,18.8 -0.8,14 6,30.8 22.4,30.8 31.2,0 71.2,-44 83.6,-69.6 3.6,-7.6 5.6,-14.8 3.6,-18.4 -2.4,-4 -7.2,-3.2 -12,3.6 -7.6,11.2 -45.2,54 -57.6,54 -6,0 -8.8,-7.2 -7.6,-20 1.6,-20 10.4,-60.4 22,-92.4 13.2,-36 23.2,-54.8 28.8,-68.4 4,-9.999997 4,-15.199997 -1.6,-21.999997 -6.4,-7.6 -10.4,-8.8 -14.8,-8.8 -2.8,0 -5.6,1.6 -8.8,8.4 -4.8,10 -22.8,52.799997 -39.6,94.399997 -0.8,2.4 -1.6,2.4 -3.6,2 -3.2,-0.8 -6.4,-1.2 -10,-1.2 z m -8,23.2 c 3.2,0 6,2 7.2,4.4 1.6,2.8 2,6 -0.4,11.2 -2.4,6 -20,34.4 -33.6,48 -12.8,12.4 -22.4,17.6 -27.2,17.6 -2.8,0 -5.2,-2.8 -5.2,-6.8 0,-6 2,-14.8 19.2,-38.8 15.2,-21.6 32.8,-35.6 40,-35.6 z"
         id="path75988"
         style="font-size:400px;line-height:1.25;font-family:'Caflisch Script';-inkscape-font-specification:'Caflisch Script';fill:#f4c401;fill-opacity:1;stroke-width:4.62665" />
      <path
         d="m 1791.7254,284.97001 c 0,18.8 12,33.6 26.4,33.6 28.8,0 54.8,-16 74,-38.8 16.4,-18.4 22.4,-37.6 22.4,-53.6 0,-15.6 -5.6,-33.2 -20,-40.4 -2.8,-1.2 -3.2,-2.4 -3.2,-4.8 0,-5.6 -0.8,-15.6 -16,-15.6 -6.8,0 -12.8,2.4 -18.4,8 -4,4 -6.8,6 -12,6 -4.4,0 -7.6,2 -10.4,4.8 -2.8,3.2 -4.8,6 -5.2,10.8 -0.4,7.2 -3.6,10.8 -6.8,15.2 -4.8,6 -15.2,21.6 -21.2,35.2 -7.2,17.6 -9.6,28.8 -9.6,39.6 z m 37.6,-6.8 c 0,-16.8 16,-49.2 34,-70.4 2.4,-3.2 6.4,-6.8 9.2,-6.8 7.2,0 10,11.2 10,21.2 0,14 -13.6,44.8 -25.2,57.6 -7.6,8.4 -14.4,11.6 -19.6,11.6 -3.6,0 -8.4,-4.8 -8.4,-13.2 z"
         id="path75990"
         style="font-size:400px;line-height:1.25;font-family:'Caflisch Script';-inkscape-font-specification:'Caflisch Script';fill:#f4c401;fill-opacity:1;stroke-width:4.62665" />
      <path
         d="m 2001.7254,171.77001 c -13.2,0 -34,6.8 -46.4,17.6 -11.6,9.2 -24,24.8 -24,39.2 0,5.2 2,12 4,16.8 2.8,6 9.2,17.2 13.2,22.4 5.6,7.6 9.2,14.8 9.2,18.8 0,2.4 -3.2,5.6 -8.4,5.6 -5.6,0 -8,-0.8 -12,-2.4 -3.6,-2.8 -6.4,-2.8 -10,-0.8 -3.6,1.6 -8.8,4.8 -14.4,11.2 -2.8,2.4 -3.2,5.6 -3.2,8.4 1.6,8.8 16.8,14.8 27.6,14.8 4.4,0 9.2,-1.2 15.2,-3.6 8.8,-3.6 24,-12 29.2,-16.8 4.8,-4.4 10,-14.4 10,-20.4 0,-10.4 -6,-22 -15.2,-33.6 -6.8,-9.2 -12,-18 -12,-25.6 0,-12.4 27.6,-22.8 52.4,-22.8 6.8,0 12.8,-3.2 12.8,-10.8 0,-4.8 -1.6,-8.8 -6.8,-12.4 -5.2,-3.6 -11.2,-5.6 -21.2,-5.6 z"
         id="path75992"
         style="font-size:400px;line-height:1.25;font-family:'Caflisch Script';-inkscape-font-specification:'Caflisch Script';fill:#f4c401;fill-opacity:1;stroke-width:4.62665" />
    </g>
    <g
       id="g12875"
       inkscape:label="Nunca"
       style="fill:#f4c401;fill-opacity:1">
      <path
         d="m 379.88776,103.56806 c -1.81915,0 -8.93035,0.65102 -18.02608,8.46319 -6.94583,6.18464 -13.89165,14.15957 -18.19145,22.78551 -5.29206,9.92797 -6.28432,15.13609 -6.28432,18.39116 0,6.18464 6.4497,9.60247 8.43422,9.60247 3.47291,0 6.94582,-1.46479 11.411,-4.71986 4.63055,-3.25507 13.39552,-11.06725 15.38005,-13.3458 0.99226,-0.97652 1.32301,-0.97652 1.48839,0.48826 0,1.79029 0,3.25508 0.33075,5.69638 0.66151,6.6729 5.12668,11.88102 11.24563,11.88102 10.41874,0 26.46029,-15.29885 33.73687,-29.45841 1.48839,-3.09232 2.31528,-6.02189 1.48839,-7.48667 -0.6615,-1.13928 -2.31527,-1.30203 -4.13442,0.32551 -10.41874,14.15956 -21.66436,24.08754 -25.46803,24.08754 -2.48065,0 -4.13442,-2.27855 -4.13442,-7.97493 0,-9.76522 2.97678,-19.85595 7.27658,-29.45841 0.49613,-1.46478 1.32301,-3.41783 -3.30754,-6.02189 -1.48839,-0.97652 -2.64603,-0.65101 -3.96904,0.48827 -0.99226,0.65101 -1.81915,0.65101 -2.1499,-0.32551 -0.99226,-1.30203 -2.81141,-3.41783 -5.12668,-3.41783 z m -6.11895,12.20652 c 2.1499,0 3.47292,1.95305 3.96905,3.41783 0.49613,1.62754 0,3.74333 -0.99226,5.37087 -0.66151,1.13928 -3.30754,5.69638 -5.62282,8.30044 -4.9613,5.69637 -7.27658,8.78869 -10.08798,11.06724 -2.48066,2.1158 -4.96131,3.74334 -6.28432,3.74334 -1.32302,0 -1.65377,-2.27855 -1.15764,-4.39435 0.99226,-4.39435 5.62281,-13.50855 11.24562,-20.0187 4.79593,-5.53362 7.44196,-7.48667 8.93035,-7.48667 z"
         id="path12837"
         style="font-size:164.06px;line-height:1.25;font-family:'Caflisch Script';-inkscape-font-specification:'Caflisch Script';letter-spacing:-3.4611px;fill:#f4c401;fill-opacity:1;stroke-width:1.875" />
      <path
         d="m 315.56425,103.56806 c -8.76497,0 -19.18371,6.18464 -25.96417,13.67131 -8.10346,8.95145 -12.0725,21.15797 -12.0725,28.48188 0,12.85754 7.77271,17.08914 15.7108,17.08914 15.54542,0 34.56376,-12.85754 46.47089,-27.99363 2.1499,-2.76681 2.97678,-5.69638 2.1499,-7.16116 -0.66151,-1.13928 -2.31528,-1.30203 -4.13442,0.32551 -11.08025,10.74174 -26.12955,23.11101 -37.8713,23.11101 -3.63829,0 -6.61507,-3.25507 -6.61507,-8.13768 0,-4.5571 1.32301,-11.55551 6.94582,-19.85594 4.63055,-6.83565 9.26111,-9.27696 10.91487,-9.27696 0.99227,0 1.81915,0.81377 1.65377,2.92957 -0.16537,1.62753 0.33076,2.76681 1.32302,3.25507 0.82688,0.48826 2.8114,0.65101 4.9613,-0.32551 3.14216,-1.46478 6.11895,-4.5571 6.11895,-8.95145 0,-3.41782 -3.30754,-7.16116 -9.59186,-7.16116 z"
         id="path12846"
         style="font-size:164.06px;line-height:1.25;font-family:'Caflisch Script';-inkscape-font-specification:'Caflisch Script';letter-spacing:-3.4611px;fill:#f4c401;fill-opacity:1;stroke-width:1.875" />
      <path
         d="m 263.94128,148.81357 c -2.48065,0 -2.8114,-2.11579 -2.48065,-5.69637 0.82688,-6.83566 4.13442,-17.41464 7.60733,-24.41305 1.65377,-3.25507 2.64603,-5.04536 3.30754,-6.51015 1.98452,-4.23159 -2.31528,-9.27695 -6.4497,-9.27695 -1.98452,0 -3.96904,1.30203 -6.61507,5.20811 -2.97678,4.55711 -9.92261,16.27537 -17.69532,25.22682 -7.93809,8.46319 -12.56864,12.53203 -14.38779,12.53203 -1.98452,0 -2.8114,-1.79029 -1.15764,-6.99841 1.98453,-6.6729 3.30754,-9.76522 4.63056,-12.20652 1.15763,-2.1158 3.14216,-3.09232 4.79592,-5.20812 1.4884,-1.95304 4.79593,-7.48667 4.79593,-9.60246 0,-2.92957 -4.9613,-6.99841 -9.09572,-6.99841 -1.98453,0 -4.13442,1.30203 -5.78819,3.74333 -1.98453,3.58058 -7.11121,13.18305 -11.08025,24.73856 -4.63055,12.04377 -5.12668,16.11261 -5.12668,18.71667 0,5.20811 3.47291,10.25348 6.94582,10.25348 2.48066,0 5.12669,-0.65102 8.5996,-2.76682 9.92261,-6.18463 20.83748,-16.60087 23.48351,-19.36768 0.99226,-0.97652 2.1499,-0.32551 1.65377,1.46478 -0.49613,1.79029 -0.99226,3.58058 -1.48839,6.18464 -1.98452,9.43971 0.99226,14.97334 6.11894,14.97334 2.48065,0 7.11121,-1.13928 11.74176,-3.41783 5.78819,-2.76681 15.54542,-8.7887 28.11406,-25.06406 2.48065,-3.09232 3.47291,-6.6729 2.48065,-8.62594 -0.6615,-1.46479 -1.98452,-1.46479 -3.30753,-0.16276 -9.75724,10.74174 -23.97965,23.27377 -29.60246,23.27377 z"
         id="path12843"
         style="font-size:164.06px;line-height:1.25;font-family:'Caflisch Script';-inkscape-font-specification:'Caflisch Script';letter-spacing:-3.4611px;fill:#f4c401;fill-opacity:1;stroke-width:1.875" />
      <path
         d="m 164.62723,86.478926 c -1.81915,0 -3.96905,0.813768 -5.12669,1.953044 -0.82688,0.976521 -1.81914,2.278551 -1.81914,3.092319 0,0.813768 -0.66151,1.79029 -2.1499,2.766812 -2.1499,1.464782 -3.63829,3.743332 -4.13442,5.208119 -0.66151,2.27855 0.49613,3.58058 1.98452,5.04536 0.99226,0.97653 1.48839,2.1158 0.66151,3.90609 -1.65377,4.06884 -11.57638,26.6916 -17.69533,40.3629 -0.82688,1.79029 -2.48065,6.18464 -2.48065,7.97493 0,5.53363 3.80367,7.81218 7.27658,7.81218 2.1499,0 5.29206,-1.13928 7.77271,-3.90609 3.6383,-4.23159 4.13443,-6.34739 4.13443,-14.15957 0,-0.97652 0,-2.27855 0.6615,-5.20811 1.32302,-5.53363 6.28432,-16.27537 9.26111,-22.1345 0.6615,-1.13927 1.32301,-1.46478 2.31527,0.16275 2.31528,3.58058 9.92261,17.41464 15.38005,26.04059 5.29206,8.30043 6.61507,11.71826 7.60733,13.02029 1.32302,1.79029 4.79593,4.39435 8.26885,4.39435 2.64603,0 4.13442,-1.46479 5.62281,-3.41783 1.48839,-1.95304 1.65377,-4.39435 0.82688,-5.69638 -0.99226,-1.46478 -1.98452,-2.4413 -1.98452,-3.90608 0,-2.27856 0,-4.2316 1.48839,-9.92798 3.80367,-14.15956 7.77271,-24.25029 14.22241,-36.78232 1.15764,-2.4413 3.14216,-3.58058 4.96131,-3.743333 2.48065,-0.162758 3.80366,-1.302034 3.80366,-3.255077 0,-2.929565 -1.81914,-12.043769 -7.77271,-12.043769 -1.98452,0 -4.13442,0.813768 -6.28432,2.929566 -2.31527,2.278551 -4.9613,6.347392 -9.2611,16.763623 -3.96905,8.95146 -7.60734,18.55392 -10.91487,28.48189 -0.66151,1.79029 -0.99226,2.1158 -1.98453,0.32551 -1.48839,-2.60406 -16.04155,-26.85435 -17.86069,-30.10942 -0.99227,-1.79029 -1.4884,-3.417835 -1.4884,-4.231603 0,-0.651014 0.49613,-1.302029 1.15764,-2.766811 0.82689,-1.139275 1.32302,-2.929565 0,-5.045363 -1.32301,-2.278551 -2.97678,-3.906087 -6.44969,-3.906087 z"
         id="path12840"
         style="font-size:164.06px;line-height:1.25;font-family:'Caflisch Script';-inkscape-font-specification:'Caflisch Script';letter-spacing:-3.4611px;fill:#f4c401;fill-opacity:1;stroke-width:1.875" />
    </g>
  </g>
</svg>
