<svg enable-background="new 0 0 566.929 129.21" height="150.6516" viewBox="0 0 615.13286 120.52128" width="768.91608" xmlns="http://www.w3.org/2000/svg"><g transform="matrix(.10252157 0 0 .10252157 149.66656 -3.581866)"><text fill="#ef00eb" font-family="TrasksHand" font-size="20.8086" stroke="#0105ff" stroke-width="26.0108" x="-1390.2169" y="965.01819"><tspan fill="#fafafa" fill-opacity=".4" font-size="20.8086" stroke="none" stroke-width="26.0108" x="-1390.2169" y="965.01819">John Loreth 2022</tspan></text><path d="m-1156.4036 289.56797h5507.5293c120.4937 0 209.376 89.0658 185.0151 179.98179l-87.6189 319.44057c-21.9525 80.03433-110.3027 149.80211-193.2931 149.80211h-5561.893c-82.9904 0-171.7547-69.76781-149.8022-149.80211l95.897-349.62025c18.7065-68.20003 90.9733-149.80211 204.1658-149.80211z" fill="#2285c8"/><path d="m-609.38278 34.937686h2683.87658c152.4609 0 301.3058 161.678464 251.8204 342.091594l-114.9204 418.97603c-78.5424 293.12439-276.2284 409.51379-433.4763 414.50229h-2673.77249c-150.27311 0-311.00111-126.3307-271.25111-271.25118l169.81586-619.11333c41.77631-155.91104 253.84899-280.673069 387.90746-285.205404z" fill="#050608"/><g fill="#ed1e24" stroke-width="32.5135" transform="matrix(.75 0 0 .75 -231.55837 148.37249)"><path d="m-731.90302 440.69969h-164.80464l133.68301-265.93476h358.32525l17.19278-36.20708h253.44956l-154.37645 305.8874h-164.80464l-168.60811 629.25405h-278.41997z"/><path d="m-316.90469 682.91257q2.52106-18.7278 6.62518-38.70412 4.10411-19.97632 14.14031-57.43192 8.3635-31.213 24.55266-63.67452 17.43768-32.46152 62.05629-101.13012 45.86714-68.6686 141.005996-134.84016 95.473397-67.42008 167.421773-93.639 72.282921-27.46744 161.686571-34.95856 11.23668 0 22.47336 0 11.23668 0 22.8079-1.24852 17.47928 0 25.88438 1.24852 61.17748 0 107.68324 17.47928 46.8403 16.23076 96.73306 53.68636 51.47582 36.20708 75.39457 77.40824 24.25328 39.95264 37.35952 74.9112 14.35476 34.95856 18.20755 81.1538 3.85278 46.19524-2.95168 94.88752-6.46992 47.44376-14.49887 77.40824-22.41418 83.65085-76.53116 159.81057-52.86845 76.15972-99.53591 119.85792-45.0844 42.44968-98.72916 74.9112-52.39623 32.4615-93.28687 49.9408-40.89065 17.4793-85.43721 29.9645-42.9635 11.2367-90.16235 14.9822-47.198866 3.7456-90.897066 3.7456l-62.581254-8.7397q-73.39377-14.9822-121.88274-43.6982-46.90594-29.9644-88.94902-87.39636-40.79456-57.43192-55.28057-119.85792-14.15146-63.67452-3.3085-146.07685zm303.528036-42.44968q-10.149857 61.17748 19.3424034 104.87569 30.7407826 43.6982 64.0266526 49.9408 34.534378 6.2426 42.025498 6.2426 7.49112 0 16.23076 0 7.49112 0 14.98224 0 10.65724-2.49704 63.8538-9.98816 53.5311-8.73964 89.14116-62.426 36.85858-53.68637 42.70102-66.17157 7.09096-12.4852 11.10544-27.46744 19.73785-73.66268-6.16411-126.10052-25.90197-52.43784-65.43043-58.68044-37.9454-7.49112-55.42468-7.49112-26.21892 0-48.78192 4.99408-21.31448 4.99408-51.54788 19.97632-28.650344 13.73372-72.062041 49.9408-42.1631783 36.20708-59.5592544 101.13012-3.6799396 13.73372-4.4386586 21.22484z"/><path d="m753.94485 443.19673h-62.426l134.35209-268.4318h319.62116q162.3076 0 236.5193 91.14196 75.4601 91.14196 81.7859 156.065 7.9088 63.67452.525 109.86976-5.8009 44.94672-24.2006 113.61532-8.3635 31.213-24.5526 63.67453-14.9407 32.46152-64.0636 108.62124-49.1228 76.15972-145.5102 142.33128-96.0528 64.92308-176.4063 89.89348-80.01896 23.7218-181.14906 23.7218h-263.43774zm186.66634 347.08857h24.9704q69.09281-6.2426 122.33741-51.18932 54.8277-46.19525 73.8965-117.36089 5.0181-18.7278 7.4975-69.91712 4.0625-52.43784-41.0154-79.90528-45.078-27.46744-95.0188-27.46744z"/><path d="m1477.8391 682.91257q2.5211-18.7278 6.6253-38.70412 4.1041-19.97632 14.1403-57.43192 8.3635-31.213 24.5526-63.67452 17.4377-32.46152 62.0563-101.13012 45.8672-68.6686 141.006-134.84016 95.4734-67.42008 167.4218-93.639 72.283-27.46744 161.6866-34.95856 11.2366 0 22.4733 0 11.2367 0 22.8079-1.24852 17.4793 0 25.8844 1.24852 61.1775 0 107.6832 17.47928 46.8403 16.23076 96.7331 53.68636 51.4759 36.20708 75.3945 77.40824 24.2534 39.95264 37.3596 74.9112 14.3547 34.95856 18.2076 81.1538 3.8527 46.19524-2.9518 94.88752-6.4699 47.44376-14.4989 77.40824-22.4141 83.65085-76.5311 159.81057-52.8684 76.15972-99.5359 119.85792-45.0844 42.44968-98.7291 74.9112-52.3962 32.4615-93.2869 49.9408-40.8907 17.4793-85.4373 29.9645-42.9634 11.2367-90.1622 14.9822-47.199 3.7456-90.8972 3.7456l-62.5812-8.7397q-73.3938-14.9822-121.8828-43.6982-46.9059-29.9644-88.949-87.39636-40.7945-57.43192-55.2805-119.85792-14.1515-63.67452-3.3086-146.07685zm303.5281-42.44968q-10.1499 61.17748 19.3424 104.87569 30.7408 43.6982 64.0266 49.9408 34.5344 6.2426 42.0255 6.2426 7.4912 0 16.2308 0 7.4911 0 14.9822 0 10.6573-2.49704 63.8539-9.98816 53.531-8.73964 89.1411-62.426 36.8586-53.68637 42.7011-66.17157 7.0909-12.4852 11.1053-27.46744 19.7379-73.66268-6.164-126.10052-25.9019-52.43784-65.4304-58.68044-37.9454-7.49112-55.4247-7.49112-26.2189 0-48.782 4.99408-21.3144 4.99408-51.5478 19.97632-28.6503 13.73372-72.0621 49.9408-42.1632 36.20708-59.5592 101.13012-3.68 13.73372-4.4387 21.22484z"/><path d="m2490.7968 1059.9656q-64.23-21.2248-118.5373-56.1834l140.7499-259.69214 36.1831 18.7278q62.8021 31.213 101.2373 46.19524 40.0183 13.73372 59.9946 13.73372 7.1565 1.24852 12.1506 1.24852 4.9941 0 6.2426 0 19.9763 0 42.2945-8.73964 22.6526-9.98816 29.3434-34.95856 2.3418-8.73964-2.1384-19.97632-3.2318-11.23668-13.1303-16.23076l-4.3251-2.49704-40.2631-17.47928-97.5815-41.20117q-85.1858-36.20708-112.157-98.63308-25.3882-63.67452 1.375-163.55612 17.7306-66.17156 57.6658-117.36088 41.1835-51.18932 95.1628-84.89936 55.2279-33.71004 102.2715-46.19524 47.3781-13.73372 117.2952-13.73372 23.7219 0 49.6063 1.24852 25.8843 1.24852 51.0996 4.99408l16.7687-29.96448 223.5922 46.19524-156.5149 285.91108q-45.9023-33.71004-102.7308-49.9408-55.2454-17.47928-85.2098-17.47928-16.2308 0-33.7998 4.99408-16.3203 4.99408-26.4877 14.98224-10.1675 9.98816-13.5129 22.47336-2.6763 9.98816 1.2245 18.7278 5.1494 8.73964 15.3824 12.4852l116.2196 46.19524 37.7661 17.47928q140.4728 86.14788 96.9827 248.45549-5.6872 21.22484-25.8908 68.6686-19.8691 46.19524-72.6239 98.63308-51.5063 52.4378-95.9872 78.6568-44.481 26.2189-100.0194 42.4496-55.8728 17.4793-147.0147 17.4793-34.9586 0-69.493-6.2426-34.5344-6.2426-93.1908-24.9704z"/></g><g fill="#fff" stroke-width="24.3851" transform="matrix(.99612746 0 -.22780655 1.0038876 0 0)"><path d="m2598.4556 781.17651-12.7996-6.3998 27.5684-101.90444 7.3843 5.41521q13.7842 7.87667 24.6146 7.87667 19.6917 0 22.6455-15.26105 3.446-15.75334 3.446-21.16855v-109.28883h-78.2744l25.1069-105.35048h162.9486v238.26932q0 9.35355-1.4768 18.7071-1.4769 9.35354-10.3382 36.4296-8.8612 27.07606-34.4604 42.82941-25.1069 15.75334-42.3371 19.69168-17.2302 3.93833-38.3988 3.93833-25.5992 0-55.629-13.78417z"/><path d="m2819.9873 539.95343h-24.6146l24.6146-104.85819h110.2734v221.0391q0 12.3073 8.8613 20.67626 8.8612 8.36897 24.1223 8.36897 16.2456 0 26.5837-9.35355 10.3382-9.35355 10.3382-25.59918v-215.1316h109.7811v228.42348q0 8.86126-1.4769 18.7071-1.4769 9.84584-16.7379 57.10587-14.7688 46.76774-66.4594 51.69066-51.6907 5.41521-62.5211 5.41521-49.7215 0-85.6588-23.13772-35.4451-23.13773-44.3063-48.73691-8.8613-25.59919-10.8304-36.42961-1.9692-10.83042-1.9692-17.72251z"/><path d="m3148.838 542.41489h-24.6146l24.6146-107.31965h146.703l4.4306-14.27647h98.4584l-28.0606 124.54987h-111.258v20.18397h129.4728l-23.63 91.56632h-105.8428v21.66084h127.5036l-26.0915 110.7657h-211.6855z"/><path d="m3524.4564 441.49503q17.7225-6.89209 34.9527-10.33813 17.2302-3.44604 32.4913-3.44604 31.999 0 56.6136 13.78417l6.892-6.39979 77.2899 40.86023-79.259 84.18193-5.9075-3.44604-9.3536-4.43063q-14.2764-6.39979-21.6608-7.87667-7.3844-1.47688-13.2919-1.96917-5.9075-.49229-11.3227-.49229-46.2755 0-57.5982 23.63001-10.8304 23.13773-12.3073 27.56836-1.4769 4.43062-1.4769 12.3073-.4923 3.93833-.4923 10.83042 0 28.55294 17.7226 46.27545 17.7225 17.23022 33.4758 21.16855 15.7534 3.44605 26.5838 3.44605 19.6917 0 29.0452-6.89209 9.3536-6.89209 12.3073-10.33813 3.4461-3.44605 7.3844-8.36897h-57.1059l24.1223-91.56631h164.9178l.4923 6.89209.4923 8.36896q0 29.04523-6.8921 59.56734-6.3998 30.5221-17.2302 52.67524-10.3381 21.66085-28.5529 40.36794-18.2148 18.21481-37.4142 31.0144-18.7071 12.3073-41.8448 19.69168-22.6455 7.38438-48.2446 7.38438-11.815 0-38.8911-2.95375-27.0761-2.46146-50.7061-15.75335-23.1377-13.29188-34.4604-22.64543-11.3227-9.35355-29.0452-30.02981-17.2303-21.16856-27.5684-49.2292-10.3381-28.55294-10.3381-66.45942 0-52.18295 18.2148-79.7513 18.2148-28.06065 31.999-42.33711 14.2764-14.76876 31.0143-26.09148 16.738-11.81501 34.9528-19.19939z"/><path d="m3795.709 635.45808q-.9845-7.38438-1.4768-15.26105-.4923-7.87668-.4923-22.64544 0-12.3073 2.9537-25.10689 3.4461-12.79959 13.7842-39.87565 10.8304-27.07606 41.3525-53.16753 30.5221-26.58377 56.1213-36.9219 25.5992-10.83043 60.0596-13.78418 4.4307 0 8.8613 0 4.4306 0 8.8612-.49229 6.8921 0 10.3382.49229 24.1223 0 44.3063 6.89209 20.1839 6.39979 43.8139 21.16855 24.1223 14.27647 37.9065 30.52211 13.7842 15.75334 22.6455 29.53752 9.3535 13.78417 15.7533 31.99898 6.3998 18.2148 8.8613 37.41419 2.4614 18.70709 2.4614 30.5221 0 32.98357-13.2919 63.01338-12.7996 30.02981-26.5837 47.26003-13.2919 16.73793-31.0144 29.53752-17.2303 12.79959-31.5067 19.69168-14.2765 6.89209-30.5221 11.81501-15.7534 4.43062-33.9682 5.9075-18.2148 1.47688-35.445 1.47688l-25.5992-3.44605q-30.5221-5.9075-52.6752-17.23022-21.6609-11.81501-44.3063-34.46044-22.1531-22.64543-34.4604-47.26003-12.3073-25.10689-16.738-57.59816zm115.1964-16.73793q2.4614 24.12231 18.7071 41.35253 16.7379 17.23022 30.5221 19.69168 14.2764 2.46146 17.2302 2.46146 2.9537 0 6.3998 0 2.9537 0 5.9075 0 3.9383-.98459 24.1223-3.93834 20.184-3.44604 28.5529-24.6146 8.8613-21.16855 9.8459-26.09147 1.4768-4.92292 1.4768-10.83043 0-29.04523-15.7533-49.72149-15.7533-20.67626-31.999-23.13772-15.7533-2.95375-22.6454-2.95375-10.3381 0-18.7071 1.96916-7.8767 1.96917-18.2148 7.87667-9.8459 5.41522-23.1377 19.69168-12.7996 14.27647-12.7996 39.87566 0 5.41521.4923 8.36896z"/><path d="m4242.2177 784.13026q-27.5683-8.36896-52.6752-22.15314l28.0606-102.39673 16.2456 7.38438q28.0607 12.30729 44.7986 18.2148 17.2302 5.41521 25.1069 5.41521 2.9538.49229 4.9229.49229 1.9692 0 2.4615 0 7.8767 0 15.7533-3.44604 7.8767-3.93834 7.8767-13.78418 0-3.44604-2.9538-7.87667-2.4614-4.43063-6.892-6.39979l-1.9692-.98459-17.7225-6.89209-42.8294-16.24563q-37.4142-14.27647-54.6444-38.89107-16.738-25.10689-16.738-64.49025 0-26.09148 10.3382-46.27545 10.8304-20.18397 28.5529-33.47585 18.2148-13.29189 35.445-18.21481 17.2302-5.41521 44.7986-5.41521 9.3535 0 19.6917.49229 10.3381.49229 20.6762 1.96917l3.4461-11.81501 93.0432 18.21481-31.5067 112.73486q-21.6609-13.29188-45.7832-19.69168-23.63-6.89208-35.445-6.89208-6.3998 0-12.7996 1.96916-5.9075 1.96917-8.8612 5.90751-2.9538 3.93833-2.9538 8.86125 0 3.93834 2.4615 7.38438 2.9537 3.44605 7.3843 4.92292l50.7061 18.21481 16.7379 6.89208q64.4903 33.96815 64.4903 97.96611 0 8.36896-2.9538 27.07606-2.9537 18.2148-18.2148 38.89107-14.7687 20.67626-29.5375 31.01439-14.7687 10.33814-34.9527 16.73793-20.184 6.89209-56.1213 6.89209-13.7842 0-28.0606-2.46146-14.2765-2.46146-39.3834-9.84584z"/></g></g></svg>