<?xml version="1.0" encoding="UTF-8" standalone="no"?>
<svg
   width="662.23444pt"
   height="156.03062pt"
   viewBox="0 0 728.45788 171.63369"
   version="1.1"
   id="svg37"
   sodipodi:docname="auto-lastplayed-ptbr.svg"
   inkscape:version="1.1.2 (0a00cf5339, 2022-02-04, custom)"
   xmlns:inkscape="http://www.inkscape.org/namespaces/inkscape"
   xmlns:sodipodi="http://sodipodi.sourceforge.net/DTD/sodipodi-0.dtd"
   xmlns:xlink="http://www.w3.org/1999/xlink"
   xmlns="http://www.w3.org/2000/svg"
   xmlns:svg="http://www.w3.org/2000/svg">
  <defs
     id="defs41">
    <linearGradient
       inkscape:collect="always"
       id="linearGradient853">
      <stop
         style="stop-color:#000000;stop-opacity:1;"
         offset="0"
         id="stop849" />
      <stop
         style="stop-color:#000000;stop-opacity:0;"
         offset="1"
         id="stop851" />
    </linearGradient>
    <radialGradient
       inkscape:collect="always"
       xlink:href="#linearGradient853"
       id="radialGradient857"
       cx="60.35236"
       cy="253.12825"
       fx="60.35236"
       fy="253.12825"
       r="52.697178"
       gradientTransform="matrix(1,0,0,0.19039974,0,204.9327)"
       gradientUnits="userSpaceOnUse" />
  </defs>
  <sodipodi:namedview
     id="namedview39"
     pagecolor="#ffffff"
     bordercolor="#111111"
     borderopacity="1"
     inkscape:pageshadow="0"
     inkscape:pageopacity="0"
     inkscape:pagecheckerboard="1"
     inkscape:document-units="pt"
     showgrid="false"
     showguides="false"
     inkscape:snap-global="false"
     fit-margin-top="0"
     fit-margin-left="0"
     fit-margin-right="0"
     fit-margin-bottom="0"
     inkscape:zoom="0.47995023"
     inkscape:cx="343.78565"
     inkscape:cy="26.044367"
     inkscape:window-width="1366"
     inkscape:window-height="703"
     inkscape:window-x="0"
     inkscape:window-y="0"
     inkscape:window-maximized="1"
     inkscape:current-layer="layer1"
     scale-x="1.1" />
  <g
     inkscape:groupmode="layer"
     id="layer1"
     inkscape:label="LastPlayedPTBR"
     transform="translate(-74.951087,-55.445735)">
    <text
       xml:space="preserve"
       style="font-size:1.65px;line-height:1.25;font-family:TrasksHand;-inkscape-font-specification:TrasksHand;text-decoration-color:#000000;fill:#ef00eb;stroke:#0105ff;stroke-width:2.0625;-inkscape-stroke:none;stop-color:#000000"
       x="344.1449"
       y="102.07345"
       id="text4082"
       inkscape:label="Signature"><tspan
         sodipodi:role="line"
         id="tspan4080"
         style="font-size:1.65px;fill:#fafafa;fill-opacity:0.4;stroke:none;stroke-width:2.0625"
         x="344.1449"
         y="102.07345">John Loreth 2022</tspan></text>
    <path
       id="path41413"
       style="font-size:170px;line-height:1.25;font-family:'Caflisch Script';-inkscape-font-specification:'Caflisch Script';letter-spacing:-3.6075px;fill:#333333;fill-opacity:1;stroke-width:1.875"
       inkscape:label="Offset"
       d="m 742.88867,55.455078 c -3.69737,0.07427 -6.78636,2.83382 -8.34564,6.023826 -4.51103,9.687142 -8.47535,19.615444 -12.58448,29.476819 -1.17341,2.863387 -2.33954,5.729337 -3.50738,8.595058 -6.94127,-0.408977 -13.94119,1.382559 -20.01172,4.724609 -7.03419,3.86274 -12.79416,9.63241 -17.76464,15.85659 -4.52844,5.67363 -8.34685,11.94107 -11.07129,18.67857 -1.9731,2.01606 -4.09916,3.93987 -6.34375,5.61523 -0.14723,-7.95179 1.81153,-15.8817 4.5664,-23.33789 0.86218,-2.44585 1.97219,-4.79631 2.86328,-7.22851 0.94034,-3.00222 0.30075,-6.44371 -1.76367,-8.8379 -1.74594,-2.08913 -4.09834,-3.6331 -6.59961,-4.66601 -1.61508,-0.548672 -3.40098,-0.622958 -5.04101,-0.13672 -2.54362,-2.330849 -6.13242,-3.631864 -9.57252,-2.957266 -6.8345,0.801911 -13.05411,4.261566 -18.37994,8.468546 -5.50304,4.45627 -10.28134,9.74272 -14.64629,15.29942 -2.35055,3.09191 -4.46305,6.3635 -6.34266,9.76157 0.21907,-1.63482 0.64764,-3.26108 0.53516,-4.92188 4.06695,-3.69126 6.54294,-9.39559 5.55946,-14.90558 -1.00072,-6.60888 -6.33177,-12.369707 -12.91804,-13.680635 -5.05185,-1.206292 -10.29828,-0.08018 -15.13611,1.493671 -5.46235,1.783014 -10.44802,4.735794 -15.11274,8.043384 -6.92545,4.85946 -13.18109,10.71736 -18.25,17.50424 -0.31033,-6.42377 -2.51725,-13.0121 -7.20122,-17.57457 -0.83258,-0.81225 -1.74715,-1.54091 -2.72846,-2.16567 -0.41797,-3.67695 -2.53079,-7.277529 -5.94528,-8.897488 -3.54145,-1.767972 -7.76577,-1.86097 -11.52933,-0.793914 -3.10813,0.962125 -5.85752,2.878922 -8.07227,5.234372 -1.03618,0.11883 -2.10152,0.0809 -3.10351,0.44336 -4.44793,1.28354 -7.97801,5.11354 -9.19922,9.53711 -0.37134,1.53197 -0.21952,3.29962 -1.34634,4.54562 -1.45117,1.95054 -2.92177,3.88713 -4.21226,5.95048 -0.67954,1.03 -1.33639,2.07473 -1.97461,3.13086 1.67655,-5.89266 3.17895,-11.83662 5.03366,-17.67683 1.03501,-3.09285 2.02023,-6.321748 4.18974,-8.839914 3.82011,-4.029816 3.71924,-11.010065 -0.14275,-14.979376 -3.53172,-3.859809 -8.93167,-5.829096 -14.11775,-5.480448 -3.53377,0.333679 -6.62592,2.437597 -9.01954,4.947266 -1.2238,0.549476 -2.62282,0.449219 -3.90603,0.808367 -3.85546,0.688687 -7.90296,2.098282 -10.36936,5.316633 -2.66017,3.554903 -2.41399,8.904107 0.5103,12.234412 1.39381,1.77486 3.23877,3.16875 5.26314,4.15035 -5.5112,19.68292 -10.85056,39.4573 -18.06836,58.60157 -1.54682,3.87922 -3.11989,7.85765 -5.77521,11.13211 -0.91876,1.02916 -2.00552,2.02704 -3.32244,2.48312 -0.95713,-0.23095 -1.66265,-0.75296 -2.58594,-1.16406 -2.44402,-1.10914 -5.0355,-1.90352 -7.66371,-2.4352 -3.61724,-0.65906 -7.46775,0.1048 -10.50736,2.18974 -3.06165,1.99352 -5.3475,5.50234 -5.08479,9.25132 0.21915,3.74811 2.152,7.23404 4.73096,9.88696 2.49637,2.43343 5.86407,3.59509 9.06514,4.78022 3.96074,1.37412 8.33306,1.94321 12.41843,0.76332 4.39779,-1.1082 8.70484,-2.63212 12.78038,-4.62518 5.24979,-2.72002 9.98251,-6.4616 13.82931,-10.95181 4.26188,-5.05122 7.03876,-11.13163 9.53874,-17.19359 1.68662,-4.23172 3.18155,-8.53741 4.59016,-12.86891 0.69849,6.24573 4.1926,12.36446 9.80078,15.41602 3.68112,2.06203 8.07696,2.10038 12.14684,1.50404 10.31233,-1.27124 19.7545,-6.71206 27.06215,-13.9474 0.97981,-0.98162 1.93856,-1.98517 2.86914,-3.01367 -0.0472,5.33804 2.29072,10.76845 6.51075,14.10545 2.26117,1.8553 5.23708,2.71383 8.14057,2.46773 3.08102,-0.26033 6.05514,-1.25172 8.91828,-2.37505 4.01368,-1.66155 7.81733,-3.80769 11.42649,-6.21766 -1.41365,5.71814 -2.90586,11.4339 -4.93822,16.96794 -2.86815,7.84957 -7.11182,15.3429 -13.17469,21.16784 -2.13091,1.94777 -4.61104,3.724 -7.48416,4.31952 -1.34291,0.24628 -2.66868,-0.26608 -3.70992,-1.09402 -2.87619,-2.00811 -5.55489,-4.45728 -8.96307,-5.53881 -3.34661,-1.18651 -7.1793,-0.94316 -10.30235,0.77236 -4.30055,2.06656 -8.13509,5.56806 -9.75962,10.13954 -1.11928,3.54636 -0.2069,7.6413 2.36804,10.33694 3.12509,3.55744 7.72827,5.48481 12.3148,6.27764 2.05751,0.27149 4.17477,0.0985 6.17263,0.75261 2.09459,0.55373 4.24441,0.8417 6.40767,0.91226 3.57256,0.24461 7.18604,-0.23767 10.55476,-1.45844 9.29146,-2.96137 18.00239,-8.06808 24.64624,-15.26256 6.591,-7.0616 11.47429,-15.58985 14.9809,-24.55533 2.99806,-7.68937 4.73878,-15.77648 6.72293,-23.76484 1.99725,3.77733 5.43159,6.80775 9.44633,8.27997 3.49131,1.30264 7.37103,0.58644 10.74703,-0.72919 5.37772,-2.19948 9.90134,-5.968 14.29549,-9.68043 0.91496,-0.78131 1.81534,-1.57921 2.72013,-2.3723 1.49867,5.22636 5.12857,9.96838 10.18626,12.15583 4.01348,1.78934 8.65214,1.65484 12.76836,0.28615 2.67979,-0.85223 5.19195,-2.15763 7.57859,-3.63143 2.36933,3.128 6.22026,5.09232 10.16211,5.00781 4.57425,0.0285 8.92762,-1.67969 13.0537,-3.4862 6.06956,-2.80431 11.49669,-6.81765 16.47364,-11.24622 0.9386,4.98968 3.83752,9.85042 8.47754,12.17917 3.40297,1.75044 7.40484,1.87602 11.08728,1.07381 5.06726,-1.03876 9.69425,-3.57208 13.8844,-6.53228 2.77781,4.371 7.51329,7.72647 12.79137,7.97208 3.84535,0.23432 7.69563,-0.41627 11.41371,-1.35099 9.29841,-2.53103 17.48862,-8.24049 23.92344,-15.31862 5.61595,-5.98416 10.18886,-13.23071 11.82801,-21.36095 1.55575,-7.38066 0.82588,-15.44577 -2.99705,-22.0448 -1.55308,-2.61847 -3.65807,-4.92671 -6.20167,-6.61156 -0.45365,-3.90462 -2.8647,-7.718961 -6.61738,-9.175016 -4.47079,-1.910026 -9.80108,-1.463709 -14.03887,0.844934 -1.83378,1.044617 -3.43234,2.449025 -4.95703,3.892582 -1.30958,0.13022 -2.64497,0.17814 -3.87305,0.71093 -4.216,1.56664 -7.49328,5.40427 -8.47851,9.77735 -0.26232,1.38831 -0.19658,2.97158 -1.25869,4.05059 -4.85202,6.43685 -9.16441,13.37706 -11.93858,20.97675 -2.43726,2.58181 -4.93289,5.12874 -7.68359,7.38086 0.86982,-7.91264 2.65517,-15.79926 4.69798,-23.56198 2.04759,-7.70392 4.68346,-15.2895 7.7293,-22.722529 2.35641,-5.820643 4.99778,-11.592934 7.6023,-17.353914 1.56297,-3.511983 3.18322,-7.280217 2.64998,-11.216135 -0.32614,-2.898428 -1.8951,-5.477968 -3.828,-7.596613 -2.5615,-2.981709 -6.26995,-5.28045 -10.31601,-5.12063 -0.0822,4.96e-4 -0.16432,9.93e-4 -0.24649,0.0015 z m -436.11523,8.875 c -4.27255,0.03039 -8.30117,2.537208 -10.5283,6.133038 -4.64178,6.341665 -9.18673,12.756929 -13.95388,19.005265 -1.75901,2.663649 -2.94273,6.04979 -1.98853,9.221072 0.20137,0.596747 0.47405,1.170055 0.82227,1.695317 -4.32849,3.01591 -7.92379,6.9557 -11.19475,11.06243 -5.3961,7.03582 -9.34292,15.10645 -12.0865,23.51764 -5.41817,4.43831 -11.17693,8.66459 -17.76003,11.19867 -1.90491,0.6792 -3.92637,1.19987 -5.94895,1.20172 -0.7558,-0.60317 -0.7547,-1.7385 -0.82088,-2.6332 0.13564,-5.22123 2.01064,-10.26552 4.58626,-14.75819 1.39374,-2.37411 2.98644,-4.64524 4.85962,-6.6672 1.75028,2.7487 5.086,4.2257 8.29792,4.00506 5.6748,-0.26277 10.83718,-4.05871 13.38953,-9.03825 2.05936,-3.95805 2.34554,-8.95339 0.14067,-12.91603 -2.42225,-4.44283 -7.35358,-7.117876 -12.31571,-7.484125 -6.15404,-0.566315 -12.2591,1.37472 -17.68388,4.146925 -7.75157,3.97547 -14.45423,9.92618 -19.43596,17.06376 0.1563,-4.689 -1.3371,-9.63781 -4.88635,-12.85671 -2.48114,-2.33441 -5.7276,-3.83547 -9.10974,-4.23313 -2.65995,-4.005432 -7.89794,-5.738518 -12.52497,-4.892981 -5.34942,0.858048 -9.85843,4.210051 -13.74126,7.801491 -8.47357,7.83196 -14.43289,18.07722 -18.25779,28.89183 -1.62152,4.76068 -2.81394,9.73233 -2.9246,14.77896 -0.006,1.11899 0.0504,2.23889 0.18104,3.35039 -2.1658,-2.15754 -3.87981,-4.71442 -5.73756,-7.13089 -3.549,-4.85023 -6.92856,-9.82979 -10.00853,-14.99216 6.46738,-3.53125 12.82804,-7.70952 17.32292,-13.65868 2.70442,-3.6841 4.21876,-8.31285 3.76424,-12.89778 -0.23494,-5.02137 -2.48123,-9.92816 -6.22779,-13.299008 -5.36921,-5.144853 -12.69945,-7.868499 -20.02929,-8.513671 -2.26293,-3.539964 -6.25628,-5.643768 -10.29175,-6.469498 -3.52403,-0.751358 -7.51196,-0.286516 -10.32068,2.132581 -1.86703,1.488201 -3.21652,3.514119 -4.30164,5.616214 -6.50327,0.842561 -13.150402,2.39454 -18.607184,6.201484 -3.389151,2.489708 -5.751768,6.782022 -5.017622,11.053961 0.73851,4.381307 3.913397,8.154717 7.872857,10.049237 1.843901,0.77199 3.882556,1.06468 5.86914,0.84376 -0.988322,2.70895 -1.970925,5.42564 -3.089843,8.08203 -3.338612,1.3684 -5.816774,4.65991 -6.06836,8.28125 -0.301382,2.47366 0.342527,4.92732 0.54862,7.3691 -0.745037,2.19256 -1.547264,4.36791 -2.329708,6.54957 -0.884138,2.43534 -1.809737,4.85524 -2.720865,7.28055 -3.218248,0.78268 -6.61413,2.2048 -8.408203,5.15039 -1.928067,3.36929 -1.276853,7.66439 0.714844,10.85156 2.928356,4.98066 8.61108,7.94664 14.30664,8.18945 3.078303,0.20005 6.250755,-0.33269 8.976564,-1.8164 4.91557,-0.15459 10.01394,-0.54517 14.48407,-2.77784 2.63064,-1.37668 5.19146,-3.35967 6.32969,-6.19104 1.22438,-2.94675 -0.0982,-6.48203 -2.63993,-8.28112 -2.32021,-1.62531 -5.07478,-2.4701 -7.78516,-3.19336 0.96295,-2.68398 2.03594,-5.45238 3.07813,-8.01954 4.98218,7.45161 9.66246,15.21294 16.00463,21.62233 4.3399,4.50534 9.56973,8.5046 15.76764,9.94989 4.44055,1.07966 9.23231,0.69392 13.39764,-1.21331 2.25182,-0.95052 4.3803,-2.1822 6.3672,-3.60305 4.11837,2.22691 8.94437,2.91433 13.5664,2.40625 6.86117,-0.50402 13.71948,-2.41376 20.0625,-5.18945 3.29612,-1.45427 6.49724,-3.12119 9.58399,-4.97852 2.69047,4.811 7.47124,8.37994 12.85714,9.56772 6.64779,1.6021 13.61159,0.36561 19.99652,-1.75688 6.00982,-2.00024 11.65365,-5.10334 16.8729,-8.59404 3.09745,5.99612 9.14575,10.54326 15.93314,11.23117 4.73629,0.53686 9.51084,-0.23173 14.12907,-1.25654 7.49048,-1.78288 14.5615,-5.0573 21.07255,-9.12893 1.34097,3.91997 4.1094,7.6451 8.13253,9.05531 3.00272,1.02556 6.38959,0.39146 9.00166,-1.3453 3.84587,-2.37331 6.42801,-6.18623 9.29529,-9.57568 2.37502,-2.92457 4.72736,-5.86678 7.06857,-8.81792 -0.80214,4.72681 -0.83407,9.80956 1.19141,14.24805 1.454,3.17448 4.59299,5.68562 8.16263,5.80022 4.16932,0.20556 8.01317,-2.02072 11.0565,-4.6807 4.22547,-3.7387 7.8642,-8.07217 11.65991,-12.23137 0.98117,-1.10202 1.96529,-2.20123 2.94322,-3.30417 0.14631,5.37038 1.38731,10.98851 4.88117,15.21516 2.54167,3.13609 6.24825,5.25433 10.22757,5.90841 5.2438,0.94273 10.64488,-0.45704 15.26806,-2.95084 7.7994,-4.05366 14.12037,-10.41056 19.54171,-17.22941 3.96967,-5.07451 7.50766,-10.50982 10.36232,-16.28866 1.49863,-3.19893 2.36607,-7.03756 0.92425,-10.41442 -1.56953,-3.55718 -6.22209,-5.46931 -9.76195,-3.70052 -3.12492,1.27465 -4.84403,4.34146 -6.96308,6.77097 -3.09286,3.75817 -6.20598,7.50966 -9.53474,10.994 -2.81822,2.87119 -5.68722,5.7576 -9.04597,8.00025 -0.66955,0.65669 -0.63678,0.0138 -0.5453,-0.58736 0.5851,-6.07598 1.85597,-12.14382 4.26603,-17.77153 0.74501,-1.58445 1.40456,-3.25958 2.52056,-4.62378 1.86361,-1.97211 4.29532,-3.57885 5.27604,-6.22731 1.84671,-4.17435 0.60167,-9.1563 -2.14121,-12.63647 -2.70853,-3.52374 -7.10661,-6.027285 -11.63679,-5.661612 -3.81565,0.312031 -7.06742,2.635742 -9.82319,5.120452 -2.83327,2.64096 -5.32508,5.61753 -8.01785,8.39666 -1.13436,1.22151 -2.26873,2.44302 -3.4031,3.66453 1.36367,-4.78047 0.79153,-10.37698 -2.50678,-14.26013 -2.73274,-3.363348 -7.43155,-5.364912 -11.7024,-4.084584 -4.58857,1.263464 -8.12248,4.640674 -11.59641,7.707944 -3.63058,3.35021 -7.0848,6.88794 -10.45808,10.49614 1.89448,-4.04931 1.09416,-9.01065 -1.52682,-12.54953 -2.35567,-2.9496 -5.2407,-5.677034 -8.8306,-7.022732 -3.35583,-1.321181 -7.43656,-0.889883 -10.2207,1.486328 -3.7878,3.173534 -5.89298,7.769774 -7.84076,12.194834 -0.22371,0.53425 -0.45145,1.06687 -0.67291,1.60204 -1.72401,-5.55111 -6.9309,-9.70031 -12.6595,-10.42286 -0.58281,-0.6901 -1.14631,-1.48968 -1.85613,-2.100577 6.1709,-3.88437 11.677,-8.705519 17.14456,-13.500353 2.03837,-1.789288 3.83296,-3.992605 4.52662,-6.664059 1.0045,-3.543013 -0.19116,-7.490237 -2.77424,-10.067 -3.13418,-3.350497 -7.77286,-5.168447 -12.34225,-5.002963 z m 4.61523,70.375032 c -1.42599,1.12796 -2.89015,2.20708 -4.38476,3.24219 2.25009,-2.27435 4.16893,-4.88301 5.62695,-7.73243 -0.41406,1.49675 -0.82813,2.99349 -1.24219,4.49024 z"
       sodipodi:nodetypes="scccccccccccccccccccccccccccccccccccccccccccccccccccccccccccccccccccccccccccccccccccccccccccccccccccccccccccccccsscccccccccccccccccccccccccccccccccccccccccccccccccccccccccccccccccccccccccccccccccccccccccccccccccccccccccccccccc" />
    <g
       id="g17677"
       inkscape:label="Recem"
       style="display:inline;fill:#f4c401;fill-opacity:1">
      <path
         d="m 261.35594,148.9315 c 0,10.8358 7.47385,17.02771 15.11376,17.02771 19.43197,0 40.19262,-14.61977 51.48643,-29.58349 2.15911,-2.92396 2.98955,-6.01994 2.15911,-7.5679 -0.66434,-1.20396 -2.3252,-1.37596 -3.98604,0.516 -16.94072,17.71569 -32.22053,23.39161 -42.18565,23.39161 -4.8165,0 -7.47385,-2.57996 -7.47385,-6.3639 0,-2.40795 0.49825,-3.95594 1.32867,-5.67587 0.49825,-1.20397 0.99652,-1.37599 2.15912,-0.86001 1.49477,0.68798 3.32169,1.37598 5.14864,1.37598 8.9686,0 14.78158,-4.47192 18.26937,-8.08389 3.3217,-3.78392 6.31123,-8.77184 6.31123,-14.96373 0,-6.53588 -3.98603,-10.31981 -9.63291,-10.6638 -1.16261,-0.17203 -1.99304,-0.86001 -2.49128,-1.54798 -0.99655,-2.06397 -2.65738,-3.43995 -5.813,-3.43995 -6.97557,0 -15.61201,10.31983 -18.93371,15.13573 -7.30775,10.83582 -11.45989,23.56362 -11.45989,31.30349 z m 22.42152,-17.71571 c -2.15912,0 -2.49129,-0.516 -1.82694,-2.57996 1.99303,-5.33191 7.47383,-13.75976 10.79552,-13.75976 2.15912,0 3.81995,1.37599 3.81995,3.78394 0,4.81591 -7.6399,12.55578 -12.78853,12.55578 z m 2.15911,-34.915397 c 0,1.719952 2.15908,2.063953 4.15211,1.547972 3.98606,-1.03199 10.96164,-5.159907 23.7502,-16.68371 2.49128,-2.235966 3.15563,-4.815913 1.49476,-7.051881 -1.82692,-2.235965 -4.48429,-3.783934 -7.97209,-3.783934 -3.65386,0 -4.98255,1.719966 -6.97558,4.643917 -6.31124,8.599849 -9.96512,13.931765 -12.95464,17.543705 -0.83043,1.203976 -1.49476,2.92394 -1.49476,3.783931 z"
         id="path28620"
         style="font-size:150px;line-height:1.25;font-family:'Caflisch Script';-inkscape-font-specification:'Caflisch Script';letter-spacing:-3.62551px;display:inline;fill:#f4c401;fill-opacity:1;stroke-width:1.875" />
      <path
         d="m 153.27313,105.28274 c 0,-2.38 -0.17,-4.93 -1.7,-7.650003 -3.23,-5.44 -11.22,-10.2 -21.59,-10.37 -1.36,0 -1.53,-0.17 -1.53,-0.85 0,-1.7 -1.36,-3.06 -3.06,-4.08 -1.87,-1.19 -4.08,-1.7 -6.12,-1.7 -3.23,0 -4.76,2.72 -6.12,5.27 -0.85,1.7 -1.19,2.38 -2.55,2.55 -6.8,0.68 -12.750003,2.21 -16.830003,4.76 -1.87,1.19 -4.25,3.57 -3.23,6.63 0.51,1.530003 1.36,2.550003 2.72,3.740003 1.36,1.36 3.4,1.53 5.1,1.19 1.02,-0.34 2.550003,-1.53 3.230003,-2.55 1.36,-1.87 3.4,-3.060003 5.95,-3.230003 1.02,0 1.19,0.51 0.34,2.720003 -4.08,11.05 -5.44,15.3 -7.31,19.72 -0.680003,1.36 -1.190003,2.21 -2.550003,2.72 -1.02,0.51 -2.55,1.19 -2.89,2.89 -0.51,1.7 0.17,5.1 0.34,5.78 0,0.34 0.34,1.87 0,3.06 -1.36,4.08 -3.4,9.52 -5.44,14.96 -0.68,2.04 -1.19,2.72 -2.55,3.06 -2.72,0.51 -4.42,1.19 -5.61,2.04 -1.19,0.85 -1.19,2.72 -0.34,4.59 2.21,4.42 6.46,6.12 11.05,6.12 1.87,0 3.57,-0.51 4.42,-1.02 1.02,-0.68 1.7,-0.85 2.72,-0.85 5.780003,0 10.880003,-1.02 13.260003,-2.72 2.21,-1.7 2.89,-2.55 2.04,-3.4 -1.02,-1.19 -5.61,-2.55 -10.37,-3.57 -1.87,-0.34 -2.04,-0.68 -1.36,-2.38 1.53,-4.59 4.25,-11.73 6.46,-16.83 0.85,-1.87 1.7,-2.21 2.89,-2.21 1.19,0 2.21,0.34 3.4,1.7 1.36,1.53 9.52,14.79 13.77,19.89 8.16,9.69 13.94,13.26 21.08,13.26 4.93,0 12.58,-4.76 14.79,-8.16 1.36,-2.21 0.68,-4.08 -1.19,-2.72 -2.21,1.36 -5.44,2.21 -7.31,2.21 -1.53,0 -4.25,-0.51 -7.82,-3.91 -3.74,-3.91 -13.94,-18.19 -18.02,-26.01 -1.02,-1.87 -1.19,-2.72 1.19,-3.91 7.48,-3.91 20.74,-11.39 20.74,-20.74 z m -15.13,0.51 c 0,2.55 -4.42,7.99 -11.56,11.56 -4.76,2.38 -9.01,3.74 -10.03,3.74 -0.85,0 -0.51,-1.36 -0.17,-2.38 1.53,-4.59 4.93,-13.94 7.48,-18.870003 0.85,-1.87 1.36,-2.21 2.89,-2.21 5.44,0 11.39,3.060003 11.39,8.160003 z"
         id="path17679"
         style="font-size:170px;line-height:1.25;font-family:'Caflisch Script';-inkscape-font-specification:'Caflisch Script';letter-spacing:-3.6075px;fill:#f4c401;fill-opacity:1;stroke-width:1.875" />
      <path
         d="m 159.6955,148.80274 c 0,10.71 7.65,16.83 15.47,16.83 19.89,0 41.14,-14.45 52.7,-29.24 2.21,-2.89 3.06,-5.95 2.21,-7.48 -0.68,-1.19 -2.38,-1.36 -4.08,0.51 -17.34,17.51 -32.98,23.12 -43.18,23.12 -4.93,0 -7.65,-2.55 -7.65,-6.29 0,-2.38 0.51,-3.91 1.36,-5.61 0.51,-1.19 1.02,-1.36 2.21,-0.85 1.53,0.68 3.4,1.36 5.27,1.36 9.18,0 15.13,-4.42 18.7,-7.99 3.4,-3.74 6.46,-8.67 6.46,-14.79 0,-6.46 -4.08,-10.2 -9.86,-10.54 -1.19,-0.17 -2.04,-0.85 -2.55,-1.53 -1.02,-2.04 -2.72,-3.4 -5.95,-3.4 -7.14,0 -15.98,10.2 -19.38,14.96 -7.48,10.71 -11.73,23.29 -11.73,30.94 z m 22.95,-17.51 c -2.21,0 -2.55,-0.51 -1.87,-2.55 2.04,-5.27 7.65,-13.6 11.05,-13.6 2.21,0 3.91,1.36 3.91,3.74 0,4.76 -7.82,12.41 -13.09,12.41 z"
         id="path17681"
         style="font-size:170px;line-height:1.25;font-family:'Caflisch Script';-inkscape-font-specification:'Caflisch Script';letter-spacing:-3.6075px;fill:#f4c401;fill-opacity:1;stroke-width:1.875" />
      <path
         d="m 250.2678,103.75274 c -9.01,0 -19.72,6.46 -26.69,14.28 -8.33,9.35 -12.41,22.1 -12.41,29.75 0,13.43 7.99,17.85 16.15,17.85 15.98,0 35.53,-13.43 47.77,-29.24 2.21,-2.89 3.06,-5.95 2.21,-7.48 -0.68,-1.19 -2.38,-1.36 -4.25,0.34 -11.39,11.22 -26.86,24.14 -38.93,24.14 -3.74,0 -6.8,-3.4 -6.8,-8.5 0,-4.76 1.36,-12.07 7.14,-20.74 4.76,-7.14 9.52,-9.69 11.22,-9.69 1.02,0 1.87,0.85 1.7,3.06 -0.17,1.7 0.34,2.89 1.36,3.4 0.85,0.51 2.89,0.68 5.1,-0.34 3.23,-1.53 6.29,-4.76 6.29,-9.35 0,-3.57 -3.4,-7.48 -9.86,-7.48 z"
         id="path17683"
         style="font-size:170px;line-height:1.25;font-family:'Caflisch Script';-inkscape-font-specification:'Caflisch Script';letter-spacing:-3.6075px;fill:#f4c401;fill-opacity:1;stroke-width:1.875" />
      <path
         d="m 368.68269,103.75274 c -1.7,0 -4.42,1.36 -7.31,3.91 -2.89,2.38 -4.93,4.25 -10.2,9.69 -6.29,6.46 -11.05,12.07 -18.19,20.06 -2.55,2.89 -3.57,1.7 -2.04,-3.06 2.21,-7.31 5.1,-15.3 7.14,-19.72 2.21,-4.59 -0.51,-7.82 -4.08,-10.71 -1.7,-1.36 -3.23,-1.87 -4.76,-1.87 -4.59,0 -9.18,12.58 -10.54,16.66 -0.68,2.21 0.51,3.23 1.19,3.23 0.85,0 1.02,0.85 0.51,2.55 -3.06,11.56 -5.61,19.55 -6.29,24.65 -1.36,11.56 3.57,15.81 6.12,15.81 1.7,0 3.57,-0.85 6.63,-4.25 3.23,-3.57 20.06,-25.16 22.61,-28.05 1.87,-2.21 3.74,-3.23 4.42,-2.89 0.85,0.51 0.51,2.04 -0.17,3.74 -1.7,4.93 -3.23,10.03 -4.42,14.79 -2.38,9.01 -0.85,16.49 3.23,16.49 2.38,0 4.93,-1.53 8.33,-4.76 3.74,-3.57 18.53,-20.4 22.61,-25.16 1.87,-2.21 2.72,-2.04 2.04,0.34 -0.51,1.87 -1.19,6.12 -1.53,9.01 -1.7,14.96 3.74,21.76 12.41,21.76 8.33,0 22.44,-9.01 34.68,-30.43 2.55,-4.42 3.06,-7.31 2.21,-8.5 -0.68,-1.02 -2.04,-0.85 -3.57,1.02 -15.47,19.55 -23.63,25.84 -28.39,25.84 -4.08,0 -4.93,-4.59 -3.91,-11.39 1.36,-9.69 4.08,-16.15 5.78,-19.38 1.53,-3.06 3.23,-4.42 4.42,-5.44 1.53,-1.36 2.38,-2.38 2.38,-4.42 0,-3.74 -3.91,-7.99 -7.82,-7.99 -2.04,0 -4.76,1.7 -7.48,4.42 -3.23,3.23 -20.74,22.44 -26.01,27.71 -1.02,0.85 -1.87,1.53 -2.72,1.19 -0.68,-0.34 -0.34,-1.7 0.68,-4.25 1.87,-4.93 5.95,-14.28 7.14,-17.68 3.4,-9.52 -2.72,-12.92 -5.1,-12.92 z"
         id="path17687"
         style="font-size:170px;line-height:1.25;font-family:'Caflisch Script';-inkscape-font-specification:'Caflisch Script';letter-spacing:-3.6075px;fill:#f4c401;fill-opacity:1;stroke-width:1.875" />
    </g>
    <g
       id="g17717"
       inkscape:label="Jogados"
       style="display:inline;fill:#f4c401;fill-opacity:1">
      <path
         d="m 494.06636,82.696655 c -2.55,0 -3.91,1.19 -5.27,2.38 -2.04,2.04 -2.89,2.55 -5.44,2.89 -2.89,0.51 -5.1,0.85 -6.8,1.7 -1.53,0.68 -3.06,1.87 -3.06,3.91 0,2.89 3.57,5.61 7.48,6.29 1.19,0.170005 1.36,0.510005 1.19,1.530005 -8.84,31.96 -12.75,45.22 -18.7,61.54 -2.55,6.97 -4.93,11.9 -8.16,15.64 -2.89,2.72 -5.44,3.91 -7.14,3.91 -1.7,0 -3.23,-0.68 -4.42,-1.36 -1.53,-0.85 -6.12,-2.55 -8.84,-2.55 -2.89,0 -6.8,2.38 -6.8,5.1 0,2.55 2.21,6.12 4.42,7.31 3.57,1.87 7.99,3.4 11.22,3.4 2.04,0 4.42,-0.85 6.8,-1.53 1.87,-0.51 4.59,-1.7 6.8,-2.55 1.7,-0.85 7.48,-3.74 12.75,-9.69 6.12,-6.8 11.9,-22.1 17.51,-42.67 8.16,-29.75 9.01,-33.15 10.88,-37.91 0.85,-2.380005 2.38,-4.930005 3.4,-6.120005 1.19,-1.19 2.55,-3.23 1.53,-5.95 -1.02,-2.89 -5.61,-5.27 -9.35,-5.27 z"
         id="path17730"
         style="font-size:170px;line-height:1.25;font-family:'Caflisch Script';-inkscape-font-specification:'Caflisch Script';letter-spacing:-3.6075px;fill:#f4c401;fill-opacity:1;stroke-width:1.875" />
      <path
         d="m 494.87864,151.03666 c 0,7.99 5.1,14.28 11.22,14.28 12.24,0 23.29,-6.8 31.45,-16.49 6.97,-7.82 9.52,-15.98 9.52,-22.78 0,-6.63 -2.38,-14.11 -8.5,-17.17 -1.19,-0.51 -1.36,-1.02 -1.36,-2.04 0,-2.38 -0.34,-6.63 -6.8,-6.63 -2.89,0 -5.44,1.02 -7.82,3.4 -1.7,1.7 -2.89,2.55 -5.1,2.55 -1.87,0 -3.23,0.85 -4.42,2.04 -1.19,1.36 -2.04,2.55 -2.21,4.59 -0.17,3.06 -1.53,4.59 -2.89,6.46 -2.04,2.55 -6.46,9.18 -9.01,14.96 -3.06,7.48 -4.08,12.24 -4.08,16.83 z m 15.98,-2.89 c 0,-7.14 6.8,-20.91 14.45,-29.92 1.02,-1.36 2.72,-2.89 3.91,-2.89 3.06,0 4.25,4.76 4.25,9.01 0,5.95 -5.78,19.04 -10.71,24.48 -3.23,3.57 -6.12,4.93 -8.33,4.93 -1.53,0 -3.57,-2.04 -3.57,-5.61 z"
         id="path17732"
         style="font-size:170px;line-height:1.25;font-family:'Caflisch Script';-inkscape-font-specification:'Caflisch Script';letter-spacing:-3.6075px;fill:#f4c401;fill-opacity:1;stroke-width:1.875" />
      <path
         d="m 596.75636,102.75666 c -3.74,0 -10.71,2.04 -15.47,4.76 -5.78,3.4 -15.13,9.52 -22.95,19.72 -7.82,10.2 -11.39,20.4 -11.39,27.03 0,4.76 3.4,10.37 7.48,10.37 4.76,0 12.07,-3.74 15.64,-5.95 5.78,-3.57 10.71,-7.82 12.75,-9.52 1.02,-0.85 1.7,-1.02 1.53,0.34 -0.34,2.38 -0.85,7.14 -2.72,14.62 -2.72,11.05 -5.95,22.61 -12.92,32.47 -7.65,10.88 -14.45,13.94 -19.38,13.94 -3.06,0 -5.78,-1.87 -8.16,-3.74 -2.21,-1.87 -5.27,-3.74 -7.82,-3.74 -3.57,0 -10.2,4.76 -10.2,8.84 0,4.59 7.65,7.65 11.56,7.65 2.72,0 3.91,0.34 5.61,0.85 1.87,0.51 4.93,0.68 7.31,0.68 4.42,0 15.3,-4.08 22.44,-9.69 8.16,-6.29 17.85,-18.7 22.95,-38.93 1.87,-7.31 6.46,-25.16 9.52,-43.18 0.34,-1.7 0.68,-4.08 -0.17,-4.93 -0.51,-0.34 -0.17,-1.02 1.19,-1.87 2.89,-2.04 5.1,-5.44 5.1,-9.01 0,-3.74 -2.72,-10.71 -11.9,-10.71 z m -33.15,43.18 c 0,-4.42 4.59,-13.26 8.16,-17.85 6.12,-7.82 13.77,-12.07 20.74,-12.07 3.57,0 5.78,2.04 5.78,3.23 0,0.68 -0.51,1.53 -0.85,1.87 -0.68,0.51 -1.53,0.68 -2.21,0.85 -1.87,0.51 -3.91,1.87 -5.78,4.59 -1.02,1.53 -3.23,5.44 -9.01,11.05 -2.38,2.55 -10.88,11.05 -14.96,11.05 -1.19,0 -1.87,-1.19 -1.87,-2.72 z"
         id="path17719"
         style="font-size:170px;line-height:1.25;font-family:'Caflisch Script';-inkscape-font-specification:'Caflisch Script';letter-spacing:-3.6075px;fill:#f4c401;fill-opacity:1;stroke-width:1.875" />
      <path
         d="m 649.75887,103.09666 c -1.87,0 -9.18,0.68 -18.53,8.84 -7.14,6.46 -14.28,14.79 -18.7,23.8 -5.44,10.37 -6.46,15.81 -6.46,19.21 0,6.46 6.63,10.03 8.67,10.03 3.57,0 7.14,-1.53 11.73,-4.93 4.76,-3.4 13.77,-11.56 15.81,-13.94 1.02,-1.02 1.36,-1.02 1.53,0.51 0,1.87 0,3.4 0.34,5.95 0.68,6.97 5.27,12.41 11.56,12.41 10.71,0 27.2,-15.98 34.68,-30.77 1.53,-3.23 2.38,-6.29 1.53,-7.82 -0.68,-1.19 -2.38,-1.36 -4.25,0.34 -10.71,14.79 -22.27,25.16 -26.18,25.16 -2.55,0 -4.25,-2.38 -4.25,-8.33 0,-10.2 3.06,-20.74 7.48,-30.77 0.51,-1.53 1.36,-3.57 -3.4,-6.29 -1.53,-1.02 -2.72,-0.68 -4.08,0.51 -1.02,0.68 -1.87,0.68 -2.21,-0.34 -1.02,-1.36 -2.89,-3.57 -5.27,-3.57 z m -6.29,12.75 c 2.21,0 3.57,2.04 4.08,3.57 0.51,1.7 0,3.91 -1.02,5.61 -0.68,1.19 -3.4,5.95 -5.78,8.67 -5.1,5.95 -7.48,9.18 -10.37,11.56 -2.55,2.21 -5.1,3.91 -6.46,3.91 -1.36,0 -1.7,-2.38 -1.19,-4.59 1.02,-4.59 5.78,-14.11 11.56,-20.91 4.93,-5.78 7.65,-7.82 9.18,-7.82 z"
         id="path17721"
         style="font-size:170px;line-height:1.25;font-family:'Caflisch Script';-inkscape-font-specification:'Caflisch Script';letter-spacing:-3.6075px;fill:#f4c401;fill-opacity:1;stroke-width:1.875" />
      <path
         d="m 716.87157,105.47666 c -9.35,0 -18.53,3.91 -27.71,13.94 -12.75,13.94 -17,27.54 -17,34.85 0,8.5 3.91,11.05 7.65,11.05 3.74,0 10.54,-2.21 18.02,-7.31 4.25,-2.89 12.41,-10.03 16.49,-15.13 0.85,-1.19 1.53,-1.02 1.36,0.34 -0.34,2.04 -0.68,4.25 -0.85,7.99 -0.34,5.95 2.55,13.09 9.52,13.09 13.26,0 30.26,-18.7 35.53,-29.58 1.53,-3.23 2.38,-6.29 1.53,-7.82 -1.02,-1.7 -3.06,-1.36 -5.1,1.53 -3.23,4.76 -19.21,22.95 -24.48,22.95 -2.55,0 -3.74,-3.06 -3.23,-8.5 0.68,-8.5 4.42,-25.67 9.35,-39.27 5.61,-15.300005 9.86,-23.290005 12.24,-29.070005 1.7,-4.25 1.7,-6.46 -0.68,-9.35 -2.72,-3.23 -4.42,-3.74 -6.29,-3.74 -1.19,0 -2.38,0.68 -3.74,3.57 -2.04,4.25 -9.69,22.44 -16.83,40.120005 -0.34,1.02 -0.68,1.02 -1.53,0.85 -1.36,-0.34 -2.72,-0.51 -4.25,-0.51 z m -3.4,9.86 c 1.36,0 2.55,0.85 3.06,1.87 0.68,1.19 0.85,2.55 -0.17,4.76 -1.02,2.55 -8.5,14.62 -14.28,20.4 -5.44,5.27 -9.52,7.48 -11.56,7.48 -1.19,0 -2.21,-1.19 -2.21,-2.89 0,-2.55 0.85,-6.29 8.16,-16.49 6.46,-9.18 13.94,-15.13 17,-15.13 z"
         id="path17723"
         style="font-size:170px;line-height:1.25;font-family:'Caflisch Script';-inkscape-font-specification:'Caflisch Script';letter-spacing:-3.6075px;fill:#f4c401;fill-opacity:1;stroke-width:1.875" />
      <path
         d="m 745.22436,151.03666 c 0,7.99 5.1,14.28 11.22,14.28 12.24,0 23.29,-6.8 31.45,-16.49 6.97,-7.82 9.52,-15.98 9.52,-22.78 0,-6.63 -2.38,-14.11 -8.5,-17.17 -1.19,-0.51 -1.36,-1.02 -1.36,-2.04 0,-2.38 -0.34,-6.63 -6.8,-6.63 -2.89,0 -5.44,1.02 -7.82,3.4 -1.7,1.7 -2.89,2.55 -5.1,2.55 -1.87,0 -3.23,0.85 -4.42,2.04 -1.19,1.36 -2.04,2.55 -2.21,4.59 -0.17,3.06 -1.53,4.59 -2.89,6.46 -2.04,2.55 -6.46,9.18 -9.01,14.96 -3.06,7.48 -4.08,12.24 -4.08,16.83 z m 15.98,-2.89 c 0,-7.14 6.8,-20.91 14.45,-29.92 1.02,-1.36 2.72,-2.89 3.91,-2.89 3.06,0 4.25,4.76 4.25,9.01 0,5.95 -5.78,19.04 -10.71,24.48 -3.23,3.57 -6.12,4.93 -8.33,4.93 -1.53,0 -3.57,-2.04 -3.57,-5.61 z"
         id="path17725"
         style="font-size:170px;line-height:1.25;font-family:'Caflisch Script';-inkscape-font-specification:'Caflisch Script';letter-spacing:-3.6075px;fill:#f4c401;fill-opacity:1;stroke-width:1.875" />
    </g>
  </g>
</svg>
