<?xml version="1.0" encoding="UTF-8" standalone="no"?>
<!-- Created with Inkscape (http://www.inkscape.org/) -->

<svg
   width="874.59833"
   height="152"
   viewBox="0 0 231.40123 40.21616"
   version="1.1"
   id="svg9136"
   inkscape:version="1.1.2 (0a00cf5339, 2022-02-04, custom)"
   sodipodi:docname="auto-lastplayed-fr.svg"
   xmlns:inkscape="http://www.inkscape.org/namespaces/inkscape"
   xmlns:sodipodi="http://sodipodi.sourceforge.net/DTD/sodipodi-0.dtd"
   xmlns:xlink="http://www.w3.org/1999/xlink"
   xmlns="http://www.w3.org/2000/svg"
   xmlns:svg="http://www.w3.org/2000/svg"
   xmlns:rdf="http://www.w3.org/1999/02/22-rdf-syntax-ns#"
   xmlns:cc="http://creativecommons.org/ns#"
   xmlns:dc="http://purl.org/dc/elements/1.1/">
  <defs
     id="defs9130">
    <linearGradient
       inkscape:collect="always"
       id="linearGradient853">
      <stop
         style="stop-color:#000000;stop-opacity:1;"
         offset="0"
         id="stop849" />
      <stop
         style="stop-color:#000000;stop-opacity:0;"
         offset="1"
         id="stop851" />
    </linearGradient>
    <radialGradient
       inkscape:collect="always"
       xlink:href="#linearGradient853"
       id="radialGradient857"
       cx="60.35236"
       cy="253.12825"
       fx="60.35236"
       fy="253.12825"
       r="52.697178"
       gradientTransform="matrix(1,0,0,0.19039974,0,204.9327)"
       gradientUnits="userSpaceOnUse" />
  </defs>
  <sodipodi:namedview
     id="base"
     pagecolor="#ffffff"
     bordercolor="#666666"
     borderopacity="1.0"
     inkscape:pageopacity="0.0"
     inkscape:pageshadow="2"
     inkscape:zoom="0.98994949"
     inkscape:cx="71.720831"
     inkscape:cy="14.647212"
     inkscape:document-units="px"
     inkscape:current-layer="layer2"
     showgrid="false"
     units="px"
     inkscape:window-width="1366"
     inkscape:window-height="703"
     inkscape:window-x="0"
     inkscape:window-y="0"
     inkscape:window-maximized="1"
     fit-margin-top="0"
     fit-margin-left="0"
     fit-margin-right="0"
     fit-margin-bottom="0"
     inkscape:snap-global="false"
     inkscape:pagecheckerboard="1"
     scale-x="0.26458" />
  <metadata
     id="metadata9133">
    <rdf:RDF>
      <cc:Work
         rdf:about="">
        <dc:format>image/svg+xml</dc:format>
        <dc:type
           rdf:resource="http://purl.org/dc/dcmitype/StillImage" />
      </cc:Work>
    </rdf:RDF>
  </metadata>
  <g
     inkscape:groupmode="layer"
     id="layer2"
     inkscape:label="LastPlayedFR"
     transform="translate(1.4512389,-4.7804576)"
     style="display:inline">
    <text
       xml:space="preserve"
       style="font-size:0.471816px;line-height:1.25;font-family:TrasksHand;-inkscape-font-specification:TrasksHand;text-decoration-color:#000000;fill:#ef00eb;stroke:#0105ff;stroke-width:0.661458;-inkscape-stroke:none;stop-color:#000000"
       x="104.59042"
       y="15.932393"
       id="text4082"
       inkscape:label="Signature"><tspan
         sodipodi:role="line"
         id="tspan4080"
         style="font-size:0.471816px;fill:#fafafa;fill-opacity:0.4;stroke:none;stroke-width:0.661458"
         x="104.59042"
         y="15.932393">John Loreth 2022</tspan></text>
    <path
       id="path51727"
       style="font-size:52.9167px;line-height:1.25;font-family:'Caflisch Script';-inkscape-font-specification:'Caflisch Script';letter-spacing:-1.279px;display:inline;fill:#333333;fill-opacity:1;stroke-width:0.661458"
       inkscape:label="Offset"
       d="m 61.751139,4.7829055 c -1.917898,0.056752 -3.253894,1.6645054 -4.180692,3.1712776 -1.22625,2.0009547 -3.083032,3.6810019 -3.753339,5.9817649 -0.03043,0.498659 0.14776,0.977715 0.242062,1.461074 -1.026144,0.819525 -1.9265,1.775995 -2.791539,2.760193 -0.274979,-1.126693 -0.616268,-2.302296 -1.535956,-3.084102 -1.289021,-1.276244 -3.502053,-1.605715 -4.964864,-0.430137 -1.249158,0.8519 -1.921096,2.248035 -2.683569,3.502048 -0.631506,-1.395608 -1.600379,-2.736979 -3.082344,-3.300463 -1.724595,-0.778255 -3.920908,-0.192069 -4.975167,1.394495 -0.444781,0.589124 -0.752156,1.263398 -1.099014,1.911193 -0.423379,-0.598998 -0.944251,-1.160172 -1.367036,-1.730998 -0.444979,-2.296103 -3.054331,-3.80103 -5.268947,-3.063695 -1.135481,0.266392 -2.030618,1.058084 -2.995959,1.663572 0.310805,-1.105242 0.742262,-2.288725 0.276269,-3.421101 -0.910384,-3.0158743 -5.184308,-4.3215574 -7.560739,-2.1968053 -0.33153,0.3815275 -0.814687,0.5754371 -1.302602,0.6669743 -0.106019,-0.1662942 -0.772677,0.247689 -1.102336,0.25251 -1.77999,0.543003 -3.179822,2.424717 -2.728846,4.317046 0.258875,1.073453 1.017616,1.933727 1.884245,2.579082 -1.728204,6.278822 -3.1571407,12.689792 -5.8313163,18.653991 -0.2172651,0.29327 -0.5156697,0.717431 -0.8282562,0.792862 -1.6301668,-0.7617 -3.6250613,-1.38466 -5.32074078,-0.446902 -1.95383782,0.888229 -2.86804512,3.514396 -1.74221491,5.380643 1.16427174,2.332826 3.92387859,3.4922 6.43461999,3.393361 2.247845,-0.159513 4.4709626,-1.252063 6.3489872,-2.565731 2.450778,-1.782691 4.096947,-4.462201 5.044647,-7.305485 0.282553,-1.135965 0.310799,0.586296 0.651906,-0.05117 1.059405,1.036347 2.526168,1.715177 4.02927,1.502292 2.844721,-0.158721 5.441133,-1.60799 7.568763,-3.424849 0.662454,1.660933 2.114428,3.196486 4.000442,3.262979 2.306088,-0.0078 4.311921,-1.519889 6.009959,-2.994174 0.435643,-0.547143 0.716071,-0.475673 0.842494,0.21096 0.466901,1.41753 1.611482,2.728383 3.177452,2.860322 2.155851,0.28732 4.170822,-0.790034 5.994547,-1.797166 0.835833,0.982269 2.096693,1.467476 3.326162,1.737964 2.690298,0.467995 5.389184,-0.439179 7.803423,-1.560336 1.684042,2.146348 4.828071,2.94851 7.32104,1.826778 2.293495,-0.986865 4.641295,-2.272114 5.696763,-4.64867 0.858303,-1.924202 0.504737,-4.19751 -0.609929,-5.942002 -0.575113,-0.999769 -1.220172,-1.956651 -1.835553,-2.931661 1.585666,-0.614179 3.292763,-0.734708 4.938742,-1.08318 0.84562,-0.307568 1.427683,-1.032884 2.117599,-1.574267 -0.34202,3.422666 -0.743728,6.880336 -1.840708,10.14915 -0.704849,2.775667 1.774403,5.627849 4.547331,5.717444 1.953601,0.146814 3.56801,-1.410477 4.242357,-3.124723 0.570069,-1.468499 1.305273,-2.858721 2.146786,-4.189353 0.335828,-0.598307 0.75319,-1.14542 1.128267,-1.719082 -0.0142,1.600097 -0.262992,3.257548 0.365703,4.785495 0.898384,2.600861 3.509869,4.501106 6.279653,4.428498 2.768687,-0.02158 5.404489,-1.051295 7.792979,-2.382299 0.49329,-0.398967 0.74929,0.481006 1.16356,0.69167 1.79397,1.607228 4.42857,2.092098 6.71075,1.378235 1.61686,-0.362046 3.11323,-1.107611 4.54394,-1.923623 1.76954,1.89675 4.58765,2.716992 7.08818,1.996292 1.73705,-0.299171 3.38048,-0.976758 4.95566,-1.749007 0.83412,1.122696 2.19784,1.998865 3.64664,1.717194 1.79085,-0.411331 2.96573,-2.00059 3.98167,-3.414495 0.33032,-0.56712 0.36327,0.672382 0.55475,0.943255 0.48659,1.631172 2.23474,2.822167 3.93658,2.402302 1.56871,-0.297983 2.6842,-1.498087 3.68903,-2.604491 0.52252,-0.585125 1.00738,-1.202255 1.50828,-1.805699 0.5194,1.644131 1.26618,3.428401 2.9098,4.229383 2.1069,1.137286 4.70352,0.477386 6.56193,-0.847494 0.48464,0.675679 1.35001,0.913735 2.12422,1.085532 1.3064,0.218663 2.57393,-0.447493 3.41372,-1.415021 0.68416,-0.673713 1.22647,-1.470311 1.80748,-2.230437 0.34278,1.314854 0.8822,2.757466 2.20971,3.365432 1.6077,0.777228 3.45649,-0.03026 4.63436,-1.203773 1.00377,-0.875399 1.80214,-1.948971 2.64159,-2.974914 0.51216,1.619729 1.23912,3.362866 2.84051,4.177485 2.34734,1.310553 5.35206,0.47864 7.25466,-1.250114 1.92572,1.721646 4.7394,2.222012 7.18684,1.481438 1.65201,-0.344959 3.1721,-0.994375 4.6933,-1.770518 1.06266,1.040377 2.68255,1.587564 4.10808,0.992624 1.30662,-0.568287 2.02314,-1.912608 2.82861,-3.012355 0.26709,-0.402761 0.52238,-0.813495 0.78489,-1.219359 -0.52537,0.684796 -0.12726,0.771189 0.56771,0.665232 -0.26472,-0.479178 -0.6212,-0.963042 -0.0958,-1.401864 0.25858,1.911608 0.70782,3.981997 2.24365,5.298561 1.64653,1.517828 4.16064,1.626035 6.14328,0.749969 0.75092,-0.304291 1.46641,-0.70271 2.10703,-1.200343 1.59014,1.440353 4.02219,1.460217 5.95645,0.77059 2.92584,-1.121836 5.94089,-2.552675 7.80572,-5.182841 1.19749,-1.295444 0.98426,-3.524564 -0.39831,-4.599735 -1.16895,-0.966099 -2.80692,-0.452895 -3.93916,0.303012 -0.55608,0.300109 -1.11817,0.59007 -1.67701,0.886396 0.34937,-1.28333 0.74113,-2.555119 1.2521,-3.784163 2.86771,-0.528892 5.93737,-0.820749 8.42703,-2.468036 1.4732,-1.161309 1.73584,-3.821319 0.0781,-4.933325 -1.43355,-0.898934 -3.20248,-0.548252 -4.78754,-0.436924 -0.64727,0.234955 -0.95593,0.109308 -0.52393,-0.498875 0.27643,-0.668672 0.69098,-1.246868 0.80851,-2.017034 0.64536,-2.534164 -1.62386,-5.2709368 -4.23689,-5.0826704 -2.36213,0.2197048 -4.2117,2.1937954 -4.88342,4.3821614 -0.39396,1.350684 -0.89662,2.715857 -1.42799,3.989654 0.0173,0.158499 -1.08208,0.329143 -1.10874,-0.121084 -0.68553,-2.151943 -3.22014,-3.621156 -5.39346,-2.791646 -1.31097,0.407936 -1.80595,1.84743 -2.97852,2.46224 -0.41761,0.33065 -0.36032,-0.678058 -0.67016,-0.913062 -1.15063,-1.640883 -3.40531,-2.588972 -5.32176,-1.77588 -1.48149,0.565612 -2.4247,1.923691 -3.13471,3.273523 -0.76466,-0.625557 -1.61857,-1.179246 -2.60172,-1.375743 -1.45923,-1.85467 -4.34312,-1.965019 -6.17404,-0.612225 -1.80166,1.090826 -3.08032,2.8076 -4.32514,4.464306 -0.21923,-1.14264 -0.3837,-2.378997 -1.2662,-3.230865 -1.25262,-1.468731 -3.59684,-1.977717 -5.22765,-0.838896 -1.06537,0.626659 -1.84847,1.597812 -2.66442,2.502458 -0.39601,-1.342473 -1.17581,-2.633845 -2.47955,-3.231712 -1.39821,-0.681883 -3.06652,-0.247485 -4.22855,0.699802 -1.01078,0.719415 -1.82145,1.669521 -2.67133,2.563257 -0.64097,-1.754885 -1.9126,-3.393958 -3.76152,-3.951342 -1.89011,-0.655287 -3.89668,0.722264 -4.583,2.472204 -0.24419,0.843151 -0.48882,0.597429 -0.73364,-0.09861 -0.99875,-1.241189 -2.71908,-1.959114 -4.27223,-1.393025 -1.55945,0.48717 -2.58695,1.834696 -3.58866,3.03695 -0.37238,-1.204902 -0.94062,-2.427596 -2.06541,-3.103351 -1.54068,-1.036323 -3.62473,-0.502203 -4.92139,0.684122 -0.86017,0.706892 -1.57382,1.568925 -2.34561,2.366987 -0.72183,-1.860928 -2.14658,-3.669412 -4.21017,-4.048279 -1.42128,-0.358026 -2.84035,0.488885 -3.57933,1.678169 -0.2562,0.452361 -0.49559,0.958268 -1.01246,0.476887 -0.63349,-0.310502 -1.34013,-0.493748 -1.79939,-1.060919 -1.74313,-1.413215 -4.37948,-1.095959 -6.05427,0.2729 -0.66426,0.491502 -1.2231,1.104684 -1.81765,1.674685 -0.88263,-1.289497 -2.15513,-2.48411 -3.79218,-2.592584 -2.4117,-0.279195 -4.77913,0.756693 -6.71712,2.113536 -0.8844,0.656386 -1.66416,1.437586 -2.46099,2.194373 -0.52239,-1.28495 -1.60638,-2.239283 -2.87514,-2.758364 -0.91392,-0.192542 -0.0985,-0.559113 0.29271,-0.881646 1.66462,-1.264304 3.37838,-2.5903 4.49442,-4.386596 0.94366,-2.1514019 -0.60732,-4.7604136 -2.80624,-5.3257322 -1.53022,-0.5652224 -3.39146,-0.421034 -4.59982,0.7607062 -1.322091,1.2074331 -2.065845,2.8805193 -3.216348,4.233781 -0.841815,1.14458 -1.768324,2.314683 -2.178844,3.68555 -0.01828,0.391328 0.249734,1.344321 -0.369943,0.822723 -1.820921,-1.130395 -4.221431,-0.696099 -5.86614,0.553948 -0.558571,0.376425 -1.062416,0.825447 -1.583015,1.251172 -0.876269,-1.226324 -2.221561,-2.428514 -3.846843,-2.182655 -2.146719,0.406786 -3.777759,2.104639 -4.714679,3.999523 -0.319959,0.89504 -0.384919,-0.282402 -0.549726,-0.648357 -0.494958,-2.223187 -2.857219,-3.480399 -5.000254,-3.517699 -3.165897,-0.131001 -6.123953,1.525829 -8.265051,3.756965 -0.402723,0.564088 -0.658049,-0.50857 -1.028959,-0.731474 -0.651342,-0.742441 -1.551561,-1.174294 -2.425364,-1.594045 1.977414,-1.515031 4.152098,-2.965715 5.437847,-5.157644 C 67.581793,8.1494412 65.953639,5.5906142 63.743838,5.0654793 63.104257,4.8495655 62.424731,4.7644485 61.751139,4.7829055 Z M 211.86383,14.665615 c 0.41738,0.361497 0.95072,0.982453 0.77504,0.01696 0.19543,-0.757734 -0.44149,-0.04914 -0.77504,-0.01696 z m -99.14752,8.729871 c 0.50933,0.30873 1.08386,0.462342 1.66308,0.576419 -0.29882,0.846061 -0.47565,1.782183 -0.86724,2.567391 -0.94786,0.701531 -2.01462,1.208692 -3.05972,1.74443 0.33722,-0.765417 0.57769,-1.559861 1.04342,-2.254922 0.37255,-0.930111 0.35779,-1.961213 0.70151,-2.903242 0.17299,0.08997 0.34597,0.179949 0.51895,0.269924 z m 88.18685,6.459025 c -0.0461,0.26154 -0.36288,1.263112 -0.53158,0.965881 -0.23665,-0.452267 -0.60901,-0.926691 -0.20539,-1.409452 0.1822,-0.972246 0.47127,0.03372 0.72717,0.425704 z" />
    <g
       id="g38984"
       inkscape:label="Joues"
       style="fill:#f4c401;fill-opacity:1;stroke-width:1.12155"
       transform="matrix(0.89162061,0,0,0.89162061,-0.15728438,0.51810308)">
      <path
         d="m 21.217817,11.502068 c -0.772229,0 -1.184084,0.380741 -1.59594,0.761481 -0.617783,0.652697 -0.875193,0.815872 -1.647421,0.924655 -0.875193,0.163175 -1.544458,0.271957 -2.059277,0.543915 -0.463338,0.217566 -0.926675,0.598306 -0.926675,1.251004 0,0.924655 1.081121,1.794918 2.265205,2.012484 0.360373,0.05439 0.411856,0.163174 0.360373,0.489523 -2.677059,10.225595 -3.861144,14.46813 -5.663011,19.689711 -0.772228,2.23005 -1.492975,3.807402 -2.4711317,5.004014 -0.8751926,0.870263 -1.6474214,1.251004 -2.1622406,1.251004 -0.5148192,0 -0.9781563,-0.217566 -1.3385298,-0.435131 -0.4633372,-0.271958 -1.8533491,-0.815873 -2.6770598,-0.815873 -0.8751925,0 -2.0592766,0.761481 -2.0592766,1.631744 0,0.815873 0.6692649,1.958093 1.3385299,2.338833 1.0811202,0.598307 2.4196501,1.08783 3.3978065,1.08783 0.6177831,0 1.3385298,-0.271957 2.0592767,-0.489523 0.5663011,-0.163175 1.3900118,-0.543915 2.0592764,-0.815873 0.51482,-0.271957 2.265205,-1.196612 3.861144,-3.100313 1.853349,-2.175658 3.603734,-7.07089 5.302638,-13.652258 2.471132,-9.518506 2.728541,-10.606336 3.294843,-12.129297 0.257409,-0.76148 0.720747,-1.577353 1.029638,-1.958093 0.360373,-0.38074 0.772228,-1.033437 0.463337,-1.903701 -0.308891,-0.924655 -1.698903,-1.686136 -2.831505,-1.686136 z"
         id="path1696"
         style="font-size:52.9167px;line-height:1.25;font-family:'Caflisch Script';-inkscape-font-specification:'Caflisch Script';letter-spacing:-1.279px;stroke-width:0.74186" />
      <path
         d="m 20.213863,33.210833 c 0,2.556399 1.544457,4.568883 3.397806,4.568883 3.706698,0 7.053022,-2.175659 9.524155,-5.275972 2.110759,-2.502008 2.882987,-5.112798 2.882987,-7.288457 0,-2.121267 -0.720747,-4.514492 -2.574096,-5.493538 -0.360374,-0.163174 -0.411856,-0.326348 -0.411856,-0.652698 0,-0.76148 -0.102963,-2.121267 -2.059276,-2.121267 -0.875192,0 -1.647422,0.326349 -2.368169,1.08783 -0.514819,0.543914 -0.875191,0.815872 -1.544457,0.815872 -0.566301,0 -0.978156,0.271957 -1.33853,0.652697 -0.360373,0.435133 -0.617783,0.815872 -0.669265,1.46857 -0.05148,0.979046 -0.463337,1.46857 -0.875192,2.066875 -0.617783,0.815873 -1.956313,2.93714 -2.728542,4.78645 -0.926674,2.393225 -1.235565,3.916185 -1.235565,5.384755 z m 4.839299,-0.924655 c 0,-2.284442 2.059277,-6.690151 4.375964,-9.572898 0.308891,-0.435132 0.82371,-0.924655 1.184084,-0.924655 0.926674,0 1.287047,1.522961 1.287047,2.882747 0,1.903702 -1.750385,6.091845 -3.24336,7.832372 -0.978157,1.142221 -1.853349,1.577352 -2.522614,1.577352 -0.463337,0 -1.081121,-0.652697 -1.081121,-1.794918 z"
         id="path1693"
         style="font-size:52.9167px;line-height:1.25;font-family:'Caflisch Script';-inkscape-font-specification:'Caflisch Script';letter-spacing:-1.279px;stroke-width:0.74186" />
      <path
         d="m 52.169657,33.043903 c -0.772228,0 -0.875192,-0.707089 -0.772228,-1.903701 0.257409,-2.284443 1.287047,-5.819887 2.368168,-8.15872 0.514819,-1.08783 0.823711,-1.686136 1.029638,-2.175659 0.617783,-1.414178 -0.720747,-3.100314 -2.007795,-3.100314 -0.617783,0 -1.235565,0.435132 -2.059277,1.740528 -0.926674,1.52296 -3.088914,5.439145 -5.508564,8.430677 -2.471133,2.828356 -3.912626,4.188143 -4.478927,4.188143 -0.617783,0 -0.875193,-0.598307 -0.360374,-2.338833 0.617783,-2.230051 1.029638,-3.263488 1.441494,-4.079361 0.360373,-0.707089 0.978156,-1.033437 1.492976,-1.740526 0.463337,-0.652699 1.492975,-2.502008 1.492975,-3.209097 0,-0.979046 -1.544458,-2.338833 -2.831505,-2.338833 -0.617784,0 -1.287049,0.435132 -1.801868,1.251004 -0.617782,1.196612 -2.213722,4.405708 -3.449289,8.267503 -1.441493,4.024968 -1.595938,5.384755 -1.595938,6.255018 0,1.740527 1.081119,3.426662 2.16224,3.426662 0.772229,0 1.59594,-0.217566 2.677059,-0.924655 3.088915,-2.066875 6.486722,-5.547929 7.310433,-6.472584 0.308892,-0.326349 0.669265,-0.108783 0.51482,0.489523 -0.154446,0.598306 -0.308893,1.196613 -0.463338,2.066876 -0.617783,3.154705 0.308892,5.004015 1.904831,5.004015 0.772229,0 2.213722,-0.380741 3.655216,-1.142221 1.801867,-0.924655 4.8393,-2.937139 8.751927,-8.376286 0.772228,-1.033437 1.081119,-2.23005 0.772228,-2.882747 -0.205928,-0.489523 -0.617783,-0.489523 -1.029638,-0.05439 -3.037433,3.589836 -7.464878,7.777979 -9.215264,7.777978 z"
         id="path1690"
         style="font-size:52.9167px;line-height:1.25;font-family:'Caflisch Script';-inkscape-font-specification:'Caflisch Script';letter-spacing:-1.279px;stroke-width:0.74186" />
      <path
         d="m 55.546384,32.336814 c 0,3.426662 2.316687,5.384755 4.684855,5.384755 6.023384,0 12.458624,-4.623275 15.959394,-9.355332 0.669265,-0.924655 0.926675,-1.903701 0.669265,-2.393225 -0.205927,-0.38074 -0.720746,-0.435131 -1.235565,0.163175 -5.251157,5.60232 -9.987493,7.397238 -13.076408,7.397238 -1.492975,0 -2.316686,-0.815871 -2.316686,-2.012483 0,-0.761481 0.154446,-1.251004 0.411855,-1.794918 0.154446,-0.380741 0.308892,-0.435132 0.669265,-0.271958 0.463338,0.217566 1.029638,0.435132 1.59594,0.435132 2.780023,0 4.58189,-1.414178 5.663011,-2.556399 1.029638,-1.196612 1.956312,-2.773965 1.956312,-4.732058 0,-2.066875 -1.235565,-3.263488 -2.985951,-3.37227 -0.360373,-0.05439 -0.617782,-0.271958 -0.772229,-0.489523 -0.308891,-0.652698 -0.82371,-1.08783 -1.801867,-1.08783 -2.16224,0 -4.8393,3.263487 -5.868939,4.786449 -2.265203,3.426662 -3.552252,7.451631 -3.552252,9.899247 z m 6.950059,-5.602321 c -0.669265,0 -0.772228,-0.163175 -0.566301,-0.815872 0.617783,-1.686136 2.316686,-4.351317 3.346325,-4.351317 0.669265,0 1.184084,0.435131 1.184084,1.196612 0,1.522961 -2.368168,3.970577 -3.964108,3.970577 z m 0.669266,-11.041468 c 0,0.543914 0.669264,0.652698 1.287047,0.489524 1.235566,-0.326349 3.397807,-1.631744 7.361914,-5.275973 0.772229,-0.707089 0.978157,-1.5229608 0.463337,-2.2300498 -0.5663,-0.7070891 -1.390011,-1.1966123 -2.471131,-1.1966123 -1.132603,0 -1.544458,0.5439146 -2.162241,1.4685696 -1.956313,2.7195735 -3.088915,4.4057085 -4.015589,5.5479295 -0.25741,0.38074 -0.463337,0.924655 -0.463337,1.196612 z"
         id="path1687"
         style="font-size:52.9167px;line-height:1.25;font-family:'Caflisch Script';-inkscape-font-specification:'Caflisch Script';letter-spacing:-1.279px;stroke-width:0.74186" />
      <path
         d="m 81.524986,17.868684 c -1.698903,0 -4.375963,0.924655 -5.971903,2.393224 -1.492975,1.251004 -3.088915,3.372271 -3.088915,5.330364 0,0.707089 0.25741,1.631743 0.514819,2.284442 0.360374,0.815871 1.184084,2.338833 1.698904,3.045922 0.720747,1.033437 1.184084,2.012484 1.184084,2.556399 0,0.326348 -0.411855,0.76148 -1.08112,0.76148 -0.720747,0 -1.029638,-0.108783 -1.544457,-0.326349 -0.463337,-0.380741 -0.823711,-0.380741 -1.287049,-0.108783 -0.463337,0.217566 -1.132602,0.652698 -1.853349,1.522962 -0.360373,0.326348 -0.411855,0.76148 -0.411855,1.14222 0.205927,1.196613 2.162241,2.012484 3.552253,2.012484 0.566301,0 1.184084,-0.163174 1.956312,-0.489523 1.132603,-0.489524 3.088915,-1.631744 3.75818,-2.284442 0.617783,-0.598305 1.287048,-1.958092 1.287048,-2.773964 0,-1.414178 -0.772229,-2.991531 -1.956313,-4.568883 -0.875193,-1.251004 -1.544458,-2.447616 -1.544458,-3.481055 0,-1.686134 3.552254,-3.100312 6.744132,-3.100312 0.875193,0 1.647421,-0.435132 1.647421,-1.46857 0,-0.652698 -0.205928,-1.196613 -0.875193,-1.686136 -0.669264,-0.489523 -1.441493,-0.76148 -2.728541,-0.76148 z"
         id="path1684"
         style="font-size:52.9167px;line-height:1.25;font-family:'Caflisch Script';-inkscape-font-specification:'Caflisch Script';letter-spacing:-1.279px;stroke-width:0.74186" />
    </g>
    <g
       id="g51847"
       inkscape:label="Recemment"
       style="fill:#f4c401;fill-opacity:1;stroke-width:1.12155"
       transform="matrix(0.89162061,0,0,0.89162061,-0.15728438,0.51810308)">
      <path
         d="m 103.65451,17.759901 c -2.11075,0 -3.809657,1.686136 -5.354123,3.535445 -1.801863,1.958092 -3.603729,5.058406 -4.170031,5.928669 -0.360373,0.489524 -0.669265,0.543915 -0.5663,0 0.257409,-1.740526 0.978156,-4.242533 1.544456,-5.275971 0.360374,-0.652698 0.77223,-1.305395 0.77223,-1.794918 0,-0.979047 -0.77223,-2.121268 -1.750386,-2.121268 -0.720747,0 -1.647421,0.652698 -2.316686,1.251004 -0.926675,0.815872 -1.338529,1.522961 -1.647422,3.970576 -0.257409,2.773966 -0.669265,7.179675 -1.956312,10.71512 -0.360374,1.087829 -0.205928,1.686135 0.360373,2.338833 0.669265,0.815872 1.390012,1.251003 2.213723,1.251003 0.82371,0 1.595939,-0.707089 2.110758,-2.121267 0.669266,-1.686135 3.294843,-6.962107 5.868944,-10.225595 1.338526,-1.794918 2.265196,-2.556399 2.831496,-2.556399 0.41186,0 0.8752,0.217566 1.23557,0.435131 0.41186,0.271958 0.97816,0.05439 1.59594,-0.707089 0.51482,-0.543914 1.02964,-1.631744 1.18409,-2.502007 0.20592,-1.14222 -0.82372,-2.121267 -1.95632,-2.121267 z"
         id="path71332"
         style="font-size:52.9167px;line-height:1.25;font-family:'Caflisch Script';-inkscape-font-specification:'Caflisch Script';letter-spacing:-1.279px;stroke-width:0.74186" />
      <path
         d="m 128.30258,17.923075 c -2.72855,0 -5.97191,2.066876 -8.08266,4.568884 -2.52262,2.99153 -3.75818,7.07089 -3.75818,9.518506 0,4.296926 2.41964,5.711104 4.89077,5.711104 4.8393,0 10.75972,-4.296926 14.46643,-9.355332 0.66926,-0.924655 0.92667,-1.903701 0.66926,-2.393225 -0.20592,-0.38074 -0.72075,-0.435131 -1.28704,0.108783 -3.44929,3.589837 -8.13415,7.723588 -11.78937,7.723588 -1.13259,0 -2.05928,-1.087829 -2.05928,-2.719573 0,-1.522961 0.41186,-3.861795 2.16225,-6.635759 1.44149,-2.284441 2.88298,-3.100313 3.39781,-3.100313 0.30889,0 0.56629,0.271957 0.51481,0.979046 -0.0515,0.543915 0.10297,0.924654 0.41186,1.08783 0.25741,0.163174 0.87519,0.217565 1.54446,-0.108784 0.97816,-0.489523 1.90483,-1.52296 1.90483,-2.99153 0,-1.142221 -1.02964,-2.393225 -2.98595,-2.393225 z"
         id="path71329"
         style="font-size:52.9167px;line-height:1.25;font-family:'Caflisch Script';-inkscape-font-specification:'Caflisch Script';letter-spacing:-1.279px;display:inline;stroke-width:0.74186" />
      <path
         d="m 118.31277,29.278114 c -3.88879,3.157673 -7.31176,4.255311 -9.72729,4.255311 -1.49299,0 -2.3167,-0.815871 -2.3167,-2.012483 0,-0.761481 0.15445,-1.251004 0.41186,-1.794918 0.15445,-0.380741 0.30889,-0.435132 0.66927,-0.271958 0.46334,0.217566 1.02963,0.435132 1.59593,0.435132 2.78002,0 4.5819,-1.414178 5.66302,-2.556399 1.02963,-1.196612 1.9563,-2.773965 1.9563,-4.732058 0,-2.066875 -1.23556,-3.263488 -2.98594,-3.37227 -0.36037,-0.05439 -0.61778,-0.271958 -0.77223,-0.489523 -0.30889,-0.652698 -0.82371,-1.08783 -1.80187,-1.08783 -2.16224,0 -4.8393,3.263487 -5.86893,4.786449 -2.26521,3.426662 -3.55226,7.451631 -3.55226,9.899247 0,3.426662 2.31669,5.384755 4.68485,5.384755 4.82108,0 9.906,-2.961805 13.53893,-6.570585 m -11.27372,-4.416491 c -0.66927,0 -0.77223,-0.163175 -0.5663,-0.815872 0.61779,-1.686136 2.31669,-4.351317 3.34632,-4.351317 0.66927,0 1.18409,0.435131 1.18409,1.196612 0,1.522961 -2.36817,3.970577 -3.96411,3.970577 z m 0.66927,-11.041468 c 0,0.543914 0.66926,0.652698 1.28704,0.489524 1.23556,-0.326349 3.39781,-1.631744 7.36192,-5.275973 0.77222,-0.707089 0.97815,-1.5229608 0.46333,-2.2300498 -0.5663,-0.7070891 -1.39001,-1.1966123 -2.47113,-1.1966123 -1.1326,0 -1.54445,0.5439146 -2.16224,1.4685696 -1.95632,2.7195735 -3.08891,4.4057085 -4.01558,5.5479295 -0.25742,0.38074 -0.46334,0.924655 -0.46334,1.196612 z"
         id="path71326"
         style="font-size:52.9167px;line-height:1.25;font-family:'Caflisch Script';-inkscape-font-specification:'Caflisch Script';letter-spacing:-1.279px;display:inline;stroke-width:0.74186"
         sodipodi:nodetypes="cssccscsccscsscscsssssccsccs" />
      <path
         d="m 146.36637,29.362858 c -3.84545,3.092595 -7.22864,4.170567 -9.62243,4.170567 -1.49298,0 -2.31669,-0.815871 -2.31669,-2.012483 0,-0.761481 0.15444,-1.251004 0.41186,-1.794918 0.15444,-0.380741 0.30889,-0.435132 0.66926,-0.271958 0.46334,0.217566 1.02964,0.435132 1.59594,0.435132 2.78002,0 4.58189,-1.414178 5.66301,-2.556399 1.02964,-1.196612 1.95631,-2.773965 1.95631,-4.732058 0,-2.066875 -1.23557,-3.263488 -2.98594,-3.37227 -0.36038,-0.05439 -0.61779,-0.271958 -0.77224,-0.489523 -0.30889,-0.652698 -0.82371,-1.08783 -1.80186,-1.08783 -2.16224,0 -4.8393,3.263487 -5.86894,4.786449 -2.26521,3.426662 -3.55226,7.451631 -3.55226,9.899247 0,3.426662 2.3167,5.384755 4.68486,5.384755 4.85536,0 9.97832,-3.004068 13.61618,-6.647651 m -11.35097,-4.339425 c -0.66927,0 -0.77223,-0.163175 -0.5663,-0.815872 0.61778,-1.686136 2.31668,-4.351317 3.34632,-4.351317 0.66926,0 1.18408,0.435131 1.18408,1.196612 0,1.522961 -2.36816,3.970577 -3.9641,3.970577 z"
         id="path71323"
         style="font-size:52.9167px;line-height:1.25;font-family:'Caflisch Script';-inkscape-font-specification:'Caflisch Script';letter-spacing:-1.279px;display:inline;stroke-width:0.74186"
         sodipodi:nodetypes="cssccscsccscsscscsss" />
      <path
         d="m 160.10565,17.923063 c -0.49588,0 -1.28931,0.435131 -2.13232,1.251004 -0.84301,0.761481 -1.43808,1.359787 -2.97535,3.100316 -1.83479,2.066877 -3.22328,3.861796 -5.30602,6.418197 -0.74385,0.924656 -1.04137,0.543915 -0.59507,-0.979047 0.64465,-2.338835 1.48766,-4.895235 2.08274,-6.309414 0.64465,-1.468571 -0.14877,-2.50201 -1.19015,-3.426665 -0.49588,-0.435132 -0.94219,-0.598306 -1.38849,-0.598306 -1.3389,0 -2.67781,4.024971 -3.07452,5.330366 -0.19836,0.707091 0.14877,1.033439 0.34713,1.033439 0.24794,0 0.29753,0.271957 0.14876,0.815872 -0.8926,3.698623 -1.63644,6.255023 -1.8348,7.886768 -0.3967,3.698623 1.04137,5.058411 1.78522,5.058411 0.49588,0 1.04137,-0.271958 1.93396,-1.359788 0.9422,-1.142222 5.85152,-8.049943 6.59535,-8.974598 0.54548,-0.70709 1.09096,-1.033439 1.28932,-0.924656 0.24794,0.163174 0.14876,0.652699 -0.0496,1.196614 -0.4959,1.577353 -0.9422,3.209098 -1.28932,4.73206 -0.69424,2.88275 -0.24795,5.275976 0.9422,5.275976 0.69425,0 1.43808,-0.489523 2.42985,-1.522963 1.09097,-1.14222 5.40522,-6.52698 6.59535,-8.049942 0.54548,-0.707089 0.79343,-0.652698 0.59507,0.108784 -0.14877,0.598305 -0.34712,1.958093 -0.4463,2.882749 -0.49589,4.786452 1.09096,6.962112 3.62001,6.962112 2.42985,0 6.54575,-2.882749 10.11616,-9.736079 0.74384,-1.414179 0.8926,-2.338834 0.64466,-2.719575 -0.19836,-0.326348 -0.59507,-0.271958 -1.04137,0.326349 -4.51261,6.255023 -6.89288,8.267509 -8.28137,8.267509 -1.19014,0 -1.43808,-1.468571 -1.14055,-3.644231 0.39671,-3.100316 1.19013,-5.167193 1.68603,-6.200631 0.44629,-0.979047 0.94219,-1.41418 1.28931,-1.740529 0.4463,-0.435131 0.69425,-0.761481 0.69425,-1.414178 0,-1.196613 -1.14055,-2.556401 -2.2811,-2.556401 -0.59507,0 -1.38849,0.543915 -2.18192,1.414179 -0.94219,1.033439 -6.04987,7.179678 -7.58713,8.865815 -0.29753,0.271957 -0.54548,0.489523 -0.79342,0.380741 -0.19835,-0.108784 -0.0992,-0.543915 0.19836,-1.359788 0.54548,-1.577354 1.73561,-4.568886 2.08274,-5.656716 0.99177,-3.045924 -0.79343,-4.133754 -1.48768,-4.133754 z"
         id="path71320"
         style="font-size:51.9348px;line-height:1.25;font-family:'Caflisch Script';-inkscape-font-specification:'Caflisch Script';letter-spacing:-1.25527px;display:inline;stroke-width:0.74186" />
      <path
         d="m 189.62315,17.923063 c -0.49589,0 -1.28931,0.435131 -2.13232,1.251004 -0.84302,0.761481 -1.43808,1.359787 -2.97535,3.100316 -1.83479,2.066877 -3.22328,3.861796 -5.30603,6.418197 -0.74383,0.924656 -1.04137,0.543915 -0.59506,-0.979047 0.64465,-2.338835 1.48767,-4.895235 2.08274,-6.309414 0.64465,-1.468571 -0.14878,-2.50201 -1.19015,-3.426665 -0.49589,-0.435132 -0.94219,-0.598306 -1.38848,-0.598306 -1.33891,0 -2.67781,4.024971 -3.07453,5.330366 -0.19836,0.707091 0.14877,1.033439 0.34712,1.033439 0.24795,0 0.29754,0.271957 0.14877,0.815872 -0.8926,3.698623 -1.63644,6.255023 -1.83479,7.886768 -0.39672,3.698623 1.04137,5.058411 1.7852,5.058411 0.49589,0 1.04137,-0.271958 1.93398,-1.359788 0.94219,-1.142222 5.85151,-8.049943 6.59534,-8.974598 0.54548,-0.70709 1.09097,-1.033439 1.28931,-0.924656 0.24795,0.163174 0.14878,0.652699 -0.0495,1.196614 -0.4959,1.577353 -0.94219,3.209098 -1.28932,4.73206 -0.69424,2.88275 -0.24794,5.275976 0.9422,5.275976 0.69424,0 1.43808,-0.489523 2.42986,-1.522963 1.09096,-1.14222 5.4052,-6.52698 6.59534,-8.049942 0.54548,-0.707089 0.79343,-0.652698 0.59507,0.108784 -0.14877,0.598305 -0.34713,1.958093 -0.4463,2.882749 -0.49589,4.786452 1.09096,6.962112 3.62,6.962112 2.42987,0 6.54576,-2.882749 10.11617,-9.736079 0.74384,-1.414179 0.8926,-2.338834 0.64466,-2.719575 -0.19836,-0.326348 -0.59507,-0.271958 -1.04138,0.326349 -4.5126,6.255023 -6.89287,8.267509 -8.28137,8.267509 -1.19013,0 -1.43808,-1.468571 -1.14055,-3.644231 0.39672,-3.100316 1.19014,-5.167193 1.68604,-6.200631 0.4463,-0.979047 0.94219,-1.41418 1.28931,-1.740529 0.4463,-0.435131 0.69425,-0.761481 0.69425,-1.414178 0,-1.196613 -1.14055,-2.556401 -2.2811,-2.556401 -0.59507,0 -1.3885,0.543915 -2.18192,1.414179 -0.9422,1.033439 -6.04987,7.179678 -7.58713,8.865815 -0.29753,0.271957 -0.54547,0.489523 -0.79342,0.380741 -0.19835,-0.108784 -0.0992,-0.543915 0.19835,-1.359788 0.54549,-1.577354 1.73562,-4.568886 2.08275,-5.656716 0.99178,-3.045924 -0.79343,-4.133754 -1.48768,-4.133754 z"
         id="path71317"
         style="font-size:51.9348px;line-height:1.25;font-family:'Caflisch Script';-inkscape-font-specification:'Caflisch Script';letter-spacing:-1.25527px;stroke-width:0.74186" />
      <path
         d="m 219.66571,29.382385 c -3.83539,3.077607 -7.20937,4.15104 -9.59812,4.15104 -1.49297,0 -2.31669,-0.815871 -2.31669,-2.012483 0,-0.761481 0.15445,-1.251004 0.41186,-1.794918 0.15444,-0.380741 0.30889,-0.435132 0.66926,-0.271958 0.46334,0.217566 1.02965,0.435132 1.59595,0.435132 2.78002,0 4.58189,-1.414178 5.66301,-2.556399 1.02963,-1.196612 1.95631,-2.773965 1.95631,-4.732058 0,-2.066875 -1.23557,-3.263488 -2.98595,-3.37227 -0.36037,-0.05439 -0.61779,-0.271958 -0.77223,-0.489523 -0.30889,-0.652698 -0.82372,-1.08783 -1.80187,-1.08783 -2.16223,0 -4.8393,3.263487 -5.86894,4.786449 -2.2652,3.426662 -3.55225,7.451631 -3.55225,9.899247 0,3.426662 2.31668,5.384755 4.68485,5.384755 4.66777,0 9.58286,-2.776426 13.18799,-6.228339 m -10.92278,-4.758737 c -0.66926,0 -0.77222,-0.163175 -0.5663,-0.815872 0.61778,-1.686136 2.31668,-4.351317 3.34633,-4.351317 0.66925,0 1.18408,0.435131 1.18408,1.196612 0,1.522961 -2.36817,3.970577 -3.96411,3.970577 z"
         id="path71314"
         style="font-size:52.9167px;line-height:1.25;font-family:'Caflisch Script';-inkscape-font-specification:'Caflisch Script';letter-spacing:-1.279px;stroke-width:0.74186"
         sodipodi:nodetypes="cssccscsccscsscscsss" />
      <path
         d="m 224.4027,16.944028 c -0.92668,0 -2.11076,0.543915 -2.98596,2.5564 -0.87519,1.903701 -2.47113,7.179673 -3.75817,13.543475 -0.25741,1.087829 -0.20593,2.284442 0.15445,2.719573 0.41185,0.598306 0.87519,1.033437 1.54445,1.033437 0.3089,0 0.82371,-0.163174 1.39001,-1.087829 2.31669,-3.698619 4.89078,-7.179673 7.87673,-10.279987 0.77223,-0.76148 1.02965,-0.979046 1.18409,-0.76148 0.10296,0.163175 0,0.543915 -0.20593,1.142221 -0.30889,0.924655 -0.66927,2.338833 -1.08112,4.405709 -1.08112,5.275972 0.66927,8.104328 3.24336,8.104328 2.62558,0 6.95007,-2.284441 11.22306,-10.062421 0.82371,-1.359787 0.8752,-2.284442 0.61778,-2.665182 -0.20592,-0.271957 -0.61778,-0.163175 -0.87519,0.163175 -3.08891,3.861793 -7.46487,8.757025 -9.31822,8.757025 -0.82371,0 -1.64743,-1.087829 -0.8752,-4.351317 0.51482,-2.175659 1.49298,-5.112797 2.31669,-7.016499 0.46333,-1.087829 0.97815,-2.012484 1.18408,-2.502007 0.36037,-1.033438 0.46334,-1.794919 -0.46333,-2.773965 -0.41186,-0.380741 -0.97816,-0.598306 -1.59594,-0.598306 -0.51483,0 -0.87519,0.326349 -1.18408,0.815872 -0.25742,0.543914 -0.6178,0.870263 -0.82372,1.033437 -0.46333,0.271958 -0.8752,0.543915 -2.26521,1.631744 -1.64741,1.196613 -4.73633,4.351318 -5.663,5.439147 -0.46334,0.652698 -0.82371,0.435132 -0.61778,-0.163174 0.30889,-0.924655 0.77222,-2.882748 1.44148,-4.07936 0.46334,-0.870263 0.92668,-1.414178 1.39001,-1.414178 0.30889,0 0.61779,-0.32635 0.61779,-0.70709 0,-1.14222 -1.02964,-2.882748 -2.47113,-2.882748 z"
         id="path71311"
         style="font-size:52.9167px;line-height:1.25;font-family:'Caflisch Script';-inkscape-font-specification:'Caflisch Script';letter-spacing:-1.279px;display:inline;stroke-width:0.74186" />
      <path
         d="m 244.26644,33.479035 c -1.33853,0 -1.54446,-1.033438 -1.28705,-2.665182 0.20593,-1.577353 1.28705,-4.786449 2.00779,-6.526976 0.25742,-0.543915 0.46334,-0.707089 1.13261,-0.815872 4.58189,-0.652698 7.61932,-1.522961 8.49451,-2.012485 0.72075,-0.435131 1.33854,-1.686135 0.10297,-1.686135 -1.39001,0 -5.09672,0.217566 -7.4134,0.271957 -0.30889,0 -0.77223,0.05439 -0.61778,-0.38074 0.20593,-0.489523 1.02964,-2.773964 2.16224,-4.949623 0.51482,-0.924655 0.46333,-1.903702 -0.3089,-2.719573 -0.41185,-0.435132 -0.72074,-0.598307 -1.23556,-0.598307 -0.77223,0 -2.21372,0.815873 -2.67705,1.84931 -0.51482,1.142221 -2.11077,5.92867 -2.36817,6.472585 -0.20593,0.598306 -0.51482,0.707089 -0.97816,0.815872 -1.02964,0.217565 -1.90483,0.435131 -2.52262,0.543915 -0.72074,0.163174 -1.02963,0.435131 -1.49297,1.033437 -0.41186,0.489523 -0.46334,1.305396 -0.10297,1.686135 0.30889,0.271958 0.72075,0.598307 1.28705,0.543915 0.66927,-0.108783 1.39001,-0.163174 1.80187,-0.217565 0.51482,-0.05439 0.51482,0.163174 0.36037,0.543914 -0.25741,0.76148 -1.95631,6.037453 -2.47113,7.560414 -0.41185,1.14222 -0.5663,1.794918 -0.5663,2.447616 0,1.903701 1.80187,3.045922 3.29485,3.045922 0.66925,0 1.33852,-0.108783 2.21371,-0.435132 4.11856,-1.414178 6.22931,-3.372271 7.156,-4.405709 0.87518,-0.979046 0.66925,-2.447615 -0.51483,-1.631744 -1.23556,0.815873 -3.70669,2.230051 -5.45708,2.230051 z"
         id="path71308"
         style="font-size:52.9167px;line-height:1.25;font-family:'Caflisch Script';-inkscape-font-specification:'Caflisch Script';letter-spacing:-1.279px;stroke-width:0.74186" />
    </g>
  </g>
</svg>
