<?xml version="1.0" encoding="UTF-8" standalone="no"?>
<!-- Created with Inkscape (http://www.inkscape.org/) -->

<svg
   width="640.77472"
   height="169.52933"
   viewBox="0 0 105.4587 27.901137"
   version="1.1"
   id="svg9136"
   inkscape:version="1.1.2 (0a00cf5339, 2022-02-04, custom)"
   sodipodi:docname="auto-lastplayed.svg"
   xmlns:inkscape="http://www.inkscape.org/namespaces/inkscape"
   xmlns:sodipodi="http://sodipodi.sourceforge.net/DTD/sodipodi-0.dtd"
   xmlns="http://www.w3.org/2000/svg"
   xmlns:svg="http://www.w3.org/2000/svg"
   xmlns:rdf="http://www.w3.org/1999/02/22-rdf-syntax-ns#"
   xmlns:cc="http://creativecommons.org/ns#"
   xmlns:dc="http://purl.org/dc/elements/1.1/">
  <defs
     id="defs9130" />
  <sodipodi:namedview
     id="base"
     pagecolor="#ffffff"
     bordercolor="#666666"
     borderopacity="1.0"
     inkscape:pageopacity="0.0"
     inkscape:pageshadow="2"
     inkscape:zoom="1.979899"
     inkscape:cx="360.62446"
     inkscape:cy="65.912453"
     inkscape:document-units="px"
     inkscape:current-layer="layer1"
     showgrid="false"
     units="px"
     inkscape:window-width="1366"
     inkscape:window-height="703"
     inkscape:window-x="0"
     inkscape:window-y="0"
     inkscape:window-maximized="1"
     fit-margin-top="0"
     fit-margin-left="0"
     fit-margin-right="0"
     fit-margin-bottom="0"
     inkscape:snap-global="false"
     inkscape:pagecheckerboard="1"
     scale-x="0.26458" />
  <metadata
     id="metadata9133">
    <rdf:RDF>
      <cc:Work
         rdf:about="">
        <dc:format>image/svg+xml</dc:format>
        <dc:type
           rdf:resource="http://purl.org/dc/dcmitype/StillImage" />
        <dc:description>Font: Caflisch Script Bold</dc:description>
      </cc:Work>
    </rdf:RDF>
  </metadata>
  <g
     inkscape:label="LastPlayed"
     inkscape:groupmode="layer"
     id="layer1"
     transform="translate(-10.356889,-271.66517)"
     sodipodi:insensitive="true">
    <text
       xml:space="preserve"
       style="font-size:0.32916px;line-height:1.25;font-family:TrasksHand;-inkscape-font-specification:TrasksHand;text-decoration-color:#000000;fill:#ef00eb;stroke:#0105ff;stroke-width:0.41145;-inkscape-stroke:none;stop-color:#000000"
       x="66.128059"
       y="276.41553"
       id="text4082"
       inkscape:label="Signature"><tspan
         sodipodi:role="line"
         id="tspan4080"
         style="font-size:0.32916px;fill:#fafafa;fill-opacity:0.4;stroke:none;stroke-width:0.41145"
         x="66.128059"
         y="276.41553">John Loreth 2022</tspan></text>
    <path
       id="path27324"
       style="font-weight:bold;font-size:26.9094px;line-height:1.25;font-family:'Caflisch Script';-inkscape-font-specification:'Caflisch Script Bold';display:inline;fill:#333333;fill-opacity:1;stroke-width:2.5"
       inkscape:label="Offset"
       d="m 381.15625,-1.0371094 c -0.0334,-0.033291 -0.48766,0.34214956 -2.38672,1.81640628 -1.02383,0.88240632 -1.65546,1.94846642 -2.19922,3.10156252 -1.33323,2.7750425 -5.3121,12.3092126 -9.19726,21.8496096 -0.19404,-0.02891 -0.32503,-0.06641 -0.57617,-0.06641 -6.77957,0 -13.59628,3.058372 -19.67383,9.685547 -2.71688,2.964662 -4.11452,5.696727 -5.43164,8.046875 -0.44107,0.375874 -0.85094,0.560012 -1.27149,0.863282 1.06246,-2.038148 1.8457,-4.38392 1.8457,-7.109375 0,-2.828145 -0.97492,-5.518507 -2.8496,-7.433594 -1.65828,-1.693833 -3.8886,-2.33175 -5.99414,-2.642578 a 0.81763243,0.81763243 0 0 0 -0.16211,-0.140625 c -0.0461,-0.02691 -0.0765,-0.0425 -0.10352,-0.05078 -1.36718,-1.647344 -3.43439,-3.144531 -6.05273,-3.144531 -4.02989,0 -7.01188,2.320037 -9.41797,4.458985 -2.15144,1.912554 -3.82241,3.929046 -5.02735,5.535156 0.0254,-0.313852 0.0957,-0.632254 0.0957,-0.945313 0,-2.867452 -1.4248,-4.965861 -2.72461,-6.414062 -0.65868,-0.733833 -1.3561,-1.360833 -2.11914,-1.875 -0.59288,-0.399534 -1.53655,-1.166016 -3.39454,-1.166016 -1.54256,0 -3.0116,0.515008 -4.10546,1.248047 -1.03629,0.694413 -1.70641,1.463026 -2.23633,2.044922 -0.006,0.0064 -0.0518,0.05488 -0.11719,0.132812 -0.004,0.0046 -0.004,0.001 -0.008,0.0059 -1.74168,2.087509 -2.76092,3.862935 -3.6836,5.5 -1.44585,2.565354 -1.49566,5.194348 -1.17382,6.960937 0.0106,0.06773 0.0249,0.145658 0.0449,0.236329 a 0.81763243,0.81763243 0 0 0 0.008,0.02148 c 0.0404,0.160743 0.0544,0.207636 0.0586,0.207031 -0.0338,0.114747 -0.27785,0.659223 -0.91601,1.720703 l 0.10351,-0.125 a 0.81763243,0.81763243 0 0 0 -0.13281,0.175782 0.81763243,0.81763243 0 0 0 -0.008,0.0078 c -0.7001,1.203099 -1.11829,1.751387 -1.64649,2.554688 0.23024,-2.029834 0.51561,-4.118264 0.5625,-5.94336 0.0571,-2.278186 -0.0432,-5.020452 -0.69531,-7.625 -0.32295,-1.290066 -0.78397,-2.648165 -1.74219,-3.941406 -1.02619,-1.385008 -2.874,-2.671875 -5.08593,-2.671875 -2.83265,0 -4.87552,1.617252 -6.17774,3.025391 -1.26325,1.365959 -2.11266,2.804485 -2.76172,3.935546 l 0.0449,-0.03711 a 0.81763243,0.81763243 0 0 0 -0.13282,0.177734 0.81763243,0.81763243 0 0 0 -0.008,0.01367 c -1.24762,2.219566 -1.79537,4.485045 -1.18164,6.628907 a 0.81763243,0.81763243 0 0 0 0,0.02148 c 0.0311,0.101367 0.0551,0.143551 0.0605,0.15625 0.27105,0.811578 0.27563,0.271541 0.1914,2.037109 a 0.81763243,0.81763243 0 0 0 0,0.03711 v 0.0078 c -1.8e-4,0.02249 -2.1e-4,0.04365 0,0.06641 l -0.16211,5.476563 c -2.08909,2.405858 -4.16231,4.66204 -5.75,6.097656 -0.0698,0.06316 -0.11194,0.08299 -0.17773,0.140625 0.18226,-4.999181 1.70834,-10.418116 4.05273,-15.730469 a 0.81763243,0.81763243 0 0 0 0.008,-0.02344 c 0.0554,-0.131301 0.0991,-0.247878 0.13281,-0.353516 a 0.81763243,0.81763243 0 0 0 0.006,-0.06641 c 0.0467,-0.131414 0.25288,-0.655967 0.36328,-1.359375 0.11535,-0.734929 0.14908,-1.693971 -0.16992,-2.730469 -0.60944,-1.980094 -2.16717,-3.331589 -3.96485,-4.392578 -0.0169,-0.01 -0.0279,-0.02717 -0.0449,-0.03711 -1.0714,-0.679446 -2.55484,-1.193666 -4.10351,-0.945313 -0.16794,0.02816 -0.24409,0.09858 -0.36914,0.15625 -1.01909,-0.954973 -2.42611,-1.898437 -4.62891,-1.898437 -2.12276,0 -7.49275,0.801025 -13.80469,6.291015 0.002,-0.0016 -0.005,0.0066 -0.0137,0.01367 -0.003,0.0025 -0.005,0.0053 -0.008,0.0078 -0.006,0.0046 -0.0177,0.0057 -0.0293,0.01563 -0.009,0.008 -0.0248,0.03086 -0.0449,0.05078 l -0.006,0.0078 c -0.008,0.0078 -0.0233,0.02137 -0.0234,0.02148 a 0.81763243,0.81763243 0 0 0 -0.008,0.0078 c -5.96769,6.595276 -11.50078,13.458715 -18.36523,19.03125 -0.53799,0.42652 -0.93949,0.637449 -1.41797,0.966797 2.36931,-7.669379 6.6395,-20.771202 13.7832,-34.548828 l -0.14063,0.185547 a 0.81763243,0.81763243 0 0 0 0.23633,-0.560547 l -0.082,0.361328 c 1.10249,-2.148283 2.21372,-4.185214 2.16406,-6.894531 -0.0502,-2.7362268 -1.6851,-5.053221 -3.70703,-6.828125 l -0.006,-0.00781 c -0.0105,-0.00926 -0.0207,-0.020075 -0.0312,-0.029297 -1.32974,-1.2673512 -3.12282,-1.86718748 -4.67187,-1.86718748 -2.22579,0 -4.36331,1.21426768 -5.86133,3.03320308 -0.002,0.00272 0.002,0.00513 0,0.00781 -0.002,0.00189 -0.006,-0.00185 -0.008,0 -0.002,0.00276 -0.006,0.00509 -0.008,0.00781 -0.007,0.00937 4e-4,0.013056 -0.006,0.021484 -0.006,0.00775 -0.0108,0.00676 -0.0156,0.013672 a 0.81763243,0.81763243 0 0 0 -0.0215,0.023437 c -0.0105,0.013266 -0.0188,0.03744 -0.0293,0.050781 -0.002,0.00329 -0.0149,0.022115 -0.0156,0.023438 -1.27717,1.6329071 -2.46486,3.9127421 -4.34765,7.9277344 -1.60946,3.432151 -3.85291,8.758856 -6.31836,14.814453 -0.34454,-1.17993 -0.86773,-2.399726 -1.7793,-3.617187 -2.12878,-2.878488 -5.20888,-4.739284 -8.2539,-6.111328 -2.75114,-1.239723 -5.4383,-1.938474 -8.00782,-2.089844 -2.59236,-2.519395 -5.06863,-4.044922 -7.95117,-4.044922 -2.6284,0 -4.50143,1.523578 -5.58789,2.798828 -0.7838,0.919937 -1.16913,1.776418 -1.51367,2.546875 -3.12867,1.116813 -6.71581,2.76019 -9.5957,5.203125 -0.0115,0.0054 -0.13467,0.08192 -0.23633,0.177734 -1.39761,1.242445 -2.47845,2.893083 -2.64258,4.828126 -0.16416,1.935269 0.67491,3.602106 1.71875,4.679687 0.004,0.0042 0.0117,0.0036 0.0156,0.0078 0.001,0.0014 -0.001,0.0045 0,0.0059 1.75859,1.878765 3.8507,2.26686 5.32227,2.333984 -2.30669,7.228271 -5.05182,15.70723 -6.5332,21.355469 a 0.81763243,0.81763243 0 0 0 -0.0215,0.0078 c -0.0263,0.0107 -0.0651,0.02411 -0.11132,0.04297 -1.77111,0.720151 -3.50153,1.688463 -4.6875,3.513672 -1.26672,1.949443 -1.25128,4.508666 -0.39844,6.423828 a 0.81763243,0.81763243 0 0 0 0.008,0.02148 c 0.0552,0.114179 0.0613,0.118364 0.043,0.08008 1.76962,3.692938 5.75313,6.429687 10.57812,6.429687 2.24181,0 4.37296,-0.493091 6.1875,-2.273437 0.15944,-0.02948 0.27236,-0.05859 0.53125,-0.05859 5.04059,0 9.10904,-0.91434 12.02539,-3.048828 v 0.0078 c 1.34698,-0.971527 3.04883,-2.377987 3.21875,-5.115234 0.0986,-1.587099 -0.63908,-3.260739 -1.875,-4.275391 -1.11492,-0.915363 -2.32049,-1.221585 -3.35937,-1.357421 h -0.008 c -1.61637,-0.219478 -3.40423,-0.450017 -4.91602,-0.671876 0.22199,-0.696491 0.45326,-1.41279 0.70117,-2.148437 0.44109,0.189619 0.93709,0.355431 1.54297,0.355469 1.11347,0 2.49625,-0.153572 4.01563,-0.517578 0.007,3.7e-5 0.014,1.13e-4 0.0215,0 0.01,-1.52e-4 0.0193,4.53e-4 0.0293,0 0.0169,-0.0041 0.028,-0.0037 0.0449,-0.0078 0.009,-0.0022 0.0128,-0.0057 0.0215,-0.0078 a 0.81763243,0.81763243 0 0 0 0.0156,0 l -0.0293,0.01563 c 0.0204,-0.0042 0.0339,-0.01147 0.0508,-0.01563 a 0.81763243,0.81763243 0 0 0 0.0156,-0.0059 c 0.002,-5.29e-4 0.006,4.92e-4 0.008,0 a 0.81763243,0.81763243 0 0 0 0.0293,-0.0078 c 0.007,-0.0018 0.0126,3.02e-4 0.0137,0 a 0.81763243,0.81763243 0 0 0 0.008,0 c 4.54382,-1.225739 9.11976,-3.769398 11.79688,-5.66211 1.29627,-0.825675 2.52381,-1.87968 3.69726,-3.041015 -2.35548,7.35292 -3.78711,12.937003 -3.78711,15.642578 0,2.673411 0.80341,5.217241 2.3711,7.234375 1.58854,2.044006 4.10948,3.542969 6.99023,3.542969 5.35724,0 9.91377,-2.751127 14.00391,-6.046875 0.58939,1.341354 1.30959,2.572834 2.29492,3.447265 0.88536,0.785688 1.8095,1.368062 2.70117,1.794922 0.81495,0.390161 1.71732,0.804688 3.12305,0.804688 3.31681,0 6.37183,-1.462414 9.45703,-3.736328 a 0.81763243,0.81763243 0 0 0 0.0137,-0.02148 c 0.0133,-0.0095 0.0316,-0.02755 0.0449,-0.03711 1.54317,-1.10778 3.40996,-2.6823 5.17383,-4.236328 0.65916,1.914406 1.58899,3.724395 2.97656,5.123046 1.74505,1.75903 4.09394,2.908204 6.85743,2.908204 3.78477,0 7.00603,-1.88579 9.94922,-4.171875 0.80426,-0.624718 1.43248,-1.365597 2.08984,-2.080079 0.18066,0.384794 0.36173,0.763195 0.58398,1.105469 -3.33255,4.105437 -6.44136,8.043637 -8.35742,10.513672 -0.0387,0.04944 -0.0699,0.09739 -0.10351,0.146485 a 0.81763243,0.81763243 0 0 0 0,0.01562 c -3.15879,4.433538 -4.61175,6.506465 -5.64649,8.642579 a 0.81763243,0.81763243 0 0 0 -0.0742,0.103515 c 0.0887,-0.176428 0.0444,-0.06896 0,-0.02148 -0.0444,0.04747 -0.10653,0.111172 -0.15429,0.154297 -0.0351,0.03171 -0.10656,0.08435 -0.18555,0.164062 -1.32846,0.557896 -3.52945,1.860604 -5.78711,4.759766 a 0.81763243,0.81763243 0 0 0 -0.0664,0.06641 0.81763243,0.81763243 0 0 0 -0.008,0.01563 0.81763243,0.81763243 0 0 0 -0.16211,0.480469 v -0.236328 c -1.38614,1.845921 -2.58317,3.850662 -3.24805,6.289062 -7.3e-4,0.0024 7.3e-4,0.0054 0,0.0078 -0.75584,2.522305 0.18159,5.129226 1.78711,6.671876 1.53794,1.47764 3.55147,2.21484 5.6543,2.21484 2.90235,0 6.27257,-1.31504 8.25391,-4.28125 0.61568,-0.921673 0.90727,-1.408178 1.10547,-1.623044 0.2032,-0.22046 0.3873,-0.329622 1.10156,-0.650391 a 0.81763243,0.81763243 0 0 0 0.20508,-0.148437 l -0.16211,0.126953 c 0.0242,-0.01236 0.0255,-0.0141 0.0449,-0.02344 1.07589,-0.511332 3.22824,-1.519249 5.30664,-2.958984 1.99015,-1.378696 4.83529,-3.410065 4.99023,-7.324219 l 0.008,-0.0293 a 0.81763243,0.81763243 0 0 0 0,-0.0293 v -0.0078 c 0.001,-0.02215 0.007,-0.04396 0.008,-0.06641 a 0.81763243,0.81763243 0 0 0 0,-0.04297 v -0.0078 c 0,-0.978519 -0.37021,-1.76137 -0.75977,-2.451172 0.0608,-0.08081 0.10135,-0.132606 0.1836,-0.24414 0.29217,-0.396359 0.70688,-0.948817 1.18945,-1.556641 0.97918,-1.233298 2.33881,-2.897801 4.00781,-4.931641 3.3336,-4.062349 7.91665,-9.601331 13.36914,-16.314453 a 0.81763243,0.81763243 0 0 0 0.0137,-0.01367 c 2.34159,-2.847119 4.7527,-6.508255 7.00585,-10.179688 -0.21016,1.271169 -0.37695,2.519386 -0.37695,3.683594 0,8.426721 6.54217,14.232422 13.43555,14.232422 7.09114,0 13.34799,-3.068834 19.04492,-6.777344 0.22437,1.44325 0.51756,2.932418 1.52148,4.111328 1.72653,2.027376 4.19214,2.865234 6.29688,2.865234 3.79412,0 8.16686,-1.708022 13.13086,-5.085937 1.35613,-0.920353 2.8256,-2.410167 4.31836,-3.869141 0.15972,1.252762 0.42304,2.534245 1.18945,3.779297 1.53695,2.497701 4.48,4.570313 8.03906,4.570313 5.86727,0 10.95423,-3.550896 15.25,-7.492188 4.26497,-3.912907 7.75133,-8.463876 9.69336,-12.410156 l 0.0215,-0.03711 c 0.005,-0.0096 0.008,-0.01588 0.0156,-0.0293 1.9e-4,-2.65e-4 -0.0358,0.0445 -0.0664,0.08203 -0.0168,0.0206 -0.0372,0.04503 -0.0371,0.04492 -0.001,0.0016 -0.008,0.01375 -0.008,0.01367 l -1.15039,-0.648438 c 0.23687,0.03352 0.57422,0.08008 0.57422,0.08008 0,0 -0.43411,-0.08667 -0.64062,-0.125 l -0.0371,-0.01563 c 0.17835,0.03738 0.67773,0.140625 0.67773,0.140625 1.2e-4,-2.64e-4 0.74762,0.280003 0.76172,0.28125 1.1e-4,0 0.006,3.8e-5 0.006,0 0.53567,-1.133404 1.00023,-2.293245 1.27734,-3.558593 0.2623,-1.198904 0.55656,-2.942169 -0.48632,-4.841797 l -0.008,-0.01563 c -10e-4,-0.0029 0.001,-0.0051 0,-0.0078 a 0.81763243,0.81763243 0 0 0 -0.008,-0.0078 c -0.0229,-0.04316 -0.0537,-0.100957 -0.0508,-0.0957 a 0.81763243,0.81763243 0 0 0 -0.0234,-0.0293 c -0.56141,-0.933846 -1.49277,-1.642047 -2.53906,-2.095703 -1.0447,-0.453015 -2.23722,-0.662281 -3.37305,-0.369141 -1.91886,0.495307 -3.09963,1.734978 -4.00781,2.990234 -5.3e-4,4.92e-4 -10e-4,0.0072 -0.008,0.01367 -0.007,0.0062 -0.0157,0.0078 -0.0156,0.0078 -0.001,0.0014 10e-4,0.0064 0,0.0078 -0.0106,0.01047 -0.0237,0.01682 -0.0352,0.0293 -0.0155,0.01682 -0.0295,0.03939 -0.0449,0.05859 -0.002,0.0027 -0.006,0.0051 -0.008,0.0078 -0.0154,0.0195 -0.03,0.03701 -0.0449,0.05859 a 0.81763243,0.81763243 0 0 0 -0.006,0.0078 c -0.51798,0.761763 -3.52788,4.441261 -6.38672,7.34375 -0.80719,0.819514 -1.51375,1.398806 -2.27343,2.082031 0.62596,-4.860284 2.51295,-13.526443 5.04296,-20.492188 3.27515,-8.912579 5.6758,-13.374282 7.24805,-17.177734 0.0127,-0.02525 -0.008,0.01213 0,-0.0059 a 0.81763243,0.81763243 0 0 0 0.0742,-0.296876 l -0.0449,0.222657 c 0.59437,-1.483805 1.11151,-3.0419429 1.0039,-4.8789067 -0.10639,-1.8175748 -0.92499,-3.4435374 -1.93359,-4.71875 a 0.81763243,0.81763243 0 0 0 -0.0215,-0.042969 c -6.5e-4,-0.00132 -0.0516,-0.071243 -0.0899,-0.1269532 -0.0173,-0.025209 -0.0264,-0.046688 -0.0371,-0.058594 -0.002,-0.00174 -0.004,0.00166 -0.006,0 l -0.0371,-0.037109 -0.0156,-0.013672 c -0.008,-0.00971 -0.0133,-0.019621 -0.0215,-0.029297 -0.008,-0.00699 -0.008,-0.00939 -0.0156,-0.015625 -0.99069,-1.1589544 -2.00567,-2.09979458 -3.22461,-2.7460938 -1.29868,-0.68866773 -2.66165,-0.87890625 -3.64648,-0.87890625 -2.47127,0.86931497 -1.36041,-0.32146863 -1.41602,-0.37695315 z M 25.052734,12.052734 c -2.282018,0 -4.819535,1.012938 -6.408203,2.996094 -0.06866,0.08568 -0.692199,0.635824 -1.513672,1.09961 -0.823237,0.464768 -1.895695,0.92636 -3.0625,1.189453 a 0.81763243,0.81763243 0 0 0 -0.0078,0.0078 c -0.815135,0.168114 -1.925058,0.474039 -2.990235,1.386719 -1.2208323,1.04606 -1.8886676,2.692395 -1.8886714,4.193359 0,2.832907 1.8645744,4.577871 3.1953124,5.5 0.233227,0.161462 0.339038,0.164594 0.53125,0.242188 -1.919943,6.900132 -5.1469435,17.15355 -7.6035155,22.736328 -1.428223,0.501127 -2.6459068,1.357301 -3.5566406,2.251953 -0.00268,0.0025 -0.00514,0.0053 -0.00781,0.0078 -0.00231,0.0023 -0.0055,0.0055 -0.00781,0.0078 -1.37691595,1.298646 -2.08162623,2.917402 -2.33203128,4.451172 -0.24815244,1.519975 -0.16320833,3.17508 0.72265626,4.796875 0.3108548,0.625512 0.60437029,1.254876 0.82617187,1.720703 0.11719185,0.246047 0.21788605,0.4441 0.27343745,0.560547 0.029597,0.06202 0.055544,0.108516 0.082031,0.162109 -0.00652,-0.009 -0.026784,-0.02993 0.021484,0.06055 a 0.81763243,0.81763243 0 0 0 0.021484,0.03711 c 0.650041,2.383748 2.6179615,4.06275 4.5996094,4.589843 1.9302426,0.513449 3.8817594,0.259681 5.6035154,-0.722656 0.609952,-0.348057 1.069687,-0.559661 1.357422,-0.671875 0.102297,-0.03987 0.167983,-0.05736 0.236328,-0.08008 0.0065,9.45e-4 0.0082,-0.0011 0.01563,0 a 0.81763243,0.81763243 0 0 0 0.02149,0 c 0.129067,0.01648 0.342335,0.04382 0.626953,0.08789 0.56307,0.08757 1.412149,0.230659 2.591797,0.435547 a 0.81763243,0.81763243 0 0 0 0.05078,0.0078 l 0.08984,0.0059 c 0.02476,0.0031 2.85e-4,0.0052 0.0293,0.0078 2.419363,0.342387 5.546882,0.546875 8.482422,0.546875 6.650083,0 13.293931,-2.026295 18.410157,-6.142578 0.58981,1.338708 1.309451,2.572683 2.294921,3.447265 0.885359,0.785651 1.809491,1.368062 2.701172,1.794922 0.814946,0.390161 1.717328,0.804688 3.123047,0.804688 3.316823,0 6.37183,-1.462414 9.457031,-3.736328 a 0.81763243,0.81763243 0 0 0 0.01367,-0.02148 c 0.01326,-0.0095 0.03162,-0.02755 0.04492,-0.03711 1.545551,-1.109518 3.415328,-2.687656 5.181641,-4.244141 0.65712,1.914066 1.582812,3.722997 2.96875,5.123047 1.742978,1.760731 4.091692,2.916016 6.857422,2.916016 3.503002,0 6.578362,-1.726819 9.46289,-3.816407 0.950744,1.761071 2.341601,3.05243 3.816407,3.771485 1.960834,0.956069 4.077946,1.460937 6.193359,1.460937 1.81344,0 3.523604,-0.479616 5.271484,-1.171875 0.007,-0.0016 0.0221,-0.0062 0.0293,-0.0078 0.0297,-0.01183 0.0582,-0.01735 0.0879,-0.0293 0.006,-0.0023 0.008,0.0028 0.0156,0 a 0.81763243,0.81763243 0 0 0 0.0371,-0.02344 l 0.0371,-0.01367 0.0137,-0.0078 c 2.69689,-1.111597 6.19647,-2.83207 8.57813,-5.035156 a 0.81763243,0.81763243 0 0 0 0.008,-0.01367 0.81763243,0.81763243 0 0 0 0.25781,-0.583985 v 0.289063 c 1.01609,-1.015521 1.76357,-2.140245 2.35547,-3.330078 0.63715,-1.280769 1.24609,-2.718728 1.24609,-4.599609 0,-4.144139 -2.09692,-7.719166 -4.6582,-10.984376 a 0.81763243,0.81763243 0 0 0 -0.006,-0.0293 c -0.76514,-1.038917 -1.33067,-2.022915 -1.70508,-2.789063 -0.12397,-0.253682 -0.19474,-0.434223 -0.27343,-0.628906 0.32063,-0.230702 0.73248,-0.533362 1.46875,-0.839844 1.69796,-0.706809 4.2381,-1.201683 6.58398,-1.306641 0.11885,0.78361 0.33408,1.654007 1.13086,2.449219 0.0861,0.08765 0.1702,0.170694 0.26563,0.251953 a 0.81763243,0.81763243 0 0 0 0.006,0.01367 c 0.65234,0.542476 2.13372,1.326898 3.97266,1.632813 -1.16846,3.396737 -2.60075,7.592084 -3.26367,9.447265 -0.87626,2.299011 -1.38672,4.121606 -1.38672,6.03125 0,3.190073 1.68592,5.855711 3.76367,7.470704 2.03616,1.582714 4.4603,2.392578 6.91797,2.392578 1.74597,0 3.62343,-0.32404 5.68359,-1.041016 8.80018,-2.860422 13.65602,-6.976334 15.86329,-9.300781 l 0.008,-0.0078 a 0.81763243,0.81763243 0 0 0 0.008,-0.0078 0.81763243,0.81763243 0 0 0 0.2207,-0.546875 V 58.875 c 1.4621,-1.668321 2.44396,-3.740943 1.81641,-6.289062 -0.39326,-1.596775 -1.78142,-3.345861 -3.8457,-3.779297 -1.86335,-0.39137 -3.38161,0.288965 -4.45117,0.974609 a 0.81763243,0.81763243 0 0 0 -0.0371,0.02148 c 0.0269,-0.01958 -0.0304,0.01934 -0.0156,0.0078 -1.63354,1.008416 -4.80372,2.319865 -6.8418,2.886719 0.16317,-0.894917 0.62459,-2.603592 1.26954,-4.541016 0.63883,-1.919055 1.38289,-3.876327 2,-5.365234 4.27393,-0.599282 7.99232,-1.281225 10.81445,-1.949219 2.9796,-0.70526 4.95972,-1.262879 6.61328,-2.132813 l 0.0234,-0.0078 c 0.046,-0.02396 0.0843,-0.04719 0.0801,-0.04492 a 0.81763243,0.81763243 0 0 0 0.0371,-0.01367 c 1.63652,-0.933279 2.94491,-2.245288 3.52149,-4.451172 0.33149,-1.268296 0.27648,-3.210151 -1.07031,-4.71875 -1.30167,-1.458066 -3.0421,-1.771484 -4.31055,-1.771484 -2.05029,0 -6.00094,0.185234 -9.61914,0.332031 0.4618,-1.106381 0.83427,-2.088731 1.66797,-3.601562 a 0.81763243,0.81763243 0 0 0 0.0879,-0.28125 c 1.57042,-3.037304 1.21681,-7.137996 -1.4082,-9.757813 -1.30423,-1.301745 -3.37098,-2.339844 -5.38868,-2.339844 -2.04994,0 -3.60478,0.738865 -5.05078,1.623047 -1.47507,0.901985 -3.03439,2.171658 -4.00781,4.222657 -0.74787,1.570318 -1.69358,4.16413 -2.67188,6.791015 -0.49074,1.317695 -0.96782,2.592325 -1.34374,3.587891 -0.16028,0.424365 -0.30537,0.801377 -0.41993,1.085937 -1.35223,0.277418 -2.45396,0.505814 -3.28515,0.664063 -0.51517,-1.371553 -1.27802,-2.753949 -2.65821,-3.712891 -1.99303,-1.384819 -4.62105,-2.169884 -7.74414,-2.169922 -4.67007,0 -10.22198,1.838482 -14.386715,5.431641 -0.0026,0.002 -0.0053,0.0058 -0.0078,0.0078 -0.0068,0.0058 -0.01474,0.0098 -0.02148,0.01563 -3.428036,2.746734 -7.261587,7.025864 -7.486329,12.660157 -2.604007,3.332749 -5.259061,6.373004 -7.367187,8.347656 -0.535948,0.502035 -0.901237,0.756697 -1.34961,1.123047 0.163628,-5.025525 1.697511,-10.479414 4.060547,-15.833985 a 0.81763243,0.81763243 0 0 0 0.0059,-0.02344 c 0.05527,-0.130696 0.09863,-0.245799 0.132812,-0.353516 a 0.81763243,0.81763243 0 0 0 0.0078,-0.06641 c 0.04667,-0.131414 0.250924,-0.655967 0.361328,-1.359375 0.115355,-0.734929 0.149078,-1.693971 -0.169922,-2.730469 -0.609437,-1.980094 -2.165207,-3.331589 -3.962891,-4.392578 -0.01694,-0.01 -0.02794,-0.02717 -0.04492,-0.03711 -1.074879,-0.681525 -2.550368,-1.191965 -4.095704,-0.945313 a 0.81763243,0.81763243 0 0 0 -0.0078,0 c -0.167785,0.0282 -0.244231,0.09869 -0.369141,0.15625 -1.019078,-0.954973 -2.42611,-1.898437 -4.628906,-1.898437 -2.122466,0 -7.499245,0.799891 -13.8125,6.291015 0.0021,-0.0016 -0.0052,0.0066 -0.01367,0.01367 -0.0029,0.0025 -0.0049,0.0053 -0.0078,0.0078 -0.0059,0.0046 -0.01768,0.0057 -0.0293,0.01563 -0.0051,0.0043 -0.0097,0.01785 -0.02148,0.0293 l -0.02344,0.02148 -0.0059,0.0078 c -0.0078,0.0078 -0.02332,0.02137 -0.02344,0.02148 -4.512386,4.085405 -9.025756,9.307177 -11.994141,15.28125 -10e-4,0.0012 -0.0069,-0.0011 -0.0078,0 -0.005,0.0059 -0.01557,0.02141 -0.01563,0.02148 -1.02e-4,1.51e-4 -0.02164,0.04281 -0.03711,0.07422 -0.0012,0.0025 0.0013,0.0052 0,0.0078 -0.0015,0.003 -0.0063,0.0028 -0.0078,0.0059 -0.03521,0.07151 -0.07218,0.155948 -0.07227,0.15625 -1.168301,2.251502 -1.830662,3.982617 -2.414062,5.617187 -1.339034,-0.132094 -2.444556,0.172152 -3.367188,0.56836 8.21e-4,-2.65e-4 -0.02051,0.0077 -0.02148,0.0078 -0.0095,0.0016 -0.08359,0.01856 -0.207031,0.0957 l 0.11914,-0.05859 c -2.780848,1.181518 -6.742289,1.785156 -10.033203,1.785156 -1.499728,0 -4.022016,-0.228213 -6.24414,-0.560547 -0.799423,-0.11966 -1.228535,-0.245286 -1.734375,-0.369141 0.546837,-1.298985 1.058837,-2.519351 2.265625,-5.5 0.0042,-0.0082 0.005,-0.0077 0.0078,-0.01367 a 0.81763243,0.81763243 0 0 0 0.0293,-0.07422 c 4.284605,-11.103723 5.844579,-15.565781 6.554688,-17.591797 a 0.81763243,0.81763243 0 0 0 0.0078,-0.05078 c 0.234969,-0.654085 0.666844,-1.588361 1.078125,-2.40625 0.207405,-0.41246 0.411318,-0.7991 0.582031,-1.09961 0.163537,-0.287886 0.309013,-0.5028 0.31836,-0.517578 4.08e-4,-6.42e-4 0.01386,-0.02171 0.01367,-0.02148 a 0.81763243,0.81763243 0 0 0 0.04492,-0.03711 c 1.7972,-2.193524 2.197087,-5.175687 1.248047,-7.544921 -0.843885,-2.106709 -2.359203,-3.559534 -3.978515,-4.597657 -1.621251,-1.039408 -3.531584,-1.779297 -5.691407,-1.779297 z M 333.07617,26.949219 c 0.0443,0.0099 0.17172,0.04341 0.19141,0.05078 l 0.0156,0.05859 a 0.81763243,0.81763243 0 0 0 -0.0293,0 c -0.0663,-0.0237 -0.10923,-0.100796 -0.17774,-0.109375 z m -136.21875,2.708984 c 0.85476,0.282406 3.1887,1.632647 2.39258,1.224609 -0.0122,0.05601 0.0189,0.03748 -0.0234,0.140626 -0.1205,0.293555 -0.38996,0.680772 -0.66992,1.019531 -0.27996,0.338759 -0.56561,0.62996 -0.73828,0.804687 -0.0306,0.03095 -0.0565,0.05366 -0.082,0.08008 -0.71573,0.532763 -1.82042,1.194119 -2.82813,1.808594 0.72055,-1.934098 1.43677,-3.848871 1.94922,-5.078125 z m 115.70508,4.982422 c 0.32919,0.208857 1.20979,0.784089 0.9375,0.605469 l -0.75391,-0.324219 c -1.3e-4,1.51e-4 -0.12382,-0.06287 -0.20703,-0.111328 0.009,-0.05696 0.0148,-0.11304 0.0234,-0.169922 z m 74.37891,6.615234 c 0,0 0.02,0.01292 0.0215,0.01367 a 0.81763243,0.81763243 0 0 0 -0.10351,0.324219 z m -25.89063,1.085938 v 0.002 c -0.17159,0.272126 -0.32141,0.522373 -0.52539,0.826172 -1.55531,2.315376 -3.50156,4.881064 -4.91601,6.296875 -0.0227,0.02268 -0.0378,0.02716 -0.0586,0.04492 0.42418,-0.760517 0.83318,-1.497992 1.77149,-2.804688 0.003,-0.0038 0.004,-0.01185 0.008,-0.01563 l 0.008,-0.0078 c 0.002,-0.0038 0.004,-0.0032 0.008,-0.0078 l 0.008,-0.01563 c 1.23084,-1.743534 2.4959,-3.139789 3.69726,-4.318359 z M 46.6875,45.845703 a 0.81763243,0.81763243 0 0 0 -0.220703,0.539063 l 0.132812,-0.41211 z m 231.97656,39.265625 v 0.117188 l -0.11133,0.132812 a 0.81763243,0.81763243 0 0 0 0.11133,-0.25 z"
       transform="matrix(0.26458333,0,0,0.26458333,10.547501,271.9401)" />
    <g
       id="g27248"
       inkscape:label="Text"
       style="display:inline;fill:#f4c401;fill-opacity:1">
      <path
         d="m 18.630087,287.38886 c -0.996092,0 -2.745983,-0.26883 -3.284411,-0.4839 -0.242293,-0.0806 -0.269214,-0.29571 -0.18845,-0.45701 0.134607,-0.29571 0.430742,-1.02155 0.942249,-2.28506 1.130699,-2.93025 1.53452,-4.08621 1.72297,-4.62387 0.161528,-0.45701 0.457663,-1.1022 0.726877,-1.4248 0.242293,-0.29572 0.269214,-0.61831 0.161529,-0.88714 -0.215371,-0.53766 -0.942249,-0.99468 -1.53452,-0.99468 -0.349978,0 -0.619192,0.10754 -0.834564,0.37637 -0.323056,0.40325 -0.996091,0.80649 -1.830655,0.99467 -0.269214,0.0538 -0.430743,0.1613 -0.430743,0.40325 0,0.43013 0.646114,0.75272 1.023014,0.83337 0.161528,0.0269 0.18845,0.13442 0.08077,0.4839 -0.511506,1.90868 -1.53452,5.18841 -2.315241,6.88204 -0.107686,0.26883 -0.21537,0.3226 -0.349977,0.3226 -0.269214,0 -0.484586,0.13442 -0.7538,0.40325 -0.323057,0.2957 -0.3769,0.83337 -0.215372,1.12908 0.161529,0.3226 0.349979,0.6452 0.403821,0.88715 0.107686,0.51077 0.726879,0.59141 1.103779,0.37636 0.376899,-0.21507 0.673035,-0.34948 0.942249,-0.34948 0.188449,0 0.457663,0.0538 1.076856,0.16129 0.565349,0.0806 1.372991,0.13442 2.099869,0.13442 1.857577,0 3.768996,-0.56454 4.845852,-1.80117 0.403821,-0.43012 0.3769,-0.9409 -0.296135,-0.64519 -0.942249,0.40324 -2.09987,0.56455 -3.095961,0.56455 z"
         style="font-weight:bold;font-size:26.9022px;line-height:1.25;font-family:'Caflisch Script';-inkscape-font-specification:'Caflisch Script Bold';stroke-width:0.661458"
         id="path61151" />
      <path
         d="m 29.741455,279.45837 c -0.296135,0 -1.453756,0.10753 -2.934433,1.39791 -1.130698,1.02156 -2.261398,2.33882 -2.961354,3.76363 -0.861485,1.63987 -1.023013,2.50012 -1.023013,3.03778 0,1.02155 1.049934,1.5861 1.372992,1.5861 0.565349,0 1.130698,-0.24195 1.857577,-0.77961 0.753798,-0.53766 2.180633,-1.82804 2.503689,-2.2044 0.16153,-0.16131 0.215372,-0.16131 0.242293,0.0806 0,0.29572 0,0.53766 0.05385,0.94091 0.107684,1.1022 0.834563,1.96246 1.830654,1.96246 1.696049,0 4.307425,-2.52701 5.491967,-4.86583 0.242293,-0.51078 0.3769,-0.99467 0.242293,-1.23662 -0.107686,-0.18818 -0.3769,-0.21507 -0.673035,0.0538 -1.696049,2.33883 -3.526704,3.97869 -4.145897,3.97869 -0.403821,0 -0.673035,-0.37636 -0.673035,-1.31727 0,-1.61298 0.484586,-3.27973 1.184542,-4.86582 0.08077,-0.24195 0.215371,-0.56454 -0.538428,-0.99467 -0.242293,-0.1613 -0.430742,-0.10754 -0.646114,0.0806 -0.161528,0.10753 -0.296135,0.10753 -0.349978,-0.0538 -0.161529,-0.21506 -0.457664,-0.56454 -0.834564,-0.56454 z m -0.996091,2.01622 c 0.349977,0 0.565349,0.3226 0.646114,0.56455 0.08077,0.26883 0,0.61831 -0.16153,0.88713 -0.107684,0.18819 -0.538428,0.94091 -0.915326,1.37104 -0.807644,0.9409 -1.184542,1.45168 -1.642207,1.82804 -0.403821,0.34948 -0.807642,0.61832 -1.023013,0.61832 -0.215371,0 -0.269214,-0.37637 -0.18845,-0.72584 0.161528,-0.72584 0.915328,-2.2313 1.830656,-3.30662 0.780721,-0.91402 1.211463,-1.23662 1.453756,-1.23662 z"
         style="font-weight:bold;font-size:26.9022px;line-height:1.25;font-family:'Caflisch Script';-inkscape-font-specification:'Caflisch Script Bold';stroke-width:0.661458"
         id="path61148" />
      <path
         d="m 40.149111,279.43147 c -0.883941,0 -2.276817,0.45701 -3.107184,1.18285 -0.776797,0.61831 -1.607164,1.66675 -1.607164,2.63454 0,0.34948 0.133929,0.80649 0.26786,1.12909 0.187502,0.40324 0.616079,1.15596 0.88394,1.50544 0.375005,0.51078 0.61608,0.99468 0.61608,1.2635 0,0.1613 -0.214288,0.37637 -0.562508,0.37637 -0.375005,0 -0.535721,-0.0538 -0.803582,-0.1613 -0.241074,-0.18818 -0.428577,-0.18818 -0.669651,-0.0538 -0.241075,0.10754 -0.589294,0.32261 -0.964298,0.75273 -0.187503,0.16129 -0.214289,0.37636 -0.214289,0.56454 0.107144,0.59143 1.125015,0.99468 1.848238,0.99468 0.294647,0 0.61608,-0.0806 1.017871,-0.24195 0.589293,-0.24195 1.607164,-0.8065 1.955383,-1.12909 0.321433,-0.29571 0.669651,-0.96778 0.669651,-1.37103 0,-0.69896 -0.40179,-1.47857 -1.01787,-2.25818 -0.455363,-0.6183 -0.803582,-1.20973 -0.803582,-1.72051 0,-0.83338 1.848239,-1.53233 3.508975,-1.53233 0.455363,0 0.857154,-0.21507 0.857154,-0.72584 0,-0.3226 -0.107144,-0.59143 -0.455363,-0.83337 -0.348219,-0.24195 -0.75001,-0.37637 -1.419661,-0.37637 z"
         style="font-weight:bold;font-size:26.8345px;line-height:1.25;font-family:'Caflisch Script';-inkscape-font-specification:'Caflisch Script Bold';stroke-width:0.661458"
         id="path61144" />
      <path
         d="m 45.750711,287.1469 c -0.70033,0 -0.808073,-0.51077 -0.673394,-1.31726 0.107743,-0.77961 0.673394,-2.36571 1.050496,-3.22597 0.134679,-0.26883 0.242422,-0.34948 0.592588,-0.40324 2.397285,-0.3226 3.986498,-0.75272 4.444406,-0.99468 0.377101,-0.21506 0.700331,-0.83337 0.05387,-0.83337 -0.727266,0 -2.666644,0.10753 -3.878755,0.13442 -0.161614,0 -0.404037,0.0269 -0.32323,-0.18819 0.107744,-0.24194 0.538716,-1.37103 1.131304,-2.44635 0.269358,-0.45701 0.242422,-0.9409 -0.161614,-1.34415 -0.215488,-0.21507 -0.377102,-0.29572 -0.64646,-0.29572 -0.404037,0 -1.158239,0.40325 -1.400662,0.91402 -0.269358,0.56455 -1.104367,2.93026 -1.239046,3.19909 -0.107744,0.29572 -0.269358,0.34947 -0.511781,0.40324 -0.538716,0.10754 -0.996624,0.21507 -1.319854,0.26884 -0.377101,0.0806 -0.538716,0.21506 -0.781138,0.51078 -0.215486,0.24194 -0.242422,0.64518 -0.05387,0.83337 0.161614,0.13441 0.377101,0.29571 0.673394,0.26882 0.350166,-0.0537 0.727267,-0.0806 0.942753,-0.10753 0.269358,-0.0269 0.269358,0.0806 0.188551,0.26884 -0.134679,0.37636 -1.02356,2.98401 -1.292918,3.73673 -0.215487,0.56455 -0.296294,0.88714 -0.296294,1.20974 0,0.94091 0.942753,1.50545 1.723891,1.50545 0.350165,0 0.700331,-0.0538 1.158239,-0.21506 2.154864,-0.69897 3.259232,-1.66675 3.744077,-2.17753 0.457908,-0.48389 0.350165,-1.20974 -0.269358,-0.80648 -0.64646,0.40324 -1.939378,1.10219 -2.855195,1.10219 z"
         style="font-weight:bold;font-size:26.9094px;line-height:1.25;font-family:'Caflisch Script';-inkscape-font-specification:'Caflisch Script Bold';stroke-width:0.661458"
         id="path61141" />
      <path
         d="m 66.815271,279.94225 c 0,-0.32259 -0.107743,-0.88714 -0.430973,-1.31727 -0.754203,-1.02156 -2.69358,-1.77428 -3.663269,-1.77428 -0.215486,0 -0.296293,-0.0538 -0.457909,-0.21507 -0.592586,-0.59142 -1.104367,-0.80649 -1.40066,-0.80649 -0.511781,0 -0.861946,0.61832 -0.996625,0.96779 -0.08081,0.16131 -0.134679,0.21507 -0.377102,0.3226 -0.781138,0.26883 -1.750827,0.72585 -2.37035,1.26351 -0.457909,0.40324 -0.377101,0.75272 -0.188551,0.94091 0.215487,0.24194 0.538716,0.29571 0.754203,0.29571 0.18855,0 0.861945,-0.37637 1.265982,-0.59143 0.296294,-0.1613 0.296294,-0.0537 0.161615,0.34947 -0.646459,2.07 -1.831634,5.67233 -2.289543,7.47349 -0.134679,0.29571 -0.323229,0.43013 -0.619523,0.53766 -0.727267,0.29571 -0.969689,0.67207 -0.754202,1.15597 0.296293,0.61831 0.915817,1.07533 1.804698,1.07533 0.377101,0 0.781138,-0.16131 0.942753,-0.34949 0.215486,-0.24194 0.565652,-0.26883 0.835009,-0.26883 1.158241,0 2.127929,-0.29571 2.531966,-0.59143 0.484844,-0.34948 0.592588,-0.7796 -0.02694,-0.86025 -0.592588,-0.0806 -1.616149,-0.1613 -2.100994,-0.29571 -0.3771,-0.10754 -0.484844,-0.21507 -0.323229,-0.6452 0.377101,-1.47856 0.915817,-3.0109 1.48147,-4.57012 0.646458,-1.77428 0.888881,-2.44635 1.21211,-3.17219 0.107743,-0.24195 0.269358,-0.29572 0.484845,-0.29572 0.646458,0 2.127927,0.43013 2.127927,1.58611 0,1.1022 -1.427597,1.69363 -2.343414,2.31193 -0.565652,0.37637 -1.077431,0.75273 -1.292919,1.02156 -0.161614,0.18818 -0.323228,0.51078 -0.323228,0.75273 0,0.29571 0.296293,0.45701 0.511779,0.45701 0.215486,0 0.511781,-0.0269 0.83501,-0.10753 0.996624,-0.26884 2.235672,-0.94091 2.801323,-1.34415 1.02356,-0.6452 2.208736,-2.09689 2.208737,-3.30662 z"
         style="font-weight:bold;font-size:26.9094px;line-height:1.25;font-family:'Caflisch Script';-inkscape-font-specification:'Caflisch Script Bold';stroke-width:0.661458"
         id="path61138" />
      <path
         d="m 66.294761,287.49638 c 0,0.96779 0.592588,1.74739 1.373726,1.74739 2.478093,0 5.818133,-3.41414 6.59927,-5.00023 0.215487,-0.43014 0.296295,-0.83338 0.188551,-1.04844 -0.107743,-0.18819 -0.32323,-0.21507 -0.565651,0.0806 -1.777764,2.15064 -3.824884,3.73673 -4.659894,3.73673 -0.430973,0 -0.646459,-0.37636 -0.215486,-1.77428 0.619523,-2.01622 1.804698,-5.6992 3.797948,-9.54346 0.565651,-1.10221 0.70033,-1.58611 -0.188551,-2.33883 -0.134679,-0.13442 -0.296293,-0.18819 -0.484844,-0.18819 -0.215486,0 -0.457909,0.10754 -0.700332,0.40325 -0.404037,0.51078 -1.346789,2.39259 -2.989873,6.5057 -1.831634,4.57011 -2.154864,6.6401 -2.154864,7.41971 z"
         style="font-weight:bold;font-size:26.9094px;line-height:1.25;font-family:'Caflisch Script';-inkscape-font-specification:'Caflisch Script Bold';stroke-width:0.661458"
         id="path61135" />
      <path
         d="m 83.978741,286.17911 c -0.08081,1.80116 0.215487,2.58077 0.700331,2.58077 h 0.188551 c 0.05387,0 0.02694,0.0537 -0.08081,0.18818 -1.212111,1.45169 -2.127928,2.66142 -2.774387,3.4948 -0.861945,1.20974 -1.212111,1.72051 -1.427598,2.17752 -0.134679,0.26884 -0.3771,0.4839 -0.592587,0.56455 -0.215487,0.0806 -0.619524,0.26883 -1.15824,0.96779 -0.350165,0.45701 -0.592587,0.86025 -0.727266,1.37103 -0.161615,0.51078 0.350166,0.94091 0.915817,0.94091 0.511781,0 0.942753,-0.1613 1.265983,-0.6452 0.32323,-0.48389 0.51178,-0.75272 1.050496,-0.99466 0.565652,-0.26884 2.074056,-0.99468 2.100992,-1.77429 0,-0.24194 -0.161615,-0.43013 -0.404037,-0.51077 -0.08081,-0.10754 0.05387,-0.29572 0.296294,-0.61831 0.269358,-0.45702 2.235672,-2.76896 5.117801,-6.31752 1.239048,-1.50545 2.882131,-4.32816 3.366976,-5.51102 0.242422,-0.59142 0.377101,-1.15597 0.377101,-1.47856 0,-0.69896 -0.808074,-1.39792 -1.077432,-1.39792 -0.377101,0 -0.592588,0.21506 -0.861946,0.51078 -0.404037,0.4839 -0.619523,0.86026 -0.861946,1.29038 -0.242421,0.43013 -0.242421,0.80649 -0.188549,1.1022 0.08081,0.32261 0.05387,0.67208 -0.350167,1.34415 -1.454532,2.50013 -2.316478,3.41416 -2.424221,3.41416 -0.18855,0 -0.350166,-0.32261 -0.296294,-0.99468 0.05387,-0.88714 0.350165,-2.8496 0.377102,-3.89804 0.02694,-1.07532 -0.134679,-2.63454 -0.888882,-2.63454 -0.619523,0 -1.104368,0.75273 -1.427597,1.31728 -0.242423,0.43013 -0.269358,0.72583 -0.215487,0.91401 0.05387,0.1613 0.134679,0.37637 0.107743,0.94091 z"
         style="font-weight:bold;font-size:26.9094px;line-height:1.25;font-family:'Caflisch Script';-inkscape-font-specification:'Caflisch Script Bold';stroke-width:0.661458"
         id="path61132" />
      <path
         d="m 79.066732,279.45837 c -0.296137,0 -1.453756,0.10753 -2.934434,1.39791 -1.130699,1.02156 -2.261398,2.33882 -2.961354,3.76363 -0.861485,1.63987 -1.023014,2.50012 -1.023014,3.03778 0,1.02155 1.049935,1.5861 1.372992,1.5861 0.565349,0 1.130699,-0.24195 1.857577,-0.77961 0.753799,-0.53766 2.180633,-1.82804 2.503691,-2.2044 0.161528,-0.16131 0.21537,-0.16131 0.242292,0.0806 0,0.29572 0,0.53766 0.05384,0.94091 0.107686,1.1022 0.834563,1.96246 1.830656,1.96246 1.696047,0 4.307424,-2.52701 5.491966,-4.86583 0.242292,-0.51078 0.376899,-0.99467 0.242292,-1.23662 -0.107685,-0.18818 -0.376899,-0.21507 -0.673035,0.0538 -1.696048,2.33883 -3.526704,3.97869 -4.145896,3.97869 -0.403821,0 -0.673036,-0.37636 -0.673036,-1.31727 0,-1.61298 0.484586,-3.27973 1.184542,-4.86582 0.08077,-0.24195 0.215372,-0.56454 -0.538428,-0.99467 -0.242292,-0.1613 -0.430742,-0.10754 -0.646114,0.0806 -0.161528,0.10753 -0.296135,0.10753 -0.349977,-0.0538 -0.161528,-0.21506 -0.457665,-0.56454 -0.834563,-0.56454 z m -0.996093,2.01622 c 0.349979,0 0.565349,0.3226 0.646114,0.56455 0.08077,0.26883 0,0.61831 -0.161528,0.88713 -0.107686,0.18819 -0.538428,0.94091 -0.915328,1.37104 -0.807642,0.9409 -1.184542,1.45168 -1.642206,1.82804 -0.403821,0.34948 -0.807642,0.61832 -1.023013,0.61832 -0.215371,0 -0.269214,-0.37637 -0.18845,-0.72584 0.161529,-0.72584 0.915328,-2.2313 1.830655,-3.30662 0.780721,-0.91402 1.211463,-1.23662 1.453756,-1.23662 z"
         style="font-weight:bold;font-size:26.9022px;line-height:1.25;font-family:'Caflisch Script';-inkscape-font-specification:'Caflisch Script Bold';stroke-width:0.661458"
         id="path61129" />
      <path
         d="m 92.163595,286.58236 c 0,1.69363 1.212111,2.66141 2.451157,2.66141 3.151489,0 6.518458,-2.28505 8.350098,-4.62387 0.35016,-0.45701 0.48484,-0.94091 0.35016,-1.18286 -0.10773,-0.18817 -0.3771,-0.21506 -0.64645,0.0806 -2.747455,2.76896 -5.225549,3.6561 -6.841697,3.6561 -0.781138,0 -1.212111,-0.40325 -1.212111,-0.99468 0,-0.37636 0.08081,-0.6183 0.215486,-0.88714 0.08081,-0.18817 0.161616,-0.21506 0.350166,-0.13441 0.242422,0.10753 0.538716,0.21506 0.83501,0.21506 1.454533,0 2.397286,-0.69895 2.962938,-1.2635 0.538716,-0.59143 1.023558,-1.37103 1.023558,-2.33882 0,-1.02156 -0.646457,-1.61298 -1.562274,-1.66675 -0.188551,-0.0269 -0.32323,-0.13442 -0.404037,-0.24195 -0.161615,-0.3226 -0.430973,-0.53765 -0.942753,-0.53765 -1.131304,0 -2.531966,1.61297 -3.070682,2.36569 -1.185174,1.69363 -1.858569,3.68298 -1.858569,4.89272 z m 3.636333,-2.76896 c -0.350166,0 -0.404037,-0.0806 -0.296295,-0.40324 0.32323,-0.83338 1.212111,-2.15064 1.750827,-2.15064 0.350166,0 0.619524,0.21507 0.619524,0.59143 0,0.75272 -1.239047,1.96245 -2.074056,1.96245 z"
         style="font-weight:bold;font-size:26.9094px;line-height:1.25;font-family:'Caflisch Script';-inkscape-font-specification:'Caflisch Script Bold';stroke-width:0.661458"
         id="path61126" />
      <path
         d="m 107.59544,279.83471 c -1.48147,0 -2.93601,0.61832 -4.39055,2.20441 -2.02018,2.20442 -2.69358,4.35506 -2.69358,5.51103 0,1.34415 0.61953,1.74739 1.21212,1.74739 0.59258,0 1.67002,-0.34948 2.85519,-1.15596 0.6734,-0.45702 1.96632,-1.58611 2.61277,-2.3926 0.13468,-0.18817 0.24243,-0.16129 0.21549,0.0537 -0.0538,0.32259 -0.10774,0.67208 -0.13468,1.2635 -0.0538,0.94091 0.40404,2.07 1.50841,2.07 2.10099,0 4.79457,-2.95714 5.62958,-4.67765 0.24242,-0.51078 0.37711,-0.99468 0.24242,-1.23662 -0.16161,-0.26883 -0.48484,-0.21507 -0.80807,0.24194 -0.51178,0.75274 -3.04375,3.62921 -3.87876,3.62921 -0.40404,0 -0.59258,-0.48389 -0.51178,-1.34415 0.10774,-1.34415 0.70034,-4.05934 1.48147,-6.20998 0.88888,-2.41947 1.56228,-3.68297 1.93938,-4.597 0.26936,-0.67207 0.26936,-1.02154 -0.10774,-1.47856 -0.43098,-0.51077 -0.70033,-0.59143 -0.99663,-0.59143 -0.18855,0 -0.3771,0.10754 -0.59258,0.56455 -0.32324,0.67207 -1.53535,3.54856 -2.66664,6.34439 -0.0539,0.1613 -0.10775,0.1613 -0.24243,0.13442 -0.21548,-0.0537 -0.43097,-0.0806 -0.67339,-0.0806 z m -0.53872,1.55922 c 0.21548,0 0.40404,0.13442 0.48484,0.29571 0.10774,0.18819 0.13468,0.40325 -0.0269,0.75274 -0.16162,0.40324 -1.34679,2.31193 -2.26261,3.22595 -0.86194,0.83338 -1.50841,1.18286 -1.83163,1.18286 -0.18856,0 -0.35017,-0.18818 -0.35017,-0.45701 0,-0.40324 0.13467,-0.99467 1.29292,-2.60765 1.02355,-1.45169 2.20873,-2.3926 2.69358,-2.3926 z"
         style="font-weight:bold;font-size:26.9094px;line-height:1.25;font-family:'Caflisch Script';-inkscape-font-specification:'Caflisch Script Bold';stroke-width:0.661458"
         id="path61123" />
    </g>
  </g>
</svg>
