<svg height="154.83871" viewBox="0 0 1492 480.00002" width="481.29031" xmlns="http://www.w3.org/2000/svg" xmlns:xlink="http://www.w3.org/1999/xlink"><mask id="a" maskUnits="userSpaceOnUse"><path d="m1031.7525 23.214939h122.9v122.900011h-122.9z" fill="#fff"/><path d="m1144.3403 135.83853h10.85v10.85h-10.85zm-113.1252 0h10.85v10.85h-10.85zm0-113.136855h10.85v10.850001h-10.85zm113.1599 0h10.85v10.850001h-10.85z" opacity=".98" stroke-width="9.3"/></mask><mask id="b" maskUnits="userSpaceOnUse"><path d="m1031.7525 23.214939h122.9v122.900011h-122.9z" fill="#fff"/><path d="m1031.7525 23.214939h122.9v122.900011h-122.9z" fill="#fff"/><path d="m1144.3403 135.83853h10.85v10.85h-10.85zm-113.1252 0h10.85v10.85h-10.85zm0-113.136855h10.85v10.850001h-10.85zm113.1599 0h10.85v10.850001h-10.85z" opacity=".98" stroke-width="9.3"/></mask><mask id="c" maskUnits="userSpaceOnUse"><path d="m1031.7525 23.214939h122.9v122.900011h-122.9z" fill="#fff"/><path d="m1031.7525 23.214939h122.9v122.900011h-122.9z" fill="#fff"/><path d="m1144.3403 135.83853h10.85v10.85h-10.85zm-113.1252 0h10.85v10.85h-10.85zm0-113.136855h10.85v10.850001h-10.85zm113.1599 0h10.85v10.850001h-10.85z" opacity=".98" stroke-width="9.3"/></mask><mask id="d" maskUnits="userSpaceOnUse"><path d="m1031.7525 23.214939h122.9v122.900011h-122.9z" fill="#fff"/><path d="m1031.7525 23.214939h122.9v122.900011h-122.9z" fill="#fff"/><path d="m1031.7525 23.214939h122.9v122.900011h-122.9z" fill="#fff"/><path d="m1144.3403 135.83853h10.85v10.85h-10.85zm-113.1252 0h10.85v10.85h-10.85zm0-113.136855h10.85v10.850001h-10.85zm113.1599 0h10.85v10.850001h-10.85z" opacity=".98" stroke-width="9.3"/></mask><mask id="e" maskUnits="userSpaceOnUse"><path d="m1034.1496 25.612029h118.1058v118.105831h-118.1058z" fill="#fff"/><path d="m1146.7223 138.19391h5.266v5.24758h-5.266zm-112.3033 0h5.266v5.24758h-5.266zm112.3033-112.300155h5.266v5.247581h-5.266zm-112.3033 0h5.266v5.247581h-5.266z" fill="#010000" opacity=".98" stroke-width="9.29998"/></mask><g fill="#fff"><g stroke-width="3.1"><g fill-opacity=".5"><path d="m1176.5787 240.38192q0 .744-.1798 1.2524-.2666.7564-.8556.7564-.3906 0-.8184-.1798-.5146-.217-.5642-.5332.1736 0 .4092.062.5456.1426.682.1426.527 0 .7936-.527.2108-.4216.2108-1.0106 0-.4154-.2728-1.1842-.2666-.775-.2666-1.0788 0-.093.05-.1488.056-.062.1488-.062.2418 0 .4712 1.116.1922.9424.1922 1.395z"/><path d="m1178.9657 241.01432q0 .6324-.3658.992-.3658.3596-1.0106.3596-.3534 0-.5456-.1674-.1922-.1674-.1922-.5146 0-.4898.6386-.9858.6076-.4712 1.1222-.4712.2356 0 .31.2914.043.1674.043.496zm-.3782.1736q0-.0744-.019-.1426-.012-.0744-.05-.1674-.099.0682-.3286.3348-.1178.1364-.2046.1984 0-.1178.025-.1922.05-.1054.081-.1798-.2728 0-.5704.2294-.2914.2294-.2914.496 0 .1798.1984.1798.3782 0 .7316-.186.4278-.2232.4278-.5704z"/><path d="m1181.5201 241.26852q0 .3038-.2294.682-.2604.4278-.5394.4278-.081 0-.1364-.0868-.05-.093-.05-.1798 0-.1116.2356-.3472.2418-.2418.2418-.3286 0-.0558-.019-.1116-.019-.0558-.025-.0744-.465.1054-.9486.5332-.4774.4278-.7254.4836-.05-.1364-.05-.279 0-.1736.081-.3658.056-.1364.186-.3286.217-.3286.4588-.744.124-.217.4278-.7502.31-.5332.4526-.7564.074-.1116.1302-.1674.081-.0744.1922-.0992.074.0248.1054.093.037.0682.037.1612 0 .2108-.2728.5704-.496.6448-.5084.6696-.279.4216-.279.7626l.012.062q.341-.1674.403-.1922.2542-.1054.434-.1054.1984 0 .2914.1364.093.1302.093.3348z"/><path d="m1184.3969 240.90272q0 .4216-.2046.899-.2232.527-.5518.7254-.068-.0806-.1178-.1798-.043-.0992-.043-.1984 0-.1054.31-.6262.1364-.2294.124-.403l-.01-.0806q-.2294.0682-.7936.4154-.558.341-1.1284.6944-.087 0-.1612-.062-.068-.0682-.068-.1488 0-.1302.4154-.8742.124-.2232.4464-.775.099.1302.1302.2914.031.155.031.372 0 .093 0 .1426.5704-.341.8928-.5146.3534-.1922.4836-.1922.087 0 .1612.1984.081.1984.081.3162z"/><path d="m1189.7847 242.10552q0 .1116-.099.1736-.093.0558-.2108.0558-.1054 0-.2666-.0248-.3658-.0558-.4712-.0558-.186 0-.7316.0434-.31.0248-.4464.0248-.3782 0-.3782-.3782 0-.3596.2356-1.0292.1302-.3782.4898-1.24.3224-.775.4092-1.0912.031-.0992.05-.1302.05-.0744.124-.0744.1178 0 .1984.1736.081.1674.081.3038 0 .217-.2542.7316-.2542.5084-.496.9982-.2666.5828-.2666.8866 0 .155.1302.217.093.0434.2728.0434.1364 0 .4712-.031.3348-.0372.4464-.0372.279 0 .4588.0806.2542.1116.2542.3596z"/><path d="m1192.0911 241.01432q0 .6324-.3658.992-.3658.3596-1.0106.3596-.3534 0-.5456-.1674-.1922-.1674-.1922-.5146 0-.4898.6386-.9858.6076-.4712 1.1222-.4712.2356 0 .31.2914.043.1674.043.496zm-.3782.1736q0-.0744-.019-.1426-.012-.0744-.05-.1674-.099.0682-.3286.3348-.1178.1364-.2046.1984 0-.1178.025-.1922.05-.1054.081-.1798-.2728 0-.5704.2294-.2914.2294-.2914.496 0 .1798.1984.1798.3782 0 .7316-.186.4278-.2232.4278-.5704z"/><path d="m1194.7013 240.88412q0 .1984-.1054.4216-.099.2232-.2542.372l-.01-.0868q0-.0744.019-.2294.019-.155.019-.2294 0-.1054-.031-.155-.031-.0558-.1302-.0558-.2914 0-.7254.4526-.4712.496-.9362.9858-.037 0-.074-.006-.093-.0248-.124-.031.019-.2232.155-.496.3658-.7378.3782-.7874.05-.1984.074-.2914.025-.093.068-.1922.05-.1054.1116-.186.068-.0868.1736-.1302l.062.744q.2666-.217.4092-.3348.2728-.217.4712-.217.1984 0 .3224.1302.124.1302.124.3224z"/><path d="m1197.7455 240.16492q0 .2604-.6944.6882-.6696.4092-.9734.4092-.1426 0-.1922-.0992-.043-.0992-.043-.279 0-.1178 0-.1674.4154 0 .7564-.124.341-.124.5952-.4092-.186-.0682-.3782-.0682-.4526 0-.961.3472-.558.3782-.558.806 0 .4092.558.5704.087.0248 1.0478.1736.5642.0868.5642.3038 0 .093-.2046.1488-.2046.062-.5208.062-.7936 0-1.2524-.2418-.6076-.3224-.6076-1.0354 0-.744.744-1.1842.6324-.372 1.4384-.372.2418 0 .4402.1116.2418.1364.2418.3596z"/><path d="m1200.2131 239.05512q0 .1364-.3286.5704-.3286.434-.3286.6634 0 .1178.1364.2356.31.2728.31.3348 0 .0806-.056.155-.05.0744-.1302.0744-.068 0-.1922-.0744-.087-.0496-.3348-.2418-.093.1798-.1426.2728-.1736.3286-.2356.4774-.093.2852-.186.5704-.1612.3844-.403.3844l-.01-.1426q0-.4402.2852-1.0416.056-.1116.31-.5766-.4898-.2666-1.0788-.2666 0-.2294.093-.3348.099-.1116.3286-.1116.2108 0 .527.0744.155.0372.31.0744.1178-.0372.3224-.403.5022-.8804.682-1.0106.05.0806.081.1612.037.0806.037.155z"/><path d="m1202.5009 241.26852q0 .3038-.2294.682-.2604.4278-.5394.4278-.081 0-.1364-.0868-.05-.093-.05-.1798 0-.1116.2356-.3472.2418-.2418.2418-.3286 0-.0558-.019-.1116-.019-.0558-.025-.0744-.465.1054-.9486.5332-.4774.4278-.7254.4836-.05-.1364-.05-.279 0-.1736.081-.3658.056-.1364.186-.3286.217-.3286.4588-.744.124-.217.4278-.7502.31-.5332.4526-.7564.074-.1116.1302-.1674.081-.0744.1922-.0992.074.0248.1054.093.037.0682.037.1612 0 .2108-.2728.5704-.496.6448-.5084.6696-.279.4216-.279.7626l.012.062q.341-.1674.403-.1922.2542-.1054.434-.1054.1984 0 .2914.1364.093.1302.093.3348z"/><path d="m1207.5912 239.24732q0 .2914-.31.7812-.1984.31-.651.8928-.4526.5766-.5642.7564.019.006.465.1488.4526.1364.4526.496-.186.031-.3658.0558l-.068-.006v-.0496q-.099-.0248-.1612-.0248-.1178 0-.372.0372-.2542.0372-.3844.0372-.1674 0-.2728-.062-.1054-.062-.1054-.2232 0-.1302.4774-.7378.8928-1.1346.899-1.147.4836-.6572.4836-.8804 0-.0868-.062-.1302-.056-.0434-.2294-.0434-.1178 0-.4898.2294-.1798.1116-.2914.1116l-.1054-.0186q-.037-.0248-.081-.093-.043-.0744-.043-.1178 0-.2604.5022-.4774.4278-.186.744-.186.2666 0 .4092.1984.124.1736.124.4526z"/><path d="m1211.3173 240.36332q0 .7502-.8122 1.3268-.744.527-1.5314.527-.3906 0-.62-.1984-.2294-.1984-.2294-.5766 0-.8432.7378-1.4632.7006-.589 1.5686-.589.4402 0 .6634.2604.2232.2604.2232.713zm-.3782.1426q0-.2852-.3224-.4278-.2418-.1054-.5766-.1054-.4898 0-1.023.4774-.5332.4774-.5332.961 0 .1984.099.2852.1054.0806.3162.0806.6076 0 1.2648-.3348.775-.3968.775-.9362z"/><path d="m1214.157 239.24732q0 .2914-.31.7812-.1984.31-.651.8928-.4526.5766-.5642.7564.019.006.465.1488.4526.1364.4526.496-.186.031-.3658.0558l-.068-.006v-.0496q-.099-.0248-.1612-.0248-.1178 0-.372.0372-.2542.0372-.3844.0372-.1674 0-.2728-.062-.1054-.062-.1054-.2232 0-.1302.4774-.7378.8928-1.1346.899-1.147.4836-.6572.4836-.8804 0-.0868-.062-.1302-.056-.0434-.2294-.0434-.1178 0-.4898.2294-.1798.1116-.2914.1116l-.1054-.0186q-.037-.0248-.081-.093-.043-.0744-.043-.1178 0-.2604.5022-.4774.4278-.186.744-.186.2666 0 .4092.1984.124.1736.124.4526z"/><path d="m1217.0089 239.24732q0 .2914-.31.7812-.1984.31-.651.8928-.4526.5766-.5642.7564.019.006.465.1488.4526.1364.4526.496-.186.031-.3658.0558l-.068-.006v-.0496q-.099-.0248-.1612-.0248-.1178 0-.372.0372-.2542.0372-.3844.0372-.1674 0-.2728-.062-.1054-.062-.1054-.2232 0-.1302.4774-.7378.8928-1.1346.899-1.147.4836-.6572.4836-.8804 0-.0868-.062-.1302-.056-.0434-.2294-.0434-.1178 0-.4898.2294-.1798.1116-.2914.1116l-.1054-.0186q-.037-.0248-.081-.093-.043-.0744-.043-.1178 0-.2604.5022-.4774.4278-.186.744-.186.2666 0 .4092.1984.124.1736.124.4526z"/></g><g fill-opacity=".993702" transform="scale(1.040252 .96130553)"><path d="m273.75531 171.87767h18.43623v-81.411503c0-5.293573-.36507-12.77759-1.27776-22.452051.36508 1.642833 1.27776 7.849091 3.10313 18.2537l15.51565 85.609854h9.857l16.24579-85.609854c.73015-3.468203 1.64283-9.491924 3.10313-18.2537-1.09522 11.317294-1.4603 18.801311-1.4603 22.452051v81.411503h18.61878v-128.871124h-26.83294l-12.41252 71.554504c-1.09522 6.20626-1.82537 12.59505-1.82537 19.16639 0-6.93641-.54761-13.50774-1.64283-19.34893l-12.96013-71.371964h-26.46786z"/><path d="m375.97618 171.87767h19.89653v-52.38812h13.69028c15.88072 0 26.6504-14.05535 26.6504-39.245455 0-26.285328-9.49192-37.237549-31.03129-37.237549h-29.20592zm19.89653-70.82436v-39.427989h7.11895c10.03953 0 12.96012 4.563425 12.96012 18.983848 0 14.968034-2.37298 20.444141-12.22997 20.444141z"/><path d="m448.62603 43.006546v95.831924c0 23.54728 10.95222 35.77726 30.66622 35.77726 19.34892 0 30.48368-12.41252 30.48368-35.22965v-96.379534h-20.26161v99.847744c0 7.84909-4.01581 12.22998-10.03953 12.22998s-10.58715-4.38089-10.58715-12.22998v-99.847744z"/><path d="m517.62487 61.625321h20.62668v110.252349h19.89654v-110.252349h20.80921v-18.618775h-61.33243z"/><path d="m587.90161 171.87767h51.84051v-19.34892h-31.94398v-38.51531h22.99966v-18.618774h-22.99966v-33.769345h31.94398v-18.618775h-51.84051z"/><path d="m674.78925 117.66418h9.49192l12.22998 54.21349h20.62668l-14.60296-59.87214c9.30939-6.57133 12.59506-16.428327 12.59506-31.761435 0-26.467865-9.49193-37.237549-31.03129-37.237549h-29.20592v128.871124h19.89653zm0-56.038859h7.11894c9.67446 0 12.96013 4.198351 12.96013 17.888626 0 14.237886-2.55552 19.531459-12.22998 19.531459h-7.84909z"/><path d="m725.16942 139.20355c.91269 22.63459 13.50774 35.59471 32.85666 35.59471 17.70609 0 30.84875-13.14266 30.84875-32.12651 0-17.88863-8.57923-27.56309-22.26951-40.88829-11.31729-10.952219-19.89653-18.80131-19.89653-30.483678 0-7.30148 4.38088-11.864905 10.58714-11.864905 7.30148 0 10.22207 4.928499 10.95222 16.063256l19.34893-2.738055c-1.4603-20.07907-13.32521-31.943976-29.75354-31.943976-16.7934 0-30.84875 13.690276-30.84875 32.30905 0 16.975941 10.22207 27.563088 24.6425 41.983508 10.58714 10.58715 17.88862 17.15848 17.88862 27.92816 0 7.48402-4.9285 12.41252-12.22998 12.41252-8.3967 0-12.41251-6.20626-13.14266-19.16639z"/></g><path d="m79.095528 138.83847c0 23.54728 10.404609 35.77726 30.483682 35.77726 19.34892 0 30.66621-12.41252 30.66621-35.22965v-13.50773h-20.44414v17.52355c0 8.94431-3.4682 13.50774-10.22207 13.50774s-10.222075-4.56343-10.222075-13.50774v-71.919581c0-8.944313 3.468205-13.325201 10.222075-13.325201s10.22207 4.380888 10.22207 13.325201v14.237886h20.44414v-12.412516c0-20.809218-11.8649-33.039198-29.93606-33.039198-19.714001 0-31.213832 12.412517-31.213832 32.491587z" fill-opacity=".993702" transform="scale(1.040252 .96130553)"/></g><path d="m616.42479 464.01419v-36.06612h31.74457l52.49468-73.51348-52.49468-67.83501h-29.57664v-36.0661h110.71886v34.07097h-20.59526l32.05427 39.74946 29.11209-39.74946h-19.5113v-34.07097h95.54341v36.0661h-29.88634l-51.10102 70.1371 56.36596 71.21139h30.97032v36.06612h-114.28045v-34.68486h21.52437l-33.75764-43.73976-32.05427 43.73976h22.14377v34.68486zm-219.93439 0v-36.06612h28.80239v-141.34849h-28.80239v-36.0661h90.27846l79.43885 133.21441v-97.14831h-28.02813v-36.0661h96.62736v36.0661h-30.19605v178.94935h-48.00398l-92.91093-158.23051v120.62965h27.09902v36.06612zm-153.35503 0v-36.06612h30.19605v-57.70578l-58.37903-83.64271h-26.32477v-36.0661h107.77668v36.0661h-21.21466l31.58971 52.18078 32.05427-52.18078h-22.14377v-36.0661h94.924v36.0661h-26.47961l-55.74656 83.64271v57.70578h30.0412v36.06612zm-204.028549 0v-36.06612h30.815459v-141.34849h-30.815459v-36.0661h118.306589v36.0661h-31.43487v141.34849h63.64399v-65.99331h41.96477v102.05943z" fill-opacity=".993702"/></g><g><path d="m259.99367 164.37902c-25.51296-54.72726-46.68593-99.688715-47.05104-99.914366-.36511-.225648-14.88814 30.065075-32.2734 67.312716l-31.60956 67.72299-74.529836.25637-74.529834.25636v-4.99967-4.99965l70.529128-.25671 70.529132-.25671 35.83981-76.7816 35.83981-76.781582 46.76093 100.281622c25.71852 55.15491 46.83076 100.3724 46.91609 100.48334.0853.11093 5.55076-11.36409 12.14537-25.50005l11.99021-25.70174 294.22476-.25169 294.22476-.25167v4.99998 4.99999l-290.19552.2517-290.19552.25171-7.05448 15.01771c-13.63917 29.03533-17.33594 37.09645-20.52316 44.75251-1.76905 4.24945-3.5391 7.92569-3.93344 8.16941-.39435.24372-21.59124-44.33372-47.10421-99.06097zm815.00633 25.62132v-5.00001h123 123v5.00001 5.00001h-123-123zm402 0v-5.00001h7.5 7.5v5.00001 5.00001h-7.5-7.5z" fill="#fefefe"/><g stroke="#fff"><path d="m1037.4025 28.864939h111.6v111.600011h-111.6z" fill="#fef100" height="111.60001" mask="url(#a)" opacity=".98" stroke-width="9.3" width="111.60001" x="1037.4025" y="28.864939"/><path d="m1037.4025 28.864939h111.6v111.600011h-111.6z" fill="#ec1b23" height="111.60001" mask="url(#b)" opacity=".98" stroke-width="9.3" transform="translate(-95.464424 148.48716)" width="111.60001" x="1037.4025" y="28.864939"/><path d="m1037.4025 28.864939h111.6v111.600011h-111.6z" fill="#fe7e26" height="111.60001" mask="url(#c)" opacity=".98" stroke-width="9.3" transform="translate(161.9349 -20.551676)" width="111.60001" x="1037.4025" y="28.864939"/><path d="m1037.4025 28.864939h111.6v111.600011h-111.6z" fill="#21b04b" height="111.60001" mask="url(#d)" opacity=".98" stroke-width="9.3" transform="translate(304.6597 83.16187)" width="111.60001" x="1037.4025" y="28.864939"/><path d="m1037.4025 28.864939h111.6v111.600011h-111.6z" fill="#3e47ca" height="111.60001" mask="url(#e)" opacity=".98" stroke-width="4.50582" transform="matrix(2.0603844 0 0 2.0676194 -1052.1048 188.0212)" width="111.60001" x="1037.4025" y="28.864939"/></g></g></svg>