<?xml version="1.0" encoding="UTF-8" standalone="no"?>
<svg
   viewBox="0 0 295.457 90.473"
   width="295.457"
   height="90.473"
   version="1.1"
   id="svg9"
   sodipodi:docname="cassettevision.svg"
   xml:space="preserve"
   inkscape:version="1.4 (e7c3feb1, 2024-10-09)"
   xmlns:inkscape="http://www.inkscape.org/namespaces/inkscape"
   xmlns:sodipodi="http://sodipodi.sourceforge.net/DTD/sodipodi-0.dtd"
   xmlns="http://www.w3.org/2000/svg"
   xmlns:svg="http://www.w3.org/2000/svg"><defs
     id="defs9" /><sodipodi:namedview
     id="namedview9"
     pagecolor="#ffffff"
     bordercolor="#000000"
     borderopacity="0.25"
     inkscape:showpageshadow="2"
     inkscape:pageopacity="0.0"
     inkscape:pagecheckerboard="0"
     inkscape:deskcolor="#d1d1d1"
     inkscape:zoom="1.7509369"
     inkscape:cx="184.75823"
     inkscape:cy="101.94542"
     inkscape:window-width="1440"
     inkscape:window-height="872"
     inkscape:window-x="0"
     inkscape:window-y="28"
     inkscape:window-maximized="0"
     inkscape:current-layer="svg9" /><path
     style="fill:#000000;fill-opacity:1"
     d="m 202.90282,70.705012 c 0.11458,-0.0462 0.30208,-0.0462 0.41667,0 0.11458,0.0462 0.0208,0.0841 -0.20834,0.0841 -0.22916,0 -0.32291,-0.0378 -0.20833,-0.0841 z M 26.006301,67.309772 c -3.45048,-0.76609 -6.098733,-2.27339 -8.616056,-4.90397 -2.991909,-3.126522 -4.47792,-6.753334 -4.717047,-11.512598 -0.09476,-1.885886 -0.06011,-2.402114 0.262834,-3.916667 0.921732,-4.322711 2.566527,-7.214291 5.737031,-10.085805 1.339061,-1.212782 1.40972,-1.259197 3.438075,-2.258439 0.779167,-0.383846 1.552126,-0.765441 1.717686,-0.847989 0.165561,-0.08255 0.990561,-0.295648 1.833334,-0.473556 2.215799,-0.467751 6.132618,-0.459664 7.910378,0.01633 1.603636,0.429375 3.329108,1.107121 3.852747,1.513314 0.218612,0.16958 0.458602,0.308328 0.533311,0.308328 0.224416,0 1.52124,0.92599 2.277546,1.626269 0.510342,0.472537 0.708333,0.787036 0.708333,1.125153 0,0.506339 -0.5584,1.561811 -1.444776,2.730878 -0.305373,0.402765 -0.555224,0.822391 -0.555224,0.932502 0,0.313051 -0.571129,0.751865 -0.978573,0.751865 -0.202947,0 -0.797041,-0.317004 -1.32021,-0.704452 -2.182648,-1.616426 -4.979204,-2.628882 -7.261365,-2.628882 -1.191079,0 -3.26729,0.497985 -4.313385,1.034578 -1.872028,0.960254 -4.059652,3.075732 -4.840711,4.68107 -0.986717,2.028031 -1.189862,2.992218 -1.183593,5.617686 0.0062,2.594945 0.21814,3.562325 1.165259,5.318623 1.105111,2.049272 3.315168,4.236176 5.079538,5.026324 1.289095,0.577302 1.730485,0.603749 2.113004,0.126603 0.159519,-0.198982 0.458785,-0.526332 0.665035,-0.727446 0.20625,-0.201113 0.375,-0.421357 0.375,-0.48943 0,-0.111893 2.583804,-4.096378 3.649583,-5.628024 0.238563,-0.342842 0.55946,-0.85711 0.713105,-1.142819 0.153646,-0.285708 0.423475,-0.680201 0.599621,-0.87665 0.457634,-0.510384 1.972319,-2.770734 3.031478,-4.523848 0.498431,-0.825 1.96854,-3.1125 3.266909,-5.083333 1.298369,-1.970834 3.005435,-4.569336 3.793478,-5.77445 0.788044,-1.205113 1.633351,-2.348863 1.87846,-2.541666 0.406963,-0.320118 0.657979,-0.350551 2.891323,-0.350551 2.929792,0 3.016521,0.03898 3.196737,1.436738 0.16688,1.294328 0.399439,30.133814 0.249434,30.932204 -0.100731,0.53613 -0.199049,0.64192 -0.734874,0.79073 -0.340222,0.0945 -1.458807,0.17222 -2.485743,0.17273 -1.779621,8.9e-4 -2.625038,-0.16664 -2.921957,-0.57901 -0.06735,-0.0935 -0.123597,-2.43345 -0.125,-5.19982 -0.0022,-4.348009 -0.03805,-5.065262 -0.264457,-5.291667 -0.220003,-0.219999 -0.77657,-0.261901 -3.478774,-0.261901 H 38.486926 L 37.8407,56.387755 c -1.097115,1.254669 -1.396227,1.71456 -1.396227,2.146726 0,0.336479 0.06497,0.39938 0.338611,0.327822 0.186236,-0.0487 0.422645,-0.247931 0.525352,-0.442731 0.314075,-0.59569 1.011605,-1.148593 1.630749,-1.292628 0.323742,-0.07531 1.645747,-0.138723 2.93779,-0.14091 2.115087,-0.0036 2.378286,0.0282 2.641375,0.318907 0.372969,0.412126 0.211029,0.949741 -0.807832,2.681871 -1.45128,2.46727 -3.892164,4.64925 -6.829301,6.10491 -2.871959,1.42336 -7.576757,1.95033 -10.874916,1.21805 z M 45.185023,49.444973 c 0.189389,-0.270391 0.25945,-0.786378 0.25945,-1.910803 0,-1.35586 -0.03887,-1.56119 -0.324517,-1.714061 -0.286098,-0.153115 -0.41394,-0.03544 -1.079851,0.993951 -0.415434,0.642195 -0.906101,1.463154 -1.090371,1.824353 -0.303607,0.595118 -0.310634,0.681128 -0.07491,0.916852 0.171159,0.171158 0.566338,0.260126 1.155438,0.260126 0.736253,0 0.941404,-0.06581 1.154761,-0.370418 z m 15.262721,17.757829 c -0.410701,-0.0423 -0.823201,-0.13951 -0.916666,-0.21591 -0.09346,-0.0764 -0.480439,-0.22191 -0.859941,-0.32336 -1.14955,-0.3073 -2.218883,-1.01093 -3.495642,-2.30018 -1.731032,-1.74797 -2.519139,-3.462603 -2.950292,-6.418771 -0.0442,-0.303017 0.04316,-0.552595 0.26251,-0.75 0.289166,-0.260236 0.642462,-0.291631 2.93442,-0.260756 l 2.605675,0.0351 0.361638,0.450878 c 0.1989,0.247983 0.407624,0.682188 0.463829,0.964899 0.431852,2.172202 3.511846,3.43288 5.346006,2.188187 0.766457,-0.520132 1.499754,-1.361943 1.742462,-2.000314 0.472541,-1.242877 0.0044,-3.552092 -0.929732,-4.586058 -0.511301,-0.565948 -3.019279,-2.00446 -3.494683,-2.00446 -0.502542,0 -4.73952,-2.393673 -4.73952,-2.677584 0,-0.07331 -0.135991,-0.176449 -0.302202,-0.229202 -0.744981,-0.236448 -2.089126,-2.667454 -2.475646,-4.477429 -0.295595,-1.384194 -0.205941,-4.043552 0.178644,-5.299024 0.666945,-2.177232 2.388604,-4.23649 4.349204,-5.202037 3.331648,-1.640753 6.350704,-1.439262 9.444312,0.630312 l 0.610977,0.408735 0.72236,-0.407197 c 3.18108,-1.793203 5.8154,-2.151206 8.54475,-1.16123 1.727163,0.626467 3.128353,1.710968 4.386233,3.394885 1.09621,1.467494 1.57425,2.797623 1.50846,4.197178 l -0.0504,1.072592 -2.5,0.04778 c -1.375,0.02628 -2.65393,0.0098 -2.84206,-0.03657 -0.34934,-0.08614 -1.241273,-1.286262 -1.241273,-1.670157 0,-0.387916 -1.24728,-1.096744 -2.09922,-1.192986 -1.69791,-0.19181 -3.06745,1.141847 -3.06745,2.98707 0,1.640698 1.05677,2.816395 3.48812,3.88068 0.7857,0.343926 1.54695,0.724817 1.69167,0.846424 0.14472,0.121606 0.3521,0.221103 0.46086,0.221103 0.25682,0 1.876273,0.908361 2.959573,1.660047 1.57291,1.091414 3.22485,3.538715 3.55158,5.261566 0.52224,2.753754 0.35323,4.873201 -0.57329,7.189126 -0.39622,0.990403 -2.12855,3.389263 -2.44754,3.389263 -0.072,0 -0.28277,0.1518 -0.46831,0.33734 -0.55248,0.55248 -1.84059,1.2763 -2.995993,1.68352 -0.91849,0.32372 -1.41304,0.38137 -3.25,0.37886 -2.27821,-0.003 -3.45438,-0.25163 -4.99358,-1.05508 -0.79315,-0.41402 -1.337242,-0.43381 -2.006425,-0.073 -1.54778,0.83457 -2.490041,1.08191 -4.333334,1.13748 -1.008333,0.0304 -2.169362,0.0206 -2.580064,-0.0217 z m 15.565833,-6.713855 c 1.26571,-0.612719 2.214503,-2.426799 2.008493,-3.840223 -0.317573,-2.178878 -1.610303,-3.335265 -5.397063,-4.827867 -1.18336,-0.466439 -1.50734,0.01198 -0.8755,1.29284 0.49214,0.99766 0.75502,3.169067 0.62755,5.183562 -0.10844,1.713741 -0.0983,1.793989 0.26904,2.132799 0.20994,0.193631 0.53171,0.392226 0.71505,0.441322 0.64208,0.171949 1.87421,-0.0057 2.65243,-0.382433 z M 66.187808,46.757542 c 0.271968,-0.198868 0.283214,-0.289304 0.09844,-0.791667 -0.398932,-1.084634 -0.523991,-1.744416 -0.671994,-3.545281 -0.123949,-1.508184 -0.209819,-1.876337 -0.512892,-2.198944 -0.973549,-1.036294 -2.673897,-1.219909 -3.792571,-0.409545 -0.908371,0.65802 -1.197653,1.262665 -1.197653,2.503286 0,1.908787 0.695458,2.590733 4.083334,4.003998 1.802515,0.751926 1.619299,0.711653 1.993333,0.438153 z m 21.923342,20.23273 c -2.57177,-0.10577 -3.15619,-0.26906 -3.18209,-0.88908 -0.0541,-1.29358 0.0312,-21.200718 0.11079,-25.869135 0.0825,-4.836785 0.13514,-5.709381 0.35978,-5.958333 0.24284,-0.269122 0.81371,-0.291667 7.38555,-0.291667 6.71581,0 7.1444,0.01784 7.5083,0.312505 0.37024,0.299804 0.38623,0.409563 0.39346,2.700487 l 0.008,2.387981 -0.41667,0.116234 c -0.22916,0.06393 -2.22234,0.123709 -4.42928,0.132846 -5.03647,0.02085 -4.74299,-0.151639 -4.72553,2.777356 0.0173,2.895802 0.19286,4.515398 0.52563,4.848166 0.24112,0.241128 0.82683,0.28853 4.32902,0.350362 3.13081,0.05528 4.13529,0.125633 4.42516,0.30996 0.36057,0.229279 0.375,0.331072 0.375,2.645415 0,2.209116 -0.0265,2.421142 -0.32237,2.579491 -0.19744,0.105666 -1.92909,0.172531 -4.46815,0.172531 -3.31695,0 -4.21044,0.04728 -4.46929,0.236512 -0.2908,0.21259 -0.33195,0.511417 -0.40685,2.954343 -0.11178,3.645457 -0.0584,4.263176 0.39375,4.559459 0.27313,0.178964 1.3509,0.263445 4.44178,0.348173 3.30111,0.09049 4.13688,0.160416 4.3728,0.365854 0.25129,0.21882 0.29167,0.57083 0.29167,2.5425 v 2.28851 l -0.56686,0.26899 c -0.48325,0.22932 -1.22679,0.26464 -5.04166,0.23946 -2.46115,-0.0162 -5.56232,-0.0743 -6.89148,-0.12892 z m 51.93163,-0.19297 c -1.36678,-0.0744 -2.55611,-0.20639 -2.64296,-0.29324 -0.17184,-0.17184 -0.16423,-9.084588 0.0197,-23.115189 0.10139,-7.733613 0.13837,-8.55076 0.40543,-8.958334 l 0.29385,-0.448482 3.12116,3.83e-4 c 1.71664,2.11e-4 4.88074,0.05014 7.03135,0.110944 5.00229,0.14144 4.72338,-0.04189 4.64461,3.053043 -0.0341,1.339823 -0.12776,2.226028 -0.24793,2.3459 -0.13467,0.134344 -1.47622,0.199773 -4.43271,0.216189 -3.32138,0.01844 -4.29929,0.07308 -4.51521,0.252282 -0.24024,0.199378 -0.27529,0.670049 -0.27306,3.666667 0.001,1.890859 0.0737,3.550426 0.16055,3.687926 0.13064,0.206704 0.91395,0.270298 4.52299,0.367206 2.79196,0.07497 4.43086,0.18308 4.54778,0.3 0.28437,0.284371 0.24418,4.707592 -0.046,5.057178 -0.20221,0.243645 -0.73931,0.275616 -4.63023,0.275616 -4.03516,0 -4.41146,0.02428 -4.52126,0.291667 -0.19369,0.471674 -0.14437,7.166449 0.0543,7.365408 0.0957,0.09588 1.22072,0.212627 2.5,0.259444 5.06617,0.185406 6.31624,0.270418 6.52509,0.443742 0.15967,0.13252 0.21755,0.7908 0.21755,2.47431 0,2.25403 -0.007,2.29842 -0.41081,2.56293 -0.35612,0.23334 -1.03828,0.26588 -5.125,0.24445 -2.5928,-0.0136 -5.83246,-0.0856 -7.19923,-0.16004 z m 63.65171,-0.0718 c -1.75087,-0.33098 -3.09759,-0.93847 -4.3625,-1.96788 -1.77162,-1.44178 -2.67535,-2.86995 -3.39102,-5.358847 l -0.28754,-1 -0.20158,0.735627 c -0.11087,0.404595 -0.18675,1.192095 -0.16863,1.75 0.0986,3.03621 -0.009,5.2438 -0.2673,5.50247 -0.21609,0.21609 -0.72458,0.2619 -2.90683,0.2619 -1.93292,0 -2.68123,-0.0561 -2.77977,-0.20833 -0.14974,-0.23137 -0.0972,-28.837796 0.0565,-30.745495 0.0631,-0.783442 0.18655,-1.278151 0.3535,-1.416666 0.31394,-0.260488 5.16951,-0.195656 5.49682,0.07339 0.16291,0.133907 0.20834,2.616883 0.20834,11.38721 0,6.168779 0.0433,11.328796 0.0962,11.466706 0.0815,0.212452 0.14515,0.201807 0.41666,-0.0697 0.28641,-0.286408 0.57477,-0.320447 2.71464,-0.320447 2.6932,0 3.13429,0.158106 3.36444,1.205948 0.28009,1.275243 1.58522,2.476914 3.04864,2.806969 1.56521,0.353011 3.37428,-0.633594 4.13238,-2.253649 0.33172,-0.708886 0.37783,-1.001294 0.29054,-1.842601 -0.21025,-2.026494 -1.38902,-3.31408 -3.97691,-4.34404 -4.18099,-1.664003 -5.88579,-2.883694 -7.20666,-5.155961 -2.24268,-3.858055 -1.65711,-8.260036 1.5241,-11.45731 1.34686,-1.353669 2.56221,-1.978123 4.44427,-2.283495 3.56798,-0.578921 6.2804,0.266333 8.54841,2.663885 1.1043,1.167381 1.76642,2.372051 2.17913,3.964754 0.61048,2.355915 0.44093,2.528833 -2.47956,2.528833 -1.21728,0 -2.43067,-0.07593 -2.69643,-0.168725 -0.33948,-0.11854 -0.63192,-0.447004 -0.98321,-1.104322 -1.085,-2.030246 -3.17251,-2.459995 -4.67092,-0.961586 -0.74953,0.749532 -0.98819,1.650121 -0.74619,2.815817 0.14952,0.720223 0.34285,1.052096 1.00438,1.724142 0.75955,0.771634 2.11561,1.55104 3.1503,1.810668 0.7897,0.198156 2.80979,1.190208 3.8002,1.866259 1.29251,0.882256 2.70576,2.398932 3.20021,3.434414 0.21886,0.458333 0.47411,0.983333 0.56721,1.166667 0.22788,0.448696 0.42681,1.410807 0.60305,2.916666 0.11717,1.001019 0.0827,1.576461 -0.17297,2.888979 -0.1756,0.901439 -0.43163,1.799377 -0.56894,1.995418 -0.13731,0.196042 -0.24966,0.448491 -0.24966,0.560999 0,0.304133 -0.95106,1.656683 -1.64355,2.337383 -0.80372,0.79003 -2.53252,2.05055 -2.81233,2.05055 -0.12238,0 -0.38864,0.10885 -0.59168,0.24189 -0.45212,0.29624 -3.04703,0.76473 -4.09927,0.74008 -0.42341,-0.01 -1.29484,-0.11727 -1.9365,-0.23857 z m -96.45837,-0.10883 c -0.27286,-0.20383 -0.29439,-1.06265 -0.33334,-13.298997 l -0.0416,-13.081099 -0.46381,-0.222287 c -0.29138,-0.139646 -1.09675,-0.223511 -2.16628,-0.22558 -1.05045,-0.002 -1.91008,-0.09003 -2.24453,-0.229776 l -0.54205,-0.226484 0.004,-1.800171 c 0.005,-2.04829 0.18161,-3.029941 0.60205,-3.337375 0.22615,-0.165364 2.01138,-0.212796 8.00916,-0.212796 7.49592,0 7.72774,0.0096 8.05148,0.333333 0.30145,0.301453 0.33333,0.555556 0.33333,2.656831 0,1.646898 -0.0591,2.360044 -0.20307,2.449001 -0.11169,0.06903 -1.06794,0.153315 -2.125,0.187306 -2.13781,0.06874 -2.80711,0.245331 -2.91703,0.769627 -0.0408,0.194646 -0.0991,6.109341 -0.12941,13.143767 -0.0431,9.9932 -0.10107,12.83581 -0.26489,13 -0.3087,0.30938 -5.17089,0.39207 -5.56896,0.0947 z m 17.87503,0.0493 -0.41667,-0.11627 V 53.440987 c 0,-10.514951 -0.0428,-13.151404 -0.21607,-13.324847 -0.15133,-0.151434 -0.8589,-0.224949 -2.36139,-0.24534 -3.03025,-0.04113 -2.89134,0.09221 -2.80879,-2.696164 0.038,-1.282721 0.15179,-2.428521 0.26081,-2.625618 0.16346,-0.295516 0.40768,-0.366383 1.5761,-0.457334 1.78618,-0.139039 8.01799,-0.138905 11.99985,2.57e-4 2.62456,0.09173 3.13525,0.150914 3.23153,0.374529 0.1594,0.370196 0.29784,4.074388 0.17114,4.57918 -0.14076,0.560832 -0.54255,0.6615 -2.69379,0.674923 -1.43121,0.0089 -1.936,0.07397 -2.26944,0.292427 -0.61929,0.405726 -0.5852,-0.39448 -0.88964,20.885725 -0.0743,5.195427 -0.0855,5.340877 -0.43177,5.624997 -0.30115,0.2471 -0.6901,0.28913 -2.54533,0.27506 -1.20443,-0.009 -2.37737,-0.0689 -2.60654,-0.1329 z m 57.17601,-0.59085 c -0.7854,-0.81033 -3.98925,-5.4045 -7.56159,-10.842976 -0.42149,-0.641667 -1.18968,-1.766667 -1.7071,-2.5 -0.51742,-0.733334 -1.65606,-2.420834 -2.53033,-3.75 -2.80056,-4.257777 -4.91351,-7.404353 -5.27518,-7.855744 -0.88156,-1.100243 -3.45657,-5.076277 -3.96133,-6.116637 -0.31568,-0.650653 -0.32498,-0.747881 -0.0936,-0.97921 0.2222,-0.222197 0.67824,-0.240197 3.38187,-0.13349 l 3.12504,0.12334 0.48967,0.522537 c 0.50216,0.535871 1.7276,2.350911 2.88462,4.272536 0.35876,0.595834 0.70493,1.122612 0.76927,1.170618 0.0643,0.04801 0.72021,1.023007 1.45748,2.166667 0.73727,1.14366 1.39868,2.154382 1.46979,2.246049 0.16636,0.214438 3.07205,4.521638 3.2921,4.87998 0.0917,0.149278 0.62314,0.987351 1.18106,1.862384 0.55791,0.875033 1.11289,1.77847 1.23328,2.007636 0.43725,0.832305 0.95179,0.892286 1.07229,0.125 0.0468,-0.297916 0.13008,-4.554167 0.1851,-9.458333 0.0831,-7.405192 0.14121,-8.980234 0.34299,-9.291667 0.23458,-0.362058 0.33128,-0.375 2.80205,-0.375 1.84557,0 2.60644,0.05809 2.72893,0.208333 0.34195,0.419437 0.39518,4.297448 0.21793,15.875001 -0.19404,12.673726 -0.29375,15.665096 -0.53746,16.124996 -0.13486,0.25448 -0.42589,0.29167 -2.28267,0.29167 h -2.12811 z m 54.90733,0.26205 c -0.91667,-0.16939 -2.02554,-0.43107 -2.46416,-0.58151 -0.43862,-0.15043 -0.88862,-0.27518 -1,-0.27722 -0.11138,-0.002 -0.39001,-0.15037 -0.61917,-0.32963 -0.22917,-0.17926 -0.51767,-0.32759 -0.64111,-0.32963 -0.50768,-0.008 -3.10749,-1.91683 -4.47725,-3.28663 -2.55693,-2.557007 -4.04697,-5.705543 -4.42111,-9.342073 -0.0967,-0.939583 -0.23132,-1.708333 -0.29923,-1.708333 -0.27904,0 -0.35447,1.420777 -0.43969,8.281434 -0.0827,6.657852 -0.11197,7.218512 -0.38988,7.470012 -0.25729,0.23284 -0.68686,0.26425 -2.98916,0.21857 -2.16728,-0.043 -2.71928,-0.10183 -2.84641,-0.30335 -0.18226,-0.28889 -0.22171,-21.174774 -0.0521,-27.556852 0.0884,-3.326216 0.15859,-4.188706 0.35687,-4.386986 0.3607,-0.360708 5.63438,-0.261418 5.86932,0.110504 0.0925,0.146393 0.15898,2.986962 0.16048,6.854167 0.002,6.252078 0.0614,7.645834 0.32353,7.645834 0.0619,0 0.20113,-0.54375 0.30928,-1.208334 0.64758,-3.979437 2.00378,-6.841225 4.45307,-9.396671 0.80036,-0.83505 2.92754,-2.561662 3.15595,-2.561662 0.11498,0 0.34481,-0.15 0.51072,-0.333334 0.16591,-0.183333 0.42335,-0.333333 0.57208,-0.333333 0.14873,0 0.44063,-0.11922 0.64866,-0.264934 0.20804,-0.145714 1.14348,-0.527301 2.07876,-0.84797 1.53004,-0.524593 1.93519,-0.59225 4.04179,-0.674951 1.81989,-0.07144 2.72925,-0.02562 4.08334,0.205769 0.95812,0.163726 1.81329,0.361674 1.90037,0.439885 0.0871,0.07821 0.25995,0.142201 0.38414,0.142201 0.1242,0 0.54045,0.142231 0.925,0.316069 0.38456,0.173838 0.96169,0.434937 1.28253,0.580221 1.69491,0.767507 2.21469,1.163478 4.41075,3.360105 1.40464,1.405005 1.96799,2.102192 2.3841,2.950463 0.29966,0.610904 0.61204,1.152266 0.69417,1.203026 0.26124,0.161456 0.99545,2.293703 1.24839,3.625483 0.26657,1.403577 0.5469,2.080674 0.76906,1.857527 0.0783,-0.07859 0.16505,-3.030394 0.1929,-6.55956 0.0382,-4.843846 0.10313,-6.508585 0.26483,-6.791667 0.20711,-0.362605 0.29526,-0.374825 2.66666,-0.3697 2.64891,0.0057 2.74061,0.03189 3.4126,0.973897 0.80428,1.127433 3.44431,4.988363 4.78987,7.004969 0.77917,1.167747 2.16667,3.225551 3.08334,4.572897 0.91666,1.347346 1.89195,2.804444 2.16731,3.237996 0.27536,0.433551 0.80272,1.200775 1.17193,1.704941 0.3692,0.504167 0.80189,1.122917 0.96153,1.375 0.3218,0.508159 0.69404,0.59607 0.8461,0.199819 0.0546,-0.142183 0.0569,-3.235933 0.005,-6.875 -0.10073,-7.092193 0.0545,-11.722815 0.40485,-12.0739 0.14436,-0.144687 0.99989,-0.225677 2.77269,-0.262483 2.3396,-0.04857 2.59166,-0.02547 2.88122,0.264095 0.29895,0.298946 0.32374,0.746097 0.42803,7.719897 0.18454,12.340232 0.1423,23.721382 -0.0889,23.952572 -0.13882,0.13882 -1.0123,0.2 -2.85532,0.2 h -2.65532 l -0.58981,-0.625 c -0.32439,-0.34375 -0.85825,-1.02889 -1.18635,-1.52253 -0.32809,-0.49365 -0.74654,-1.1039 -0.92987,-1.35612 -0.18333,-0.25222 -1.05987,-1.535826 -1.94786,-2.852464 -0.88799,-1.316637 -2.14141,-3.143886 -2.78538,-4.060552 -0.64397,-0.916667 -1.39434,-2.004167 -1.66749,-2.416667 -0.70847,-1.069924 -1.69498,-2.443593 -2.19538,-3.05695 -0.23619,-0.289511 -0.66792,-0.948845 -0.95939,-1.465188 -0.70709,-1.252601 -0.98907,-1.484286 -1.29587,-1.064716 -0.19131,0.261628 -0.23196,1.874519 -0.23196,9.202042 0,8.239505 -0.0212,8.905995 -0.29167,9.176475 -0.25769,0.25769 -0.5975,0.28587 -2.9166,0.24185 l -2.62494,-0.0498 -0.25068,-0.48477 c -0.20531,-0.39702 -0.26978,-1.70039 -0.35616,-7.200185 -0.058,-3.693475 -0.15993,-6.865006 -0.22648,-7.047848 -0.12444,-0.341907 -0.39198,0.565214 -0.91397,3.099002 -0.14056,0.682302 -0.62706,1.883269 -1.28138,3.163207 -0.97313,1.903578 -1.19672,2.206036 -2.88813,3.906924 -1.55934,1.56809 -2.0575,1.9576 -3.33333,2.60637 -0.825,0.41952 -1.875,0.89313 -2.33333,1.05248 -0.45834,0.15934 -0.98334,0.35403 -1.16667,0.43263 -1.74953,0.75009 -5.43121,0.98489 -8,0.51019 z m 5.33333,-6.174544 c 1.97023,-0.529965 2.45151,-0.763104 4.03117,-1.952753 1.17528,-0.885108 2.70823,-2.870209 3.15448,-4.084889 0.33202,-0.903783 0.88474,-3.54381 0.89215,-4.261386 0.008,-0.761054 -0.57497,-3.149957 -1.00489,-4.118818 -0.88356,-1.991123 -2.43244,-3.764661 -4.23957,-4.854498 -1.37445,-0.828896 -1.94116,-1.050712 -3.59785,-1.40823 -1.14227,-0.246507 -1.66869,-0.279029 -2.6078,-0.161109 -1.43133,0.179724 -2.68494,0.484169 -2.80702,0.681699 -0.0497,0.08039 -0.21716,0.147533 -0.37217,0.149201 -0.27413,0.003 -1.13224,0.516798 -2.40813,1.442029 -0.85077,0.616944 -2.01701,2.135835 -2.69807,3.513894 -1.58752,3.212221 -1.6064,6.309749 -0.0581,9.541044 1.26918,2.648847 3.9205,4.780931 6.88251,5.534644 1.43187,0.364352 3.43343,0.355727 4.83333,-0.02083 z M 37.13437,30.636006 c -0.939651,-0.184708 -2.182976,-0.988318 -2.895931,-1.871753 -0.652824,-0.808928 -1.247811,-2.346875 -1.355174,-3.502915 -0.04107,-0.442228 -0.116805,-0.846183 -0.168298,-0.897676 -0.05149,-0.05149 -0.538013,0.317802 -1.081156,0.820657 -1.087355,1.006699 -1.494283,1.131071 -3.700696,1.131071 -1.547849,0 -1.65531,0.129725 -1.65531,1.998274 0,0.810955 -0.04552,1.593098 -0.101164,1.738095 -0.137562,0.35848 -1.605903,0.366593 -1.901429,0.01051 -0.159652,-0.19237 -0.205737,-1.457242 -0.192002,-5.269861 0.0099,-2.759205 0.06284,-5.157799 0.117565,-5.330209 0.09148,-0.288225 0.296587,-0.313314 2.546595,-0.311495 2.366908,0.0019 3.630398,0.183003 4.491228,0.643705 0.439635,0.235286 1.205875,1.498566 1.205875,1.988096 0,0.374213 0.559975,0.785166 0.836777,0.614092 0.08977,-0.05548 0.163223,-0.214345 0.163223,-0.353029 0,-0.510416 0.882357,-1.735772 1.66202,-2.308098 1.54781,-1.136197 3.20117,-1.375546 5.211885,-0.754499 1.429397,0.441496 2.635132,1.657557 3.046491,3.072583 0.233668,0.803789 0.329288,0.940049 0.629122,0.896512 0.259321,-0.03765 0.388164,-0.218685 0.483332,-0.679106 0.143267,-0.693124 0.422791,-1.186684 1.272328,-2.24657 0.461829,-0.576181 0.768144,-0.769729 1.648578,-1.041667 1.98264,-0.612375 4.194539,-0.373466 5.456932,0.589408 0.722664,0.551203 1.296432,1.589032 1.224161,2.21426 -0.04697,0.406339 -0.122875,0.450213 -0.860138,0.49716 -0.780643,0.04971 -0.83543,0.02262 -1.583333,-0.78284 -1.019918,-1.098407 -1.983352,-1.384968 -2.961523,-0.880865 -1.748841,0.901269 -2.228906,2.063918 -1.974259,4.781378 0.121365,1.295143 0.122358,1.297157 1.413016,2.866284 0.300994,0.365936 1.420937,0.566831 2.195083,0.393753 0.553765,-0.123807 0.892511,-0.355843 1.469639,-1.006685 0.636168,-0.717422 0.838537,-0.844905 1.333334,-0.839936 0.821026,0.0082 1.069386,0.216843 1.050522,0.882341 -0.02378,0.83893 -0.674614,1.722971 -1.717189,2.332497 -0.857812,0.501507 -1.018324,0.535915 -2.5,0.535915 -2.130252,0 -2.790374,-0.227272 -4.015044,-1.382329 -0.791421,-0.746436 -1.072022,-1.148187 -1.304465,-1.867671 -0.218944,-0.677704 -0.38608,-0.930077 -0.641139,-0.968111 -0.295863,-0.04412 -0.37252,0.08115 -0.538281,0.879618 -0.16581,0.798698 -0.339559,1.082495 -1.22218,1.996276 -0.833729,0.863161 -1.200602,1.115196 -1.934142,1.328716 -0.975308,0.283894 -1.999612,0.311205 -3.154853,0.08412 z m 2.425018,-1.978279 c 1.36368,-0.619119 2.28787,-2.975594 1.893689,-4.828478 -0.285662,-1.342785 -0.787424,-2.264081 -1.503248,-2.760147 -1.200193,-0.831735 -2.453229,-0.715299 -3.389867,0.314996 -0.699344,0.769274 -0.922183,1.279079 -1.121988,2.56685 -0.259538,1.672765 0.215546,3.234455 1.282902,4.217134 0.980747,0.902943 1.667314,1.021376 2.838512,0.489645 z m -9.930754,-4.434718 c 0.310882,-0.160763 0.483413,-0.381374 0.485057,-0.620232 0.0014,-0.203896 0.06715,-0.472672 0.1461,-0.597279 0.231383,-0.365187 -0.322238,-1.532444 -0.891466,-1.879571 -0.548429,-0.334442 -2.306884,-0.432153 -2.748561,-0.152728 -0.276095,0.17467 -0.445458,1.988237 -0.272014,2.912773 0.100339,0.53485 0.160205,0.582683 0.810863,0.647868 0.981539,0.09834 1.903026,-0.01763 2.470021,-0.310831 z m 55.315846,6.44406 c -0.36201,-0.1 -0.42352,-0.222804 -0.46894,-0.936199 -0.0591,-0.928903 0.19724,-1.248813 1.00079,-1.248813 1.06226,0 1.52864,1.332691 0.69567,1.987903 -0.46375,0.36479 -0.56286,0.380705 -1.22752,0.197109 z m 8.39888,-0.0266 c -1.92516,-0.151192 -3.14364,-1.117762 -4.08662,-3.241748 -0.49623,-1.117735 -0.54908,-3.912949 -0.0974,-5.150155 0.89145,-2.4416 2.52665,-3.600937 5.12659,-3.634697 1.58758,-0.02061 2.45558,0.355159 3.56835,1.544797 0.70398,0.752608 0.77098,0.894514 0.7246,1.534672 l -0.0511,0.705383 -0.659,-0.02203 c -0.57003,-0.01905 -0.76132,-0.136638 -1.41667,-0.870801 -0.41671,-0.466826 -0.96879,-0.925664 -1.22684,-1.01964 -1.40595,-0.512012 -2.88603,0.218383 -3.7066,1.829134 -0.38028,0.746473 -0.51287,2.866251 -0.24827,3.969213 0.40565,1.690944 1.99829,2.861632 3.57199,2.62564 0.93307,-0.139922 1.43353,-0.528295 1.94833,-1.511958 l 0.40373,-0.771447 -0.39756,-0.32571 c -0.29978,-0.245594 -0.53714,-0.299526 -0.965,-0.219258 -0.96457,0.180954 -1.65666,-0.86391 -0.9569,-1.444658 0.39041,-0.324017 3.55359,-0.242454 3.89652,0.100473 0.20369,0.203696 0.25172,0.724052 0.24624,2.667845 -0.008,2.90963 -0.0722,3.042591 -1.30667,2.712433 -0.70701,-0.189095 -0.84683,-0.178311 -1.32035,0.101835 -0.69411,0.410648 -1.59374,0.534835 -3.0474,0.420673 z M 74.277807,30.433957 c -0.33852,-0.170494 -0.42598,-0.3525 -0.46636,-0.970474 -0.0664,-1.01665 0.19515,-1.233442 1.25568,-1.04073 l 0.79402,0.144283 0.0502,0.775437 c 0.042,0.649718 -0.0113,0.818465 -0.32875,1.040842 -0.45453,0.318366 -0.75037,0.329849 -1.30475,0.05064 z m 7.500003,0.103742 c -1.06102,-0.167121 -1.12504,-0.214976 -1.46549,-1.095437 -0.58205,-1.505319 -1.1338,-3.120112 -1.95107,-5.710207 -0.433873,-1.375 -0.888143,-2.771556 -1.009513,-3.103457 -0.12136,-0.331901 -0.17889,-0.763151 -0.12785,-0.958333 0.0801,-0.30638 0.21489,-0.354877 0.986193,-0.354877 1.07856,0 1.17756,0.119535 1.79445,2.166666 1.16575,3.868535 1.64549,5.333108 1.74615,5.330782 0.26682,-0.0062 0.47107,-0.293692 0.64937,-0.914115 0.59805,-2.081048 0.93406,-3.204314 1.04698,-3.5 0.07,-0.183333 0.26106,-0.820833 0.42454,-1.416667 0.37592,-1.370134 0.62479,-1.666666 1.39874,-1.666666 1.08795,0 1.25458,0.565105 0.6681,2.265795 -0.32661,0.947106 -0.50526,1.513795 -1.04585,3.317538 -0.13736,0.458334 -0.41196,1.283334 -0.61022,1.833334 -0.19826,0.55 -0.53471,1.521437 -0.74766,2.158749 -0.33808,1.011786 -0.90256,1.805761 -1.23366,1.73522 -0.0586,-0.01248 -0.29404,-0.05223 -0.52321,-0.08833 z m 28.38816,-0.136001 c -0.34736,-0.243305 -0.35231,-0.326308 -0.32875,-5.513423 0.023,-5.056861 0.0372,-5.276394 0.35726,-5.517579 0.44207,-0.333116 2.30318,-0.209677 2.73534,0.181423 0.16641,0.150602 0.46781,0.852698 0.66978,1.560212 0.20196,0.707515 0.50544,1.77389 0.67439,2.369724 0.16896,0.595833 0.35819,1.403061 0.42053,1.793839 0.0734,0.459932 0.23062,0.773281 0.44592,0.888503 0.42498,0.227441 0.46575,0.178389 0.73392,-0.882992 0.76663,-3.034208 1.46357,-5.258866 1.78184,-5.687737 0.44906,-0.605092 2.84363,-0.558253 3.03968,0.05946 0.0569,0.179388 0.10403,2.618877 0.10466,5.421088 8.3e-4,3.705083 -0.0531,5.16034 -0.19787,5.334717 -0.30508,0.36761 -1.44179,0.310795 -1.65232,-0.08259 -0.0982,-0.183387 -0.17253,-1.463074 -0.17253,-2.968145 0,-2.03092 -0.0553,-2.720952 -0.2381,-2.96929 -0.26985,-0.366672 -0.23226,-0.431826 -0.67876,1.176478 -0.15269,0.55 -0.42136,1.455287 -0.59705,2.011749 -0.17568,0.556462 -0.32108,1.156462 -0.32309,1.333334 -0.002,0.176871 -0.14835,0.640334 -0.32518,1.029917 -0.31365,0.690986 -0.34112,0.708271 -1.12134,0.705781 -0.4399,-0.0014 -0.89066,-0.06028 -1.00169,-0.130841 -0.2712,-0.172347 -0.7115,-1.245037 -0.97141,-2.366607 -0.42019,-1.813174 -0.9423,-3.58743 -1.1181,-3.799555 -0.35631,-0.429932 -0.45351,0.208591 -0.45607,2.995984 -0.002,2.302462 -0.0475,2.824732 -0.26445,3.041667 -0.33002,0.330019 -1.05651,0.337147 -1.51661,0.01488 z m 11.46426,0.02002 c -0.13821,-0.166527 -0.18988,-1.70819 -0.18105,-5.401569 0.0116,-4.860189 0.0313,-5.185652 0.3295,-5.455541 0.28484,-0.257778 0.68411,-0.279881 3.92005,-0.217013 3.89438,0.07566 3.90465,0.0783 3.90987,1.0036 0.001,0.265082 -0.11824,0.514084 -0.28912,0.601244 -0.16041,0.08183 -1.37663,0.163741 -2.7027,0.182033 -1.41028,0.01945 -2.49985,0.106964 -2.625,0.210831 -0.27871,0.231305 -0.28312,1.873896 -0.006,2.096106 0.24801,0.198605 2.15096,0.41414 3.49001,0.395291 0.80349,-0.01131 0.99564,0.04468 1.21163,0.353043 0.31385,0.448084 0.3208,0.640933 0.0371,1.028915 -0.18757,0.256521 -0.53192,0.308697 -2.36171,0.357848 -1.60851,0.04321 -2.20349,0.11892 -2.38851,0.303942 -0.32446,0.324458 -0.30867,2.394558 0.0208,2.724005 0.16054,0.160544 0.87119,0.253628 2.38061,0.311826 1.18347,0.04563 2.39961,0.120766 2.70255,0.16697 0.5327,0.08125 0.54913,0.10698 0.5,0.783076 l -0.0508,0.699068 -3.85209,0.04468 c -3.13671,0.03638 -3.88801,0.0014 -4.0455,-0.188357 z M 55.354325,30.247683 c -0.295224,-0.215874 -0.313892,-0.536913 -0.320015,-5.50345 -0.0056,-4.511657 0.02964,-5.297061 0.243498,-5.432304 0.356074,-0.225184 1.562686,-0.200519 1.8,0.03679 0.128526,0.128526 0.2,0.78762 0.2,1.84429 0,2.340927 -0.05091,2.289044 2.246028,2.289044 1.045531,0 1.938694,-0.06105 1.984805,-0.135655 0.04611,-0.07461 0.13164,-0.955859 0.190063,-1.958333 0.08082,-1.386799 0.170384,-1.872501 0.374518,-2.031013 0.341545,-0.265211 1.409052,-0.270534 1.671253,-0.0083 0.147016,0.147016 0.2,1.578836 0.2,5.404762 0,4.50938 -0.03499,5.239754 -0.261905,5.466667 -0.327775,0.327776 -1.055604,0.337777 -1.508257,0.02073 -0.304762,-0.213464 -0.356699,-0.476808 -0.451961,-2.291667 -0.136195,-2.594683 -0.170319,-2.633821 -2.296342,-2.633821 -2.090997,0 -2.147423,0.06887 -2.150754,2.625 -0.0014,1.077083 -0.05765,2.040697 -0.125,2.141364 -0.20713,0.309608 -1.44325,0.423816 -1.795931,0.165929 z m 15.215952,-0.05729 c -0.21526,-0.242224 -0.27162,-0.99799 -0.3325,-4.458333 -0.0403,-2.291667 -0.1266,-4.286896 -0.19173,-4.433841 -0.0872,-0.196829 -0.50019,-0.306535 -1.56834,-0.416667 l -1.449899,-0.149493 -0.05304,-0.552554 c -0.09886,-1.029937 -0.09512,-1.030779 4.577569,-1.030779 h 4.23372 l 0.16254,0.427517 c 0.40568,1.067009 0.0655,1.359116 -1.60545,1.378572 -0.70752,0.0082 -1.36791,0.09634 -1.46754,0.195786 -0.11684,0.116636 -0.21071,1.747804 -0.26446,4.595857 -0.0695,3.67996 -0.12496,4.441308 -0.33334,4.572773 -0.41954,0.264691 -1.42525,0.188808 -1.70753,-0.128838 z m 29.339133,0 c -0.0327,-0.160417 -0.009,-0.591667 0.0533,-0.958333 0.11259,-0.665699 0.20387,-0.950577 0.90781,-2.833334 0.20564,-0.55 0.67794,-1.9375 1.04955,-3.083333 0.94222,-2.905203 1.31707,-3.871263 1.56259,-4.027095 0.11653,-0.07396 0.60018,-0.135616 1.07477,-0.13702 1.02148,-0.003 1.37942,0.333693 1.71637,1.614592 0.11567,0.439737 0.39886,1.287023 0.62932,1.882856 0.51685,1.336335 1.01514,2.75417 1.20077,3.416667 0.077,0.275 0.37376,1.243875 0.65936,2.153056 0.62894,2.002191 0.58484,2.263611 -0.38186,2.263611 -0.82518,0 -1.35134,-0.397871 -1.51569,-1.146149 -0.0597,-0.271799 -0.2878,-0.687606 -0.50689,-0.924015 -0.35749,-0.385738 -0.5146,-0.427813 -1.53132,-0.410117 -1.90154,0.0331 -2.08335,0.113239 -2.47271,1.089939 -0.49676,1.246148 -0.66115,1.390342 -1.5851,1.390342 -0.6288,0 -0.81349,-0.06262 -0.86022,-0.291667 z m 5.53507,-4.041667 c 0.37473,-0.374734 0.39542,-0.489735 0.18593,-1.033824 -0.0811,-0.210563 -0.3157,-0.930237 -0.5214,-1.599275 -0.26404,-0.858789 -0.44593,-1.2018 -0.61865,-1.166666 -0.25101,0.05106 -0.60111,0.870061 -0.87622,2.049765 -0.0855,0.366667 -0.20264,0.861079 -0.2603,1.098695 -0.14617,0.602395 0.28185,0.984639 1.10255,0.984639 0.43254,0 0.76789,-0.113132 0.98809,-0.333334 z m -90.097438,3.810527 c -0.185389,-0.299966 -0.153513,-10.459584 0.0334,-10.646501 0.152409,-0.152408 3.63646,-0.258261 6.351851,-0.192982 1.093388,0.02629 1.230327,0.06839 1.484575,0.456418 0.267666,0.408509 0.263949,0.443598 -0.08382,0.791371 -0.332641,0.33264 -0.577205,0.371094 -2.846298,0.447538 -1.365314,0.046 -2.518531,0.121129 -2.562703,0.166962 -0.211747,0.219708 -0.175231,1.809684 0.04976,2.166667 0.122315,0.194071 0.649148,0.268643 2.35491,0.333334 2.451358,0.09297 2.70634,0.212101 2.388986,1.116205 l -0.163969,0.467128 -1.912965,0.04099 c -2.52942,0.0542 -2.615516,0.07973 -2.817874,0.835685 -0.163036,0.60906 -0.106762,2.166776 0.08525,2.359652 0.05311,0.05335 1.271765,0.134505 2.708117,0.180339 1.436351,0.04583 2.705298,0.144009 2.819882,0.218169 0.290949,0.188307 0.260038,0.872983 -0.05357,1.186593 -0.222484,0.222484 -0.82306,0.261904 -3.990164,0.261904 -2.604909,0 -3.763543,-0.05709 -3.845361,-0.189473 z"
     id="path6" /></svg>
