<?xml version="1.0" encoding="UTF-8" standalone="no"?>
<!-- Created with Inkscape (http://www.inkscape.org/) -->

<svg
   width="388.80844"
   height="169.96323"
   id="svg4179"
   version="1.1"
   inkscape:version="1.1.2 (0a00cf5339, 2022-02-04)"
   sodipodi:docname="cave.svg"
   viewBox="0 0 1088.6636 475.89703"
   xmlns:inkscape="http://www.inkscape.org/namespaces/inkscape"
   xmlns:sodipodi="http://sodipodi.sourceforge.net/DTD/sodipodi-0.dtd"
   xmlns="http://www.w3.org/2000/svg"
   xmlns:svg="http://www.w3.org/2000/svg"
   xmlns:rdf="http://www.w3.org/1999/02/22-rdf-syntax-ns#"
   xmlns:cc="http://creativecommons.org/ns#"
   xmlns:dc="http://purl.org/dc/elements/1.1/">
  <defs
     id="defs4181">
    <clipPath
       clipPathUnits="userSpaceOnUse"
       id="clipPath3033">
      <path
         inkscape:connector-curvature="0"
         d="m 187.087,42.52 h 62.362 v 62.362 h -62.362 z"
         clip-rule="evenodd"
         id="path3035" />
    </clipPath>
    <clipPath
       clipPathUnits="userSpaceOnUse"
       id="clipPath3041">
      <path
         inkscape:connector-curvature="0"
         d="m -948.174,452.103 h 141.731 v 158.165 h -141.731 z"
         id="path3043" />
    </clipPath>
    <clipPath
       clipPathUnits="userSpaceOnUse"
       id="clipPath3049">
      <path
         inkscape:connector-curvature="0"
         d="m -948.174,452.103 h 141.731 v 158.165 h -141.731 z"
         id="path3051" />
    </clipPath>
    <filter
       inkscape:menu-tooltip="In and out glow with a possible offset and colorizable flood"
       inkscape:menu="Shadows and Glows"
       inkscape:label="Cutout Glow"
       style="color-interpolation-filters:sRGB"
       id="filter983"
       x="-0.083403684"
       y="-0.060296291"
       width="1.2015589"
       height="1.145716">
      <feOffset
         dy="3"
         dx="3"
         id="feOffset973" />
      <feGaussianBlur
         stdDeviation="3"
         result="blur"
         id="feGaussianBlur975" />
      <feFlood
         flood-color="rgb(0,0,0)"
         flood-opacity="1"
         result="flood"
         id="feFlood977" />
      <feComposite
         in="flood"
         in2="SourceGraphic"
         operator="in"
         result="composite"
         id="feComposite979" />
      <feBlend
         in="blur"
         in2="composite"
         mode="normal"
         id="feBlend981" />
    </filter>
  </defs>
  <sodipodi:namedview
     id="base"
     pagecolor="#ffffff"
     bordercolor="#666666"
     borderopacity="1.0"
     inkscape:pageopacity="0.0"
     inkscape:pageshadow="2"
     inkscape:zoom="1.979899"
     inkscape:cx="196.97975"
     inkscape:cy="166.42263"
     inkscape:document-units="px"
     inkscape:current-layer="layer1"
     showgrid="false"
     fit-margin-top="0"
     fit-margin-left="0"
     fit-margin-right="0"
     fit-margin-bottom="0"
     inkscape:window-width="1366"
     inkscape:window-height="703"
     inkscape:window-x="0"
     inkscape:window-y="0"
     inkscape:window-maximized="1"
     inkscape:pagecheckerboard="1"
     showguides="true"
     inkscape:guide-bbox="true"
     scale-x="1.7">
    <sodipodi:guide
       position="850.08021,-44.102976"
       orientation="0,-1"
       id="guide938" />
  </sodipodi:namedview>
  <metadata
     id="metadata4184">
    <rdf:RDF>
      <cc:Work
         rdf:about="">
        <dc:format>image/svg+xml</dc:format>
        <dc:type
           rdf:resource="http://purl.org/dc/dcmitype/StillImage" />
      </cc:Work>
    </rdf:RDF>
  </metadata>
  <g
     inkscape:label="Layer 1"
     inkscape:groupmode="layer"
     id="layer1"
     transform="translate(-109.32222,-346.7882)">
    <g
       transform="matrix(8.8062763,0,0,-8.8062763,-1610.1687,1294.2687)"
       id="g3029">
      <g
         id="g3031"
         clip-path="url(#clipPath3033)">
        <g
           id="g3037"
           transform="matrix(0.4006042,0,0,-0.3950043,566.92914,283.46457)">
          <g
             id="g3039"
             clip-path="url(#clipPath3041)">
            <g
               id="g3045">
              <g
                 id="g3047"
                 clip-path="url(#clipPath3049)">
                <path
                   inkscape:connector-curvature="0"
                   d="m -946.33252,595.84881 c 0,-2.466 0.45,-3.67 2.373,-5.271 l 2.952,-2.463 c 1.894,-1.535 2.858,-1.572 5.185,-1.572 h 6.349 c 1.333,0 2.763,0.285 2.763,2.013 0,1.727 -1.589,1.969 -2.763,1.969 h -7.058 c -0.792,0 -1.585,0.432 -2.304,1.004 l -2.415,2.076 c -0.628,0.492 -1.081,0.901 -1.081,1.694 v 4.966 c 0,0.785 0.453,1.221 1.081,1.705 l 2.415,2.047 c 0.719,0.59 1.512,1.016 2.304,1.016 h 7.058 c 1.174,0 2.763,0.238 2.763,1.982 0,1.737 -1.43,2.016 -2.763,2.016 h -6.349 c -2.327,0 -3.291,-0.039 -5.185,-1.574 l -2.952,-2.475 c -1.923,-1.588 -2.373,-2.783 -2.373,-5.256 z"
                   style="display:none;fill:#009944;fill-opacity:1;fill-rule:nonzero;stroke:none"
                   id="path3053"
                   inkscape:label="C" />
                <path
                   inkscape:connector-curvature="0"
                   d="m -899.28552,598.96281 c -1.077,0 -2.685,0.295 -2.685,1.761 v 2.67 c 0,1.36 1.634,1.639 2.611,1.639 h 4.41 l 4.423,-2.326 v -0.852 c 0,-2.221 -0.626,-2.892 -2.831,-2.892 z m 0.044,-8.438 c -1.165,0 -2.75,-0.242 -2.75,-1.969 0,-1.728 1.405,-2.013 2.75,-2.013 h 5.498 c 2.096,0 3.595,0.195 5.185,1.785 1.545,1.539 1.744,2.746 1.803,4.76 l 0.408,13.611 c 0.039,1.168 -0.54,2.332 -1.867,2.332 -1.044,0 -2.098,-0.887 -2.068,-2.016 l -2.735,1.426 c -1.139,0.59 -1.178,0.59 -2.472,0.59 h -3.842 c -1.789,0 -3.086,-0.213 -4.541,-1.416 -1.673,-1.377 -2.084,-2.834 -2.084,-4.93 v -1.748 c 0,-1.924 0.468,-3.131 1.952,-4.467 1.399,-1.218 2.924,-1.507 4.673,-1.507 h 8.6 v -0.914 c 0,-3 -0.666,-3.524 -3.551,-3.524 z"
                   style="display:none;fill:#009944;fill-opacity:1;fill-rule:nonzero;stroke:none"
                   id="path3055"
                   inkscape:label="A" />
                <path
                   inkscape:connector-curvature="0"
                   d="m -849.05752,591.52881 v -2.021 c 0,-1.424 0.25,-2.965 2.039,-2.965 1.43,0 1.964,1.121 1.964,2.414 v 2.834 c 0,0.666 -0.168,1.009 -0.466,1.633 l -5.967,13.109 c -0.381,0.828 -1.078,2.498 -2.094,2.498 h -2.58 c -1.002,0 -1.715,-1.67 -2.081,-2.498 l -5.965,-13.109 c -0.311,-0.624 -0.457,-0.967 -0.457,-1.633 v -2.834 c 0,-1.293 0.545,-2.414 1.936,-2.414 1.805,0 2.051,1.541 2.051,2.965 v 2.021 l 5.809,13.322 z"
                   style="display:none;fill:#009944;fill-opacity:1;fill-rule:nonzero;stroke:none"
                   id="path3057"
                   inkscape:label="V" />
                <path
                   inkscape:connector-curvature="0"
                   d="m -820.19052,596.68481 h 11.585 v -2.449 c 0,-0.738 0.044,-1.346 -0.499,-1.853 l -1.537,-1.334 c -0.502,-0.471 -1.286,-0.524 -1.924,-0.524 h -3.397 c -0.736,0 -1.36,0 -2.023,0.473 l -1.392,1.017 c -0.483,0.368 -0.813,0.67 -0.813,1.826 z m 3.315,12.346 c -1.654,0 -2.326,0 -3.58,-1.088 l -1.707,-1.5 c -1.582,-1.41 -2.046,-2.336 -2.046,-4.498 v -7.734 c 0,-2.123 0.287,-3.391 1.949,-4.795 l 1.424,-1.203 c 1.893,-1.633 2.809,-1.67 4.443,-1.67 h 3.651 c 1.969,0 2.898,0.195 4.425,1.457 l 1.628,1.297 c 1.851,1.447 2.087,3.003 2.087,5.209 v 3.228 c 0,2.272 -0.371,2.957 -2.756,2.957 h -12.833 v 1.336 c 0,0.379 0.272,0.859 0.579,1.164 l 1.006,1.08 c 0.547,0.58 1.326,0.762 2.643,0.762 h 8.605 c 1.356,0 2.756,0.289 2.756,1.982 0,1.768 -1.574,2.016 -2.756,2.016 z"
                   style="display:none;fill:#009944;fill-opacity:1;fill-rule:nonzero;stroke:none"
                   id="path3059"
                   inkscape:label="E" />
                <path
                   inkscape:connector-curvature="0"
                   d="m -842.005,546.068 c -3.946,4.499 -7.397,4.39 -7.541,4.384 l -0.015,0.006 c -0.012,0 -0.029,-0.006 -0.029,-0.006 l -4.786,-0.108 c 1.081,-0.819 2.212,-1.857 3.357,-3.154 0.031,-0.049 0.075,-0.107 0.12,-0.155 8.556,-12.618 5.716,-21.113 3.262,-25.061 -0.118,-0.188 -0.251,-0.371 -0.386,-0.536 l 1.814,0.601 c 3.764,1.021 6.736,3.675 7.997,7.129 1.225,3.301 1.546,8.936 -3.793,16.9 m -19.284,20.827 c -1.536,0.238 -3.409,0.492 -5.244,0.697 3.75,-4.336 5.305,-10.863 5.734,-14.199 l 9.402,0.238 c -0.494,3.641 -2.433,12.115 -9.892,13.264 m -14.72,1.736 c -3.74,-0.295 -13.608,-1.295 -19.488,-1.916 l -4.396,-0.435 c -2.091,-0.188 -4.119,-2.401 -5.528,-4.44 5.792,0.434 19.36,1.219 22.033,1.188 3.685,-0.116 7.926,-1.957 8.88,-5.334 0.632,-2.186 0.67,-2.473 0.775,-3.737 0.07,-0.681 0.144,-1.736 0.43,-3.899 0.714,-5.27 3.383,-6.3 3.845,-6.438 0.987,-0.059 5.077,-0.535 8.604,-4.195 0.039,-0.059 0.07,-0.115 0.126,-0.164 3.294,-4.336 1.863,-11.111 1.825,-11.405 -0.016,-0.049 -0.569,-3.614 -3.448,-5.588 -1.811,-1.27 -4.041,-1.616 -6.638,-1.083 -0.902,0.189 -1.735,0.509 -2.465,0.876 1.951,-2.496 4.629,-4.046 7.787,-4.512 1.909,-0.263 3.784,-0.099 5.576,0.41 0.132,0.064 0.247,0.13 0.39,0.17 l 1.649,0.568 c 2.309,1.048 4.337,2.785 5.691,4.954 2.05,3.285 4.336,10.414 -3.144,21.509 -4.178,4.783 -7.887,5.003 -8.527,5.021 l -0.147,-0.018 c -0.092,0 -0.149,0.027 -0.237,0.027 -0.013,0 -0.025,0 -0.039,0.016 -0.623,0.098 -1.152,0.564 -1.313,1.17 0,0 0,0.017 -0.012,0.025 0,0.065 -0.016,0.125 -0.016,0.182 -0.015,0.055 -0.015,0.088 -0.015,0.13 -0.098,1.934 -1.47,10.643 -6.149,14.813 -1.021,0.933 -2.118,1.531 -3.343,1.851 -0.259,0.024 -0.387,0.024 -0.42,0.047 -0.188,0.026 -0.332,0.069 -0.479,0.141 -0.597,0.076 -1.181,0.092 -1.807,0.066 m -37.962,-25.333 c -3.448,-0.579 -3.408,-4.855 -3.408,-5.014 0,0.032 1.951,-39.979 1.951,-39.979 0,-0.199 0.136,-3.82 3.575,-4.951 0.169,-0.055 0.33,-0.122 0.473,-0.263 2.93,-2.263 3.511,-4.562 4.179,-9.674 0.252,-3.451 2.573,-5.042 2.665,-5.091 11.38,-6.266 33.289,-18.291 34.071,-18.694 0.82,-0.412 2.079,-0.778 2.928,-0.385 0.511,0.246 0.902,0.821 1.145,1.678 0.21,4.466 1.144,17.133 1.23,18.511 -0.029,0.63 -0.51,6.233 -5.618,7.528 -1.541,0.411 -2.766,0.326 -3.583,-0.263 -1.272,-0.874 -1.453,-2.694 -1.453,-2.703 -0.011,-0.073 -0.011,-0.115 -0.034,-0.17 l -0.662,-3.402 c -0.233,-1.198 -0.901,-2.171 -1.908,-2.78 -2.232,-1.366 -5.478,-0.515 -5.853,-0.424 -0.105,0.034 -0.188,0.072 -0.276,0.122 -0.104,0.042 -9.419,4.763 -13.154,6.581 -4.453,2.153 -4.053,8.554 -4.036,8.822 0,-0.106 -0.245,44.75 -0.245,44.75 0,0.421 0.056,3.975 2.167,6.064 0.957,0.927 2.238,1.417 3.652,1.377 4.319,-0.099 13.566,-0.756 13.949,-0.77 0.115,-0.018 0.199,-0.024 0.297,-0.041 0.278,-0.091 6.929,-1.893 7.411,-7.515 0.273,-3.021 0.658,-6.165 0.67,-6.191 0.017,-0.124 1.065,-5.155 5.483,-6.098 1.72,-0.344 3.107,-0.172 4.134,0.558 1.75,1.211 2.147,3.55 2.147,3.566 0.024,0.163 1.176,5.66 -1.152,8.822 -2.99,3.041 -6.335,3.139 -6.474,3.139 -0.09,0 -0.18,0.023 -0.26,0.04 -0.227,0.047 -5.441,1.039 -6.523,9.185 -0.285,2.244 -0.385,3.344 -0.443,4.065 -0.088,1.048 -0.088,1.113 -0.675,3.121 -0.475,1.718 -3.418,2.939 -5.878,2.98 -2.807,0.065 -19.587,-0.926 -23.608,-1.301 -1.57,-0.158 -2.197,-3.9 -2.197,-5.959 0.192,-0.932 0.75,-4.38 -0.93,-6.872 -0.846,-1.269 -2.151,-2.08 -3.757,-2.369 m 55.22,-86.934 c 1.329,0.622 3.636,2.309 4.344,6.251 0.293,6.187 1.267,18.154 1.281,18.254 0.02,0.451 0.481,11.772 -12.563,16.084 -1.775,0.596 -3.378,0.622 -4.831,0.113 -0.381,-0.188 -0.611,-0.295 -0.611,-0.295 -0.091,-0.048 -0.162,-0.066 -0.264,-0.098 -0.041,-0.016 -0.088,-0.041 -0.132,-0.059 -3.169,-1.776 -4.823,-5.938 -5.472,-7.946 0.231,0.223 0.487,0.434 0.764,0.638 1.651,1.173 3.751,1.436 6.258,0.764 6.127,-1.59 7.927,-7.63 8.028,-10.611 v -0.138 c -0.013,-0.164 -1.043,-14.37 -1.253,-18.74 0,-0.12 -0.011,-0.228 -0.04,-0.317 -0.469,-1.737 -1.254,-2.746 -2.051,-3.369 l 1.414,-0.76 c 1.377,-0.707 3.399,-0.658 5.128,0.229 m 15.927,16.49 c 0.266,5.49 1.096,15.947 1.096,16.044 0.031,0.384 0.419,10.315 -11.047,14.166 -1.702,0.574 -5.694,-0.264 -6.652,-0.786 -0.028,-0.017 -2.431,-1.132 -5.03,-2.369 15.202,-5.178 14.533,-19.128 14.533,-19.253 -0.012,-0.166 -0.932,-11.471 -1.254,-17.706 l 4.779,4.479 c 1.585,1.346 3.11,2.798 3.575,5.425 m -45.624,61.622 -0.149,-39.44 9.036,3.67 1.052,34.728 z m 10.52,-38.566 -8.075,-3.269 6.093,-2.537 c 0.508,1.456 1.401,3.593 2.798,5.553 z m -4.683,45.072 c -1.274,0.088 -9.697,0.645 -13.63,0.753 -0.566,0.023 -0.986,-0.133 -1.338,-0.476 -0.991,-0.949 -1.211,-3.064 -1.211,-3.728 l 0.232,-44.872 c 0,-0.18 -0.198,-4.655 2.261,-5.85 3.477,-1.671 11.774,-5.883 13.011,-6.523 0.79,-0.188 2.417,-0.384 3.189,0.098 0.175,0.106 0.348,0.272 0.437,0.672 l 0.655,3.319 c 0.012,0.296 0.148,1.082 0.527,2.008 -0.336,-0.092 -0.709,-0.092 -1.026,0.067 l -11.333,4.701 c -0.114,0.072 -0.248,0.149 -0.367,0.235 -0.028,0.018 -0.043,0.034 -0.07,0.067 -0.1,0.091 -0.186,0.179 -0.277,0.303 v 0.009 c -0.063,0.082 -0.107,0.179 -0.167,0.27 -0.011,0.056 -0.011,0.091 -0.026,0.098 -0.013,0.034 -0.013,0.068 -0.029,0.106 -0.028,0.125 -0.04,0.263 -0.04,0.402 0,0.018 -0.015,0.018 -0.015,0.018 v 0.017 l 0.185,43.575 c 0,0.46 0.196,0.879 0.543,1.198 0.331,0.288 0.769,0.442 1.237,0.404 l 12.121,-1.272 c -0.434,2.9 -4.146,4.179 -4.869,4.401 m 47.39,-12.947 c -1.631,-4.406 -5.374,-7.8 -10.076,-9.071 0.085,0.026 -6.594,-2.245 -9.764,-3.316 -2.8,-1.222 -5.95,-1.714 -9.057,-1.255 -5.062,0.697 -9.109,3.671 -11.517,8.268 l -0.702,-23.89 1.593,-0.525 c 0.509,0.432 1.054,0.808 1.629,1.153 0.425,0.255 0.876,0.438 1.331,0.624 l 10.917,5.138 c 1.541,0.836 6.445,1.826 9.096,0.909 13.872,-4.606 13.254,-17.262 13.242,-17.386 0,-0.148 -0.859,-10.716 -1.094,-16.147 -0.007,-0.051 -0.007,-0.141 -0.023,-0.191 -0.628,-3.531 -2.584,-5.594 -4.613,-7.308 0.038,0.075 -10.73,-10.068 -10.73,-10.068 -0.089,-0.058 -0.172,-0.097 -0.288,-0.158 -0.617,-0.506 -1.301,-0.973 -2.039,-1.333 -2.669,-1.32 -5.748,-1.376 -8.068,-0.18 0,0 -37.364,20.399 -40.795,22.285 -0.235,0.14 -3.846,2.492 -4.191,7.521 -0.662,4.736 -1.097,5.957 -2.811,7.317 -5.285,1.991 -5.456,7.529 -5.456,7.8 0,-0.066 -1.938,39.942 -1.938,39.942 -0.069,2.513 1.089,7.454 6.068,8.312 0.741,0.125 1.269,0.422 1.632,0.968 0.897,1.335 0.611,3.745 0.423,4.552 -0.013,0.112 -0.032,0.231 -0.032,0.325 -0.015,0.73 0,5.97 2.637,8.306 0.45,0.969 4.191,8.346 9.647,8.854 l 4.387,0.437 c 5.894,0.606 15.772,1.623 19.562,1.903 1.245,0.088 2.43,0 3.55,-0.28 1.994,-0.214 8.003,-0.902 11.886,-1.474 9.973,-1.526 12.185,-12.584 12.668,-16.533 1.873,-0.362 5.208,-1.52 8.602,-5.44 0.072,-0.068 0.099,-0.125 0.129,-0.166 6.193,-9.11 5.706,-15.837 4.195,-19.893"
                   style="fill:#e60013;fill-opacity:1;fill-rule:nonzero;stroke:none;filter:url(#filter983)"
                   id="path3061"
                   inkscape:label="Logo Glow" />
                <path
                   inkscape:connector-curvature="0"
                   d="m -842.005,546.068 c -3.946,4.499 -7.397,4.39 -7.541,4.384 l -0.015,0.006 c -0.012,0 -0.029,-0.006 -0.029,-0.006 l -4.786,-0.108 c 1.081,-0.819 2.212,-1.857 3.357,-3.154 0.031,-0.049 0.075,-0.107 0.12,-0.155 8.556,-12.618 5.716,-21.113 3.262,-25.061 -0.118,-0.188 -0.251,-0.371 -0.386,-0.536 l 1.814,0.601 c 3.764,1.021 6.736,3.675 7.997,7.129 1.225,3.301 1.546,8.936 -3.793,16.9 m -19.284,20.827 c -1.536,0.238 -3.409,0.492 -5.244,0.697 3.75,-4.336 5.305,-10.863 5.734,-14.199 l 9.402,0.238 c -0.494,3.641 -2.433,12.115 -9.892,13.264 m -14.72,1.736 c -3.74,-0.295 -13.608,-1.295 -19.488,-1.916 l -4.396,-0.435 c -2.091,-0.188 -4.119,-2.401 -5.528,-4.44 5.792,0.434 19.36,1.219 22.033,1.188 3.685,-0.116 7.926,-1.957 8.88,-5.334 0.632,-2.186 0.67,-2.473 0.775,-3.737 0.07,-0.681 0.144,-1.736 0.43,-3.899 0.714,-5.27 3.383,-6.3 3.845,-6.438 0.987,-0.059 5.077,-0.535 8.604,-4.195 0.039,-0.059 0.07,-0.115 0.126,-0.164 3.294,-4.336 1.863,-11.111 1.825,-11.405 -0.016,-0.049 -0.569,-3.614 -3.448,-5.588 -1.811,-1.27 -4.041,-1.616 -6.638,-1.083 -0.902,0.189 -1.735,0.509 -2.465,0.876 1.951,-2.496 4.629,-4.046 7.787,-4.512 1.909,-0.263 3.784,-0.099 5.576,0.41 0.132,0.064 0.247,0.13 0.39,0.17 l 1.649,0.568 c 2.309,1.048 4.337,2.785 5.691,4.954 2.05,3.285 4.336,10.414 -3.144,21.509 -4.178,4.783 -7.887,5.003 -8.527,5.021 l -0.147,-0.018 c -0.092,0 -0.149,0.027 -0.237,0.027 -0.013,0 -0.025,0 -0.039,0.016 -0.623,0.098 -1.152,0.564 -1.313,1.17 0,0 0,0.017 -0.012,0.025 0,0.065 -0.016,0.125 -0.016,0.182 -0.015,0.055 -0.015,0.088 -0.015,0.13 -0.098,1.934 -1.47,10.643 -6.149,14.813 -1.021,0.933 -2.118,1.531 -3.343,1.851 -0.259,0.024 -0.387,0.024 -0.42,0.047 -0.188,0.026 -0.332,0.069 -0.479,0.141 -0.597,0.076 -1.181,0.092 -1.807,0.066 m -37.962,-25.333 c -3.448,-0.579 -3.408,-4.855 -3.408,-5.014 0,0.032 1.951,-39.979 1.951,-39.979 0,-0.199 0.136,-3.82 3.575,-4.951 0.169,-0.055 0.33,-0.122 0.473,-0.263 2.93,-2.263 3.511,-4.562 4.179,-9.674 0.252,-3.451 2.573,-5.042 2.665,-5.091 11.38,-6.266 33.289,-18.291 34.071,-18.694 0.82,-0.412 2.079,-0.778 2.928,-0.385 0.511,0.246 0.902,0.821 1.145,1.678 0.21,4.466 1.144,17.133 1.23,18.511 -0.029,0.63 -0.51,6.233 -5.618,7.528 -1.541,0.411 -2.766,0.326 -3.583,-0.263 -1.272,-0.874 -1.453,-2.694 -1.453,-2.703 -0.011,-0.073 -0.011,-0.115 -0.034,-0.17 l -0.662,-3.402 c -0.233,-1.198 -0.901,-2.171 -1.908,-2.78 -2.232,-1.366 -5.478,-0.515 -5.853,-0.424 -0.105,0.034 -0.188,0.072 -0.276,0.122 -0.104,0.042 -9.419,4.763 -13.154,6.581 -4.453,2.153 -4.053,8.554 -4.036,8.822 0,-0.106 -0.245,44.75 -0.245,44.75 0,0.421 0.056,3.975 2.167,6.064 0.957,0.927 2.238,1.417 3.652,1.377 4.319,-0.099 13.566,-0.756 13.949,-0.77 0.115,-0.018 0.199,-0.024 0.297,-0.041 0.278,-0.091 6.929,-1.893 7.411,-7.515 0.273,-3.021 0.658,-6.165 0.67,-6.191 0.017,-0.124 1.065,-5.155 5.483,-6.098 1.72,-0.344 3.107,-0.172 4.134,0.558 1.75,1.211 2.147,3.55 2.147,3.566 0.024,0.163 1.176,5.66 -1.152,8.822 -2.99,3.041 -6.335,3.139 -6.474,3.139 -0.09,0 -0.18,0.023 -0.26,0.04 -0.227,0.047 -5.441,1.039 -6.523,9.185 -0.285,2.244 -0.385,3.344 -0.443,4.065 -0.088,1.048 -0.088,1.113 -0.675,3.121 -0.475,1.718 -3.418,2.939 -5.878,2.98 -2.807,0.065 -19.587,-0.926 -23.608,-1.301 -1.57,-0.158 -2.197,-3.9 -2.197,-5.959 0.192,-0.932 0.75,-4.38 -0.93,-6.872 -0.846,-1.269 -2.151,-2.08 -3.757,-2.369 m 55.22,-86.934 c 1.329,0.622 3.636,2.309 4.344,6.251 0.293,6.187 1.267,18.154 1.281,18.254 0.02,0.451 0.481,11.772 -12.563,16.084 -1.775,0.596 -3.378,0.622 -4.831,0.113 -0.381,-0.188 -0.611,-0.295 -0.611,-0.295 -0.091,-0.048 -0.162,-0.066 -0.264,-0.098 -0.041,-0.016 -0.088,-0.041 -0.132,-0.059 -3.169,-1.776 -4.823,-5.938 -5.472,-7.946 0.231,0.223 0.487,0.434 0.764,0.638 1.651,1.173 3.751,1.436 6.258,0.764 6.127,-1.59 7.927,-7.63 8.028,-10.611 v -0.138 c -0.013,-0.164 -1.043,-14.37 -1.253,-18.74 0,-0.12 -0.011,-0.228 -0.04,-0.317 -0.469,-1.737 -1.254,-2.746 -2.051,-3.369 l 1.414,-0.76 c 1.377,-0.707 3.399,-0.658 5.128,0.229 m 15.927,16.49 c 0.266,5.49 1.096,15.947 1.096,16.044 0.031,0.384 0.419,10.315 -11.047,14.166 -1.702,0.574 -5.694,-0.264 -6.652,-0.786 -0.028,-0.017 -2.431,-1.132 -5.03,-2.369 15.202,-5.178 14.533,-19.128 14.533,-19.253 -0.012,-0.166 -0.932,-11.471 -1.254,-17.706 l 4.779,4.479 c 1.585,1.346 3.11,2.798 3.575,5.425 m -45.624,61.622 -0.149,-39.44 9.036,3.67 1.052,34.728 z m 10.52,-38.566 -8.075,-3.269 6.093,-2.537 c 0.508,1.456 1.401,3.593 2.798,5.553 z m -4.683,45.072 c -1.274,0.088 -9.697,0.645 -13.63,0.753 -0.566,0.023 -0.986,-0.133 -1.338,-0.476 -0.991,-0.949 -1.211,-3.064 -1.211,-3.728 l 0.232,-44.872 c 0,-0.18 -0.198,-4.655 2.261,-5.85 3.477,-1.671 11.774,-5.883 13.011,-6.523 0.79,-0.188 2.417,-0.384 3.189,0.098 0.175,0.106 0.348,0.272 0.437,0.672 l 0.655,3.319 c 0.012,0.296 0.148,1.082 0.527,2.008 -0.336,-0.092 -0.709,-0.092 -1.026,0.067 l -11.333,4.701 c -0.114,0.072 -0.248,0.149 -0.367,0.235 -0.028,0.018 -0.043,0.034 -0.07,0.067 -0.1,0.091 -0.186,0.179 -0.277,0.303 v 0.009 c -0.063,0.082 -0.107,0.179 -0.167,0.27 -0.011,0.056 -0.011,0.091 -0.026,0.098 -0.013,0.034 -0.013,0.068 -0.029,0.106 -0.028,0.125 -0.04,0.263 -0.04,0.402 0,0.018 -0.015,0.018 -0.015,0.018 v 0.017 l 0.185,43.575 c 0,0.46 0.196,0.879 0.543,1.198 0.331,0.288 0.769,0.442 1.237,0.404 l 12.121,-1.272 c -0.434,2.9 -4.146,4.179 -4.869,4.401 m 47.39,-12.947 c -1.631,-4.406 -5.374,-7.8 -10.076,-9.071 0.085,0.026 -6.594,-2.245 -9.764,-3.316 -2.8,-1.222 -5.95,-1.714 -9.057,-1.255 -5.062,0.697 -9.109,3.671 -11.517,8.268 l -0.702,-23.89 1.593,-0.525 c 0.509,0.432 1.054,0.808 1.629,1.153 0.425,0.255 0.876,0.438 1.331,0.624 l 10.917,5.138 c 1.541,0.836 6.445,1.826 9.096,0.909 13.872,-4.606 13.254,-17.262 13.242,-17.386 0,-0.148 -0.859,-10.716 -1.094,-16.147 -0.007,-0.051 -0.007,-0.141 -0.023,-0.191 -0.628,-3.531 -2.584,-5.594 -4.613,-7.308 0.038,0.075 -10.73,-10.068 -10.73,-10.068 -0.089,-0.058 -0.172,-0.097 -0.288,-0.158 -0.617,-0.506 -1.301,-0.973 -2.039,-1.333 -2.669,-1.32 -5.748,-1.376 -8.068,-0.18 0,0 -37.364,20.399 -40.795,22.285 -0.235,0.14 -3.846,2.492 -4.191,7.521 -0.662,4.736 -1.097,5.957 -2.811,7.317 -5.285,1.991 -5.456,7.529 -5.456,7.8 0,-0.066 -1.938,39.942 -1.938,39.942 -0.069,2.513 1.089,7.454 6.068,8.312 0.741,0.125 1.269,0.422 1.632,0.968 0.897,1.335 0.611,3.745 0.423,4.552 -0.013,0.112 -0.032,0.231 -0.032,0.325 -0.015,0.73 0,5.97 2.637,8.306 0.45,0.969 4.191,8.346 9.647,8.854 l 4.387,0.437 c 5.894,0.606 15.772,1.623 19.562,1.903 1.245,0.088 2.43,0 3.55,-0.28 1.994,-0.214 8.003,-0.902 11.886,-1.474 9.973,-1.526 12.185,-12.584 12.668,-16.533 1.873,-0.362 5.208,-1.52 8.602,-5.44 0.072,-0.068 0.099,-0.125 0.129,-0.166 6.193,-9.11 5.706,-15.837 4.195,-19.893"
                   style="fill:#e60013;fill-opacity:1;fill-rule:nonzero;stroke:none"
                   id="path869"
                   inkscape:label="Logo" />
              </g>
            </g>
          </g>
        </g>
      </g>
    </g>
    <path
       inkscape:connector-curvature="0"
       d="m 1104.4518,581.95106 h 69.51 v -14.694 c 0,-4.428 0.264,-8.076 -2.994,-11.118 l -9.222,-8.004 c -3.012,-2.826 -7.716,-3.144 -11.544,-3.144 h -20.382 c -4.416,0 -8.16,0 -12.138,2.838 l -8.352,6.102 c -2.898,2.208 -4.878,4.02 -4.878,10.956 z m 19.89,74.076 c -9.924,0 -13.956,0 -21.48,-6.528 l -10.242,-9 c -9.492,-8.46 -12.276,-14.016 -12.276,-26.988 v -46.404 c 0,-12.738 1.722,-20.346 11.694,-28.77 l 8.544,-7.218 c 11.358,-9.798 16.854,-10.02 26.658,-10.02 h 21.906 c 11.814,0 17.388,1.17 26.55,8.742 l 9.768,7.782 c 11.106,8.682 12.522,18.018 12.522,31.254 v 19.368 c 0,13.632 -2.226,17.742 -16.536,17.742 h -76.998 v 8.016 c 0,2.274 1.632,5.154 3.474,6.984 l 6.036,6.48 c 3.282,3.48 7.956,4.572 15.858,4.572 h 51.63 c 8.136,0 16.536,1.734 16.536,11.892 0,10.608 -9.444,12.096 -16.536,12.096 z"
       style="fill:#009944;fill-opacity:1;fill-rule:nonzero;stroke:none;stroke-width:1"
       id="path852"
       inkscape:label="E" />
    <path
       inkscape:connector-curvature="0"
       d="m 988.8498,551.01506 v -12.126 c 0,-8.544 1.5,-17.79 12.234,-17.79 8.58,0 11.784,6.726 11.784,14.484 v 17.004 c 0,3.996 -1.008,6.054 -2.796,9.798 l -35.802,78.654 c -2.286,4.968 -6.468,14.988 -12.564,14.988 h -15.48 c -6.0119,0 -10.2899,-10.02 -12.4859,-14.988 l -35.79005,-78.654 c -1.866,-3.744 -2.742,-5.802 -2.742,-9.798 v -17.004 c 0,-7.758 3.27,-14.484 11.616,-14.484 10.83,0 12.306,9.246 12.306,17.79 v 12.126 l 34.85395,79.932 z"
       style="fill:#009944;fill-opacity:1;fill-rule:nonzero;stroke:none;stroke-width:1"
       id="path850"
       inkscape:label="V" />
    <path
       inkscape:connector-curvature="0"
       d="m 748.28185,595.61906 c -6.462,0 -16.11,1.77 -16.11,10.566 v 16.02 c 0,8.16 9.804,9.834 15.666,9.834 h 26.46 l 26.538,-13.956 v -5.112 c 0,-13.326 -3.756,-17.352 -16.986,-17.352 z m 0.264,-50.628 c -6.99,0 -16.5,-1.452 -16.5,-11.814 0,-10.368 8.43,-12.078 16.5,-12.078 h 32.988 c 12.576,0 21.57,1.17 31.11,10.71 9.27,9.234 10.464,16.476 10.818,28.56 l 2.448,81.666 c 0.234,7.008 -3.24,13.992 -11.202,13.992 -6.264,0 -12.588,-5.322 -12.408,-12.096 l -16.41,8.556 c -6.834,3.54 -7.068,3.54 -14.832,3.54 h -23.052 c -10.734,0 -18.516,-1.278 -27.246,-8.496 -10.038,-8.262 -12.504,-17.004 -12.504,-29.58 v -10.488 c 0,-11.544 2.808,-18.786 11.712,-26.802 8.394,-7.308 17.544,-9.042 28.038,-9.042 h 51.6 v -5.484 c 0,-18 -3.996,-21.144 -21.306,-21.144 z"
       style="fill:#009944;fill-opacity:1;fill-rule:nonzero;stroke:none;stroke-width:1"
       id="path848"
       inkscape:label="A" />
    <path
       inkscape:connector-curvature="0"
       d="m 523.59979,576.93506 c 0,-14.796 2.7,-22.02 14.23806,-31.626 l 17.712,-14.778 c 11.364,-9.21 17.148,-9.432 31.11,-9.432 h 38.094 c 7.998,0 16.578,1.71 16.578,12.078 0,10.362 -9.534,11.814 -16.578,11.814 h -42.348 c -4.752,0 -9.51,2.592 -13.824,6.024 l -14.49,12.456 c -3.768,2.952 -6.486,5.406 -6.486,10.164 v 29.796 c 0,4.71 2.718,7.326 6.486,10.23 l 14.49,12.282 c 4.314,3.54 9.072,6.096 13.824,6.096 h 42.348 c 7.044,0 16.578,1.428 16.578,11.892 0,10.422 -8.58,12.096 -16.578,12.096 h -38.094 c -13.962,0 -19.746,-0.234 -31.11,-9.444 l -17.712,-14.85 c -11.53806,-9.528 -14.23806,-16.698 -14.23806,-31.536 z"
       style="fill:#009944;fill-opacity:1;fill-rule:nonzero;stroke:none;stroke-width:1"
       id="path846"
       inkscape:label="C" />
  </g>
</svg>
