<svg height="152.91313" viewBox="0 0 729.64847 290.53495" width="384.02551" xmlns="http://www.w3.org/2000/svg" xmlns:xlink="http://www.w3.org/1999/xlink"><mask id="a" maskUnits="userSpaceOnUse"><path d="m18.396683.27664888h12.226697v5.44773132h-12.226697z" fill="#fff"/><path d="m24.541465 4.5700848c2.714262.00674 4.933495-.5510394 4.92065-1.5615986.01383-1.0365699-2.2054-1.5654516-4.919663-1.5606345h-4.980923v3.1212695h4.979936z"/></mask><mask id="b" maskUnits="userSpaceOnUse"><path d="m-1.1034193-1.1037408h41.9867363v8.0270581h-41.9867363z" fill="#fff"/><path d="m24.54 4.6210001c2.747.007 4.993-.5719999 4.98-1.621.014-1.0760003-2.232-1.6250002-4.979-1.6200002h-5.041v3.2399999h5.04z" stroke="#000" stroke-width=".108755"/></mask><mask id="c" maskUnits="userSpaceOnUse"><path d="m5.9164134 1.3566756h5.3871176v3.0474879h-5.3871176z" fill="#fff"/><path d="m8.5799999 3.3000001c.8939999.015 1.6050001-.1740003 1.6200001-.4199999-.015-.221-.7269998-.4100003-1.6200001-.4200003-.8639998.0110003-1.5759997.2000001-1.5600001.4200003-.016.2459996.6960003.4349999 1.5600001.4199999z"/></mask><mask id="d" maskUnits="userSpaceOnUse"><path d="m5.3756635.99666401h6.4678075v3.76821539h-6.4678075z" fill="#fff"/><path d="m8.2146043 3.2899105c-.0229684-.0018885-.096049-.0077399-.1624019-.0130048-.4372267-.0346958-.8102794-.1371242-.9500609-.2608556-.057901-.051254-.07539-.081819-.07539-.1317626 0-.048207.018021-.081667.065566-.1217334.1746771-.1472046.6670031-.2589893 1.2816854-.2910132.5293364-.027577 1.2222656.058103 1.5524724.191963.2652677.107534.3264217.207693.2014607.3299563-.1362109.1332707-.4830246.233373-.9853213.2843972-.093252.00947-.841198.019188-.9280104.012053z" opacity=".98" stroke="#000" stroke-width=".108755"/></mask><g stroke="#000" transform="translate(-3.838974 -2.691836)"><g fill="#16bcf8" stroke-width="1.952083" transform="matrix(.19551851 0 0 .19381285 11.471094 6.251931)"><path d="m0 .01v495.894c0 167.314 133.222 302.93 297.59 302.93 164.347 0 297.633-135.615 297.633-302.93v-495.894zm579.575 495.894c0 158.506-126.283 287.002-281.985 287.002-155.713 0-281.957-128.496-281.957-287.002v-479.922h563.942z"/><path d="m297.59 225.422c-99.223 0-185.769 55.428-231.435 137.444-21.854 39.318-34.313 84.716-34.313 133.038 0 149.384 118.96 270.481 265.747 270.481 146.786 0 265.756-121.098 265.756-270.481.001-149.352-118.969-270.482-265.755-270.482m-53.587 70.726-7.109-47.085c19.438-4.953 39.764-7.682 60.696-7.682 125.451 0 229.04 94.182 247.034 216.744-17.518 9.456-37.333 14.993-58.483 14.993-22.927 0-44.397-6.241-62.905-17.184-18.503-10.812-40.021-17.085-62.914-17.085-22.871 0-44.302 6.273-62.795 17.076-18.507 10.951-39.949 17.192-62.886 17.192-21.505 0-41.668-5.688-59.395-15.416l8.692-76.828 82.395-9.698v-4.245l-29.785-3.488 7.455-49.264 48.537-7.552v-2.86zm-60.065 61.094-5.701-50.518 48.02 7.454 7.354 48.906zm49.274-107.324-6.955 46.229-48.365 7.585-3.316-29.416c18.235-10.531 37.899-18.784 58.636-24.398zm-148.822 112.948c21.213-35.146 50.619-64.539 85.483-85.698l-9.145 80.074-78.365 9.222c.683-1.204 1.313-2.428 2.027-3.598zm-4.759 8.484 81.098 9.524 8.407 73.739c-17.93-9.956-38.396-15.764-60.259-15.764-20.848 0-40.404 5.438-57.748 14.55 4.918-29.338 14.626-57.021 28.502-82.049zm-30.779 99.31c17.89-9.97 38.214-15.896 60.025-15.896 22.903 0 44.378 6.231 62.882 17.128h.02c18.507 10.956 39.992 17.119 62.862 17.119 22.937 0 44.378-6.229 62.886-17.119 18.494-10.82 39.924-17.128 62.795-17.128 22.893 0 44.411 6.308 62.914 17.128 18.508 10.956 39.979 17.119 62.905 17.119 21.885 0 42.427-5.871 60.402-15.894.445 5.127.619 10.314.79 15.526-18.158 10.348-38.981 16.316-61.192 16.316-22.927 0-44.397-6.177-62.905-17.14-18.503-10.878-40.021-17.088-62.914-17.088-22.871 0-44.302 6.274-62.795 17.088-18.507 10.909-39.949 17.14-62.886 17.14-22.87 0-44.355-6.23-62.862-17.14h-.02c-18.503-10.878-39.979-17.088-62.882-17.088-22.233 0-42.97 6.113-61.108 16.438.194-5.558.563-11.072 1.083-16.509zm1.669 62.794c17.474-9.368 37.249-14.92 58.355-14.92 22.903 0 44.378 6.231 62.882 17.153h.02c18.507 10.908 39.992 17.109 62.862 17.109 22.937 0 44.378-6.254 62.886-17.109 18.494-10.922 39.924-17.153 62.795-17.153 21.648 0 41.92 5.756 59.709 15.526l-8.755 77.067-82.387 9.685v4.322l29.797 3.481-7.389 49.176-48.593 7.649v2.88l48.593 7.597 7.018 46.796c-19.455 4.96-39.76 7.756-60.725 7.756-125.559 0-229.214-94.268-247.068-217.015zm366.82 154.912 3.315 28.973c-18.245 10.51-37.854 18.829-58.559 24.474l6.892-45.895zm-55.71-59.395 49.645 5.827 5.744 50.536-48.03-7.543zm63.77 85.657 9.102-79.83 77.859-9.131c-21.27 36.492-51.163 67.219-86.961 88.961zm89.864-93.966-80.762-9.534-8.406-74.022c17.866 9.937 38.258 15.691 60.044 15.691 20.869 0 40.436-5.409 57.793-14.618-4.857 29.502-14.715 57.291-28.669 82.483zm31.16-99.646c-17.965 10.013-38.442 15.831-60.284 15.831-22.927 0-44.397-6.21-62.905-17.109-18.503-10.941-40.021-17.161-62.914-17.161-22.871 0-44.302 6.241-62.795 17.161-18.507 10.855-39.949 17.109-62.886 17.109-22.87 0-44.355-6.254-62.862-17.109h-.02c-18.503-10.941-39.979-17.161-62.882-17.161-21.908 0-42.343 5.959-60.254 15.981-.442-5.137-.616-10.325-.747-15.481 18.118-10.315 38.811-16.405 61-16.405 22.903 0 44.378 6.197 62.882 17.119h.02c18.507 10.933 39.992 17.096 62.862 17.096 22.937 0 44.378-6.241 62.886-17.096 18.494-10.898 39.924-17.119 62.795-17.119 22.893 0 44.411 6.221 62.914 17.129 18.508 10.923 39.979 17.086 62.905 17.086 22.189 0 42.96-5.971 61.086-16.228-.164 5.469-.305 10.962-.801 16.357z"/><path d="m215.996 71.215h-27.576v36.511h-28.687v-36.511h-27.585v91.865h27.585v-36.112h28.687v36.112h27.576zm95.948 73.415v-73.415h-27.574v91.865h49.872l4.137-18.45zm-47.962-73.415h-27.585v91.865h27.585zm111.8 0h-27.564v91.865h27.564zm135.948 23.433c0-4.973 4.943-7.3 12.895-7.3 8.688 0 18.113 1.918 24.529 4.625l-2.297-20c-7.15-1.539-13.544-2.666-25.268-2.666-22.317 0-37.42 8.94-37.42 27.662 0 32.296 43.076 25.753 43.076 40.735 0 5.786-4.182 8.844-14.354 8.844-9.047 0-23.046-3.058-31.345-7.304l3.021 21.16c8.3 3.055 19.624 4.594 28.712 4.594 23.023 0 41.92-7.672 41.92-30.727.001-30.77-43.469-25.006-43.469-39.623zm-77.767 46.525c25.678 0 41.917-13.447 41.917-36.904 0-25.75-17.387-34.962-45.71-34.962-10.966 0-24.184.748-33.63 1.908v91.865h27.575v-21.907zm14.701-36.502c0 11.898-5.678 19.969-20.01 19.969h-4.539v-37.953c1.593-.087 3.151-.087 4.539-.087 13.585 0 20.01 6.513 20.01 18.071zm-369.411 36.502c25.701 0 41.93-13.447 41.93-36.904 0-25.75-17.357-34.962-45.699-34.962-10.942 0-24.161.748-33.587 1.908v91.865h27.563v-21.907zm14.748-36.502c0 11.898-5.668 19.969-20.013 19.969h-4.528v-37.953c1.604-.087 3.12-.087 4.528-.087 13.608 0 20.013 6.513 20.013 18.071z"/></g><g fill="#16bcf8" stroke-width="2.424647" transform="matrix(.72980575 0 0 .84140039 142.98321 4.730088)"><path d="m586.91016 6.2148438c-6.36451.031259-13.13166.4135134-37.27149.8339843v22.4687499 6.083984 100.703128l29.05469.006v-27.6543c5.78694.0296 12.06363.14079 15.3418-.19727 39.45827-2.34114 44.90662-39.855204 45.05468-50.05273.25164-17.710922-5.17068-29.91282-12.00781-37.914202-7.09314-8.301508-16.95634-13.702522-33.3125-14.179688-2.66038-.079247-4.73787-.1080758-6.85937-.0976562zm-.0332 28.8945312c11.50368.445072 21.11267 7.395728 20.52539 22.996094-.66008 17.102943-13.06269 22.804514-28.69531 21.298828l-.0137.06055v-43.650394h.0176c2.75429-.563684 5.51132-.807787 8.16601-.705078z" stroke-width="1.901295" transform="matrix(1.3710432 0 0 1.1861701 -195.48695 -5.575913)"/><g stroke-width="2.424647"><path d="m741.115 56.787 32.697 11.646c21.766 8.592 26.391 26.027 26.182 41.043-.48 34.828-28.27 47.885-50.423 49.77-25.189 2.138-44.688-2.081-51.242-3.146v-37.902c19.937 6.055 43.137 5.814 50.971 2.76 5.926-2.31 10.428-5.839 10.07-10.471-.197-2.513-.449-5.709-7.939-8.911l-30.153-10.938c-19.363-6.972-26.834-25.356-26.027-41.732 1.639-33.086 28.072-49.832 54.463-48.864 8.142.295 19.111.104 35.063 2.31v37.55c-17.873-4.157-26.255-4.089-35.476-2.943-10.315 1.274-14.947 6.608-14.731 12.306.104 2.888 2.987 6.054 6.547 7.471"/><path d="m181.926 59.922h42.897l-.012-56.994h39.842v153.208h-39.83v-61.508h-42.897l-.006 61.508h-39.884v-153.208h39.884z"/><path d="m302.17801 2.928h39.866001v153.20799h-39.866001z"/><path d="m480.311 2.928h39.873001v153.20799h-39.873001z"/><path d="m419.437 121.351h41.105v34.773l-80.984.012v-153.208h39.879z"/></g><path d="m179.85742 6.2148438c-6.3655.031259-13.13282.4135134-37.27539.8339843v24.6835939 3.86914 100.703128l29.09961.006-.006-27.6543c5.75268.0277 11.98481.14527 15.30274-.19727 39.45827-2.34114 44.90737-39.855204 45.06054-50.05273.25178-17.710922-5.17565-29.91282-12.00767-37.914202-7.09751-8.301508-16.9634-13.702522-33.31445-14.179688-2.66148-.079247-4.73754-.1080758-6.85938-.0976562zm-.0391 28.8945312c11.50202.445072 21.11462 7.395728 20.52734 22.996094-.64622 17.102943-13.04073 22.804514-28.67773 21.298828l-.0117-43.589844c2.75333-.563684 5.5078-.807787 8.16211-.705078z" stroke-width="1.901295" transform="matrix(1.3710432 0 0 1.1861701 -195.48695 -5.575913)"/></g><g fill="#fff" stroke-width=".103317" transform="matrix(18.247262 0 0 18.533936 5.726094 183.4444)"><path d="m8.58 3.66c1.187.028 2.136-.328 2.16-.78-.024-.426-.973-.783-2.16-.78-1.157-.003-2.106.354-2.101.78-.005.452.944.808 2.101.78z" mask="url(#d)"/><path d="m8.58 3.3c.894.015 1.605-.174 1.62-.42-.015-.221-.727-.41-1.62-.42-.864.011-1.576.2-1.56.42-.016.246.696.435 1.56.42z" mask="url(#c)"/><path d="m14.64 3.48c-.78.768-3.192 1.313-6.06 1.32-3.476-.007-6.305-.858-6.3-1.92-.005-1.037 2.824-1.888 6.3-1.86 2.83-.027 5.216.519 6.06 1.26h2.4c-.806-1.304-4.28-2.304-8.46-2.28-4.745-.024-8.603 1.282-8.58 2.88-.023 1.624 3.835 2.93 8.58 2.94 4.197-.011 7.683-1.019 8.46-2.34zm9.9-3.06c3.942-.017 7.158.941 7.14 2.58.019 1.611-3.166 2.6-7.14 2.58h-7.02v-5.16zm13.5 0h1.74v1.2h-1.74zm0 1.74h1.74v3.48h-1.74z" mask="url(#b)"/><path d="m24.54 4.621c2.747.007 4.993-.572 4.98-1.621.014-1.076-2.232-1.625-4.979-1.62h-5.041v3.24h5.04z" mask="url(#a)"/></g><path d="m602.52617 242.46705v-11.96088l8.98042 1.55441c4.93923.85492 20.08022 3.44703 33.64663 5.76023 13.56642 2.3132 24.81652 4.33281 25.00022 4.48802s-14.68787 2.84938-33.04794 5.98705-33.65135 5.80097-33.98063 5.91845c-.46868.1672-.5987-2.38397-.5987-11.74728z" fill="#f00" opacity=".98" stroke-width="1.9"/></g></svg>