<svg height="51.770611mm" viewBox="0 0 48.310186 32.203108" width="77.664787mm" xmlns="http://www.w3.org/2000/svg" xmlns:xlink="http://www.w3.org/1999/xlink"><filter id="a" color-interpolation-filters="sRGB" height="3.061295" width="3.857082" x="-1.386851" y="-.978472"><feGaussianBlur in="SourceGraphic" result="blur" stdDeviation="4.37767"/><feDiffuseLighting diffuseConstant="1" result="diffuse" surfaceScale="10"><feDistantLight azimuth="249" elevation="9"/></feDiffuseLighting><feComposite in="diffuse" in2="diffuse" k1="1" k2="0" k3="0" k4="0" operator="arithmetic" result="composite1"/><feComposite in="composite1" in2="SourceGraphic" k1="1" k2="0" k3="1" k4="0" operator="arithmetic" result="fbSourceGraphic"/><feColorMatrix in="fbSourceGraphic" result="fbSourceGraphicAlpha" values="0 0 0 -1 0 0 0 0 -1 0 0 0 0 -1 0 0 0 0 1 0"/><feFlood in="fbSourceGraphic" result="flood"/><feComposite in="flood" in2="fbSourceGraphic" operator="in" result="composite1"/><feGaussianBlur in="composite1" result="blur" stdDeviation="1.6"/><feOffset dx=".9" dy="1.6" result="offset"/><feComposite in="fbSourceGraphic" in2="offset" operator="over" result="composite2"/></filter><clipPath id="b"><path d="m91.328772 133.15769h56.594228v56.76769h-56.594228zm26.272108 30.44591 4.19675.0246.0123-1.55789c-.0111-1.50933-.77096-2.62836-2.29708-3.34789l-1.2919-.043z"/></clipPath><filter id="c" color-interpolation-filters="sRGB" height="3.07913" width="2.963011" x="-.952575" y="-.986903"><feGaussianBlur in="SourceGraphic" result="blur" stdDeviation="4.37767"/><feDiffuseLighting diffuseConstant="1" result="diffuse" surfaceScale="10"><feDistantLight azimuth="249" elevation="9"/></feDiffuseLighting><feComposite in="diffuse" in2="diffuse" k1="1" k2="0" k3="0" k4="0" operator="arithmetic" result="composite1"/><feComposite in="composite1" in2="SourceGraphic" k1="1" k2="0" k3="1" k4="0" operator="arithmetic" result="fbSourceGraphic"/><feColorMatrix in="fbSourceGraphic" result="fbSourceGraphicAlpha" values="0 0 0 -1 0 0 0 0 -1 0 0 0 0 -1 0 0 0 0 1 0"/><feFlood in="fbSourceGraphic" result="flood"/><feComposite in="flood" in2="fbSourceGraphic" operator="in" result="composite1"/><feGaussianBlur in="composite1" result="blur" stdDeviation="1.6"/><feOffset dx=".9" dy="1.6" result="offset"/><feComposite in="fbSourceGraphic" in2="offset" operator="over" result="composite2"/></filter><filter id="d" color-interpolation-filters="sRGB" height="3.098471" width="3.710415" x="-1.314913" y="-.996041"><feGaussianBlur in="SourceGraphic" result="blur" stdDeviation="4.37767"/><feDiffuseLighting diffuseConstant="1" result="diffuse" surfaceScale="10"><feDistantLight azimuth="249" elevation="9"/></feDiffuseLighting><feComposite in="diffuse" in2="diffuse" k1="1" k2="0" k3="0" k4="0" operator="arithmetic" result="composite1"/><feComposite in="composite1" in2="SourceGraphic" k1="1" k2="0" k3="1" k4="0" operator="arithmetic" result="fbSourceGraphic"/><feColorMatrix in="fbSourceGraphic" result="fbSourceGraphicAlpha" values="0 0 0 -1 0 0 0 0 -1 0 0 0 0 -1 0 0 0 0 1 0"/><feFlood in="fbSourceGraphic" result="flood"/><feComposite in="flood" in2="fbSourceGraphic" operator="in" result="composite1"/><feGaussianBlur in="composite1" result="blur" stdDeviation="1.6"/><feOffset dx=".9" dy="1.6" result="offset"/><feComposite in="fbSourceGraphic" in2="offset" operator="over" result="composite2"/></filter><filter id="e" color-interpolation-filters="sRGB" height="3.057174" width="3.931532" x="-1.422451" y="-.976384"><feGaussianBlur in="SourceGraphic" result="blur" stdDeviation="4.37767"/><feDiffuseLighting diffuseConstant="1" result="diffuse" surfaceScale="10"><feDistantLight azimuth="249" elevation="9"/></feDiffuseLighting><feComposite in="diffuse" in2="diffuse" k1="1" k2="0" k3="0" k4="0" operator="arithmetic" result="composite1"/><feComposite in="composite1" in2="SourceGraphic" k1="1" k2="0" k3="1" k4="0" operator="arithmetic" result="fbSourceGraphic"/><feColorMatrix in="fbSourceGraphic" result="fbSourceGraphicAlpha" values="0 0 0 -1 0 0 0 0 -1 0 0 0 0 -1 0 0 0 0 1 0"/><feFlood in="fbSourceGraphic" result="flood"/><feComposite in="flood" in2="fbSourceGraphic" operator="in" result="composite1"/><feGaussianBlur in="composite1" result="blur" stdDeviation="1.6"/><feOffset dx=".9" dy="1.6" result="offset"/><feComposite in="fbSourceGraphic" in2="offset" operator="over" result="composite2"/></filter><filter id="f" color-interpolation-filters="sRGB" height="3.131917" width="3.80956" x="-1.363836" y="-1.01195"><feGaussianBlur in="SourceGraphic" result="blur" stdDeviation="4.37767"/><feDiffuseLighting diffuseConstant="1" result="diffuse" surfaceScale="10"><feDistantLight azimuth="249" elevation="9"/></feDiffuseLighting><feComposite in="diffuse" in2="diffuse" k1="1" k2="0" k3="0" k4="0" operator="arithmetic" result="composite1"/><feComposite in="composite1" in2="SourceGraphic" k1="1" k2="0" k3="1" k4="0" operator="arithmetic" result="fbSourceGraphic"/><feColorMatrix in="fbSourceGraphic" result="fbSourceGraphicAlpha" values="0 0 0 -1 0 0 0 0 -1 0 0 0 0 -1 0 0 0 0 1 0"/><feFlood in="fbSourceGraphic" result="flood"/><feComposite in="flood" in2="fbSourceGraphic" operator="in" result="composite1"/><feGaussianBlur in="composite1" result="blur" stdDeviation="1.6"/><feOffset dx=".9" dy="1.6" result="offset"/><feComposite in="fbSourceGraphic" in2="offset" operator="over" result="composite2"/></filter><clipPath id="g"><path d="m78.789956 118.70983h52.700964v56.92396h-52.700964zm25.858014 25.78985c-.6628 0-1.19639.57781-1.19639 1.29553v2.26067c0 .71772.53359 1.29553 1.19639 1.29553s1.19638-.57781 1.19638-1.29553v-2.26067c0-.71772-.53358-1.29553-1.19638-1.29553z"/></clipPath><filter id="h" color-interpolation-filters="sRGB" height="3.057901" width="3.611943" x="-1.267907" y="-.976817"><feGaussianBlur in="SourceGraphic" result="blur" stdDeviation="4.37767"/><feDiffuseLighting diffuseConstant="1" result="diffuse" surfaceScale="10"><feDistantLight azimuth="249" elevation="9"/></feDiffuseLighting><feComposite in="diffuse" in2="diffuse" k1="1" k2="0" k3="0" k4="0" operator="arithmetic" result="composite1"/><feComposite in="composite1" in2="SourceGraphic" k1="1" k2="0" k3="1" k4="0" operator="arithmetic" result="fbSourceGraphic"/><feColorMatrix in="fbSourceGraphic" result="fbSourceGraphicAlpha" values="0 0 0 -1 0 0 0 0 -1 0 0 0 0 -1 0 0 0 0 1 0"/><feFlood in="fbSourceGraphic" result="flood"/><feComposite in="flood" in2="fbSourceGraphic" operator="in" result="composite1"/><feGaussianBlur in="composite1" result="blur" stdDeviation="1.6"/><feOffset dx=".9" dy="1.6" result="offset"/><feComposite in="fbSourceGraphic" in2="offset" operator="over" result="composite2"/></filter><clipPath id="i"><path d="m62.043996 116.53099h57.490274v59.21846h-57.490274zm27.675454 25.3523c-.527273 2.59325-1.054539 5.1865-1.581806 7.77975 1.388248-.0525 2.777346-.0914 4.165053-.15257.951743-.10993 1.615579-.96961 1.881778-1.83249.146243-.49884.122911-1.02574.180897-1.53888-.0789-1.15235-.625408-2.24323-1.38374-3.10107-.621873-.69536-1.516355-1.24742-2.48009-1.16948-.260697.005-.521394.0104-.782092.0147z"/></clipPath><filter id="j" color-interpolation-filters="sRGB" height="2.790204" width="2.85899" x="-.902416" y="-.84975"><feGaussianBlur in="SourceGraphic" result="blur" stdDeviation="4.37767"/><feDiffuseLighting diffuseConstant="1" result="diffuse" surfaceScale="10"><feDistantLight azimuth="249" elevation="9"/></feDiffuseLighting><feComposite in="diffuse" in2="diffuse" k1="1" k2="0" k3="0" k4="0" operator="arithmetic" result="composite1"/><feComposite in="composite1" in2="SourceGraphic" k1="1" k2="0" k3="1" k4="0" operator="arithmetic" result="fbSourceGraphic"/><feColorMatrix in="fbSourceGraphic" result="fbSourceGraphicAlpha" values="0 0 0 -1 0 0 0 0 -1 0 0 0 0 -1 0 0 0 0 1 0"/><feFlood in="fbSourceGraphic" result="flood"/><feComposite in="flood" in2="fbSourceGraphic" operator="in" result="composite1"/><feGaussianBlur in="composite1" result="blur" stdDeviation="1.6"/><feOffset dx=".9" dy="1.6" result="offset"/><feComposite in="fbSourceGraphic" in2="offset" operator="over" result="composite2"/></filter><filter id="k" color-interpolation-filters="sRGB" height="1.947088" width="2.146406" x="-.556513" y="-.449501"><feGaussianBlur in="SourceGraphic" result="blur" stdDeviation="4.37767"/><feDiffuseLighting diffuseConstant="1" result="diffuse" surfaceScale="10"><feDistantLight azimuth="249" elevation="9"/></feDiffuseLighting><feComposite in="diffuse" in2="diffuse" k1="1" k2="0" k3="0" k4="0" operator="arithmetic" result="composite1"/><feComposite in="composite1" in2="SourceGraphic" k1="1" k2="0" k3="1" k4="0" operator="arithmetic" result="fbSourceGraphic"/><feColorMatrix in="fbSourceGraphic" result="fbSourceGraphicAlpha" values="0 0 0 -1 0 0 0 0 -1 0 0 0 0 -1 0 0 0 0 1 0"/><feFlood in="fbSourceGraphic" result="flood"/><feComposite in="flood" in2="fbSourceGraphic" operator="in" result="composite1"/><feGaussianBlur in="composite1" result="blur" stdDeviation="1.6"/><feOffset dx=".9" dy="1.6" result="offset"/><feComposite in="fbSourceGraphic" in2="offset" operator="over" result="composite2"/></filter><clipPath id="l"><path d="m91.409318 119.16148h51.869422v56.3912h-51.869422zm24.100152 25.39364v4.44105h2.18177v-.95856h-.70135v-3.54013z"/></clipPath><g transform="translate(-80.708755 -98.299055)"><g stroke="#000" stroke-linejoin="bevel"><path d="m100.26036 128.63879h-15.783427c-8.337406-.67204-10.866692 20.29388-11.056157 23.74202-.120096.95301-.09911 4.1297.143959 5.01447.669508 2.43702 2.4987 4.37876 4.287004 4.52305 1.494484.12058 2.960412-.0196 3.697075.039h18.736686v-6.263h-15.973393c-1.877363-.0101-4.206542-2.17873-3.627135-4.38868l4.079809-16.33157h15.469259z" fill="#989898" filter="url(#k)" opacity=".98" stroke-opacity=".964435" stroke-width="1.28599" transform="matrix(.65857511 0 0 .65857511 34.432224 15.957721)"/><path clip-path="url(#i)" d="m86.721456 136.52329c-3.58032-.2063-4.728601 10.49891-4.655614 14.57566l-.03041 2.27071s-.07772.80135.872212.79031l12.63219-.007c1.930859-.22707 3.205986-1.52235 3.098622-5.06972v-5.41865c-1.67222-6.05633-8.636717-7.0054-8.636717-7.0054z" fill="#989898" filter="url(#j)" opacity=".98" stroke-width="1.28599" transform="matrix(.65857511 0 0 .65857511 35.826213 15.957721)"/><path d="m94.913205 109.39852c-.34725 1.70785-.69449 3.4157-1.04174 5.12355.91427-.0346 1.82909-.0602 2.74301-.10048.62678-.0724 1.06397-.63856 1.23928-1.20683.0963-.32853.0809-.67553.11914-1.01347-.052-.75891-.41188-1.47733-.9113-2.04229-.40955-.45795-.99863-.82152-1.63332-.77019-.17169.003-.34338.007-.51507.01z" fill="none" opacity=".98" stroke-width=".846926"/><path d="m104.69044 138.69923c3.27474 0 5.91108 3.10059 5.91108 6.95199v1.44119c0 3.8514-2.63634 6.95198-5.91108 6.95198s-5.911082-3.10058-5.911082-6.95198v-1.44119c0-3.8514 2.636342-6.95199 5.911082-6.95199z" height="15.345156" rx="6.951982" ry="6.951982" style="opacity:.98;fill:#989898;stroke-width:1.28599;stroke-opacity:.964435;clip-path:url(#g);filter:url(#h)" transform="matrix(.65857511 0 0 .65857511 35.826213 15.957721)" width="11.82216" x="98.779358" y="138.69923"/><rect fill="none" height="3.195228" opacity=".98" rx="1.120798" stroke-width=".846926" width="1.575824" x="103.95683" y="111.12162"/><path clip-path="url(#l)" d="m114.88657 139.15088h4.01492c1.93227 0 3.48785 1.55558 3.48785 3.48785v7.8367c0 1.93227-1.55558 3.48785-3.48785 3.48785h-4.01492c-1.93227 0-3.48785-1.55558-3.48785-3.48785v-7.8367c0-1.93227 1.55558-3.48785 3.48785-3.48785z" fill="#989898" filter="url(#f)" stroke-opacity=".964435" stroke-width="1.28599" transform="matrix(.65857511 0 0 .65857511 35.826213 15.957721)"/><path d="m111.70057 111.6363v-.6662h1.18323l.0155.6662m-1.19872 0v2.59464h1.81528v-.74266h-.60498c-.002-.61745.008-1.23483-.0116-1.85198h3.55116" fill="none" opacity=".98" stroke-width=".846926"/><path d="m131.29125 138.99697c4.8092-.0599 4.88444 5.84528 1.00999 5.68358h-1.80726c-.46199-.0388-.28626.0523-.046.23955 1.77086 1.3867 4.49555 3.68524 4.58167 4.9968.22707 2.67727-.0391 3.03995-2.00693 4.07454-1.99481.59044-4.06868.25759-5.26405.0584-4.14387-1.37851-4.21734-6.03271-.16238-5.60204l1.40512.0679.91585.91586h.41089c-1.97727-1.85333-4.03513-3.69138-5.61929-5.61928-.82024-3.70167 2.04538-4.90326 4.0591-4.83671-2.99988-.006 1.98235.0182 2.52326.0214z" fill="#989898" filter="url(#e)" opacity=".98" stroke-opacity=".964435" stroke-width="1.28599" transform="matrix(.65857511 0 0 .65857511 34.432224 15.957721)"/><path d="m130.15897 153.31584-2.96676 15.01334 9.80598.0314c2.12984.17668 2.21698-5.22098-.37979-4.79324l-3.4183.0707 2.64574-10.31028z" fill="#546387" filter="url(#d)" opacity=".98" stroke-opacity=".964435" stroke-width="1.28599" transform="matrix(.65857511 0 0 .65857511 34.432224 15.957721)"/><path d="m113.27522 123.70297.40837-3.24294.85081.0283c1.00507.47386 1.50548 1.21082 1.5128 2.20483l-.008 1.02598z" fill="none" opacity=".98" stroke-width=".846926"/><path d="m113.99779 153.16734-2.68949 15.16864h13.01591c7.70355-6.94073-3.12262-15.3088-6.50672-15.1873z" style="opacity:.98;fill:#546387;stroke-width:1.28599;stroke-opacity:.964435;clip-path:url(#b);filter:url(#c)" transform="matrix(.65857511 0 0 .65857511 35.826213 15.957721)"/><path d="m108.79082 153.28896c-1.77414-.011-3.6343-.17099-3.85347 2.50963l.0274 2.99779 5.62473 4.98476-1.12747-.0197c-1.6036-1.6408-2.81787-1.02044-4.00529-.24408-2.29426 1.83391-.74523 4.10582 2.36225 4.85098 1.1321.27147 2.8246.30232 4.18467.14058 2.32292-.78537 2.78003-1.67557 3.00792-2.57866l.15381-2.352-4.89167-4.76258-.0199-.69125.65507.76923 2.71705-.0637c3.28671-2.53244.53834-5.85299-1.66047-5.52153z" fill="#546387" filter="url(#a)" opacity=".98" stroke-opacity=".964435" stroke-width="1.28599" transform="matrix(.65857511 0 0 .65857511 34.432224 15.957721)"/></g><g opacity=".388041" stroke-width="1.31363"><path d="m94.40704114865 120.0553760049h.987862665v.987862665h-.987862665z" fill="#555" opacity=".98"/><path d="m93.78664758923 119.52926010677h.987862665v.987862665h-.987862665z" fill="#fff" opacity=".98"/><path d="m94.43807781786 102.31087971333h.987862665v.987862665h-.987862665z" fill="#555" opacity=".98"/><path d="m93.81768425844 101.78476381521h.987862665v.987862665h-.987862665z" fill="#fff" opacity=".98"/><g fill="#4d4d4d"><path d="m88.12126969411 102.32498639219h.52274399356v.52274399356h-.52274399356z" opacity=".98"/><path d="m93.71501766739 107.04008782099h.52274399356v.52274399356h-.52274399356z" opacity=".98"/><path d="m102.9890038746 109.0979111242h.52274399356v.52274399356h-.52274399356z" opacity=".98"/><path d="m110.87521690131 109.01925091306h.52274399356v.52274399356h-.52274399356z" opacity=".98"/><path d="m118.17976980512 109.06530507051h.52274399356v.52274399356h-.52274399356z" opacity=".98"/></g><path d="m121.7587040399 117.92574167169h.52274399356v.52274399356h-.52274399356z" fill="#fff" opacity=".98"/><path d="m111.83583431401 118.02001011294h.52274399356v.52274399356h-.52274399356z" fill="#fff" opacity=".98"/><path d="m105.22871903744 118.41161204484h.52274399356v.52274399356h-.52274399356z" fill="#fff" opacity=".98"/></g></g></svg>