<svg height="51.770611mm" viewBox="0 0 48.310186 32.203108" width="77.664787mm" xmlns="http://www.w3.org/2000/svg" xmlns:xlink="http://www.w3.org/1999/xlink"><filter id="a" color-interpolation-filters="sRGB" height="1.560451" width="1.693748" x="-.291203" y="-.23519"><feFlood result="flood"/><feComposite in="flood" in2="SourceGraphic" operator="in" result="composite1"/><feGaussianBlur in="composite1" result="blur" stdDeviation="3"/><feOffset dx="3" dy="3" result="offset"/><feComposite in="SourceGraphic" in2="offset" operator="over" result="composite2"/></filter><filter id="b" color-interpolation-filters="sRGB" height="2.219936" width="2.728795" x="-.725544" y="-.512112"><feFlood result="flood"/><feComposite in="flood" in2="SourceGraphic" operator="in" result="composite1"/><feGaussianBlur in="composite1" result="blur" stdDeviation="3"/><feOffset dx="3" dy="3" result="offset"/><feComposite in="SourceGraphic" in2="offset" operator="over" result="composite2"/></filter><filter id="c" color-interpolation-filters="sRGB" height="1.37097" width="1.357667" x="-.154682" y="-.160815"><feFlood result="flood"/><feComposite in="flood" in2="SourceGraphic" operator="in" result="composite1"/><feGaussianBlur in="composite1" result="blur" stdDeviation="3"/><feOffset dx="3" dy="3" result="offset"/><feComposite in="SourceGraphic" in2="offset" operator="over" result="composite2"/></filter><filter id="d" color-interpolation-filters="sRGB" height="2.241747" width="2.639956" x="-.687499" y="-.521164"><feFlood result="flood"/><feComposite in="flood" in2="SourceGraphic" operator="in" result="composite1"/><feGaussianBlur in="composite1" result="blur" stdDeviation="3"/><feOffset dx="3" dy="3" result="offset"/><feComposite in="SourceGraphic" in2="offset" operator="over" result="composite2"/></filter><filter id="e" color-interpolation-filters="sRGB" height="2.217368" width="2.773887" x="-.743936" y="-.510884"><feFlood result="flood"/><feComposite in="flood" in2="SourceGraphic" operator="in" result="composite1"/><feGaussianBlur in="composite1" result="blur" stdDeviation="3"/><feOffset dx="3" dy="3" result="offset"/><feComposite in="SourceGraphic" in2="offset" operator="over" result="composite2"/></filter><filter id="f" color-interpolation-filters="sRGB" height="6.595775" width="4.752411" x="-1.604984" y="-2.337883"><feFlood result="flood"/><feComposite in="flood" in2="SourceGraphic" operator="in" result="composite1"/><feGaussianBlur in="composite1" result="blur" stdDeviation="3"/><feOffset dx="3" dy="3" result="offset"/><feComposite in="SourceGraphic" in2="offset" operator="over" result="composite2"/></filter><filter id="g" color-interpolation-filters="sRGB" height="1.380384" width="1.512658" x="-.222222" y="-.164885"><feFlood result="flood"/><feComposite in="flood" in2="SourceGraphic" operator="in" result="composite1"/><feGaussianBlur in="composite1" result="blur" stdDeviation="3"/><feOffset dx="3" dy="3" result="offset"/><feComposite in="SourceGraphic" in2="offset" operator="over" result="composite2"/></filter><filter id="h" color-interpolation-filters="sRGB" height="1.367172" width="1.476592" x="-.206588" y="-.159158"><feFlood result="flood"/><feComposite in="flood" in2="SourceGraphic" operator="in" result="composite1"/><feGaussianBlur in="composite1" result="blur" stdDeviation="3"/><feOffset dx="3" dy="3" result="offset"/><feComposite in="SourceGraphic" in2="offset" operator="over" result="composite2"/></filter><filter id="i" color-interpolation-filters="sRGB" height="1.319414" width="1.339223" x="-.147056" y="-.138457"><feFlood result="flood"/><feComposite in="flood" in2="SourceGraphic" operator="in" result="composite1"/><feGaussianBlur in="composite1" result="blur" stdDeviation="3"/><feOffset dx="3" dy="3" result="offset"/><feComposite in="SourceGraphic" in2="offset" operator="over" result="composite2"/></filter><g transform="translate(-80.708755 -98.299055)"><g stroke="#000" stroke-linejoin="bevel"><path d="m100.26036 128.63879h-15.783427c-8.337406-.67204-10.866692 20.29388-11.056157 23.74202-.120096.95301-.09911 4.1297.143959 5.01447.669508 2.43702 2.4987 4.37876 4.287004 4.52305 1.494484.12058 2.960412-.0196 3.697075.039h18.736686v-6.263h-15.973393c-1.877363-.0101-4.206542-2.17873-3.627135-4.38868l4.079809-16.33157h15.469259z" fill="#989898" filter="url(#a)" opacity=".98" stroke-opacity=".964435" stroke-width="1.28599" transform="matrix(.65857511 0 0 .65857511 34.432224 15.957721)"/><path d="m73.976562 45.982422c-14.064322-.146417-18.584701 42.150064-18.294921 58.335938l-.123047 9.08594s-.310967 3.20628 3.490234 3.16211l50.548832-.0273c7.72643-.90863 12.83001-6.09213 12.40039-20.287107v-21.683644c-6.69148-24.23471-34.56055-28.03125-34.56055-28.03125l-13.126953-.544921c-.111928-.0065-.223242-.0086-.333985-.0098zm16.179688 21.371094c3.579952-.0041 6.872145 2.100355 9.205078 4.708984 3.034502 3.432678 5.221392 7.797071 5.537112 12.408203-.23201 2.053409-.13943 4.162092-.72461 6.158203-1.06521 3.45285-3.72085 6.892124-7.529299 7.332032-5.552978.244683-11.110874.401095-16.666015.611328 1.065293-5.239398 3.581197-32.107244 9.458984-31.189454.241027-.01949.480087-.02902.71875-.0293z" fill="#989898" filter="url(#i)" opacity=".98" stroke-width="5.14595" transform="matrix(.16457998 0 0 .16457998 80.708755 98.299055)"/><path d="m146.21484 54.699219c-13.10403 0-23.65429 12.40875-23.65429 27.820312v5.765625c0 15.411564 10.55026 27.818364 23.65429 27.818364s23.65235-12.4068 23.65235-27.818364v-5.765625c0-15.411562-10.54832-27.820312-23.65235-27.820312zm-.16992 23.210937c2.65223 0 4.78711 3.512102 4.78711 7.873047v3.669922c0 4.360945-2.13488 7.873047-4.78711 7.873047-2.65222 0-4.78711-3.512102-4.78711-7.873047v-3.669922c0-4.360945 2.13489-7.873047 4.78711-7.873047z" fill="#989898" filter="url(#h)" opacity=".98" stroke-opacity=".964435" stroke-width="5.14595" transform="matrix(.16457998 0 0 .16457998 80.708755 98.299055)"/><path d="m187.01562 56.507812c-7.73207 0-13.95703 6.224956-13.95703 13.957032v31.357426c0 7.73207 6.22496 13.95703 13.95703 13.95703h16.06446c7.73207 0 13.95703-6.22496 13.95703-13.95703v-31.357426c0-7.732076-6.22496-13.957032-13.95703-13.957032zm1.29297 20.482422h7.18946l.0937 4.046875c.11909 3.749849.0582 7.502235.0703 11.253907h3.67578v4.511718h-11.0293v-15.765625z" fill="#989898" filter="url(#g)" stroke-opacity=".964435" stroke-width="5.14595" transform="matrix(.16457998 0 0 .16457998 80.708755 98.299055)"/><path d="m111.70057 111.6363v-.6662h1.18323l.0155.6662m-1.19872 0v2.59464h1.81528v-.74266h-.60498c-.002-.61745.008-1.23483-.0116-1.85198h3.55116" fill="none" filter="url(#f)" opacity=".98" stroke-width=".846926"/><path d="m131.29125 138.99697c4.8092-.0599 4.88444 5.84528 1.00999 5.68358h-1.80726c-.46199-.0388-.28626.0523-.046.23955 1.77086 1.3867 4.49555 3.68524 4.58167 4.9968.22707 2.67727-.0391 3.03995-2.00693 4.07454-1.99481.59044-4.06868.25759-5.26405.0584-4.14387-1.37851-4.21734-6.03271-.16238-5.60204l1.40512.0679.91585.91586h.41089c-1.97727-1.85333-4.03513-3.69138-5.61929-5.61928-.82024-3.70167 2.04538-4.90326 4.0591-4.83671-2.99988-.006 1.98235.0182 2.52326.0214z" fill="#989898" filter="url(#e)" opacity=".98" stroke-opacity=".964435" stroke-width="1.28599" transform="matrix(.65857511 0 0 .65857511 34.432224 15.957721)"/><path d="m130.15897 153.31584-2.96676 15.01334 9.80598.0314c2.12984.17668 2.21698-5.22098-.37979-4.79324l-3.4183.0707 2.64574-10.31028z" fill="#546387" filter="url(#d)" opacity=".98" stroke-opacity=".964435" stroke-width="1.28599" transform="matrix(.65857511 0 0 .65857511 34.432224 15.957721)"/><path d="m198.74219 112.51953-15.28321.0762-10.76367 60.69727h52.08399c30.82614-27.77368-12.49547-61.25963-26.03711-60.77344zm1.61523 22.13281 5.16992.17188c6.10688 2.87921 9.14693 7.35681 9.19141 13.39648l-.0488 6.23438-16.79297-.0996z" fill="#546387" filter="url(#c)" opacity=".98" stroke-opacity=".964435" stroke-width="5.14595" transform="matrix(.16457998 0 0 .16457998 80.708755 98.299055)"/><path d="m108.79082 153.28896c-1.77414-.011-3.6343-.17099-3.85347 2.50963l.0274 2.99779 5.62473 4.98476-1.12747-.0197c-1.6036-1.6408-2.81787-1.02044-4.00529-.24408-2.29426 1.83391-.74523 4.10582 2.36225 4.85098 1.1321.27147 2.8246.30232 4.18467.14058 2.32292-.78537 2.78003-1.67557 3.00792-2.57866l.15381-2.352-4.89167-4.76258-.0199-.69125.65507.76923 2.71705-.0637c3.28671-2.53244.53834-5.85299-1.66047-5.52153z" fill="#546387" filter="url(#b)" opacity=".98" stroke-opacity=".964435" stroke-width="1.28599" transform="matrix(.65857511 0 0 .65857511 34.432224 15.957721)"/></g><g opacity=".388041" stroke-width="1.31363"><path d="m94.40704114865 120.0553760049h.987862665v.987862665h-.987862665z" fill="#555" opacity=".98"/><path d="m93.78664758923 119.52926010677h.987862665v.987862665h-.987862665z" fill="#fff" opacity=".98"/><path d="m94.43807781786 102.31087971333h.987862665v.987862665h-.987862665z" fill="#555" opacity=".98"/><path d="m93.81768425844 101.78476381521h.987862665v.987862665h-.987862665z" fill="#fff" opacity=".98"/><g fill="#4d4d4d"><path d="m88.12126969411 102.32498639219h.52274399356v.52274399356h-.52274399356z" opacity=".98"/><path d="m93.71501766739 107.04008782099h.52274399356v.52274399356h-.52274399356z" opacity=".98"/><path d="m102.9890038746 109.0979111242h.52274399356v.52274399356h-.52274399356z" opacity=".98"/><path d="m110.87521690131 109.01925091306h.52274399356v.52274399356h-.52274399356z" opacity=".98"/><path d="m118.17976980512 109.06530507051h.52274399356v.52274399356h-.52274399356z" opacity=".98"/></g><path d="m121.7587040399 117.92574167169h.52274399356v.52274399356h-.52274399356z" fill="#fff" opacity=".98"/><path d="m111.83583431401 118.02001011294h.52274399356v.52274399356h-.52274399356z" fill="#fff" opacity=".98"/><path d="m105.22871903744 118.41161204484h.52274399356v.52274399356h-.52274399356z" fill="#fff" opacity=".98"/></g></g></svg>