<?xml version="1.0" encoding="UTF-8" standalone="no"?>
<svg
   version="1.0"
   width="427.43594pt"
   height="158.32361pt"
   viewBox="0 0 598.41032 221.65306"
   preserveAspectRatio="xMidYMid meet"
   id="svg1162"
   sodipodi:docname="centurye.svg"
   inkscape:version="1.1.2 (0a00cf5339, 2022-02-04)"
   xmlns:inkscape="http://www.inkscape.org/namespaces/inkscape"
   xmlns:sodipodi="http://sodipodi.sourceforge.net/DTD/sodipodi-0.dtd"
   xmlns="http://www.w3.org/2000/svg"
   xmlns:svg="http://www.w3.org/2000/svg">
  <defs
     id="defs1166" />
  <sodipodi:namedview
     id="namedview1164"
     pagecolor="#ffffff"
     bordercolor="#111111"
     borderopacity="1"
     inkscape:pageshadow="0"
     inkscape:pageopacity="0"
     inkscape:pagecheckerboard="1"
     inkscape:document-units="pt"
     showgrid="false"
     inkscape:zoom="0.61999999"
     inkscape:cx="425.80646"
     inkscape:cy="168.54839"
     inkscape:window-width="1366"
     inkscape:window-height="703"
     inkscape:window-x="0"
     inkscape:window-y="0"
     inkscape:window-maximized="1"
     inkscape:current-layer="layer1"
     fit-margin-top="0"
     fit-margin-left="0"
     fit-margin-right="0"
     fit-margin-bottom="0" />
  <g
     transform="matrix(0.1,0,0,-0.1,0.04738264,222.93383)"
     fill="#000000"
     stroke="none"
     id="g1160"
     inkscape:label="Globe">
    <path
       d="m 1350,2211 c -100,-28 -161,-54 -226,-97 -179,-119 -312,-310 -350,-502 -8,-42 -17,-87 -19,-99 -4,-16 -39,-39 -137,-90 C 332,1274 57,1081 14,999 -19,935 6,863 73,829 c 39,-21 51,-21 187,-15 181,7 369,35 525,77 181,48 167,48 226,-5 99,-89 245,-157 373,-175 78,-11 86,-9 86,22 0,19 -10,24 -79,40 -98,22 -215,78 -305,146 -63,48 -71,51 -99,42 -16,-6 -31,-11 -33,-11 -1,0 -18,23 -38,50 -28,38 -33,52 -22,56 8,3 119,41 247,84 129,43 260,88 291,99 114,42 428,184 625,283 111,57 205,99 209,95 4,-3 9,-29 12,-56 4,-49 4,-49 -38,-76 -88,-55 -524,-265 -672,-323 -84,-33 -233,-86 -330,-118 -98,-33 -178,-64 -178,-69 0,-7 42,-10 120,-8 116,2 123,4 192,38 83,42 131,44 136,7 2,-13 -4,-32 -12,-41 -15,-16 -15,-19 -1,-31 20,-16 98,16 172,71 36,27 62,39 86,39 23,0 41,8 57,25 27,28 40,32 40,10 0,-10 10,-15 30,-15 17,0 30,-5 30,-10 0,-17 -27,-22 -49,-10 -18,9 -22,8 -28,-7 -13,-38 -36,-53 -79,-53 -24,0 -46,5 -49,10 -4,7 -13,7 -26,0 -24,-13 -25,-32 -1,-28 37,6 57,-26 22,-37 -54,-17 -3,-24 171,-22 l 191,2 52,56 c 99,106 162,263 174,434 l 7,99 60,34 c 323,186 547,341 582,404 23,42 16,87 -19,122 -27,27 -43,34 -93,40 -100,11 -348,-33 -580,-103 l -130,-39 -51,48 c -68,64 -178,135 -257,165 -149,56 -333,70 -457,36 z m 1380,-256 c 10,-12 10,-18 0,-29 -29,-36 -417,-266 -447,-266 -5,0 -15,19 -22,43 -7,23 -23,63 -36,89 -18,35 -21,49 -12,56 18,14 236,82 329,102 106,23 172,25 188,5 z m -1550,-24 c 0,-12 -20,-25 -27,-18 -7,7 6,27 18,27 5,0 9,-4 9,-9 z m 15,-72 c 7,-10 -31,-59 -46,-59 -19,0 -50,36 -44,53 8,19 79,25 90,6 z m 635,1 c 0,-6 11,-15 25,-20 28,-11 33,-28 10,-36 -15,-6 -67,45 -58,58 6,12 23,10 23,-2 z M 926,1748 c -3,-13 -9,-42 -12,-64 -6,-37 -4,-43 17,-55 13,-6 34,-23 47,-37 20,-21 29,-23 67,-18 51,8 59,0 39,-38 -29,-57 -12,-61 57,-11 57,41 59,41 59,15 0,-11 3,-20 8,-20 11,0 55,32 84,62 23,24 33,27 78,25 28,-2 56,-9 62,-15 9,-9 18,-6 38,13 24,23 28,24 40,10 19,-23 38,-18 67,15 13,17 29,30 34,30 5,0 8,-25 6,-56 -4,-51 -2,-56 19,-65 13,-4 24,-15 24,-22 0,-21 -37,-50 -55,-43 -8,3 -26,0 -40,-6 -21,-9 -28,-8 -46,8 -20,18 -21,18 -45,-14 -17,-21 -34,-32 -51,-32 -14,0 -38,-11 -55,-25 -16,-14 -41,-25 -54,-25 -34,0 -194,-111 -194,-134 0,-11 -82,-86 -94,-86 -3,0 -6,6 -6,14 0,27 -21,28 -61,2 -22,-15 -43,-25 -48,-22 -4,3 -19,40 -32,83 -21,67 -24,98 -24,218 0,127 3,148 29,228 15,48 33,87 38,87 6,0 8,-10 4,-22 z m 609,-98 c -3,-5 -10,-10 -16,-10 -5,0 -9,5 -9,10 0,6 7,10 16,10 8,0 12,-4 9,-10 z M 784,1248 c 10,-35 29,-89 43,-121 14,-31 23,-60 20,-64 -26,-26 -414,-103 -593,-119 -82,-6 -100,-1 -89,28 6,16 104,81 235,156 90,52 348,182 361,182 3,0 14,-28 23,-62 z m 1201,-108 c 12,-19 -24,-60 -50,-60 -33,0 -32,23 3,49 31,23 38,25 47,11 z m 55,-84 c 0,-15 -18,-31 -26,-23 -7,7 7,37 17,37 5,0 9,-6 9,-14 z"
       id="path1090" />
    <path
       d="m 1360,1555 c -11,-28 -13,-55 -5,-55 3,0 21,10 40,23 41,26 42,51 2,55 -21,3 -29,-2 -37,-23 z"
       id="path1092" />
    <path
       d="m 1542,1560 c -18,-29 -5,-46 19,-24 10,9 19,23 19,31 0,20 -24,16 -38,-7 z"
       id="path1094" />
  </g>
  <g
     inkscape:groupmode="layer"
     id="layer1"
     inkscape:label="Text"
     transform="translate(0.04738264,-0.06616892)">
    <text
       xml:space="preserve"
       style="font-size:41.298px;line-height:1.25;font-family:Harry;-inkscape-font-specification:Harry;display:inline;stroke-width:0.75"
       x="146.38165"
       y="227.96417"
       id="text8202"
       transform="scale(1.0324501,0.96856982)"><tspan
         sodipodi:role="line"
         id="tspan8200"
         style="font-style:normal;font-variant:normal;font-weight:normal;font-stretch:normal;font-size:41.298px;font-family:FreeSans;-inkscape-font-specification:FreeSans;stroke-width:0.75"
         x="146.38165"
         y="227.96417">AHEAD OF THE GAME</tspan></text>
    <text
       xml:space="preserve"
       style="font-size:64.9675px;line-height:1.25;font-family:Harry;-inkscape-font-specification:Harry;letter-spacing:0px;display:inline;fill:#000000;fill-opacity:1;stroke-width:0.75"
       x="240.60318"
       y="120.1809"
       id="text2965"
       transform="scale(0.95751612,1.0443688)"><tspan
         sodipodi:role="line"
         id="tspan2963"
         style="font-style:normal;font-variant:normal;font-weight:normal;font-stretch:normal;font-size:64.9675px;font-family:'Crossharbour DB';-inkscape-font-specification:'Crossharbour DB';fill:#000000;fill-opacity:1;stroke-width:0.75"
         x="240.60318"
         y="120.1809">CENTURY</tspan></text>
    <text
       xml:space="preserve"
       style="font-size:65.1246px;line-height:1.25;font-family:Harry;-inkscape-font-specification:Harry;letter-spacing:0px;display:inline;fill:#000000;fill-opacity:1;stroke-width:0.75"
       x="153.14742"
       y="173.94124"
       id="text20253"
       transform="scale(0.95762643,1.0442485)"><tspan
         sodipodi:role="line"
         id="tspan20251"
         style="font-style:normal;font-variant:normal;font-weight:normal;font-stretch:normal;font-size:65.1246px;font-family:'Crossharbour DB';-inkscape-font-specification:'Crossharbour DB';fill:#000000;fill-opacity:1;stroke-width:0.75"
         x="153.14742"
         y="173.94124">ELECTRONICS</tspan></text>
  </g>
</svg>
