<svg height="162.07266" viewBox="0 0 601.38502 226.90173" width="429.56073" xmlns="http://www.w3.org/2000/svg" xmlns:xlink="http://www.w3.org/1999/xlink"><mask id="a" maskUnits="userSpaceOnUse"><path d="m361.88708 87.601334h136.89083v131.417666h-136.89083z" fill="#fff"/><path d="m430.09153 218.43015v-3.8545" fill="none" opacity=".98" stroke="#000" stroke-linecap="round" stroke-width="7.50001"/></mask><mask id="b" maskUnits="userSpaceOnUse"><path d="m298.36258 35.252083h34v34h-34z" fill="#fff"/><path d="m314.29223 41.718246c-3.68395-.01046-10.12027 2.452856-8.10627 6.458468 1.93388 1.943909 3.99293-.690405 5.22582-.834329 1.37368-.414058 2.43059-.362349 3.35249-.112113l2.6567.475354c3.37068-.321766 3.06781-2.143839 2.46933-3.847396-1.25812-1.499883-3.24868-2.349811-5.59807-2.139984z" opacity=".98"/></mask><mask id="c" maskUnits="userSpaceOnUse"><path d="m139.09673 84.560364h136v135.999996h-136z" fill="#fff"/><path d="m205.3427 116.12848c12.71693-31.531037 39.06159-59.252004 88.4314-60.644094-24.31142 11.988028-47.83459 31.182688-58.87936 68.730014z" opacity=".98" stroke="#000" stroke-linecap="round" stroke-width="7"/></mask><g transform="translate(-.826959 -36.252083)"><g fill="#fff" fill-opacity=".5" stroke-width="1.4"><path d="m426.17197 187.28228q0 .336-.0812.5656-.1204.3416-.3864.3416-.1764 0-.3696-.0812-.2324-.098-.2548-.2408.0784 0 .1848.028.2464.0644.308.0644.238 0 .3584-.238.0952-.1904.0952-.4564 0-.1876-.1232-.5348-.1204-.35-.1204-.4872 0-.042.0224-.0672.0252-.028.0672-.028.1092 0 .2128.504.0868.4256.0868.63z"/><path d="m427.24997 187.56788q0 .2856-.1652.448-.1652.1624-.4564.1624-.1596 0-.2464-.0756-.0868-.0756-.0868-.2324 0-.2212.2884-.4452.2744-.2128.5068-.2128.1064 0 .14.1316.0196.0756.0196.224zm-.1708.0784q0-.0336-.008-.0644-.006-.0336-.0224-.0756-.0448.0308-.1484.1512-.0532.0616-.0924.0896 0-.0532.0112-.0868.0224-.0476.0364-.0812-.1232 0-.2576.1036-.1316.1036-.1316.224 0 .0812.0896.0812.1708 0 .3304-.084.1932-.1008.1932-.2576z"/><path d="m428.40357 187.68268q0 .1372-.1036.308-.1176.1932-.2436.1932-.0364 0-.0616-.0392-.0224-.042-.0224-.0812 0-.0504.1064-.1568.1092-.1092.1092-.1484 0-.0252-.008-.0504-.008-.0252-.0112-.0336-.21.0476-.4284.2408-.2156.1932-.3276.2184-.0224-.0616-.0224-.126 0-.0784.0364-.1652.0252-.0616.084-.1484.098-.1484.2072-.336.056-.098.1932-.3388.14-.2408.2044-.3416.0336-.0504.0588-.0756.0364-.0336.0868-.0448.0336.0112.0476.042.0168.0308.0168.0728 0 .0952-.1232.2576-.224.2912-.2296.3024-.126.1904-.126.3444l.006.028q.154-.0756.182-.0868.1148-.0476.196-.0476.0896 0 .1316.0616.042.0588.042.1512z"/><path d="m429.70278 187.51748q0 .1904-.0924.406-.1008.238-.2492.3276-.0308-.0364-.0532-.0812-.0196-.0448-.0196-.0896 0-.0476.14-.2828.0616-.1036.056-.182l-.003-.0364q-.1036.0308-.3584.1876-.252.154-.5096.3136-.0392 0-.0728-.028-.0308-.0308-.0308-.0672 0-.0588.1876-.3948.056-.1008.2016-.35.0448.0588.0588.1316.014.07.014.168 0 .042 0 .0644.2576-.154.4032-.2324.1596-.0868.2184-.0868.0392 0 .0728.0896.0364.0896.0364.1428z"/><path d="m432.13597 188.06068q0 .0504-.0448.0784-.042.0252-.0952.0252-.0476 0-.1204-.0112-.1652-.0252-.2128-.0252-.084 0-.3304.0196-.14.0112-.2016.0112-.1708 0-.1708-.1708 0-.1624.1064-.4648.0588-.1708.2212-.56.1456-.35.1848-.4928.014-.0448.0224-.0588.0224-.0336.056-.0336.0532 0 .0896.0784.0364.0756.0364.1372 0 .098-.1148.3304-.1148.2296-.224.4508-.1204.2632-.1204.4004 0 .07.0588.098.042.0196.1232.0196.0616 0 .2128-.014.1512-.0168.2016-.0168.126 0 .2072.0364.1148.0504.1148.1624z"/><path d="m433.17758 187.56788q0 .2856-.1652.448-.1652.1624-.4564.1624-.1596 0-.2464-.0756-.0868-.0756-.0868-.2324 0-.2212.2884-.4452.2744-.2128.5068-.2128.1064 0 .14.1316.0196.0756.0196.224zm-.1708.0784q0-.0336-.008-.0644-.006-.0336-.0224-.0756-.0448.0308-.1484.1512-.0532.0616-.0924.0896 0-.0532.0112-.0868.0224-.0476.0364-.0812-.1232 0-.2576.1036-.1316.1036-.1316.224 0 .0812.0896.0812.1708 0 .3304-.084.1932-.1008.1932-.2576z"/><path d="m434.35638 187.50908q0 .0896-.0476.1904-.0448.1008-.1148.168l-.003-.0392q0-.0336.008-.1036.008-.07.008-.1036 0-.0476-.014-.07-.014-.0252-.0588-.0252-.1316 0-.3276.2044-.2128.224-.4228.4452-.0168 0-.0336-.003-.042-.0112-.056-.014.008-.1008.07-.224.1652-.3332.1708-.3556.0224-.0896.0336-.1316.0112-.042.0308-.0868.0224-.0476.0504-.084.0308-.0392.0784-.0588l.028.336q.1204-.098.1848-.1512.1232-.098.2128-.098.0896 0 .1456.0588.056.0588.056.1456z"/><path d="m435.73118 187.18428q0 .1176-.3136.3108-.3024.1848-.4396.1848-.0644 0-.0868-.0448-.0196-.0448-.0196-.126 0-.0532 0-.0756.1876 0 .3416-.056.154-.056.2688-.1848-.084-.0308-.1708-.0308-.2044 0-.434.1568-.252.1708-.252.364 0 .1848.252.2576.0392.0112.4732.0784.2548.0392.2548.1372 0 .042-.0924.0672-.0924.028-.2352.028-.3584 0-.5656-.1092-.2744-.1456-.2744-.4676 0-.336.336-.5348.2856-.168.6496-.168.1092 0 .1988.0504.1092.0616.1092.1624z"/><path d="m436.84558 186.68308q0 .0616-.1484.2576-.1484.196-.1484.2996 0 .0532.0616.1064.14.1232.14.1512 0 .0364-.0252.07-.0224.0336-.0588.0336-.0308 0-.0868-.0336-.0392-.0224-.1512-.1092-.042.0812-.0644.1232-.0784.1484-.1064.2156-.042.1288-.084.2576-.0728.1736-.182.1736l-.003-.0644q0-.1988.1288-.4704.0252-.0504.14-.2604-.2212-.1204-.4872-.1204 0-.1036.042-.1512.0448-.0504.1484-.0504.0952 0 .238.0336.07.0168.14.0336.0532-.0168.1456-.182.2268-.3976.308-.4564.0224.0364.0364.0728.0168.0364.0168.07z"/><path d="m437.87878 187.68268q0 .1372-.1036.308-.1176.1932-.2436.1932-.0364 0-.0616-.0392-.0224-.042-.0224-.0812 0-.0504.1064-.1568.1092-.1092.1092-.1484 0-.0252-.008-.0504-.008-.0252-.0112-.0336-.21.0476-.4284.2408-.2156.1932-.3276.2184-.0224-.0616-.0224-.126 0-.0784.0364-.1652.0252-.0616.084-.1484.098-.1484.2072-.336.056-.098.1932-.3388.14-.2408.2044-.3416.0336-.0504.0588-.0756.0364-.0336.0868-.0448.0336.0112.0476.042.0168.0308.0168.0728 0 .0952-.1232.2576-.224.2912-.2296.3024-.126.1904-.126.3444l.006.028q.154-.0756.182-.0868.1148-.0476.196-.0476.0896 0 .1316.0616.042.0588.042.1512z"/><path d="m440.17758 186.76988q0 .1316-.14.3528-.0896.14-.294.4032-.2044.2604-.2548.3416.008.003.21.0672.2044.0616.2044.224-.084.014-.1652.0252l-.0308-.003v-.0224q-.0448-.0112-.0728-.0112-.0532 0-.168.0168-.1148.0168-.1736.0168-.0756 0-.1232-.028-.0476-.028-.0476-.1008 0-.0588.2156-.3332.4032-.5124.406-.518.2184-.2968.2184-.3976 0-.0392-.028-.0588-.0252-.0196-.1036-.0196-.0532 0-.2212.1036-.0812.0504-.1316.0504l-.0476-.008q-.0168-.0112-.0364-.042-.0196-.0336-.0196-.0532 0-.1176.2268-.2156.1932-.084.336-.084.1204 0 .1848.0896.056.0784.056.2044z"/><path d="m441.86038 187.27388q0 .3388-.3668.5992-.336.238-.6916.238-.1764 0-.28-.0896-.1036-.0896-.1036-.2604 0-.3808.3332-.6608.3164-.266.7084-.266.1988 0 .2996.1176.1008.1176.1008.322zm-.1708.0644q0-.1288-.1456-.1932-.1092-.0476-.2604-.0476-.2212 0-.462.2156-.2408.2156-.2408.434 0 .0896.0448.1288.0476.0364.1428.0364.2744 0 .5712-.1512.35-.1792.35-.4228z"/><path d="m443.14278 186.76988q0 .1316-.14.3528-.0896.14-.294.4032-.2044.2604-.2548.3416.008.003.21.0672.2044.0616.2044.224-.084.014-.1652.0252l-.0308-.003v-.0224q-.0448-.0112-.0728-.0112-.0532 0-.168.0168-.1148.0168-.1736.0168-.0756 0-.1232-.028-.0476-.028-.0476-.1008 0-.0588.2156-.3332.4032-.5124.406-.518.2184-.2968.2184-.3976 0-.0392-.028-.0588-.0252-.0196-.1036-.0196-.0532 0-.2212.1036-.0812.0504-.1316.0504l-.0476-.008q-.0168-.0112-.0364-.042-.0196-.0336-.0196-.0532 0-.1176.2268-.2156.1932-.084.336-.084.1204 0 .1848.0896.056.0784.056.2044z"/><path d="m444.43078 186.76988q0 .1316-.14.3528-.0896.14-.294.4032-.2044.2604-.2548.3416.008.003.21.0672.2044.0616.2044.224-.084.014-.1652.0252l-.0308-.003v-.0224q-.0448-.0112-.0728-.0112-.0532 0-.168.0168-.1148.0168-.1736.0168-.0756 0-.1232-.028-.0476-.028-.0476-.1008 0-.0588.2156-.3332.4032-.5124.406-.518.2184-.2968.2184-.3976 0-.0392-.028-.0588-.0252-.0196-.1036-.0196-.0532 0-.2212.1036-.0812.0504-.1316.0504l-.0476-.008q-.0168-.0112-.0364-.042-.0196-.0336-.0196-.0532 0-.1176.2268-.2156.1932-.084.336-.084.1204 0 .1848.0896.056.0784.056.2044z"/></g><path d="m148.06151 152.36588h-72.793675m74.669935-.21546a67.642654 58.065201 0 0 1 -67.64265 58.0652 67.642654 58.065201 0 0 1 -67.642654-58.0652 67.642654 58.065201 0 0 1 67.642654-58.0652 67.642654 58.065201 0 0 1 67.64265 58.0652z" fill="none" opacity=".98" stroke="#14a83b" stroke-linecap="round" stroke-width="22"/><g fill-opacity=".996078"><g fill="#14a83b"><path d="m263.09673 152.56036a56 56 0 0 1 -56 56 56 56 0 0 1 -56-56 56 56 0 0 1 56-55.999996 56 56 0 0 1 56 55.999996z" style="opacity:.98;fill:none;stroke:#14a53a;stroke-width:22;stroke-linecap:round;mask:url(#c)"/><circle cx="207.70052" cy="153.05939" fill="#14a83b" fill-opacity=".996078" opacity=".98" r="17.5"/></g><g fill="none" stroke="#14a53a"><path d="m263.68866 205.12019v-53.37889c0-29.25695 24.57426-52.810377 55.09923-52.810377 30.52498 0 55.09923 23.553427 55.09923 52.810377v55.08793m0 0-14.2995-.11531h-106.6604" opacity=".98" stroke-width="22"/><g stroke-linecap="round" stroke-width="12"><path d="m302.95701 159.27964v46.70204" opacity=".98"/><path d="m335.69178 159.27964v46.70204" opacity=".98"/></g></g><g fill="#14a83b"><path d="m407.07309 199.70284 45.53272-.16033m34.1721 7.22801v-50.52943c0-31.37843-25.17466-56.639756-56.44541-56.639756-31.27076 0-56.44542 25.261326-56.44542 56.639756v50.74167l105.38592-.3466z" fill="none" mask="url(#a)" opacity=".98" stroke="#14a53a" stroke-width="22"/><path d="m407.34791 168.08093v-17.22012c5.1985-25.37597 39.99802-25.53291 45.30222 0v17.22012h-45.36859" fill="#14a83b" fill-opacity=".996078" opacity=".98"/></g><g fill="#14a83b"><path d="m486.79516 207.19141h55.57776c25.85797 0 46.67504-20.81706 46.67504-46.67504v-8.6836c0-25.85797-20.81707-46.67504-46.67504-46.67504h-55.88874l.15739 102.43479" fill="none" opacity=".98" stroke="#14a239" stroke-linecap="round" stroke-width="22"/><path d="m519.21502 176.31625v-39.89486h23.17729c23.92765 7.83871 16.38648 35.46291 0 39.89486z" fill="#14a83b" fill-opacity=".996078" opacity=".98"/></g></g><g><path d="m205.3427 116.12848c12.71693-31.531037 39.06159-59.252004 88.4314-60.644095-24.31142 11.988029-47.8346 31.18269-58.87936 68.730015z" fill="none" opacity=".98" stroke="#149f38" stroke-linecap="round" stroke-width="7"/><path d="m331.36258 52.252083a16 16 0 0 1 -16 16 16 16 0 0 1 -16-16 16 16 0 0 1 16-16 16 16 0 0 1 16 16z" fill="#14a239" mask="url(#b)" opacity=".98"/></g><g fill="#14a239" transform="scale(.97774 1.0227668)"><path d="m15.217116 246.60338q5.396829 0 7.498965-5.41704l5.1947 1.96065q-1.677666 4.12342-4.931933 6.1447-3.234055 2.00107-7.761732 2.00107-6.8723659 0-10.6319545-3.88086-3.7393758-3.90108-3.7393758-10.89473 0-7.01385 3.6180987-10.77344 3.6180988-3.75959 10.4904656-3.75959 5.012784 0 8.165988 2.02128 3.153203 2.00108 4.426612 5.90215l-5.255339 1.43512q-.667024-2.14257-2.627669-3.39576-1.940433-1.27341-4.588315-1.27341-4.042569 0-6.1447044 2.50639-2.0819228 2.50639-2.0819228 7.33726 0 4.91172 2.1425613 7.49897 2.1627739 2.58724 6.2255549 2.58724z"/><path d="m59.101784 236.51717q0 4.44683-1.758517 7.82237-1.758517 3.37555-5.032998 5.17449-3.27448 1.77873-7.640454 1.77873-6.710664 0-10.530891-3.9415-3.800014-3.96172-3.800014-10.83409 0-6.85215 3.800014-10.69259 3.800014-3.84044 10.571316-3.84044 6.771303 0 10.571317 3.88087 3.820227 3.88086 3.820227 10.65216zm-6.084065 0q0-4.60852-2.182987-7.21598-2.182987-2.62767-6.124492-2.62767-4.002142 0-6.185129 2.60746-2.182987 2.58724-2.182987 7.23619 0 4.68938 2.223412 7.3979 2.243626 2.68831 6.104279 2.68831 4.002143 0 6.164917-2.62767 2.182987-2.62767 2.182987-7.45854z"/><path d="m86.856604 250.8885v-17.26176q0-.58618 0-1.17235.02021-.58617.202128-5.033-1.435112 5.43726-2.122348 7.57982l-5.134062 15.88729h-4.244697l-5.134062-15.88729-2.162774-7.57982q.242554 4.68938.242554 6.20535v17.26176h-5.295765v-28.47989h7.984073l5.093636 15.92772.444683 1.53618.970216 3.82022 1.273409-4.5681 5.235126-16.71602h7.943647v28.47989z"/><path d="m117.42101 250.8885-2.52661-7.27662h-10.8543l-2.5266 7.27662h-5.96279l10.3894-28.47989h7.03407l10.34898 28.47989zm-7.96386-24.0937-.12128.44468q-.20213.72766-.48511 1.65745-.28298.92979-3.47661 10.2277h8.1862l-2.80958-8.1862-.86915-2.74895z"/><path d="m152.16947 236.43632q0 4.4064-1.7383 7.70109-1.7181 3.27449-4.89151 5.01279-3.15321 1.7383-7.2362 1.7383h-11.52132v-28.47989h10.30855q7.19577 0 11.13728 3.63831 3.9415 3.6181 3.9415 10.3894zm-6.00321 0q0-4.58831-2.38512-6.99364-2.38511-2.42554-6.81173-2.42554h-4.22448v19.26284h5.05321q3.84044 0 6.10428-2.64789 2.26384-2.64788 2.26384-7.19577z"/></g><g fill="#14a239" transform="scale(1.0184864 .98184911)"><path d="m166.79095 261.34409v-29.66675h6.21127v29.66675z"/><path d="m196.41827 261.34409-12.92788-22.84487q.379 3.32672.379 5.34802v17.49685h-5.51646v-29.66675h7.09559l13.11738 23.03437q-.379-3.17934-.379-5.79018v-17.24419h5.51646v29.66675z"/><path d="m235.52042 246.28964q0 4.59002-1.81074 8.02202-1.78969 3.41094-5.09536 5.22168-3.2846 1.81075-7.53775 1.81075h-12.00145v-29.66675h10.73814q7.49564 0 11.6014 3.78994 4.10576 3.76887 4.10576 10.82236zm-6.25339 0q0-4.77953-2.48451-7.28509-2.48451-2.52663-7.09559-2.52663h-4.40053v20.06559h5.26379q4.00049 0 6.35867-2.75823 2.35817-2.75823 2.35817-7.49564z"/><path d="m252.13565 261.76519q-6.12706 0-9.39061-2.98984-3.2425-2.98983-3.2425-8.5484v-18.54961h6.21128v18.06534q0 3.51622 1.66336 5.34802 1.68441 1.81074 4.92691 1.81074 3.32672 0 5.11641-1.89496 1.78969-1.91602 1.78969-5.47435v-17.85479h6.21127v18.23379q0 5.64278-3.49515 8.75895-3.47411 3.09511-9.79066 3.09511z"/><path d="m294.7119 252.79568q0 4.35843-3.24249 6.6745-3.22144 2.29501-9.47483 2.29501-5.70595 0-8.94845-2.0213-3.2425-2.02129-4.16893-6.12705l6.00073-.9896q.6106 2.35818 2.37923 3.432 1.76864 1.05276 4.90586 1.05276 6.50605 0 6.50605-3.95838 0-1.26331-.75799-2.08446-.73693-.82115-2.10552-1.36859-1.34753-.54743-5.20062-1.32647-3.32672-.77904-4.63214-1.24226-1.30542-.48427-2.35818-1.11592-1.05276-.65271-1.78969-1.55808-.73693-.90538-1.15804-2.12658-.40004-1.2212-.40004-2.80034 0-4.02153 3.01089-6.14811 3.03194-2.14762 8.80106-2.14762 5.51645 0 8.27468 1.72652 2.77929 1.72652 3.57938 5.70595l-6.02178.82115q-.46321-1.91602-1.89496-2.88455-1.4107-.96854-4.06365-.96854-5.64279 0-5.64279 3.53727 0 1.15803.58955 1.89496.6106.73693 1.78969 1.26331 1.17909.50533 4.77952 1.28437 4.2742.90537 6.106 1.68441 1.85286.75799 2.92667 1.78969 1.07381 1.01065 1.6423 2.4424.56849 1.4107.56849 3.26355z"/><path d="m312.25356 236.47792v24.86617h-6.21128v-24.86617h-9.58011v-4.80058h25.39255v4.80058z"/><path d="m345.16549 261.34409-6.88504-11.26452h-7.28509v11.26452h-6.21128v-29.66675h14.82284q5.30591 0 8.19047 2.29502 2.88456 2.27396 2.88456 6.54816 0 3.11616-1.76864 5.39012-1.76863 2.25291-4.77952 2.96878l8.02202 12.46467zm-.73693-20.57091q0-4.2742-5.47435-4.2742h-7.95885v8.75895h8.12729q2.61085 0 3.95838-1.17909 1.34753-1.17909 1.34753-3.30566z"/><path d="m368.51837 249.17419v12.1699h-6.19023v-12.1699l-10.56969-17.49685h6.50605l7.11664 12.54889 7.20087-12.54889h6.50605z"/></g><g fill="#14a239" transform="scale(1.0184864 .98184911)"><path d="m414.01041 256.88039q5.62173 0 7.81147-5.64279l5.41118 2.04235q-1.74758 4.29526-5.13746 6.40078-3.36883 2.08446-8.08519 2.08446-7.15876 0-11.07502-4.04259-3.89521-4.06365-3.89521-11.34874 0-7.30615 3.76888-11.22241 3.76887-3.91626 10.92763-3.91626 5.22169 0 8.50629 2.10551 3.28461 2.08447 4.61109 6.14811l-5.47435 1.49492q-.69482-2.23185-2.73717-3.53727-2.0213-1.32647-4.77953-1.32647-4.21103 0-6.40077 2.61084-2.16868 2.61084-2.16868 7.64303 0 5.1164 2.23185 7.81147 2.2529 2.69506 6.48499 2.69506z"/><path d="m459.72389 246.37386q0 4.63213-1.8318 8.14835-1.8318 3.51621-5.24274 5.39012-3.41094 1.85286-7.95886 1.85286-6.99032 0-10.96974-4.10576-3.95838-4.12681-3.95838-11.28557 0-7.13771 3.95838-11.13819 3.95837-4.00048 11.01185-4.00048 7.05349 0 11.01186 4.04259 3.97943 4.04259 3.97943 11.09608zm-6.33761 0q0-4.80058-2.27396-7.5167-2.27396-2.73717-6.37972-2.73717-4.16892 0-6.44288 2.71611-2.27396 2.69507-2.27396 7.53776 0 4.8848 2.31607 7.70619 2.33712 2.80034 6.35866 2.80034 4.16893 0 6.42183-2.73717 2.27396-2.73718 2.27396-7.76936z"/><path d="m464.04289 261.34409v-6.42183h6.08495v6.42183z"/><path d="m481.77404 259.95444q0 2.52663-.54743 4.4637-.52638 1.93708-1.72653 3.60044h-3.8952q1.24225-1.49492 2.02129-3.28461.77904-1.78969.77904-3.38988h-2.71611v-6.42183h6.08494z"/></g><g fill="#14a239" transform="scale(1.0619211 .94168957)"><path d="m477.95842 272.48941v-30.93202h6.47619v25.9267h16.5966v5.00532z"/><path d="m515.61092 246.56271v25.9267h-6.47618v-25.9267h-9.9887v-5.00532h26.47553v5.00532z"/><path d="m556.24906 256.79289q0 4.78579-1.88798 8.36416-1.86602 3.55641-5.31267 5.44439-3.42469 1.88797-7.85923 1.88797h-12.51331v-30.93202h11.19612q7.81533 0 12.0962 3.95157 4.28087 3.92962 4.28087 11.28393zm-6.5201 0q0-4.98337-2.59047-7.5958-2.59048-2.63438-7.39822-2.63438h-4.58821v20.92138h5.48829q4.1711 0 6.62986-2.87587 2.45875-2.87586 2.45875-7.81533z"/><path d="m560.75227 272.48941v-6.69572h6.34446v6.69572z"/></g></g></svg>