<?xml version="1.0" encoding="UTF-8" standalone="no"?>
<!-- Created with Inkscape (http://www.inkscape.org/) -->

<svg
   width="507.92996mm"
   height="37.836216mm"
   viewBox="0 0 315.95004 23.535438"
   version="1.1"
   id="svg7278"
   inkscape:version="1.1.2 (0a00cf5339, 2022-02-04)"
   sodipodi:docname="cplus4.svg"
   xmlns:inkscape="http://www.inkscape.org/namespaces/inkscape"
   xmlns:sodipodi="http://sodipodi.sourceforge.net/DTD/sodipodi-0.dtd"
   xmlns="http://www.w3.org/2000/svg"
   xmlns:svg="http://www.w3.org/2000/svg"
   xmlns:rdf="http://www.w3.org/1999/02/22-rdf-syntax-ns#"
   xmlns:cc="http://creativecommons.org/ns#"
   xmlns:dc="http://purl.org/dc/elements/1.1/">
  <defs
     id="defs7272" />
  <sodipodi:namedview
     id="base"
     pagecolor="#ffffff"
     bordercolor="#666666"
     borderopacity="1.0"
     inkscape:pageopacity="0.0"
     inkscape:pageshadow="2"
     inkscape:zoom="0.98994949"
     inkscape:cx="260.61936"
     inkscape:cy="64.649763"
     inkscape:document-units="px"
     inkscape:current-layer="layer1"
     showgrid="false"
     fit-margin-top="0"
     fit-margin-left="0"
     fit-margin-right="0"
     fit-margin-bottom="0"
     inkscape:window-width="1366"
     inkscape:window-height="708"
     inkscape:window-x="0"
     inkscape:window-y="0"
     inkscape:window-maximized="1"
     inkscape:pagecheckerboard="0"
     scale-x="0.16458" />
  <metadata
     id="metadata7275">
    <rdf:RDF>
      <cc:Work
         rdf:about="">
        <dc:format>image/svg+xml</dc:format>
        <dc:type
           rdf:resource="http://purl.org/dc/dcmitype/StillImage" />
      </cc:Work>
    </rdf:RDF>
  </metadata>
  <g
     inkscape:label="Commodore Plus/4"
     inkscape:groupmode="layer"
     id="layer1"
     transform="translate(291.72379,-16.869183)">
    <rect
       style="color:#000000;clip-rule:nonzero;display:inline;overflow:visible;visibility:visible;isolation:auto;mix-blend-mode:normal;color-interpolation:sRGB;color-interpolation-filters:linearRGB;solid-color:#000000;solid-opacity:1;fill:#5b5652;fill-opacity:1;fill-rule:nonzero;stroke:none;stroke-width:0.797715;stroke-linecap:butt;stroke-linejoin:miter;stroke-miterlimit:4;stroke-dasharray:none;stroke-dashoffset:0;stroke-opacity:1;color-rendering:auto;image-rendering:auto;shape-rendering:auto;text-rendering:auto;enable-background:accumulate"
       id="rect4918"
       width="315.95004"
       height="23.535437"
       x="-291.72379"
       y="16.869183"
       inkscape:label="Background"
       ry="11.767718" />
    <path
       inkscape:connector-curvature="0"
       d="m -178.60773,25.435192 h -2.26066 v 6.485617 h 2.35883 v -3.390042 c 0,-0.884042 0.54103,-1.326925 1.52443,-1.326925 0.98215,0 1.22869,0.295071 1.27714,1.129452 h 2.21209 c 0,-2.210955 -0.295,-3.046493 -2.65383,-3.046493 -1.42551,0 -1.91696,0.29507 -2.45737,1.376006 v -1.227615 z m 10.86021,5.208931 c -2.25954,0 -2.60374,-0.196906 -2.60374,-1.327478 h 6.19289 c -0.0982,-3.143512 -0.0982,-3.881453 -4.2758,-3.881453 -3.53956,0 -4.32601,0.638632 -4.32601,3.439702 0,2.604756 1.03299,3.243388 3.88314,3.293049 3.19486,0 4.71867,-0.147825 4.71867,-2.260616 h -2.31088 c -0.0982,0.491387 -0.29386,0.736796 -1.27827,0.736796 z m -2.65332,-2.70234 c 0.0982,-0.68828 0.29449,-0.934269 1.86738,-0.934269 1.72126,0 1.96617,0.09879 2.06421,0.934269 z m -87.87436,0.24541 h 2.35883 c -0.19645,-2.2121 -0.83553,-2.752001 -4.12742,-2.752001 -3.73539,0 -4.57091,0.588405 -4.57091,3.341538 0,2.752002 0.78644,3.390634 4.27579,3.390634 3.68568,0 4.42317,-0.491386 4.42317,-2.80165 h -2.35896 c 0,0.639211 -0.24541,0.934836 -2.06421,0.934836 -1.57289,0 -1.91646,-0.393223 -1.91646,-1.671066 0,-1.228748 0.34357,-1.228748 2.21209,-1.228748 1.37492,0 1.62033,0.147812 1.76808,0.786457 z m 54.79839,0.392089 c 0,-2.65327 -0.78581,-3.193172 -4.57066,-3.193172 -4.07897,0 -4.56979,0.687714 -4.56979,3.439136 0,2.752568 0.68715,3.342118 4.56979,3.342118 4.12905,5.79e-4 4.57066,-0.687135 4.57066,-3.588082 z m -6.73266,0.148945 c 0,-1.327491 0.29512,-1.474158 2.01525,-1.474158 1.91647,0 2.26004,0.04845 2.26004,1.474158 0,1.326925 -0.24604,1.572901 -2.06434,1.572901 -1.96554,0 -2.21095,-0.197473 -2.21095,-1.572901 z m 27.9143,-0.148945 c 0,-2.65327 -0.73736,-3.193172 -4.52007,-3.193172 -4.03039,0 -4.52171,0.637487 -4.52171,3.39062 0,2.801084 0.68765,3.390634 4.52171,3.390634 4.12691,5.79e-4 4.52007,-0.687135 4.52007,-3.588082 z m -6.68308,0.148945 c 0,-1.327491 0.2945,-1.474158 2.01463,-1.474158 1.91709,0 2.26067,0.04845 2.26067,1.474158 0,1.326925 -0.24541,1.572901 -2.06371,1.572901 -1.96504,0 -2.21159,-0.197473 -2.21159,-1.572901 z m -56.46956,-0.148945 c 0,-2.65327 -0.73737,-3.193172 -4.52108,-3.193172 -4.07897,0 -4.57092,0.637487 -4.57092,3.39062 0,2.801084 0.68878,3.390634 4.57092,3.390634 4.12842,5.79e-4 4.52108,-0.687135 4.52108,-3.588082 z m -6.63576,0.148945 c 0,-1.327491 0.29525,-1.474158 1.9668,-1.474158 1.91646,0 2.26067,0.04845 2.26067,1.474158 0,1.326925 -0.24655,1.572901 -2.06434,1.572901 -1.9176,0 -2.16313,-0.197473 -2.16313,-1.572901 z m 56.8144,-6.046169 v 3.784422 c -0.54041,-0.737363 -1.03185,-1.129452 -2.9974,-1.129452 -3.14515,0 -3.73539,0.835539 -3.73539,3.390633 0,2.605309 0.83603,3.34096 3.88264,3.34096 1.91696,0 2.50658,-0.490807 2.94882,-1.326334 v 1.177955 h 2.35933 v -9.23875 h -2.458 z m -1.72026,4.52235 c 1.32635,0 1.76984,0.196328 1.76984,1.227616 0,1.573467 -0.0994,1.721859 -1.96554,1.721859 -1.86801,0 -2.35946,-0.05022 -2.35946,-1.376574 0,-1.523806 0.58961,-1.572901 2.55516,-1.572901 z m -44.7235,-1.769178 h -2.21095 v 6.485629 h 2.3587 V 28.57932 c 0,-0.982218 0.49145,-1.325779 1.81893,-1.325779 1.22869,0 1.57276,0.441737 1.57276,1.670486 v 2.996832 h 2.40804 v -3.439136 c 0,-0.933691 0.73661,-1.228182 1.86675,-1.228182 1.08144,0 1.57276,0.295058 1.57276,1.228182 v 3.439136 h 2.35883 v -3.832925 c 0,-1.91533 -1.1796,-2.801083 -3.34147,-2.801083 -1.86801,0 -2.55629,0.68828 -2.80221,1.425076 -0.49145,-0.835526 -1.17922,-1.425076 -3.04711,-1.425076 -1.76921,0 -2.26066,0.58955 -2.55566,1.671065 V 25.43523 Z m 15.8745,0 h -2.21159 v 6.485629 h 2.35871 V 28.57932 c 0,-0.982218 0.58949,-1.325779 1.76871,-1.325779 1.22932,0 1.57289,0.393222 1.57289,1.670486 v 2.996832 h 2.40904 v -3.439136 c 0,-0.933691 0.68816,-1.228182 1.81881,-1.228182 1.08093,0 1.62083,0.343561 1.62083,1.228182 v 3.439136 h 2.35934 v -3.832925 c 0,-1.91533 -1.1791,-2.801083 -3.34161,-2.801083 -1.86725,0 -2.50708,0.638645 -2.80107,1.425076 -0.49195,-0.835526 -1.18023,-1.425076 -3.04761,-1.425076 -1.7195,0 -2.16175,0.58955 -2.50607,1.671065 V 25.43523 Z"
       id="path4699"
       style="fill:#ffffff;stroke-width:0.264583"
       sodipodi:nodetypes="ccccssccscccsccsscccscsccccsssccssscssscssssssssscssssssssscssssssccsssccccccsssssccccsssccsssccsscscccccccsssccsssccsscsccc"
       inkscape:label="Commodore" />
    <path
       sodipodi:nodetypes="ccccccccccccsssccsssc"
       style="fill:#ffffff;stroke-width:0.264583"
       id="path4922"
       d="m -270.60574,28.998732 h -3.7958 v 3.113257 h 6.8229 z m 3.0266,-3.751889 h -6.82302 v 3.112678 h 3.75313 z m -7.03584,-0.213456 v -4.008148 c -0.80985,-0.213431 -1.36511,-0.299048 -2.17446,-0.299048 -4.22205,0 -7.93177,3.540145 -7.93177,7.931811 0,4.520652 3.752,7.889588 7.97406,7.889588 0.76757,0 1.19395,-0.08558 2.13217,-0.342441 v -4.09316 c -0.93872,0.468544 -1.40676,0.596396 -2.17446,0.596396 -2.34561,0 -4.13761,-1.960976 -4.13761,-4.135987 0,-2.259457 1.74858,-4.179342 4.09419,-4.179342 0.81112,0 1.4931,0.21401 2.21788,0.640331 z"
       inkscape:connector-curvature="0"
       inkscape:label="Commodore Logo" />
    <g
       id="g4884"
       transform="matrix(1.9443104,0,0,2.0366406,1257.0777,-305.21038)"
       style="stroke-width:0.502528"
       inkscape:label="Rainbow">
      <rect
         style="color:#000000;clip-rule:nonzero;display:inline;overflow:visible;visibility:visible;opacity:1;isolation:auto;mix-blend-mode:normal;color-interpolation:sRGB;color-interpolation-filters:linearRGB;solid-color:#000000;solid-opacity:1;fill:#2fabc5;fill-opacity:1;fill-rule:nonzero;stroke:none;stroke-width:0.398881;stroke-linecap:butt;stroke-linejoin:miter;stroke-miterlimit:4;stroke-dasharray:none;stroke-dashoffset:0;stroke-opacity:1;color-rendering:auto;image-rendering:auto;shape-rendering:auto;text-rendering:auto;enable-background:accumulate"
         id="rect4723"
         width="1.276307"
         height="5.0604892"
         x="-728.9718"
         y="161.39032" />
      <rect
         y="161.39032"
         x="-727.27484"
         height="5.0604892"
         width="1.276307"
         id="rect4725"
         style="color:#000000;clip-rule:nonzero;display:inline;overflow:visible;visibility:visible;opacity:1;isolation:auto;mix-blend-mode:normal;color-interpolation:sRGB;color-interpolation-filters:linearRGB;solid-color:#000000;solid-opacity:1;fill:#2ba7c1;fill-opacity:1;fill-rule:nonzero;stroke:none;stroke-width:0.398881;stroke-linecap:butt;stroke-linejoin:miter;stroke-miterlimit:4;stroke-dasharray:none;stroke-dashoffset:0;stroke-opacity:1;color-rendering:auto;image-rendering:auto;shape-rendering:auto;text-rendering:auto;enable-background:accumulate" />
      <rect
         style="color:#000000;clip-rule:nonzero;display:inline;overflow:visible;visibility:visible;opacity:1;isolation:auto;mix-blend-mode:normal;color-interpolation:sRGB;color-interpolation-filters:linearRGB;solid-color:#000000;solid-opacity:1;fill:#2c9fb9;fill-opacity:1;fill-rule:nonzero;stroke:none;stroke-width:0.398881;stroke-linecap:butt;stroke-linejoin:miter;stroke-miterlimit:4;stroke-dasharray:none;stroke-dashoffset:0;stroke-opacity:1;color-rendering:auto;image-rendering:auto;shape-rendering:auto;text-rendering:auto;enable-background:accumulate"
         id="rect4727"
         width="1.276307"
         height="5.0604892"
         x="-725.57794"
         y="161.39032" />
      <rect
         y="161.39032"
         x="-723.8811"
         height="5.0604892"
         width="1.276307"
         id="rect4729"
         style="color:#000000;clip-rule:nonzero;display:inline;overflow:visible;visibility:visible;opacity:1;isolation:auto;mix-blend-mode:normal;color-interpolation:sRGB;color-interpolation-filters:linearRGB;solid-color:#000000;solid-opacity:1;fill:#2da6c0;fill-opacity:1;fill-rule:nonzero;stroke:none;stroke-width:0.398881;stroke-linecap:butt;stroke-linejoin:miter;stroke-miterlimit:4;stroke-dasharray:none;stroke-dashoffset:0;stroke-opacity:1;color-rendering:auto;image-rendering:auto;shape-rendering:auto;text-rendering:auto;enable-background:accumulate" />
      <rect
         style="color:#000000;clip-rule:nonzero;display:inline;overflow:visible;visibility:visible;opacity:1;isolation:auto;mix-blend-mode:normal;color-interpolation:sRGB;color-interpolation-filters:linearRGB;solid-color:#000000;solid-opacity:1;fill:#28b2c3;fill-opacity:1;fill-rule:nonzero;stroke:none;stroke-width:0.398881;stroke-linecap:butt;stroke-linejoin:miter;stroke-miterlimit:4;stroke-dasharray:none;stroke-dashoffset:0;stroke-opacity:1;color-rendering:auto;image-rendering:auto;shape-rendering:auto;text-rendering:auto;enable-background:accumulate"
         id="rect4731"
         width="1.276307"
         height="5.0604892"
         x="-722.1842"
         y="161.39032" />
      <rect
         y="161.39032"
         x="-720.4873"
         height="5.0604892"
         width="1.276307"
         id="rect4733"
         style="color:#000000;clip-rule:nonzero;display:inline;overflow:visible;visibility:visible;opacity:1;isolation:auto;mix-blend-mode:normal;color-interpolation:sRGB;color-interpolation-filters:linearRGB;solid-color:#000000;solid-opacity:1;fill:#28a5a8;fill-opacity:1;fill-rule:nonzero;stroke:none;stroke-width:0.398881;stroke-linecap:butt;stroke-linejoin:miter;stroke-miterlimit:4;stroke-dasharray:none;stroke-dashoffset:0;stroke-opacity:1;color-rendering:auto;image-rendering:auto;shape-rendering:auto;text-rendering:auto;enable-background:accumulate" />
      <rect
         style="color:#000000;clip-rule:nonzero;display:inline;overflow:visible;visibility:visible;opacity:1;isolation:auto;mix-blend-mode:normal;color-interpolation:sRGB;color-interpolation-filters:linearRGB;solid-color:#000000;solid-opacity:1;fill:#269857;fill-opacity:1;fill-rule:nonzero;stroke:none;stroke-width:0.398881;stroke-linecap:butt;stroke-linejoin:miter;stroke-miterlimit:4;stroke-dasharray:none;stroke-dashoffset:0;stroke-opacity:1;color-rendering:auto;image-rendering:auto;shape-rendering:auto;text-rendering:auto;enable-background:accumulate"
         id="rect4735"
         width="1.276307"
         height="5.0604892"
         x="-718.79047"
         y="161.39032" />
      <rect
         y="161.39032"
         x="-717.09351"
         height="5.0604892"
         width="1.276307"
         id="rect4737"
         style="color:#000000;clip-rule:nonzero;display:inline;overflow:visible;visibility:visible;opacity:1;isolation:auto;mix-blend-mode:normal;color-interpolation:sRGB;color-interpolation-filters:linearRGB;solid-color:#000000;solid-opacity:1;fill:#319b58;fill-opacity:1;fill-rule:nonzero;stroke:none;stroke-width:0.398881;stroke-linecap:butt;stroke-linejoin:miter;stroke-miterlimit:4;stroke-dasharray:none;stroke-dashoffset:0;stroke-opacity:1;color-rendering:auto;image-rendering:auto;shape-rendering:auto;text-rendering:auto;enable-background:accumulate" />
      <rect
         style="color:#000000;clip-rule:nonzero;display:inline;overflow:visible;visibility:visible;opacity:1;isolation:auto;mix-blend-mode:normal;color-interpolation:sRGB;color-interpolation-filters:linearRGB;solid-color:#000000;solid-opacity:1;fill:#309a57;fill-opacity:1;fill-rule:nonzero;stroke:none;stroke-width:0.398881;stroke-linecap:butt;stroke-linejoin:miter;stroke-miterlimit:4;stroke-dasharray:none;stroke-dashoffset:0;stroke-opacity:1;color-rendering:auto;image-rendering:auto;shape-rendering:auto;text-rendering:auto;enable-background:accumulate"
         id="rect4739"
         width="1.276307"
         height="5.0604892"
         x="-715.39655"
         y="161.39032" />
      <rect
         y="161.39032"
         x="-713.69971"
         height="5.0604892"
         width="1.276307"
         id="rect4741"
         style="color:#000000;clip-rule:nonzero;display:inline;overflow:visible;visibility:visible;opacity:1;isolation:auto;mix-blend-mode:normal;color-interpolation:sRGB;color-interpolation-filters:linearRGB;solid-color:#000000;solid-opacity:1;fill:#2b9850;fill-opacity:1;fill-rule:nonzero;stroke:none;stroke-width:0.398881;stroke-linecap:butt;stroke-linejoin:miter;stroke-miterlimit:4;stroke-dasharray:none;stroke-dashoffset:0;stroke-opacity:1;color-rendering:auto;image-rendering:auto;shape-rendering:auto;text-rendering:auto;enable-background:accumulate" />
      <rect
         style="color:#000000;clip-rule:nonzero;display:inline;overflow:visible;visibility:visible;opacity:1;isolation:auto;mix-blend-mode:normal;color-interpolation:sRGB;color-interpolation-filters:linearRGB;solid-color:#000000;solid-opacity:1;fill:#34a35c;fill-opacity:1;fill-rule:nonzero;stroke:none;stroke-width:0.398881;stroke-linecap:butt;stroke-linejoin:miter;stroke-miterlimit:4;stroke-dasharray:none;stroke-dashoffset:0;stroke-opacity:1;color-rendering:auto;image-rendering:auto;shape-rendering:auto;text-rendering:auto;enable-background:accumulate"
         id="rect4743"
         width="1.276307"
         height="5.0604892"
         x="-712.00281"
         y="161.39032" />
      <rect
         y="161.39032"
         x="-710.30597"
         height="5.0604892"
         width="1.276307"
         id="rect4745"
         style="color:#000000;clip-rule:nonzero;display:inline;overflow:visible;visibility:visible;opacity:1;isolation:auto;mix-blend-mode:normal;color-interpolation:sRGB;color-interpolation-filters:linearRGB;solid-color:#000000;solid-opacity:1;fill:#2d974f;fill-opacity:1;fill-rule:nonzero;stroke:none;stroke-width:0.398881;stroke-linecap:butt;stroke-linejoin:miter;stroke-miterlimit:4;stroke-dasharray:none;stroke-dashoffset:0;stroke-opacity:1;color-rendering:auto;image-rendering:auto;shape-rendering:auto;text-rendering:auto;enable-background:accumulate" />
      <rect
         style="color:#000000;clip-rule:nonzero;display:inline;overflow:visible;visibility:visible;opacity:1;isolation:auto;mix-blend-mode:normal;color-interpolation:sRGB;color-interpolation-filters:linearRGB;solid-color:#000000;solid-opacity:1;fill:#68b057;fill-opacity:1;fill-rule:nonzero;stroke:none;stroke-width:0.398881;stroke-linecap:butt;stroke-linejoin:miter;stroke-miterlimit:4;stroke-dasharray:none;stroke-dashoffset:0;stroke-opacity:1;color-rendering:auto;image-rendering:auto;shape-rendering:auto;text-rendering:auto;enable-background:accumulate"
         id="rect4747"
         width="1.276307"
         height="5.0604892"
         x="-708.60901"
         y="161.39032" />
      <rect
         y="161.39032"
         x="-706.91205"
         height="5.0604892"
         width="1.276307"
         id="rect4749"
         style="color:#000000;clip-rule:nonzero;display:inline;overflow:visible;visibility:visible;opacity:1;isolation:auto;mix-blend-mode:normal;color-interpolation:sRGB;color-interpolation-filters:linearRGB;solid-color:#000000;solid-opacity:1;fill:#6faf55;fill-opacity:1;fill-rule:nonzero;stroke:none;stroke-width:0.398881;stroke-linecap:butt;stroke-linejoin:miter;stroke-miterlimit:4;stroke-dasharray:none;stroke-dashoffset:0;stroke-opacity:1;color-rendering:auto;image-rendering:auto;shape-rendering:auto;text-rendering:auto;enable-background:accumulate" />
      <rect
         style="color:#000000;clip-rule:nonzero;display:inline;overflow:visible;visibility:visible;opacity:1;isolation:auto;mix-blend-mode:normal;color-interpolation:sRGB;color-interpolation-filters:linearRGB;solid-color:#000000;solid-opacity:1;fill:#6cae55;fill-opacity:1;fill-rule:nonzero;stroke:none;stroke-width:0.398881;stroke-linecap:butt;stroke-linejoin:miter;stroke-miterlimit:4;stroke-dasharray:none;stroke-dashoffset:0;stroke-opacity:1;color-rendering:auto;image-rendering:auto;shape-rendering:auto;text-rendering:auto;enable-background:accumulate"
         id="rect4751"
         width="1.276307"
         height="5.0604892"
         x="-705.21521"
         y="161.39032" />
      <rect
         y="161.39032"
         x="-703.51825"
         height="5.0604892"
         width="1.276307"
         id="rect4753"
         style="color:#000000;clip-rule:nonzero;display:inline;overflow:visible;visibility:visible;opacity:1;isolation:auto;mix-blend-mode:normal;color-interpolation:sRGB;color-interpolation-filters:linearRGB;solid-color:#000000;solid-opacity:1;fill:#acc249;fill-opacity:1;fill-rule:nonzero;stroke:none;stroke-width:0.398881;stroke-linecap:butt;stroke-linejoin:miter;stroke-miterlimit:4;stroke-dasharray:none;stroke-dashoffset:0;stroke-opacity:1;color-rendering:auto;image-rendering:auto;shape-rendering:auto;text-rendering:auto;enable-background:accumulate" />
      <rect
         style="color:#000000;clip-rule:nonzero;display:inline;overflow:visible;visibility:visible;opacity:1;isolation:auto;mix-blend-mode:normal;color-interpolation:sRGB;color-interpolation-filters:linearRGB;solid-color:#000000;solid-opacity:1;fill:#bac441;fill-opacity:1;fill-rule:nonzero;stroke:none;stroke-width:0.398881;stroke-linecap:butt;stroke-linejoin:miter;stroke-miterlimit:4;stroke-dasharray:none;stroke-dashoffset:0;stroke-opacity:1;color-rendering:auto;image-rendering:auto;shape-rendering:auto;text-rendering:auto;enable-background:accumulate"
         id="rect4755"
         width="1.276307"
         height="5.0604892"
         x="-701.82147"
         y="161.39032" />
      <rect
         y="161.39032"
         x="-700.12451"
         height="5.0604892"
         width="1.276307"
         id="rect4757"
         style="color:#000000;clip-rule:nonzero;display:inline;overflow:visible;visibility:visible;opacity:1;isolation:auto;mix-blend-mode:normal;color-interpolation:sRGB;color-interpolation-filters:linearRGB;solid-color:#000000;solid-opacity:1;fill:#e0d640;fill-opacity:1;fill-rule:nonzero;stroke:none;stroke-width:0.398881;stroke-linecap:butt;stroke-linejoin:miter;stroke-miterlimit:4;stroke-dasharray:none;stroke-dashoffset:0;stroke-opacity:1;color-rendering:auto;image-rendering:auto;shape-rendering:auto;text-rendering:auto;enable-background:accumulate" />
      <rect
         style="color:#000000;clip-rule:nonzero;display:inline;overflow:visible;visibility:visible;opacity:1;isolation:auto;mix-blend-mode:normal;color-interpolation:sRGB;color-interpolation-filters:linearRGB;solid-color:#000000;solid-opacity:1;fill:#dccc3d;fill-opacity:1;fill-rule:nonzero;stroke:none;stroke-width:0.398881;stroke-linecap:butt;stroke-linejoin:miter;stroke-miterlimit:4;stroke-dasharray:none;stroke-dashoffset:0;stroke-opacity:1;color-rendering:auto;image-rendering:auto;shape-rendering:auto;text-rendering:auto;enable-background:accumulate"
         id="rect4759"
         width="1.276307"
         height="5.0604892"
         x="-698.42755"
         y="161.39032" />
      <rect
         y="161.39032"
         x="-696.73071"
         height="5.0604892"
         width="1.276307"
         id="rect4761"
         style="color:#000000;clip-rule:nonzero;display:inline;overflow:visible;visibility:visible;opacity:1;isolation:auto;mix-blend-mode:normal;color-interpolation:sRGB;color-interpolation-filters:linearRGB;solid-color:#000000;solid-opacity:1;fill:#ddce45;fill-opacity:1;fill-rule:nonzero;stroke:none;stroke-width:0.398881;stroke-linecap:butt;stroke-linejoin:miter;stroke-miterlimit:4;stroke-dasharray:none;stroke-dashoffset:0;stroke-opacity:1;color-rendering:auto;image-rendering:auto;shape-rendering:auto;text-rendering:auto;enable-background:accumulate" />
      <rect
         style="color:#000000;clip-rule:nonzero;display:inline;overflow:visible;visibility:visible;opacity:1;isolation:auto;mix-blend-mode:normal;color-interpolation:sRGB;color-interpolation-filters:linearRGB;solid-color:#000000;solid-opacity:1;fill:#e2c03e;fill-opacity:1;fill-rule:nonzero;stroke:none;stroke-width:0.398881;stroke-linecap:butt;stroke-linejoin:miter;stroke-miterlimit:4;stroke-dasharray:none;stroke-dashoffset:0;stroke-opacity:1;color-rendering:auto;image-rendering:auto;shape-rendering:auto;text-rendering:auto;enable-background:accumulate"
         id="rect4763"
         width="1.276307"
         height="5.0604892"
         x="-695.03381"
         y="161.39032" />
      <rect
         y="161.39032"
         x="-693.33698"
         height="5.0604892"
         width="1.276307"
         id="rect4765"
         style="color:#000000;clip-rule:nonzero;display:inline;overflow:visible;visibility:visible;opacity:1;isolation:auto;mix-blend-mode:normal;color-interpolation:sRGB;color-interpolation-filters:linearRGB;solid-color:#000000;solid-opacity:1;fill:#dc9f2d;fill-opacity:1;fill-rule:nonzero;stroke:none;stroke-width:0.398881;stroke-linecap:butt;stroke-linejoin:miter;stroke-miterlimit:4;stroke-dasharray:none;stroke-dashoffset:0;stroke-opacity:1;color-rendering:auto;image-rendering:auto;shape-rendering:auto;text-rendering:auto;enable-background:accumulate" />
      <rect
         style="color:#000000;clip-rule:nonzero;display:inline;overflow:visible;visibility:visible;opacity:1;isolation:auto;mix-blend-mode:normal;color-interpolation:sRGB;color-interpolation-filters:linearRGB;solid-color:#000000;solid-opacity:1;fill:#e69434;fill-opacity:1;fill-rule:nonzero;stroke:none;stroke-width:0.398881;stroke-linecap:butt;stroke-linejoin:miter;stroke-miterlimit:4;stroke-dasharray:none;stroke-dashoffset:0;stroke-opacity:1;color-rendering:auto;image-rendering:auto;shape-rendering:auto;text-rendering:auto;enable-background:accumulate"
         id="rect4767"
         width="1.276307"
         height="5.0604892"
         x="-691.64001"
         y="161.39032" />
      <rect
         y="161.39032"
         x="-689.94318"
         height="5.0604892"
         width="1.276307"
         id="rect4769"
         style="color:#000000;clip-rule:nonzero;display:inline;overflow:visible;visibility:visible;opacity:1;isolation:auto;mix-blend-mode:normal;color-interpolation:sRGB;color-interpolation-filters:linearRGB;solid-color:#000000;solid-opacity:1;fill:#e98f34;fill-opacity:1;fill-rule:nonzero;stroke:none;stroke-width:0.398881;stroke-linecap:butt;stroke-linejoin:miter;stroke-miterlimit:4;stroke-dasharray:none;stroke-dashoffset:0;stroke-opacity:1;color-rendering:auto;image-rendering:auto;shape-rendering:auto;text-rendering:auto;enable-background:accumulate" />
      <rect
         style="color:#000000;clip-rule:nonzero;display:inline;overflow:visible;visibility:visible;opacity:1;isolation:auto;mix-blend-mode:normal;color-interpolation:sRGB;color-interpolation-filters:linearRGB;solid-color:#000000;solid-opacity:1;fill:#e37c20;fill-opacity:1;fill-rule:nonzero;stroke:none;stroke-width:0.398881;stroke-linecap:butt;stroke-linejoin:miter;stroke-miterlimit:4;stroke-dasharray:none;stroke-dashoffset:0;stroke-opacity:1;color-rendering:auto;image-rendering:auto;shape-rendering:auto;text-rendering:auto;enable-background:accumulate"
         id="rect4771"
         width="1.276307"
         height="5.0604892"
         x="-688.24622"
         y="161.39032" />
      <rect
         y="161.39032"
         x="-686.54932"
         height="5.0604892"
         width="1.276307"
         id="rect4773"
         style="color:#000000;clip-rule:nonzero;display:inline;overflow:visible;visibility:visible;opacity:1;isolation:auto;mix-blend-mode:normal;color-interpolation:sRGB;color-interpolation-filters:linearRGB;solid-color:#000000;solid-opacity:1;fill:#ca6627;fill-opacity:1;fill-rule:nonzero;stroke:none;stroke-width:0.398881;stroke-linecap:butt;stroke-linejoin:miter;stroke-miterlimit:4;stroke-dasharray:none;stroke-dashoffset:0;stroke-opacity:1;color-rendering:auto;image-rendering:auto;shape-rendering:auto;text-rendering:auto;enable-background:accumulate" />
      <rect
         style="color:#000000;clip-rule:nonzero;display:inline;overflow:visible;visibility:visible;opacity:1;isolation:auto;mix-blend-mode:normal;color-interpolation:sRGB;color-interpolation-filters:linearRGB;solid-color:#000000;solid-opacity:1;fill:#dd561d;fill-opacity:1;fill-rule:nonzero;stroke:none;stroke-width:0.398881;stroke-linecap:butt;stroke-linejoin:miter;stroke-miterlimit:4;stroke-dasharray:none;stroke-dashoffset:0;stroke-opacity:1;color-rendering:auto;image-rendering:auto;shape-rendering:auto;text-rendering:auto;enable-background:accumulate"
         id="rect4775"
         width="1.276307"
         height="5.0604892"
         x="-684.85248"
         y="161.39032" />
      <rect
         y="161.39032"
         x="-683.15552"
         height="5.0604892"
         width="1.276307"
         id="rect4777"
         style="color:#000000;clip-rule:nonzero;display:inline;overflow:visible;visibility:visible;opacity:1;isolation:auto;mix-blend-mode:normal;color-interpolation:sRGB;color-interpolation-filters:linearRGB;solid-color:#000000;solid-opacity:1;fill:#d55522;fill-opacity:1;fill-rule:nonzero;stroke:none;stroke-width:0.398881;stroke-linecap:butt;stroke-linejoin:miter;stroke-miterlimit:4;stroke-dasharray:none;stroke-dashoffset:0;stroke-opacity:1;color-rendering:auto;image-rendering:auto;shape-rendering:auto;text-rendering:auto;enable-background:accumulate" />
      <rect
         style="color:#000000;clip-rule:nonzero;display:inline;overflow:visible;visibility:visible;opacity:1;isolation:auto;mix-blend-mode:normal;color-interpolation:sRGB;color-interpolation-filters:linearRGB;solid-color:#000000;solid-opacity:1;fill:#d65424;fill-opacity:1;fill-rule:nonzero;stroke:none;stroke-width:0.398881;stroke-linecap:butt;stroke-linejoin:miter;stroke-miterlimit:4;stroke-dasharray:none;stroke-dashoffset:0;stroke-opacity:1;color-rendering:auto;image-rendering:auto;shape-rendering:auto;text-rendering:auto;enable-background:accumulate"
         id="rect4779"
         width="1.276307"
         height="5.0604892"
         x="-681.45862"
         y="161.39032" />
      <rect
         y="161.39032"
         x="-679.76172"
         height="5.0604892"
         width="1.276307"
         id="rect4781"
         style="color:#000000;clip-rule:nonzero;display:inline;overflow:visible;visibility:visible;opacity:1;isolation:auto;mix-blend-mode:normal;color-interpolation:sRGB;color-interpolation-filters:linearRGB;solid-color:#000000;solid-opacity:1;fill:#d6481d;fill-opacity:1;fill-rule:nonzero;stroke:none;stroke-width:0.398881;stroke-linecap:butt;stroke-linejoin:miter;stroke-miterlimit:4;stroke-dasharray:none;stroke-dashoffset:0;stroke-opacity:1;color-rendering:auto;image-rendering:auto;shape-rendering:auto;text-rendering:auto;enable-background:accumulate" />
      <rect
         style="color:#000000;clip-rule:nonzero;display:inline;overflow:visible;visibility:visible;opacity:1;isolation:auto;mix-blend-mode:normal;color-interpolation:sRGB;color-interpolation-filters:linearRGB;solid-color:#000000;solid-opacity:1;fill:#e13e28;fill-opacity:1;fill-rule:nonzero;stroke:none;stroke-width:0.398881;stroke-linecap:butt;stroke-linejoin:miter;stroke-miterlimit:4;stroke-dasharray:none;stroke-dashoffset:0;stroke-opacity:1;color-rendering:auto;image-rendering:auto;shape-rendering:auto;text-rendering:auto;enable-background:accumulate"
         id="rect4783"
         width="1.276307"
         height="5.0604892"
         x="-678.06482"
         y="161.39032" />
      <rect
         y="161.39032"
         x="-676.36792"
         height="5.0604892"
         width="1.276307"
         id="rect4785"
         style="color:#000000;clip-rule:nonzero;display:inline;overflow:visible;visibility:visible;opacity:1;isolation:auto;mix-blend-mode:normal;color-interpolation:sRGB;color-interpolation-filters:linearRGB;solid-color:#000000;solid-opacity:1;fill:#dd261a;fill-opacity:1;fill-rule:nonzero;stroke:none;stroke-width:0.398881;stroke-linecap:butt;stroke-linejoin:miter;stroke-miterlimit:4;stroke-dasharray:none;stroke-dashoffset:0;stroke-opacity:1;color-rendering:auto;image-rendering:auto;shape-rendering:auto;text-rendering:auto;enable-background:accumulate" />
      <rect
         style="color:#000000;clip-rule:nonzero;display:inline;overflow:visible;visibility:visible;opacity:1;isolation:auto;mix-blend-mode:normal;color-interpolation:sRGB;color-interpolation-filters:linearRGB;solid-color:#000000;solid-opacity:1;fill:#e92a2a;fill-opacity:1;fill-rule:nonzero;stroke:none;stroke-width:0.398881;stroke-linecap:butt;stroke-linejoin:miter;stroke-miterlimit:4;stroke-dasharray:none;stroke-dashoffset:0;stroke-opacity:1;color-rendering:auto;image-rendering:auto;shape-rendering:auto;text-rendering:auto;enable-background:accumulate"
         id="rect4787"
         width="1.276307"
         height="5.0604892"
         x="-674.67102"
         y="161.39032" />
      <rect
         y="161.39032"
         x="-672.97418"
         height="5.0604892"
         width="1.276307"
         id="rect4789"
         style="color:#000000;clip-rule:nonzero;display:inline;overflow:visible;visibility:visible;opacity:1;isolation:auto;mix-blend-mode:normal;color-interpolation:sRGB;color-interpolation-filters:linearRGB;solid-color:#000000;solid-opacity:1;fill:#e22821;fill-opacity:1;fill-rule:nonzero;stroke:none;stroke-width:0.398881;stroke-linecap:butt;stroke-linejoin:miter;stroke-miterlimit:4;stroke-dasharray:none;stroke-dashoffset:0;stroke-opacity:1;color-rendering:auto;image-rendering:auto;shape-rendering:auto;text-rendering:auto;enable-background:accumulate" />
      <rect
         style="color:#000000;clip-rule:nonzero;display:inline;overflow:visible;visibility:visible;opacity:1;isolation:auto;mix-blend-mode:normal;color-interpolation:sRGB;color-interpolation-filters:linearRGB;solid-color:#000000;solid-opacity:1;fill:#e50e10;fill-opacity:1;fill-rule:nonzero;stroke:none;stroke-width:0.398881;stroke-linecap:butt;stroke-linejoin:miter;stroke-miterlimit:4;stroke-dasharray:none;stroke-dashoffset:0;stroke-opacity:1;color-rendering:auto;image-rendering:auto;shape-rendering:auto;text-rendering:auto;enable-background:accumulate"
         id="rect4791"
         width="1.276307"
         height="5.0604892"
         x="-671.27722"
         y="161.39032" />
      <rect
         y="161.39032"
         x="-669.58038"
         height="5.0604892"
         width="1.276307"
         id="rect4793"
         style="color:#000000;clip-rule:nonzero;display:inline;overflow:visible;visibility:visible;opacity:1;isolation:auto;mix-blend-mode:normal;color-interpolation:sRGB;color-interpolation-filters:linearRGB;solid-color:#000000;solid-opacity:1;fill:#e11613;fill-opacity:1;fill-rule:nonzero;stroke:none;stroke-width:0.398881;stroke-linecap:butt;stroke-linejoin:miter;stroke-miterlimit:4;stroke-dasharray:none;stroke-dashoffset:0;stroke-opacity:1;color-rendering:auto;image-rendering:auto;shape-rendering:auto;text-rendering:auto;enable-background:accumulate" />
      <rect
         style="color:#000000;clip-rule:nonzero;display:inline;overflow:visible;visibility:visible;opacity:1;isolation:auto;mix-blend-mode:normal;color-interpolation:sRGB;color-interpolation-filters:linearRGB;solid-color:#000000;solid-opacity:1;fill:#e11413;fill-opacity:1;fill-rule:nonzero;stroke:none;stroke-width:0.398881;stroke-linecap:butt;stroke-linejoin:miter;stroke-miterlimit:4;stroke-dasharray:none;stroke-dashoffset:0;stroke-opacity:1;color-rendering:auto;image-rendering:auto;shape-rendering:auto;text-rendering:auto;enable-background:accumulate"
         id="rect4795"
         width="1.276307"
         height="5.0604892"
         x="-667.88342"
         y="161.39032" />
    </g>
    <g
       id="g1176"
       inkscape:label="plus/4"
       transform="matrix(1.2585122,0,0,1.2585122,737.48617,-305.95502)"
       style="stroke-width:0.794589">
      <path
         sodipodi:nodetypes="cccccsccsscsccsccccccscssccccscccssscccscccccccccccscsccsscscccccccscccccccccccccc"
         style="fill:#ffffff;stroke-width:0.794589"
         d="m -614.14959,266.88811 v -3.60576 l 0.87615,0.0184 0.87616,0.0185 0.0204,0.28102 c 0.0114,0.15458 0.0426,0.28105 0.0697,0.28105 0.0271,0 0.14964,-0.1035 0.27224,-0.22997 0.37849,-0.3905 0.71598,-0.46443 2.11745,-0.46384 1.45369,5e-4 1.87174,0.0905 2.3407,0.50331 0.44316,0.39008 0.52167,0.6479 0.55456,1.8214 0.0338,1.20649 -0.0515,1.8091 -0.31496,2.22454 -0.34286,0.54064 -1.12697,0.77333 -2.60601,0.77333 -1.10054,0 -1.72045,-0.16471 -2.08339,-0.55359 -0.0871,-0.0934 -0.18382,-0.154 -0.21491,-0.13479 -0.0311,0.0192 -0.0565,0.6283 -0.0565,1.35354 v 1.31861 h -0.92576 -0.92576 z m 4.59405,0.0946 c 0.15859,-0.04 0.35775,-0.14647 0.44257,-0.23676 0.14282,-0.15203 0.15422,-0.21956 0.15422,-0.91395 0,-0.70264 -0.0103,-0.76052 -0.16041,-0.92052 -0.22735,-0.24201 -0.51753,-0.30206 -1.45967,-0.30206 -1.28837,0 -1.53921,0.12587 -1.65379,0.82989 -0.13738,0.84406 0.0731,1.40201 0.57969,1.53658 0.34148,0.0908 1.74609,0.0953 2.09739,0.007 z m 7.84551,1.45724 c -0.765,-0.13655 -1.33526,-0.5413 -1.6022,-1.13721 -0.15064,-0.33627 -0.15582,-0.4008 -0.1572,-2.16506 v -1.81844 h 1.86751 v 1.55708 c 0,1.69492 0.0697,1.7731 0.46099,2.0293 0.14719,0.0963 0.32805,0.11664 1.04056,0.11664 0.74617,0 0.89358,-0.0181 1.09383,-0.1341 0.43203,-0.25031 0.54711,-0.46538 0.57989,-2.12907 v -1.47292 h 0.87631 c 0.76893,0 0.90858,0.0163 0.94249,0.10464 v 4.93956 h -1.8188 v -0.2996 c -0.0114,-0.17275 0.0205,-0.31409 0,-0.31409 -0.23629,0.85457 -1.4381,0.74241 -2.06779,0.76263 -0.47279,0.0133 -1.01969,-0.005 -1.21533,-0.0393 z m 7.66256,0.0244 c -1.13005,-0.12024 -1.6868,-0.52879 -1.81859,-1.3345 -0.0348,-0.21283 -0.0236,-0.30426 0.0426,-0.34614 0.0494,-0.0313 0.46856,-0.0574 0.93142,-0.058 0.82971,-10e-4 0.84313,0.001 0.95211,0.16768 0.22623,0.34527 0.42334,0.39338 1.61178,0.39338 1.2629,0 1.47397,-0.0571 1.50806,-0.40739 0.0377,-0.38725 -0.0911,-0.41901 -1.70462,-0.42049 -2.1383,-0.002 -2.73632,-0.13355 -3.09881,-0.68182 -0.16177,-0.24467 -0.17622,-0.32149 -0.17622,-0.93729 0,-0.62084 0.0136,-0.69121 0.18157,-0.94504 0.3618,-0.54651 0.85528,-0.67382 2.79408,-0.72081 2.37151,-0.0575 3.19326,0.12292 3.52339,0.77349 0.0927,0.18273 0.14376,0.3869 0.13225,0.52901 l -0.0188,0.23144 -0.887,0.0186 -0.88699,0.0186 -0.19189,-0.18384 -0.19188,-0.18384 h -1.10618 c -0.9476,0 -1.13181,0.0169 -1.2851,0.11725 -0.22474,0.14725 -0.24019,0.40739 -0.0309,0.51941 0.0988,0.0528 0.75655,0.093 1.9768,0.12055 l 1.82869,0.0413 0.38337,0.19607 c 0.52729,0.26966 0.70576,0.60883 0.70258,1.3353 -0.006,1.18059 -0.45834,1.57419 -1.99774,1.73504 -0.59084,0.0617 -2.66584,0.0762 -3.17403,0.0222 z m -12.17156,-0.13398 v -7.09808 h 1.83997 v 7.09808 z"
         id="path4926"
         inkscape:connector-curvature="0"
         inkscape:label="Plus" />
      <path
         sodipodi:nodetypes="cccccccccccccccccccc"
         style="fill:#ffffff;stroke-width:0.794589"
         d="m -576.6813,270.29587 v -1.61293 h -3.49201 -3.57876 v -3.46339 l 5.28988,-3.78927 h 4.38694 v 5.18284 h 1.75797 v 2.06982 h -1.75797 v 1.61293 z m 0,-6.77412 h -0.29157 l -4.35925,2.86869 0.002,0.22268 h 4.6489 z"
         id="path4928"
         inkscape:connector-curvature="0"
         inkscape:label="4" />
      <path
         sodipodi:nodetypes="ssccccscss"
         inkscape:connector-curvature="0"
         id="path4930"
         d="m -589.23312,270.39594 c 0,-0.0328 1.17688,-2.09942 2.61529,-4.59249 l 2.61527,-4.53288 h 0.62013 0.62014 l -0.1119,0.19259 c -0.0615,0.10593 -1.25568,2.17254 -2.65366,4.5925 l -2.54175,4.39991 h -0.58176 c -0.35069,0 -0.58176,-0.0237 -0.58176,-0.0596 z"
         style="fill:#ffffff;stroke-width:0.794589"
         inkscape:label="/" />
    </g>
  </g>
</svg>
