<svg height="151.43953" viewBox="0 0 72.830075 8.1777346" width="1348.7051" xmlns="http://www.w3.org/2000/svg" xmlns:xlink="http://www.w3.org/1999/xlink"><linearGradient id="a"><stop offset="0" stop-color="#ffcf64"/><stop offset="1" stop-color="#d09236"/></linearGradient><radialGradient id="b" cx="36.946358" cy="-23.885437" gradientTransform="matrix(1 .00000014 0 .29204609 0 11.839948)" gradientUnits="userSpaceOnUse" r="35.874355" xlink:href="#a"/><radialGradient id="c" cx="36.946358" cy="-23.885437" gradientTransform="matrix(1 .00000014 0 .29204609 .432 11.839948)" gradientUnits="userSpaceOnUse" r="35.874355" xlink:href="#a"/><g stroke-width=".661458" transform="translate(-.675781 -4.146484)"><path d="m1.8457031 4.1464844-1.16992185 1.1269531v3.0996094l1.16992185 1.1269531h3.7148438v.2929688h-4.88476565v2.5312502h5.33984375l2.1464844-2.06836v-3.287109h-4.8847656v-.2910156h3.8085937l1.3125-2.53125zm9.5214849 0-4.0800786 8.1621096h3.0703126l.470703-.939453h3.357422l.470703.939453h3.044922.02539 2.501954v-5.6347659h.291015v5.6347659h2.527344v-5.6347659h.291016v5.6347659h2.527343v-7.0332034l-1.128906-1.1289062h-2.685547l-.269531.5390625-.269531-.5390625h-2.681641l-1.128906 1.1289062v6.9824214l-4.054688-8.1113276zm15.83789 0-1.128906 1.1289062v7.0332034h2.527344v-5.6347659h.291015v5.6347659h2.527344v-5.6347659h.289063v5.6347659h2.527343v-7.0332034l-1.128906-1.1289062h-2.683594l-.269531.5390625-.269531-.5390625zm7.246094 0v8.1621096h2.527344v-8.1621096zm2.738281 0v7.0332036l1.128906 1.128906h5.033203l1.060547-2.126953v-6.0351566h-2.52539v5.6347656h-2.169922v-5.6347656zm7.435547 0v8.1621096h2.527344v-3.6464846l1.822265 3.6464846h2.873047v-8.1621096h-2.527344v3.6464844l-1.822265-3.6464844zm8.564453 0-1.128906 1.1289062v5.9042974l1.128906 1.128906h6.09375v-5.3437502h-3.925781l1.398437 1.3945312v1.421875h-2.167968v-3.1074219h3.632812l1.261719-2.5273437zm6.349609 0v8.1777346h6.470704v-2.5312502h-3.869141v-.2929688h3.869141v-2.53125h-3.869141v-.2890625h3.667969l.002-.00195h.199219v-2.53125zm6.744141 0v8.1621096h2.525391v-3.6503909l1.826172 3.6503909h2.871093v-8.1621096h-2.527343v3.6464844l-1.822266-3.6464844zm-53.775391 3.8652344.414063.8300781h-.830078z"/><g fill="url(#b)"><path d="m7.8105215 11.984531 3.7570785-7.5141598h1.87854l3.75708 7.5141598h-2.348175l-.469635-.93927h-3.287445l.93927-1.8785397h1.408905l-.93927-1.87854-2.348175 4.6963497z" fill="url(#b)"/><g fill="url(#c)"><path d="m18.025935 11.984531v-6.5748897l.93927-.9392701h2.348175l.469635.9392701.469635-.9392701h2.348175l.93927.9392701v6.5748897h-1.87854v-5.6356197h-.93927v5.6356197h-1.87854v-5.6356197h-.93927v5.6356197z"/><path d="m26.400444 11.984531v-6.5748897l.93927-.9392701h2.348175l.469635.9392701.469635-.9392701h2.348175l.939271.9392701v6.5748897h-1.878541v-5.6356197h-.93927v5.6356197h-1.87854v-5.6356197h-.93927v5.6356197z"/><path d="m34.774954 11.984531v-7.5141598h1.87854v7.5141598z"/><path d="m38.453116 11.984531-.93927-.93927v-6.5748898h1.87854v5.6356198h2.81781v-5.6356198h1.87854v5.6356198l-.93927 1.87854z"/><path d="m44.949084 11.984531v-7.5141598h2.348175l2.348175 4.6963501v-4.6963501h1.87854v7.5141598h-2.348175l-2.348175-4.6963497v4.6963497z"/><path d="m53.323595 11.984531-.93927-.93927v-5.6356197l.93927-.9392701h5.63562l-.93927 1.8785401h-3.75708v3.7570797h2.81781v-1.8785397l-.93927-.93927h2.81781v4.6963497z"/><path d="m66.606574 11.984531v-7.5141598h2.348175l2.348175 4.6963501v-4.6963501h1.87854v7.5141598h-2.348175l-2.348175-4.6963497v4.6963497z"/><path d="m65.686171 4.4705285h-5.823416v7.5287405h5.823416v-1.882573h-3.870047v-.9410282h3.870047v-1.8820558h-3.870047v-.938444h3.85868l.0016-.00259h.0098z"/></g><path d="m1.0007538 11.999056v-1.882171h4.883358v-.9410858h-3.9066866l-.9766714-.9410856v-2.823257l.9766714-.9410856h5.8887627l-.9766724 1.8821713h-3.9354179v.9410856h4.8833573v2.8232571l-1.9533431 1.882171z" fill="url(#b)"/></g></g></svg>