<?xml version="1.0" encoding="UTF-8" standalone="no"?>
<!-- Created with Inkscape (http://www.inkscape.org/) -->

<svg
   width="68.952812mm"
   height="41.556648mm"
   viewBox="0 0 68.952814 41.556648"
   version="1.1"
   id="svg40206"
   inkscape:version="1.1.2 (0a00cf5339, 2022-02-04)"
   sodipodi:docname="ecwolf.svg"
   xmlns:inkscape="http://www.inkscape.org/namespaces/inkscape"
   xmlns:sodipodi="http://sodipodi.sourceforge.net/DTD/sodipodi-0.dtd"
   xmlns="http://www.w3.org/2000/svg"
   xmlns:svg="http://www.w3.org/2000/svg">
  <sodipodi:namedview
     id="namedview40208"
     pagecolor="#ff38ff"
     bordercolor="#111111"
     borderopacity="1"
     inkscape:pageshadow="0"
     inkscape:pageopacity="0"
     inkscape:pagecheckerboard="1"
     inkscape:document-units="px"
     showgrid="false"
     showguides="true"
     inkscape:guide-bbox="true"
     inkscape:zoom="6.228844"
     inkscape:cx="27.292384"
     inkscape:cy="123.69872"
     inkscape:window-width="1366"
     inkscape:window-height="703"
     inkscape:window-x="0"
     inkscape:window-y="0"
     inkscape:window-maximized="1"
     inkscape:current-layer="layer1"
     fit-margin-top="0"
     fit-margin-left="0"
     fit-margin-right="0"
     fit-margin-bottom="0">
    <sodipodi:guide
       position="51.148878,4.6717633"
       orientation="0,-1"
       id="guide40965" />
    <sodipodi:guide
       position="50.056439,16.445276"
       orientation="0,-1"
       id="guide44356" />
    <sodipodi:guide
       position="53.028095,2.1803587"
       orientation="1,0"
       id="guide48720" />
  </sodipodi:namedview>
  <defs
     id="defs40203" />
  <g
     inkscape:label="ECWolf"
     inkscape:groupmode="layer"
     id="layer1"
     transform="translate(-73.560003,-138.40438)">
    <g
       aria-label="John Loreth 2022"
       id="text30722"
       style="font-size:0.529167px;line-height:1.25;font-family:TrasksHand;-inkscape-font-specification:TrasksHand;fill:#ffffff;fill-opacity:0.5;stroke-width:0.661458;stop-color:#000000"
       inkscape:label="Signature">
      <path
         d="m 126.48521,162.88211 q 0,0.0635 -0.0153,0.10689 -0.0228,0.0646 -0.073,0.0646 -0.0333,0 -0.0699,-0.0154 -0.0439,-0.0185 -0.0482,-0.0455 0.0148,0 0.0349,0.005 0.0466,0.0122 0.0582,0.0122 0.045,0 0.0677,-0.045 0.018,-0.036 0.018,-0.0863 0,-0.0354 -0.0233,-0.10107 -0.0228,-0.0661 -0.0228,-0.0921 0,-0.008 0.004,-0.0127 0.005,-0.005 0.0127,-0.005 0.0206,0 0.0402,0.0952 0.0164,0.0804 0.0164,0.11906 z"
         id="path32132" />
      <path
         d="m 126.68894,162.93608 q 0,0.054 -0.0312,0.0847 -0.0312,0.0307 -0.0863,0.0307 -0.0302,0 -0.0466,-0.0143 -0.0164,-0.0143 -0.0164,-0.0439 0,-0.0418 0.0545,-0.0841 0.0519,-0.0402 0.0958,-0.0402 0.0201,0 0.0265,0.0249 0.004,0.0143 0.004,0.0423 z m -0.0323,0.0148 q 0,-0.006 -0.002,-0.0122 -0.001,-0.006 -0.004,-0.0143 -0.008,0.006 -0.0281,0.0286 -0.01,0.0116 -0.0175,0.0169 0,-0.0101 0.002,-0.0164 0.004,-0.009 0.007,-0.0154 -0.0233,0 -0.0487,0.0196 -0.0249,0.0196 -0.0249,0.0423 0,0.0153 0.0169,0.0153 0.0323,0 0.0624,-0.0159 0.0365,-0.0191 0.0365,-0.0487 z"
         id="path32134" />
      <path
         d="m 126.90695,162.95778 q 0,0.0259 -0.0196,0.0582 -0.0222,0.0365 -0.046,0.0365 -0.007,0 -0.0117,-0.007 -0.004,-0.008 -0.004,-0.0153 0,-0.01 0.0201,-0.0296 0.0206,-0.0206 0.0206,-0.028 0,-0.005 -0.002,-0.01 -0.002,-0.005 -0.002,-0.006 -0.0397,0.009 -0.081,0.0455 -0.0408,0.0365 -0.0619,0.0413 -0.004,-0.0117 -0.004,-0.0238 0,-0.0148 0.007,-0.0312 0.005,-0.0116 0.0159,-0.028 0.0185,-0.0281 0.0392,-0.0635 0.0106,-0.0185 0.0365,-0.064 0.0265,-0.0455 0.0386,-0.0646 0.006,-0.01 0.0111,-0.0143 0.007,-0.006 0.0164,-0.008 0.006,0.002 0.009,0.008 0.003,0.006 0.003,0.0138 0,0.018 -0.0233,0.0487 -0.0423,0.055 -0.0434,0.0572 -0.0238,0.036 -0.0238,0.0651 l 0.001,0.005 q 0.0291,-0.0143 0.0344,-0.0164 0.0217,-0.009 0.037,-0.009 0.0169,0 0.0249,0.0116 0.008,0.0111 0.008,0.0286 z"
         id="path32136" />
      <path
         d="m 127.15249,162.92656 q 0,0.036 -0.0175,0.0767 -0.019,0.045 -0.0471,0.0619 -0.006,-0.007 -0.0101,-0.0154 -0.004,-0.008 -0.004,-0.0169 0,-0.009 0.0265,-0.0534 0.0116,-0.0196 0.0106,-0.0344 l -5.3e-4,-0.007 q -0.0196,0.006 -0.0677,0.0354 -0.0476,0.0291 -0.0963,0.0593 -0.007,0 -0.0138,-0.005 -0.006,-0.006 -0.006,-0.0127 0,-0.0111 0.0355,-0.0746 0.0106,-0.0191 0.0381,-0.0662 0.008,0.0111 0.0111,0.0249 0.003,0.0132 0.003,0.0317 0,0.008 0,0.0122 0.0487,-0.0291 0.0762,-0.0439 0.0302,-0.0164 0.0413,-0.0164 0.007,0 0.0138,0.0169 0.007,0.0169 0.007,0.027 z"
         id="path32138" />
      <path
         d="m 127.61233,163.02922 q 0,0.01 -0.008,0.0148 -0.008,0.005 -0.018,0.005 -0.009,0 -0.0228,-0.002 -0.0312,-0.005 -0.0402,-0.005 -0.0159,0 -0.0624,0.004 -0.0265,0.002 -0.0381,0.002 -0.0323,0 -0.0323,-0.0323 0,-0.0307 0.0201,-0.0878 0.0111,-0.0323 0.0418,-0.10584 0.0275,-0.0661 0.0349,-0.0931 0.003,-0.008 0.004,-0.0111 0.004,-0.006 0.0106,-0.006 0.0101,0 0.0169,0.0148 0.007,0.0143 0.007,0.0259 0,0.0185 -0.0217,0.0625 -0.0217,0.0434 -0.0423,0.0852 -0.0227,0.0497 -0.0227,0.0757 0,0.0132 0.0111,0.0185 0.008,0.004 0.0233,0.004 0.0116,0 0.0402,-0.003 0.0286,-0.003 0.0381,-0.003 0.0238,0 0.0392,0.007 0.0217,0.01 0.0217,0.0307 z"
         id="path32140" />
      <path
         d="m 127.80918,162.93608 q 0,0.054 -0.0312,0.0847 -0.0312,0.0307 -0.0862,0.0307 -0.0302,0 -0.0466,-0.0143 -0.0164,-0.0143 -0.0164,-0.0439 0,-0.0418 0.0545,-0.0841 0.0519,-0.0402 0.0958,-0.0402 0.0201,0 0.0265,0.0249 0.004,0.0143 0.004,0.0423 z m -0.0323,0.0148 q 0,-0.006 -0.002,-0.0122 -10e-4,-0.006 -0.004,-0.0143 -0.008,0.006 -0.028,0.0286 -0.0101,0.0116 -0.0175,0.0169 0,-0.0101 0.002,-0.0164 0.004,-0.009 0.007,-0.0154 -0.0233,0 -0.0487,0.0196 -0.0249,0.0196 -0.0249,0.0423 0,0.0153 0.0169,0.0153 0.0323,0 0.0624,-0.0159 0.0365,-0.0191 0.0365,-0.0487 z"
         id="path32142" />
      <path
         d="m 128.03196,162.92497 q 0,0.0169 -0.009,0.036 -0.008,0.019 -0.0217,0.0318 l -5.3e-4,-0.007 q 0,-0.006 0.002,-0.0196 0.002,-0.0132 0.002,-0.0196 0,-0.009 -0.003,-0.0132 -0.003,-0.005 -0.0111,-0.005 -0.0249,0 -0.0619,0.0386 -0.0402,0.0423 -0.0799,0.0841 -0.003,0 -0.006,-5.3e-4 -0.008,-0.002 -0.0106,-0.003 0.002,-0.019 0.0132,-0.0423 0.0312,-0.063 0.0323,-0.0672 0.004,-0.0169 0.006,-0.0249 0.002,-0.008 0.006,-0.0164 0.004,-0.009 0.01,-0.0159 0.006,-0.007 0.0148,-0.0111 l 0.005,0.0635 q 0.0228,-0.0185 0.0349,-0.0286 0.0233,-0.0185 0.0402,-0.0185 0.0169,0 0.0275,0.0111 0.0106,0.0111 0.0106,0.0275 z"
         id="path32144" />
      <path
         d="m 128.29178,162.86359 q 0,0.0222 -0.0593,0.0587 -0.0572,0.0349 -0.0831,0.0349 -0.0122,0 -0.0164,-0.008 -0.004,-0.008 -0.004,-0.0238 0,-0.0101 0,-0.0143 0.0354,0 0.0646,-0.0106 0.0291,-0.0106 0.0508,-0.0349 -0.0159,-0.006 -0.0323,-0.006 -0.0386,0 -0.082,0.0296 -0.0476,0.0323 -0.0476,0.0688 0,0.0349 0.0476,0.0487 0.007,0.002 0.0894,0.0148 0.0481,0.007 0.0481,0.0259 0,0.008 -0.0175,0.0127 -0.0175,0.005 -0.0444,0.005 -0.0677,0 -0.10689,-0.0206 -0.0519,-0.0275 -0.0519,-0.0884 0,-0.0635 0.0635,-0.10107 0.054,-0.0317 0.12277,-0.0317 0.0206,0 0.0376,0.01 0.0206,0.0116 0.0206,0.0307 z"
         id="path32146" />
      <path
         d="m 128.50239,162.76887 q 0,0.0116 -0.028,0.0487 -0.028,0.037 -0.028,0.0566 0,0.0101 0.0116,0.0201 0.0265,0.0233 0.0265,0.0286 0,0.007 -0.005,0.0132 -0.004,0.006 -0.0111,0.006 -0.006,0 -0.0164,-0.006 -0.007,-0.004 -0.0286,-0.0206 -0.008,0.0153 -0.0122,0.0233 -0.0148,0.0281 -0.0201,0.0408 -0.008,0.0243 -0.0159,0.0487 -0.0138,0.0328 -0.0344,0.0328 l -5.3e-4,-0.0122 q 0,-0.0376 0.0243,-0.0889 0.005,-0.01 0.0265,-0.0492 -0.0418,-0.0228 -0.0921,-0.0228 0,-0.0196 0.008,-0.0286 0.008,-0.01 0.0281,-0.01 0.018,0 0.045,0.006 0.0132,0.003 0.0265,0.006 0.0101,-0.003 0.0275,-0.0344 0.0429,-0.0751 0.0582,-0.0862 0.004,0.007 0.007,0.0138 0.003,0.007 0.003,0.0132 z"
         id="path32148" />
      <path
         d="m 128.69766,162.95778 q 0,0.0259 -0.0196,0.0582 -0.0222,0.0365 -0.046,0.0365 -0.007,0 -0.0116,-0.007 -0.004,-0.008 -0.004,-0.0153 0,-0.01 0.0201,-0.0296 0.0206,-0.0206 0.0206,-0.028 0,-0.005 -0.002,-0.01 -0.002,-0.005 -0.002,-0.006 -0.0397,0.009 -0.081,0.0455 -0.0407,0.0365 -0.0619,0.0413 -0.004,-0.0117 -0.004,-0.0238 0,-0.0148 0.007,-0.0312 0.005,-0.0116 0.0159,-0.028 0.0185,-0.0281 0.0392,-0.0635 0.0106,-0.0185 0.0365,-0.064 0.0265,-0.0455 0.0386,-0.0646 0.006,-0.01 0.0111,-0.0143 0.007,-0.006 0.0164,-0.008 0.006,0.002 0.009,0.008 0.003,0.006 0.003,0.0138 0,0.018 -0.0233,0.0487 -0.0423,0.055 -0.0434,0.0572 -0.0238,0.036 -0.0238,0.0651 l 0.001,0.005 q 0.0291,-0.0143 0.0344,-0.0164 0.0217,-0.009 0.037,-0.009 0.0169,0 0.0249,0.0116 0.008,0.0111 0.008,0.0286 z"
         id="path32150" />
      <path
         d="m 129.1321,162.78527 q 0,0.0249 -0.0265,0.0667 -0.0169,0.0265 -0.0556,0.0762 -0.0386,0.0492 -0.0482,0.0646 0.002,5.3e-4 0.0397,0.0127 0.0386,0.0117 0.0386,0.0423 -0.0159,0.003 -0.0312,0.005 l -0.006,-5.3e-4 v -0.004 q -0.008,-0.002 -0.0138,-0.002 -0.0101,0 -0.0317,0.003 -0.0217,0.003 -0.0328,0.003 -0.0143,0 -0.0233,-0.005 -0.009,-0.005 -0.009,-0.0191 0,-0.0111 0.0407,-0.063 0.0762,-0.0968 0.0767,-0.0979 0.0413,-0.0561 0.0413,-0.0751 0,-0.007 -0.005,-0.0111 -0.005,-0.004 -0.0196,-0.004 -0.0101,0 -0.0418,0.0196 -0.0153,0.01 -0.0249,0.01 l -0.009,-0.002 q -0.003,-0.002 -0.007,-0.008 -0.004,-0.006 -0.004,-0.0101 0,-0.0222 0.0429,-0.0408 0.0365,-0.0159 0.0635,-0.0159 0.0228,0 0.0349,0.0169 0.0106,0.0148 0.0106,0.0386 z"
         id="path32152" />
      <path
         d="m 129.45013,162.88052 q 0,0.064 -0.0693,0.11324 -0.0635,0.045 -0.1307,0.045 -0.0333,0 -0.0529,-0.0169 -0.0196,-0.0169 -0.0196,-0.0492 0,-0.072 0.063,-0.12489 0.0598,-0.0503 0.13388,-0.0503 0.0376,0 0.0566,0.0222 0.019,0.0222 0.019,0.0608 z m -0.0323,0.0122 q 0,-0.0243 -0.0275,-0.0365 -0.0206,-0.009 -0.0492,-0.009 -0.0418,0 -0.0873,0.0408 -0.0455,0.0408 -0.0455,0.082 0,0.0169 0.008,0.0243 0.009,0.007 0.027,0.007 0.0519,0 0.10795,-0.0286 0.0661,-0.0339 0.0661,-0.0799 z"
         id="path32154" />
      <path
         d="m 129.69249,162.78527 q 0,0.0249 -0.0265,0.0667 -0.0169,0.0265 -0.0556,0.0762 -0.0386,0.0492 -0.0481,0.0646 0.002,5.3e-4 0.0397,0.0127 0.0386,0.0117 0.0386,0.0423 -0.0159,0.003 -0.0312,0.005 l -0.006,-5.3e-4 v -0.004 q -0.008,-0.002 -0.0138,-0.002 -0.0101,0 -0.0318,0.003 -0.0217,0.003 -0.0328,0.003 -0.0143,0 -0.0233,-0.005 -0.009,-0.005 -0.009,-0.0191 0,-0.0111 0.0408,-0.063 0.0762,-0.0968 0.0767,-0.0979 0.0413,-0.0561 0.0413,-0.0751 0,-0.007 -0.005,-0.0111 -0.005,-0.004 -0.0196,-0.004 -0.0101,0 -0.0418,0.0196 -0.0154,0.01 -0.0249,0.01 l -0.009,-0.002 q -0.003,-0.002 -0.007,-0.008 -0.004,-0.006 -0.004,-0.0101 0,-0.0222 0.0429,-0.0408 0.0365,-0.0159 0.0635,-0.0159 0.0228,0 0.0349,0.0169 0.0106,0.0148 0.0106,0.0386 z"
         id="path32156" />
      <path
         d="m 129.93591,162.78527 q 0,0.0249 -0.0265,0.0667 -0.0169,0.0265 -0.0556,0.0762 -0.0386,0.0492 -0.0482,0.0646 0.002,5.3e-4 0.0397,0.0127 0.0386,0.0117 0.0386,0.0423 -0.0159,0.003 -0.0312,0.005 l -0.006,-5.3e-4 v -0.004 q -0.008,-0.002 -0.0138,-0.002 -0.0101,0 -0.0317,0.003 -0.0217,0.003 -0.0328,0.003 -0.0143,0 -0.0233,-0.005 -0.009,-0.005 -0.009,-0.0191 0,-0.0111 0.0408,-0.063 0.0762,-0.0968 0.0767,-0.0979 0.0413,-0.0561 0.0413,-0.0751 0,-0.007 -0.005,-0.0111 -0.005,-0.004 -0.0196,-0.004 -0.0101,0 -0.0418,0.0196 -0.0153,0.01 -0.0249,0.01 l -0.009,-0.002 q -0.003,-0.002 -0.007,-0.008 -0.004,-0.006 -0.004,-0.0101 0,-0.0222 0.0429,-0.0408 0.0365,-0.0159 0.0635,-0.0159 0.0228,0 0.0349,0.0169 0.0106,0.0148 0.0106,0.0386 z"
         id="path32158" />
    </g>
    <path
       d="m 138.63627,161.33547 2.58062,-1.74422 h -2.58062 l -2.58064,1.74422 v 15.69801 l 2.58064,-1.74422 v -10.0293 l 2.58062,-1.74421 h -2.58062 c 0,-0.72676 0,-1.45352 0,-2.18028 z"
       id="path40513"
       style="fill:#0000c0;fill-opacity:1;stroke:#ffffff;stroke-width:0.79375;stroke-miterlimit:4;stroke-dasharray:none;stroke-opacity:1"
       inkscape:label="F"
       sodipodi:nodetypes="cccccccccc" />
    <path
       d="m 134.13709,161.77153 -2.58064,1.74422 v 15.69801 l 2.58064,-1.74422 c 0,-5.23267 0,-10.46534 0,-15.69801 z"
       id="path40511"
       style="fill:#0000c0;fill-opacity:1;stroke:#ffffff;stroke-width:0.79375;stroke-miterlimit:4;stroke-dasharray:none;stroke-opacity:1"
       inkscape:label="L"
       sodipodi:nodetypes="ccccc" />
    <path
       d="m 123.61644,163.51575 v 11.77351 h 6.02146 v -11.77351 z m 3.69537,9.68634 h -1.3894 v -7.59917 h 1.3894 z"
       id="path40531"
       style="fill:#0000c0;fill-opacity:1;stroke:#ffffff;stroke-width:0.79375;stroke-miterlimit:4;stroke-dasharray:none;stroke-opacity:1"
       inkscape:label="O"
       sodipodi:nodetypes="cccccccccc" />
    <path
       style="display:inline;opacity:0.98;fill:#0000c0;fill-opacity:1;stroke:#ffffff;stroke-width:0.79375;stroke-linejoin:round;stroke-miterlimit:4;stroke-dasharray:none;stroke-opacity:1"
       d="m 87.395213,175.0838 v -13.51595 h -3.020352 l -2.013568,-2.01394 h 5.03392 v -2.01399 h -7.047494 l -2.319985,-2.32045 h 9.367479 v -1.99209 H 76.036051 l -2.079229,-2.07964 h 13.438391 v -9.25313 l 8.485674,8.48695 v 10.20466 l 4.737723,5.26815 v -23.79138 l 3.7903,-3.26175 3.59327,3.06473 v 24.20791 l 4.78461,-5.31505 v -10.37111 l 8.4607,-8.46197 v 9.22199 h 13.60323 l -2.07923,2.07964 h -11.524 v 1.99209 h 9.5323 l -2.31996,2.32045 h -7.21234 v 2.01399 h 5.19877 l -2.01359,2.01394 h -3.18518 v 13.44218 l -8.43927,-8.28223 -4.80604,4.27796 v 4.27227 l -3.62847,3.47059 -3.7551,-3.61852 v -4.27231 l -4.694897,-4.16678 c -2.490171,2.49044 -6.038196,5.90249 -8.5285,8.39279 z"
       id="path2996"
       sodipodi:nodetypes="ccccccccccccccccccccccccccccccccccccccccccccc"
       inkscape:label="W" />
    <g
       aria-label="C"
       transform="scale(1.028572,0.97222168)"
       id="text25413"
       style="font-size:21.175px;line-height:1.25;font-family:Wolfenstein;-inkscape-font-specification:Wolfenstein;fill:#0000c0;stroke:#ffffff;stroke-width:0.79375;stop-color:#000000"
       inkscape:label="C">
      <path
         d="m 82.104537,170.44063 h -1.2705 v 7.623 h 1.2705 v 2.32925 h -3.8115 v -12.2815 h 3.8115 z"
         id="path32129" />
    </g>
    <g
       aria-label="E"
       transform="scale(1.028572,0.97222168)"
       id="text5892"
       style="font-size:21.175px;line-height:1.25;font-family:Wolfenstein;-inkscape-font-specification:Wolfenstein;fill:#0000c0;stroke:#ffffff;stroke-width:0.79375;stop-color:#000000"
       inkscape:label="E">
      <path
         d="m 76.445419,168.11138 v 2.32925 h -1.2705 v 2.75275 h 1.2705 v 2.32925 h -1.2705 v 2.541 h 1.2705 v 2.32925 h -3.8115 v -12.2815 z"
         id="path32126" />
    </g>
  </g>
</svg>
