<?xml version="1.0" encoding="UTF-8" standalone="no"?>
<!-- Created with Inkscape (http://www.inkscape.org/) -->

<svg
   width="226.60303mm"
   height="44.536255mm"
   viewBox="0 0 135.96182 26.721753"
   version="1.1"
   id="svg2300"
   inkscape:version="1.1.2 (0a00cf5339, 2022-02-04)"
   sodipodi:docname="electron.svg"
   xmlns:inkscape="http://www.inkscape.org/namespaces/inkscape"
   xmlns:sodipodi="http://sodipodi.sourceforge.net/DTD/sodipodi-0.dtd"
   xmlns="http://www.w3.org/2000/svg"
   xmlns:svg="http://www.w3.org/2000/svg">
  <sodipodi:namedview
     id="namedview2302"
     pagecolor="#000000"
     bordercolor="#111111"
     borderopacity="1"
     inkscape:pageshadow="0"
     inkscape:pageopacity="0"
     inkscape:pagecheckerboard="1"
     inkscape:document-units="mm"
     showgrid="false"
     fit-margin-top="0"
     fit-margin-left="0"
     fit-margin-right="0"
     fit-margin-bottom="0"
     inkscape:zoom="0.84631033"
     inkscape:cx="346.2087"
     inkscape:cy="56.125984"
     inkscape:window-width="1366"
     inkscape:window-height="703"
     inkscape:window-x="0"
     inkscape:window-y="0"
     inkscape:window-maximized="1"
     inkscape:current-layer="layer1"
     scale-x="0.6" />
  <defs
     id="defs2297" />
  <g
     inkscape:label="Acorn Electron"
     inkscape:groupmode="layer"
     id="layer1"
     transform="translate(-46.478114,-92.920949)">
    <text
       xml:space="preserve"
       style="font-size:0.47625px;line-height:1.25;font-family:TrasksHand;-inkscape-font-specification:TrasksHand;fill:#ffffff;fill-opacity:0.5;stroke-width:0.238125"
       x="117.97633"
       y="105.87103"
       id="text23381"
       inkscape:label="Signature"><tspan
         sodipodi:role="line"
         id="tspan23379"
         style="font-size:0.47625px;fill:#ffffff;fill-opacity:0.5;stroke-width:0.238125"
         x="117.97633"
         y="105.87103">John Loreth 2022</tspan></text>
    <path
       style="display:inline;fill:#32cb32;stroke-width:0.0940741"
       d="m 111.27167,119.47294 c -0.28457,-0.0936 -1.62363,-0.61704 -2.97568,-1.1632 -1.35205,-0.54615 -3.17238,-1.22488 -4.04518,-1.50827 -1.5136,-0.49146 -2.29889,-0.72118 -6.384691,-1.86774 -1.643777,-0.46128 -1.750582,-0.50393 -1.32912,-0.53073 0.615397,-0.0391 4.902281,0.87984 6.761901,1.44954 0.14977,0.0459 0.16463,-0.0417 0.16463,-0.96993 v -1.02035 l -0.87019,-0.11845 c -1.08886,-0.14821 -2.21779,-0.53274 -3.096247,-1.05462 -0.849942,-0.50494 -2.086692,-1.68405 -2.655296,-2.53154 -0.413366,-0.61611 -1.103328,-1.97524 -1.23272,-2.42828 l -0.06045,-0.21167 h 8.229013 8.22901 l -0.0534,0.21167 c -0.0294,0.11641 -0.1908,0.53967 -0.3587,0.94057 -0.74922,1.78886 -2.25012,3.45746 -3.81569,4.24204 -0.95129,0.47673 -2.00236,0.78194 -3.01788,0.87632 l -0.63892,0.0594 v 1.10782 1.10782 l 0.44686,0.14155 c 0.24577,0.0779 1.09734,0.33976 1.89239,0.582 3.602,1.0975 6.09182,2.23909 5.91103,2.71023 -0.0774,0.20179 -0.43777,0.19388 -1.10065,-0.0242 z M 96.502044,105.3269 c 0,-0.0666 0.06242,-0.62434 0.138709,-1.23933 0.765629,-6.171879 3.008739,-10.197364 6.130797,-11.002322 2.21525,-0.571156 4.44336,0.369113 5.86137,2.473509 1.35279,2.00761 2.33685,5.418943 2.60173,9.019123 l 0.064,0.87019 h -7.39831 c -5.972371,0 -7.398316,-0.0234 -7.398316,-0.12117 z"
       id="path2400"
       inkscape:label="Logo" />
    <g
       aria-label="acorn"
       transform="scale(0.99327419,1.0067714)"
       id="text7504"
       style="font-size:18.9834px;line-height:1.25;font-family:'GeoSlb712 Md BT';-inkscape-font-specification:'GeoSlb712 Md BT';fill:#ffffff;stroke-width:0.264583"
       inkscape:label="Acorn">
      <path
         d="m 52.780762,108.11712 v -0.67665 q -0.778616,-0.46346 -1.316232,-0.64885 -0.537616,-0.18538 -1.056693,-0.18538 -0.806424,0 -1.297694,0.38003 -0.491269,0.37077 -0.491269,0.98254 0,0.55616 0.426385,0.92693 0.426385,0.3615 1.09377,0.3615 0.556154,0 1.195732,-0.27808 0.648846,-0.27808 1.446001,-0.86204 z m 0,2.58612 v -0.87131 q -0.723001,0.58396 -1.436732,0.86204 -0.713731,0.27808 -1.510886,0.27808 -1.362578,0 -2.206079,-0.8157 -0.834231,-0.81569 -0.834231,-2.13192 0,-1.36258 0.899116,-2.19681 0.908385,-0.83423 2.391464,-0.83423 0.509808,0 1.158654,0.16684 0.658116,0.15758 1.473809,0.49127 v -0.54688 q 0,-1.26062 -0.472731,-1.84458 -0.472731,-0.58396 -1.483078,-0.58396 -0.713731,0 -1.251347,0.28735 -0.537616,0.28734 -0.98254,0.90838 l -1.612847,-0.41712 q 0.444923,-1.07523 1.473809,-1.65919 1.038155,-0.58396 2.511963,-0.58396 1.853848,0 2.669541,0.88985 0.824962,0.88984 0.824962,2.96615 v 4.00431 h 1.399655 v 1.63139 z"
         id="path828" />
      <path
         d="m 63.811156,104.89143 q -0.259539,-1.01035 -0.889847,-1.5387 -0.630308,-0.52834 -1.57577,-0.52834 -1.334771,0 -2.104117,0.87131 -0.769347,0.86203 -0.769347,2.37292 0,1.48308 0.760077,2.33585 0.769347,0.85277 2.085579,0.85277 0.936193,0 1.696271,-0.482 0.769346,-0.482 1.232808,-1.37185 l 1.46454,0.71373 q -0.537616,1.3255 -1.714809,2.09485 -1.177193,0.76008 -2.67881,0.76008 -2.104117,0 -3.41108,-1.34404 -1.306962,-1.34404 -1.306962,-3.54085 0,-2.13193 1.260616,-3.50377 1.269886,-1.37185 3.216426,-1.37185 0.797154,0 1.45527,0.25954 0.667385,0.25027 1.279155,0.78788 v -0.81569 h 1.483078 v 3.44816 z"
         id="path830" />
      <path
         d="m 71.384123,109.25724 q 1.306963,0 2.048502,-0.8435 0.741539,-0.8435 0.741539,-2.34512 0,-1.50162 -0.741539,-2.34512 -0.73227,-0.8435 -2.048502,-0.8435 -1.297693,0 -2.048502,0.85277 -0.741539,0.8435 -0.741539,2.33585 0,1.48308 0.750808,2.33585 0.750809,0.85277 2.039233,0.85277 z m 4.653158,-3.17008 q 0,2.18754 -1.288425,3.54085 -1.288424,1.34404 -3.364733,1.34404 -2.06704,0 -3.346195,-1.34404 -1.279155,-1.34404 -1.279155,-3.54085 0,-2.19681 1.279155,-3.53158 1.279155,-1.34404 3.346195,-1.34404 2.076309,0 3.364733,1.35331 1.288425,1.34404 1.288425,3.52231 z"
         id="path832" />
      <path
         d="m 78.317515,109.07185 v -6.09916 h -1.306963 v -1.52942 h 2.901272 v 1.81677 q 0.482,-1.05669 1.167924,-1.52015 0.685923,-0.47274 1.779693,-0.47274 0.157577,0 0.333693,0.009 0.176116,0 0.3615,0.009 v 1.78897 q -0.0093,0 -0.05561,-0.009 -0.426385,-0.0278 -0.639578,-0.0278 -1.492347,0 -2.18754,0.85277 -0.685923,0.85277 -0.685923,2.73442 v 2.44708 h 1.659193 v 1.63139 h -4.634619 v -1.63139 z"
         id="path834" />
      <path
         d="m 85.148943,109.07185 v -6.09916 H 83.84198 v -1.52942 h 2.901272 v 1.41819 q 0.926924,-0.7508 1.687002,-1.09377 0.769346,-0.34296 1.520155,-0.34296 1.21427,0 1.714809,0.68593 0.509808,0.67665 0.509808,2.63246 v 4.32873 h 1.362578 v 1.63139 h -3.031041 v -5.2742 q 0,-1.64992 -0.259539,-2.07631 -0.250269,-0.43565 -0.917654,-0.43565 -0.602501,0 -1.214271,0.34296 -0.6025,0.34296 -1.297693,1.0845 v 4.72731 h 1.371847 v 1.63139 H 83.84198 v -1.63139 z"
         id="path836" />
    </g>
    <g
       aria-label="electron"
       transform="scale(0.99311891,1.0069288)"
       id="text12126"
       style="font-size:18.9804px;line-height:1.25;font-family:'GeoSlb712 Md BT';-inkscape-font-specification:'GeoSlb712 Md BT';fill:#ffffff;stroke-width:0.264583"
       inkscape:label="Electron">
      <path
         d="m 117.7082,106.55252 q 0.0371,1.21407 0.82483,1.9555 0.79703,0.73215 2.08525,0.73215 0.89898,0 1.67747,-0.42632 0.77849,-0.42631 1.26042,-1.20481 l 1.4643,0.75996 q -0.71361,1.26969 -1.83501,1.9277 -1.12141,0.65801 -2.58571,0.65801 -2.16866,0 -3.45688,-1.32529 -1.28822,-1.33456 -1.28822,-3.55883 0,-2.19646 1.27895,-3.53102 1.27895,-1.34383 3.34567,-1.34383 2.14085,0 3.31786,1.40871 1.18627,1.39943 1.18627,3.94807 z m 0.15755,-1.37163 h 5.25483 q -0.13902,-1.18628 -0.81556,-1.81649 -0.67655,-0.63021 -1.82575,-0.63021 -1.13994,0 -1.83502,0.64875 -0.68582,0.63947 -0.7785,1.79795 z"
         id="path839" />
      <path
         d="m 127.25401,99.054888 h -1.32529 v -1.538451 h 2.99349 v 11.538383 h 1.35309 v 1.63112 h -4.34658 v -1.63112 h 1.32529 z"
         id="path841" />
      <path
         d="m 133.0649,106.55252 q 0.0371,1.21407 0.82483,1.9555 0.79703,0.73215 2.08525,0.73215 0.89898,0 1.67747,-0.42632 0.77849,-0.42631 1.26042,-1.20481 l 1.46431,0.75996 q -0.71362,1.26969 -1.83502,1.9277 -1.1214,0.65801 -2.58571,0.65801 -2.16866,0 -3.45688,-1.32529 -1.28822,-1.33456 -1.28822,-3.55883 0,-2.19646 1.27895,-3.53102 1.27895,-1.34383 3.34567,-1.34383 2.14085,0 3.31786,1.40871 1.18627,1.39943 1.18627,3.94807 z m 0.15755,-1.37163 h 5.25483 q -0.13901,-1.18628 -0.81556,-1.81649 -0.67655,-0.63021 -1.82575,-0.63021 -1.13994,0 -1.83502,0.64875 -0.68582,0.63947 -0.7785,1.79795 z"
         id="path843" />
      <path
         d="m 148.80158,104.87505 q -0.2595,-1.01019 -0.88971,-1.53845 -0.6302,-0.52826 -1.57552,-0.52826 -1.33456,0 -2.10378,0.87117 -0.76923,0.8619 -0.76923,2.37255 0,1.48284 0.75996,2.33548 0.76923,0.85263 2.08525,0.85263 0.93604,0 1.696,-0.48192 0.76923,-0.48193 1.23262,-1.37163 l 1.4643,0.71361 q -0.53753,1.3253 -1.71453,2.09452 -1.17701,0.75996 -2.67839,0.75996 -2.10378,0 -3.41054,-1.34383 -1.30676,-1.34383 -1.30676,-3.54029 0,-2.13159 1.26042,-3.50322 1.26969,-1.37163 3.21592,-1.37163 0.79703,0 1.45504,0.2595 0.66728,0.25023 1.27895,0.78776 v -0.81556 h 1.48284 v 3.44761 z"
         id="path845" />
      <path
         d="m 154.28811,108.12804 q 0,0.67655 0.15755,0.92678 0.16682,0.24096 0.58387,0.24096 0.21316,0 0.43558,-0.0556 0.2317,-0.0649 0.5468,-0.20389 v 1.61259 q -0.35217,0.14829 -0.72289,0.22243 -0.36144,0.0834 -0.73215,0.0834 -1.07506,0 -1.51065,-0.50973 -0.42631,-0.50973 -0.42631,-2.03891 v -5.44945 h -1.21408 v -1.52918 h 1.21408 v -1.24188 l 1.6682,-1.380902 v 2.622782 h 1.7238 v 1.52918 h -1.7238 z"
         id="path847" />
      <path
         d="m 157.98594,109.05482 v -6.0982 h -1.30675 v -1.52918 H 159.58 v 1.81648 q 0.48193,-1.05652 1.16774,-1.51991 0.68582,-0.47266 1.77941,-0.47266 0.15756,0 0.33364,0.009 0.17609,0 0.36145,0.009 v 1.78868 q -0.009,0 -0.0556,-0.009 -0.42632,-0.0278 -0.63948,-0.0278 -1.49211,0 -2.18719,0.85264 -0.68582,0.85264 -0.68582,2.73399 v 2.4467 h 1.65894 v 1.63112 h -4.63389 v -1.63112 z"
         id="path849" />
      <path
         d="m 168.38439,109.24017 q 1.30675,0 2.04817,-0.84337 0.74143,-0.84336 0.74143,-2.34474 0,-1.50138 -0.74143,-2.34475 -0.73215,-0.84337 -2.04817,-0.84337 -1.29749,0 -2.04818,0.85264 -0.74142,0.84337 -0.74142,2.33548 0,1.48284 0.75069,2.33548 0.75069,0.85263 2.03891,0.85263 z m 4.65242,-3.16958 q 0,2.1872 -1.28822,3.54029 -1.28822,1.34383 -3.3642,1.34383 -2.06672,0 -3.34567,-1.34383 -1.27895,-1.34383 -1.27895,-3.54029 0,-2.19646 1.27895,-3.53102 1.27895,-1.34383 3.34567,-1.34383 2.07598,0 3.3642,1.3531 1.28822,1.34383 1.28822,3.52175 z"
         id="path851" />
      <path
         d="m 175.31668,109.05482 v -6.0982 h -1.30675 v -1.52918 h 2.90081 v 1.41797 q 0.92678,-0.75069 1.68673,-1.0936 0.76923,-0.34291 1.51992,-0.34291 1.21408,0 1.71454,0.68582 0.50972,0.67655 0.50972,2.63205 v 4.32805 h 1.36237 v 1.63112 h -3.03056 v -5.27336 q 0,-1.64966 -0.2595,-2.07598 -0.25023,-0.43559 -0.91751,-0.43559 -0.60241,0 -1.21408,0.34291 -0.60241,0.34291 -1.29749,1.08433 v 4.72657 h 1.37163 v 1.63112 h -4.34658 v -1.63112 z"
         id="path853" />
    </g>
  </g>
</svg>
