<?xml version="1.0" encoding="UTF-8" standalone="no"?>
<!-- Created with Inkscape (http://www.inkscape.org/) -->

<svg
   version="1.1"
   id="svg2546"
   width="333.93597"
   height="166.43542"
   viewBox="0 0 1235.5631 615.81107"
   sodipodi:docname="fbneobw.png"
   inkscape:version="1.1.2 (0a00cf5339, 2022-02-04)"
   xmlns:inkscape="http://www.inkscape.org/namespaces/inkscape"
   xmlns:sodipodi="http://sodipodi.sourceforge.net/DTD/sodipodi-0.dtd"
   xmlns:xlink="http://www.w3.org/1999/xlink"
   xmlns="http://www.w3.org/2000/svg"
   xmlns:svg="http://www.w3.org/2000/svg">
  <defs
     id="defs2550">
    <linearGradient
       inkscape:collect="always"
       id="linearGradient23889">
      <stop
         style="stop-color:#faa229;stop-opacity:1;"
         offset="0"
         id="stop23885" />
      <stop
         style="stop-color:#faa229;stop-opacity:0;"
         offset="1"
         id="stop23887" />
    </linearGradient>
    <radialGradient
       inkscape:collect="always"
       xlink:href="#linearGradient23889"
       id="radialGradient23891"
       cx="313.83557"
       cy="250.70319"
       fx="313.83557"
       fy="250.70319"
       r="243.06274"
       gradientTransform="matrix(-0.01086402,1.4851258,-1.8170265,-0.01329345,789.90105,-200.0791)"
       gradientUnits="userSpaceOnUse" />
  </defs>
  <sodipodi:namedview
     id="namedview2548"
     pagecolor="#ffffff"
     bordercolor="#111111"
     borderopacity="1"
     inkscape:pageshadow="0"
     inkscape:pageopacity="0"
     inkscape:pagecheckerboard="1"
     showgrid="false"
     inkscape:zoom="0.46258333"
     inkscape:cx="501.53126"
     inkscape:cy="340.4792"
     inkscape:window-width="1366"
     inkscape:window-height="703"
     inkscape:window-x="0"
     inkscape:window-y="0"
     inkscape:window-maximized="1"
     inkscape:current-layer="g2552"
     scale-x="3.7"
     fit-margin-top="0"
     fit-margin-left="0"
     fit-margin-right="0"
     fit-margin-bottom="0" />
  <g
     inkscape:groupmode="layer"
     inkscape:label="FBNeo"
     id="g2552"
     transform="translate(-88.960837,-19.333333)">
    <path
       style="display:inline;fill:#961010;fill-opacity:1;stroke-width:1"
       d="m 331.03869,630.28404 c -2.41258,-5.29501 -15.72371,-14.28643 -31.99192,-21.60991 -14.26722,-6.42269 -15.98342,-6.90316 -18.64674,-5.22024 -1.61332,1.01943 -7.4191,3.35934 -12.90176,5.1998 -13.18201,4.42506 -28.42892,4.53698 -40.74945,0.29911 -9.70651,-3.33872 -12.14713,-6.28985 -5.19327,-6.27953 6.96874,0.0107 16.94416,-4.19012 23.35756,-9.83542 3.22816,-2.84154 5.63692,-5.39892 5.35279,-5.68305 -0.28413,-0.28413 -3.1602,0.49292 -6.39125,1.72679 -4.28194,1.63517 -10.21252,2.25914 -21.87466,2.3015 -15.1088,0.0549 -16.557,-0.18024 -25.99999,-4.22129 -9.9962,-4.27777 -28.00295,-16.7146 -29.06776,-20.0764 -0.44546,-1.40637 0.94045,-1.59625 6.58512,-0.90223 10.13881,1.24662 32.16799,-1.34808 43.1493,-5.0823 l 9.33333,-3.17382 -18,-0.72846 c -28.90178,-1.16966 -47.39374,-7.4475 -64.66506,-21.95318 -5.08051,-4.26696 -11.73437,-11.04776 -14.78636,-15.06842 -6.02196,-7.93331 -15.58737,-25.38264 -14.5067,-26.46331 0.36764,-0.36764 2.30862,0.62472 4.31328,2.20524 11.07197,8.7294 28.18122,16.05881 44.88177,19.22688 L 172,516.60815 v 11.02925 11.02927 h 30.66666 30.66667 V 490 441.33333 h 38.66666 38.66667 V 418 394.66667 H 271.99999 233.33333 V 373.33333 352 h 45.33333 45.33333 v -24.64419 -24.64418 l -72.33333,-0.35582 c -39.78333,-0.19569 -73.99052,-0.16526 -76.01596,0.0676 l -3.68264,0.42344 0.34931,104.5767 c 0.19211,57.51718 -0.0253,104.57664 -0.48307,104.57656 -2.78708,-4.7e-4 -13.87762,-4.95847 -24.35474,-10.88772 C 129.89925,491.16331 110.7026,471.70499 102.97379,456 97.277818,444.42576 92.908012,429.36135 91.274108,415.66667 90.770928,411.44923 90.887204,408 91.532558,408 c 0.645234,0 3.06903,4.05 5.386213,9 4.768309,10.18613 14.110569,20.43057 25.984919,28.49429 8.09375,5.49636 24.70181,13.53376 26.61252,12.87902 0.59919,-0.20532 -3.15911,-3.67331 -8.35176,-7.70664 -19.0845,-14.82368 -35.61031,-40.67922 -41.22038,-64.49155 -2.04891,-8.69673 -2.754584,-15.92748 -2.667562,-27.33333 0.141364,-18.52816 1.556963,-32.1355 3.385672,-32.54455 0.73087,-0.16348 2.02856,4.29472 2.88375,9.90712 4.34424,28.51021 14.48679,52.00247 28.60821,66.26255 5.76075,5.81732 6.27908,3.6563 1.44486,-6.02391 -8.63459,-17.29021 -15.22203,-41.52297 -16.99129,-62.50464 -0.88163,-10.45532 0.94293,-31.55291 3.45394,-39.93836 0.65879,-2.2 2.1805,-7.3 3.38158,-11.33333 3.2512,-10.91784 15.6087,-37.33334 17.46499,-37.33334 1.23558,0 1.18792,1.48707 -0.20293,6.33334 -4.35763,15.18353 -6.35581,56.73124 -3.4788,72.33333 l 1.1064,6 0.16688,-5.33004 c 0.46615,-14.88741 14.05959,-42.70668 29.71415,-60.8106 3.91568,-4.52833 9.63221,-11.12733 12.70341,-14.66444 8.71675,-10.03911 16.24015,-21.78637 22.43547,-35.03144 5.06607,-10.83083 6.70631,-15.96985 9.30823,-29.16348 0.81254,-4.12017 2.62296,-4.78905 3.9068,-1.44341 0.46923,1.22278 0.85627,9.17278 0.8601,17.66666 0.005,13.07638 -0.58356,17.48704 -3.84579,28.77675 -3.55348,12.29769 -14.47093,36.33692 -23.49184,51.72689 -2.0612,3.51647 -3.49928,6.64192 -3.19573,6.94546 0.30353,0.30353 4.54061,-4.14095 9.41573,-9.87662 4.87512,-5.73568 13.03131,-14.86113 18.12487,-20.27878 13.63024,-14.49751 19.63432,-22.0936 24.12969,-30.5278 5.41193,-10.15382 11.57803,-27.9921 13.48905,-39.02328 1.54003,-8.88971 1.07511,-34.27227 -0.79309,-43.2992 -0.86987,-4.20307 -0.762,-4.33446 3.58784,-4.37067 4.82628,-0.0401 20.43368,-6.43333 21.06652,-8.62933 1.00967,-3.50362 -35.28605,-11.38062 -54.24601,-11.77263 -6.64415,-0.13737 -10.9985,-0.78145 -11,-1.62708 -0.004,-1.91011 18.69798,-10.72824 29.33082,-13.83013 7.85946,-2.29282 23.90604,-4.90422 36,-5.858609 l 4.66667,-0.368265 -3.78629,-1.617456 c -2.08246,-0.889601 -7.37326,-4.737309 -11.75734,-8.550463 -11.28384,-9.814384 -17.00712,-20.583302 -20.00489,-37.64114 -2.61679,-14.889894 -3.1812,-30.067564 -1.11815,-30.067564 0.73334,0 1.34184,0.45 1.35223,1 0.0471,2.490116 15.21903,16.754607 23.49253,22.087378 14.41175,9.289249 20.56399,11.96969 52.51015,22.877901 44.2771,15.118693 62.99658,25.90282 79.38064,45.730488 4.07708,4.934 9.82392,13.7709 12.77078,19.63757 5.51911,10.98757 6.01984,15.19057 3.13535,26.31714 -0.77071,2.97291 -0.1388,4.57023 3.40449,8.60582 9.34964,10.64866 13.57632,25.11058 10.04291,34.36269 -2.33071,6.10285 -12.52632,16.71435 -16.05929,16.71435 -2.25243,0 -2.79811,-4.70111 -0.69646,-6 2.39658,-1.48116 1.48763,-11.37167 -1.42038,-15.4556 -4.68443,-6.57867 -31.46324,-23.88299 -33.62072,-21.72552 -0.38458,0.38457 -1.80764,0.0943 -3.16239,-0.64502 -1.35475,-0.73932 -6.00057,-2.8877 -10.32407,-4.7742 l -7.86088,-3.42997 0.81235,8.34849 c 2.67521,27.49296 17.55184,54.1637 39.57609,70.95178 15.96771,12.17145 45.67722,24.56468 65.29115,27.236 5.47679,0.7459 10.15883,1.15517 10.40452,0.90948 0.24569,-0.2457 -2.21073,-5.76468 -5.45872,-12.26442 -13.276,-26.5673 -17.06497,-40.66461 -16.80993,-62.54326 0.17856,-15.31736 1.37533,-20.43219 3.8859,-16.60776 0.72211,1.1 1.32211,3.39921 1.33334,5.10937 0.03,4.56728 6.27225,22.17243 11.66205,32.89063 5.45035,10.8386 9.8742,16.93634 26.43813,36.44173 22.56203,26.56864 32.37703,44.63435 34.89308,64.22493 l 0.94183,7.33334 L 530.96512,322 c 3.11824,-19.78971 1.17777,-56.36821 -3.72791,-70.27241 -1.0628,-3.0123 -1.66588,-5.74338 -1.34017,-6.06908 3.22949,-3.22951 16.67551,26.97188 22.41263,50.34149 2.15805,8.79063 2.7768,15.52133 2.7579,30 -0.0344,26.38984 -4.74902,46.43299 -16.57856,70.48084 -2.83562,5.76447 -5.15569,10.71955 -5.15569,11.01131 0,1.82681 6.35969,-3.99896 11.52227,-10.55492 11.2185,-14.24642 20.45622,-37.74708 23.43489,-59.61815 2.91783,-21.42432 6.42111,-11.13745 6.589,19.34759 0.11693,21.24186 -2.94536,35.57362 -11.37887,53.25325 -7.55102,15.82963 -15.6904,26.35539 -29.34337,37.94657 -6.13291,5.20676 -11.45053,9.46684 -11.81693,9.46684 -0.36639,0 -1.03963,-2.25 -1.4961,-5 -2.43408,-14.66441 -14.41592,-29.2417 -29.40128,-35.77004 -4.82696,-2.10284 -8.7694,-4.13984 -8.76098,-4.52665 0.008,-0.38683 2.42344,-1.85715 5.36672,-3.26739 7.23736,-3.4677 16.69916,-13.87394 21.04457,-23.14516 3.30371,-7.04866 3.57341,-8.93753 3.57341,-25.02657 v -17.40249 l -5.01224,-10.14158 c -6.08986,-12.322 -16.12988,-22.10498 -27.32554,-26.62598 -7.60699,-3.07183 -8.14031,-3.09696 -73.99555,-3.48572 l -66.33333,-0.39158 V 420.7254 538.90064 l 59.66667,-0.64085 c 77.07454,-0.82782 87.96049,-2.54984 102.76494,-16.25616 5.21044,-4.82394 9.53803,-7.56772 13.60469,-8.62567 14.99418,-3.90072 28.07563,-9.88301 35.10264,-16.05281 4.12411,-3.62102 7.52772,-5.10727 7.52772,-3.28712 0,0.38757 -1.88258,4.43757 -4.18353,9 -18.03668,35.76392 -53.18331,55.49636 -96.3332,54.08454 -7.66373,-0.25074 -13.67686,-0.20013 -13.36249,0.11254 0.31436,0.31262 4.91579,1.95762 10.2254,3.65558 12.34309,3.94719 31.30944,6.30367 41.98716,5.21672 10.71384,-1.09061 10.85046,0.6535 0.64709,8.26051 -15.53531,11.58215 -31.93368,17.66183 -47.49574,17.60899 -6.22467,-0.0212 -20.23836,-2.44459 -26.81802,-4.63776 -1.5778,-0.52592 -0.17458,1.46914 3.43655,4.88601 6.4308,6.08487 16.29616,10.45921 23.56345,10.44816 2.60916,-0.004 4.33334,0.66465 4.33334,1.68044 0,3.09609 -13.38112,6.76545 -26.87567,7.36981 -13.42743,0.60136 -22.86519,-1.48717 -34.35792,-7.60322 -4.44708,-2.36659 -4.72699,-2.36102 -10.66667,0.21233 -25.8432,11.19647 -35.66041,17.15105 -40.08817,24.31531 -3.35761,5.43274 -5.6828,5.9307 -7.63954,1.6361 z m 66.29463,-471.50783 c 0,-4.21652 -6.41214,-15.65833 -10.88377,-19.42096 C 380.67208,134.49384 367.4502,128 363.3295,128 c -6.15928,0 -5.634,3.83205 1.45904,10.64391 3.59964,3.45693 7.74478,8.29264 9.21145,10.74601 5.23844,8.7626 23.33333,16.04163 23.33333,9.38629 z M 512.00065,505 c 3.8e-4,-0.18333 1.29122,-3.63333 2.86855,-7.66667 2.14379,-5.48184 3.02573,-11.26184 3.49319,-22.89326 l 0.62533,-15.55994 9.36437,-4.18714 c 11.39991,-5.09731 23.59104,-13.23263 31.13576,-20.77735 6.54371,-6.54371 13.81491,-18.58917 13.83296,-22.91564 0.0143,-3.40877 2.36391,-4.03968 3.54846,-0.95279 1.28473,3.34796 -3.36119,25.58564 -7.69114,36.81356 -5.2213,13.53932 -12.80426,24.75779 -24.61434,36.41526 -9.2875,9.16746 -32.56914,24.69944 -32.56314,21.72397 z M 397.33332,463.33333 v -24.66666 h 17.93438 c 27.93584,0 35.76918,2.66318 40.87052,13.8952 4.47405,9.85089 2.72557,20.68594 -4.59123,28.45117 -5.63833,5.98388 -10.42979,6.97095 -33.88033,6.97952 L 397.33332,488 Z m 0,-91.33333 v -22.66667 l 18.33334,0.0293 c 15.13162,0.0241 19.30929,0.47237 23.92177,2.56645 10.28532,4.66957 14.13813,19.20004 8.42731,31.78263 -4.0831,8.99621 -9.68876,10.88949 -32.34908,10.92569 l -18.33334,0.0292 z"
       id="path3134"
       sodipodi:nodetypes="ssssscsssssssscsssssscccccccccccccccccccsscsssssssssssssssssssssscsssssscsssssssscsscsscsssscssssssssssssscssssssssssscssssssssssssssscssscssscccssssssssssssssssssssssssssssssscsssssssccssssccccsssscc"
       inkscape:label="FBNeo Logo Red" />
    <path
       style="display:inline;fill:url(#radialGradient23891);fill-opacity:1;stroke:#6a0000;stroke-width:4;stroke-miterlimit:4;stroke-dasharray:none;stroke-opacity:0.996078"
       d="m 331.03869,630.28404 c -2.41258,-5.29501 -15.72371,-14.28643 -31.99192,-21.60991 -14.26722,-6.42269 -15.98342,-6.90316 -18.64674,-5.22024 -1.61332,1.01943 -7.4191,3.35934 -12.90176,5.1998 -13.18201,4.42506 -28.42892,4.53698 -40.74945,0.29911 -9.70651,-3.33872 -12.14713,-6.28985 -5.19327,-6.27953 6.96874,0.0107 16.94416,-4.19012 23.35756,-9.83542 3.22816,-2.84154 5.63692,-5.39892 5.35279,-5.68305 -0.28413,-0.28413 -3.1602,0.49292 -6.39125,1.72679 -4.28194,1.63517 -10.21252,2.25914 -21.87466,2.3015 -15.1088,0.0549 -16.557,-0.18024 -25.99999,-4.22129 -9.9962,-4.27777 -28.00295,-16.7146 -29.06776,-20.0764 -0.44546,-1.40637 0.94045,-1.59625 6.58512,-0.90223 10.13881,1.24662 32.16799,-1.34808 43.1493,-5.0823 l 9.33333,-3.17382 -18,-0.72846 c -28.90178,-1.16966 -47.39374,-7.4475 -64.66506,-21.95318 -5.08051,-4.26696 -11.73437,-11.04776 -14.78636,-15.06842 -6.02196,-7.93331 -15.58737,-25.38264 -14.5067,-26.46331 0.36764,-0.36764 2.30862,0.62472 4.31328,2.20524 11.07197,8.7294 28.18122,16.05881 44.88177,19.22688 L 172,516.60815 v 11.02925 11.02927 h 30.66666 30.66667 V 490 441.33333 h 38.66666 38.66667 V 418 394.66667 H 271.99999 233.33333 V 373.33333 352 h 45.33333 45.33333 v -24.64419 -24.64418 l -72.33333,-0.35582 c -39.78333,-0.19569 -73.99052,-0.16526 -76.01596,0.0676 l -3.68264,0.42344 0.34931,104.5767 c 0.19211,57.51718 -0.0253,104.57664 -0.48307,104.57656 -2.78708,-4.7e-4 -13.87762,-4.95847 -24.35474,-10.88772 C 129.89925,491.16331 110.7026,471.70499 102.97379,456 97.277818,444.42576 92.908012,429.36135 91.274108,415.66667 90.770928,411.44923 90.887204,408 91.532558,408 c 0.645234,0 3.06903,4.05 5.386213,9 4.768309,10.18613 14.110569,20.43057 25.984919,28.49429 8.09375,5.49636 24.70181,13.53376 26.61252,12.87902 0.59919,-0.20532 -3.15911,-3.67331 -8.35176,-7.70664 -19.0845,-14.82368 -35.61031,-40.67922 -41.22038,-64.49155 -2.04891,-8.69673 -2.754584,-15.92748 -2.667562,-27.33333 0.141364,-18.52816 1.556963,-32.1355 3.385672,-32.54455 0.73087,-0.16348 2.02856,4.29472 2.88375,9.90712 4.34424,28.51021 14.48679,52.00247 28.60821,66.26255 5.76075,5.81732 6.27908,3.6563 1.44486,-6.02391 -8.63459,-17.29021 -15.22203,-41.52297 -16.99129,-62.50464 -0.88163,-10.45532 0.94293,-31.55291 3.45394,-39.93836 0.65879,-2.2 2.1805,-7.3 3.38158,-11.33333 3.2512,-10.91784 15.6087,-37.33334 17.46499,-37.33334 1.23558,0 1.18792,1.48707 -0.20293,6.33334 -4.35763,15.18353 -6.35581,56.73124 -3.4788,72.33333 l 1.1064,6 0.16688,-5.33004 c 0.46615,-14.88741 14.05959,-42.70668 29.71415,-60.8106 3.91568,-4.52833 9.63221,-11.12733 12.70341,-14.66444 8.71675,-10.03911 16.24015,-21.78637 22.43547,-35.03144 5.06607,-10.83083 6.70631,-15.96985 9.30823,-29.16348 0.81254,-4.12017 2.62296,-4.78905 3.9068,-1.44341 0.46923,1.22278 0.85627,9.17278 0.8601,17.66666 0.005,13.07638 -0.58356,17.48704 -3.84579,28.77675 -3.55348,12.29769 -14.47093,36.33692 -23.49184,51.72689 -2.0612,3.51647 -3.49928,6.64192 -3.19573,6.94546 0.30353,0.30353 4.54061,-4.14095 9.41573,-9.87662 4.87512,-5.73568 13.03131,-14.86113 18.12487,-20.27878 13.63024,-14.49751 19.63432,-22.0936 24.12969,-30.5278 5.41193,-10.15382 11.57803,-27.9921 13.48905,-39.02328 1.54003,-8.88971 1.07511,-34.27227 -0.79309,-43.2992 -0.86987,-4.20307 -0.762,-4.33446 3.58784,-4.37067 4.82628,-0.0401 20.43368,-6.43333 21.06652,-8.62933 1.00967,-3.50362 -35.28605,-11.38062 -54.24601,-11.77263 -6.64415,-0.13737 -10.9985,-0.78145 -11,-1.62708 -0.004,-1.91011 18.69798,-10.72824 29.33082,-13.83013 7.85946,-2.29282 23.90604,-4.90422 36,-5.858609 l 4.66667,-0.368265 -3.78629,-1.617456 c -2.08246,-0.889601 -7.37326,-4.737309 -11.75734,-8.550463 -11.28384,-9.814384 -17.00712,-20.583302 -20.00489,-37.64114 -2.61679,-14.889894 -3.1812,-30.067564 -1.11815,-30.067564 0.73334,0 1.34184,0.45 1.35223,1 0.0471,2.490116 15.21903,16.754607 23.49253,22.087378 14.41175,9.289249 20.56399,11.96969 52.51015,22.877901 44.2771,15.118693 62.99658,25.90282 79.38064,45.730488 4.07708,4.934 9.82392,13.7709 12.77078,19.63757 5.51911,10.98757 6.01984,15.19057 3.13535,26.31714 -0.77071,2.97291 -0.1388,4.57023 3.40449,8.60582 9.34964,10.64866 13.57632,25.11058 10.04291,34.36269 -2.33071,6.10285 -12.52632,16.71435 -16.05929,16.71435 -2.25243,0 -2.79811,-4.70111 -0.69646,-6 2.39658,-1.48116 1.48763,-11.37167 -1.42038,-15.4556 -4.68443,-6.57867 -31.46324,-23.88299 -33.62072,-21.72552 -0.38458,0.38457 -1.80764,0.0943 -3.16239,-0.64502 -1.35475,-0.73932 -6.00057,-2.8877 -10.32407,-4.7742 l -7.86088,-3.42997 0.81235,8.34849 c 2.67521,27.49296 17.55184,54.1637 39.57609,70.95178 15.96771,12.17145 45.67722,24.56468 65.29115,27.236 5.47679,0.7459 10.15883,1.15517 10.40452,0.90948 0.24569,-0.2457 -2.21073,-5.76468 -5.45872,-12.26442 -13.276,-26.5673 -17.06497,-40.66461 -16.80993,-62.54326 0.17856,-15.31736 1.37533,-20.43219 3.8859,-16.60776 0.72211,1.1 1.32211,3.39921 1.33334,5.10937 0.03,4.56728 6.27225,22.17243 11.66205,32.89063 5.45035,10.8386 9.8742,16.93634 26.43813,36.44173 22.56203,26.56864 32.37703,44.63435 34.89308,64.22493 l 0.94183,7.33334 L 530.96512,322 c 3.11824,-19.78971 1.17777,-56.36821 -3.72791,-70.27241 -1.0628,-3.0123 -1.66588,-5.74338 -1.34017,-6.06908 3.22949,-3.22951 16.67551,26.97188 22.41263,50.34149 2.15805,8.79063 2.7768,15.52133 2.7579,30 -0.0344,26.38984 -4.74902,46.43299 -16.57856,70.48084 -2.83562,5.76447 -5.15569,10.71955 -5.15569,11.01131 0,1.82681 6.35969,-3.99896 11.52227,-10.55492 11.2185,-14.24642 20.45622,-37.74708 23.43489,-59.61815 2.91783,-21.42432 6.42111,-11.13745 6.589,19.34759 0.11693,21.24186 -2.94536,35.57362 -11.37887,53.25325 -7.55102,15.82963 -15.6904,26.35539 -29.34337,37.94657 -6.13291,5.20676 -11.45053,9.46684 -11.81693,9.46684 -0.36639,0 -1.03963,-2.25 -1.4961,-5 -2.43408,-14.66441 -14.41592,-29.2417 -29.40128,-35.77004 -4.82696,-2.10284 -8.7694,-4.13984 -8.76098,-4.52665 0.008,-0.38683 2.42344,-1.85715 5.36672,-3.26739 7.23736,-3.4677 16.69916,-13.87394 21.04457,-23.14516 5.89397,-16.45142 4.61564,-40.20084 -1.43883,-52.57064 -6.08986,-12.322 -16.12988,-22.10498 -27.32554,-26.62598 -7.60699,-3.07183 -8.14031,-3.09696 -73.99555,-3.48572 l -66.33333,-0.39158 V 420.7254 538.90064 l 59.66667,-0.64085 c 77.07454,-0.82782 87.96049,-2.54984 102.76494,-16.25616 5.21044,-4.82394 9.53803,-7.56772 13.60469,-8.62567 14.99418,-3.90072 28.07563,-9.88301 35.10264,-16.05281 4.12411,-3.62102 7.52772,-5.10727 7.52772,-3.28712 0,0.38757 -1.88258,4.43757 -4.18353,9 -18.03668,35.76392 -53.18331,55.49636 -96.3332,54.08454 -7.66373,-0.25074 -13.67686,-0.20013 -13.36249,0.11254 0.31436,0.31262 4.91579,1.95762 10.2254,3.65558 12.34309,3.94719 31.30944,6.30367 41.98716,5.21672 10.71384,-1.09061 10.85046,0.6535 0.64709,8.26051 -15.53531,11.58215 -31.93368,17.66183 -47.49574,17.60899 -6.22467,-0.0212 -20.23836,-2.44459 -26.81802,-4.63776 -1.5778,-0.52592 -0.17458,1.46914 3.43655,4.88601 6.4308,6.08487 16.29616,10.45921 23.56345,10.44816 2.60916,-0.004 4.33334,0.66465 4.33334,1.68044 0,3.09609 -13.38112,6.76545 -26.87567,7.36981 -13.42743,0.60136 -22.86519,-1.48717 -34.35792,-7.60322 -4.44708,-2.36659 -4.72699,-2.36102 -10.66667,0.21233 -25.8432,11.19647 -35.66041,17.15105 -40.08817,24.31531 -3.35761,5.43274 -5.6828,5.9307 -7.63954,1.6361 z m 66.29463,-471.50783 c 0,-4.21652 -6.41214,-15.65833 -10.88377,-19.42096 C 380.67208,134.49384 367.4502,128 363.3295,128 c -6.15928,0 -5.634,3.83205 1.45904,10.64391 3.59964,3.45693 7.74478,8.29264 9.21145,10.74601 5.23844,8.7626 23.33333,16.04163 23.33333,9.38629 z M 512.00065,505 c 3.8e-4,-0.18333 1.29122,-3.63333 2.86855,-7.66667 2.14379,-5.48184 3.02573,-11.26184 3.49319,-22.89326 l 0.62533,-15.55994 9.36437,-4.18714 c 11.39991,-5.09731 23.59104,-13.23263 31.13576,-20.77735 6.54371,-6.54371 13.81491,-18.58917 13.83296,-22.91564 0.0143,-3.40877 2.36391,-4.03968 3.54846,-0.95279 1.28473,3.34796 -3.36119,25.58564 -7.69114,36.81356 -5.2213,13.53932 -12.80426,24.75779 -24.61434,36.41526 -9.2875,9.16746 -32.56914,24.69944 -32.56314,21.72397 z M 397.33332,463.33333 v -24.66666 h 17.93438 c 27.93584,0 35.76918,2.66318 40.87052,13.8952 4.47405,9.85089 2.72557,20.68594 -4.59123,28.45117 -5.63833,5.98388 -10.42979,6.97095 -33.88033,6.97952 L 397.33332,488 Z m 0,-91.33333 v -22.66667 l 18.33334,0.0293 c 15.13162,0.0241 19.30929,0.47237 23.92177,2.56645 10.28532,4.66957 14.13813,19.20004 8.42731,31.78263 -4.0831,8.99621 -9.68876,10.88949 -32.34908,10.92569 l -18.33334,0.0292 z"
       id="path16607"
       sodipodi:nodetypes="ssssscsssssssscsssssscccccccccccccccccccsscsssssssssssssssssssssscsssssscsssssssscsscsscsssscssssssssssssscssssssssssscssssssssssssssscsccsscccssssssssssssssssssssssssssssssscsssssssccssssccccsssscc"
       inkscape:label="FBNeo Logo Orange" />
    <path
       style="display:inline;fill:#961010;fill-opacity:1;stroke:#220000;stroke-width:4;stroke-miterlimit:4;stroke-dasharray:none;stroke-opacity:1"
       d="m 1175.3333,544.50147 c -2.2,-0.33315 -9.0852,-1.52695 -15.3005,-2.6529 -43.2052,-7.82694 -75.0593,-37.62578 -86.781,-81.1819 -3.6496,-13.56146 -5.0801,-49.48722 -2.636,-66.20224 9.5319,-65.189 60.2945,-103.18714 132.7175,-99.34507 51.6512,2.74012 86.8711,22.65724 105.2976,59.54667 5.7241,11.45961 8.1672,19.19732 11.3727,36.01958 6.4577,33.89004 0.01,77.39074 -15.1878,102.4022 -10.3297,17.0045 -28.4266,32.81363 -47.0188,41.07476 -16.3673,7.27259 -31.1662,10.06338 -55.797,10.5223 -12.4667,0.23226 -24.4667,0.14974 -26.6667,-0.1834 z m 42.1632,-60.0858 c 19.3411,-8.72996 27.864,-28.81106 27.8137,-65.53296 -0.037,-26.90934 -4.7176,-42.46804 -16.0988,-53.51315 -17.2442,-16.73492 -48.0873,-17.39735 -65.5816,-1.40855 -12.1937,11.14435 -16.8448,24.48063 -17.9166,51.37232 -1.5865,39.80696 9.3423,62.98976 33.3857,70.81958 8.5305,2.77801 30.607,1.77918 38.3976,-1.73724 z M 603.99999,420 V 298.66667 l 35.66666,0.0397 35.66667,0.0397 13.37657,19.62691 c 7.35711,10.7948 27.75711,40.58731 45.33333,66.20559 l 31.95676,46.57868 0.34579,-66.26711 0.3458,-66.26709 35.6542,0.35508 35.65421,0.35514 0.34039,121 0.34038,121 -36.34038,-0.0495 -36.34039,-0.0495 -14.71019,-21.61717 c -8.09061,-11.88946 -28.19061,-41.1955 -44.66666,-65.12452 l -29.95648,-43.50738 -0.34589,65.174 -0.34591,65.174 h -35.98743 -35.98743 z m 255.99999,0 V 298.66667 H 961.33331 1062.6666 V 325.33333 352 h -63.33329 -63.33333 v 18.69312 18.69311 l 58.33333,-0.0823 58.33329,-0.0823 0.3628,24.72243 0.3627,24.72255 H 994.69607 935.99998 V 462 485.33333 h 64.66662 64.6667 v 28 28 H 962.66664 859.99998 Z"
       id="path2935"
       sodipodi:nodetypes="ssssssscssssssssssccccsscccccccccssccccccccccccccccccccccccccccccc"
       inkscape:label="Neo" />
  </g>
</svg>
