<?xml version="1.0" encoding="UTF-8" standalone="no"?>
<svg
   width="616.104"
   height="155.53999"
   version="1.1"
   id="svg839"
   sodipodi:docname="flatpak.svg"
   viewBox="0 0 308.052 77.769997"
   inkscape:version="1.1.2 (0a00cf5339, 2022-02-04)"
   xmlns:inkscape="http://www.inkscape.org/namespaces/inkscape"
   xmlns:sodipodi="http://sodipodi.sourceforge.net/DTD/sodipodi-0.dtd"
   xmlns="http://www.w3.org/2000/svg"
   xmlns:svg="http://www.w3.org/2000/svg">
  <defs
     id="defs843" />
  <sodipodi:namedview
     id="namedview841"
     pagecolor="#ffffff"
     bordercolor="#111111"
     borderopacity="1"
     inkscape:pageshadow="0"
     inkscape:pageopacity="0"
     inkscape:pagecheckerboard="1"
     showgrid="false"
     fit-margin-top="0"
     fit-margin-left="0.3"
     fit-margin-right="0"
     fit-margin-bottom="0"
     inkscape:zoom="2.7975"
     inkscape:cx="62.198391"
     inkscape:cy="-33.422699"
     inkscape:window-width="1366"
     inkscape:window-height="703"
     inkscape:window-x="0"
     inkscape:window-y="0"
     inkscape:window-maximized="1"
     inkscape:current-layer="svg839" />
  <g
     fill="#ffffff"
     color="#000000"
     id="g837"
     transform="translate(-45.899,-36.115)">
    <path
       style="isolation:auto;mix-blend-mode:normal;solid-color:#000000;solid-opacity:1;marker:none"
       d="m 79.756,36.115 -33.574,19.47 -0.133,38.83 33.87,19.47 33.87,-19.437 -0.148,-38.864 z m 0,3.087 v 28.111 l 3.949,2.37 -3.949,2.284 L 51.335,55.47 Z m 31.555,18.085 0.105,35.798 -29.981,16.888 V 74.314 Z"
       overflow="visible"
       id="path831" />
    <g
       stroke-width="0.701"
       font-weight="400"
       font-size="28.467px"
       font-family="Overpass"
       letter-spacing="0"
       word-spacing="0"
       id="g835">
      <path
         d="M 130.394,94.057 V 56.268 h 23.434 v 5.297 h -17.82 V 71.92 h 11.52 v 5.297 h -11.52 v 16.839 z m 30.156,0 V 56.268 h 5.614 v 32.387 h 18.478 v 5.402 z m 56.04,0 -3.005,-8.696 h -15.289 l -3.084,8.696 h -5.825 l 13.654,-37.789 h 5.773 l 13.602,37.789 z m -9.331,-26.51 q -0.317,-0.896 -0.712,-2.082 -0.369,-1.186 -0.58,-2.161 -0.263,0.975 -0.632,2.16 -0.343,1.16 -0.66,2.083 l -4.665,12.86 h 11.835 z M 239.075,61.67 V 94.057 H 233.46 V 61.67 h -10.702 v -5.402 h 26.993 v 5.402 z m 17.951,32.387 V 56.268 h 15.183 q 3.48,0 5.852,1.028 2.399,1.001 3.849,2.635 1.476,1.634 2.108,3.716 0.66,2.055 0.66,4.19 0,1.317 -0.317,2.687 -0.29,1.37 -0.923,2.662 -0.632,1.265 -1.634,2.398 -1.002,1.133 -2.399,1.976 -1.37,0.844 -3.163,1.344 -1.792,0.475 -4.033,0.475 h -9.568 v 14.678 z m 15.5,-20.08 q 1.766,0 2.952,-0.554 1.212,-0.553 1.95,-1.423 0.765,-0.896 1.081,-1.976 0.343,-1.107 0.343,-2.187 0,-1.002 -0.29,-2.082 -0.29,-1.08 -1.002,-1.977 -0.711,-0.922 -1.95,-1.502 -1.213,-0.606 -3.084,-0.606 h -9.885 v 12.307 z m 38.959,20.08 -3.005,-8.696 h -15.288 l -3.085,8.696 h -5.825 l 13.654,-37.789 h 5.773 l 13.602,37.789 z m -9.331,-26.51 q -0.316,-0.896 -0.712,-2.082 -0.369,-1.186 -0.58,-2.161 -0.263,0.975 -0.632,2.16 -0.343,1.16 -0.66,2.083 l -4.665,12.86 h 11.835 z m 45.206,26.51 -10.649,-19.764 -6.695,8.116 v 11.648 h -5.615 V 56.268 h 5.615 v 18.315 l 14.577,-18.315 h 6.485 l -10.57,13.281 13.443,24.508 z"
         style="line-height:125%;-inkscape-font-specification:'Overpass, Normal';text-indent:0;text-align:start;text-decoration-line:none;text-transform:none;marker:none"
         id="path833" />
    </g>
  </g>
</svg>
