<?xml version="1.0" encoding="UTF-8" standalone="no"?>
<svg
   id="svg"
   version="1.1"
   width="400"
   height="190.47619047619048"
   viewBox="0 0 400 190.47619047619048"
   sodipodi:docname="fm7.svg"
   inkscape:version="1.1.2 (0a00cf5339, 2022-02-04)"
   xmlns:inkscape="http://www.inkscape.org/namespaces/inkscape"
   xmlns:sodipodi="http://sodipodi.sourceforge.net/DTD/sodipodi-0.dtd"
   xmlns="http://www.w3.org/2000/svg"
   xmlns:svg="http://www.w3.org/2000/svg">
  <defs
     id="defs11" />
  <sodipodi:namedview
     id="namedview9"
     pagecolor="#ffffff"
     bordercolor="#111111"
     borderopacity="1"
     inkscape:pageshadow="0"
     inkscape:pageopacity="0"
     inkscape:pagecheckerboard="1"
     showgrid="false"
     inkscape:zoom="0.81113984"
     inkscape:cx="218.21145"
     inkscape:cy="128.83105"
     inkscape:window-width="1366"
     inkscape:window-height="703"
     inkscape:window-x="0"
     inkscape:window-y="0"
     inkscape:window-maximized="1"
     inkscape:current-layer="svg" />
  <g
     transform="matrix(0.45645455,0,0,0.46798775,-104.36852,-327.63464)"
     id="layer1"
     style="display:inline;stroke-width:2.16361"
     sodipodi:insensitive="true"
     inkscape:label="Fujitsu">
    <g
       transform="matrix(4.2524486,0,0,-4.2524486,426.90617,839.40721)"
       id="g5598"
       style="stroke-width:2.16361">
      <path
         id="path5600"
         style="fill:#e60012;fill-opacity:1;fill-rule:nonzero;stroke:none;stroke-width:2.16361"
         d="M 0,0 H 5.93 C 7.054,0 8.104,-0.821 8.161,-1.909 H 8.215 V 2.562 H 0 l -0.004,7.848 h 7.926 c 1.129,0 2.18,-0.818 2.239,-1.903 h 0.052 l -0.008,4.474 -16.633,-0.007 v -0.049 c 1.12,-0.061 1.96,-1.247 1.96,-2.355 V -9.989 c 0,-1.104 -0.84,-2.295 -1.96,-2.358 v -0.048 h 8.392 v 0.048 c -1.121,0.063 -1.968,1.254 -1.968,2.358 z" />
    </g>
    <g
       transform="matrix(4.2524486,0,0,-4.2524486,499.9284,863.10481)"
       id="g5602"
       style="stroke-width:2.16361">
      <path
         id="path5604"
         style="fill:#e60012;fill-opacity:1;fill-rule:nonzero;stroke:none;stroke-width:2.16361"
         d="m 0,0 c 0,-2.638 2.2,-4.919 4.915,-4.919 2.712,0 4.92,2.311 4.92,4.95 v 16.112 c 0,1.108 -0.843,2.294 -1.966,2.355 v 0.048 l 8.398,0.008 v -0.056 c -1.121,-0.061 -1.97,-1.247 -1.97,-2.355 V 0.487 c 0,-5.039 -4.178,-7.975 -9.36,-7.975 -5.191,0 -9.414,2.936 -9.414,7.975 l 0.011,15.656 c 0,1.108 -0.847,2.294 -1.962,2.355 v 0.056 H 1.958 V 18.498 C 0.84,18.431 -0.004,17.244 -0.004,16.143 Z" />
    </g>
    <g
       transform="matrix(4.2524486,0,0,-4.2524486,791.71951,801.67904)"
       id="g5606"
       style="stroke-width:2.16361">
      <path
         id="path5608"
         style="fill:#e60012;fill-opacity:1;fill-rule:nonzero;stroke:none;stroke-width:2.16361"
         d="m 0,0 c -1.407,2.267 -4.618,1.994 -4.618,1.994 -5.252,0 -5.004,-3.995 -5.004,-3.995 0,0 -0.361,-2.004 2.278,-3.371 l 5.251,-2.782 c 5.069,-2.712 4.468,-6.566 4.468,-6.566 0,0 0.229,-7.2 -10.372,-7.2 0,0 -3.08,-0.094 -4.824,0.558 l -1.492,4.663 h 0.052 c 1.615,-2.322 6.307,-2.657 6.307,-2.657 5.957,0.261 5.998,4.297 5.998,4.297 0,0 0.268,1.738 -2.064,2.997 l -5.226,2.781 c -5.456,2.907 -4.831,6.822 -4.831,6.822 0,0 -0.129,7.083 9.25,7.083 0,0 4.21,-0.108 4.881,-0.763 L 0.054,0 Z" />
    </g>
    <g
       transform="matrix(4.2524486,0,0,-4.2524486,617.71354,746.68978)"
       id="g5610"
       style="stroke-width:2.16361">
      <path
         id="path5612"
         style="fill:#e60012;fill-opacity:1;fill-rule:nonzero;stroke:none;stroke-width:2.16361"
         d="m 0,0 c 0.93,-0.91 2.228,-1.469 3.645,-1.469 2.855,0 5.166,2.246 5.166,5.022 0,2.768 -2.311,5.018 -5.166,5.018 0,0 -3.977,0.367 -5.767,-4.581 l 0.006,3.714 c 1.332,1.695 3.394,2.927 5.761,2.927 4.028,0 7.287,-3.166 7.287,-7.078 0,-3.906 -3.259,-7.084 -7.287,-7.084 -2.012,0 -3.832,0.789 -5.147,2.076 l -2.506,2.739 c -0.687,0.667 -1.632,1.073 -2.668,1.073 -2.087,0 -3.779,-1.64 -3.779,-3.666 0,-2.034 1.692,-3.678 3.779,-3.678 0,0 2.791,-0.364 4.554,2.999 l 0.006,-2.974 c -1.08,-1.274 -2.729,-2.087 -4.56,-2.087 -3.258,0 -5.904,2.57 -5.904,5.74 0,3.164 2.646,5.728 5.904,5.728 1.623,0 3.097,-0.634 4.167,-1.68 z" />
    </g>
    <g
       transform="matrix(4.2524486,0,0,-4.2524486,623.42376,794.2313)"
       id="g5614"
       style="stroke-width:2.16361">
      <path
         id="path5616"
         style="fill:#e60012;fill-opacity:1;fill-rule:nonzero;stroke:none;stroke-width:2.16361"
         d="M 0,0 C 0,1.109 -0.844,2.245 -1.963,2.302 V 2.35 H 6.416 V 2.302 C 5.304,2.24 4.456,1.103 4.456,0 v -20.603 c 0,-1.106 0.848,-2.296 1.96,-2.362 v -0.047 h -8.379 v 0.047 C -0.844,-22.899 0,-21.709 0,-20.603 Z" />
    </g>
    <g
       transform="matrix(4.2524486,0,0,-4.2524486,601.04863,794.45924)"
       id="g5618"
       style="stroke-width:2.16361">
      <path
         id="path5620"
         style="fill:#e60012;fill-opacity:1;fill-rule:nonzero;stroke:none;stroke-width:2.16361"
         d="M 0,0 C 0,1.108 0.842,2.294 1.962,2.355 V 2.404 H -6.43 V 2.355 C -5.307,2.294 -4.469,1.108 -4.469,0 l 0.007,-25.757 c 0,0 -0.094,-4.548 -3.758,-7.165 l 0.009,-0.05 c 0.723,0.118 8.217,1.501 8.217,8.74 z" />
    </g>
    <g
       transform="matrix(4.2524486,0,0,-4.2524486,650.57479,803.64538)"
       id="g5622"
       style="stroke-width:2.16361">
      <path
         id="path5624"
         style="fill:#e60012;fill-opacity:1;fill-rule:nonzero;stroke:none;stroke-width:2.16361"
         d="m 0,0 h 0.05 c 1.136,1.977 2.888,2 2.888,2 h 4.543 l 0.003,-20.399 c 0,-1.104 -0.845,-2.286 -1.964,-2.352 v -0.047 h 8.403 v 0.047 c -1.128,0.066 -1.976,1.256 -1.976,2.352 L 11.953,2 15.75,2.009 c 1.153,0 2.066,-0.894 2.099,-2.009 h 0.046 L 19.29,4.572 H 1.399 Z" />
    </g>
    <g
       transform="matrix(4.2524486,0,0,-4.2524486,828.40535,863.10481)"
       id="g5626"
       style="stroke-width:2.16361">
      <path
         id="path5628"
         style="fill:#e60012;fill-opacity:1;fill-rule:nonzero;stroke:none;stroke-width:2.16361"
         d="m 0,0 c 0,-2.638 2.2,-4.919 4.916,-4.919 2.709,0 4.919,2.311 4.919,4.95 v 16.112 c 0,1.108 -0.844,2.294 -1.962,2.355 v 0.048 l 8.392,0.008 V 18.498 C 15.152,18.437 14.304,17.251 14.304,16.143 V 0.487 c 0,-5.039 -4.18,-7.975 -9.37,-7.975 -5.181,0 -9.405,2.936 -9.405,7.975 l 0.006,15.656 c 0,1.108 -0.845,2.294 -1.966,2.355 v 0.056 H 1.963 V 18.498 C 0.839,18.431 -0.006,17.244 -0.006,16.143 Z" />
    </g>
  </g>
  <g
     id="g1876"
     transform="translate(4.7973114,57.234099)"
     style="display:inline;fill:#545454;fill-opacity:1"
     sodipodi:insensitive="true"
     inkscape:label="FM-7">
    <g
       id="g1862"
       style="display:inline;fill:#545454;fill-opacity:1;stroke-width:0.778237"
       transform="matrix(1.2757325,0,0,1.2942447,-16.632235,37.208728)">
      <polygon
         points="46.5,58 46.5,68 11.5,68 11.5,58 19.5,58 19.5,19 12.5,19 12.5,7 84.5,7 84.5,32 69.5,32 69.5,19 38.5,19 38.5,34 60.5,34 60.5,46 38.5,46 38.5,58 "
         id="polygon1854"
         style="fill:#545454;fill-opacity:1;stroke-width:0.778237" />
      <path
         d="M 97.5,57 V 18 h -7 V 7 h 26.66 L 134.13,41.9 151.84,7 h 28.66 v 11 h -7 l -0.01,38.99 6.01,0.02 V 68 h -32 V 57 l 6,-0.01 -0.04,-23.44 -17.3,34.45 h -8.32 L 109.55,32.7 c -0.12,7.76 -0.02,16.53 -0.05,24.29 2,0.01 4,0.01 6,0.02 0,3.66 0,7.33 0,10.99 h -25 V 57 Z"
         id="path1856"
         style="fill:#545454;fill-opacity:1;stroke-width:0.778237" />
      <rect
         x="187.5"
         y="32"
         width="31"
         height="11"
         id="rect1858"
         style="fill:#545454;fill-opacity:1;stroke-width:0.778237" />
      <path
         d="m 258.63,22.05 c -3.81,0.56 -5.51,4.47 -5.28,7.96 L 241.5,30 V 8 h 69 c 0,4.56 0,9.11 0,13.67 -6.54,1.89 -11.25,6.33 -15.21,12.13 -6.39,10.15 -8.97,22.33 -8.79,34.19 -7.72,0 -15.44,0.04 -23.15,-0.02 1.32,-8.64 3.25,-17.28 6.85,-25.28 2.8,-5.19 7.76,-11.52 13.26,-15.71 2.37,-1.83 4.415,-3.48 7.46,-4.91 z"
         id="path1860"
         style="fill:#545454;fill-opacity:1;stroke-width:0.778237" />
    </g>
    <rect
       style="opacity:0.98;fill:none;fill-opacity:1;stroke:#545454;stroke-width:3;stroke-miterlimit:4;stroke-dasharray:none;stroke-opacity:1"
       id="rect2096"
       width="112.54645"
       height="87.666069"
       x="279.40067"
       y="42.33271" />
  </g>
</svg>
