<?xml version="1.0" encoding="UTF-8" standalone="no"?>
<!-- Created with Inkscape (http://www.inkscape.org/) -->

<svg
   version="1.1"
   id="svg30761"
   width="443"
   height="152.23145"
   viewBox="0 0 443 152.23145"
   sodipodi:docname="fmtowns.svg"
   inkscape:version="1.1.2 (0a00cf5339, 2022-02-04)"
   xmlns:inkscape="http://www.inkscape.org/namespaces/inkscape"
   xmlns:sodipodi="http://sodipodi.sourceforge.net/DTD/sodipodi-0.dtd"
   xmlns="http://www.w3.org/2000/svg"
   xmlns:svg="http://www.w3.org/2000/svg">
  <defs
     id="defs30765" />
  <sodipodi:namedview
     id="namedview30763"
     pagecolor="#ffffff"
     bordercolor="#111111"
     borderopacity="1"
     inkscape:pageshadow="0"
     inkscape:pageopacity="0"
     inkscape:pagecheckerboard="1"
     showgrid="false"
     inkscape:zoom="1.2576087"
     inkscape:cx="215.48833"
     inkscape:cy="1.9878997"
     inkscape:window-width="1366"
     inkscape:window-height="703"
     inkscape:window-x="0"
     inkscape:window-y="0"
     inkscape:window-maximized="1"
     inkscape:current-layer="g30767"
     fit-margin-top="0"
     fit-margin-left="0"
     fit-margin-right="0"
     fit-margin-bottom="0" />
  <g
     inkscape:groupmode="layer"
     inkscape:label="FM Towns Marty"
     id="g30767"
     transform="translate(-8,-8.7685571)">
    <path
       style="display:inline;fill:#4566ff;stroke:none"
       d="M 8,129 33.581,127.821 40.3997,113 57,74 h 1 v 39 c 0,3.731 -1.4234,11.302 1.0278,14.397 2.8777,3.633 16.4304,2.324 19.3349,-0.715 C 81.9586,122.92 83.9441,116.618 86.2469,112 91.7413,100.983 98.7574,88.8508 102,77 h 1 v 35 c 0,4.155 -1.268,10.878 0.603,14.682 2.128,4.324 21.645,4 23.079,-0.83 C 128.401,120.061 127,112.021 127,106 V 63 c 0,-6.4072 1.881,-16.4963 -2.514,-21.7863 C 119.157,34.7994 105.129,35.5709 99.0432,40.419 90.0757,47.563 83.3763,65.544 79,76 75.9584,65.7099 80.8156,48.9274 73.436,40.2785 67.6033,33.4427 50.8697,36.2227 46.3241,43.044 37.6081,56.1233 32.7296,72.6007 26.5725,87 20.678,100.785 12.1417,114.623 8,129 M 142,39 c -0.2,4.6656 -3.953,15.5366 -0.968,19.3966 1.956,2.5301 7.195,1.6032 9.968,1.6034 7.184,5e-4 22.723,-2.8987 28.567,1.858 C 183.705,65.2255 184.589,75.9636 185,81 181.993,77.5249 177.719,68.7854 172.91,67.9938 168,67.1857 160.805,73.1191 157,75.6705 143.169,84.9445 128.396,98.8446 136.133,116.985 143.727,134.79 174.785,129 190,129 c 5.546,0 15.094,1.673 19.486,-2.564 4.766,-4.598 2.207,-14.717 1.564,-20.436 -1.721,-15.3212 -3.493,-30.912 -6.711,-46 -1.486,-6.9674 -2.711,-14.1286 -9.343,-18.142 C 182.219,34.1258 156.48,39 142,39 m 162,0 c 0,4.7176 -2.368,18.8269 1.603,21.9722 C 309.454,64.0218 320.25,62 325,62 v 48 c 0,4.513 -1.895,14.706 1.028,18.397 2.821,3.562 22.262,3.145 23.654,-1.545 C 351.484,120.783 350,112.314 350,106 V 62 c 4.75,0 15.546,2.0218 19.397,-1.0278 C 373.368,57.8269 371,43.7176 371,39 h -67 m 71,0 c 0,27.0527 5.277,50.1204 35,57 -6.136,13.942 -20.223,11 -33,11 0,5.132 -2.249,17.259 1.028,21.397 2.233,2.819 8.821,1.603 11.972,1.603 12.451,0 23.77,0.974 32.895,-9.004 5.507,-6.021 7.318,-13.672 10.388,-20.996 7.637,-18.2166 16.1,-40.2037 17.717,-60 -5.415,0 -19.153,-2.4729 -23.157,1.6034 -7.226,7.3571 -2.623,25.6036 -11.782,31.4645 -3.229,2.0661 -8.673,-2.2482 -10.836,-4.3966 C 398.492,61.9844 398.184,47.9194 398,39 h -23 m -154,1 v 62 c 0,6.627 -2.343,18.694 0.603,24.682 1.928,3.917 18.866,3.917 20.794,0 C 246.939,117.451 243,97.322 243,87 h 1 c 13.614,26.704 36.965,52.965 58,74 h 1 l 17,-17 v -1 C 303.666,126.666 286.191,110.826 274,91 291.05,82.5183 315.735,52.7618 286,41.4028 279.29,38.8395 271.054,40 264,40 h -43 m 22,44 V 60 c 6.318,0 23.751,-3.0276 28.381,1.7423 3.114,3.2076 -0.955,7.7931 -3.425,9.868 C 261.219,77.2692 251.436,81.6927 243,84 m -57,0 c 0.218,5.0885 5.02,19.311 0.397,22.972 -3.565,2.823 -27.53,2.832 -27.53,-3.081 0,-9.5038 20.276,-16.2829 27.133,-19.891 z"
       id="path30900"
       sodipodi:nodetypes="cccccscccccsccsscccccccccscccccsccscccccsccsccccccccscccccccccscccccccccssccccccccsc"
       inkscape:label="Marty" />
    <text
       xml:space="preserve"
       style="font-style:normal;font-variant:normal;font-weight:normal;font-stretch:normal;font-size:33.3897px;line-height:1.25;font-family:Ornitons-Regular;-inkscape-font-specification:Ornitons-Regular;display:inline;fill:#4566ff;fill-opacity:1;stroke-width:0.999997"
       x="145.44188"
       y="32.531624"
       id="text2848"
       transform="scale(0.96454279,1.0367606)"
       inkscape:label="FM"><tspan
         sodipodi:role="line"
         id="tspan2846"
         x="145.44188"
         y="32.531624"
         style="font-style:normal;font-variant:normal;font-weight:normal;font-stretch:normal;font-size:33.3897px;font-family:Ornitons-Bold;-inkscape-font-specification:Ornitons-Bold;fill:#4566ff;fill-opacity:1;stroke-width:0.999997">FM</tspan></text>
    <text
       xml:space="preserve"
       style="font-size:35.5301px;line-height:1.25;font-family:TrasksHand;-inkscape-font-specification:TrasksHand;display:inline;fill:#4566ff;fill-opacity:1;stroke-width:1"
       x="199.12097"
       y="34.932045"
       id="text16120"
       transform="scale(1.0017464,0.99825663)"
       inkscape:label="Towns"><tspan
         sodipodi:role="line"
         id="tspan16118"
         x="199.12097"
         y="34.932045"
         style="font-style:normal;font-variant:normal;font-weight:normal;font-stretch:normal;font-size:35.5301px;font-family:Ornitons-Bold;-inkscape-font-specification:Ornitons-Bold;fill:#4566ff;fill-opacity:1;stroke-width:1">TOWNS</tspan></text>
  </g>
</svg>
