<?xml version="1.0" encoding="UTF-8" standalone="no"?>
<!-- Created with Inkscape (http://www.inkscape.org/) -->

<svg
   version="1.1"
   id="svg870"
   width="454.15353"
   height="162.6853"
   viewBox="0 0 272.49212 97.611182"
   sodipodi:docname="gaelco.svg"
   inkscape:version="1.1.2 (0a00cf5339, 2022-02-04)"
   xmlns:inkscape="http://www.inkscape.org/namespaces/inkscape"
   xmlns:sodipodi="http://sodipodi.sourceforge.net/DTD/sodipodi-0.dtd"
   xmlns="http://www.w3.org/2000/svg"
   xmlns:svg="http://www.w3.org/2000/svg">
  <defs
     id="defs874" />
  <sodipodi:namedview
     id="namedview872"
     pagecolor="#ffffff"
     bordercolor="#111111"
     borderopacity="1"
     inkscape:pageshadow="0"
     inkscape:pageopacity="0"
     inkscape:pagecheckerboard="1"
     showgrid="false"
     fit-margin-top="0"
     fit-margin-left="0"
     fit-margin-right="0"
     fit-margin-bottom="0"
     scale-x="1.1"
     inkscape:zoom="1.4142136"
     inkscape:cx="62.932502"
     inkscape:cy="126.92566"
     inkscape:window-width="1366"
     inkscape:window-height="703"
     inkscape:window-x="0"
     inkscape:window-y="0"
     inkscape:window-maximized="1"
     inkscape:current-layer="g876"
     showguides="true"
     inkscape:guide-bbox="true">
    <sodipodi:guide
       position="105.2092,61.827034"
       orientation="0,-1"
       id="guide826" />
  </sodipodi:namedview>
  <g
     inkscape:groupmode="layer"
     inkscape:label="Image"
     id="g876"
     transform="translate(-11.065235,-10.764701)">
    <text
       xml:space="preserve"
       style="font-size:61.9612px;line-height:1.25;font-family:Harry;-inkscape-font-specification:Harry;display:inline;fill:#ffffff;fill-opacity:1;stroke:#000000;stroke-width:1;stroke-miterlimit:4;stroke-dasharray:none;stroke-opacity:1"
       x="14.074637"
       y="93.456261"
       id="text13894"
       transform="scale(0.94674385,1.0562519)"
       inkscape:label="g"><tspan
         sodipodi:role="line"
         id="tspan13892"
         x="14.074637"
         y="93.456261"
         style="font-style:normal;font-variant:normal;font-weight:normal;font-stretch:normal;font-size:61.9612px;font-family:'Crillee Extra Bold Italic Std';-inkscape-font-specification:'Crillee Extra Bold Italic Std';fill:#ffffff;fill-opacity:1;stroke:#000000;stroke-width:1;stroke-miterlimit:4;stroke-dasharray:none;stroke-opacity:1">g</tspan></text>
    <text
       xml:space="preserve"
       style="font-size:60.4642px;line-height:1.25;font-family:Harry;-inkscape-font-specification:Harry;display:inline;fill:#ffffff;fill-opacity:1;stroke:#000000;stroke-width:1;stroke-miterlimit:4;stroke-dasharray:none;stroke-opacity:1"
       x="50.589703"
       y="93.660942"
       id="text2502"
       transform="scale(0.96253663,1.0389215)"
       inkscape:label="aelco"><tspan
         sodipodi:role="line"
         id="tspan2500"
         x="50.589703"
         y="93.660942"
         style="font-style:normal;font-variant:normal;font-weight:normal;font-stretch:normal;font-size:60.4642px;font-family:'Crillee Extra Bold Italic Std';-inkscape-font-specification:'Crillee Extra Bold Italic Std';fill:#ffffff;fill-opacity:1;stroke:#000000;stroke-width:1;stroke-miterlimit:4;stroke-dasharray:none;stroke-opacity:1">aelco</tspan></text>
    <path
       style="fill:#339900;fill-opacity:1;stroke-width:1"
       d="m 233.87154,106.3807 c 0.005,-0.34054 1.38847,-6.22355 3.07456,-13.0734 1.21837,-4.9497 2.24618,-9.27981 2.69573,-11.32836 0.1146,-0.52223 0.19162,-0.89619 0.22463,-1.09434 0.0316,-0.24823 0.079,-0.20816 -0.14815,-0.17184 -0.25815,0.0326 -0.77939,0.18193 -1.34482,0.39254 -2.17064,0.80854 -8.6696,0.58032 -12.76119,-0.4481 -14.18933,-3.56647 -24.43429,-13.256435 -26.97672,-25.515303 -0.84465,-4.072672 -1.03979,-14.471449 -0.27156,-14.471449 0.26383,0 0.4797,0.706378 0.4797,1.569726 0,2.448929 1.7751,8.705471 3.38468,11.92972 4.75516,9.525331 15.56976,14.217001 26.79553,11.624651 1.69211,-0.39076 4.17412,-1.28646 5.51558,-1.99043 3.3662,-1.766543 8.35495,-6.792842 10.28264,-10.360053 0.88287,-1.63374 1.69164,-2.885762 1.79728,-2.782271 0.16866,0.165238 -5.32249,26.028999 -5.85648,28.193879 -0.18439,0.74758 -0.15499,0.92025 0.80758,0.80137 0.92473,-0.1142 2.68258,-0.37166 5.5325,-1.18077 9.98907,-2.835965 17.38947,-8.649205 21.48422,-16.876523 5.53689,-11.12497 5.04178,-25.590354 -1.23636,-36.121784 -2.32344,-3.897531 -8.54277,-10.410268 -12.23262,-12.809731 -3.74458,-2.435046 -2.74245,-2.571956 1.39478,-0.190556 10.55925,6.077912 18.41744,14.117978 22.72417,23.250112 7.22931,15.329231 5.23073,35.923337 -4.83533,49.824982 -2.71232,3.74583 -9.05825,9.62929 -13.25506,12.28908 -6.83392,4.33109 -15.73739,7.60233 -22.8475,8.39443 -1.51676,0.16898 -3.13552,0.40991 -3.59724,0.53539 -0.49462,0.13443 -0.83582,-0.0262 -0.83055,-0.39097 z"
       id="path18296"
       sodipodi:nodetypes="sssccsssssssssssssssssssssss"
       inkscape:label="Logo" />
  </g>
</svg>
