<?xml version="1.0" encoding="UTF-8" standalone="no"?>
<!-- Created with Inkscape (http://www.inkscape.org/) -->

<svg
   width="629.82434"
   height="69.793884"
   id="svg2"
   version="1.1"
   inkscape:version="1.1.2 (0a00cf5339, 2022-02-04)"
   sodipodi:docname="gamate.svg"
   xmlns:inkscape="http://www.inkscape.org/namespaces/inkscape"
   xmlns:sodipodi="http://sodipodi.sourceforge.net/DTD/sodipodi-0.dtd"
   xmlns="http://www.w3.org/2000/svg"
   xmlns:svg="http://www.w3.org/2000/svg"
   xmlns:rdf="http://www.w3.org/1999/02/22-rdf-syntax-ns#"
   xmlns:cc="http://creativecommons.org/ns#"
   xmlns:dc="http://purl.org/dc/elements/1.1/">
  <defs
     id="defs4" />
  <sodipodi:namedview
     id="base"
     pagecolor="#ffffff"
     bordercolor="#666666"
     borderopacity="1.0"
     inkscape:pageopacity="0.0"
     inkscape:pageshadow="2"
     inkscape:zoom="1.4"
     inkscape:cx="186.42857"
     inkscape:cy="-48.928571"
     inkscape:document-units="px"
     inkscape:current-layer="layer1"
     showgrid="false"
     fit-margin-top="0"
     fit-margin-left="0"
     fit-margin-right="0"
     fit-margin-bottom="0"
     inkscape:window-width="1366"
     inkscape:window-height="703"
     inkscape:window-x="0"
     inkscape:window-y="0"
     inkscape:window-maximized="1"
     inkscape:pagecheckerboard="1" />
  <metadata
     id="metadata7">
    <rdf:RDF>
      <cc:Work
         rdf:about="">
        <dc:format>image/svg+xml</dc:format>
        <dc:type
           rdf:resource="http://purl.org/dc/dcmitype/StillImage" />
      </cc:Work>
    </rdf:RDF>
  </metadata>
  <g
     inkscape:label="Layer 1"
     inkscape:groupmode="layer"
     id="layer1"
     transform="translate(-46.613191,-129.6829)">
    <g
       transform="matrix(3.1542882,0,0,1.9909569,-69.423542,7.3985441)"
       style="font-style:normal;font-weight:normal;font-size:40px;line-height:125%;font-family:Sans;letter-spacing:0px;word-spacing:0px;fill:#ececec;fill-opacity:1;stroke:none"
       id="flowRoot2985">
      <path
         d="m 69.879412,65.608006 h -4.159946 l -1.013833,2.119973 c -0.5399,-0.988295 -1.327528,-1.691619 -2.362887,-2.109973 -1.035407,-0.418302 -2.461197,-0.621632 -4.277375,-0.609992 -4.145249,0.05836 -7.651506,1.341675 -10.518783,3.84995 -2.867295,2.508322 -4.703895,5.891608 -5.509806,10.149868 -0.408713,2.379146 -0.349811,4.530783 0.176706,6.454916 0.526509,1.924148 1.475914,3.505792 2.848218,4.744939 2.03039,1.79331 4.939483,2.686631 8.727289,2.679965 1.776038,0.0033 3.332653,-0.22333 4.669851,-0.679991 1.337158,-0.456661 2.478424,-1.163317 3.423803,-2.119972 l 0.412041,2.199971 h 3.519954 l 1.163846,-6.599914 c 0.25435,-1.371641 0.430415,-2.228296 0.528193,-2.569967 0.09772,-0.341653 0.234453,-0.578317 0.410199,-0.709991 0.142349,-0.159988 0.355173,-0.279986 0.638474,-0.359995 0.28324,-0.07999 0.671955,-0.119988 1.166147,-0.119998 h 1.199984 l 0.641879,-3.639953 H 57.003555 l -0.641879,3.639953 h 1.679978 c 0.49458,-0.0025 0.870069,0.03251 1.126469,0.104999 0.256358,0.07251 0.42598,0.197507 0.508866,0.374994 0.129258,0.131675 0.182522,0.368339 0.159794,0.709991 -0.02277,0.341671 -0.148836,1.198326 -0.378195,2.569967 l -0.04938,0.279996 c -0.184587,1.074991 -0.583892,1.86498 -1.197917,2.369969 -0.614064,0.504997 -1.478138,0.754994 -2.592222,0.749991 -0.743194,-8.31e-4 -1.422124,-0.139162 -2.036793,-0.414995 -0.614699,-0.275826 -1.146018,-0.684153 -1.593958,-1.224984 -0.755561,-0.90415 -1.22952,-2.015801 -1.42188,-3.334958 -0.192385,-1.31914 -0.116416,-2.940783 0.227905,-4.864936 0.605721,-3.392439 1.626552,-5.977403 3.062496,-7.754899 1.435913,-1.777455 3.228715,-2.672442 5.378411,-2.684965 1.005896,0.0042 1.866988,0.205854 2.583278,0.604992 0.716243,0.399184 1.252094,0.970843 1.607553,1.714978 0.289748,0.568347 0.469825,1.191671 0.540231,1.869975 0.07035,0.678343 0.05753,1.601664 -0.03847,2.769964 h 4.159946 z"
         style="font-style:oblique;font-variant:normal;font-weight:800;font-stretch:normal;font-size:40px;line-height:125%;font-family:'Clarendon T OT Extra Bold';-inkscape-font-specification:'Clarendon T OT Extra Bold, Ultra-Bold Oblique';text-align:start;writing-mode:lr-tb;text-anchor:start;fill:#ececec"
         id="path2994"
         inkscape:connector-curvature="0" />
      <path
         d="m 84.883997,65.608006 -10.340825,20.07974 c -0.600578,1.208322 -1.137232,2.011644 -1.609966,2.409968 -0.472739,0.398332 -1.11006,0.581663 -1.911963,0.549993 H 69.74126 l -0.641879,3.639953 h 12.159842 l 0.641879,-3.639953 h -1.719978 c -0.673922,0.0033 -1.14373,-0.07333 -1.409423,-0.229997 -0.265712,-0.15666 -0.363782,-0.413323 -0.294212,-0.76999 0.0058,-0.09916 0.05589,-0.250826 0.150234,-0.454995 0.09433,-0.204158 0.346122,-0.705817 0.755386,-1.504979 l 1.046779,-2.079973 h 8.199894 l 0.313203,2.079973 c 0.108513,0.797495 0.171126,1.302488 0.187839,1.51498 0.01667,0.212503 0.0075,0.3875 -0.02758,0.524993 -0.04791,0.370833 -0.216702,0.619162 -0.50637,0.74499 -0.289704,0.125835 -0.814983,0.184168 -1.575838,0.174998 h -1.55998 l -0.641879,3.639953 h 15.199803 l 0.64188,-3.639953 h -1.319984 c -0.387231,-0.0017 -0.735761,-0.03833 -1.045591,-0.109998 -0.309886,-0.07166 -0.537836,-0.168327 -0.68385,-0.289996 -0.142006,-0.154162 -0.288711,-0.465824 -0.440114,-0.934989 -0.151458,-0.469155 -0.267604,-1.010814 -0.348438,-1.624978 l -2.659006,-20.07974 z m 3.272409,14.559811 h -6.039921 l 4.707022,-8.999883 z"
         style="font-style:oblique;font-variant:normal;font-weight:800;font-stretch:normal;font-size:40px;line-height:125%;font-family:'Clarendon T OT Extra Bold';-inkscape-font-specification:'Clarendon T OT Extra Bold, Ultra-Bold Oblique';text-align:start;writing-mode:lr-tb;text-anchor:start;fill:#ececec"
         id="path2996"
         inkscape:connector-curvature="0" />
      <path
         d="m 131.93696,69.92795 -2.63805,14.959806 c -0.25441,1.371655 -0.43047,2.22831 -0.52819,2.569967 -0.0978,0.341666 -0.23451,0.57833 -0.4102,0.709991 -0.14241,0.160002 -0.35523,0.28 -0.63848,0.359995 -0.28329,0.08 -0.67201,0.120002 -1.16614,0.119998 h -1.35998 l -0.64188,3.639953 h 15.5598 l 0.64188,-3.639953 h -2.23998 c -0.49419,4e-6 -0.8688,-0.03999 -1.12382,-0.119998 -0.25509,-0.07999 -0.4256,-0.199993 -0.51151,-0.359995 -0.12579,-0.151661 -0.17729,-0.398325 -0.15451,-0.739991 0.0227,-0.341657 0.14702,-1.188312 0.37291,-2.539967 l 2.09492,-11.879846 c 0.25434,-1.371628 0.43041,-2.228283 0.5282,-2.569967 0.0977,-0.34164 0.23444,-0.578303 0.4102,-0.70999 0.14233,-0.159975 0.35516,-0.279974 0.63847,-0.359996 0.28323,-0.07998 0.67195,-0.119975 1.16615,-0.119998 h 2.23997 l 0.64188,-3.639953 h -15.5598 l -7.09666,16.19979 -1.34323,-16.19979 h -15.5598 l -0.64188,3.639953 h 2.23997 c 0.49415,2.3e-5 0.86876,0.04002 1.12383,0.119998 0.25504,0.08002 0.42555,0.200021 0.51151,0.359996 0.12927,0.131687 0.18253,0.368351 0.15979,0.709991 -0.0228,0.341683 -0.14882,1.198338 -0.37819,2.569966 l -2.09493,11.879846 c -0.25086,1.351655 -0.42516,2.19831 -0.5229,2.539967 -0.0978,0.341666 -0.23625,0.58833 -0.41549,0.739991 -0.14239,0.160002 -0.35521,0.28 -0.63848,0.359995 -0.28327,0.08 -0.67199,0.120002 -1.16614,0.119998 h -2.23997 l -0.64188,3.639953 h 12.27984 l 0.64188,-3.639953 h -1.35998 c -0.49418,4e-6 -0.86878,-0.03999 -1.12383,-0.119998 -0.25507,-0.07999 -0.42557,-0.199993 -0.51151,-0.359995 -0.12929,-0.131661 -0.18255,-0.368325 -0.15979,-0.709992 0.0227,-0.341657 0.1488,-1.198312 0.37819,-2.569966 l 2.63806,-14.959806 2.25695,22.35971 h 6.27991 z"
         style="font-style:oblique;font-variant:normal;font-weight:800;font-stretch:normal;font-size:40px;line-height:125%;font-family:'Clarendon T OT Extra Bold';-inkscape-font-specification:'Clarendon T OT Extra Bold, Ultra-Bold Oblique';text-align:start;writing-mode:lr-tb;text-anchor:start;fill:#ececec"
         id="path2998"
         inkscape:connector-curvature="0" />
      <path
         d="m 156.44649,65.608006 -10.34082,20.07974 c -0.60058,1.208322 -1.13723,2.011644 -1.60997,2.409968 -0.47274,0.398332 -1.11006,0.581663 -1.91196,0.549993 h -1.27998 l -0.64188,3.639953 h 12.15984 l 0.64188,-3.639953 h -1.71998 c -0.67392,0.0033 -1.14373,-0.07333 -1.40942,-0.229997 -0.26571,-0.15666 -0.36379,-0.413323 -0.29421,-0.76999 0.006,-0.09916 0.0559,-0.250826 0.15023,-0.454995 0.0943,-0.204158 0.34612,-0.705817 0.75539,-1.504979 l 1.04677,-2.079973 h 8.1999 l 0.3132,2.079973 c 0.10851,0.797495 0.17113,1.302488 0.18784,1.51498 0.0167,0.212503 0.007,0.3875 -0.0276,0.524993 -0.0479,0.370833 -0.2167,0.619162 -0.50637,0.74499 -0.2897,0.125835 -0.81498,0.184168 -1.57584,0.174998 h -1.55998 l -0.64188,3.639953 h 15.19981 l 0.64187,-3.639953 h -1.31998 c -0.38723,-0.0017 -0.73576,-0.03833 -1.04559,-0.109998 -0.30988,-0.07166 -0.53783,-0.168327 -0.68385,-0.289996 -0.14201,-0.154162 -0.28871,-0.465824 -0.44011,-0.934989 -0.15146,-0.469155 -0.26761,-1.010814 -0.34844,-1.624978 l -2.65901,-20.07974 z m 3.27241,14.559811 h -6.03992 l 4.70702,-8.999883 z"
         style="font-style:oblique;font-variant:normal;font-weight:800;font-stretch:normal;font-size:40px;line-height:125%;font-family:'Clarendon T OT Extra Bold';-inkscape-font-specification:'Clarendon T OT Extra Bold, Ultra-Bold Oblique';text-align:start;writing-mode:lr-tb;text-anchor:start;fill:#ececec"
         id="path3000"
         inkscape:connector-curvature="0" />
      <path
         d="m 176.9271,65.608006 -3.19661,8.584027 3.85714,1.815838 c 0.38993,-2.334117 1.11686,-4.055759 2.18078,-5.164932 1.0639,-1.10913 2.48097,-1.64079 4.25121,-1.59498 l -2.75796,15.639797 c -0.25439,1.371655 -0.43046,2.22831 -0.52819,2.569967 -0.0978,0.341666 -0.2345,0.57833 -0.4102,0.709991 -0.14239,0.160002 -0.35522,0.28 -0.63848,0.359995 -0.28328,0.08 -0.67199,0.120002 -1.16614,0.119998 h -2.23997 l -0.64188,3.639953 h 16.59978 l 0.64188,-3.639953 h -2.23997 c -0.49418,4e-6 -0.86879,-0.03999 -1.12383,-0.119998 -0.25507,-0.07999 -0.42557,-0.199993 -0.5115,-0.359995 -0.1293,-0.131661 -0.18257,-0.368325 -0.1598,-0.709992 0.0227,-0.341657 0.1488,-1.198312 0.3782,-2.569966 l 2.75796,-15.639797 h 0.83999 c 1.48133,0.0017 2.51216,0.488349 3.0925,1.459981 0.58028,0.971674 0.70184,2.418321 0.36467,4.339944 l -0.16929,0.959987 4.37624,-1.139226 -1.1942,-9.391066 z"
         style="font-style:oblique;font-variant:normal;font-weight:800;font-stretch:normal;font-size:40px;line-height:125%;font-family:'Clarendon T OT Extra Bold';-inkscape-font-specification:'Clarendon T OT Extra Bold, Ultra-Bold Oblique';text-align:start;writing-mode:lr-tb;text-anchor:start;fill:#ececec"
         id="path3002"
         inkscape:connector-curvature="0"
         sodipodi:nodetypes="cccsccccssccccscccccccccccc" />
      <path
         d="m 229.82207,65.608006 h -26.51609 l -0.64188,3.639953 h 2.23997 c 0.49415,2.3e-5 0.86876,0.04002 1.12382,0.119998 0.25505,0.08002 0.42555,0.200021 0.51151,0.359996 0.12927,0.131687 0.18254,0.368351 0.1598,0.709991 -0.0228,0.341683 -0.14883,1.198338 -0.3782,2.569966 l -2.09492,11.879846 c -0.25439,1.371655 -0.43045,2.22831 -0.52819,2.569967 -0.0978,0.341666 -0.23449,0.57833 -0.4102,0.709991 -0.14239,0.160002 -0.35521,0.28 -0.63848,0.359995 -0.28327,0.08 -0.67199,0.120002 -1.16614,0.119998 h -2.23997 l -0.64188,3.639953 h 26.51609 l 4.17393,-9.493201 -5.48469,-1.426657 c -0.22645,1.080829 -0.41733,1.88915 -0.57262,2.424968 -0.15535,0.535835 -0.34156,1.034161 -0.55863,1.494981 -0.34634,0.754162 -0.82635,1.415819 -1.44002,1.984973 -0.61372,0.569164 -1.26611,0.960826 -1.95717,1.174986 -0.32442,0.09583 -0.6697,0.154168 -1.03585,0.174997 -0.36619,0.02084 -1.19265,0.02917 -2.47938,0.025 h -4.39994 l 1.4601,-8.279892 h 1.23998 c 1.1134,-0.01 1.87244,0.260008 2.27713,0.809989 0.40466,0.550004 0.49438,1.439991 0.26917,2.669966 l -0.14108,0.799989 h 3.51996 l 2.11608,-11.999844 h -3.51995 c -0.13233,0.755009 -0.25098,1.305001 -0.35596,1.649979 -0.10503,0.345013 -0.22783,0.635009 -0.36842,0.869988 -0.29847,0.558343 -0.70135,0.971671 -1.20865,1.239984 -0.50733,0.268346 -1.12083,0.401677 -1.84051,0.399995 h -1.35998 l 1.33313,-7.559902 h 5.27993 c 0.66178,-8.1e-4 1.15639,0.01086 1.48381,0.035 0.32738,0.02419 0.59669,0.06585 0.80795,0.124998 0.4817,0.122521 0.90064,0.317519 1.25682,0.584993 0.35613,0.267518 0.63215,0.592514 0.82806,0.974987 0.2921,0.611679 0.46748,1.318336 0.52614,2.119972 0.0586,0.801675 -0.008,1.748328 -0.20081,2.839963 l 5.80587,-1.141326 z"
         style="font-style:oblique;font-variant:normal;font-weight:800;font-stretch:normal;font-size:40px;line-height:125%;font-family:'Clarendon T OT Extra Bold';-inkscape-font-specification:'Clarendon T OT Extra Bold, Ultra-Bold Oblique';text-align:start;writing-mode:lr-tb;text-anchor:start;fill:#ececec"
         id="path3004"
         inkscape:connector-curvature="0"
         sodipodi:nodetypes="ccccccccccccsccccccccccccccccccccccccccccccccccc" />
    </g>
    <path
       style="fill:#cdc112;fill-opacity:1;stroke-width:0.0892857"
       d="m 513.16964,57.820696 v -3.563233 l 4.5759,-0.04247 c 4.71617,-0.04377 5.11174,-0.07163 6.41911,-0.452037 0.66603,-0.193794 1.58599,-0.768418 1.91712,-1.197457 0.68415,-0.886451 1.12194,-2.31398 5.34624,-17.432834 4.21845,-15.097898 4.69223,-16.949185 4.55122,-17.783822 -0.0755,-0.44683 -0.52884,-0.969717 -1.05532,-1.217194 -0.97448,-0.458056 -1.35872,-0.488343 -6.6873,-0.527113 -2.73772,-0.01992 -4.97585,-0.04355 -4.9736,-0.05252 0.002,-0.009 0.45524,-1.623445 1.00666,-3.58773 l 1.00259,-3.5714288 28.05584,-0.022462 28.05583,-0.022462 v 3.6162118 3.616212 h -9.98334 -9.98333 l -1.95039,6.986607 c -1.07272,3.842634 -2.02271,7.241705 -2.11111,7.553491 l -0.16072,0.566883 3.36677,-0.04166 c 2.57867,-0.03191 3.58365,-0.07707 4.29332,-0.192914 2.81329,-0.459243 4.57429,-1.266877 6.03773,-2.769041 1.08236,-1.111004 1.68099,-2.255163 2.32675,-4.447112 l 0.25647,-0.870536 h 3.95392 3.95393 l -0.003,5.602679 -0.003,5.602679 -1.76165,6.294643 -1.76166,6.294642 -5.51867,0.02301 c -5.22941,0.0218 -5.51622,0.01478 -5.47167,-0.133929 0.59879,-1.99888 0.81152,-3.190028 0.73916,-4.138841 -0.13519,-1.772839 -1.07453,-2.876887 -3.00584,-3.532903 -1.5642,-0.531315 -2.09737,-0.588324 -5.90654,-0.631558 l -3.45117,-0.03917 -0.13701,0.476698 c -0.63426,2.206786 -4.43386,15.882912 -4.43386,15.959039 0,0.133647 20.68916,0.136285 22.45536,0.0029 2.77642,-0.209736 5.1299,-0.829894 7.38839,-1.946889 l 0.87054,-0.430545 v 4.807722 4.80772 h -34.10714 -34.10715 z"
       id="path60503"
       transform="translate(46.613191,129.6829)" />
    <path
       style="fill:#cdc112;fill-opacity:1;stroke-width:0.178571"
       d="m 581.51786,56.552345 v -4.791509 l 1.51818,-1.031258 c 2.79185,-1.896428 4.43831,-4.194681 6.02721,-8.413184 l 0.94351,-2.505034 7.85376,1.283771 c 4.31957,0.706074 8.15295,1.351196 8.51862,1.433605 l 0.66486,0.149835 -6.47195,9.285715 -6.47195,9.285714 -6.29112,0.04693 -6.29112,0.04693 z"
       id="path60542"
       transform="translate(46.613191,129.6829)" />
    <path
       style="fill:#cdc112;fill-opacity:1;stroke-width:0.178571"
       d="m 593.13127,28.604845 c 0.003,-0.116593 0.12117,-0.734309 0.26159,-1.372702 0.53544,-2.434283 0.26272,-5.214832 -0.69732,-7.109365 -1.28778,-2.541316 -4.76725,-4.212989 -9.25804,-4.447927 l -1.91964,-0.100427 V 12.028283 8.4821429 h 13.66071 c 7.5134,0 13.66073,0.020089 13.66076,0.044643 2e-5,0.024554 0.52118,4.0569601 1.15814,8.9609051 0.63696,4.903944 1.1208,8.953566 1.0752,8.999159 -0.0456,0.04559 -3.84131,0.548466 -8.43492,1.117495 -4.59362,0.569028 -8.6132,1.074621 -8.93239,1.123543 -0.38054,0.05832 -0.5782,0.01595 -0.57409,-0.123043 z"
       id="path60581"
       transform="translate(46.613191,129.6829)" />
    <path
       style="fill:#cdc112;fill-opacity:1;stroke-width:0.178571"
       d="m 627.95243,186.26198 5e-5,-4.68084 1.02678,-0.6986 c 3.31461,-2.25516 4.96365,-4.51106 6.74373,-9.22542 0.37084,-0.98215 0.724,-1.84312 0.7848,-1.91329 0.16755,-0.19336 16.72307,2.59653 16.65197,2.80614 -0.13257,0.39083 -12.59396,18.16053 -12.77794,18.22111 -0.10846,0.0357 -2.94945,0.089 -6.31331,0.11834 l -6.11612,0.0534 z"
       id="path60620" />
    <path
       style="fill:#cdc112;fill-opacity:1;stroke-width:0.178571"
       d="m 517.41072,57.882582 v -3.456705 l 1.09762,-0.114723 c 0.60369,-0.0631 1.82914,-0.115679 2.72321,-0.116845 2.97383,-0.0039 4.56577,-0.713129 5.35762,-2.386952 0.49121,-1.038334 2.51965,-7.963718 5.89047,-20.110928 3.88523,-14.000921 3.93767,-14.258382 3.0858,-15.147547 -0.27165,-0.28354 -0.79125,-0.603404 -1.15467,-0.71081 -0.36342,-0.107406 -2.97104,-0.251754 -5.7947,-0.320774 -2.82366,-0.06902 -5.13541,-0.173468 -5.13722,-0.232108 -0.002,-0.05864 0.41494,-1.613315 0.92612,-3.454833 l 0.9294,-3.3482141 h 28.00246 28.00246 v 3.4821431 3.482143 h -9.98733 -9.98733 l -0.26899,0.9375 c -0.14794,0.515625 -1.08343,3.858669 -2.07886,7.428987 -0.99543,3.570318 -1.85736,6.615234 -1.9154,6.766482 -0.0939,0.244711 0.31556,0.261163 3.71798,0.149382 5.6156,-0.184489 7.68249,-0.75606 9.79008,-2.707314 1.16588,-1.079405 2.13234,-2.737223 2.62159,-4.496946 l 0.30967,-1.113806 h 3.89929 3.8993 v 5.478124 5.478121 l -1.52749,5.459379 c -0.84011,3.002657 -1.64939,5.881251 -1.79838,6.396876 l -0.2709,0.9375 h -5.24465 c -3.17298,0 -5.28667,-0.06799 -5.35103,-0.17213 -0.0585,-0.09467 0.0276,-0.677261 0.19136,-1.294643 0.45567,-1.717927 0.4077,-3.476521 -0.12094,-4.434118 -1.09221,-1.978452 -3.60091,-2.62923 -10.26094,-2.661773 l -1.79368,-0.0088 -1.03409,3.705357 c -2.70763,9.701984 -3.5198,12.76648 -3.41197,12.874184 0.0643,0.06429 5.23302,0.116395 11.48593,0.115791 10.34442,-0.0011 11.52984,-0.03117 13.15463,-0.334846 1.88757,-0.352788 3.72963,-0.946063 5.13393,-1.653493 l 0.84822,-0.427295 v 4.73515 4.735152 H 549.375 517.41072 Z"
       id="path60659"
       transform="translate(46.613191,129.6829)" />
    <path
       style="fill:#cdc112;fill-opacity:1;stroke-width:0.178571"
       d="m 517.41072,57.882582 v -3.456705 l 1.09762,-0.114723 c 0.60369,-0.0631 1.79217,-0.114725 2.64105,-0.114725 2.39846,0 4.13379,-0.57695 5.05474,-1.680563 0.56834,-0.68108 1.99986,-5.453643 6.55605,-21.857307 2.52936,-9.10649 3.22196,-11.874913 3.22196,-12.878592 0,-0.753921 -0.0743,-0.935737 -0.54383,-1.330825 -0.29911,-0.251683 -0.84152,-0.536666 -1.20536,-0.633295 -0.36384,-0.09663 -2.93161,-0.23173 -5.70616,-0.300225 -2.77456,-0.0685 -5.04651,-0.172352 -5.0488,-0.230794 -0.002,-0.05844 0.41317,-1.612953 0.92323,-3.454471 l 0.92737,-3.3482141 h 28.00535 28.00535 v 3.4821431 3.482143 h -9.98797 c -9.35899,0 -9.99364,0.01968 -10.07805,0.3125 -1.25711,4.361107 -4.04113,14.53926 -4.04113,14.77408 0,0.300648 0.21381,0.312071 3.61608,0.193187 4.31142,-0.150651 5.81154,-0.413235 7.74955,-1.356507 2.32351,-1.1309 3.92382,-3.210261 4.70294,-6.11076 l 0.22785,-0.848215 h 3.90536 3.90537 v 5.492238 5.492236 l -1.52259,5.445264 c -0.83742,2.994894 -1.64323,5.867137 -1.7907,6.382762 l -0.26812,0.9375 h -5.25233 c -2.88878,0 -5.29361,-0.06679 -5.34406,-0.148423 -0.0504,-0.08163 0.0651,-0.915912 0.25669,-1.853955 0.56715,-2.776243 0.0428,-4.391829 -1.74033,-5.362338 -1.39937,-0.761632 -2.84284,-1.000925 -6.83856,-1.133675 l -3.66072,-0.121619 -1.23333,4.443934 c -2.85706,10.294559 -3.33116,12.081826 -3.23131,12.181669 0.19387,0.193879 17.45934,0.242797 20.9825,0.05945 3.9346,-0.204757 5.93723,-0.615412 8.28016,-1.697912 l 1.3627,-0.629606 v 4.720524 4.720523 H 549.375 517.41072 Z"
       id="path60698"
       transform="translate(46.613191,129.6829)" />
    <path
       style="fill:#cdc112;fill-opacity:1;stroke-width:0.178571"
       d="m 438.125,61.249723 c 0,-0.102159 1.08504,-4.005134 1.62574,-5.847937 l 0.35367,-1.205357 h 4.87878 c 5.1541,0 6.27255,-0.111999 7.56514,-0.757549 1.1152,-0.556955 1.54063,-1.278785 2.4478,-4.153166 0.98624,-3.12491 9.37887,-33.179681 9.37887,-33.586583 0,-0.268714 -0.20137,-0.286371 -2.00893,-0.176151 -4.0712,0.24825 -6.90908,0.889674 -9.51876,2.151451 -2.84887,1.377429 -5.11565,3.46501 -6.66788,6.140769 -0.73101,1.260126 -1.983,4.24882 -1.983,4.733725 0,0.159698 -0.11132,0.290361 -0.24737,0.290361 -0.20586,0 -11.74887,-3.369628 -11.83384,-3.454526 -0.0152,-0.01519 2.20023,-3.804403 4.92319,-8.420474 l 4.95084,-8.3928574 3.2018,-0.1150606 c 1.761,-0.063283 17.63313,-0.1556659 35.27141,-0.2052947 l 32.06961,-0.090234 1.84599,9.1930417 c 1.30687,6.50825 1.78702,9.22949 1.64406,9.317842 -0.30733,0.189938 -13.05495,2.247822 -13.17578,2.127 -0.058,-0.05804 0.11001,-0.966332 0.37344,-2.018421 0.40916,-1.634099 0.46838,-2.189507 0.40635,-3.810881 -0.0615,-1.607554 -0.14676,-2.051738 -0.55725,-2.902704 -0.8918,-1.848784 -2.92202,-3.30418 -5.56888,-3.992147 -1.80619,-0.469461 -7.79623,-0.839168 -8.0073,-0.494213 -0.15129,0.247252 -8.70863,30.997097 -9.32752,33.517409 -0.71606,2.91597 -0.75229,3.529407 -0.23881,4.042886 0.89999,0.899995 1.3214,0.961612 6.99327,1.022562 2.92188,0.0314 5.30985,0.111984 5.3066,0.179081 -0.003,0.06709 -0.43236,1.648777 -0.95358,3.514848 L 490.32498,61.25 464.22499,61.295238 C 449.87,61.32012 438.125,61.299638 438.125,61.249723 Z"
       id="path60737"
       transform="translate(46.613191,129.6829)" />
    <path
       style="fill:#cdc112;fill-opacity:1;stroke-width:0.178571"
       d="m 327.84359,61.024838 c 0.0549,-0.172947 0.46551,-1.639465 0.91248,-3.258929 0.44697,-1.619464 0.85237,-3.077279 0.90089,-3.239587 0.0776,-0.259481 0.55632,-0.304467 3.96563,-0.372618 3.41358,-0.06824 4.00385,-0.123815 4.93442,-0.464602 1.48781,-0.544857 2.49197,-1.238584 4.00927,-2.76983 0.72395,-0.730608 8.84664,-10.557756 18.05042,-21.838109 L 377.35085,8.5714286 392.02364,8.525748 c 8.07003,-0.025124 14.67279,-0.01331 14.67279,0.026255 0,0.039565 1.92125,9.220835 4.26946,20.402824 2.51902,11.995419 4.46208,20.843375 4.73929,21.580887 0.25841,0.6875 0.74598,1.628024 1.0835,2.090052 0.92587,1.267436 1.60505,1.429691 6.39128,1.52687 l 3.89424,0.07907 -0.10605,0.482868 c -0.0583,0.265578 -0.48919,1.844694 -0.95745,3.509148 l -0.8514,3.02628 -23.87429,0.04529 c -13.13086,0.02491 -23.87345,-0.01527 -23.87242,-0.08929 10e-4,-0.07402 0.42957,-1.661364 0.95231,-3.527435 l 0.95044,-3.392858 4.80661,-0.09232 c 3.93917,-0.07566 4.92497,-0.145477 5.46238,-0.386872 0.90861,-0.408132 1.29817,-1.069593 1.28495,-2.181795 -0.01,-0.827962 -1.14565,-6.242807 -1.51133,-7.205087 l -0.15268,-0.401786 H 376.34508 363.4849 l -0.43122,0.491072 c -1.65116,1.880318 -5.82991,7.354826 -5.91713,7.751923 -0.1467,0.667909 0.18081,1.196537 0.95818,1.546618 0.54167,0.243934 1.45376,0.305552 5.26126,0.355434 4.20811,0.05513 4.59827,0.08618 4.51654,0.359434 -0.0492,0.1645 -0.45791,1.624984 -0.90824,3.245519 -0.45034,1.620536 -0.86097,3.087054 -0.91251,3.258929 -0.0885,0.295087 -1.15831,0.3125 -19.20085,0.3125 -18.16111,0 -19.1022,-0.01557 -19.00734,-0.314448 z m 59.92427,-23.80885 c 0,-0.273818 -4.09646,-17.711257 -4.18054,-17.795335 -0.0379,-0.03788 -0.82471,0.840376 -1.74853,1.95167 -6.1218,7.364143 -12.946,15.626823 -13.06186,15.815177 -0.10918,0.177502 1.82135,0.223214 9.42682,0.223214 6.786,0 9.56411,-0.05656 9.56411,-0.194726 z"
       id="path60776"
       transform="translate(46.613191,129.6829)" />
    <path
       style="fill:#cdc112;fill-opacity:1;stroke-width:0.178571"
       d="m 201.34633,61.116072 c 0.004,-0.122768 0.42841,-1.709822 0.94343,-3.526786 l 0.93638,-3.303572 5.4405,-0.102757 c 5.64057,-0.106534 6.21899,-0.17991 7.33226,-0.930144 1.37571,-0.92709 1.45292,-1.150849 5.9829,-17.337413 5.06999,-18.116139 5.16678,-18.553368 4.28958,-19.377457 -0.84984,-0.798382 -1.82945,-0.944064 -7.16993,-1.066262 l -5.00569,-0.114538 0.96456,-3.4375 0.96457,-3.4375001 h 24.49204 24.49204 l 2.02431,15.4910711 c 1.11336,8.52009 2.07892,15.770863 2.14569,16.112829 l 0.12138,0.621755 2.3577,-3.389612 c 1.29673,-1.864288 6.31763,-9.094972 11.15756,-16.068186 l 8.79987,-12.6785714 22.54047,-0.04533 22.54048,-0.04533 v 3.4572934 3.457294 l -4.0625,0.104844 c -4.41723,0.113999 -5.6601,0.311303 -6.8275,1.083853 -1.26262,0.835563 -1.38234,1.18981 -6.05536,17.917092 -3.96954,14.209184 -4.50684,16.270251 -4.54453,17.432761 -0.0246,0.759118 0.0394,0.922732 0.53431,1.365254 0.86084,0.769755 1.88609,0.897268 7.21437,0.897268 2.64695,0 4.81603,0.06027 4.82017,0.133928 0.004,0.07366 -0.41773,1.680625 -0.9375,3.571031 l -0.94503,3.437101 -24.41965,3.58e-4 c -19.41879,3.57e-4 -24.4189,-0.04531 -24.41604,-0.222817 0.002,-0.122767 0.42538,-1.709821 0.94089,-3.526785 l 0.9373,-3.303572 4.10375,-0.104289 c 6.25433,-0.158941 6.59364,-0.359084 7.99709,-4.717139 0.90672,-2.815593 9.07144,-32.087807 9.00535,-32.28607 -0.0304,-0.09111 -7.16375,9.806805 -15.85196,21.99537 l -15.79673,22.161064 -9.86267,0.0023 -9.86267,0.0023 -0.0891,-0.401786 c -0.049,-0.220982 -1.61636,-10.004464 -3.48307,-21.741071 -1.86671,-11.736608 -3.45698,-21.575396 -3.53394,-21.863976 -0.11363,-0.426104 -0.93519,2.325198 -4.37247,14.642858 -4.33658,15.540382 -5.31398,19.242912 -5.31398,20.130162 0,0.782829 0.31325,1.197397 1.22063,1.615441 0.75507,0.347875 1.19603,0.38945 4.71687,0.444727 2.78061,0.04366 3.88393,0.119518 3.88393,0.267054 0,0.113343 -0.41757,1.713693 -0.92793,3.556334 l -0.92792,3.350257 h -19.25065 c -15.28522,0 -19.24919,-0.04598 -19.2436,-0.223214 z"
       id="path60815"
       transform="translate(46.613191,129.6829)" />
    <path
       style="fill:#cdc112;fill-opacity:1;stroke-width:0.178571"
       d="m 102.12094,61.026786 c 0.0503,-0.171875 0.4607,-1.638393 0.91202,-3.258929 0.45132,-1.620535 0.86048,-3.079227 0.90925,-3.241535 0.078,-0.259463 0.55703,-0.304472 3.96609,-0.372618 3.42063,-0.06838 4.00364,-0.123459 4.94884,-0.467545 1.39148,-0.506543 2.57303,-1.330962 4.05694,-2.830707 0.65989,-0.666927 8.73924,-10.453666 17.95411,-21.748309 L 151.6225,8.5714286 166.30232,8.525748 c 8.0739,-0.025124 14.67982,0.0049 14.67982,0.066726 0,0.061824 1.93374,9.321359 4.2972,20.576742 4.48533,21.360311 4.69155,22.188007 5.89049,23.642522 0.87787,1.065014 1.73728,1.248332 6.28553,1.340748 2.13616,0.0434 3.88308,0.131316 3.88205,0.195359 -0.001,0.06404 -0.4297,1.643227 -0.95259,3.509298 L 199.4341,61.25 l -23.88317,0.04529 -23.88316,0.04529 0.11007,-0.501156 c 0.0605,-0.275635 0.49307,-1.862982 0.96118,-3.527435 l 0.85112,-3.026281 4.81207,-0.09698 c 2.64664,-0.05334 4.97279,-0.166859 5.16922,-0.252272 0.85163,-0.370316 1.33885,-0.860986 1.51891,-1.529673 0.1972,-0.732343 -0.15505,-2.842327 -1.11726,-6.692507 l -0.40165,-1.607143 -12.94643,-0.04476 -12.94643,-0.04476 -3.02372,3.803432 c -1.66305,2.091888 -3.09871,4.028372 -3.19035,4.303297 -0.2348,0.704402 0.0927,1.313364 0.90197,1.677269 0.55862,0.251186 1.43063,0.310906 5.27524,0.361274 4.20988,0.05515 4.59798,0.08606 4.51283,0.359434 -0.13365,0.429137 -1.45938,5.156639 -1.69883,6.058019 l -0.20162,0.758929 H 121.1418 c -18.11797,0 -19.10754,-0.01626 -19.02086,-0.3125 z m 59.93263,-23.78112 c 0,-0.09078 -0.92411,-4.100862 -2.05357,-8.911303 -1.12946,-4.810442 -2.05357,-8.798948 -2.05357,-8.863349 0,-0.0644 -0.077,-0.06952 -0.17104,-0.01138 -0.18134,0.11207 -14.489,17.347393 -14.71654,17.727868 -0.10613,0.177455 1.82717,0.223214 9.43061,0.223214 5.73461,0 9.56411,-0.06609 9.56411,-0.165048 z"
       id="path60854"
       transform="translate(46.613191,129.6829)" />
    <path
       style="fill:#cdc112;fill-opacity:1;stroke-width:0.178571"
       d="M 47.232143,62.396704 C 31.588251,61.41397 21.581255,56.74745 17.584892,48.571429 c -1.354655,-2.771441 -1.686374,-4.265902 -1.684564,-7.589286 0.0022,-4.039307 0.650639,-6.65705 2.676144,-10.803572 2.532627,-5.184676 6.56003,-9.578871 12.226566,-13.340088 9.961648,-6.612137 23.444423,-9.9191795 38.929105,-9.5484956 2.40625,0.057603 5.138393,0.1933486 6.071429,0.3016577 5.29826,0.6150353 8.812144,1.9021521 11.342448,4.1546789 l 0.958716,0.853466 1.572632,-2.057497 1.572632,-2.0574968 6.473214,-0.00133 c 3.560266,-7.296e-4 6.472796,0.058941 6.472286,0.1326019 -5.4e-4,0.073661 -1.23604,4.5535719 -2.74563,9.9553579 l -2.744697,9.821428 -6.500276,0.0468 -6.500277,0.0468 0.161243,-1.825616 c 0.318976,-3.611497 -0.406166,-6.006579 -2.444722,-8.074687 -2.615566,-2.653484 -6.596223,-3.878924 -12.5951,-3.877385 -7.443,0.0019 -12.876377,1.835501 -17.896503,6.039496 -4.509481,3.776368 -8.097586,10.437608 -9.456158,17.555158 -0.49413,2.588741 -0.428623,6.084573 0.143965,7.68273 1.551623,4.330763 4.849003,7.138525 10.006618,8.520768 1.607037,0.430688 2.019105,0.465534 5.661751,0.478784 3.215302,0.0117 4.187943,-0.04537 5.357143,-0.314293 3.04704,-0.700848 5.173936,-2.193752 6.196298,-4.349289 0.603554,-1.272523 1.928702,-6.349889 1.928702,-7.389909 0,-0.803068 -0.38741,-1.284625 -1.39958,-1.7397 -0.536407,-0.241172 -1.44862,-0.305039 -5.073634,-0.35523 C 63.863839,40.80363 61.875,40.741705 61.875,40.699675 c 0,-0.09077 1.12182,-4.116164 1.625741,-5.833604 l 0.353668,-1.205357 h 22.849582 c 12.56727,0 22.849579,0.04057 22.849579,0.09016 0,0.101686 -1.0865,4.009545 -1.62574,5.847343 l -0.35367,1.205357 -3.16208,0.0031 c -4.625364,0.0045 -6.436103,0.499217 -7.368299,2.012975 -0.463058,0.751937 -1.395367,3.743437 -3.37865,10.841068 -0.891927,3.191964 -1.742188,6.225446 -1.889468,6.741071 l -0.267782,0.9375 h -5.507586 -5.507586 l -0.580295,-2.008929 c -0.31916,-1.10491 -0.635785,-2.070051 -0.70361,-2.144757 -0.06782,-0.0747 -0.736974,0.213879 -1.486997,0.641298 -5.57081,3.174663 -14.081725,4.806934 -24.686093,4.734442 -1.964285,-0.01343 -4.575892,-0.08751 -5.803571,-0.164636 z"
       id="path60893"
       transform="translate(46.613191,129.6829)" />
    <path
       style="fill:#cdc112;fill-opacity:1;stroke-width:0.0631345"
       d="m 639.56924,158.15613 c 0,-0.0662 0.085,-0.54619 0.18894,-1.06659 0.27083,-1.35625 0.33811,-2.09786 0.2961,-3.26398 -0.0537,-1.49107 -0.28701,-2.63005 -0.76971,-3.75781 -0.86591,-2.02308 -2.88139,-3.49853 -5.86245,-4.29167 -1.25772,-0.33463 -2.56475,-0.50642 -4.60154,-0.60481 l -0.8681,-0.0419 v -3.52792 -3.52792 h 9.83858 c 5.41122,0 11.54258,0.0188 13.62524,0.0418 l 3.78666,0.0418 0.58475,4.51968 c 0.95246,7.36176 1.6486,12.98198 1.6486,13.30983 0,0.0353 -0.10654,0.0811 -0.23676,0.10186 -1.40137,0.22338 -17.00715,2.18811 -17.38008,2.18811 -0.20409,0 -0.25023,-0.0222 -0.25023,-0.12042 z"
       id="path60932" />
    <path
       style="fill:#cdc112;fill-opacity:1;stroke-width:0.0631345"
       d="m 628.00212,157.49433 -0.005,-5.44536 h 1.53625 1.53625 l -1.49638,5.35733 c -0.82301,2.94653 -1.51208,5.39694 -1.53127,5.44535 -0.0192,0.0484 -0.0371,-2.36238 -0.0399,-5.35732 z"
       id="path61123" />
    <path
       style="fill:#cdc112;fill-opacity:1;stroke-width:0.0631345"
       d="m 380.56326,145.20006 c 0.76393,-0.024 1.69438,-0.0473 2.06766,-0.0517 l 0.6787,-0.008 v -3.48834 -3.48835 l -15.7205,0.023 c -11.49986,0.0168 -15.7205,0.004 -15.7205,-0.0472 0,-0.0513 4.76673,-0.0701 17.7166,-0.0701 h 17.7166 l -0.0364,0.14205 c -0.02,0.0781 -0.47052,1.69753 -1.00113,3.59867 l -0.96476,3.45661 -3.06262,-0.0115 c -2.59412,-0.01 -2.85015,-0.0182 -1.67367,-0.0551 z"
       id="path2556" />
  </g>
</svg>
