<svg height="158.338" viewBox="0 0 458.9205 110.8366" width="655.60071" xmlns="http://www.w3.org/2000/svg" xmlns:xlink="http://www.w3.org/1999/xlink"><filter id="a" color-interpolation-filters="sRGB" height="1.17583" width="1.041647" x="-.016839" y="-.077719"><feOffset dx="3" dy="3"/><feGaussianBlur result="blur" stdDeviation="3"/><feFlood result="flood"/><feComposite in="flood" in2="SourceGraphic" operator="in" result="composite"/><feBlend in="blur" in2="composite" mode="normal"/></filter><filter id="b" color-interpolation-filters="sRGB" height="2.217238" width="1.677281" x="-.28345" y="-.509381"><feOffset dx="3" dy="3"/><feGaussianBlur result="blur" stdDeviation="3"/><feFlood result="flood"/><feComposite in="flood" in2="SourceGraphic" operator="in" result="composite"/><feBlend in="blur" in2="composite" mode="normal"/></filter><filter id="c" color-interpolation-filters="sRGB" height="2.271361" width="1.767021" x="-.320998" y="-.532052"><feOffset dx="3" dy="3"/><feGaussianBlur result="blur" stdDeviation="3"/><feFlood result="flood"/><feComposite in="flood" in2="SourceGraphic" operator="in" result="composite"/><feBlend in="blur" in2="composite" mode="normal"/></filter><mask id="d" maskUnits="userSpaceOnUse"><path d="m.71428571 18.179021.46845139 31.113486 89.7307499-9.463686 102.354853 12.686671 94.51633-9.749214 74.3922-5.796257 86.98261-2.570057 47.63437 2.162572 78.0997 5.622999c50.39374.972058 69.01706-16.100071 79.0725-38.0383705-184.33098-20.6392615-427.15578-14.1204327-653.25176429 14.0318565z" style="opacity:.98;stroke-linecap:round;stroke-linejoin:round;stroke-width:5;fill:#fff;stroke:#fff"/></mask><linearGradient id="e" gradientUnits="userSpaceOnUse" x1="11.240744" x2="465.72974" y1="137.98703" y2="-159.84305"><stop offset="0" stop-color="#3cb200"/><stop offset=".13002832" stop-color="#3cb200"/><stop offset=".21639141" stop-color="#dbec4d" stop-opacity="0"/><stop offset=".29247087" stop-color="#87cd24" stop-opacity="0"/><stop offset=".37815478" stop-color="#3cb300"/><stop offset=".47616729" stop-color="#3aaf00"/><stop offset=".54729474" stop-color="#3cb300"/><stop offset=".66125804" stop-color="#b6e100" stop-opacity="0"/><stop offset="1" stop-color="#ff0" stop-opacity="0"/></linearGradient><mask id="f" maskUnits="userSpaceOnUse"><path d="m7.3038382.04620775h460.9205118v112.83660225h-460.9205118z" fill="#fff"/><path d="m95.561627 70.377082-.0093-15.089293 19.078753-.02133c13.20316 2.30536 8.06157 16.042519 0 15.066986zm-.122874-27.453292-.0083-14.446332 16.847027-.02043c11.65872 2.207128 7.11857 15.358941 0 14.424975z" stroke="#000"/></mask><mask id="g" maskUnits="userSpaceOnUse"><path d="m7.3038382.04620775h460.9205118v112.83660225h-460.9205118z" fill="#fff"/><path d="m95.561627 70.377082-.0093-15.089293 19.078753-.02133c13.20316 2.30536 8.06157 16.042519 0 15.066986zm-.122874-27.453292-.0083-14.446332 16.847027-.02043c11.65872 2.207128 7.11857 15.358941 0 14.424975z" stroke="#000"/></mask><g fill="#fff" fill-opacity=".5" stroke-width="1.75"><path d="m390.21334 61.732183q0 .168-.0406.2828-.0602.1708-.1932.1708-.0882 0-.1848-.0406-.1162-.049-.1274-.1204.0392 0 .0924.014.1232.0322.154.0322.119 0 .1792-.119.0476-.0952.0476-.2282 0-.0938-.0616-.2674-.0602-.175-.0602-.2436 0-.021.0112-.0336.0126-.014.0336-.014.0546 0 .1064.252.0434.2128.0434.315z"/><path d="m390.75234 61.874983q0 .1428-.0826.224-.0826.0812-.2282.0812-.0798 0-.1232-.0378-.0434-.0378-.0434-.1162 0-.1106.1442-.2226.1372-.1064.2534-.1064.0532 0 .07.0658.01.0378.01.112zm-.0854.0392q0-.0168-.004-.0322-.003-.0168-.0112-.0378-.0224.0154-.0742.0756-.0266.0308-.0462.0448 0-.0266.006-.0434.0112-.0238.0182-.0406-.0616 0-.1288.0518-.0658.0518-.0658.112 0 .0406.0448.0406.0854 0 .1652-.042.0966-.0504.0966-.1288z"/><path d="m391.32914 61.932383q0 .0686-.0518.154-.0588.0966-.1218.0966-.0182 0-.0308-.0196-.0112-.021-.0112-.0406 0-.0252.0532-.0784.0546-.0546.0546-.0742 0-.0126-.004-.0252-.004-.0126-.006-.0168-.105.0238-.2142.1204-.1078.0966-.1638.1092-.0112-.0308-.0112-.063 0-.0392.0182-.0826.0126-.0308.042-.0742.049-.0742.1036-.168.028-.049.0966-.1694.07-.1204.1022-.1708.0168-.0252.0294-.0378.0182-.0168.0434-.0224.0168.0056.0238.021.008.0154.008.0364 0 .0476-.0616.1288-.112.1456-.1148.1512-.063.0952-.063.1722l.003.014q.077-.0378.091-.0434.0574-.0238.098-.0238.0448 0 .0658.0308.021.0294.021.0756z"/><path d="m391.97874 61.849783q0 .0952-.0462.203-.0504.119-.1246.1638-.0154-.0182-.0266-.0406-.01-.0224-.01-.0448 0-.0238.07-.1414.0308-.0518.028-.091l-.001-.0182q-.0518.0154-.1792.0938-.126.077-.2548.1568-.0196 0-.0364-.014-.0154-.0154-.0154-.0336 0-.0294.0938-.1974.028-.0504.1008-.175.0224.0294.0294.0658.007.035.007.084 0 .021 0 .0322.1288-.077.2016-.1162.0798-.0434.1092-.0434.0196 0 .0364.0448.0182.0448.0182.0714z"/><path d="m393.19534 62.121383q0 .0252-.0224.0392-.021.0126-.0476.0126-.0238 0-.0602-.0056-.0826-.0126-.1064-.0126-.042 0-.1652.0098-.07.0056-.1008.0056-.0854 0-.0854-.0854 0-.0812.0532-.2324.0294-.0854.1106-.28.0728-.175.0924-.2464.007-.0224.0112-.0294.0112-.0168.028-.0168.0266 0 .0448.0392.0182.0378.0182.0686 0 .049-.0574.1652-.0574.1148-.112.2254-.0602.1316-.0602.2002 0 .035.0294.049.021.0098.0616.0098.0308 0 .1064-.007.0756-.0084.1008-.0084.063 0 .1036.0182.0574.0252.0574.0812z"/><path d="m393.71614 61.874983q0 .1428-.0826.224-.0826.0812-.2282.0812-.0798 0-.1232-.0378-.0434-.0378-.0434-.1162 0-.1106.1442-.2226.1372-.1064.2534-.1064.0532 0 .07.0658.01.0378.01.112zm-.0854.0392q0-.0168-.004-.0322-.003-.0168-.0112-.0378-.0224.0154-.0742.0756-.0266.0308-.0462.0448 0-.0266.006-.0434.0112-.0238.0182-.0406-.0616 0-.1288.0518-.0658.0518-.0658.112 0 .0406.0448.0406.0854 0 .1652-.042.0966-.0504.0966-.1288z"/><path d="m394.30554 61.845583q0 .0448-.0238.0952-.0224.0504-.0574.084l-.001-.0196q0-.0168.004-.0518.004-.035.004-.0518 0-.0238-.007-.035-.007-.0126-.0294-.0126-.0658 0-.1638.1022-.1064.112-.2114.2226-.008 0-.0168-.0014-.021-.0056-.028-.007.004-.0504.035-.112.0826-.1666.0854-.1778.0112-.0448.0168-.0658.006-.021.0154-.0434.0112-.0238.0252-.042.0154-.0196.0392-.0294l.014.168q.0602-.049.0924-.0756.0616-.049.1064-.049.0448 0 .0728.0294.028.0294.028.0728z"/><path d="m394.99294 61.683183q0 .0588-.1568.1554-.1512.0924-.2198.0924-.0322 0-.0434-.0224-.01-.0224-.01-.063 0-.0266 0-.0378.0938 0 .1708-.028.077-.028.1344-.0924-.042-.0154-.0854-.0154-.1022 0-.217.0784-.126.0854-.126.182 0 .0924.126.1288.0196.0056.2366.0392.1274.0196.1274.0686 0 .021-.0462.0336-.0462.014-.1176.014-.1792 0-.2828-.0546-.1372-.0728-.1372-.2338 0-.168.168-.2674.1428-.084.3248-.084.0546 0 .0994.0252.0546.0308.0546.0812z"/><path d="m395.55014 61.432583q0 .0308-.0742.1288-.0742.098-.0742.1498 0 .0266.0308.0532.07.0616.07.0756 0 .0182-.0126.035-.0112.0168-.0294.0168-.0154 0-.0434-.0168-.0196-.0112-.0756-.0546-.021.0406-.0322.0616-.0392.0742-.0532.1078-.021.0644-.042.1288-.0364.0868-.091.0868l-.001-.0322q0-.0994.0644-.2352.0126-.0252.07-.1302-.1106-.0602-.2436-.0602 0-.0518.021-.0756.0224-.0252.0742-.0252.0476 0 .119.0168.035.0084.07.0168.0266-.0084.0728-.091.1134-.1988.154-.2282.0112.0182.0182.0364.008.0182.008.035z"/><path d="m396.06674 61.932383q0 .0686-.0518.154-.0588.0966-.1218.0966-.0182 0-.0308-.0196-.0112-.021-.0112-.0406 0-.0252.0532-.0784.0546-.0546.0546-.0742 0-.0126-.004-.0252-.004-.0126-.006-.0168-.105.0238-.2142.1204-.1078.0966-.1638.1092-.0112-.0308-.0112-.063 0-.0392.0182-.0826.0126-.0308.042-.0742.049-.0742.1036-.168.028-.049.0966-.1694.07-.1204.1022-.1708.0168-.0252.0294-.0378.0182-.0168.0434-.0224.0168.0056.0238.021.008.0154.008.0364 0 .0476-.0616.1288-.112.1456-.1148.1512-.063.0952-.063.1722l.003.014q.077-.0378.091-.0434.0574-.0238.098-.0238.0448 0 .0658.0308.021.0294.021.0756z"/><path d="m397.21614 61.475983q0 .0658-.07.1764-.0448.07-.147.2016-.1022.1302-.1274.1708.004.0014.105.0336.1022.0308.1022.112-.042.007-.0826.0126l-.0154-.0014v-.0112q-.0224-.0056-.0364-.0056-.0266 0-.084.0084-.0574.0084-.0868.0084-.0378 0-.0616-.014-.0238-.014-.0238-.0504 0-.0294.1078-.1666.2016-.2562.203-.259.1092-.1484.1092-.1988 0-.0196-.014-.0294-.0126-.0098-.0518-.0098-.0266 0-.1106.0518-.0406.0252-.0658.0252l-.0238-.0042q-.008-.0056-.0182-.021-.01-.0168-.01-.0266 0-.0588.1134-.1078.0966-.042.168-.042.0602 0 .0924.0448.028.0392.028.1022z"/><path d="m398.05754 61.727983q0 .1694-.1834.2996-.168.119-.3458.119-.0882 0-.14-.0448-.0518-.0448-.0518-.1302 0-.1904.1666-.3304.1582-.133.3542-.133.0994 0 .1498.0588.0504.0588.0504.161zm-.0854.0322q0-.0644-.0728-.0966-.0546-.0238-.1302-.0238-.1106 0-.231.1078-.1204.1078-.1204.217 0 .0448.0224.0644.0238.0182.0714.0182.1372 0 .2856-.0756.175-.0896.175-.2114z"/><path d="m398.69874 61.475983q0 .0658-.07.1764-.0448.07-.147.2016-.1022.1302-.1274.1708.004.0014.105.0336.1022.0308.1022.112-.042.007-.0826.0126l-.0154-.0014v-.0112q-.0224-.0056-.0364-.0056-.0266 0-.084.0084-.0574.0084-.0868.0084-.0378 0-.0616-.014-.0238-.014-.0238-.0504 0-.0294.1078-.1666.2016-.2562.203-.259.1092-.1484.1092-.1988 0-.0196-.014-.0294-.0126-.0098-.0518-.0098-.0266 0-.1106.0518-.0406.0252-.0658.0252l-.0238-.0042q-.008-.0056-.0182-.021-.01-.0168-.01-.0266 0-.0588.1134-.1078.0966-.042.168-.042.0602 0 .0924.0448.028.0392.028.1022z"/><path d="m399.34274 61.475983q0 .0658-.07.1764-.0448.07-.147.2016-.1022.1302-.1274.1708.004.0014.105.0336.1022.0308.1022.112-.042.007-.0826.0126l-.0154-.0014v-.0112q-.0224-.0056-.0364-.0056-.0266 0-.084.0084-.0574.0084-.0868.0084-.0378 0-.0616-.014-.0238-.014-.0238-.0504 0-.0294.1078-.1666.2016-.2562.203-.259.1092-.1484.1092-.1988 0-.0196-.014-.0294-.0126-.0098-.0518-.0098-.0266 0-.1106.0518-.0406.0252-.0658.0252l-.0238-.0042q-.008-.0056-.0182-.021-.01-.0168-.01-.0266 0-.0588.1134-.1078.0966-.042.168-.042.0602 0 .0924.0448.028.0392.028.1022z"/></g><g fill="#000005" transform="translate(-8.303838 .953792)"><g transform="scale(1.023744 .97680671)"><path d="m38.305542 94.8419h1.022946.22853v2.76413h2.905601v-2.76413h1.512653v7.26944h-1.512653v-3.090598h-2.905601v3.090598h-1.501771v-5.027665-2.241775z"/><path d="m52.6159 97.943384q.01088.119707.01088.250296.01088.119706.01088.239412 0 2.546478-2.089421 3.536778-.805298.29383-1.501771.29383-1.251476 0-2.241774-.92501-1.142652-1.27324-1.142652-2.829421 0-.685591.22853-1.425594.794415-2.285304 3.03619-2.44854 3.232072.02176 3.689133 3.308249zm-5.310611.794416q.06529 1.38206 1.120887 1.94795h.05441q.04353.0218.07618.0327.04353.0109.08706.0218l.04353.0218.22853.0544q2.002362-.0109 2.089421-2.056776.01088-.09794.01088-.185 0-.09794 0-.185001 0-2.230892-2.045891-2.317951-1.675889.326472-1.675889 2.328833 0 .08706 0 .174119 0 .07618.01088.163236z"/><path d="m54.455018 94.820136h1.839125l.07618.119706.03265.05441.04353.05441.07618.119706q.08706.08706.130588.174119.05441.07618.07618.130589.04353.04353.05441.09794l.141471.141471.03265.07618.06529.09794.03265.04353.01088.05441q.119706.08706.163236.185001l.03265.07618.07618.08706.06529.09794.01088.04353q.130589.130589.152354.195884l.02177.04353q.03265.04353.05441.08706.02177.03265.04353.05441l.03265.04353.07618.130589.04353.02177.02177.05441q.05441.08706.09794.152353.04353.05441.06529.09794l.05441-.02177.02177-.06529.304707-.413532.05441-.08706.195883-.293825q.108824-.108824.141471-.22853l.06529-.07618.05441-.05441.06529-.108824.05441-.03265.04353-.08706q.05441-.108824.119707-.174119l.04353-.09794q.04353-.05441.07618-.08706.03265-.03265.05441-.05441l.02176-.05441.04353-.06529.03265-.03265.02177-.06529q.02176-.02177.04353-.04353.02177-.03265.04353-.06529l.04353-.05441.174119-.27206h1.937067v7.269446h-1.425594q-.08706-.0218-.08706-.0762 0-.0435.01088-.0544v-4.84267q0-.06529-.01088-.108824 0-.05441-.01088-.108824l-.09794.108824q-.02176.06529-.07618.119706-.05441.08706-.09794.163236-.04353.06529-.08706.119707l-.07618.119706-.380884.54412-.174118.27206-.05441.07618q-.04353.06529-.08706.119706-.04353.04353-.08706.08706l-.03265.07618q-.05441.08706-.119706.174119-.05441.07618-.119707.141471l-.03265.08706-.05441.05441-.02177.05441q-.04353.07618-.08706.130589-.04353.04353-.08706.07618-.02177.07618-.05441.130588-.03265.04353-.05441.08706-.08706.119706-.163236.217648-.07618.09794-.141471.163228-.04353-.07616-.08706-.119699-.03265-.05441-.05441-.07618l-.01088-.06529-.05441-.05441-.03265-.04353-.02177-.06529-.06529-.07618-.07618-.119706-.03265-.03265q-.08706-.09794-.130589-.163236l-.05441-.119707-.08706-.119706q-.02177-.02177-.02177-.03265l.01088-.01088q-.04353-.04353-.08706-.08706-.03265-.04353-.07618-.09794-.05441-.08706-.108824-.163236-.04353-.07618-.07618-.130589l-.07618-.09794-.05441-.07618-.04353-.07618q-.09794-.07618-.141471-.206766l-.05441-.06529-.09794-.174119-.06529-.05441q-.04353-.05441-.07618-.09794-.03265-.05441-.05441-.08706l-.02176-.05441-.05441-.06529-.01088-.05441q-.03265-.03265-.04353-.06529-.04353-.01088-.04353-.02177-.02176-.02177-.02176-.03265l.01088-.01088-.261177-.326472v5.212666h-.02177.02177-.04353.02177-.04353.02176-.04353.02176-.03265.01088-.03265.02177-.04353.02176-.04353.02177-.04353.02176-.03265.01088-.03265.02177-.04353.02176-.04353.02177-.04353.02177-.03265.01088-.03265.02176-.04353.02177-.04353.02176-.03265.01088-.03265.02177-.03265.01088-.03265.02176-.04353.02177-.04353.02176-.03265.01088-.03265.02176-.04353.02176-.04353.02176-.03265.01088-.03265.02176-.04353.02176-.04353.02177-.04353.02177-.03265.01088-.03265.02176-.04353.02177-.04353.02177-.04353.02176-.03265.01088-.03265.02177-.04353.02176-.04353.02177-.03265.01088-.02177.01088-.03265.02176-.04353.02177-.04353.02176-.04353.02177-.03265.01088-.03265.02176-.04353.02176-.04353.02177-.04353.02177-.03265.01088-.03265.02177-.04353.02177-.04353.02176-.03265.01088-.03265.02177-.04353.02177-.04353.02176-.04353.02177-.03265.01088-.02176.01088-.03265.02177-.04353.02177-.04353.02176-.03265.01088-.03265.02177-.04353.02176-.04353.02177-.04353.02177-.03265.01088-.03265.02177-.04353.02177-.04353.02177-.04353.02176-.02176v-7.269439z"/><path d="m64.031537 94.820136h4.712079v1.447359h-3.275603v1.458241h2.970895v1.3603h-2.970895v1.512654q.03265.0653.108824.0653h3.460603v1.44736h-5.060315v-5.441196-1.850008z"/><path d="m71.279221 94.820136h3.232072l.0653.02176h.054407l.152353.02177.304707.07618q.81618.359119 1.164417 1.066475.195883.457061.195883.848827 0 .772651-.750885 1.295006.805297.380884.990298 1.153534.02176.152354.03265.304707.01088.141472.01088.282943 0 1.458242-1.3603 2.045882h-.05441q-.228531.10883-.424414.11971l-.130589.0327-.05441.0218h-3.689133v-5.441192-1.850008zm1.218828 2.927365h1.752067l.108824-.02177q.522355-.261177.522355-.72912 0-.05441-.01088-.09794 0-.05441-.01088-.108824-.119706-.282942-.326472-.446178-.05441-.01088-.09794-.03265-.03265-.02176-.07618-.04353l-.0653-.02177h-.119706q-.04353-.01088-.08706-.01088-.03265 0-.06529 0h-1.523536zm0 2.938249h1.599713q.337354 0 .413531-.0435.58765-.30471.58765-.870593 0-.04353-.01088-.07618 0-.03265 0-.07618-.141471-.467943-.533237-.674709-.05441-.01088-.119707-.02177-.06529-.01088-.119706-.03265h-1.817361z"/><path d="m78.668369 94.809253h3.253838q.05441.01088.08706.02177.04353 0 .07618 0 .02176 0 .02176 0 .01088-.01088.03265-.01088l.239412.04353.03265.01088h.05441l.03265.02176.293824.09794q.870592.457061 1.164417 1.273241.130589.457061.130589.859709 0 1.349418-1.447359 2.013244l.04353.02176q.04353.08706.07618.174118.04353.07618.08706.130589l.05441.108824q.04353.0653.05441.108824l.08706.119707q.05441.08706.08706.163236.04353.06529.08706.141465.108824.14147.141471.27206.05441.0762.09794.14147.05441.0653.07618.11971.06529.11971.09794.19588l.03265.0544.03265.0653.06529.0653.130589.2503q.06529.0979.09794.16323l.06529.098.02177.0435.02176.0544q.08706.13059.141472.25029.06529.10883.108824.20677h-1.730306l-.02177-.0327-.03265-.0435-.02177-.0435-.130589-.22853-.01088-.0435q-.09794-.0871-.119706-.21765-.119707-.1197-.152354-.25029-.05441-.0762-.09794-.14147-.03265-.0653-.05441-.13059l-.05441-.0653-.0653-.1197-.03265-.0762q-.05441-.0762-.108824-.13059-.04353-.0544-.06529-.10882-.04353-.0871-.07618-.14147-.03265-.0653-.05441-.10883l-.02177-.0653q-.108824-.10882-.152354-.23941l-.04353-.05441-.01088-.06529-.04353-.02177-.04353-.119706q-.03265-.01088-.03265-.03265l.01088-.01088q-.152333-.185016-.217628-.337369h-.957651v2.829425h-1.490889v-7.280327zm1.338535 3.079719h1.839126l.217648-.06529q.511472-.293825.511472-.805298 0-.03265-.01088-.06529 0-.03265 0-.07618-.141471-.435296-.50059-.631179h-.04353l-.04353-.01088-.250296-.0653h-1.719419z"/><path d="m86.188115 94.820136h4.712079v1.447359h-3.275603v1.458241h2.970895v1.3603h-2.970895v1.512654q.03265.0653.108824.0653h3.460603v1.44736h-5.060315v-5.441196-1.850008z"/><path d="m92.630501 94.8419h1.164417q.08706 0 .163236.01088.07618 0 .141471.01088v.05441l.07618.31559.02177.119706q0 .02177 0 .03265.01088.01088.01088.02177 0 .01088.01088.01088l.02177.05441.03265.130588.05441.304708.02177.04353v.05441q.07618.141471.07618.326472l.03265.09794v.06529q.04353.08706.05441.174119.02177.07618.03265.152353l.03265.08706.02176.09794.02176.119706q.04353.119707.05441.239413.02176.108824.03265.195883.02177.0653.04353.130589.02177.0653.03265.130589.02176.05441.02176.108824.01088.05441.02177.108824.02177.08706.04353.163236.02177.07618.03265.163236.04353.119706.05441.217648.02176.08706.04353.174118.05441.163236.06529.304708l.02176.09794.05441.185001.02177.130589.07618.27206.02177-.08706.02177-.06529v-.05441l.01088-.06529q.02177-.09794.04353-.174119.02176-.08706.04353-.163236v-.07618l.01088-.05441.06529-.250296v-.05441l.01088-.07618.01088-.06529.02177-.05441v-.04353l.04353-.141472v-.05441q.01088-.108824.03265-.195883.04353-.07618.04353-.163236.02177-.119706.04353-.206765.02176-.09794.03265-.174119l.02177-.09794.02176-.06529.108824-.54412.01088-.09794.02177-.05441q.02176-.07618.03265-.130589.01088-.05441.02177-.108824v-.06529l.04353-.152353.07618-.380884.02177-.04353.03265-.217648.02177-.05441v-.06529l.06529-.195883q.01088-.08706.02177-.163236.01088-.07618.03265-.130589l.01088-.119707h1.752066l.02176.130589.03265.141471v.07618q.07618.250295.09794.424414l.0653.27206.05441.22853.01088.09794.02177.130589.01088.108824.02177.119706.04353.09794.02177.119706.01088.08706v.05441q.06529.152354.06529.27206 0 .02177 0 .03265.01088 0 .01088.01088 0 .01088.01088.01088l.01088.03265v.06529l.04353.152353.03265.217648.04353.119707.02177.119706v.05441l.03265.152354.01088.108824q.06529.163236.06529.282942l.01088.08706q.06529.152354.06529.239413l.02176.05441.01088.163236.04353.152354.02177.108824q.07618.141471.07618.380884l.05441-.108824v-.07618l.03265-.163236.04353-.108824q.01088-.08706.02177-.152354.01088-.06529.03265-.119706l.04353-.152354.01088-.108824.02177-.03265.02176-.141471.07618-.261178.02177-.130588.03265-.141472.02177-.130588.04353-.130589.01088-.07618.03265-.152354.119707-.478825.02176-.108824.03265-.152354.04353-.130589.02177-.119706.03265-.119706.02177-.06529v-.07618l.02176-.07618.03265-.09794.03265-.22853.04353-.152354.03265-.141471v-.04353l.0218-.05441.0218-.06529v-.05441l.0326-.141471.0218-.04353v-.06529q.0762-.141472.0762-.304708h1.5453v.05441l-.0218.119707-.0544.152353-.0218.130589-.0653.27206-.0109.04353q-.0218.119706-.0435.206765-.0218.08706-.0435.163236-.0109.05441-.0218.108824-.0109.04353-.0218.07618l-.11971.500591-.0218.05441v.06529l-.0109.108824-.0435.152354q-.0218.06529-.0326.119706-.0109.05441-.0218.09794l-.0218.04353-.0218.141471q-.0218.07618-.0327.141472 0 .06529-.0109.119706-.0544.119706-.0653.195883l-.0109.07618-.0218.05441q-.0109.05441-.0218.108824-.0109.04353-.0218.07618l-.0218.119706-.0109.07618-.0218.04353-.0218.119706-.0762.27206-.0653.326472-.0218.141471-.0435.141471-.0218.108824-.0109.08706-.0435.08706-.0435.22853-.0544.23942-.0218.0653q-.0327.21765-.0979.35912v.0762q-.0435.0762-.0435.23941l-.0218.0653-.0218.0544-.0326.15235-.0218.13059-.0762.27206-.0218.13059-.0762.34823h-1.458212q-.03265 0-.07618 0-.03265.0109-.06529.0109-.174119 0-.304707-.0327v-.0544l-.01088-.0435v-.0544l-.02177-.0544-.04353-.22853-.09794-.43529-.01088-.14147q-.04353-.13059-.0653-.23942-.01088-.10882-.02176-.19588l-.08706-.30471-.01088-.13059-.02177-.13059-.04353-.119705v-.07618l-.05441-.217648v-.06529q-.08706-.261178-.09794-.435296l-.04353-.119706v-.09794q-.01088-.01088-.01088-.05441l-.02177-.03265-.07618-.413531-.01088-.07618-.06529-.31559-.03265-.141471-.02177-.08706v-.07618l-.02177-.07618-.03265-.130588v-.05441l-.04353-.152354-.04353-.130589-.01088.05441-.02177.108824-.02176.08706-.01088.108824-.07618.35912-.04353.130588v.05441l-.07618.31559-.02177.141471-.03265.163236-.04353.141471-.01088.152354-.04353.163236-.04353.217648q-.05441.217648-.06529.359119l-.03265.119706-.02176.09794v.05442q-.04353.0762-.04353.185-.03265.0979-.03265.185l-.04353.0871-.04353.27206-.01088.0979-.02177.0653-.07618.34824-.05441.26118-.02176.1197-.03265.14147-.06529.31559h-1.469124q-.03265 0-.06529 0-.03265.0109-.0653.0109-.163236 0-.293825-.0327l-.02176-.15236q-.08706-.25029-.09794-.43529-.02177-.0327-.03265-.14147l-.04353-.14147-.03265-.16324-.04353-.13059-.02176-.15235-.02177-.0762q-.02176-.0653-.03265-.10882 0-.0544-.01088-.0871-.01088-.0109-.01088-.0653l-.02176-.0762-.08706-.32647v-.07618q-.07618-.141471-.07618-.337354-.02177-.08706-.04353-.163236-.02176-.07618-.03265-.152354l-.04353-.09794-.01088-.163236q-.02176-.02177-.02176-.05441l-.08706-.380884-.04353-.141471v-.06529q-.02177-.119706-.04353-.174118-.01088-.06529-.01088-.07618-.01088-.02177-.02177-.05441-.01088-.03265-.02177-.07618l-.03265-.130589-.02177-.141471q-.05441-.130589-.06529-.239413-.02177-.119706-.04353-.195883-.01088-.07618-.02177-.119706-.01088-.02177-.01088-.05441 0-.03265-.01088-.05441l-.043554-.09794-.01088-.08706-.02176-.108824-.02176-.09794q-.01088-.01088-.01088-.09794l-.04353-.07618-.05441-.304707q-.05441-.130589-.06529-.239413-.03265-.108824-.03265-.195883-.08706-.228531-.09794-.402649-.05441-.119706-.0653-.206766v-.119706q-.04353-.108824-.06529-.206766z"/></g><g transform="matrix(1.0490269 0 0 .95326442 -2 0)"><path d="m128.25895 97.150678h5.67596v1.471958h-2.10758v5.988194h-1.55001v-5.988194h-2.09643v-1.471958z"/><path d="m135.58528 97.184131h1.27124v7.448999h-1.52772v-5.151852-2.297147z"/><path d="m139.36554 97.150678h3.22269l.0446.01115h.0558l.13382.0223.0558.0223.27878.05576q1.57232.769432 1.57232 2.285996 0 .245326-.0335.490656-.59101 1.97376-2.47557 1.97376-.23417 0-.5018-.0335h-.98131v2.60938h-1.53886v-7.437854zm1.37159 3.423422h1.63923q.21187-.0446.21187-.0558.61332-.36799.61332-.936701 0-.07806-.0223-.167268-.0112-.100361-.0335-.223024-.17842-.412594-.56871-.579862h-.0669q-.25647-.06691-.46835-.06691h-1.30469z"/><path d="m146.53575 97.161829h1.27124v5.965891h3.2896v1.48311h-4.82847v-7.449001z"/><path d="m152.54625 97.161829h4.82847v1.483109h-3.35651v1.494262h3.04428v1.3939h-3.04428v1.55002q.0334.0669.11151.0669h3.54608v1.48311h-5.18531v-5.575597-1.895704z"/></g><g stroke-width=".999997" transform="matrix(1.0147365 0 0 .98547746 -2 0)"><path d="m119.04973 94.028971h1.3807v4.541201l.11865.409895q.48541.830575 1.34834.895296.91687-.07551 1.35913-.809003v-.06472q.0539-.140227.0863-.280454.0432-.140227.0539-.291241.0108-.07551.0108-.140227.0108-.07551.0108-.140227v-4.12052h1.47777v4.638281q-.0108.05393-.0216.08629 0 .03236 0 .05393l-.0216.04315q-.0216.118654-.0431.226521-.0108.09708-.0324.183374-.43147 1.186543-1.41306 1.725873-.74428.38832-1.4562.38832-.47462 0-.92766-.1618-2.08183-.78743-2.08183-3.160504 0-.291241.0324-.614842v-3.43017z"/><path d="m127.3447 93.985824h1.22968v5.770885h3.18208v1.434631h-4.67064v-7.205516z"/></g><path d="m115.38079 89.891997h1.74354l.0722.113484.031.05158.0413.05158.0722.113485q.0825.08254.1238.165069.0516.07222.0722.123802.0413.04127.0516.09285l.13412.134118.0309.07222.0619.09285.031.04127.0103.05158q.11349.08253.15475.175386l.0309.07222.0722.08253.0619.09285.0103.04127q.1238.123802.14443.185703l.0206.04127q.031.04127.0516.08253.0206.03095.0413.05158l.031.04127.0722.123802.0413.02063.0206.05158q.0516.08253.0928.144435.0413.05158.0619.09285l.0516-.02063.0206-.0619.28887-.392039.0516-.08253.1857-.278554q.10317-.103168.13412-.216653l.0619-.07222.0516-.05158.0619-.103168.0516-.03095.0413-.08253q.0516-.103168.11348-.165069l.0413-.09285q.0413-.05158.0722-.08253.0309-.03095.0516-.05158l.0206-.05158.0413-.0619.031-.03095.0206-.0619q.0206-.02063.0413-.04127.0206-.03095.0413-.0619l.0413-.05158.16507-.25792h1.83639v6.891622h-1.3515q-.0825-.02063-.0825-.07222 0-.04127.0103-.05158v-4.590976q0-.0619-.0103-.103168 0-.05158-.0103-.103168l-.0928.103168q-.0206.0619-.0722.113485-.0516.08253-.0928.154752-.0413.0619-.0825.113485l-.0722.113485-.36108.51584-.16507.25792-.0516.07222q-.0413.0619-.0825.113485-.0413.04127-.0825.08253l-.031.07222q-.0516.08253-.11348.165069-.0516.07222-.11349.134118l-.031.08254-.0516.05158-.0206.05158q-.0413.07222-.0825.123801-.0413.04127-.0825.07222-.0206.07222-.0516.123802-.0309.04127-.0516.08253-.0825.113485-.15475.206336-.0722.09285-.13412.154752-.0413-.07222-.0825-.113485-.031-.05158-.0516-.07222l-.0103-.0619-.0516-.05158-.031-.04127-.0206-.0619-.0619-.07222-.0722-.113485-.031-.03095q-.0825-.09285-.1238-.154752l-.0516-.113485-.0825-.113485q-.0206-.02063-.0206-.03095l.0103-.01032q-.0413-.04127-.0825-.08253-.031-.04127-.0722-.09285-.0516-.08253-.10317-.154752-.0413-.07222-.0722-.123802l-.0722-.09285-.0516-.07222-.0413-.07222q-.0928-.07222-.13411-.19602l-.0516-.0619-.0928-.165069-.0619-.05158q-.0413-.05158-.0722-.09285-.031-.05158-.0516-.08253l-.0206-.05158-.0516-.0619-.0103-.05158q-.031-.03095-.0413-.0619-.0413-.01032-.0413-.02063-.0206-.02063-.0206-.03095l.0103-.01032-.2476-.309504v4.941747h-.0206.0206-.0413.0206-.0413.0206-.0413.0206-.0309.0103-.0309.0206-.0413.0206-.0413.0206-.0413.0206-.0309.0103-.0309.0206-.0413.0206-.0413.0206-.0413.0206-.0309.0103-.0309.0206-.0413.0206-.0413.0206-.0309.0103-.0309.0206-.031.0103-.031.0206-.0413.0206-.0413.0206-.031.0103-.031.0206-.0413.0206-.0413.0206-.031.0103-.031.0206-.0413.0206-.0413.0206-.0413.0206-.031.0103-.031.0206-.0413.0206-.0413.0206-.0413.0206-.031.0103-.0309.0206-.0413.0206-.0413.0206-.031.0103-.0206.0103-.031.0206-.0413.0206-.0413.0206-.0413.0206-.031.0103-.031.0206-.0413.0206-.0413.0206-.0413.0206-.031.0103-.031.0206-.0413.0206-.0413.0206-.031.0103-.031.0206-.0413.0206-.0413.0206-.0413.0206-.031.0103-.0206.0103-.0309.0206-.0413.0206-.0413.0206-.0309.0103-.0309.0206-.0413.0206-.0413.0206-.0413.0206-.0309.0103-.031.0206-.0413.0206-.0413.0206-.0413.0206-.0206v-6.891622z" transform="matrix(.97053639 0 0 1.0303581 -2 0)"/><g stroke-width=".999992" transform="scale(1.0157008 .9845419)"><path d="m266.00956 94.075174h1.82468l.0756.118766.0324.05398.0432.05398.0756.118766q.0864.08638.12957.172751.054.07558.0756.129562.0432.04319.054.09717l.14036.140359.0324.07558.0648.09717.0324.04319.0108.05398q.11877.08638.16195.183547l.0324.07558.0756.08637.0648.09717.0108.04319q.12956.129563.15116.194344l.0216.04319q.0324.04319.054.08638.0216.03239.0432.05398l.0324.04319.0756.129563.0432.02159.0216.05398q.054.08638.0972.151157.0432.05398.0648.09717l.054-.02159.0216-.06478.30231-.410282.054-.08638.19435-.291516q.10797-.107969.14036-.226735l.0648-.07558.054-.05398.0648-.107969.054-.03239.0432-.08638q.054-.107969.11876-.172751l.0432-.09717q.0432-.05398.0756-.08638.0324-.03239.054-.05398l.0216-.05398.0432-.06478.0324-.03239.0216-.06478q.0216-.02159.0432-.04319.0216-.03239.0432-.06478l.0432-.05398.17275-.269923h1.92185v7.212327h-1.41439q-.0864-.0216-.0864-.0756 0-.0432.0108-.054v-4.804621q0-.06478-.0108-.107969 0-.05398-.0108-.107969l-.0972.107969q-.0216.06478-.0756.118766-.054.08638-.0972.161954-.0432.06478-.0864.118766l-.0756.118765-.37789.539845-.17275.269923-.054.07558q-.0432.06478-.0864.118766-.0432.04319-.0864.08638l-.0324.07558q-.054.08637-.11877.17275-.054.07558-.11876.14036l-.0324.08638-.054.05398-.0216.05398q-.0432.07558-.0864.129563-.0432.04319-.0864.07558-.0216.07558-.054.129563-.0324.04319-.054.08637-.0864.118766-.16195.215938-.0756.09717-.14036.161954-.0432-.07558-.0864-.118766-.0324-.05398-.054-.07558l-.0108-.06478-.054-.05398-.0324-.04319-.0216-.06478-.0648-.07558-.0756-.118766-.0324-.03239q-.0864-.09717-.12956-.161954l-.054-.118766-.0864-.118766q-.0216-.02159-.0216-.03239l.0108-.0108q-.0432-.04319-.0864-.08638-.0324-.04319-.0756-.09717-.054-.08638-.10797-.161953-.0432-.07558-.0756-.129563l-.0756-.09717-.054-.07558-.0432-.07558q-.0972-.07558-.14036-.205141l-.054-.06478-.0972-.172751-.0648-.05398q-.0432-.05398-.0756-.09717-.0324-.05398-.054-.08638l-.0216-.05398-.054-.06478-.0108-.05398q-.0324-.03239-.0432-.06478-.0432-.0108-.0432-.02159-.0216-.02159-.0216-.03239l.0108-.0108-.25912-.323907v5.17171h-.0216.0216-.0432.0216-.0432.0216-.0432.0216-.0324.0108-.0324.0216-.0432.0216-.0432.0216-.0432.0216-.0324.0108-.0324.0216-.0432.0216-.0432.0216-.0432.0216-.0324.0108-.0324.0216-.0432.0216-.0432.0216-.0324.0108-.0324.0216-.0324.0108-.0324.0216-.0432.0216-.0432.0216-.0324.0108-.0324.0216-.0432.0216-.0432.0216-.0324.0108-.0324.0216-.0432.0216-.0432.0216-.0432.0216-.0324.0108-.0324.0216-.0432.0216-.0432.0216-.0432.0216-.0324.0108-.0324.0216-.0432.0216-.0432.0216-.0324.0108-.0216.0108-.0324.0216-.0432.0216-.0432.0216-.0432.0216-.0324.0108-.0324.0216-.0432.0216-.0432.0216-.0432.0216-.0324.0108-.0324.0216-.0432.0216-.0432.0216-.0324.0108-.0324.0216-.0432.0216-.0432.0216-.0432.0216-.0324.0108-.0216.0108-.0324.0216-.0432.0216-.0432.0216-.0324.0108-.0324.0216-.0432.0216-.0432.0216-.0432.0216-.0324.0108-.0324.0216-.0432.0216-.0432.0216-.0432.0216-.0216v-7.212324z"/><path d="m277.13038 94.075174h1.81388v.05398q.0432.08638.0648.161953.0324.07558.0432.151157l.0432.129563.0216.07558q.0108.0108.0108.05399.0216.08637.0324.08637.0108-.0108.0108.03239.054.08638.054.140359l.11876.31311v.04319q.0432.08638.0648.17275.0324.07558.0432.161954.054.118766.0756.205141.0324.08638.0432.151156.0108.02159.0108.05398.0108.03239.0216.05398l.0432.07558q.0216.05398.0324.09717.0108.03239.0216.05398v.06478q.0216.02159.0216.05398.0432.06478.054.14036l.10797.302313.0216.07558.0216.04319.0324.17275.0432.07558.0432.08638.0108.06478.0216.07558.0432.107969q.0108.04319.0216.08638.0108.03239.0216.06478v.05398q.0216.06478.0324.107969.0216.04319.0432.107969l.11876.302313.0216.107969.054.107969.0432.118766v.05398l.0324.06478.0216.07558.0216.08638q.0756.172751.11876.31311.0432.14036.0648.259126.0216.02159.0216.05398.15115.323907.19434.56144l.0216.054.0216.0756.0216.0864.0216.054.0108.0756q.0216.054.0324.0648.0108.0108.0108.0432 0 .0216 0 .0324.0108 0 .0108.0108 0 .0108.0108.0108l.0324.0648v.054q0 .0216 0 .0324.0108 0 .0108.0108 0 .0108.0108.0108.054.0864.0648.15116.0216.0756.0432.12956.0216.054.0324.0972l.0324.11877h-1.64113l-.0324-.11877v-.0756l-.0432-.054v-.0648q-.0216-.0432-.0324-.0756 0-.0432-.0108-.0648-.0108-.0108-.0108-.0432l-.0432-.054v-.054l-.0216-.0864-.054-.11877-.12956-.47506h-2.69923l-.0216.0864-.0216.0972-.0324.0756q-.0108.054-.0216.10797-.0108.0432-.0324.0864l-.0324.12956-.0648.19434-.0108.0756-.0216.0432q-.0324.11876-.0648.16195l-.054.22674h-1.61953l.0324-.15116.0648-.19434.0108-.0648.0216-.0432.0216-.054.0216-.0432.0972-.30232.0216-.054v-.054l.0216-.0864.0432-.0756.054-.205137.0432-.107969.0324-.09717q.0324-.107969.0648-.194345.0324-.08638.054-.151156l.054-.161954q.0216-.107969.054-.194344.0324-.08638.054-.151157.0216-.05398.0324-.08638.0216-.03239.0324-.05398l.0324-.161954.0648-.129563.0324-.151156.0216-.03239q.0216-.107969.0432-.183547.0324-.08637.0756-.161954l.0216-.151156.16195-.410282.0324-.129563.0216-.05398.0216-.06478q.054-.183547.11876-.291516l.0216-.118766.0216-.05398v-.06478l.0216-.05398.12957-.345501.0216-.107969.0432-.08637.0324-.07558q.0432-.205141.0972-.302313l.0216-.09717.0324-.09717q.0216-.107969.054-.194345.0324-.08638.054-.140359l.0216-.08638.0216-.07558q.0216-.05398.0432-.09717.0216-.05398.0324-.09717l.0648-.194344.0108-.06478.15116-.431876zm.80977 1.662723-.054.215938-.0216.03239-.0972.334704-.0972.323907-.0216.04319-.11877.410282-.0216.07558-.11877.323907-.0324.09717q-.0216.151156-.0648.259125-.0108.107969-.0648.205141l-.0216.07558q-.0324.151156-.0756.194344l-.10797.410282h1.91105l-.0432-.151156-.11876-.356298-.0972-.323907q-.0324-.08638-.054-.161954-.0216-.08638-.0432-.140359l-.0108-.03239q-.0216-.09717-.0432-.151157-.0216-.06478-.0324-.08638l-.0108-.06478-.0216-.07558-.0432-.09717-.0216-.118766-.0108-.07558-.0432-.04319-.0216-.118766-.0108-.07558q-.0216-.03239-.0324-.06478 0-.03239-.0108-.05398l-.0216-.06478q-.0216-.06478-.054-.129563-.0216-.06478-.0432-.140359l-.0108-.06478-.0108-.03239-.0432-.161953-.0216-.06478-.0972-.237532z"/><path d="m288.81263 96.169773-.0756.05398-.32391.118766-.0756.04319-.0756.02159q-.12957.08638-.23754.09717l-.0972.02159-.0432.04319h-.054l-.0324.03239h-.054l-.0432.04319h-.054l-.0432.04319-.0756.0108-.20514.07558q-.38869-1.42519-1.66273-1.42519-.11876 0-.24833.02159-.12956.0108-.28071.03239-1.29563.485861-1.29563 1.911051v.06478q-.0324.259125-.0324.48586 0 1.155269.76658 1.824676.49665.334704 1.0365.334704.38869 0 .52905-.07558 1.0257-.334704 1.17686-1.338816.18355.03239.29152.107969.0864.02159.16195.05398.0864.02159.16195.06478l.0756.04319.11877.02159.054.02159.12956.05398.0756.02159.054.04319q.0432.0108.0756.02159.0432.0108.0864.03239l.21594.07558q-.75578 2.083807-2.8072 2.267357-.0864.0108-.18354.0108-.0864 0-.17275 0-1.84627 0-2.7964-1.42519-.66941-1.187671-.66941-2.353736 0-.410282.0864-.809767.0864-.410283.24833-.820565.80976-1.857067 2.67763-2.105395.0864 0 .15115 0 .0756-.0108.16196-.0108 2.49408 0 3.30385 2.245755z"/><path d="m290.74526 94.096768h1.01491.22674v2.742413h2.88277v-2.742413h1.50077v7.212332h-1.50077v-3.066322h-2.88277v3.066322h-1.48998v-4.98817-2.224162z"/><path d="m298.84294 94.096768h1.23085v7.212332h-1.47918v-4.98817-2.224162z"/><path d="m302.40592 94.064378h1.59794l.0756.129562.0756.107969.0756.118766.0756.107969.0756.118766.054.05399.0216.06478q.0216.02159.0216.03239.12957.161953.18355.280719.14036.161954.19434.28072l.0756.09717.0648.118765q.0324.04319.054.07558.0216.02159.0432.04319l.0216.06478q.0756.07558.0972.151156.18355.194345.25913.399486l.0756.107969q.0216.02159.0216.03239v.0108q.0756.07558.11877.151157.054.06478.0972.129563l.0648.118766.054.09717.0756.118766.0864.07558.054.09717.0432.08637q.10797.129563.16195.259126l.054.07558.0432.06478.054.05399q.0432.07558.0756.129563.0324.05398.054.107969l.054.05398.0432.05398.0108.05398.0432.02159q.054.129563.14036.215938l.0108.05398q.0216.02159.0216.03239.0864.08638.14036.183548.0648.09717.10797.183547l.0108-.14036v-4.675057h1.48998v7.201529h-1.24165.0324-.47506l-.0216-.0324q-.0864-.0864-.0972-.15116-.0324-.0108-.0324-.0324l.0108-.0108q-.17275-.17275-.24833-.35629-.0216-.0216-.0216-.0324l.0108-.0108-.0756-.10797q-.11877-.10797-.16196-.22673l-.0972-.11877-.0648-.11877-.0756-.140353q-.12956-.14036-.19434-.259125l-.0324-.04319q-.0432-.08638-.0864-.151157-.0432-.06478-.0864-.118766l-.0108-.03239-.0432-.05398-.17275-.269922q-.0324-.04319-.054-.07558-.0216-.04319-.0432-.06478-.0216-.02159-.0216-.03239l.0108-.0108-.0432-.02159-.0756-.129563-.0216-.04319q-.0648-.08638-.0864-.140359-.054-.04319-.0648-.09717l-.0756-.07558-.0648-.118766-.0432-.09717-.0324-.0108-.25913-.388688-.0216-.06478-.0432-.07558-.054-.05398-.0432-.06478-.0216-.05398q-.054-.05398-.0972-.09717-.0324-.04319-.054-.08638l-.0432-.07558q-.0864-.107969-.0972-.194344-.0432-.0108-.0432-.04319l-.0432-.02159-.0108-.04319-.0756-.129563-.18355-.248329v4.826215h-1.47917v-.96092-6.240612z"/><path d="m310.96787 94.075174h4.67506v1.435988h-3.24987v1.446785h2.94755v1.349612h-2.94755v1.500769q.0324.06478.10797.06478h3.43341v1.435992h-5.02056v-5.398455-1.835473z"/></g><g stroke-width=".999993" transform="translate(6)"><g transform="scale(1.0095754 .99051539)"><path d="m317.10521 93.507837h4.64687v1.427329h-3.23027v1.438062h2.92978v1.341475h-2.92978v1.49172q.0322.06439.10732.06439h3.41271v1.427327h-4.99029v-5.365898-1.824406z"/><path d="m324.07015 93.507837h1.81368l.0751.11805.0322.05366.0429.05366.0751.11805q.0858.08585.12878.171708.0537.07512.0751.128782.0429.04293.0537.09659l.13951.139514.0322.07512.0644.09659.0322.04293.0107.05366q.11805.08585.16097.18244l.0322.07512.0751.08585.0644.09659.0107.04293q.12879.128781.15025.193172l.0215.04293q.0322.04293.0537.08586.0215.03219.0429.05366l.0322.04293.0751.128781.0429.02146.0215.05366q.0537.08585.0966.150245.0429.05366.0644.09659l.0537-.02146.0215-.06439.30049-.407808.0537-.08586.19317-.289758q.10732-.107318.13951-.225368l.0644-.07512.0537-.05366.0644-.107318.0537-.0322.0429-.08586q.0537-.107318.11805-.171708l.0429-.09659q.0429-.05366.0751-.08585.0322-.0322.0537-.05366l.0215-.05366.0429-.06439.0322-.0322.0215-.06439q.0215-.02146.0429-.04293.0215-.0322.0429-.06439l.0429-.05366.17171-.268295h1.91026v7.168846h-1.40587q-.0858-.0215-.0858-.0751 0-.0429.0107-.0537v-4.775656q0-.06439-.0107-.107318 0-.05366-.0107-.107318l-.0966.107318q-.0215.06439-.0751.11805-.0537.08585-.0966.160977-.0429.06439-.0858.118049l-.0751.11805-.37561.53659-.17171.268295-.0537.07512q-.0429.06439-.0858.11805-.0429.04293-.0858.08585l-.0322.07512q-.0537.08585-.11805.171708-.0537.07512-.11805.139514l-.0322.08585-.0537.05366-.0215.05366q-.0429.07512-.0858.128782-.0429.04293-.0859.07512-.0215.07512-.0537.128782-.0322.04293-.0537.08585-.0859.11805-.16098.214636-.0751.09659-.13952.160977-.0429-.07512-.0858-.118049-.0322-.05366-.0537-.07512l-.0107-.06439-.0537-.05366-.0322-.04293-.0215-.06439-.0644-.07512-.0751-.11805-.0322-.0322q-.0858-.09659-.12878-.160977l-.0537-.118049-.0858-.11805q-.0215-.02146-.0215-.0322l.0107-.01073q-.0429-.04293-.0859-.08585-.0322-.04293-.0751-.09659-.0537-.08585-.10732-.160977-.0429-.07512-.0751-.128782l-.0751-.09659-.0537-.07512-.0429-.07512q-.0966-.07512-.13951-.203904l-.0537-.06439-.0966-.171709-.0644-.05366q-.0429-.05366-.0751-.09659-.0322-.05366-.0537-.08585l-.0215-.05366-.0537-.06439-.0107-.05366q-.0322-.0322-.0429-.06439-.0429-.01073-.0429-.02146-.0215-.02146-.0215-.0322l.0107-.01073-.25757-.321954v5.140535h-.0215.0215-.0429.0215-.0429.0215-.0429.0215-.0322.0107-.0322.0215-.0429.0215-.0429.0215-.0429.0215-.0322.0107-.0322.0215-.0429.0215-.0429.0215-.0429.0215-.0322.0107-.0322.0215-.0429.0215-.0429.0215-.0322.0107-.0322.0215-.0322.0107-.0322.0215-.0429.0215-.0429.0215-.0322.0107-.0322.0215-.0429.0215-.0429.0215-.0322.0107-.0322.0215-.0429.0215-.0429.0215-.0429.0215-.0322.0107-.0322.0215-.0429.0215-.0429.0215-.0429.0215-.0322.0107-.0322.0215-.0429.0215-.0429.0215-.0322.0107-.0215.0107-.0322.0215-.0429.0215-.0429.0215-.0429.0215-.0322.0107-.0322.0215-.0429.0215-.0429.0215-.0429.0215-.0322.0107-.0322.0215-.0429.0215-.0429.0215-.0322.0107-.0322.0215-.0429.0215-.0429.0215-.0429.0215-.0322.0107-.0215.0107-.0322.0215-.0429.0215-.0429.0215-.0322.0107-.0322.0215-.0429.0215-.0429.0215-.0429.0215-.0322.0107-.0322.0215-.0429.0215-.0429.0215-.0429.0215-.0215v-7.168845z"/><path d="m333.46049 93.550764h1.37367v4.518088l.11805.407808q.48293.826349 1.34147.89074.91221-.07512 1.35221-.804885v-.06439q.0537-.139513.0858-.279027.0429-.139513.0537-.289758.0107-.07512.0107-.139514.0107-.07512.0107-.139513v-4.099548h1.47025v4.614674q-.0107.05366-.0215.08586 0 .0322 0 .05366l-.0215.04293q-.0215.11805-.0429.225368-.0107.09659-.0322.18244-.42927 1.180498-1.40586 1.717093-.7405.38634-1.4488.38634-.47219 0-.92293-.16098-2.07124-.783418-2.07124-3.144414 0-.289759.0322-.611713v-3.412712z"/><path d="m341.71324 93.507837h1.22342v5.741513h3.16588v1.42733h-4.64687v-7.168843z"/></g><path d="m350.06554 93.507837h1.80294v.05366q.0429.08585.0644.160977.0322.07512.0429.150245l.0429.128782.0215.07512q.0107.01073.0107.05366.0215.08586.0322.08586.0107-.01073.0107.03219.0537.08586.0537.139514l.11805.311222v.04293q.0429.08585.0644.171709.0322.07512.0429.160977.0537.11805.0751.203904.0322.08585.0429.150245.0107.02146.0107.05366.0107.0322.0215.05366l.0429.07512q.0215.05366.0322.09659.0107.03219.0215.05366v.06439q.0215.02146.0215.05366.0429.06439.0537.139513l.10732.300491.0215.07512.0215.04293.0322.171709.0429.07512.0429.08585.0107.06439.0215.07512.0429.107318q.0107.04293.0215.08585.0107.0322.0215.06439v.05366q.0215.06439.0322.107318.0215.04293.0429.107318l.11805.30049.0215.107318.0537.107318.0429.11805v.05366l.0322.06439.0215.07512.0215.08586q.0751.171709.11805.311222.0429.139513.0644.257563.0215.02146.0215.05366.15025.321954.19317.558054l.0215.05366.0215.07512.0215.08586.0215.05366.0107.07512q.0215.05366.0322.06439.0107.01073.0107.04293 0 .02147 0 .0322.0107 0 .0107.0107 0 .0107.0107.0107l.0322.0644v.0537q0 .0215 0 .0322.0107 0 .0107.0107 0 .0107.0107.0107.0537.0858.0644.15025.0215.0751.0429.12878.0215.0537.0322.0966l.0322.11805h-1.63124l-.0322-.11805v-.0751l-.0429-.0537v-.0644q-.0215-.0429-.0322-.0751 0-.0429-.0107-.0644-.0107-.0107-.0107-.0429l-.0429-.0537v-.0537l-.0215-.0859-.0537-.118-.12878-.472199h-2.68295l-.0215.08585-.0215.09659-.0322.07512q-.0107.05366-.0215.107318-.0107.04293-.0322.08585l-.0322.128741-.0644.19317-.0107.0751-.0215.0429q-.0322.11805-.0644.16098l-.0537.22536h-1.60977l.0322-.15024.0644-.19317.0107-.0644.0215-.0429.0215-.0537.0215-.0429.0966-.300444.0215-.05366v-.05366l.0215-.08586.0429-.07512.0537-.203904.0429-.107318.0322-.09659q.0322-.107318.0644-.193172.0322-.08585.0537-.150245l.0537-.160977q.0215-.107318.0537-.193173.0322-.08585.0537-.150245.0215-.05366.0322-.08585.0215-.0322.0322-.05366l.0322-.160977.0644-.128782.0322-.150245.0215-.0322q.0215-.107318.0429-.182441.0322-.08585.0751-.160977l.0215-.150245.16097-.407809.0322-.128781.0215-.05366.0215-.06439q.0537-.182441.11805-.289759l.0215-.118049.0215-.05366v-.06439l.0215-.05366.12878-.343418.0215-.107318.0429-.08585.0322-.07512q.0429-.203904.0966-.30049l.0215-.09659.0322-.09659q.0215-.107318.0537-.193172.0322-.08585.0537-.139513l.0215-.08585.0215-.07512q.0215-.05366.0429-.09659.0215-.05366.0322-.09659l.0644-.193172.0107-.06439.15024-.429272zm.80488 1.652697-.0537.214636-.0215.0322-.0966.332685-.0966.321954-.0215.04293-.11805.407808-.0215.07512-.11805.321954-.0322.09659q-.0215.150245-.0644.257563-.0107.107318-.0644.203904l-.0215.07512q-.0322.150245-.0751.193172l-.10732.407809h1.89953l-.0429-.150246-.11805-.354149-.0966-.321954q-.0322-.08585-.0537-.160977-.0215-.08585-.0429-.139513l-.0107-.0322q-.0215-.09659-.0429-.150245-.0215-.06439-.0322-.08585l-.0107-.06439-.0215-.07512-.0429-.09659-.0215-.11805-.0107-.07512-.0429-.04293-.0215-.118049-.0107-.07512q-.0215-.03219-.0322-.06439 0-.03219-.0107-.05366l-.0215-.06439q-.0215-.06439-.0537-.128781-.0215-.06439-.0429-.139514l-.0107-.06439-.0107-.0322-.0429-.160977-.0215-.06439-.0966-.236099z" transform="scale(1.0095754 .99051541)"/><g transform="scale(1.0537506 .94899113)"><path d="m340.60304 97.588177h5.70151v1.478585h-2.11706v6.015148h-1.557v-6.015148h-2.10586v-1.478585z"/><path d="m354.29114 100.81418q.0112.12322.0112.25763.0112.12322.0112.24643 0 2.62113-2.15067 3.64046-.8289.30244-1.54579.30244-1.28816 0-2.30749-.95212-1.17615-1.31057-1.17615-2.91237 0-.70568.23523-1.46738.81771-2.352294 3.12519-2.520315 3.32682.0224 3.79728 3.405225zm-5.46628.8177q.0672 1.42258 1.15374 2.00505h.056q.0448.0224.0784.0336.0448.0112.0896.0224l.0448.0224.23523.056q2.06106-.0112 2.15067-2.11706.0112-.10082.0112-.19043 0-.10081 0-.19042 0-2.296289-2.10586-2.3859-1.72502.336042-1.72502 2.3971 0 .0896 0 .17922 0 .0784.0112.16802z"/><path d="m356.24017 97.588177h3.34922q.056.0112.0896.0224.0448 0 .0784 0 .0224 0 .0224 0 .0112-.0112.0336-.0112l.24643.0448.0336.0112h.056l.0336.0224.30243.100812q.89612.470459 1.19855 1.310564.13442.470459.13442.884911 0 1.388976-1.48979 2.072256l.0448.0224q.0448.0896.0784.17922.0448.0784.0896.13442l.056.11201q.0448.0672.056.11201l.0896.12322q.056.0896.0896.16802.0448.0672.0896.14562.11201.14562.14562.28003.056.0784.10081.14562.056.0672.0784.12322.0672.12321.10081.20162l.0336.056.0336.0672.0672.0672.13442.25763q.0672.10081.10081.16802l.0672.10081.0224.0448.0224.056q.0896.13441.14562.25763.0672.11201.11201.21282h-1.78102l-.0224-.0336-.0336-.0448-.0224-.0448-.13441-.23523-.0112-.0448q-.10081-.0896-.12321-.22402-.12322-.12322-.15682-.25764-.056-.0784-.10081-.14561-.0336-.0672-.056-.13442l-.056-.0672-.0672-.12322-.0336-.0784q-.056-.0784-.11201-.13441-.0448-.056-.0672-.11202-.0448-.0896-.0784-.14561-.0336-.0672-.056-.11202l-.0224-.0672q-.11202-.11201-.15682-.24643l-.0448-.056-.0112-.0672-.0448-.0224-.0448-.12321q-.0336-.0112-.0336-.0336l.0112-.0112q-.15682-.19042-.22403-.34724h-.98572v2.91236h-1.5346v-7.493735zm1.37778 3.169993h1.89303l.22403-.0672q.52647-.30244.52647-.828908 0-.0336-.0112-.06721 0-.0336 0-.07841-.14562-.448056-.51527-.649681h-.0448l-.0448-.0112-.25763-.06721h-1.76982z"/></g></g><g stroke-width=".999992" transform="scale(1.0331243 .96793774)"><path d="m214.53129 95.68896h1.845v.05491q.0439.08786.0659.164732.0329.07688.0439.153749l.0439.131785.022.07688q.011.01098.011.05491.022.08786.0329.08786.011-.01098.011.03295.0549.08786.0549.142767l.12081.318481v.04393q.0439.08786.0659.175714.0329.07688.0439.164731.0549.120803.0769.20866.0329.08786.0439.15375.011.02196.011.05491.011.03295.022.05491l.0439.07687q.022.05491.0329.09884.011.03295.022.05491v.06589q.022.02196.022.05491.0439.06589.0549.142767l.10982.307499.022.07688.022.04393.0329.175714.0439.07687.0439.08786.011.06589.022.07687.0439.109821q.011.04393.022.08786.011.03295.022.06589v.05491q.022.06589.0329.109821.022.04393.0439.109821l.1208.307498.022.10982.0549.10982.0439.1208v.0549l.0329.0659.022.0769.022.0879q.0769.17571.1208.31848.0439.14276.0659.26357.022.022.022.0549.15375.32946.19768.57107l.022.0549.022.0769.022.0879.022.0549.011.0769q.022.0549.0329.0659.011.011.011.0439 0 .022 0 .0329.011 0 .011.011 0 .011.011.011l.0329.0659v.0549q0 .022 0 .0329.011 0 .011.011 0 .011.011.011.0549.0879.0659.15375.022.0769.0439.13178.022.0549.0329.0988l.0329.12081h-1.66928l-.0329-.12081v-.0769l-.0439-.0549v-.0659q-.022-.0439-.0329-.0769 0-.0439-.011-.0659-.011-.011-.011-.0439l-.0439-.0549v-.0549l-.022-.0879-.0549-.1208-.13179-.48321h-2.74552l-.022.0879-.022.0988-.0329.0769q-.011.0549-.022.10982-.011.0439-.0329.0879l-.0329.13179-.0659.19768-.011.0769-.022.0439q-.0329.1208-.0659.16473l-.0549.23063h-1.64731l.0329-.15375.0659-.19768.011-.0659.022-.0439.022-.0549.022-.0439.0988-.3075.022-.0549v-.0549l.022-.0879.0439-.0769.0549-.20866.0439-.10982.0329-.0988q.0329-.10982.0659-.19768.0329-.0879.0549-.15375l.0549-.16473q.022-.10982.0549-.19768.0329-.0878.0549-.15375.022-.0549.0329-.0878.022-.0329.0329-.0549l.0329-.16474.0659-.13178.0329-.15375.022-.03295q.022-.109821.0439-.186696.0329-.08786.0769-.164731l.022-.15375.16473-.417319.0329-.131786.022-.05491.022-.06589q.0549-.186695.12081-.296516l.022-.120804.022-.05491v-.06589l.022-.05491.13178-.351427.022-.109821.0439-.08786.0329-.07688q.0439-.20866.0988-.307499l.022-.09884.0329-.09884q.022-.109821.0549-.197678.0329-.08786.0549-.142767l.022-.08786.022-.07687q.022-.05491.0439-.09884.022-.05491.0329-.09884l.0659-.197678.011-.06589.15375-.439284zm.82366 1.691243-.0549.219642-.022.03295-.0988.340446-.0988.329463-.022.04393-.12081.41732-.022.07687-.1208.329463-.0329.09884q-.022.15375-.0659.263571-.011.109821-.0659.20866l-.022.07687q-.0329.15375-.0769.197682l-.10982.41732h1.94384l-.0439-.15375-.12081-.362413-.0988-.329463q-.0329-.08786-.0549-.164731-.022-.08786-.0439-.142768l-.011-.03295q-.022-.09884-.0439-.153749-.022-.06589-.0329-.08786l-.011-.06589-.022-.07687-.0439-.09884-.022-.120803-.011-.07688-.0439-.04393-.022-.120804-.011-.07687q-.022-.03295-.0329-.06589 0-.03295-.011-.05491l-.022-.06589q-.022-.06589-.0549-.131785-.022-.06589-.0439-.142767l-.011-.06589-.011-.03295-.0439-.164732-.022-.06589-.0988-.241607z"/><path d="m220.37378 95.677978h3.28364q.0549.01098.0879.02196.0439 0 .0769 0 .022 0 .022 0 .011-.01098.0329-.01098l.2416.04393.0329.01098h.0549l.0329.02196.29652.09884q.87857.461249 1.17509 1.284906.13178.461248.13178.867586 0 1.36178-1.46062 2.03169l.0439.022q.0439.0879.0769.17571.0439.0769.0879.13179l.0549.10982q.0439.0659.0549.10982l.0879.1208q.0549.0879.0879.16473.0439.0659.0879.14277.10982.14277.14277.27455.0549.0769.0988.14277.0549.0659.0769.1208.0659.12081.0988.19768l.0329.0549.0329.0659.0659.0659.13178.25258q.0659.0988.0988.16474l.0659.0988.022.0439.022.0549q.0879.13179.14277.25259.0659.10982.10982.20866h-1.74615l-.022-.0329-.0329-.0439-.022-.0439-.13178-.23062-.011-.0439q-.0988-.0879-.12081-.21965-.1208-.1208-.15375-.25258-.0549-.0769-.0988-.14277-.0329-.0659-.0549-.13179l-.0549-.0659-.0659-.1208-.0329-.0769q-.0549-.0769-.10982-.13178-.0439-.0549-.0659-.10982-.0439-.0879-.0769-.14277-.0329-.0659-.0549-.10982l-.022-.0659q-.10982-.10982-.15375-.24161l-.0439-.0549-.011-.0659-.0439-.022-.0439-.1208q-.0329-.011-.0329-.0329l.011-.011q-.15375-.18669-.21964-.34044h-.96643v2.85534h-1.50454v-7.347027zm1.35079 3.107934h1.85598l.21964-.06589q.51616-.296516.51616-.812675 0-.03295-.011-.06589 0-.03295 0-.07687-.14277-.439284-.50518-.636962h-.0439l-.0439-.01098-.25258-.06589h-1.73518z"/><path d="m234.10141 97.819487-.0769.05491-.32946.120803-.0769.04393-.0769.02196q-.13178.08786-.2416.09884l-.0988.02196-.0439.04393h-.0549l-.0329.03295h-.0549l-.0439.04393h-.0549l-.0439.04393-.0769.01098-.20866.07688q-.39536-1.449637-1.69124-1.449637-.12081 0-.25259.02196-.13179.01098-.28554.03295-1.31785.494195-1.31785 1.943832v.06589q-.0329.263571-.0329.494195 0 1.17508.77973 1.85597.50518.34045 1.05429.34045.39535 0 .53812-.0769 1.0433-.34044 1.19705-1.36178.18669.0329.29651.10982.0879.022.16473.0549.0879.022.16474.0659l.0769.0439.1208.022.0549.022.13179.0549.0769.022.0549.0439q.0439.011.0769.022.0439.011.0879.0329l.21964.0769q-.76875 2.11955-2.85535 2.30624-.0879.011-.18669.011-.0879 0-.17572 0-1.87794 0-2.84436-1.44963-.68089-1.20803-.68089-2.394098 0-.41732.0879-.823657.0879-.41732.25258-.83464.82366-1.888921 2.72357-2.141509.0878 0 .15374 0 .0769-.01098.16474-.01098 2.53686 0 3.36052 2.284277z"/><path d="m237.48389 95.68896h1.84499v.05491q.0439.08786.0659.164732.0329.07688.0439.153749l.0439.131785.022.07688q.011.01098.011.05491.022.08786.0329.08786.011-.01098.011.03295.0549.08786.0549.142767l.12081.318481v.04393q.0439.08786.0659.175714.0329.07688.0439.164731.0549.120803.0769.20866.0329.08786.0439.15375.011.02196.011.05491.011.03295.022.05491l.0439.07687q.022.05491.0329.09884.011.03295.022.05491v.06589q.022.02196.022.05491.0439.06589.0549.142767l.10982.307499.022.07688.022.04393.0329.175714.0439.07687.0439.08786.011.06589.022.07687.0439.109821q.011.04393.022.08786.011.03295.022.06589v.05491q.022.06589.0329.109821.022.04393.0439.109821l.1208.307498.022.10982.0549.10982.0439.1208v.0549l.0329.0659.022.0769.022.0879q.0769.17571.1208.31848.0439.14276.0659.26357.022.022.022.0549.15375.32946.19768.57107l.022.0549.022.0769.022.0879.022.0549.011.0769q.022.0549.0329.0659.011.011.011.0439 0 .022 0 .0329.011 0 .011.011 0 .011.011.011l.0329.0659v.0549q0 .022 0 .0329.011 0 .011.011 0 .011.011.011.0549.0879.0659.15375.022.0769.0439.13178.022.0549.0329.0988l.0329.12081h-1.66927l-.0329-.12081v-.0769l-.0439-.0549v-.0659q-.022-.0439-.0329-.0769 0-.0439-.011-.0659-.011-.011-.011-.0439l-.0439-.0549v-.0549l-.022-.0879-.0549-.1208-.13179-.48321h-2.74552l-.022.0879-.022.0988-.0329.0769q-.011.0549-.022.10982-.011.0439-.0329.0879l-.0329.13179-.0659.19768-.011.0769-.022.0439q-.0329.1208-.0659.16473l-.0549.23063h-1.64731l.0329-.15375.0659-.19768.011-.0659.022-.0439.022-.0549.022-.0439.0988-.3075.022-.0549v-.0549l.022-.0879.0439-.0769.0549-.20866.0439-.10982.0329-.0988q.0329-.10982.0659-.19768.0329-.0879.0549-.15375l.0549-.16473q.022-.10982.0549-.19768.0329-.0878.0549-.15375.022-.0549.0329-.0878.022-.0329.0329-.0549l.0329-.16474.0659-.13178.0329-.15375.022-.03295q.022-.109821.0439-.186696.0329-.08786.0769-.164731l.022-.15375.16473-.417319.0329-.131786.022-.05491.022-.06589q.0549-.186695.12081-.296516l.022-.120804.022-.05491v-.06589l.022-.05491.13178-.351427.022-.109821.0439-.08786.0329-.07688q.0439-.20866.0988-.307499l.022-.09884.0329-.09884q.022-.109821.0549-.197678.0329-.08786.0549-.142767l.022-.08786.022-.07687q.022-.05491.0439-.09884.022-.05491.0329-.09884l.0659-.197678.011-.06589.15375-.439284zm.82365 1.691243-.0549.219642-.022.03295-.0988.340446-.0988.329463-.022.04393-.12081.41732-.022.07687-.1208.329463-.0329.09884q-.022.15375-.0659.263571-.011.109821-.0659.20866l-.022.07687q-.0329.15375-.0769.197682l-.10983.41732h1.94384l-.0439-.15375-.1208-.362413-.0988-.329463q-.0329-.08786-.0549-.164731-.022-.08786-.0439-.142768l-.011-.03295q-.022-.09884-.0439-.153749-.022-.06589-.0329-.08786l-.011-.06589-.022-.07687-.0439-.09884-.022-.120803-.011-.07688-.0439-.04393-.022-.120804-.011-.07687q-.022-.03295-.0329-.06589 0-.03295-.011-.05491l-.022-.06589q-.022-.06589-.0549-.131785-.022-.06589-.0439-.142767l-.011-.06589-.011-.03295-.0439-.164732-.022-.06589-.0988-.241607z"/><path d="m243.28244 95.68896h2.86633l.0549.02196h.14276l.0439.02196.31848.03295q2.56981.856603 2.56981 3.525254 0 .175713-.011.362409-.011.175713-.0329.362417-.52714 3.064-3.82177 3.064-.36241 0-.7358-.0329h-.52715-.94446v-7.358015zm1.41669 5.85346h1.37276l.13179-.022q.0879-.011.16473-.0329.0879-.022.14277-.0439l.1208-.022q1.13115-.60402 1.13115-1.888925 0-.07688 0-.142768 0-.07687-.011-.164731-.16473-2.042671-1.99874-2.042671-.0769 0-.16473 0-.0769 0-.16473.01098h-.12081-.60401z"/><path d="m251.0358 95.68896h4.75525v1.460619h-3.30561v1.471601h2.99812v1.372763h-2.99812v1.526507q.0329.0659.10982.0659h3.49231v1.46062h-5.10668v-5.491053-1.866957z"/></g></g><g stroke="#000" transform="translate(-8.303838 -1.046208)"><path d="m265.94727 2.3222656-53.34766 57.6230464v-57.2988276l-33.1543 35.4863276v-35.4863276l-45.94922 49.8300776-.006-.99414c-1.73667-1.833789-4.09605-2.880031-6.62109-3.712891 7.6938-4.423661 11.09949-9.61542 10.72656-15.484375.28499-6.930797-2.65326-16.004188-19.20898-18.740234h-41.367049l.0098 71.666016h56.667969l-.004-.523438h.24023l31.04493-33.207031v34.507812l28.02929-29.625v24.742188l-28.02929 30.277341h30.13867l50.9375-55.019529v28.324219h34.36133l30.74224-33.207031v34.507812l28.03125-29.625v22.462891l-4.82226 5.861328h78.36328l19.5918-20.835938h-51.23829l8.74024-9.441406h15.67383l19.58984-21.160156h-15.37109l8.43945-9.115234h29.23633l18.6875-20.1855472h-57.56836l-49.73242 53.7167972v-55.0195316l-33.1543 35.4863276v-35.4863276l-59.67773 64.1347656zm-257.1434318 11.4492594v96.526865l19.1563308-19.156333v-33.252937h26.840905v27.136466h19.168023v-71.480739h-19.080038v26.970452h-26.668292v-26.841716z" filter="url(#a)" mask="url(#f)"/><path d="m95.438753 42.92379-.0083-14.446332 16.847027-.02043c11.65872 2.207128 7.11857 15.358941 0 14.424975z" fill="none" filter="url(#c)" opacity=".98"/><path d="m95.561627 70.377082-.0093-15.089293 19.078753-.02133c13.20316 2.30536 8.06157 16.042519 0 15.066986z" fill="none" filter="url(#b)" opacity=".98"/><path d="m265.94727 2.3222656-53.34766 57.6230464v-57.2988276l-33.1543 35.4863276v-35.4863276l-45.94922 49.8300776-.006-.99414c-1.73667-1.833789-4.09605-2.880031-6.62109-3.712891 7.6938-4.423661 11.09949-9.61542 10.72656-15.484375.28499-6.930797-2.65326-16.004188-19.20898-18.740234h-41.367049l.0098 71.666016h56.667969l-.004-.523438h.24023l31.04493-33.207031v34.507812l28.02929-29.625v24.742188l-28.02929 30.277341h30.13867l50.9375-55.019529v28.324219h34.36133l30.74224-33.207031v34.507812l28.03125-29.625v22.462891l-4.82226 5.861328h78.36328l19.5918-20.835938h-51.23829l8.74024-9.441406h15.67383l19.58984-21.160156h-15.37109l8.43945-9.115234h29.23633l18.6875-20.1855472h-57.56836l-49.73242 53.7167972v-55.0195316l-33.1543 35.4863276v-35.4863276l-59.67773 64.1347656zm-257.1434318 11.4492594v96.526865l19.1563308-19.156333v-33.252937h26.840905v27.136466h19.168023v-71.480739h-19.080038v26.970452h-26.668292v-26.841716z" fill="#dced4d" mask="url(#f)"/><path d="m265.94727 2.3222656-53.34766 57.6230464v-57.2988276l-33.1543 35.4863276v-35.4863276l-45.94922 49.8300776-.006-.99414c-1.73667-1.833789-4.09605-2.880031-6.62109-3.712891 7.6938-4.423661 11.09949-9.61542 10.72656-15.484375.28499-6.930797-2.65326-16.004188-19.20898-18.740234h-41.367049l.0098 71.666016h56.667969l-.004-.523438h.24023l31.04493-33.207031v34.507812l28.02929-29.625v24.742188l-28.02929 30.277341h30.13867l50.9375-55.019529v28.324219h34.36133l30.74224-33.207031v34.507812l28.03125-29.625v22.462891l-4.82226 5.861328h78.36328l19.5918-20.835938h-51.23829l8.74024-9.441406h15.67383l19.58984-21.160156h-15.37109l8.43945-9.115234h29.23633l18.6875-20.1855472h-57.56836l-49.73242 53.7167972v-55.0195316l-33.1543 35.4863276v-35.4863276l-59.67773 64.1347656zm-257.1434318 11.4492594v96.526865l19.1563308-19.156333v-33.252937h26.840905v27.136466h19.168023v-71.480739h-19.080038v26.970452h-26.668292v-26.841716z" fill="url(#e)" mask="url(#g)"/><path d="m368.0625 1.8222656-76.21094 82.3183594v-81.8554688l-47.36328 50.6953128v-50.6953128l-65.64258 71.1874998-.008-1.421875c-2.48096-2.619698-5.85178-4.112934-9.45898-5.302734 10.99114-6.319516 15.85697-13.736873 15.32421-22.121094.40713-9.901138-3.79037-22.862847-27.4414-26.771484h-59.095514l.01367 102.378911h80.953124l-.006-.7461h.34375l44.34975-47.439452v49.296872l40.04297-42.322262v35.347652l-40.04297 43.25196h43.05664l72.76758-78.599612v40.464842h49.08789l43.91602-47.439452v49.296872l40.04492-42.322262v32.089842l-6.88867 8.375h111.94726l27.98828-29.765624h-73.19726l12.48633-13.488281h22.39062l27.98633-30.228516h-21.95898l12.05664-13.021484h41.76562l26.69727-28.8378906h-82.24219l-71.04492 76.7382816v-78.5996098l-47.36328 50.6953128v-50.6953128l-85.25391 91.6210938zm-301.511719 16.0332034v38.529297h-38.097656v-38.345704l-27.73828125.140626v137.894532l27.36523425-27.36524v-47.503902h38.34375v38.765622h27.382813v-102.115231zm81.982419 21.302734c16.65532 3.15304 10.16939 21.941659 0 20.607422l-24.05468.05859-.0117-20.636719z" fill="#fff" fill-opacity=".245492" mask="url(#d)" stroke="none" transform="matrix(.70000001 0 0 .70000001 8.303838 1.046208)"/></g></svg>