<svg xmlns="http://www.w3.org/2000/svg" xmlns:xlink="http://www.w3.org/1999/xlink" xml:space="preserve" width="802.7456" height="365.7891" viewBox="0 0 212.3931 96.7817"><defs><linearGradient id="a"><stop offset="0" style="stop-color:#ec2025;stop-opacity:1"/><stop offset="1" style="stop-color:#56296f;stop-opacity:1"/></linearGradient><linearGradient xlink:href="#a" id="b" x1="-220.5767" x2="-220.7858" y1="-89.6323" y2="-100.5333" gradientTransform="translate(-14.299 -5.7358)" gradientUnits="userSpaceOnUse"/></defs><path fill="#5382a1" d="M-353.7784-108.1949s-3.6987 2.151 2.6323 2.8788c7.6698.875 11.5898.7495 20.042-.8502 0 0 2.2222 1.3934 5.3257 2.6002-18.9477 8.1206-42.8824-.4704-28-4.6288m-2.3153-10.5969s-4.1485 3.0708 2.1872 3.7261c8.1932.8453 14.6635.9144 25.8597-1.2415 0 0 1.5486 1.57 3.9836 2.4285-22.9088 6.6989-48.4252.5283-32.0305-4.913" style="display:inline;stroke-width:.260879" transform="translate(376.7686 183.0476)"/><path d="M-350.1093-86.5702c17.5056 1.1158 44.3873-.619 45.024-8.8668 0 0-1.2238 3.1267-14.4674 5.6097-14.9414 2.7998-33.3694 2.4729-44.2993.6786 0-.0003 2.2375 1.8439 13.7427 2.5785" style="display:inline;fill:#5382a1;fill-opacity:1;stroke-width:.469066" transform="translate(376.7686 183.0476)"/><path fill="#5382a1" d="M-311.5151-100.3568s2.7371 2.2553-3.0145 4c-10.9369 3.3133-45.5203 4.3137-55.1275.1321-3.4535-1.5024 3.0228-3.5874 5.06-4.0248 2.1246-.4608 3.3388-.375 3.3388-.375-3.8407-2.7055-24.8245 5.3126-10.6588 7.6089 38.632 6.265 70.4226-2.8212 60.402-7.3412m-40.4846-29.4146s-17.5914 4.1782-6.2296 5.6955c4.7973.6423 14.3607.497 23.2687-.2494 7.28-.6141 14.5901-1.9198 14.5901-1.9198s-2.567 1.0993-4.4242 2.3675c-17.8637 4.6981-52.3731 2.5125-42.4383-2.2932 8.4019-4.0613 15.2333-3.6006 15.2333-3.6006m31.5567 17.639c18.1593-9.4362 9.7632-18.5044 3.9028-17.2827-1.4364.299-2.0769.558-2.0769.558s.5333-.8353 1.5517-1.1969c11.5938-4.076 20.5101 12.0216-3.7425 18.3972 0 .0003.281-.251.365-.4755" style="stroke-width:.260879" transform="translate(376.7686 183.0476)"/><path fill="#f8981d" d="M-336.575-136.7677c4.6688 5.3752-1.2266 10.2121-1.2266 10.2121s11.8546-6.1197 6.4103-13.783c-5.0848-7.1465-8.9841-10.6973 12.1254-22.9401 0 0-33.135 8.2756-17.309 26.511" style="stroke-width:.260879;fill:#ec2025;fill-opacity:1" transform="translate(376.7686 183.0476)"/><path fill="#f8981d" d="M-331.3913-183.0476s10.057 10.0602-9.5385 25.5301c-15.7136 12.4095-3.5832 19.485-.007 27.5692-9.1723-8.2756-15.9035-15.5607-11.3877-22.3409 6.6282-9.9528 24.9905-14.7783 20.9328-30.7584" style="display:inline;stroke-width:.260879;fill:#ec2025;fill-opacity:1" transform="translate(376.7686 183.0476)"/><path fill="#5382a1" d="M-247.74-126.0866c-2.3197 2.012-4.7696 3.1414-6.9681 3.1414-3.1381 0-4.8336-1.8817-4.8336-4.8998 0-3.2647 1.8165-5.6517 9.1044-5.6517h2.697v7.4101m6.4009 7.2217v-22.3543c0-5.7106-3.257-9.4788-11.1098-9.4788-4.5845 0-8.6003 1.132-11.8643 2.5758l.9422 3.957c2.5698-.9433 5.8964-1.8214 9.1615-1.8214 4.5237 0 6.4698 1.8214 6.4698 5.587v2.8252h-2.2578c-10.991 0-15.949 4.2665-15.949 10.6704 0 5.5266 3.2673 8.668 9.4192 8.668 3.9543 0 6.9063-1.6325 9.6657-4.0217l.5008 3.3932h5.0217zm21.3614 0h-7.9831l-9.6076-31.267h6.9714l5.9616 19.2106 1.3253 5.7776c3.0159-8.3534 5.149-16.8282 6.2158-24.9883h6.7816c-1.817 10.2962-5.0865 21.5973-9.665 31.267m30.6241-7.2216c-2.324 2.012-4.7784 3.1414-6.977 3.1414-3.1325 0-4.8324-1.8817-4.8324-4.8998 0-3.2647 1.821-5.6517 9.1081-5.6517h2.7013zm6.3999 7.2217v-22.3543c0-5.7106-3.265-9.4788-11.1087-9.4788-4.5878 0-8.605 1.132-11.8676 2.5758l.9407 3.957c2.571-.9433 5.9038-1.8214 9.1663-1.8214 4.5204 0 6.4694 1.8214 6.4694 5.587v2.8252h-2.2615c-10.9942 0-15.95 4.2665-15.95 10.6704 0 5.5266 3.2647 8.668 9.4154 8.668 3.9566 0 6.9074-1.6325 9.6716-4.0217l.5027 3.3932h5.0217zm-90.0109 5.3098c-1.8247 2.664-4.7718 4.7717-7.9982 5.9641l-3.1602-3.7188c2.4558-1.2601 4.562-3.2953 5.5406-5.191.8464-1.6858 1.1968-3.8586 1.1968-9.0547v-35.6962h6.8003v35.207c-.0005 6.9468-.5558 9.753-2.3793 12.4896" style="display:inline;fill:#ec2025;fill-opacity:1;stroke-width:.368021" transform="translate(376.7686 183.0476)"/><path d="M-257.47-88.3804q-.6547 0-1.1514-.0678-.4967-.0677-.858-.1806v-2.8448q.3613.0903.7677.158.3838.0678.8354.0678.587 0 1.0611-.2258.4967-.2258.7677-.858.271-.6096.271-1.8062v-15.1045h3.4092v15.082q0 2.077-.6548 3.3414-.6322 1.287-1.7837 1.8514-1.1514.587-2.6641.587m19.3039-4.7413h-11.2662v-2.3707l4.0414-4.0865q1.2192-1.2644 1.9642-2.0998.7451-.858 1.0838-1.5353.3386-.6999.3386-1.4901 0-.9708-.5418-1.445-.5193-.4741-1.4224-.4741-.9257 0-1.8062.429t-1.8514 1.2192l-1.8514-2.19q.6773-.5871 1.4676-1.1064.7902-.5419 1.8062-.858 1.0386-.3386 2.4835-.3386 1.5805 0 2.7094.587 1.1514.5645 1.761 1.5579.6322.9708.6322 2.2126 0 1.332-.5418 2.4384-.5193 1.1063-1.5353 2.19-.9935 1.0838-2.4159 2.3933l-2.0771 1.9417v.158h7.0217zm9.5957 0-3.8834-12.6436h-.0903l.0677 1.3547q.0452.9031.0903 1.9417t.0452 1.8514v7.4958h-3.048v-16.1205h4.651l3.8157 12.3274h.0677l4.0414-12.3274h4.651v16.1205h-3.1835v-7.6313q0-.7676.0226-1.761.0452-.9935.0677-1.874l.0677-1.3547h-.0903l-4.1543 12.621zm23.7518 0h-9.2795v-16.1205h9.2795v2.7996h-5.8702v3.5447h5.4638v2.7997h-5.4638v4.1543h5.8702z" aria-label="J2ME" style="font-weight:700;font-size:22.5778px;line-height:1.25;-inkscape-font-specification:&quot;sans-serif, Bold&quot;;fill:url(#b);stroke-width:.264583" transform="translate(376.7686 183.0476)"/></svg>