<svg enable-background="new 0 0 566.929 129.21" height="166.40001" viewBox="0 0 3813.1637 1164.8001" width="544.73767" xmlns="http://www.w3.org/2000/svg" xmlns:xlink="http://www.w3.org/1999/xlink"><mask id="a" maskUnits="userSpaceOnUse"><path d="m35.265478-10.022852h1166.800022v1166.799952h-1166.800022z" fill="#fff"/><path d="m327.51278 744.30195 75.21404 80.03485 89.19706-80.03485 82.72058 80.03485 80.66018-80.03485 83.75109 80.03485 83.82451-80.03485 166.5454 170.29922-81.61678 80.58659-87.06278-80.58659-78.45229 80.58659-83.82466-80.58659-80.58643 80.58659-88.09311-80.58659-82.72073 80.58659-162.27681-170.85096zm164.4111-294.17697 81.69038 81.13868 83.82452-81.13868 81.61695 81.13868 88.16654-81.13868 80.58659 81.13868 80.58645-81.13868 167.64929 171.40302-79.5562 78.96767-81.6904-78.96767-85.95881 78.96767-84.85498-78.96767-78.45215 78.96767-88.09328-78.96767-80.58643 78.96767-84.92847-78.96767-83.82467 78.96767-79.48264-78.96767-81.69037 78.96767-163.307161-169.23201 76.244391-81.13868 87.06277 81.13868 78.45228-81.13868 79.48249 81.13868zm-164.4111-294.69228 75.21404 80.03487 89.19706-80.03487 82.72058 80.03487 80.66018-80.03487 83.75109 80.03487 83.82451-80.03487 166.5454 170.29922-81.61678 80.58662-87.06278-80.58662-78.45229 80.58662-83.82466-80.58662-80.58643 80.58662-88.09311-80.58662-82.72073 80.58662-162.27681-170.85097z" fill="#000007" stroke-width=".999999"/></mask><g fill-rule="evenodd" stroke-width=".606061" transform="matrix(1.65 0 0 1.65 -958.17378 -398.76733)"><path d="m1486.6659 442.73241h82.9478v259.2118c0 177.2037-228.2509 136.9233-224.6503-3.4561h79.4917c-.6116 47.8481 62.2108 68.4892 62.2108 3.4561z"/><path d="m1586.8945 812.54131h86.4039l20.7369-114.0532h82.9479l17.2807 114.0532h86.404l-62.2108-369.8089h-169.3518zm117.5093-197.001h58.7548l-29.5759-152.7556z"/><path d="m2098.4059 812.54131h-190.0887v-369.8089h86.4038v290.3173h103.6849z"/><path d="m2319.5999 812.54131h-207.3694v-369.8089h207.3694v76.0355h-120.9655v58.7547h120.9655v79.4916h-120.9655v79.4916h120.9655z"/><path d="m2526.9694 580.97871h82.9477c.6419-39.6674-20.6649-148.4264-133.3687-145.2848-67.2642 1.8749-127.9607 53.1758-129.2992 186.7587-1.9663 196.221 99.3008 198.3812 121.1721 197.9309 143.5491-2.9554 143.3221-137.8267 141.5495-163.2222l-83.0014-.1471c-3.5152 43.2359-9.8607 83.7214-52.4527 80.7424-41.3276-4.3947-37.1821-67.4031-37.4074-115.3039-.2195-46.5809-.078-104.3987 42.8255-106.1636 34.2586 1.3162 41.3533 34.5739 47.0346 64.6897z"/><path d="m2756.2611 434.33931c-90.2854-1.2048-133.7854 80.1765-130.7132 191.6676 4.7702 173.1102 77.9276 193.6895 133.4223 193.022 96.1966-1.143 132.3391-86.1495 132.745-182.863.4272-101.8205-28.6955-200.4019-135.4541-201.8266zm2.0318 81.9498c-43.3037 1.286-47.5858 57.5011-47.4089 103.6224.068 17.4317-2.7647 120.0451 48.0862 119.1996 47.92-.8082 46.6282-74.0467 47.4089-115.8133.8067-43.1381-2.8693-108.3516-48.0862-107.0087z"/></g><g stroke="#000" stroke-width=".700001"><circle cx="582.39996" cy="582.39996" fill="#fff" fill-opacity=".995203" opacity=".98" r="582.04999"/><path d="m1200.7155 573.37714a582.04999 582.04999 0 0 1 -582.05003 582.04996 582.04999 582.04999 0 0 1 -582.049991-582.04996 582.04999 582.04999 0 0 1 582.049991-582.0499916 582.04999 582.04999 0 0 1 582.05003 582.0499916z" fill="#246bbe" fill-opacity=".992157" mask="url(#a)" opacity=".98" transform="translate(-36.265403 9.022927)"/></g></svg>