<?xml version="1.0" encoding="UTF-8" standalone="no"?>
<svg
   enable-background="new 0 0 566.929 129.21"
   height="166.40001"
   viewBox="0 0 3813.1637 1164.8001"
   width="544.73767"
   version="1.1"
   id="svg23"
   sodipodi:docname="jaleco.svg"
   inkscape:version="1.1.2 (0a00cf5339, 2022-02-04)"
   xmlns:inkscape="http://www.inkscape.org/namespaces/inkscape"
   xmlns:sodipodi="http://sodipodi.sourceforge.net/DTD/sodipodi-0.dtd"
   xmlns="http://www.w3.org/2000/svg"
   xmlns:svg="http://www.w3.org/2000/svg">
  <defs
     id="defs27">
    <inkscape:path-effect
       effect="powermask"
       id="path-effect16122"
       is_visible="true"
       lpeversion="1"
       uri="#mask-powermask-path-effect16122"
       invert="false"
       hide_mask="false"
       background="true"
       background_color="#ffffffff" />
    <inkscape:path-effect
       effect="powermask"
       id="path-effect11841"
       is_visible="true"
       lpeversion="1"
       uri="#mask-powermask-path-effect11841"
       invert="false"
       hide_mask="false"
       background="false"
       background_color="#ffffffff" />
    <mask
       maskUnits="userSpaceOnUse"
       id="mask-powermask-path-effect16122">
      <path
         id="mask-powermask-path-effect16122_box"
         style="fill:#ffffff;fill-opacity:1"
         d="M 35.265478,-10.022852 H 1202.0655 V 1156.7771 H 35.265478 Z" />
      <path
         d="m 327.51278,744.30195 75.21404,80.03485 89.19706,-80.03485 82.72058,80.03485 80.66018,-80.03485 83.75109,80.03485 83.82451,-80.03485 166.5454,170.29922 -81.61678,80.58659 -87.06278,-80.58659 -78.45229,80.58659 -83.82466,-80.58659 -80.58643,80.58659 -88.09311,-80.58659 -82.72073,80.58659 L 244.79205,824.3368 Z m 164.4111,-294.17697 81.69038,81.13868 83.82452,-81.13868 81.61695,81.13868 88.16654,-81.13868 80.58659,81.13868 80.58645,-81.13868 L 1156.0446,621.528 1076.4884,700.49567 994.798,621.528 908.83919,700.49567 823.98421,621.528 745.53206,700.49567 657.43878,621.528 576.85235,700.49567 491.92388,621.528 408.09921,700.49567 328.61657,621.528 246.9262,700.49567 83.619039,531.26366 l 76.244391,-81.13868 87.06277,81.13868 78.45228,-81.13868 79.48249,81.13868 z m -164.4111,-294.69228 75.21404,80.03487 89.19706,-80.03487 82.72058,80.03487 80.66018,-80.03487 83.75109,80.03487 83.82451,-80.03487 166.5454,170.29922 -81.61678,80.58662 -87.06278,-80.58662 -78.45229,80.58662 -83.82466,-80.58662 -80.58643,80.58662 -88.09311,-80.58662 -82.72073,80.58662 -162.27681,-170.85097 z"
         fill="#000007"
         id="path16120"
         style="display:inline;stroke-width:0.999999" />
    </mask>
    <filter
       id="mask-powermask-path-effect16122_inverse"
       inkscape:label="filtermask-powermask-path-effect16122"
       style="color-interpolation-filters:sRGB"
       height="100"
       width="100"
       x="-50"
       y="-50">
      <feColorMatrix
         id="mask-powermask-path-effect16122_primitive1"
         values="1"
         type="saturate"
         result="fbSourceGraphic" />
      <feColorMatrix
         id="mask-powermask-path-effect16122_primitive2"
         values="-1 0 0 0 1 0 -1 0 0 1 0 0 -1 0 1 0 0 0 1 0 "
         in="fbSourceGraphic" />
    </filter>
  </defs>
  <sodipodi:namedview
     id="namedview25"
     pagecolor="#ffffff"
     bordercolor="#111111"
     borderopacity="1"
     inkscape:pageshadow="0"
     inkscape:pageopacity="0"
     inkscape:pagecheckerboard="1"
     showgrid="false"
     inkscape:zoom="1.0631182"
     inkscape:cx="334.86399"
     inkscape:cy="-61.611211"
     inkscape:window-width="1366"
     inkscape:window-height="703"
     inkscape:window-x="0"
     inkscape:window-y="0"
     inkscape:window-maximized="1"
     inkscape:current-layer="svg23"
     fit-margin-top="0"
     fit-margin-left="0"
     fit-margin-right="0"
     fit-margin-bottom="0"
     scale-x="6.2" />
  <g
     fill-rule="evenodd"
     id="g19"
     transform="matrix(1.65,0,0,1.65,-958.17378,-398.76733)"
     style="stroke-width:0.606061">
    <path
       d="m 1486.6659,442.73241 h 82.9478 v 259.2118 c 0,177.2037 -228.2509,136.9233 -224.6503,-3.4561 h 79.4917 c -0.6116,47.8481 62.2108,68.4892 62.2108,3.4561 z"
       id="path7"
       style="stroke-width:0.606061" />
    <path
       d="m 1586.8945,812.54131 h 86.4039 l 20.7369,-114.0532 h 82.9479 l 17.2807,114.0532 h 86.404 l -62.2108,-369.8089 h -169.3518 z m 117.5093,-197.001 h 58.7548 l -29.5759,-152.7556 z"
       id="path9"
       style="stroke-width:0.606061" />
    <path
       d="m 2098.4059,812.54131 h -190.0887 v -369.8089 h 86.4038 v 290.3173 h 103.6849 z"
       id="path11"
       style="stroke-width:0.606061" />
    <path
       d="m 2319.5999,812.54131 h -207.3694 v -369.8089 h 207.3694 v 76.0355 h -120.9655 v 58.7547 h 120.9655 v 79.4916 h -120.9655 v 79.4916 h 120.9655 z"
       id="path13"
       style="stroke-width:0.606061" />
    <path
       d="m 2526.9694,580.97871 h 82.9477 c 0.6419,-39.6674 -20.6649,-148.4264 -133.3687,-145.2848 -67.2642,1.8749 -127.9607,53.1758 -129.2992,186.7587 -1.9663,196.221 99.3008,198.3812 121.1721,197.9309 143.5491,-2.9554 143.3221,-137.8267 141.5495,-163.2222 l -83.0014,-0.1471 c -3.5152,43.2359 -9.8607,83.7214 -52.4527,80.7424 -41.3276,-4.3947 -37.1821,-67.4031 -37.4074,-115.3039 -0.2195,-46.5809 -0.078,-104.3987 42.8255,-106.1636 34.2586,1.3162 41.3533,34.5739 47.0346,64.6897 z"
       id="path15"
       style="stroke-width:0.606061" />
    <path
       d="m 2756.2611,434.33931 c -90.2854,-1.2048 -133.7854,80.1765 -130.7132,191.6676 4.7702,173.1102 77.9276,193.6895 133.4223,193.022 96.1966,-1.143 132.3391,-86.1495 132.745,-182.863 0.4272,-101.8205 -28.6955,-200.4019 -135.4541,-201.8266 z m 2.0318,81.9498 c -43.3037,1.286 -47.5858,57.5011 -47.4089,103.6224 0.068,17.4317 -2.7647,120.0451 48.0862,119.1996 47.92,-0.8082 46.6282,-74.0467 47.4089,-115.8133 0.8067,-43.1381 -2.8693,-108.3516 -48.0862,-107.0087 z"
       id="path17"
       style="stroke-width:0.606061" />
  </g>
  <circle
     style="display:inline;opacity:0.98;fill:#ffffff;fill-opacity:0.995203;stroke:#000000;stroke-width:0.700001"
     id="circle15828"
     mask="none"
     clip-path="none"
     cx="582.39996"
     cy="582.39996"
     r="582.04999" />
  <path
     style="display:inline;opacity:0.98;fill:#246bbe;fill-opacity:0.992157;stroke:#000000;stroke-width:0.700001"
     id="path1078"
     mask="url(#mask-powermask-path-effect16122)"
     clip-path="none"
     inkscape:path-effect="#path-effect16122"
     sodipodi:type="arc"
     sodipodi:cx="618.66547"
     sodipodi:cy="573.37714"
     sodipodi:rx="582.04999"
     sodipodi:ry="582.04999"
     d="M 1200.7155,573.37714 A 582.04999,582.04999 0 0 1 618.66547,1155.4271 582.04999,582.04999 0 0 1 36.615479,573.37714 582.04999,582.04999 0 0 1 618.66547,-8.6728516 582.04999,582.04999 0 0 1 1200.7155,573.37714 Z"
     transform="translate(-36.265403,9.0229268)" />
</svg>
