<svg height="56.804356mm" viewBox="0 0 209.25202 56.803639" width="209.25465mm" xmlns="http://www.w3.org/2000/svg" xmlns:xlink="http://www.w3.org/1999/xlink"><filter id="a" color-interpolation-filters="sRGB" height="1.358821" width="1.077219" x="-.030888" y="-.143528"><feFlood result="flood"/><feComposite in="flood" in2="SourceGraphic" operator="in" result="composite1"/><feGaussianBlur in="composite1" result="blur" stdDeviation="2.5"/><feOffset dx="3" dy="3" result="offset"/><feComposite in="SourceGraphic" in2="offset" operator="over" result="composite2"/></filter><filter id="b" color-interpolation-filters="sRGB" height="1.137787" width="1.029652" x="-.014826" y="-.068894"><feMorphology in="SourceAlpha" radius="4.3" result="result91"/><feComposite in="SourceGraphic" in2="result91" operator="out"/><feGaussianBlur result="result0" stdDeviation="1.2"/><feDiffuseLighting diffuseConstant="1"><feDistantLight azimuth="225" elevation="66"/></feDiffuseLighting><feBlend in2="SourceGraphic" mode="multiply"/><feComposite in2="SourceAlpha" operator="in"/></filter><filter id="c" color-interpolation-filters="sRGB" height="2.213146" width="1.351249" x="-.175624" y="-.606573"><feGaussianBlur in="SourceGraphic" result="blur" stdDeviation=".948188"/><feDiffuseLighting diffuseConstant="1" result="diffuse" surfaceScale="10"><feDistantLight azimuth="91" elevation="204"/></feDiffuseLighting><feComposite in="diffuse" in2="diffuse" k1="1" operator="arithmetic" result="composite1"/><feComposite in="composite1" in2="SourceGraphic" k1="1" k3="1" operator="arithmetic" result="composite2"/></filter><filter id="d" color-interpolation-filters="sRGB" height="2.213146" width="1.351249" x="-.175624" y="-.606573"><feGaussianBlur in="SourceGraphic" result="blur" stdDeviation=".948188"/><feDiffuseLighting diffuseConstant="1" result="diffuse" surfaceScale="10"><feDistantLight azimuth="91" elevation="204"/></feDiffuseLighting><feComposite in="diffuse" in2="diffuse" k1="1" operator="arithmetic" result="composite1"/><feComposite in="composite1" in2="SourceGraphic" k1="1" k3="1" operator="arithmetic" result="composite2"/></filter><filter id="e" color-interpolation-filters="sRGB" height="1.252147" width="1.252147" x="-.126073" y="-.126073"><feGaussianBlur in="SourceGraphic" result="blur" stdDeviation=".948188"/><feDiffuseLighting diffuseConstant="1" result="diffuse" surfaceScale="10"><feDistantLight azimuth="91" elevation="204"/></feDiffuseLighting><feComposite in="diffuse" in2="diffuse" k1="1" operator="arithmetic" result="composite1"/><feComposite in="composite1" in2="SourceGraphic" k1="1" k3="1" operator="arithmetic" result="composite2"/></filter><filter id="f" color-interpolation-filters="sRGB" height="1.870867" width="1.870866" x="-.435433" y="-.435433"><feGaussianBlur in="SourceGraphic" result="blur" stdDeviation=".948188"/><feDiffuseLighting diffuseConstant="1" result="diffuse" surfaceScale="10"><feDistantLight azimuth="3" elevation="204"/></feDiffuseLighting><feComposite in="diffuse" in2="diffuse" k1="1" operator="arithmetic" result="composite1"/><feComposite in="composite1" in2="SourceGraphic" k1="1" k3="1" operator="arithmetic" result="composite2"/></filter><filter id="g" color-interpolation-filters="sRGB" height="1.870867" width="1.870866" x="-.435433" y="-.435433"><feGaussianBlur in="SourceGraphic" result="blur" stdDeviation=".948188"/><feDiffuseLighting diffuseConstant="1" result="diffuse" surfaceScale="10"><feDistantLight azimuth="3" elevation="204"/></feDiffuseLighting><feComposite in="diffuse" in2="diffuse" k1="1" operator="arithmetic" result="composite1"/><feComposite in="composite1" in2="SourceGraphic" k1="1" k3="1" operator="arithmetic" result="composite2"/></filter><filter id="h" color-interpolation-filters="sRGB" height="1.870867" width="1.870867" x="-.435433" y="-.435433"><feGaussianBlur in="SourceGraphic" result="blur" stdDeviation=".948188"/><feDiffuseLighting diffuseConstant="1" result="diffuse" surfaceScale="10"><feDistantLight azimuth="79" elevation="204"/></feDiffuseLighting><feComposite in="diffuse" in2="diffuse" k1="1" operator="arithmetic" result="composite1"/><feComposite in="composite1" in2="SourceGraphic" k1="1" k3="1" operator="arithmetic" result="composite2"/></filter><filter id="i" color-interpolation-filters="sRGB" height="1.870867" width="1.870867" x="-.435433" y="-.435433"><feGaussianBlur in="SourceGraphic" result="blur" stdDeviation=".948188"/><feDiffuseLighting diffuseConstant="1" result="diffuse" surfaceScale="10"><feDistantLight azimuth="79" elevation="204"/></feDiffuseLighting><feComposite in="diffuse" in2="diffuse" k1="1" operator="arithmetic" result="composite1"/><feComposite in="composite1" in2="SourceGraphic" k1="1" k3="1" operator="arithmetic" result="composite2"/></filter><radialGradient id="j" cx="96.11483" cy="114.1216" gradientTransform="matrix(.00000186 .73242192 -3.1262755 .00000008 452.89044 44.125932)" gradientUnits="userSpaceOnUse" r="64.779225"><stop offset="0" stop-opacity="0"/><stop offset="1"/></radialGradient><g transform="translate(7.06055 -87.730896)"><g fill="#fff" fill-opacity=".5" stroke-width=".66145"><path d="m142.17152 93.256272q0 .0635-.0153.10689-.0228.06456-.073.06456-.0333 0-.0699-.01535-.0439-.01852-.0481-.04551.0148 0 .0349.0053.0466.01217.0582.01217.045 0 .0677-.04498.018-.03598.018-.08625 0-.03545-.0233-.10107-.0228-.06615-.0228-.09207 0-.0079.004-.0127.005-.0053.0127-.0053.0206 0 .0402.09525.0164.08043.0164.119061z"/><path d="m142.37525 93.310246q0 .05397-.0312.08467-.0312.03069-.0863.03069-.0302 0-.0466-.01429-.0164-.01429-.0164-.04392 0-.0418.0545-.08414.0519-.04022.0958-.04022.0201 0 .0265.02487.004.01429.004.04233zm-.0323.01482q0-.0063-.002-.01217-.001-.0064-.004-.01429-.008.0058-.0281.02857-.0101.01164-.0175.01693 0-.01005.002-.0164.004-.009.007-.01534-.0233 0-.0487.01958-.0249.01958-.0249.04233 0 .01534.0169.01534.0323 0 .0624-.01587.0365-.01905.0365-.04868z"/><path d="m142.59326 93.331942q0 .02593-.0196.05821-.0222.03651-.046.03651-.007 0-.0117-.0074-.004-.0079-.004-.01535 0-.0095.0201-.02963.0206-.02064.0206-.02805 0-.0048-.002-.0095-.002-.0048-.002-.0063-.0397.009-.081.04551-.0407.03651-.0619.04127-.004-.01164-.004-.02381 0-.01482.007-.03122.005-.01164.0159-.02805.0185-.02805.0392-.0635.0106-.01852.0365-.06403.0265-.04551.0386-.06456.006-.0095.0111-.01429.007-.0063.0164-.0085.006.0021.009.0079.003.0058.003.01376 0 .01799-.0233.04868-.0423.05503-.0434.05715-.0238.03598-.0238.06509l.001.0053q.0291-.01429.0344-.0164.0217-.009.037-.009.0169 0 .0249.01164.008.01111.008.02858z"/><path d="m142.83879 93.300721q0 .03598-.0175.07673-.019.04498-.0471.06191-.006-.0069-.01-.01535-.004-.0085-.004-.01693 0-.009.0265-.05344.0116-.01958.0106-.0344l-.00053-.0069q-.0196.0058-.0677.03545-.0476.0291-.0963.05926-.007 0-.0138-.0053-.006-.0058-.006-.0127 0-.01111.0354-.07461.0106-.01905.0381-.06615.008.01111.0111.02487.003.01323.003.03175 0 .0079 0 .01217.0487-.0291.0762-.04392.0302-.0164.0413-.0164.007 0 .0137.01693.007.01693.007.02699z"/><path d="m143.29863 93.403378q0 .0095-.008.01482-.008.0048-.018.0048-.009 0-.0228-.0021-.0312-.0048-.0402-.0048-.0159 0-.0624.0037-.0265.0021-.0381.0021-.0323 0-.0323-.03228 0-.03069.0201-.08784.0111-.03228.0418-.105832.0275-.06615.0349-.09313.003-.0085.004-.01111.004-.0063.0106-.0063.0101 0 .0169.01482.007.01429.007.02593 0 .01852-.0217.06244-.0217.04339-.0423.08519-.0228.04974-.0228.07567 0 .01323.0111.01852.008.0037.0233.0037.0116 0 .0402-.0026.0286-.0032.0381-.0032.0238 0 .0392.0069.0217.0095.0217.03069z"/><path d="m143.49548 93.310246q0 .05397-.0312.08467-.0312.03069-.0863.03069-.0302 0-.0466-.01429-.0164-.01429-.0164-.04392 0-.0418.0545-.08414.0519-.04022.0958-.04022.0201 0 .0265.02487.004.01429.004.04233zm-.0323.01482q0-.0063-.002-.01217-.001-.0064-.004-.01429-.008.0058-.0281.02857-.0101.01164-.0175.01693 0-.01005.002-.0164.004-.009.007-.01534-.0233 0-.0487.01958-.0249.01958-.0249.04233 0 .01534.0169.01534.0323 0 .0624-.01587.0365-.01905.0365-.04868z"/><path d="m143.71826 93.299134q0 .01693-.009.03598-.008.01905-.0217.03175l-.00052-.0074q0-.0063.002-.01958.002-.01323.002-.01958 0-.009-.003-.01323-.003-.0048-.0111-.0048-.0249 0-.0619.03863-.0402.04233-.0799.08414-.003 0-.006-.000529-.008-.0021-.0106-.0026.002-.01905.0132-.04233.0312-.06297.0323-.0672.004-.01693.006-.02487.002-.0079.006-.0164.004-.009.01-.01587.006-.0074.0148-.01111l.005.0635q.0228-.01852.0349-.02857.0233-.01852.0402-.01852.0169 0 .0275.01111.0106.01111.0106.02752z"/><path d="m143.97807 93.237751q0 .02222-.0593.05874-.0572.03493-.0831.03493-.0122 0-.0164-.0085-.004-.0085-.004-.02381 0-.01005 0-.01429.0355 0 .0646-.01058.0291-.01058.0508-.03492-.0159-.0058-.0323-.0058-.0386 0-.082.02963-.0476.03228-.0476.06879 0 .03492.0476.04868.007.0021.0894.01482.0481.0074.0481.02593 0 .0079-.0175.0127-.0175.0053-.0445.0053-.0677 0-.10689-.02064-.0519-.02752-.0519-.08837 0-.0635.0635-.101069.054-.03175.12277-.03175.0206 0 .0376.0095.0206.01164.0206.03069z"/><path d="m144.18868 93.143032q0 .01164-.0281.04868-.028.03704-.028.05662 0 .01005.0116.02011.0265.02328.0265.02857 0 .0069-.005.01323-.004.0063-.0111.0063-.006 0-.0164-.0063-.007-.0042-.0286-.02064-.008.01535-.0122.02328-.0148.02804-.0201.04075-.008.02434-.0159.04868-.0138.03281-.0344.03281l-.00053-.01217q0-.03757.0243-.0889.005-.0095.0265-.04921-.0418-.02275-.0921-.02275 0-.01958.008-.02857.008-.0095.0281-.0095.018 0 .045.0064.0132.0032.0265.0063.0101-.0032.0275-.0344.0429-.07514.0582-.08625.004.0069.007.01376.003.0069.003.01323z"/><path d="m144.38394 93.331942q0 .02593-.0196.05821-.0222.03651-.046.03651-.007 0-.0116-.0074-.004-.0079-.004-.01535 0-.0095.0201-.02963.0206-.02064.0206-.02805 0-.0048-.002-.0095-.002-.0048-.002-.0063-.0397.009-.081.04551-.0408.03651-.0619.04127-.004-.01164-.004-.02381 0-.01482.007-.03122.005-.01164.0159-.02805.0185-.02805.0392-.0635.0106-.01852.0365-.06403.0265-.04551.0386-.06456.006-.0095.0111-.01429.007-.0063.0164-.0085.006.0021.009.0079.003.0058.003.01376 0 .01799-.0233.04868-.0423.05503-.0434.05715-.0238.03598-.0238.06509l.001.0053q.0291-.01429.0344-.0164.0217-.009.037-.009.0169 0 .0249.01164.008.01111.008.02858z"/><path d="m144.81838 93.159436q0 .02487-.0265.06667-.0169.02646-.0556.0762-.0386.04921-.0481.06456.002.000529.0397.0127.0386.01164.0386.04233-.0159.0026-.0312.0048l-.006-.000529v-.0042q-.008-.0021-.0138-.0021-.0101 0-.0317.0032-.0217.0032-.0328.0032-.0143 0-.0233-.0053-.009-.0053-.009-.01905 0-.01111.0407-.06297.0762-.09684.0767-.09789.0413-.05609.0413-.07514 0-.0074-.005-.01111-.005-.0037-.0196-.0037-.0101 0-.0418.01958-.0153.0095-.0249.0095l-.009-.0016q-.003-.0021-.007-.0079-.004-.0063-.004-.01005 0-.02223.0429-.04075.0365-.01587.0635-.01587.0228 0 .0349.01693.0106.01482.0106.03863z"/><path d="m145.13641 93.254684q0 .06403-.0693.113241-.0635.04498-.13071.04498-.0333 0-.0529-.01693-.0196-.01693-.0196-.04921 0-.07197.063-.124882.0598-.05027.13388-.05027.0376 0 .0566.02223.0191.02222.0191.06085zm-.0323.01217q0-.02434-.0275-.03651-.0206-.009-.0492-.009-.0418 0-.0873.04075-.0455.04075-.0455.08202 0 .01693.008.02434.009.0069.027.0069.0519 0 .10795-.02858.0661-.03387.0661-.0799z"/><path d="m145.37876 93.159436q0 .02487-.0265.06667-.0169.02646-.0556.0762-.0386.04921-.0481.06456.002.000529.0397.0127.0386.01164.0386.04233-.0159.0026-.0312.0048l-.006-.000529v-.0042q-.008-.0021-.0138-.0021-.0101 0-.0317.0032-.0217.0032-.0328.0032-.0143 0-.0233-.0053-.009-.0053-.009-.01905 0-.01111.0407-.06297.0762-.09684.0767-.09789.0413-.05609.0413-.07514 0-.0074-.005-.01111-.005-.0037-.0196-.0037-.0101 0-.0418.01958-.0153.0095-.0249.0095l-.009-.0016q-.003-.0021-.007-.0079-.004-.0063-.004-.01005 0-.02223.0429-.04075.0365-.01587.0635-.01587.0228 0 .0349.01693.0106.01482.0106.03863z"/><path d="m145.62218 93.159436q0 .02487-.0265.06667-.0169.02646-.0556.0762-.0386.04921-.0482.06456.002.000529.0397.0127.0386.01164.0386.04233-.0159.0026-.0312.0048l-.006-.000529v-.0042q-.008-.0021-.0138-.0021-.0101 0-.0317.0032-.0217.0032-.0328.0032-.0143 0-.0233-.0053-.009-.0053-.009-.01905 0-.01111.0407-.06297.0762-.09684.0767-.09789.0413-.05609.0413-.07514 0-.0074-.005-.01111-.005-.0037-.0196-.0037-.01 0-.0418.01958-.0153.0095-.0249.0095l-.009-.0016q-.003-.0021-.007-.0079-.004-.0063-.004-.01005 0-.02223.0429-.04075.0365-.01587.0635-.01587.0228 0 .0349.01693.0106.01482.0106.03863z"/></g><rect fill="#fdfdfb" filter="url(#a)" height="41.803635" opacity=".98" rx="6.14989" width="194.25201" x="-1.06055" y="93.730896"/><rect fill="#fdfdfb" filter="url(#b)" height="41.803635" opacity=".98" rx="6.14989" width="194.25201" x="-1.06055" y="93.730896"/><g stroke-linecap="round" stroke-linejoin="round"><rect fill="#919e90" height="27.661242" opacity=".98" rx="1.859701" stroke="#010000" stroke-width=".26458" width="129.29387" x="31.418531" y="100.80209"/><rect fill="url(#j)" height="27.661242" opacity=".98" rx="1.859701" stroke="#010000" stroke-width=".26458" width="129.29387" x="31.418531" y="100.80209"/><g stroke="#000" stroke-width=".120181" transform="matrix(1.1001701 0 0 1.1013498 -16.650184 -10.786958)"><ellipse cx="174.72408" cy="113.79567" fill="#461862" opacity=".98" rx="10.683316" ry="10.702008"/><g fill="#f2464e"><rect filter="url(#c)" height="3.850719" opacity=".98" rx="2.201512" ry="2.199154" width="13.299639" x="168.30295" y="116.06085"/><rect filter="url(#d)" height="3.850719" opacity=".98" rx="2.201512" ry="2.199154" width="13.299639" x="168.30295" y="107.82855"/></g></g><g stroke-width=".140579" transform="matrix(.93971272 0 0 .94236629 5.465406 9.381153)"><circle cx="-11.608199" cy="111.58606" fill="#461862" opacity=".98" r="12.507576" stroke="#000" transform="scale(-1 1)"/><g fill="#f2464e" stroke="#f22e36"><path d="m11.448857 102.20588c-1.341813 0-2.4222164 1.0804-2.4222164 2.42221v4.37136h-4.370886c-1.341813 0-2.422216 1.07993-2.422216 2.42174v.17711c0 1.34181 1.080403 2.42222 2.422216 2.42222h4.370886v4.37135c0 1.34182 1.0804034 2.42175 2.4222164 2.42175h.177109c1.341812 0 2.422215-1.07993 2.422215-2.42175v-4.37135h4.371356c1.341813 0 2.421746-1.08041 2.421746-2.42222v-.17711c0-1.34181-1.079933-2.42174-2.421746-2.42174h-4.371356v-4.37136c0-1.34181-1.080403-2.42221-2.422215-2.42221z" filter="url(#e)" opacity=".98"/><circle cx="18.344666" cy="111.497" filter="url(#i)" opacity=".98" r="2.693801"/><circle cx="4.735045" cy="111.497" filter="url(#h)" opacity=".98" r="2.693801"/><ellipse cx="104.81028" cy="-11.539585" filter="url(#f)" opacity=".98" rx="2.693801" ry="2.6938" transform="matrix(0 1 -1 0 0 -.125373)"/><ellipse cx="118.20868" cy="-11.539585" filter="url(#g)" opacity=".98" rx="2.693801" ry="2.6938" transform="matrix(0 1 -1 0 0 .1123)"/></g></g></g><g stroke-width=".661458" transform="scale(.99912632 1.0008744)"><path d="m44.029237 109.51569h-1.774304v-1.79424h1.774304zm-2.013536 0h-1.79424v-1.79424h1.79424zm2.013536 2.01353h-1.774304v-1.7743h1.774304zm-2.013536 0h-1.79424v-1.7743h1.79424zm2.013536 2.03348h-1.774304v-1.79424h1.774304zm-2.013536 0h-1.79424v-1.79424h1.79424zm2.013536 2.01353h-1.774304v-1.7743h1.774304zm6.060544 6.06055h-1.774304v-1.77431h1.774304zm-8.07408-6.06055h-1.79424v-1.7743h1.79424zm2.013536 2.01354h-1.774304v-1.77431h1.774304zm4.047008 4.04701h-1.774304v-1.77431h1.774304zm-4.047008-2.01354h-1.774304v-1.79424h1.774304zm2.033472 2.01354h-1.79424v-1.77431h1.79424zm-4.047008-4.04701h-1.79424v-1.77431h1.79424zm0 2.03347h-1.79424v-1.79424h1.79424zm2.013536 2.01354h-1.774304v-1.77431h1.774304zm-2.013536 0h-1.79424v-1.77431h1.79424z"/><path d="m64.244342 109.51569h-1.79424v-1.79424h1.79424zm-2.033472 0h-1.774304v-1.79424h1.774304zm-2.013536 0h-1.774304v-1.79424h1.774304zm-2.013536 0h-1.79424v-1.79424h1.79424zm0 2.01353h-1.79424v-1.7743h1.79424zm-2.033472 0h-1.774304v-1.7743h1.774304zm0 2.03348h-1.774304v-1.79424h1.774304zm-2.013536 0h-1.79424v-1.79424h1.79424zm2.013536 2.01353h-1.774304v-1.7743h1.774304zm8.094016 6.14029h-1.79424v-1.79424h1.79424zm-6.060544-2.09328h-1.79424v-1.79424h1.79424zm-4.047008-4.04701h-1.79424v-1.7743h1.79424zm2.013536 2.01354h-1.774304v-1.77431h1.774304zm6.060544 4.12675h-1.774304v-1.79424h1.774304zm-6.060544-2.09328h-1.774304v-1.79424h1.774304zm2.033472 2.01354h-1.79424v-1.77431h1.79424zm-4.047008-4.04701h-1.79424v-1.77431h1.79424zm6.060544 4.12675h-1.774304v-1.79424h1.774304z"/><path d="m76.265756 109.51569h-1.79424v-1.79424h1.79424zm2.013536 2.01353h-1.774304v-1.7743h1.774304zm2.033472 2.03348h-1.79424v-1.79424h1.79424zm-6.08048-4.04701h-1.774304v-1.79424h1.774304zm2.033472 2.01353h-1.79424v-1.7743h1.79424zm2.013536 2.03348h-1.774304v-1.79424h1.774304zm2.033472 2.01353h-1.79424v-1.7743h1.79424zm-8.094016-6.06054h-1.774304v-1.79424h1.774304zm6.060544 6.06054h-1.774304v-1.7743h1.774304zm2.033472 2.01354h-1.79424v-1.77431h1.79424zm-10.107552-8.07408h-1.79424v-1.79424h1.79424zm8.07408 8.07408h-1.774304v-1.77431h1.774304zm-10.107552-8.07408h-1.774304v-1.79424h1.774304zm2.033472 2.01353h-1.79424v-1.7743h1.79424zm8.07408 8.09402h-1.774304v-1.79424h1.774304zm-10.107552-8.09402h-1.774304v-1.7743h1.774304zm2.033472 2.03348h-1.79424v-1.79424h1.79424zm6.060544 6.06054h-1.79424v-1.79424h1.79424zm-8.094016-6.06054h-1.774304v-1.79424h1.774304zm2.033472 2.01353h-1.79424v-1.7743h1.79424zm6.060544 6.06055h-1.79424v-1.77431h1.79424zm-8.094016-6.06055h-1.774304v-1.7743h1.774304zm2.033472 2.01354h-1.79424v-1.77431h1.79424zm4.027072 4.04701h-1.774304v-1.77431h1.774304zm-4.027072-2.01354h-1.79424v-1.79424h1.79424zm-2.033472-2.03347h-1.774304v-1.77431h1.774304zm4.047008 4.04701h-1.774304v-1.77431h1.774304zm-4.047008-2.01354h-1.774304v-1.79424h1.774304zm2.033472 2.01354h-1.79424v-1.77431h1.79424zm-2.033472 0h-1.774304v-1.77431h1.774304z"/><path d="m98.414641 109.51569h-1.79424v-1.79424h1.79424zm-2.033472 0h-1.774304v-1.79424h1.774304zm-2.013536 0h-1.774304v-1.79424h1.774304zm6.060547 6.06054h-1.774307v-1.7743h1.774307zm-8.074083-6.06054h-1.79424v-1.79424h1.79424zm6.060544 6.06054h-1.79424v-1.7743h1.79424zm2.013539 2.01354h-1.774307v-1.77431h1.774307zm-8.074083-6.06055h-1.79424v-1.7743h1.79424zm8.074083 8.09402h-1.774307v-1.79424h1.774307zm-4.047011-4.04701h-1.774304v-1.7743h1.774304zm2.033472 2.01354h-1.79424v-1.77431h1.79424zm-8.094016-6.06055h-1.774304v-1.7743h1.774304zm8.094016 8.09402h-1.79424v-1.79424h1.79424zm2.013539 2.01354h-1.774307v-1.77431h1.774307zm-10.107555-8.07408h-1.774304v-1.79424h1.774304zm8.094016 8.07408h-1.79424v-1.77431h1.79424zm-10.107552-8.07408h-1.79424v-1.79424h1.79424zm2.013536 2.01353h-1.774304v-1.7743h1.774304zm6.060544 6.06055h-1.774304v-1.77431h1.774304zm-4.027072-2.01354h-1.79424v-1.79424h1.79424zm-4.047008-4.04701h-1.79424v-1.7743h1.79424zm2.013536 2.01354h-1.774304v-1.77431h1.774304zm4.047008 4.04701h-1.774304v-1.77431h1.774304zm-4.047008-2.01354h-1.774304v-1.79424h1.774304zm2.033472 2.01354h-1.79424v-1.77431h1.79424zm-4.047008-4.04701h-1.79424v-1.77431h1.79424z"/><path d="m110.55567 113.5627h-1.7743v-1.79424h1.7743zm2.01354 2.01353h-1.77431v-1.7743h1.77431zm-4.02708-2.01353h-1.79424v-1.79424h1.79424zm2.01354 2.01353h-1.7743v-1.7743h1.7743zm2.01354 2.01354h-1.77431v-1.77431h1.77431zm-6.06055-4.02707h-1.7743v-1.79424h1.7743zm6.06055 6.06054h-1.77431v-1.79424h1.77431zm-2.01354-2.03347h-1.7743v-1.77431h1.7743zm-2.01354 0h-1.79424v-1.77431h1.79424zm2.01354 2.03347h-1.7743v-1.79424h1.7743zm2.01354 2.01354h-1.77431v-1.77431h1.77431zm-6.06055-4.04701h-1.7743v-1.77431h1.7743zm4.04701 4.04701h-1.7743v-1.77431h1.7743zm-4.04701-2.01354h-1.7743v-1.79424h1.7743zm2.03347 2.01354h-1.79424v-1.77431h1.79424zm-4.04701-2.01354h-1.79424v-1.79424h1.79424zm2.01354 2.01354h-1.7743v-1.77431h1.7743z"/><path d="m128.41831 113.5627h-1.77431v-1.79424h1.77431zm2.03347 2.01353h-1.79424v-1.7743h1.79424zm-4.04701-2.01353h-1.79424v-1.79424h1.79424zm2.01354 2.01353h-1.77431v-1.7743h1.77431zm2.03347 2.01354h-1.79424v-1.77431h1.79424zm0 2.03347h-1.79424v-1.79424h1.79424zm-6.08048-6.06054h-1.77431v-1.79424h1.77431zm4.04701 4.02707h-1.77431v-1.77431h1.77431zm0 2.03347h-1.77431v-1.79424h1.77431zm2.03347 2.01354h-1.79424v-1.77431h1.79424zm-6.08048-6.06055h-1.77431v-1.7743h1.77431zm-4.02707-2.01353h-1.79424v-1.79424h1.79424zm8.07408 8.07408h-1.77431v-1.77431h1.77431zm-6.06055-6.06055h-1.7743v-1.7743h1.7743zm2.01354 2.01354h-1.77431v-1.77431h1.77431zm-6.06055-4.02707h-1.7743v-1.79424h1.7743zm6.06055 6.06054h-1.77431v-1.79424h1.77431zm-2.01354-2.03347h-1.7743v-1.77431h1.7743zm-6.06054-4.02707h-1.79424v-1.79424h1.79424zm2.01353 2.01353h-1.7743v-1.7743h1.7743zm4.04701 4.04701h-1.7743v-1.79424h1.7743zm2.01354 2.01354h-1.77431v-1.77431h1.77431zm-8.07408-6.06055h-1.79424v-1.7743h1.79424zm2.01353 2.01354h-1.7743v-1.77431h1.7743zm4.04701 4.04701h-1.7743v-1.77431h1.7743zm-4.04701-2.01354h-1.7743v-1.79424h1.7743zm-2.01353-2.03347h-1.79424v-1.77431h1.79424zm0 2.03347h-1.79424v-1.79424h1.79424zm2.01353 2.01354h-1.7743v-1.77431h1.7743zm-2.01353 0h-1.79424v-1.77431h1.79424z"/><path d="m140.53938 113.5627h-1.7743v-1.79424h1.7743zm2.01354 2.01353h-1.7743v-1.7743h1.7743zm-4.02707-2.01353h-1.79424v-1.79424h1.79424zm2.01353 2.01353h-1.7743v-1.7743h1.7743zm2.01354 2.01354h-1.7743v-1.77431h1.7743zm-6.06054-4.02707h-1.77431v-1.79424h1.77431zm4.047 4.02707h-1.7743v-1.77431h1.7743zm-4.047-2.01354h-1.77431v-1.7743h1.77431zm2.03347 2.01354h-1.79424v-1.77431h1.79424zm4.02707 4.04701h-1.7743v-1.77431h1.7743zm-8.07408-6.06055h-1.79424v-1.7743h1.79424zm2.01354 2.01354h-1.77431v-1.77431h1.77431zm4.047 4.04701h-1.7743v-1.77431h1.7743zm-4.047-2.01354h-1.77431v-1.79424h1.77431zm2.03347 2.01354h-1.79424v-1.77431h1.79424zm-4.04701-4.04701h-1.79424v-1.77431h1.79424zm0 2.03347h-1.79424v-1.79424h1.79424zm2.01354 2.01354h-1.77431v-1.77431h1.77431z"/><path d="m152.56081 113.5627h-1.77431v-1.79424h1.77431zm-2.01354 0h-1.79424v-1.79424h1.79424zm-2.03347 0h-1.77431v-1.79424h1.77431zm4.04701 4.02707h-1.77431v-1.77431h1.77431zm-4.04701-2.01354h-1.77431v-1.7743h1.77431zm2.03347 2.01354h-1.79424v-1.77431h1.79424zm2.01354 2.03347h-1.77431v-1.79424h1.77431zm-2.01354 0h-1.79424v-1.79424h1.79424zm-4.04701-4.04701h-1.79424v-1.7743h1.79424zm2.01354 2.01354h-1.77431v-1.77431h1.77431zm2.03347 4.04701h-1.79424v-1.77431h1.79424zm-4.04701-4.04701h-1.79424v-1.77431h1.79424zm2.01354 4.04701h-1.77431v-1.77431h1.77431zm-2.01354 0h-1.79424v-1.77431h1.79424z"/></g></g></svg>