<?xml version="1.0" encoding="UTF-8" standalone="no"?>
<!-- Generator: Adobe Illustrator 16.0.0, SVG Export Plug-In . SVG Version: 6.00 Build 0)  -->

<svg
   version="1.1"
   id="Layer_1"
   x="0px"
   y="0px"
   width="282.50143"
   height="181.30559"
   viewBox="0 0 565.00287 362.61118"
   enable-background="new 0 0 588 404"
   xml:space="preserve"
   sodipodi:docname="megaduck.svg"
   inkscape:version="1.1.2 (0a00cf5339, 2022-02-04)"
   xmlns:inkscape="http://www.inkscape.org/namespaces/inkscape"
   xmlns:sodipodi="http://sodipodi.sourceforge.net/DTD/sodipodi-0.dtd"
   xmlns="http://www.w3.org/2000/svg"
   xmlns:svg="http://www.w3.org/2000/svg"><defs
   id="defs920" /><sodipodi:namedview
   id="namedview918"
   pagecolor="#ffffff"
   bordercolor="#111111"
   borderopacity="1"
   inkscape:pageshadow="0"
   inkscape:pageopacity="0"
   inkscape:pagecheckerboard="1"
   showgrid="false"
   fit-margin-top="0"
   fit-margin-left="0"
   fit-margin-right="0"
   fit-margin-bottom="0"
   inkscape:zoom="0.84353741"
   inkscape:cx="288.07258"
   inkscape:cy="193.82661"
   inkscape:window-width="1366"
   inkscape:window-height="703"
   inkscape:window-x="0"
   inkscape:window-y="0"
   inkscape:window-maximized="1"
   inkscape:current-layer="Layer_1" />
<g
   id="g909"
   inkscape:label="g909"
   style="fill:#279eb4;fill-opacity:1"
   transform="translate(-12.542579,-16.673127)">
	<path
   fill="#050505"
   d="m 27.547,21.472 c 3.826,-2.684 8.417,-3.805 13.013,-4.188 3.721,-0.311 12.917,-1.787 15.059,1.408 3.045,4.542 3.327,11.016 3.934,16.294 0.732,6.366 1.898,12.617 2.455,19.001 1.042,11.947 5.548,22.88 8.922,34.265 3.688,12.443 6.574,25.102 9.928,37.636 6.041,-7.493 8.065,-17.296 12.019,-25.885 4.877,-10.598 9.161,-21.5 12.234,-32.765 1.27,-4.654 1.484,-9.623 2.965,-14.164 1.379,-4.229 4.25,-7.935 6.336,-11.837 3.399,-6.356 10.423,-16.793 17.575,-19.444 5.03,-1.864 9.668,-0.165 14.729,0.298 5.261,0.481 10.337,-1.206 15.549,-0.905 11.641,0.673 6.57,21.273 5.918,28.717 -2.036,23.24 -0.571,45.739 -0.403,68.959 0.082,11.312 -0.325,22.518 -0.722,33.809 -0.198,5.645 1.568,26.887 -6.095,27.937 -11.646,1.595 -10.775,-10.802 -10.88,-19.004 -0.154,-12.044 -0.862,-24.023 -1.031,-36.066 -0.322,-22.98 -0.907,-45.881 -1.663,-68.847 -0.173,-5.291 -0.664,-10.632 -2.446,-15.654 -3.854,0.565 -7.533,2.788 -9.569,6.149 -5.607,9.256 -7.673,20.368 -12.616,29.973 -7.587,19.793 -16.831,38.912 -24.165,58.807 -2.959,8.025 -4.05,18.484 -10.83,24.219 -4.079,3.451 -13.307,15.656 -18.804,9.944 -6.581,-6.838 -5.073,-14.728 -6.375,-23.748 -1.583,-10.971 -4.266,-21.739 -6.907,-32.492 -2.562,-10.433 -3.98,-21.488 -7.739,-31.548 -2.688,-7.193 -0.807,-18.952 -6.96,-24.373 -1.33,4.915 -1.335,10.036 -1.738,15.076 -0.51,6.378 -1.933,12.562 -2.19,18.992 -0.499,12.468 -1.401,24.951 -1.906,37.366 -0.492,12.096 -1.484,24.17 -1.671,36.278 -7.173,6.479 -18.007,-2.737 -19.694,-9.908 -2.685,-11.415 -0.173,-25.738 -0.09,-37.45 0.085,-12.045 -0.147,-24.132 0.927,-36.146 2.593,-11.058 1.984,-23.652 2.616,-34.98 0.303,-5.441 0.902,-10.956 1.511,-16.373 1.17,-4.409 5.338,-6.884 8.804,-9.351 7.827,-5.49 -3.473,2.473 0,0 z"
   id="path889"
   style="fill:#279eb4;fill-opacity:1" />
	<path
   fill="#050505"
   d="m 442.769,59.858 c 4.55,0.745 11.417,-1.408 11.062,5.626 -0.408,8.083 -1.638,15.798 -1.49,23.988 0.316,17.503 0.167,35.346 -0.16,52.835 -0.17,9.107 -1.069,16.605 1.604,25.49 1.739,5.782 6.815,14.059 -1.48,17.163 -6.052,2.265 -11.138,-5.205 -13.742,-9.56 -3.782,-6.325 -6.555,-11.191 -6.845,-18.619 -6.536,0.181 -10.748,13.155 -17.205,16.568 -8.053,4.257 -19.575,5.122 -27.524,0.529 -16.683,-9.638 -23.654,-32.227 -23.864,-50.523 -0.107,-9.259 -1.01,-21.303 3.824,-29.554 4.262,-7.276 11.733,-14.076 17.968,-19.704 6.7,-6.047 17.961,-7.753 26.571,-6.019 5.779,1.164 19.513,6.672 17.287,14.83 -2.989,10.95 -17.631,1.191 -24.912,1.387 -7.36,0.198 -16.458,13.388 -18.979,19.668 -3.631,9.042 -4.255,18.995 -3.806,28.633 0.413,8.875 5.531,16.32 10.753,23.272 7.883,10.496 15.147,-4.567 19.427,-10.727 5.73,-8.249 9.792,-17.521 13.108,-26.964 3.206,-9.128 8.34,-18.445 8.67,-28.23 0.18,-5.323 -0.889,-11.382 1.236,-16.357 2.117,-4.956 4.541,-9.958 8.497,-13.732 3.726,0.61 -4.525,4.318 0,0 z"
   id="path891"
   style="fill:#279eb4;fill-opacity:1" />
	<path
   fill="#050505"
   d="m 340.811,78.479 c 2.214,-6.314 5.851,-16.494 14.683,-11.146 3.717,2.25 0.236,10.847 0.212,14.499 -0.2,6.835 -1.142,13.538 -1.561,20.338 -0.718,11.666 -1.367,23.337 -1.759,35.019 -0.418,12.452 -1.867,24.83 -2.042,37.283 -0.138,9.793 0.612,17.953 -6.206,25.859 -6.656,7.718 -17.3,11.905 -27.073,13.938 -11.058,2.299 -20.909,3.292 -32.236,2.325 -5.673,-0.484 -11.322,-1.221 -16.961,-2 -5.046,-0.734 -9,0.694 -12.371,-4.046 -6.422,-9.027 7.879,-10.201 14.101,-9.984 10.546,0.368 20.291,3.175 30.803,1.5 7.985,-1.272 17.163,-3.558 22.177,-10.635 2.308,-3.257 3.006,-8.617 4.462,-12.386 0.851,-2.202 1.549,-4.492 1.588,-6.875 -2.219,-1.393 -4.478,-3.43 -7.322,-3.036 -4.7,0.397 -9.217,2.324 -13.99,1.947 -4.921,0.306 -9.68,-1.171 -14.463,-2.064 -9.605,-1.794 -18.019,-3.852 -25.226,-11.04 -13.231,-13.199 -10.9,-39.144 0.902,-52.852 5.982,-6.948 15.091,-13.775 22.876,-18.514 5.205,-3.167 10.905,-4.37 16.746,-5.813 5.058,-1.25 9.657,-4.795 13.9,-0.23 4.078,4.388 -1.531,7.695 -5.441,10.538 -4.122,2.997 -8.646,5.371 -12.926,8.123 -9.614,6.182 -18.166,11.377 -23.052,22.261 -2.763,6.155 -1.894,8.599 0.022,14.87 1.878,6.147 3.786,8.742 9.64,11.702 9.413,4.759 26.613,2.713 35.396,-3.014 8.61,-5.614 7.88,-21.278 7.83,-30.575 -0.035,-6.388 -0.417,-12.839 0.735,-19.161 1.482,-5.872 4.839,-11.039 6.556,-16.831 1.535,-4.376 -1.718,5.794 0,0 z"
   id="path893"
   style="fill:#279eb4;fill-opacity:1" />
	<g
   id="g897"
   style="fill:#279eb4;fill-opacity:1">
		<path
   fill="#050505"
   d="m 208.381,69.594 c 7.36,-1.01 21.513,-2.877 27.212,2.881 6.168,6.231 9.848,13.067 8.646,21.854 -1.058,7.734 -4.568,15.454 -10.982,20.174 -7.557,5.562 -18.003,6.497 -26.616,9.763 -9.703,3.678 -12.007,9.273 -10.476,19.336 1.408,9.252 16.019,13.5 23.544,16.468 8.751,4.959 18.636,7.254 28.439,9.071 7.868,1.458 18.07,1.647 25.329,5.203 7.704,3.773 2.306,11.206 -3.775,12.591 -5.544,0.978 -11.168,0.188 -16.708,-0.372 -5.475,-0.554 -11.019,-0.042 -16.428,-1.144 -10.53,-2.145 -20.678,-5.874 -30.555,-10.039 -7.938,-3.348 -19.262,-6.314 -23.705,-14.347 -3.887,-7.029 -3.57,-15.943 -4.712,-23.696 -1.56,-10.583 -0.326,-22.016 -0.02,-32.684 0.289,-10.041 3.386,-16.307 12.21,-21.179 3.483,-1.923 7.144,-3.756 9.881,-6.725 2.708,-2.576 4.92,-6.075 8.716,-7.155 6.591,-0.904 -3.794,1.08 0,0 z m 5.555,17.847 c -7.27,1.639 -12.414,2.545 -15.661,9.922 -1.359,3.087 -4.253,7.096 -3.382,10.582 0.824,3.296 6.88,0.901 9.81,0.409 6.57,-1.104 16.735,-2.756 19.309,-9.884 1.155,-3.2 1.162,-6.743 0.563,-10.057 -0.654,-3.605 -7.653,-1.802 -10.639,-0.972 -4.676,1.054 3.33,-0.925 0,0 z"
   id="path895"
   style="fill:#279eb4;fill-opacity:1" />
	</g>
	<path
   fill="#050505"
   d="m 143.47,203.429 c -0.863,-9.464 17.696,-1.061 21.898,-0.494 11.383,1.535 22.185,4.74 33.372,7.441 9.896,2.39 20.03,5.763 30.168,6.966 8.812,0.989 16.507,10.273 22.043,16.383 6.199,6.839 9.52,17.049 11.543,26.001 1.184,5.24 0.616,10.735 0.869,16.06 0.299,6.279 1.247,12.522 1.186,18.818 -0.087,8.924 0.104,21.297 -4.602,29.15 -5.065,8.451 -15.915,12.64 -24.129,17.255 -4.432,2.489 -9.001,5.246 -13.977,6.435 -5.101,1.219 -10.338,1.934 -15.296,3.699 -11.002,3.916 -22.195,8.776 -32.698,13.883 -9.117,4.433 -17.738,9.314 -27.133,13.248 -11.566,5.286 -9.13,-11.584 -7.694,-17.925 4.005,-22.599 6.761,-45.461 10.995,-68.005 1.699,-9.043 6.659,-19.004 4.299,-28.312 -1.217,-4.796 -4.088,-8.216 -4.139,-13.42 -0.042,-4.194 -0.108,-13.577 3.501,-15.708 8.011,-4.731 11.64,-1.591 16.387,5.592 4.002,6.057 6.69,13.069 7.107,20.356 -0.381,17.281 -3.442,34.793 -6.181,51.892 -1.238,7.727 -3.823,15.365 -4.606,23.139 -0.391,3.88 0.051,7.179 5.12,5.656 4.295,-1.229 8.506,-2.738 12.654,-4.395 7.471,-2.984 14.737,-6.444 22.108,-9.662 7.676,-3.351 13.55,-9.343 20.876,-13.297 6.946,-3.749 10.243,-5.678 11.424,-13.53 1.099,-8.698 0.981,-17.482 1.038,-26.231 0.051,-7.847 -4.555,-12.871 -8.68,-19.195 -3.73,-5.72 -8.768,-13.184 -14.688,-16.884 -6.1,-3.811 -14.983,-5.708 -21.848,-7.803 -7.272,-2.219 -14.789,-3.598 -22.347,-4.396 -14.592,-1.543 -28.659,-5.183 -28.57,-22.717 -0.238,-2.608 -0.034,6.758 0,0 z"
   id="path899"
   style="fill:#279eb4;fill-opacity:1" />
	<path
   fill="#050505"
   d="m 404.575,239.068 c 19.691,-6.981 42.656,0.208 55.958,16.168 1.601,3.413 -1.585,6.63 -4.686,7.475 -3.947,1.075 -7.773,-2.172 -10.79,-4.272 -7.564,-5.27 -21.11,-9.977 -29.422,-4.449 -15.756,10.479 -26.782,33.619 -21.136,52.32 5.784,19.159 20.889,39.803 43.475,31.247 4.661,-1.766 9.521,-2.223 14.262,-3.695 4.892,-1.52 10.005,-2.513 15.147,-2.271 11.184,0.526 -10.884,17.116 -14.046,18.804 -18.03,9.625 -43.211,8.4 -57.642,-6.58 -6.529,-6.777 -11.064,-12.549 -13.933,-21.726 -3.117,-9.972 -5.388,-20.595 -5.099,-31.061 0.493,-17.899 10.184,-44.264 27.912,-51.96 7.663,-2.717 -5.495,2.385 0,0 z"
   id="path901"
   style="fill:#279eb4;fill-opacity:1" />
	<g
   id="g905"
   style="fill:#279eb4;fill-opacity:1">
		<path
   fill="#050505"
   d="m 476.777,243.629 c 1.247,-3.678 4.875,-5.648 8.481,-6.353 5.768,-1.127 4.718,4.268 4.432,8.744 -0.763,11.94 -0.662,22.622 2.142,34.236 1.135,4.701 0.895,9.562 2.115,14.202 1.294,4.92 7.662,1.595 11.294,0.239 4.248,-1.587 8.744,-1.617 12.997,-3.15 4.946,-1.783 9.459,-4.604 14.492,-6.168 7.87,-0.288 18.67,1.837 24.443,7.866 5.199,5.43 12.303,14.399 7.883,22.216 -1.786,3.159 -4.96,5.257 -7.79,7.383 -3.533,2.653 -2.537,5.621 1.526,7.736 3.856,2.205 6.997,5.388 10.081,8.533 2.598,2.648 8.544,6.072 8.667,10.126 0.552,18.247 -40.912,-9.586 -45.726,-11.674 -9.232,-4.005 -18.931,-8.464 -28.69,-10.992 -3.155,-0.817 -4.786,-2.25 -5.735,1.489 -0.626,2.464 -0.888,5.004 -0.991,7.539 -0.186,4.587 1.604,13.056 -1.287,16.893 -2.187,2.903 -6.165,3.475 -9.308,4.798 -3.156,-4.002 -4.309,-7.328 -4.352,-12.404 -0.101,-12.012 -0.05,-24.178 -1.692,-36.09 -1.526,-11.071 -2.436,-21.422 -2.706,-32.573 -0.259,-10.622 -5.729,-22.44 -0.276,-32.596 1.673,-4.934 -4.096,7.628 0,0 z m 46.303,59.284 c -6.725,2.099 -13.586,8.113 -4.334,12.21 5.925,2.625 15.227,2.558 21.537,1.424 4.382,-2.046 12.674,-5.282 6.603,-10.909 -5.522,-5.118 -16.863,-3.444 -23.806,-2.725 -3.212,1.003 6.469,-0.67 0,0 z"
   id="path903"
   style="fill:#279eb4;fill-opacity:1" />
	</g>
	<path
   fill="#050505"
   d="m 274.193,253.138 c 8.37,0.157 16.25,-0.139 16.801,10.448 0.557,10.694 -1.036,21.243 -0.668,31.891 0.303,8.754 2.372,21.107 6.559,28.894 5.495,10.219 14.359,11.586 24.99,11.596 9.646,0.01 17.573,-3.868 21.965,-12.899 1.913,-4.387 2.28,-9.205 3.159,-13.855 1.113,-5.892 2.87,-11.398 3.307,-17.438 0.434,-5.989 -2.464,-25.695 6.842,-24.518 11.785,1.491 8.82,16.563 6.954,24.78 -1.769,10.235 1.774,21.37 4.63,31.115 1.629,5.559 2.978,11.195 4.347,16.823 1.219,5.015 3.357,9.995 1.345,15.072 -1.229,3.1 -3.672,6.02 -7.002,6.906 -4.318,1.15 -6.363,-2.691 -8.158,-6.022 -1.869,-3.471 -3.39,-7.278 -6.336,-10.019 -5.59,0.177 -10.541,3.125 -15.563,5.23 -9.372,3.929 -18.447,6.223 -28.45,3.28 -9.293,-2.734 -20.304,-9.538 -25.332,-18.03 -10.947,-20.681 -6.764,-44.179 -8.432,-66.521 -0.419,-5.622 -0.96,-11.085 -0.958,-16.733 4.443,0.084 -10e-4,2.734 0,0 z"
   id="path907"
   style="fill:#279eb4;fill-opacity:1" />
</g>

</svg>
