<svg height="154.99312" viewBox="0 0 896.1387 402.98211" width="344.66873" xmlns="http://www.w3.org/2000/svg" xmlns:xlink="http://www.w3.org/1999/xlink"><mask id="a" maskUnits="userSpaceOnUse"><path d="m647.35864 22.874548h305.00952v372.466752h-305.00952z" fill="#fff"/><path d="m774.32287 127.01891c1.34433 26.79961-12.60745 28.00973-18.68078 26.86478-6.57358-1.23926-10.57173-3.02476-14.31763-10.07909-2.11599-3.98484-2.93024-8.56696-1.57505-13.22384 3.00787-10.33607 11.17862-16.87395 21.20011-17.61425 10.06687-.74365 12.96451 5.9021 13.37335 14.0524zm50.80017 236.48109c3.18179-44.03177 2.53442-88.11284.37696-133.46094-11.8186-41-28.26262-68.20585-60.00236-117.59872l12.44549-.99299c45.46167 35.90559 62.84385 78.9396 77.39866 121.08194l14.78907 127.50587z" stroke-width="4"/></mask><linearGradient id="b" gradientUnits="userSpaceOnUse" x1="935.96082" x2="112.39297" y1="239.55685" y2="239.55685"><stop offset="0" stop-color="#fff"/><stop offset="1" stop-color="#2871be"/></linearGradient><linearGradient id="c" gradientUnits="userSpaceOnUse" x1="494.43903" x2="495.01019" y1="375.10272" y2="80.960426"><stop offset="0" stop-color="#ea1f4b"/><stop offset="1" stop-color="#f7ed18"/></linearGradient><g transform="translate(-62.149111 -21.870952)"><g stroke-width="1.48336" transform="matrix(1.1156431 0 0 1.1315759 62.149111 103.2655)"><path d="m147.808 90.894c5.508 5.349 13.019 8.656 21.303 8.656l130.889.015-28.268-84.332c-3.861-8.959-12.919-15.233-23.798-15.233-10.833 0-20.028 6.479-23.745 15.401l-9.423 27.471-.037-41.453-45.709-.023c-8.262 0-15.689 3.224-21.159 8.557l.016-8.52h-46.801c-8.717 0-16.645 3.717-22.19 9.559v-9.596l-44.11.038c-19.042-.016-34.662 14.869-34.685 34.549 0 9.111 3.982 17.374 9.854 23.496l-9.945-.016v40.087l44.442-.008c12.487-.015 24.861-7.549 29.162-16.576l.129-.371c4.969 10.036 15.339 16.955 27.341 16.955l46.733-.008v-8.648" fill="#fff"/><g fill="#0060a8"><path d="m6.866 92.691 37.477-.038c15.333 0 27.759-12.388 27.759-27.652 0-15.294-12.426-27.683-27.759-27.683l-9.733.053c-.767 0-1.389-.629-1.389-1.403s.622-1.404 1.389-1.404l37.409.008.015-11.736h-37.432c-7.237 0-13.125 5.879-13.125 13.102 0 7.23 5.887 13.086 13.125 13.086l9.779.129c8.785 0 15.894 7.085 15.894 15.826 0 8.747-7.108 15.848-15.894 15.848h-37.5z"/><path d="m6.881 78.072h37.5c7.26 0 13.132-5.856 13.132-13.094 0-7.23-5.872-13.079-13.132-13.079l-9.779-.106c-8.77 0-15.886-7.093-15.886-15.856 0-8.739 7.116-15.833 15.886-15.833l37.432-.008-.015-11.781h-37.409c-15.317 0-27.759 12.374-27.759 27.653s12.442 27.66 27.759 27.66l9.68.015c.736 0 1.358.6 1.358 1.358 0 .744-.622 1.343-1.358 1.343l-37.424.03z"/><path d="m101.158 80.902c-6.502 0-11.828-5.182-11.828-11.798v-37.438c0-6.365 5.326-11.6 11.828-11.6l40.003.007v-11.758h-40.003c-13.018 0-23.563 10.507-23.563 23.48v37.31c0 12.974 10.545 23.496 23.563 23.496l39.836.016-.008-11.729z"/><path d="m92.198 31.795c0-4.961 3.991-8.982 8.96-8.982h40.003v11.774h-34.465c-2.761 0-2.799 2.739-2.799 2.739h28.753v11.721h-40.466z"/><path d="m101.158 78.05c-4.954 0-8.975-3.998-8.975-8.945v-17.267h40.466v11.745h-28.753c.038 2.761 2.799 2.775 2.799 2.775h34.298l-.008 11.676z"/><path d="m169.194 80.872c-6.479 0-11.774-5.28-11.774-11.768v-37.31c0-6.494 5.257-11.729 11.743-11.729h38.745v-11.75h-38.835c-13.012 0-23.557 10.507-23.557 23.48v37.31c0 12.974 10.636 23.496 23.647 23.496l38.745.016v-55.291h-33.297v11.721h21.53v31.825z"/><path d="m160.181 69.104c0 4.971 4.021 9.014 8.982 9.014h24.201v-26.295h-18.724v11.76h6.949l.022 2.761h-6.918c-1.51 0-2.746-1.251-2.746-2.761l-.062-26.265s-.008-2.731 2.777-2.799h33.259l-.015-11.714-38.745.008c-4.961 0-8.982 4.021-8.982 8.982v37.309"/><path d="m244.315 22.638c.522-1.494 1.941-2.571 3.618-2.571 1.678 0 3.111 1.077 3.619 2.571l18.808 55.563h-27.54l.03-13.071h9.203l-4.143-12.313-13.496 39.79h-13.883z"/><path d="m274.152 80.872h-31.286v11.735h47.612l-24.762-73.262c-2.17-7.146-9.323-12.403-17.791-12.403-8.481 0-15.612 5.234-17.798 12.374l-24.989 73.292h12.465l24.262-71.244c.985-2.359 3.308-4.021 6.039-4.021 2.716 0 5.052 1.662 6.046 4.006z"/></g></g><g><path d="m825.12304 363.5c3.18179-44.03177 2.53442-88.11284.37696-133.46094-11.8186-41-31.58922-70.15675-63.32896-119.54962l15.77209.95791c45.46167 35.90559 62.84385 78.9396 77.39866 121.08194l14.78907 127.50587z" fill="#9b8945"/><path d="m739.79687 124.87109c-6.76445 11.42449.0743 28.09776 13.26758 30.64063 6.54319 1.20548 12.77395 1.12502 18.32617-5.41406 3.49024-4.10328 4.68124-12.45288 4.94048-17.78874 21.7095 30.67015 43.3797 69.09643 48.32251 104.92748 6.1599 51.17288.84636 116.76997.84636 116.76997-85.66829 2.98191-138.70092 23.39148-173.06198 39.40427l298.93017.93066c-22.75903-14.43926-35.3975-31.10178-81.46113-40.42153-5.52527-51.85187-9.04218-106.86741-28.3479-156.12941-11.48825-26.77838-26.89949-51.5137-46.59498-71.5953l-12.32841-11.99828c3.66498-.26559 3.71445.0568 13.17507 3.07709l5.77447-8.49448c1.75845-1.5313.1652 12.09121.1652 12.09121l6.54991 7.11119 8.10543-7.00188c2.58969-2.5593-2.43611 12.45076-2.43611 12.45076l5.98171 7.56708s2.90426-2.85101 4.45677-4.3c-.57436 5.18341-1.79831 14.82884 3.71826 19.42872 4.72936-2.56847 7.91251-10.60237 9.09229-16.01319 1.9029-12.54142-1.0638-27.49002-3.33349-39.85205 2.24853 1.42886 10.45212 7.48643 10.45212 7.48643 4.62997-7.5389 3.03729-5.6328 4.62746-7.60557 2.67349-2.359713 1.48438 10.25439 1.48438 10.25439l14.0166 19.55957c15.13027-46.535722-18.07566-61.452132-35.40918-70.610347-5.22096-19.895624-26.15819-23.899641-34.76953-22.261719-2.08747-19.030338-67.64864-20.398147-62.12698 15.317383-19.08793-13.107048-49.74419-8.475536-51.58105 17.559571-17.55145 10.901307-27.67252 32.913482-31.73438 50.345212-3.83914 26.96125 16.2812 53.80078 17.71338 48.85352 4.07565-18.83714-.00002 0 4.07272-17.50121.26826-1.15275-.39597-2.47109-1.32973-4.4602-1.29153-2.75121-3.12113-7.16303-3.1219-9.51956 8.5835 6.09863 7.14129 6.47451 9.07618 4.11524l8.06835-15.84764-1.6837-10.27552 5.76349 4.33846c2.72656 2.05242 2.25795-2.41845 12.13384-6.83736-1.308 2.76581-2.88891 4.43652-4.12597 7.56382-6.15542 15.56094-7.82317 34.10361-1.03968 48.29823 4.06397 7.99006 13.21912 18.87358 22.59547 18.58044.85652-15.75122 1.14767-11.80258.61967-16.71037-3.94836-4.79531-4.92046-7.52619-5.1981-12.59253l6.48152 4.96754c1.64729 1.26252 1.11012-8.1297.5655-10.46783 0 0-8.86794-14.75581-4.11488-13.13308l6.18824 4.15889s7.45204-10.59358 8.21606-14.10079c.46997-2.01037-5.01128-13.68512-2.16494-11.41655l6.3597 7.31052c1.78687 2.05401 14.04484-11.50747 5.87696-.75908" fill="#16a252" mask="url(#a)"/><path d="m775.06262 133.92004c.46686 12.22535-7.7059 21.26365-17.7547 21.26365s-21.62165-12.44089-18.64003-23.71035c3.03711-11.47921 13.02996-18.35238 23.06442-18.89189 11.86992-.6382 13.01723 13.14025 13.33031 21.33859z" fill="#eb1758"/><path d="m660.27344 391.58984 286.43163 1.33594c-22.64219-17.34121-44.90905-35.1645-79.36334-37.33393h-41.00045c-82.6368.93633-140.28639 23.93739-166.06784 35.99799z" fill="#bfb07b"/><path d="m739.79687 124.87109c-6.76445 11.42449.0743 28.09776 13.26758 30.64063 6.54319 1.20548 12.77395 1.12502 18.32617-5.41406 3.49024-4.10328 4.68124-12.45288 4.94048-17.78874 21.7095 30.67015 43.3797 69.09643 48.32251 104.92748 6.1599 51.17288.84636 116.76997.84636 116.76997-85.66829 2.98191-138.70092 23.39148-173.06198 39.40427l298.93017.93066c-22.75903-14.43926-35.3975-31.10178-81.46113-40.42153-5.52527-51.85187-9.04218-106.86741-28.3479-156.12941-11.48825-26.77838-26.89949-51.5137-46.59498-71.5953l-12.32841-11.99828c3.66498-.26559 3.71445.0568 13.17507 3.07709l5.77447-8.49448c1.75845-1.5313.1652 12.09121.1652 12.09121l6.54991 7.11119 8.10543-7.00188c2.58969-2.5593-2.43611 12.45076-2.43611 12.45076l5.98171 7.56708s2.90426-2.85101 4.45677-4.3c-.57436 5.18341-1.79831 14.82884 3.71826 19.42872 4.72936-2.56847 7.91251-10.60237 9.09229-16.01319 1.9029-12.54142-1.0638-27.49002-3.33349-39.85205 2.24853 1.42886 10.45212 7.48643 10.45212 7.48643 4.62997-7.5389 3.03729-5.6328 4.62746-7.60557 2.67349-2.359713 1.48438 10.25439 1.48438 10.25439l14.0166 19.55957c15.13027-46.535722-18.07566-61.452132-35.40918-70.610347-5.22096-19.895624-26.15819-23.899641-34.76953-22.261719-2.08747-19.030338-67.64864-20.398147-62.12698 15.317383-19.08793-13.107048-49.74419-8.475536-51.58105 17.559571-17.55145 10.901307-27.67252 32.913482-31.73438 50.345212-3.83914 26.96125 16.2812 53.80078 17.71338 48.85352 4.07565-18.83714-.00002 0 4.07272-17.50121.26826-1.15275-.39597-2.47109-1.32973-4.4602-1.29153-2.75121-3.12113-7.16303-3.1219-9.51956 8.5835 6.09863 7.14129 6.47451 9.07618 4.11524l8.06835-15.84764-1.6837-10.27552 5.76349 4.33846c2.72656 2.05242 2.25795-2.41845 12.13384-6.83736-1.308 2.76581-2.88891 4.43652-4.12597 7.56382-6.15542 15.56094-7.82317 34.10361-1.03968 48.29823 4.06397 7.99006 13.21912 18.87358 22.59547 18.58044.85652-15.75122 1.14767-11.80258.61967-16.71037-3.94836-4.79531-4.92046-7.52619-5.1981-12.59253l6.48152 4.96754c1.64729 1.26252 1.11012-8.1297.5655-10.46783 0 0-8.86794-14.75581-4.11488-13.13308l6.18824 4.15889s7.45204-10.59358 8.21606-14.10079c.46997-2.01037-5.01128-13.68512-2.16494-11.41655l6.3597 7.31052c1.78687 2.05401 14.04484-11.50747 5.87696-.75908" fill="none" stroke="#000" stroke-width="4"/></g><path d="m176.60682 420.2714c43.36225-18.43535 87.19893-34.69199 130.76879-49.69643 128.58551-44.28183 411.97737-105.26583 516.99663-112.65974 37.23299-2.62139 70.33302-9.47342 98.14247-12.17491 7.21595-2.2816 11.63687-9.06723-2.10913-13.00851-73.66085-28.81375-534.69837-26.52453-793.25467 79.71493-8.6786 3.71058-7.05324 15.85244-7.05324 15.85244.94896 46.6419 36.00482 88.08804 36.00482 88.08804 4.6375 6.43178 9.18428 8.68604 20.50433 3.88418z" fill="url(#b)" stroke="#000" stroke-width="4"/><g fill="url(#c)" stroke="#000" stroke-opacity=".938443" stroke-width="6"><path d="m401.0406 135.75357c-14.62567 2.97884-23.18685 16.86968-33.1035 26.76562-36.3067 41.94038-70.95947 88.07489-103.38421 133.05248-10.86946 14.6301-23.37234 32.80839-35.52437 46.37906-10.33585 2.34586-4.6786 32.50435-4.6786 32.50435l29.65398-6.15617s78.15019-117.5987 111.94177-162.65279c-5.6116 22.98488-11.25385 42.33989-15.31179 66.18073-1.48903 12.24374-10.76899 31.71167 8.1398 39.66416 13.09513 8.0621 26.31731-5.61676 34.32473-15.03055 20.49447-24.40868 32.94487-48.57722 52.91707-73.40179-7.43229 26.43494-21.5974 45.94808-24.89069 73.487-2.16131 17.06245 14.32956 33.07033 24.68216 24.1281 16.24435 7.27162 26.51418-9.92932 35.8036-14.32802 9.03649-6.42311 12.96465-34.70044-4.08618-30.27757-5.06193 5.14322-13.02674 9.41336-8.54131-2.59024 0 0 23.02024-56.71928 23.75644-89.53651 1.65184-13.21951-9.4534-24.11315-26.46546-16.81526-25.63129 17.06844-41.20959 40.22283-59.5077 64.49871-3.56167 4.20463-12.20055 18.76995-7.42285 5.3861 5.91326-24.36374 16.16326-42.61758 20.19848-67.37813-.37303-10.82484-3.26621-33.49417-18.50137-33.87928z"/><path d="m589.98535 77.897461c-29.96326.940467-53.36235 16.769734-65.86103 41.014029-5.5692 13.61299-13.64152 21.1932-17.88654 25.98714-21.98677 24.30532 10.60124 42.57517 25.14343 25.6191 11.38505-13.45895 23.08999-30.83254 44.73913-31.83584 17.51452-.27434 20.64204 10.92507 17.07483 28.17585-7.96571 31.10049-30.66356 50.95644-51.24847 74.04001 0 0-38.55768 33.25829-46.85638 51.95405-4.05175 6.45829 3.61181 51.76932 41.13212 33.91888 23.27776-8.37986 37.13537-16.663 62.33697-28.24453 69.30571-33.29391 141.20089-58.67778 211.49166-89.68255 27.59949-10.96647 21.42365-28.74807-10.1309-23.18181l-44.87083 9.54925c-52.81179 11.35089-103.21104 28.91378-153.04399 49.55357-8.76144 2.92769-7.78591 2.90016-20.7118 6.79264 27.70902-29.19423 56.15501-74.21644 61.6532-93.36212 5.79655-18.76681 5.98722-30.88627.21308-51.24896-4.26856-17.295474-25.96702-30.251221-53.17448-29.048709z"/></g><text fill="#ef00eb" font-family="TrasksHand" font-size="5.2" stroke="#0105ff" stroke-width="6.5" x="888.01239" y="241.00247"><tspan fill="#fafafa" fill-opacity=".4" font-size="5.2" stroke="none" stroke-width="6.5" x="888.01239" y="241.00247">John Loreth 2022</tspan></text></g></svg>