<svg height="203" viewBox="0 0 564 203" width="564" xmlns="http://www.w3.org/2000/svg" xmlns:xlink="http://www.w3.org/1999/xlink"><clipPath id="a"><path d="m185.47243 123.99007h56.92196v60.29203h-56.92196zm22.46818 25.55093v20.5116h10.89471v-20.5116z"/></clipPath><clipPath id="b"><path d="m243.81793 137.01497h55.23738v46.89278h-55.23738zm22.12268 12.52603v20.5116h10.89471v-20.5116z"/></clipPath><clipPath id="c"><path d="m386.49484 21.02637h129.62582v162.88138h-129.62582zm38.24524 36.61411v28.50293h42.15587v-28.50293z"/></clipPath><path d="m0 0h564.20001v203h-564.20001z"/><g fill="#fff"><path d="m345.06161 7.822202h207.9549v185.32698h-207.9549z"/><path d="m33.211293 115.95381 22.706785-90.342955h21.05538l10.940539 39.433765 11.353395-39.433765h19.816828l18.57828 66.557519 45.32805-.08643c4.75826-.04686 5.05012-9.992208-.35239-9.989612l-26.39739-.356171c-11.33557.110845-23.28885-12.28446-22.70677-28.79291.12093-15.142336 13.18452-27.066752 29.89625-27.062645l67.33006-.06111 17.1333 23.5768 16.72044-23.785442 27.86742.208642-30.55095 43.398005 33.02806 47.056699-27.72146-.0865-19.22258-27.001534-18.28636 27.001534-28.28026-.0253 32.20233-46.527676-14.03691-20.655779-58.52891.08642c-6.38756.05918-6.15335 10.215994.0501 10.02541l24.6605.381492c10.42239.06822 25.10075 11.015226 24.73561 28.105863.15937 19.86913-17.54593 28.94611-26.07004 28.46204l-64.55064.0865-10.73416-40.649843-10.734113 40.563413h-20.375644l-11.207425-40.354764-9.847955 40.415874z"/><path d="m41.803294 129.2459v12.65934h-12.783705v8.06996h12.826308v24.00521c.306492 3.62058 3.996931 5.25697 7.605654 4.92734h27.686075v-8.03865h-13.821178c-1.66119-.0929-2.988027 1.06588-3.063795-4.59822v-16.27077h16.831095v-8.20393h-17.047408v-12.82024z"/><path d="m87.635928 142.26339v30.1787c.0054 5.44583 2.2784 6.82326 7.490274 6.6885h38.926928v-37.11562h-18.02461v27.5235h-11.08455v-27.49185z"/><path d="m164.92748 178.90775-.00071-25.63577c-.0164-3.21629-.61365-3.31903 2.64672-3.20674h14.44985v-8.01391h-23.52681c-3.94401.0647-11.24022 2.30681-11.18962 8.02956l.00071 29.0497z"/><path clip-path="url(#a)" d="m190.47243 178.90775v-49.91768h17.46819v13.0249h16.80371s12.64453-3.0654 12.64453 11.47312v14.67228c.30951 14.22196-12.47757 10.74738-12.52806 10.74738z" transform="scale(1.0003546 1)"/><path clip-path="url(#b)" d="m260.67005 142.01497h21.53314c6.56607 0 11.85212 5.28792 11.85212 11.85632v13.18014c0 6.5684-5.28605 11.85632-11.85212 11.85632h-21.53314c-6.56608 0-11.85212-5.28792-11.85212-11.85632v-13.18014c0-6.5684 5.28604-11.85632 11.85212-11.85632z" height="36.89278" rx="11.852114" ry="11.856317" transform="scale(1.0003546 1)" width="45.237373" x="248.81793" y="142.01497"/></g><path clip-path="url(#c)" d="m391.49484 178.90775v-152.88138h77.07247l34.25217 25.765682v37.105941h-28.28462l36.5858 27.788027v62.22173h-35.13788v-61.25436h-50.60482v61.25436z" fill="#080000" transform="scale(1.0003546 1)"/><text fill="#ef00eb" font-family="TrasksHand" font-size="2" stroke="#0105ff" stroke-width="2.5" x="265.46603" y="141.85243"><tspan fill="#fafafa" fill-opacity=".4" font-size="2" stroke="none" stroke-width="2.5" x="265.46603" y="141.85243">John Loreth 2022</tspan></text></svg>