<?xml version="1.0" encoding="UTF-8" standalone="no"?>
<!-- Created with Inkscape (http://www.inkscape.org/) -->

<svg
   version="1.1"
   id="svg2"
   width="1105.5538"
   height="161.0318"
   viewBox="0 0 773.88768 112.72226"
   sodipodi:docname="mugen.svg"
   inkscape:version="1.1.2 (0a00cf5339, 2022-02-04)"
   xmlns:inkscape="http://www.inkscape.org/namespaces/inkscape"
   xmlns:sodipodi="http://sodipodi.sourceforge.net/DTD/sodipodi-0.dtd"
   xmlns:xlink="http://www.w3.org/1999/xlink"
   xmlns="http://www.w3.org/2000/svg"
   xmlns:svg="http://www.w3.org/2000/svg">
  <defs
     id="defs6">
    <linearGradient
       inkscape:collect="always"
       id="linearGradient32347">
      <stop
         style="stop-color:#9faccf;stop-opacity:1"
         offset="0"
         id="stop32343" />
      <stop
         style="stop-color:#e6fbff;stop-opacity:1"
         offset="0.04132933"
         id="stop32513" />
      <stop
         style="stop-color:#e6fbff;stop-opacity:1"
         offset="0.40817779"
         id="stop32707" />
      <stop
         style="stop-color:#909ac5;stop-opacity:1"
         offset="1"
         id="stop32345" />
    </linearGradient>
    <linearGradient
       inkscape:collect="always"
       xlink:href="#linearGradient32347"
       id="linearGradient32349"
       x1="383.81076"
       y1="7.178884"
       x2="383.81076"
       y2="142.38011"
       gradientUnits="userSpaceOnUse" />
  </defs>
  <sodipodi:namedview
     id="namedview4"
     pagecolor="#ffffff"
     bordercolor="#111111"
     borderopacity="1"
     inkscape:pageshadow="0"
     inkscape:pageopacity="0"
     inkscape:pagecheckerboard="1"
     showgrid="false"
     fit-margin-top="0"
     fit-margin-left="0"
     fit-margin-right="0"
     fit-margin-bottom="0"
     inkscape:zoom="1.0542816"
     inkscape:cx="483.7417"
     inkscape:cy="125.20374"
     inkscape:window-width="1366"
     inkscape:window-height="708"
     inkscape:window-x="0"
     inkscape:window-y="0"
     inkscape:window-maximized="1"
     inkscape:current-layer="g8" />
  <g
     inkscape:groupmode="layer"
     inkscape:label="Mugen"
     id="g8"
     transform="translate(-1.0065665,-0.16897375)">
    <g
       aria-label="John Loreth 2022"
       id="text4082"
       style="font-size:1.4px;line-height:1.25;font-family:TrasksHand;-inkscape-font-specification:TrasksHand;fill:#ef00eb;stroke:#0105ff;stroke-width:1.75;stop-color:#000000"
       inkscape:label="Signature">
      <path
         d="m 328.35469,79.998201 q 0,0.168 -0.0406,0.2828 -0.0602,0.1708 -0.1932,0.1708 -0.0882,0 -0.1848,-0.0406 -0.1162,-0.049 -0.1274,-0.1204 0.0392,0 0.0924,0.014 0.1232,0.0322 0.154,0.0322 0.119,0 0.1792,-0.119 0.0476,-0.0952 0.0476,-0.2282 0,-0.0938 -0.0616,-0.2674 -0.0602,-0.175 -0.0602,-0.2436 0,-0.021 0.0112,-0.0336 0.0126,-0.014 0.0336,-0.014 0.0546,0 0.1064,0.252 0.0434,0.2128 0.0434,0.315 z"
         style="fill:#fafafa;fill-opacity:0.4;stroke:none"
         id="path53" />
      <path
         d="m 328.89369,80.141001 q 0,0.1428 -0.0826,0.224 -0.0826,0.0812 -0.2282,0.0812 -0.0798,0 -0.1232,-0.0378 -0.0434,-0.0378 -0.0434,-0.1162 0,-0.1106 0.1442,-0.2226 0.1372,-0.1064 0.2534,-0.1064 0.0532,0 0.07,0.0658 0.01,0.0378 0.01,0.112 z m -0.0854,0.0392 q 0,-0.0168 -0.004,-0.0322 -0.003,-0.0168 -0.0112,-0.0378 -0.0224,0.0154 -0.0742,0.0756 -0.0266,0.0308 -0.0462,0.0448 0,-0.0266 0.006,-0.0434 0.0112,-0.0238 0.0182,-0.0406 -0.0616,0 -0.1288,0.0518 -0.0658,0.0518 -0.0658,0.112 0,0.0406 0.0448,0.0406 0.0854,0 0.1652,-0.042 0.0966,-0.0504 0.0966,-0.1288 z"
         style="fill:#fafafa;fill-opacity:0.4;stroke:none"
         id="path55" />
      <path
         d="m 329.47049,80.198401 q 0,0.0686 -0.0518,0.154 -0.0588,0.0966 -0.1218,0.0966 -0.0182,0 -0.0308,-0.0196 -0.0112,-0.021 -0.0112,-0.0406 0,-0.0252 0.0532,-0.0784 0.0546,-0.0546 0.0546,-0.0742 0,-0.0126 -0.004,-0.0252 -0.004,-0.0126 -0.006,-0.0168 -0.105,0.0238 -0.2142,0.1204 -0.1078,0.0966 -0.1638,0.1092 -0.0112,-0.0308 -0.0112,-0.063 0,-0.0392 0.0182,-0.0826 0.0126,-0.0308 0.042,-0.0742 0.049,-0.0742 0.1036,-0.168 0.028,-0.049 0.0966,-0.1694 0.07,-0.1204 0.1022,-0.1708 0.0168,-0.0252 0.0294,-0.0378 0.0182,-0.0168 0.0434,-0.0224 0.0168,0.0056 0.0238,0.021 0.008,0.0154 0.008,0.0364 0,0.0476 -0.0616,0.1288 -0.112,0.1456 -0.1148,0.1512 -0.063,0.0952 -0.063,0.1722 l 0.003,0.014 q 0.077,-0.0378 0.091,-0.0434 0.0574,-0.0238 0.098,-0.0238 0.0448,0 0.0658,0.0308 0.021,0.0294 0.021,0.0756 z"
         style="fill:#fafafa;fill-opacity:0.4;stroke:none"
         id="path57" />
      <path
         d="m 330.12009,80.115801 q 0,0.0952 -0.0462,0.203 -0.0504,0.119 -0.1246,0.1638 -0.0154,-0.0182 -0.0266,-0.0406 -0.01,-0.0224 -0.01,-0.0448 0,-0.0238 0.07,-0.1414 0.0308,-0.0518 0.028,-0.091 l -0.001,-0.0182 q -0.0518,0.0154 -0.1792,0.0938 -0.126,0.077 -0.2548,0.1568 -0.0196,0 -0.0364,-0.014 -0.0154,-0.0154 -0.0154,-0.0336 0,-0.0294 0.0938,-0.1974 0.028,-0.0504 0.1008,-0.175 0.0224,0.0294 0.0294,0.0658 0.007,0.035 0.007,0.084 0,0.021 0,0.0322 0.1288,-0.077 0.2016,-0.1162 0.0798,-0.0434 0.1092,-0.0434 0.0196,0 0.0364,0.0448 0.0182,0.0448 0.0182,0.0714 z"
         style="fill:#fafafa;fill-opacity:0.4;stroke:none"
         id="path59" />
      <path
         d="m 331.33669,80.387401 q 0,0.0252 -0.0224,0.0392 -0.021,0.0126 -0.0476,0.0126 -0.0238,0 -0.0602,-0.0056 -0.0826,-0.0126 -0.1064,-0.0126 -0.042,0 -0.1652,0.0098 -0.07,0.0056 -0.1008,0.0056 -0.0854,0 -0.0854,-0.0854 0,-0.0812 0.0532,-0.2324 0.0294,-0.0854 0.1106,-0.28 0.0728,-0.175 0.0924,-0.2464 0.007,-0.0224 0.0112,-0.0294 0.0112,-0.0168 0.028,-0.0168 0.0266,0 0.0448,0.0392 0.0182,0.0378 0.0182,0.0686 0,0.049 -0.0574,0.1652 -0.0574,0.1148 -0.112,0.2254 -0.0602,0.1316 -0.0602,0.2002 0,0.035 0.0294,0.049 0.021,0.0098 0.0616,0.0098 0.0308,0 0.1064,-0.007 0.0756,-0.0084 0.1008,-0.0084 0.063,0 0.1036,0.0182 0.0574,0.0252 0.0574,0.0812 z"
         style="fill:#fafafa;fill-opacity:0.4;stroke:none"
         id="path61" />
      <path
         d="m 331.85748,80.141001 q 0,0.1428 -0.0826,0.224 -0.0826,0.0812 -0.2282,0.0812 -0.0798,0 -0.1232,-0.0378 -0.0434,-0.0378 -0.0434,-0.1162 0,-0.1106 0.1442,-0.2226 0.1372,-0.1064 0.2534,-0.1064 0.0532,0 0.07,0.0658 0.01,0.0378 0.01,0.112 z m -0.0854,0.0392 q 0,-0.0168 -0.004,-0.0322 -0.003,-0.0168 -0.0112,-0.0378 -0.0224,0.0154 -0.0742,0.0756 -0.0266,0.0308 -0.0462,0.0448 0,-0.0266 0.006,-0.0434 0.0112,-0.0238 0.0182,-0.0406 -0.0616,0 -0.1288,0.0518 -0.0658,0.0518 -0.0658,0.112 0,0.0406 0.0448,0.0406 0.0854,0 0.1652,-0.042 0.0966,-0.0504 0.0966,-0.1288 z"
         style="fill:#fafafa;fill-opacity:0.4;stroke:none"
         id="path63" />
      <path
         d="m 332.44688,80.111601 q 0,0.0448 -0.0238,0.0952 -0.0224,0.0504 -0.0574,0.084 l -10e-4,-0.0196 q 0,-0.0168 0.004,-0.0518 0.004,-0.035 0.004,-0.0518 0,-0.0238 -0.007,-0.035 -0.007,-0.0126 -0.0294,-0.0126 -0.0658,0 -0.1638,0.1022 -0.1064,0.112 -0.2114,0.2226 -0.008,0 -0.0168,-0.0014 -0.021,-0.0056 -0.028,-0.007 0.004,-0.0504 0.035,-0.112 0.0826,-0.1666 0.0854,-0.1778 0.0112,-0.0448 0.0168,-0.0658 0.006,-0.021 0.0154,-0.0434 0.0112,-0.0238 0.0252,-0.042 0.0154,-0.0196 0.0392,-0.0294 l 0.014,0.168 q 0.0602,-0.049 0.0924,-0.0756 0.0616,-0.049 0.1064,-0.049 0.0448,0 0.0728,0.0294 0.028,0.0294 0.028,0.0728 z"
         style="fill:#fafafa;fill-opacity:0.4;stroke:none"
         id="path65" />
      <path
         d="m 333.13428,79.949201 q 0,0.0588 -0.1568,0.1554 -0.1512,0.0924 -0.2198,0.0924 -0.0322,0 -0.0434,-0.0224 -0.01,-0.0224 -0.01,-0.063 0,-0.0266 0,-0.0378 0.0938,0 0.1708,-0.028 0.077,-0.028 0.1344,-0.0924 -0.042,-0.0154 -0.0854,-0.0154 -0.1022,0 -0.217,0.0784 -0.126,0.0854 -0.126,0.182 0,0.0924 0.126,0.1288 0.0196,0.0056 0.2366,0.0392 0.1274,0.0196 0.1274,0.0686 0,0.021 -0.0462,0.0336 -0.0462,0.014 -0.1176,0.014 -0.1792,0 -0.2828,-0.0546 -0.1372,-0.0728 -0.1372,-0.2338 0,-0.168 0.168,-0.2674 0.1428,-0.084 0.3248,-0.084 0.0546,0 0.0994,0.0252 0.0546,0.0308 0.0546,0.0812 z"
         style="fill:#fafafa;fill-opacity:0.4;stroke:none"
         id="path67" />
      <path
         d="m 333.69148,79.698601 q 0,0.0308 -0.0742,0.1288 -0.0742,0.098 -0.0742,0.1498 0,0.0266 0.0308,0.0532 0.07,0.0616 0.07,0.0756 0,0.0182 -0.0126,0.035 -0.0112,0.0168 -0.0294,0.0168 -0.0154,0 -0.0434,-0.0168 -0.0196,-0.0112 -0.0756,-0.0546 -0.021,0.0406 -0.0322,0.0616 -0.0392,0.0742 -0.0532,0.1078 -0.021,0.0644 -0.042,0.1288 -0.0364,0.0868 -0.091,0.0868 l -10e-4,-0.0322 q 0,-0.0994 0.0644,-0.2352 0.0126,-0.0252 0.07,-0.1302 -0.1106,-0.0602 -0.2436,-0.0602 0,-0.0518 0.021,-0.0756 0.0224,-0.0252 0.0742,-0.0252 0.0476,0 0.119,0.0168 0.035,0.0084 0.07,0.0168 0.0266,-0.0084 0.0728,-0.091 0.1134,-0.1988 0.154,-0.2282 0.0112,0.0182 0.0182,0.0364 0.008,0.0182 0.008,0.035 z"
         style="fill:#fafafa;fill-opacity:0.4;stroke:none"
         id="path69" />
      <path
         d="m 334.20808,80.198401 q 0,0.0686 -0.0518,0.154 -0.0588,0.0966 -0.1218,0.0966 -0.0182,0 -0.0308,-0.0196 -0.0112,-0.021 -0.0112,-0.0406 0,-0.0252 0.0532,-0.0784 0.0546,-0.0546 0.0546,-0.0742 0,-0.0126 -0.004,-0.0252 -0.004,-0.0126 -0.006,-0.0168 -0.105,0.0238 -0.2142,0.1204 -0.1078,0.0966 -0.1638,0.1092 -0.0112,-0.0308 -0.0112,-0.063 0,-0.0392 0.0182,-0.0826 0.0126,-0.0308 0.042,-0.0742 0.049,-0.0742 0.1036,-0.168 0.028,-0.049 0.0966,-0.1694 0.07,-0.1204 0.1022,-0.1708 0.0168,-0.0252 0.0294,-0.0378 0.0182,-0.0168 0.0434,-0.0224 0.0168,0.0056 0.0238,0.021 0.008,0.0154 0.008,0.0364 0,0.0476 -0.0616,0.1288 -0.112,0.1456 -0.1148,0.1512 -0.063,0.0952 -0.063,0.1722 l 0.003,0.014 q 0.077,-0.0378 0.091,-0.0434 0.0574,-0.0238 0.098,-0.0238 0.0448,0 0.0658,0.0308 0.021,0.0294 0.021,0.0756 z"
         style="fill:#fafafa;fill-opacity:0.4;stroke:none"
         id="path71" />
      <path
         d="m 335.35748,79.742001 q 0,0.0658 -0.07,0.1764 -0.0448,0.07 -0.147,0.2016 -0.1022,0.1302 -0.1274,0.1708 0.004,0.0014 0.105,0.0336 0.1022,0.0308 0.1022,0.112 -0.042,0.007 -0.0826,0.0126 l -0.0154,-0.0014 v -0.0112 q -0.0224,-0.0056 -0.0364,-0.0056 -0.0266,0 -0.084,0.0084 -0.0574,0.0084 -0.0868,0.0084 -0.0378,0 -0.0616,-0.014 -0.0238,-0.014 -0.0238,-0.0504 0,-0.0294 0.1078,-0.1666 0.2016,-0.2562 0.203,-0.259 0.1092,-0.1484 0.1092,-0.1988 0,-0.0196 -0.014,-0.0294 -0.0126,-0.0098 -0.0518,-0.0098 -0.0266,0 -0.1106,0.0518 -0.0406,0.0252 -0.0658,0.0252 l -0.0238,-0.0042 q -0.008,-0.0056 -0.0182,-0.021 -0.01,-0.0168 -0.01,-0.0266 0,-0.0588 0.1134,-0.1078 0.0966,-0.042 0.168,-0.042 0.0602,0 0.0924,0.0448 0.028,0.0392 0.028,0.1022 z"
         style="fill:#fafafa;fill-opacity:0.4;stroke:none"
         id="path73" />
      <path
         d="m 336.19887,79.994001 q 0,0.1694 -0.1834,0.2996 -0.168,0.119 -0.3458,0.119 -0.0882,0 -0.14,-0.0448 -0.0518,-0.0448 -0.0518,-0.1302 0,-0.1904 0.1666,-0.3304 0.1582,-0.133 0.3542,-0.133 0.0994,0 0.1498,0.0588 0.0504,0.0588 0.0504,0.161 z m -0.0854,0.0322 q 0,-0.0644 -0.0728,-0.0966 -0.0546,-0.0238 -0.1302,-0.0238 -0.1106,0 -0.231,0.1078 -0.1204,0.1078 -0.1204,0.217 0,0.0448 0.0224,0.0644 0.0238,0.0182 0.0714,0.0182 0.1372,0 0.2856,-0.0756 0.175,-0.0896 0.175,-0.2114 z"
         style="fill:#fafafa;fill-opacity:0.4;stroke:none"
         id="path75" />
      <path
         d="m 336.84007,79.742001 q 0,0.0658 -0.07,0.1764 -0.0448,0.07 -0.147,0.2016 -0.1022,0.1302 -0.1274,0.1708 0.004,0.0014 0.105,0.0336 0.1022,0.0308 0.1022,0.112 -0.042,0.007 -0.0826,0.0126 l -0.0154,-0.0014 v -0.0112 q -0.0224,-0.0056 -0.0364,-0.0056 -0.0266,0 -0.084,0.0084 -0.0574,0.0084 -0.0868,0.0084 -0.0378,0 -0.0616,-0.014 -0.0238,-0.014 -0.0238,-0.0504 0,-0.0294 0.1078,-0.1666 0.2016,-0.2562 0.203,-0.259 0.1092,-0.1484 0.1092,-0.1988 0,-0.0196 -0.014,-0.0294 -0.0126,-0.0098 -0.0518,-0.0098 -0.0266,0 -0.1106,0.0518 -0.0406,0.0252 -0.0658,0.0252 l -0.0238,-0.0042 q -0.008,-0.0056 -0.0182,-0.021 -0.01,-0.0168 -0.01,-0.0266 0,-0.0588 0.1134,-0.1078 0.0966,-0.042 0.168,-0.042 0.0602,0 0.0924,0.0448 0.028,0.0392 0.028,0.1022 z"
         style="fill:#fafafa;fill-opacity:0.4;stroke:none"
         id="path77" />
      <path
         d="m 337.48407,79.742001 q 0,0.0658 -0.07,0.1764 -0.0448,0.07 -0.147,0.2016 -0.1022,0.1302 -0.1274,0.1708 0.004,0.0014 0.105,0.0336 0.1022,0.0308 0.1022,0.112 -0.042,0.007 -0.0826,0.0126 l -0.0154,-0.0014 v -0.0112 q -0.0224,-0.0056 -0.0364,-0.0056 -0.0266,0 -0.084,0.0084 -0.0574,0.0084 -0.0868,0.0084 -0.0378,0 -0.0616,-0.014 -0.0238,-0.014 -0.0238,-0.0504 0,-0.0294 0.1078,-0.1666 0.2016,-0.2562 0.203,-0.259 0.1092,-0.1484 0.1092,-0.1988 0,-0.0196 -0.014,-0.0294 -0.0126,-0.0098 -0.0518,-0.0098 -0.0266,0 -0.1106,0.0518 -0.0406,0.0252 -0.0658,0.0252 l -0.0238,-0.0042 q -0.008,-0.0056 -0.0182,-0.021 -0.01,-0.0168 -0.01,-0.0266 0,-0.0588 0.1134,-0.1078 0.0966,-0.042 0.168,-0.042 0.0602,0 0.0924,0.0448 0.028,0.0392 0.028,0.1022 z"
         style="fill:#fafafa;fill-opacity:0.4;stroke:none"
         id="path79" />
    </g>
    <g
       aria-label="M.U.G.E.N"
       transform="scale(0.97986306,1.0205508)"
       id="text1643"
       style="font-size:153.333px;line-height:1.25;font-family:'HEADSOME &amp; modif';-inkscape-font-specification:'HEADSOME &amp; modif';display:inline;fill:url(#linearGradient32349);stroke:#010000;stroke-width:3;stop-color:#000000"
       inkscape:label="M.U.G.E.N">
      <path
         d="M 2.5580784,1.7851049 H 50.774117 L 69.641263,62.878719 90.005801,1.7851049 H 137.02393 V 109.14815 H 99.888591 V 23.497296 L 71.887351,108.99841 H 45.982461 L 18.879657,24.395732 V 108.99841 H 2.5580784 Z"
         style="font-family:'Enter Sansman';-inkscape-font-specification:'Enter Sansman'"
         id="path16" />
      <path
         d="m 155.89107,80.997168 h 36.38664 v 28.150982 h -36.38664 z"
         style="font-family:'Enter Sansman';-inkscape-font-specification:'Enter Sansman'"
         id="path18" />
      <path
         d="m 202.01076,1.6353657 h 37.58455 V 82.344822 q 0,1.497392 0.44922,2.994785 0.59895,1.347653 1.49739,2.545567 1.04818,1.497393 2.54557,2.545567 1.64713,0.898436 3.29426,0.898436 h 35.63794 q 1.79687,0 3.14453,-0.449218 1.34765,-0.598957 2.24609,-1.347653 1.19791,-1.048175 1.64713,-2.395828 0.59895,-1.497393 0.59895,-2.994785 V 1.6353657 h 16.17184 V 80.69769 q 0,2.395828 -0.29947,5.091134 -0.14974,2.545568 -0.59896,5.091135 -0.59896,2.545567 -1.49739,5.091135 -0.89844,2.395828 -2.39583,4.641916 -1.04818,1.79687 -2.69531,3.29426 -1.64713,1.4974 -3.74348,2.54557 -2.24609,1.34765 -5.39061,2.09635 -2.99479,0.59896 -6.73827,0.59896 H 226.568 q -3.44401,0 -6.28905,-0.59896 -2.84505,-0.59896 -5.24088,-1.79687 -2.24609,-1.19791 -4.1927,-2.84505 -1.79687,-1.79687 -3.14452,-3.74348 -1.64713,-2.246086 -2.69531,-4.791653 -1.04817,-2.695307 -1.79687,-5.390613 -0.59895,-2.695307 -0.89843,-5.390614 -0.29948,-2.845045 -0.29948,-5.390613 z"
         style="font-family:'Enter Sansman';-inkscape-font-specification:'Enter Sansman'"
         id="path20" />
      <path
         d="m 324.198,80.997168 h 36.38664 V 109.14815 H 324.198 Z"
         style="font-family:'Enter Sansman';-inkscape-font-specification:'Enter Sansman'"
         id="path22" />
      <path
         d="M 467.04923,1.7851049 V 19.154858 h -53.75639 q -1.04818,0 -2.24609,0.449218 -1.04818,0.449218 -1.94661,1.197914 -1.04818,0.748696 -1.64713,1.647132 -0.59896,0.898435 -0.59896,1.94661 v 61.243353 q 0,1.048175 0.44922,2.09635 0.59896,1.048175 1.49739,1.94661 0.89844,0.748696 1.94661,1.347653 1.04818,0.598957 2.09635,0.598957 h 15.57288 q 1.04818,0 2.09635,-0.449217 1.04818,-0.598957 1.79687,-1.347654 0.89844,-0.748696 1.34766,-1.796871 0.59895,-1.048174 0.59895,-1.94661 V 62.429501 H 414.34101 V 45.209488 h 57.64961 v 63.788922 h -80.11049 q -2.99479,0 -5.54036,-0.59896 -2.39582,-0.59896 -4.49217,-1.64713 -2.39583,-1.19791 -4.34244,-2.84505 -1.79687,-1.79687 -3.14453,-3.74348 -1.19791,-1.796868 -2.09635,-3.593739 -0.74869,-1.946611 -1.34765,-3.893221 -0.59896,-2.545567 -1.04817,-5.091134 -0.29948,-2.545568 -0.29948,-4.941396 V 29.187388 q 0,-2.845046 0.29948,-5.540352 0.44921,-2.695307 1.19791,-5.091135 0.59896,-2.395828 1.64713,-4.492178 1.04818,-2.246088 2.24609,-3.89322 1.34765,-2.0963495 2.99479,-3.593742 1.79687,-1.4973925 3.74348,-2.6953065 1.94661,-1.0481748 4.04296,-1.4973926 2.24608,-0.598957 4.49217,-0.598957 z"
         style="font-family:'Enter Sansman';-inkscape-font-specification:'Enter Sansman'"
         id="path24" />
      <path
         d="m 489.21064,80.997168 h 36.38664 v 28.150982 h -36.38664 z"
         style="font-family:'Enter Sansman';-inkscape-font-specification:'Enter Sansman'"
         id="path26" />
      <path
         d="m 535.77956,1.7851049 h 82.8058 V 19.154858 h -44.92177 v 25.755151 h 43.72386 v 17.519492 h -43.72386 v 29.199154 h 45.96995 v 17.369755 h -83.85398 z"
         style="font-family:'Enter Sansman';-inkscape-font-specification:'Enter Sansman'"
         id="path28" />
      <path
         d="m 635.95508,80.997168 h 36.38664 v 28.150982 h -36.38664 z"
         style="font-family:'Enter Sansman';-inkscape-font-specification:'Enter Sansman'"
         id="path30" />
      <path
         d="m 682.82348,1.6353657 h 48.96474 L 772.51729,89.382567 V 1.6353657 h 16.7708 V 108.84867 H 740.32335 L 698.99532,19.454337 v 89.394333 h -16.17184 z"
         style="font-family:'Enter Sansman';-inkscape-font-specification:'Enter Sansman'"
         id="path32" />
    </g>
  </g>
</svg>
