<svg height="149.29025" viewBox="0 0 718.13145 119.4322" width="897.66431" xmlns="http://www.w3.org/2000/svg" xmlns:xlink="http://www.w3.org/1999/xlink"><clipPath id="a"><path d="m323.08403 14.003903h409.93987v75.949213h-409.93987zm337.9487 59.47917c4.1883-2.165854 6.31357-6.872819 6.31357-13.983073 0-10.686878-5.12852-16.235509-14.07428-15.227193-7.8974.890152-11.89674 7.180301-11.05085 17.380729.90119 10.86716 9.8231 16.47765 18.81156 11.829537z"/></clipPath><clipPath id="b"><path d="m12.945312 10.884766h291.222658v79.136718h-291.222658zm271.771478 47.96867a12.918481 15.888685 0 0 0 -12.91848-15.888686 12.918481 15.888685 0 0 0 -12.91848 15.888686 12.918481 15.888685 0 0 0 12.91848 15.888685 12.918481 15.888685 0 0 0 12.91848-15.888685zm-210.879597-8.382554a19.463287 23.400846 0 0 0 -19.463288-23.400846 19.463287 23.400846 0 0 0 -19.463287 23.400846 19.463287 23.400846 0 0 0 19.463287 23.400847 19.463287 23.400846 0 0 0 19.463288-23.400847z" display="block"/></clipPath><clipPath id="c"><path d="m8.917969 6.8574219h728.131461v87.1914061h-728.131461zm60.236386 43.5067031c0-10.232617-6.617433-18.527794-14.78045-18.527793-8.163016 0-14.780448 8.295177-14.780448 18.527793 0 10.232618 6.617432 18.527794 14.780448 18.527794 8.163017 0 14.78045-8.295176 14.78045-18.527794zm210.766335 8.480132c0-6.140242-3.71367-11.117895-8.2947-11.117896-4.58103.000001-8.29471 4.977654-8.29471 11.117896 0 6.140245 3.71368 11.117896 8.29471 11.117896s8.2947-4.977651 8.2947-11.117896zm378.96391 10.717c2.77778-1.575744 4.18732-5.000246 4.18732-10.173234 0-7.775123-3.40138-11.811971-9.33443-11.078382-5.23779.647621-7.89024 5.223951-7.32922 12.645162.59769 7.906287 6.51494 11.988138 12.47633 8.606454z" display="block"/></clipPath><g transform="translate(-13.917969 -11.857422)"><text fill="#ef00eb" font-family="TrasksHand" font-size="1.6" stroke="#0105ff" stroke-width="2" x="214.81737" y="93.099739"><tspan fill="#fafafa" fill-opacity=".4" font-size="1.6" stroke="none" stroke-width="2" x="214.81737" y="93.099739">John Loreth 2022</tspan></text><rect fill="#fff" height="37.985916" rx="4.678134" stroke-linecap="round" stroke-linejoin="round" stroke-width="5.99999" width="483.68204" x="130.99388" y="93.303711"/><path d="m136.02661 97.727997h474v29h-474z" fill="#ebe427" stroke-linecap="round" stroke-linejoin="round" stroke-width="5.99999"/><g transform="translate(19.478379 -152)"><g fill="none"><g stroke="#000" stroke-linecap="round" stroke-linejoin="round" stroke-width="2"><path d="m153.46865 260.43579 16.83874.0931"/><path d="m163.75611 272.76669v-16.82355c-1.10223 8.9498-5.40436 11.3864-9.23725 14.75859"/></g><g stroke="#000" stroke-linecap="round" stroke-linejoin="round" stroke-width="2"><path d="m179.74848 256.41095.16775 13.82866c0 1.75501.10701 1.87442 2.10295 1.87442h7.32232"/><path d="m174.51836 263.61604 15.13661-2.33906-3.65999 5.4205"/></g><g stroke="#000" stroke-linecap="round" stroke-linejoin="round" stroke-width="2"><path d="m202.00983 271.75154v-12.99558h11.28728v12.94321"/><path d="m202.08637 269.64083h10.83247"/></g><g stroke="#000" stroke-linecap="round" stroke-linejoin="round" stroke-width="2"><path d="m222.9698 265.56969c2.32241-2.43651 3.92587-6.00989 4.7475-9.11809"/><path d="m238.16528 260.71387h-11.62568"/><path d="m227.66492 273.05261c2.86496-2.26855 5.47577-5.39997 6.08724-12.43632"/><path d="m235.59413 255.65617 1.44672 2.10025"/><path d="m238.73201 254.78867 1.44672 2.10025"/></g><path d="m244.91052 264.47883h17.5822" stroke="#000" stroke-linecap="round" stroke-linejoin="round" stroke-width="2"/><path d="m511.99724 264.44259h17.5822" stroke="#000" stroke-linecap="round" stroke-linejoin="round" stroke-width="2"/><g stroke="#000" stroke-linecap="round" stroke-linejoin="round" stroke-width="2"><path d="m268.10235 270.96579c5.56692-.13584 11.26089-.2685 14.93047-1.85987"/><path d="m270.69006 270.97161c2.09955-4.12876 4.3513-9.73979 5.57023-14.32172"/><path d="m280.0427 265.38259 4.94759 6.2421"/></g><g stroke="#000" stroke-linecap="round" stroke-linejoin="round" stroke-width="2"><path d="m292.7852 274.57006v-15.93406h17.06073v13.39827c.00011 1.04813-.19333 1.88229-1.24664 1.76587h-3.30659"/><path d="m301.70231 254.86925c-.2206 6.14369-2.0327 11.53339-5.31195 14.98465"/><path d="m306.82357 269.79346c-1.15751-2.60136-3.95657-6.65141-5.92027-8.45918"/></g></g><g stroke="#ef00e7"><g fill="none" stroke="#000009" stroke-linejoin="round"><path d="m314.91079 273.74061 1.56802-4.14902v-8.73761l17.69993-.21531" stroke-linecap="round" stroke-width="2"/><path d="m327.64702 259.41576c.54616 10.13781 2.56937 13.40409 4.55591 14.51598 1.48705-.2294 1.90572-1.04458 1.97805-2.62038" stroke-linecap="round" stroke-width="2"/><path d="m332.62549 263.99987c-1.51856 4.22253-3.71584 7.00312-5.79091 10.04333" stroke-linecap="round" stroke-width="2"/><path d="m324.97561 272.09192h-5.72463v-8.62875h5.86459" stroke-linecap="round"/><path d="m319.59911 266.24998h5.392v2.9907h-5.65213" stroke-linecap="round"/><path d="m322.56377 266.24117v-2.69761" stroke-width="2"/><path d="m322.56377 271.85332v-2.69761" stroke-width="2"/><path d="m334.24902 255.30165h-8.45695" stroke-linecap="round" stroke-width="2"/><path d="m322.9066 255.30165h-8.2788" stroke-linecap="round" stroke-width="2"/><path d="m331.81306 257.96188 2.39434 2.66783" stroke-linecap="round" stroke-width="2"/></g><circle cx="328.70084" cy="255.21515" r="2" stroke="none"/><circle cx="320.21494" cy="255.47919" r="2.25" stroke="none"/><path d="m324.99023 265.79128a1 .86781221 0 0 0 -1 .86782v2.18648a1 .86781221 0 0 0 1 .86781 1 .86781221 0 0 0 1-.86781v-2.18648a1 .86781221 0 0 0 -1-.86782z" stroke="none"/></g><g fill="none" stroke="#050000" stroke-linecap="round" stroke-linejoin="round" stroke-width="2"><path d="m423.03724 257.04336h10.02982"/><path d="m419.7347 261.76643h15.62268"/><path d="m427.6622 261.47081c1.1471 7.81892-1.45259 9.53305-4.05776 11.23827"/></g><path d="m445.40238 257.21364.0886 14.20848c5.88935-1.02016 9.84729-4.04467 12.70691-7.98954" fill="none" stroke="#050000" stroke-linecap="round" stroke-linejoin="round" stroke-width="2"/><g fill="none" stroke="#050000" stroke-linecap="round" stroke-linejoin="round" stroke-width="2"><path d="m468.59205 257.03418.29436 12.68856c.0105 1.44736.68041 2.11418 1.69084 2.11275l9.7231-.29183"/><path d="m468.76614 263.26895c3.54079-.0962 7.05556-.88342 10.19566-1.93804"/><path d="m478.94843 256.48396 1.44672 2.10025"/><path d="m482.08631 255.61646 1.44672 2.10025"/></g><g fill="none" stroke="#050000" stroke-linecap="round" stroke-linejoin="round" stroke-width="2"><path d="m502.68789 255.84554 1.44672 2.10025"/><path d="m505.82577 254.97804 1.44672 2.10025"/><path d="m489.90161 265.55447c1.91861-2.61094 3.9589-5.41413 4.59217-9.44933"/><path d="m494.68536 273.2818c3.45507-3.24261 5.83889-7.12042 5.74257-12.36158"/><path d="m505.42475 260.75147h-12.13105"/></g><g fill="none" stroke="#050000" stroke-linecap="round" stroke-linejoin="round" stroke-width="2"><path d="m542.85548 257.18167c-1.23495 5.03443-3.32649 9.32029-5.35985 13.48243"/><path d="m546.8447 265.37005 4.74033 6.23853"/><path d="m535.00864 270.87537c8.28841-.28593 12.30301.0351 14.44257-1.84197"/></g><g stroke="#ef00e7"><path d="m390.88593 256.68078h-17.18919v11.21834c.15497 2.51969-.8223 4.77132-1.63517 6.12573" fill="none" stroke="#0e0000" stroke-linecap="round" stroke-linejoin="round" stroke-width="2"/><path d="m381.60352 253.73828a1.2070259.83588185 0 0 0 -1.20702.83588v2.12072a1.2070259.83588185 0 0 0 1.20702.83588 1.2070259.83588185 0 0 0 1.20703-.83588v-2.12072a1.2070259.83588185 0 0 0 -1.20703-.83588z" stroke="none"/><g stroke-linecap="round" stroke-linejoin="round"><path d="m376.63584 260.25192 3.65932.15577-3.598 4.9552 3.44715.16875-.0542 3.09621c-1.06992 2.5013-2.17976 3.961-4.25287 5.47041" fill="none" stroke="#0e0000" stroke-width="1.5"/><path d="m376.71104 268.42642c5.0882 7.67491 8.94741 4.83066 14.5603 5.32001" fill="none" stroke="#0e0000" stroke-width="1.5"/><path d="m383.36586 260.85263 6.4507-1.10831" fill="none" stroke="#0e0000" stroke-width="1.5"/><path d="m386.78711 260.15818a.75.64745192 0 0 0 -.75.64745v8.62764a.75.64745192 0 0 0 .75.64745.75.64745192 0 0 0 .75-.64745v-8.62764a.75.64745192 0 0 0 -.75-.64745z" stroke="#000" stroke-width=".999999"/><path d="m382.46972 270.00251h8.49097" fill="none" stroke="#0e0000" stroke-width="1.5"/><path d="m383.54938 264.82842h6.52367" fill="none" stroke="#0e0000" stroke-width="1.5"/></g></g><g stroke="#ef00e7"><path d="m357.60352 253.73828a1.2070259.77979439 0 0 0 -1.20702.77979v1.97843a1.2070259.77979439 0 0 0 1.20702.77978 1.2070259.77979439 0 0 0 1.20703-.77978v-1.97843a1.2070259.77979439 0 0 0 -1.20703-.77979z" stroke="none"/><g fill="none" stroke="#180000" stroke-linecap="round" stroke-linejoin="round"><path d="m348.74327 259.30899v-2.5888h18.00479v3.09048" stroke-width="2"/><path d="m356.96165 259.77174c1.62865 6.73169 5.1908 8.9485 10.03836 13.0228" stroke-width="1.5"/><path d="m364.36405 259.8015h-13.03325" stroke-width="1.5"/><path d="m358.43029 259.85308c-1.93293 2.60196-5.29521 3.77788-9.03404 4.57812" stroke-width="1.5"/><path d="m358.67274 264.16089c-3.04828 2.13813-5.74502 3.8932-9.60662 4.45277" stroke-width="1.5"/><path d="m365.33797 263.26071c-4.83316 3.81434-11.36058 8.69313-16.42283 9.84623" stroke-width="1.5"/><path d="m359.99073 267.23459-.19245 5.07473c-.0185 1.33732-1.26878 1.97917-3.319 1.57499" stroke-width="1.5"/></g></g><g fill="none" stroke="#000" stroke-linecap="round" stroke-linejoin="round" stroke-width="2"><path d="m409.74252 273.91294c2.68171.35992 3.19356-.55128 3.07652-1.83257v-16.46314h-15.68607l-.22381 13.05673c.00083 2.12513-.68388 3.88123-1.5076 5.06127"/><path d="m397.10969 260.93634h15.60595"/><path d="m396.94228 266.95911h15.76933"/><path d="m404.8021 273.96935v-18.34317"/></g></g><path clip-path="url(#c)" d="m53.769531 11.857422c-21.885598-.000747-39.85119 17.247501-39.851562 38.595703.000372 21.348202 17.965964 38.59645 39.851562 38.595703 14.84656-.000275 27.734154-8.031806 34.587891-19.802734.0326 1.669079-.04067 3.563919.05859 5.074218a4.0286974 4.0286974 0 0 0 .04492.390626c.383897 2.334601 1.531975 5.177337 4.082031 7.449218 2.550056 2.271882 6.374014 3.737735 11.255861 3.765625l22.92773.13086a4.0286974 4.0286974 0 0 0 .0234 0c.85288 0 1.55492.02514 2.47266-.08984.91773-.114981 2.41937-.505918 3.51562-1.728516 1.09626-1.222598 1.29391-2.509093 1.39063-3.396484.0967-.887391.0894-1.655533.0996-2.617188.0606-5.732574-.01-16.903572-.041-22.496093.0542-4.731112 2.90362-6.498575 5.50586-6.644532 1.30112-.07298 2.45404.308513 3.375 1.201172.92096.89266 1.77471 2.421672 1.84766 5.326172a4.0286974 4.0286974 0 0 0 .0156.257813c.11113 1.240944.16047 6.22236.14648 11.232421-.014 5.010062-.0563 10.287839.004 13.38086.008.390624-.0325.766652.11914 1.585937.1516.819286.95781 2.451761 2.14844 3.175782 2.38126 1.448041 3.0121.775309 4.2793.796875a4.0286974 4.0286974 0 0 0 .0605 0l8.16016.01563-.20313-.0039c.74985.03944 1.36551.0849 2.19922.01172s2.27045-.358236 3.39063-1.548828 1.28537-2.472974 1.35351-3.210937c.0681-.737964.0467-1.265665.0508-1.894532l.01-1.46875c5.75198 6.145771 13.38356 9.394896 20.97461 9.75586 8.15101.387591 16.33503-2.440419 22.37695-7.945313-.11825 1.174006-.16449 2.331515 1.10157 4.162109.87613 1.266805 2.50157 1.947654 3.43945 2.103516.93787.155862 1.54854.118089 2.24023.111328l9.04492-.08984c.62421-.0061 1.1726.02863 2.06446-.113281.44952-.07152 1.08465-.276692 1.7207-.61914.65462.375167 1.31779.617219 1.80469.699218.93894.158128 1.54214.118594 2.2207.113282l8.03711-.0625c.76085 0 1.40469.02614 2.29688-.0918.89218-.117943 2.39837-.546668 3.44726-1.761719s1.22326-2.447202 1.3125-3.308594c.0774-.747429.0691-1.433411.0684-2.203125 5.81906 5.703641 13.98074 9.18603 22.82617 9.207032a4.0286974 4.0286974 0 0 0 .01 0c17.19995-.000512 31.55836-12.947064 31.55859-29.25586.001-16.309679-14.3577-29.257301-31.55859-29.257812a4.0286974 4.0286974 0 0 0 -.01 0c-8.84045.02098-16.99794 3.499381-22.8164 9.197265v-17.271502c0-.835473.02-1.513232-.0508-2.332031s-.20621-2.045954-1.24415-3.28711c-1.03793-1.241155-2.55301-1.686794-3.46289-1.810547-.90987-.123752-1.59091-.09665-2.41015-.08789l-8.05274.08789c-.66496 0-1.23471-.03408-2.12695.09961-.49685.07444-1.20445.341223-1.91016.74414-1.01036-.536319-1.93026-.711324-2.59179-.755859-.82657-.05565-1.55539-.0377-2.49024-.04492a4.0286974 4.0286974 0 0 0 -.002 0l-5.76367-.04297a4.0286974 4.0286974 0 0 0 -.0293 0c-1.12842 0-2.00146-.01834-2.91406.04102-.9126.05935-2.07523.09957-3.44922 1.09375-1.37399.994183-1.98076 2.732132-2.11523 3.726563-.13448.99443-.0942 1.70863-.0899 2.58789-.0102 9.458074-.009 12.251068-.0117 16.667969-7.19653-7.181404-16.39069-10.093061-25.02343-8.857422-8.06792 1.154793-15.52259 5.739191-20.60547 12.744141-.0466-.09967-.0687-.203382-.11719-.302735-2.10942-4.321043-6.11718-7.91501-12.08008-10.259765-3.04032-1.195524-6.78248-1.592404-10.76953-1.082032-2.45027.313654-4.99337 1.081133-7.33203 2.386719l.041-11.083984a4.0286974 4.0286974 0 0 0 0-.03711c-.0104-1.810615.61725-2.861366-.92382-5.326171-.77054-1.232403-2.41334-2.064476-3.3711-2.244141-.95775-.179666-1.52891-.131494-2.14258-.125l-8.88281.0957c-.67361.0071-1.24559-.01999-2.11328.103516-.86769.123502-2.43812.633881-3.41992 1.886718-.9818 1.252838-1.07514 2.383312-1.14453 3.189454-.0694.806141-.0566 1.515616-.0566 2.414062-.0281 3.808212-.009 7.120867-.0117 10.669922-.0822-.000607-.19312-.01243-.27735-.01367a4.0286974 4.0286974 0 0 0 -.21679.002s-.95216.01315-1.61524.03125c-.006-2.407564-.0108-5.865002-.0469-9.541015a4.0286974 4.0286974 0 0 0 -.0273-.441407c-.11567-.962117-.44205-2.388155-1.66015-3.570312-1.2181-1.182158-2.86409-1.531734-4.0625-1.539063-2.77433-.01707-7.170916.06507-8.712892.05273-.842037-.0067-1.618934.0076-2.544922.207031-.925989.199463-2.137456.695963-3.039063 1.675781-1.803213 1.959637-1.548559 3.795943-1.552734 5.179688l-.02148 7.300781c-7.035076-12.060083-20.184384-19.651199-34.594009-19.656296a4.0286974 4.0286974 0 0 0 -.002 0zm394.031249 3.11914c-.65854 0-1.19991-.01494-1.91406.05469s-1.8795.210822-3.04492 1.232422c-1.16543 1.0216-1.53166 2.439484-1.62891 3.207031-.0973.767547-.0723 1.263536-.0723 1.839844v8.851562c-.10652-.01938-.26722-.08285-.35546-.09375-.70823-.08751-1.1377-.06445-1.62891-.06445h-10.24219c-.65802 0-1.19501-.01332-1.89062.05078s-1.80054.169852-2.98047 1.146484c-1.17993.976631-1.60861 2.438089-1.71289 3.21289-.10428.774802-.0762 1.25168-.0762 1.796876 0 22.803759.00023 22.785205-.0195 26.769531a4.0286974 4.0286974 0 0 0 0 .01953c0 1.368755-.38282 1.898759-1.16797 2.503906-.78516.605147-2.14873 1.059912-3.5625 1.060547-1.41378.000635-2.77815-.453277-3.5625-1.056641-.78436-.603363-1.16602-1.129094-1.16602-2.492187v-13.398439-13.40625c0-.535466.0451-1.034534-.11133-1.931641-.15644-.897107-.91808-2.526577-2.12695-3.320313-2.41773-1.587471-3.40132-.955481-5.09375-.986328a4.0286974 4.0286974 0 0 0 -.0742 0h-7.91211c-1.38069 0-2.39878-.39069-4.10351.441406-.0273-.923604.0356-3.571897-.0176-4.330078.0854-3.905133-1.86099-7.62169-5.4375-9.683593-3.60143-2.076266-8.83237-1.656698-13.19141 1.74414a4.0286974 4.0286974 0 0 0 -.23242.197266l-15.91794 14.488281-15.66602-14.384766a4.0286974 4.0286974 0 0 0 -.0508-.04687c-2.70732-2.401272-5.98463-3.551576-9.07226-3.376954-5.14566.291016-9.71017 4.626153-9.67969 10.134766l-.0312 54.871094a4.0286974 4.0286974 0 0 0 0 .002c0 .500336-.0255.939967.0664 1.664062.0919.724096.44747 2.102316 1.57226 3.101563 1.12479.999246 2.24886 1.145671 2.91211 1.21875.66326.07308 1.1365.06493 1.70703.07227a4.0286974 4.0286974 0 0 0 .0664 0l8.9082-.0293c.63322 0 1.14967.01357 1.81641-.04492s1.71312-.136149 2.89648-1.070313c1.18337-.934163 1.66101-2.422686 1.76953-3.193359.10853-.770674.0781-1.218643.0781-1.71875v-29.707085l1.3125 1.173828.006.0059c.15127.152091 1.74056 1.755748 3.74805 3.544922 1.05024.936035 2.16813 1.885709 3.27734 2.689453.5546.401872 1.09857.769228 1.73242 1.103516s1.25583.767578 2.78516.767578c1.58857 0 2.18331-.459347 2.80273-.798828.61943-.339481 1.1479-.708688 1.68555-1.111328 1.07529-.805281 2.15721-1.751788 3.17773-2.6875 1.9356-1.774744 3.44905-3.340323 3.61914-3.515625.0164-.01424.9042-.77058 1.22852-1.050782.00026 1.080704.001 2.035024.002 3.195313.002 4.385834.008 8.763672.008 8.763672l-.0195 19.623047a4.0286974 4.0286974 0 0 0 4.02735 4.03125h6.95703 7.2539a4.0286974 4.0286974 0 0 0 4.02735-4.03125l-.006-6.431641c3.46712 6.038239 9.17131 9.793102 14.89844 10.388672 6.88455.715935 11.07889-.888682 14.48047-2.714844.16864.305603.38792.592506.64648.876953a4.0286974 4.0286974 0 0 0 1.68555 1.328125c.11559.05456.25717.197195.36133.230469 1.95399.624256 2.6623.341773 4.54492.339844l8.90039-.0098c1.04953-.0011 1.5502.64806 3.86719-.683594.13795-.07929.22052-.253784.3496-.357421.053.0398.0759.109798.13086.146484 2.44303 1.629239 3.45942.954746 5.10157.943359l8.14062-.05273a4.0286974 4.0286974 0 0 0 .002 0c.61604-.0041 1.11482.0071 1.7754-.05078.66057-.05792 1.72951-.134311 2.92187-1.095704 1.19236-.961392 1.63543-2.441583 1.73828-3.205078.10285-.763494.0742-1.219129.0742-1.742187 0-.246995 0-.442691 0-.6875.36018.690613.62807 1.416125 1.09375 2.0625 1.75956 2.442293 4.54535 4.747247 8.29492 4.773437 7.57757.05292 22.12728.05926 29.25196-.0078.51198-.0048 1.01336.04741 1.9707-.152344.95734-.199752 2.62878-1.174887 3.30664-2.396484 1.35571-2.443195.76163-3.334574.76172-5.171875 0-5.200199.002-8.995573.002-13.234375l3.20084 9.378882a4.0286974 4.0286974 0 0 0 .11914.304688c1.91464 4.403846 2.77661 7.301655 5.82227 9.417968 3.03239 2.107098 6.10173 1.794117 10.54101 1.75 2.00049.02098 3.58385.05649 5.16016-.111328 1.58466-.168709 3.3239-.640718 4.77539-1.697266 2.90298-2.113095 3.81943-4.896642 5.87305-9.339843a4.0286974 4.0286974 0 0 0 .0977-.230469c.64927-1.669922 1.56587-4.907246 2.37891-7.376953-.0003 3.758011-.002 7.410493-.002 11.15625 0 .914152-.0222 1.658285.0879 2.587891.11012.929605.45067 2.405539 1.67187 3.550781 1.2212 1.145241 2.57883 1.371469 3.49414 1.466797.91531.09533 1.69731.07814 2.67188.07813 13.07717-.00056 24.10835-.0085 36.21094-.07813 6.13419.0413 11.48482-.852526 15.73242-3.681641 1.46884-.978326 2.65626-2.275475 3.70703-3.699219v3.431641a4.0286974 4.0286974 0 0 0 4.02734 4.027344h14.64063a4.0286974 4.0286974 0 0 0 4.02734-4.027344v-2.28125c1.01202 1.001864 2.05434 1.97726 3.20508 2.832031 5.53216 4.10928 12.52803 6.383774 19.54492 6.400391a4.0286974 4.0286974 0 0 0 .0156 0c6.84358-.01113 13.6712-2.165851 19.13867-6.083985 1.21968-.874054 2.34129-1.863862 3.41211-2.90039v2.033203a4.0286974 4.0286974 0 0 0 4.02734 4.027344h14.35352a4.0286974 4.0286974 0 0 0 4.02734-4.027344c0-12.973033.0402-14.243127.46289-29.103516 1.30236-1.85055 3.22625-2.956266 5-3.019531 1.79631-.06407 3.2073.51624 4.25391 2.550781.0863 8.903856.0918 19.555187.0918 29.572266a4.0286974 4.0286974 0 0 0 4.02734 4.027344h14.44726a4.0286974 4.0286974 0 0 0 4.02735-4.085938c-.15385-10.660074-.11172-21.275284 0-31.96875v-.0078c.0128-1.067697-.17556-2.830571-.91406-4.732422-.80311-2.460117-2.37326-5.820276-5.50196-8.771485-3.16933-2.989536-7.97907-5.375213-14.30078-5.615234-4.31731-.227412-8.11514.974481-11.64258 3.037109a4.0286974 4.0286974 0 0 0 -3.96093-3.908203l-7.21094-.03125a4.0286974 4.0286974 0 0 0 -.0352 0l-7.14258.03125a4.0286974 4.0286974 0 0 0 -4.00976 4.027344v4.863281c-1.08478-1.045591-2.22659-2.040677-3.46289-2.919922-5.46422-3.886095-12.27291-6.015942-19.09375-6.017578a4.0286974 4.0286974 0 0 0 -.01 0c-7.01492.01651-14.00953 2.289425-19.54101 6.396485-1.1509.854524-2.19287 1.830399-3.20508 2.832031l-.004-4.623047a4.0286974 4.0286974 0 0 0 -1.4586-2.96095 4.0286974 4.0286974 0 0 0 .84375-2.101562v-3.5-3.5a4.0286974 4.0286974 0 0 0 -3.84961-4.023438l-6.68555-.294921-6.68555-.296875a4.0286974 4.0286974 0 0 0 -4.20507 4.023437v4.091797 4.091797a4.0286974 4.0286974 0 0 0 .18359.429687c-6.00446-.0045-13.07588-.000814-19.6543-.01953-5.23622-.0149-9.81402.245249-15.21679 2.876953a4.0286974 4.0286974 0 0 0 -.0234.0098c-3.08817 1.528128-5.36887 3.823697-6.95117 6.447266v-3.572266c0-.55771.0346-1.055823-.0918-1.892578-.0637-.421322-.24506-1.026898-.5625-1.640625.35247-.634601.57998-1.253627.63672-1.642578.10195-.698949.0684-1.028023.0684-1.369141v-7.625c0-.175006.10078-.495522-.17383-1.482422s-1.60413-2.476937-2.57227-2.865234c-1.93628-.776595-2.15102-.376953-3.02148-.376953h-10.25203c-1.24733 0-1.7486-.5329-3.97852.578125-1.11496.555512-2.20352 2.178353-2.4082 3.095703s-.13477 1.28528-.13477 1.595703v7.144531c0 .05055.0149.168133.0137.220703h-7.17578c-1.82528 0-3.96819 1.711536-4.53711 2.808594s-.63878 1.677956-.78125 2.091797a4.0286974 4.0286974 0 0 0 -.0566.177734c-2.35277 8.03495-5.66937 19.137026-6.23437 21.029297-.65337-1.874704-4.98412-14.289764-7.25-21.189453a4.0286974 4.0286974 0 0 0 -.15235-.388672c-.90801-2.02704-2.81424-3.518331-4.45703-4.058594-1.64279-.540262-2.96708-.470703-3.75-.470703-1.35547.000001-2.44992-.000001-3.68554 0-.001-.09833.0176-.278647.0176-.371094v-7.626953c0-.173434.10177-.491214-.17187-1.478515s-1.60878-2.483692-2.57813-2.871094c-1.93869-.774804-2.14683-.373047-3.01562-.373047h-10.25195c-1.24734-.000001-1.7486-.532902-3.97852.578125-1.11496.555514-2.20352 2.178354-2.4082 3.095703-.20468.91735-.13477 1.285281-.13477 1.595703v7.144532c0 .325634-.0425.660765.0859 1.421875.0645.382595.27244.964769.60742 1.546875-.0425.08079-.0835.138454-.12109.21875-.30366.04373-.60442.09133-.94727.0918-.13364.000179-.60122-.01756-.77734-.02148v-9.644531c0-.499977.0562-.989235-.13281-1.941406-.18906-.952172-1.15291-2.640367-2.375-3.324219-2.44419-1.367703-3.30661-.761719-5.09375-.761719h-7.7461c-1.66466 0-2.53822-.645744-4.98633.824219-.34194.205317-.57175.574639-.84961.888672-.16216-.797928-.51094-1.871633-1.49609-2.736328-1.17061-1.027484-2.34171-1.165062-3.05078-1.232422s-1.23978-.05078-1.88672-.05078zm-335.76562 29.945313c-2.48134.607223 1.41674 4.02071.0879 4.027344.0128 6.288674.0296 12.565246-.0215 19.480469a4.0286974 4.0286974 0 0 0 0 .0332c.00051.477165.0136.204577 0 .59375l-.57812.02148c-.84186.03145-1.08373-.05678-1.2461-.09766-.0113-.157032-.25364-1.445773-.25781-3.798828l-.0293-16.251953c.3543.0023 1.20504.0035 1.39649.0059.2845.0035.41927.0073.43359.0078.007.000249-.004.0011-.11523-.0078-.0555-.0044-.11528-.0033-.34766-.04297-.11619-.01982-.66225-.171926-.66211-.171875 0 0-.12695-.04687-.12695-.04687s-.14453-.06055-.14453-.06055-.30664-.148437-.30664-.148437-.0719-.04132-.12891-.07422l-.002-1.201172v-.002c.001-.04397.0128-.04529.0156-.08789.78276-.839169 2.03321-2.177734 2.03321-2.177734zm76.7539 2.458984c.99562-.0068 2.14605.28337 3.40625 1.365235l-7.00195.132812c1.19888-.883115 2.47431-1.490394 3.5957-1.498047zm420.5293 1.21875v8.658203c-.89652-1.239629-1.9061-2.390123-3.09961-3.363281-4.20536-3.428953-9.89264-5.091797-16.30859-5.091797-.2862 0-.2626-.08051-.48633-.103515.18961-.0131.11387-.06445.33594-.06445 6.80693.190481 13.13602.02373 19.55859-.03516zm-125.23828 1.486329c1.19616.04691-.25396-.09813 1.15234.03516v18.958984c-.7854-.02948-.81376-.02611-1.15234-.08008.0102-6.191328.003-12.626015 0-18.914062zm83.43359 6.013671c.005.01023.0144.01712.0195.02734.007.01303.009.028.0156.04102zm.79688 1.142579c1.85029 3.196228 4.34433 5.915831 7.72851 7.521484 3.81451 1.809825 8.33857 2.421838 13.88672 2.333984l-.54492-.02734c.59891.07202.38426.074.39844.0957.0142.0217.13983.336266.0918.80664-.0456.446993-.26547.91997-.4082 1.121094-8.07601-.179917-14.29075-.04641-21.15234 0zm-372.86719 10.02539c-2.08024 1.616812-4.70938 2.46877-7.05859 2.1875-1.58261-.189484-3.10263-.804709-4.46485-2.091797z" fill="#fff"/><g fill="#003869"><path clip-path="url(#a)" d="m447.80078 19.003906c-2.63335 0-2.63281.000781-2.63281 2.306641v58.625c0 2.09342.0002 2.14052 3.24805 2.119141l8.14062-.05273c2.5107-.01653 2.50977.02702 2.50977-2.066406 0-11.476094-.00029-20.537852-.0215-31.935547.0212-1.9285.0225-1.97254 1.39844-2h2.08008 1.89844c.98126.01618.98242.01025.98242 2v25.121094c0 3.674229 3.10257 8.907587 7.10547 8.935547 7.5435.05268 22.11723.05876 29.1875-.0078 2.04814-.01928 2.04865-.01913 2.04882-3.693359 0-13.160855-.00009-21.667674.004-33.496094-.004-2.158432-.34502-2.198623 1.50781 1.166016l4.74211 13.144513 4.78906 14.029297c3.83921 8.830552 3.74147 8.829903 12.6836 8.746093 8.06236.08381 8.02783.08367 12.13867-8.810546 1.4168-3.644056 3.58586-10.330557 5.4375-16.871094 2.37234-8.379783 4.49989-15.048929 4.72851-14.820313-.007 11.933929-.008 24.529914-.008 36.929688-.00001 3.656636-.00005 3.656308 3.89844 3.65625 13.09402-.00056 24.1281-.0083 36.23828-.07813 11.39185.0767 18.21551-3.595856 18.95313-13.496094 0-9.671045-7.51581-15.625-18.94922-15.625-7.94492 0-9.14617-8.222656-.15039-8.222656 7.64257.218307 14.79843-.01415 22.2539-.04102 1.33224-.0025 1.33203-.0039 1.33203 1.480469v35.982422h14.64063l.004-16.970703a27.523972 25.484964 0 0 0 26.78321 19.894531 27.523972 25.484964 0 0 0 26.58398-19.050781v16.126953h14.35352c0-13.569518.00057-13.569407.48437-30.556641 3.88809-6.976406 13.98241-7.931402 17.28321-.02148.0953 9.101003.0957 20.234779.0957 30.578125h14.44726c-.1546-10.711899-.11196-21.364793 0-32.078125.0131-1.038904-.001-1.686178-.66406-3.330078-1.26857-3.961151-5.29775-11.332019-16.2168-11.726563-6.08637-.328039-10.43893 2.105518-15.42968 7.167969v-8.031245l-7.21085-.03125-7.14258.03125v18.859375a27.523972 25.484964 0 0 0 -26.58398-18.90625 27.523972 25.484964 0 0 0 -26.78125 19.884766l.002-9.386719-.008-9.916016c-17.09242-.00056-24.94525-.0014-37.4961-.03711-5.14544-.01464-8.67557.149257-13.4414 2.470703-6.86106 3.395084-8.70706 11.961565-5.92578 17.310547 3.13611 6.327991 8.33311 8.924528 18.73828 8.759765 6.34262.762751 4.37345 10.050782-.006 10.050782-9.80038-.233385-16.73218 0-25.57227 0v-36.857421c0-2.230901.00005-2.232422-3.03515-2.232422h-22.58957c-.96696 0-1.09068.966271-1.50976 2.183594-2.55542 8.727018-6.75977 22.800781-6.75977 22.800781-3.90895 12.423012-1.96243 12.607225-6.60351 0 0 0-5.34831-15.326408-7.81446-22.835937-.96165-2.146768-2.96829-2.148439-4.53125-2.148438-7.10134.000004-12.16496.000023-19.30859 0-2.87051-.000009-2.87109.000707-2.87109 2.179688v36.910156l-3.72461.0059c-4.59579.0064-5.46413-.851897-5.48243-2.349609.0183-8.011587 0-16.700085 0-24.777344l4.94141.07031c2.12063.000001 2.12109.0011 2.12109-1.269531v-6.49414c0-1.306837.00009-1.305775-2.25195-1.302735-1.04587.0014-2.57359-.08676-4.81055-.125v-13.568398c0-2 .00007-2-3.57421-2h-7.7461c-3.32932 0-3.33008 0-3.33008 2v11.689453c0 2 .00075 2-2.86328 2h-.54883c-2.91181 0-2.92361.000683-2.91211-2.771484l-.0117-12.917969c.007-2.3221.00018-2.306641-2.60352-2.306641zm-113.80664.03906c-3.27533.185238-5.89809 2.625616-5.87891 6.091797l-.0312 54.894531c0 2 .001 1.999957 2.28321 2.029297l8.92187-.0293c2.53289 0 2.53321 0 2.53321-2v-35.138666c0-1.684395-.3214-3.939428 1.15039-2.548828l6.88081 6.158203s7.03054 7.080078 8.85742 7.080078c1.73225 0 8.58789-7.080078 8.58789-7.080078s2.17582-1.890623 4.24805-3.632812c3.69592-3.511154 3.69669-4.257027 3.71289-.03711-.0161.05993.002 17.56836.002 17.56836l-.0195 19.630859h6.95703 7.2539l-.0273-28.908203c-.0142-15.078018.20401-22.856328-.10937-27.074219.13803-4.736704-5.23887-10.103566-12.13086-4.726563l-17.32617 15.771485c-1.28982 1.097091-1.2783 1.072919-2.5879.02734l-17.10558-15.707028c-2.00622-1.779424-4.20668-2.480283-6.17188-2.36914zm157.75977 2.267578c-2.49415-.000003-2.49414.000475-2.49414 1.242187v7.144532c0 1.300494.00099 1.299134 1.96875 1.302734l10.73046-.04492c1.78507.04282 1.78516.04205 1.78516-1.322266v-7.626953c0-.696167.00063-.695312-1.73828-.695312zm60.58789.08594c-2.49415.000001-2.49414.000476-2.49414 1.242188v7.144531c0 1.300494.00099 1.301088 1.96875 1.304688l10.73242-.04687c1.78507.04282 1.78515.04205 1.78515-1.322266v-7.625c0-.696167-.001-.697266-1.74023-.697266zm61.6582.511719v4.091797 4.091797l6.68555-.296875 6.68554-.294922v-3.5-3.5l-6.68554-.294922zm-216.54297 12.091797c-3.26171 0-3.26172.04675-3.26172 2.210938v25.138671c0 7.109306 1.57337 10.158621 2.48828 11.851563 2.78488 5.153112 7.86969 8.334906 12.10547 8.77539 7.95604.827361 10.49094-1.245262 14.66602-3.667968 1.74459-1.063079 2.83984-2.90625 2.83984-2.90625l-.0117 5.384765c.0004 1.233052.039 1.232375 3.80469 1.228516l8.90039-.0098c2.1313-.0022 2.13083.02339 2.13086-1.25v-44.544887c0-2.178981.001-2.179688-1.96289-2.179688h-10.24219c-2.63136 0-2.63282.000707-2.63281 2.179688 0 22.803732.00027 22.804572-.0195 26.789062 0 10.121779-17.51367 10.121894-17.51367.01563v-13.398442-13.40625c0-2.141562-.00024-2.149358-3.37891-2.210938zm28.82617 46.787109c0-.01324-.002-.01772-.002-.03125v1.273438z"/><path clip-path="url(#b)" d="m53.769531 15.884766c-19.78473-.000675-35.823887 15.47621-35.824219 34.568359.000332 19.092149 16.039489 34.569034 35.824219 34.568359 19.783967-.000366 35.821934-15.476946 35.822266-34.568359-.0022-1.573345-.115785-3.144706-.339844-4.703125-.291355-1.044403 3.197272-1.110322 3.228516.05664.07312 8.781772-.56985 20.263174-.04492 28.25.523234 3.181952 3.115847 7.794546 11.386721 7.841797l22.92773.13086c3.41102 0 3.41047-.000649 3.45117-3.847656.0598-5.660447-.01-16.921219-.041-22.5.15105-13.1778 18.40869-15.083511 18.7832-.171875.32888 3.672606.0507 18.96936.16602 24.894531.0316 1.624361-.007 1.565215 2.58789 1.609375l8.16015.01563c2.86385.150615 2.73886-.0011 2.75586-2.644531l.10742-16.41211c8.21271 27.448443 41.86554 25.904815 50.53516 5.546875l-13.19922-.06055c-6.03579 7.109049-18.67517 7.899722-23.07226-5.066406l37.13281-.30664v15.318359c-.0389 3.624749-.0406 3.723336 2.62695 3.697265l9.04492-.08984c2.54203-.02484 2.54188.01798 2.54688-3.65625l.0156-57.189453c-.008-3.4032-.0219-3.184804-3.91211-3.214844l-5.76367-.04297c-4.59862 0-4.55871-.145456-4.54101 3.402344-.0179 16.662703-.0195 20.119078-.0215 29.324219-13.13268-27.830121-45.65554-20.369756-51.39258 4.550781 0-8.906944-1.3319-15.94947-11.92578-20.115235-4.29563-1.689142-13.23587-1.662251-17.66601 3.378907-2.49126 3.483793-3.01677 2.304318-3.00977.367187l.0625-17.287109c-.0208-3.621708-.0207-3.716236-2.36719-3.691406l-8.88281.0957c-2.74856.02909-2.75-.0263-2.75 3.566406-.1236 16.716913.0709 30.242071-.0527 46.958984.005 4.661669.005 4.477798-1.2168 4.523438l-3.23828.121094c-5.62649.210181-5.67264-2.835535-5.68164-7.914063l-.0332-18.113281c.0617-2.186975-.0386-2.186747 1.28125-2.185547 4.7954.0042 4.79493.03125 4.79493.03125 1.65946-.03293 1.62504-.02606 1.68164-1.648437.0481-1.376322-.0332-5.097657-.0332-5.097657.028-1.964297.012-1.964377-1.87695-1.992187 0 0-2.97331.116982-4.28906.07617-1.5598-.04838-1.4509.129336-1.4961-.929688 0 0-.0149-7.793653-.0625-12.642578-.12237-1.017793-.53798-1.5551-1.74804-1.5625-2.66388-.01639-6.993765.06653-8.718752.05273-2.808119-.02247-3.070626.561077-3.078126 3.046875l-.02734 9.185547c.0635 2.800301.06274 2.800782-1.859375 2.800782l-4.117188.0039.01563.05664c-5.781969-12.402866-18.562839-20.381722-32.656288-20.386707zm187.916019 1.935546-8.09571.08789c-2.66078 0-2.61079-.000932-2.59179 3.544922.10264 19.191897-.53158 38.347575-.0195 56.902344 0 3.674226-.00093 3.756918 2.6289 3.736328l8.06836-.0625c3.04376 0 3.10742.000401 3.10742-3.673828v-14.443359c2.70761 11.616119 13.89097 19.928209 26.85349 19.958985 15.20509-.000452 27.53105-11.295458 27.53125-25.228516.00098-13.933821-12.32532-25.230017-27.53125-25.230469-12.96253.03076-24.14591 8.342856-26.85352 19.958985v-32.060547c0-3.403204.0777-3.524195-3.09765-3.490235zm-52.92383 25.533204c3.70277-.02527 7.68632 2.409753 10.85547 9.28125l-21.86719.414062c.78883-4.368435 5.59997-9.658383 11.01172-9.695312z"/></g></g></svg>