<?xml version="1.0" encoding="UTF-8" standalone="no"?>
<!-- Created with Inkscape (http://www.inkscape.org/) -->

<svg
   version="1.1"
   id="svg2"
   width="1290"
   height="231"
   viewBox="0 0 1290 231"
   sodipodi:docname="naomi2.png"
   inkscape:version="1.1.2 (0a00cf5339, 2022-02-04)"
   xmlns:inkscape="http://www.inkscape.org/namespaces/inkscape"
   xmlns:sodipodi="http://sodipodi.sourceforge.net/DTD/sodipodi-0.dtd"
   xmlns="http://www.w3.org/2000/svg"
   xmlns:svg="http://www.w3.org/2000/svg">
  <defs
     id="defs6" />
  <sodipodi:namedview
     id="namedview4"
     pagecolor="#ffffff"
     bordercolor="#111111"
     borderopacity="1"
     inkscape:pageshadow="0"
     inkscape:pageopacity="0"
     inkscape:pagecheckerboard="1"
     showgrid="false"
     inkscape:zoom="0.63420352"
     inkscape:cx="974.45059"
     inkscape:cy="147.42901"
     inkscape:window-width="1366"
     inkscape:window-height="703"
     inkscape:window-x="0"
     inkscape:window-y="0"
     inkscape:window-maximized="1"
     inkscape:current-layer="g8" />
  <g
     inkscape:groupmode="layer"
     inkscape:label="Naomi 2"
     id="g8">
    <path
       style="display:inline;fill:#f26317"
       d="m 1121,218.45415 v -8.54586 l 37.3681,-37.20414 c 40.8887,-40.7094 49.7183,-51.11712 58.7107,-69.20415 9.5156,-19.139292 10.5202,-37.430031 2.8836,-52.5 C 1212.904,37.071081 1197.8692,30.02332 1178,31.329583 c -12.9117,0.84886 -23.5941,4.816987 -35.8055,13.30049 l -6.3056,4.380574 -4.4444,-9.575891 C 1129,34.168016 1127,29.530772 1127,29.129771 c 0,-1.348296 15.8813,-11.221478 22.221,-13.814524 25.4433,-10.4066495 52.5694,-10.5140697 72.8309,-0.288412 8.7329,4.407374 15.2914,10.207609 20.7208,18.325309 13.9962,20.925943 14.4079,49.505754 1.0938,75.922016 -10.3645,20.56398 -33.5046,47.68789 -67.8665,79.55033 -7.425,6.88491 -13.65,12.89095 -13.8333,13.34676 -0.1834,0.45581 21.5291,0.82875 48.25,0.82875 H 1259 v 12 12 h -69 -69 z M 550.65527,224.4032 C 500.34793,215.31404 463.44352,173.01172 461.31904,122 459.47095,77.624834 482.56272,38.918694 522.5,19.449228 541.15682,10.354009 560.30968,6.8499287 580.06182,8.9180969 616.26435,12.708719 646.27748,32.148566 664.33067,63.5 c 33.60776,58.3637 5.17604,134.12111 -58.70949,156.43369 -17.03432,5.94938 -37.54423,7.61713 -54.96591,4.46951 z m 34.53063,-31.85492 c 14.98321,-3.17551 26.79008,-9.65153 38.37459,-21.04828 12.92027,-12.71087 19.92376,-26.87124 22.43,-45.35126 2.06713,-15.24218 -1.85496,-33.858716 -10.0672,-47.784819 C 631.50923,70.878678 617.12284,56.451545 609.77879,52.145387 595.49692,43.771256 582.70471,40.567491 566.5,41.306358 c -12.75923,0.581768 -21.00756,2.835488 -33,9.016697 -10.11688,5.2145 -23.26959,17.899442 -29.44613,28.398894 -8.27189,14.061332 -11.96625,31.388501 -10.02432,47.015841 2.33014,18.75149 9.2744,32.8057 22.87162,46.28898 11.12099,11.0278 24.04312,17.91734 39.17402,20.88597 6.98486,1.3704 21.80018,1.18491 29.11071,-0.36446 z"
       id="path885"
       inkscape:label="Orange" />
    <path
       style="display:inline;fill:#010101"
       d="m 240,214.46508 c 0,-0.31903 5.4,-9.75331 12,-20.96508 6.6,-11.21177 12,-20.6359 12,-20.94252 C 264,172.25087 258.825,172 252.5,172 H 241 v -15 -15 h 19.31855 19.31856 l 34.93144,-63.43959 c 19.2123,-34.891774 35.22661,-63.129274 35.58735,-62.75 0.53608,0.563607 105.75827,189.41828 109.73865,196.96089 l 1.19861,2.27129 L 441.29658,214.7713 421.5,214.5 l -11,-21 -11,-21 -50,-0.22087 -50,-0.22088 -11.5622,21.22088 L 276.37561,214.5 258.1878,214.77256 C 248.18451,214.92247 240,214.7841 240,214.46508 Z M 382.25434,135.75 c -1.61512,-2.8875 -9.61872,-17.52329 -17.78577,-32.52398 C 352.90243,81.982105 349.36328,76.233705 348.46099,77.226019 347.17847,78.636498 314,139.46877 314,140.40977 314,140.7344 330.01796,141 349.59546,141 h 35.59546 z m 330.7679,-20.5 c 0.0211,-94.681287 0.11003,-99.640052 1.75,-97.586272 0.95027,1.19005 25.7884,30.100835 55.19586,64.246189 41.18425,47.819543 53.72727,61.796163 54.59623,60.836273 C 825.18481,142.06079 848.79274,114.275 877.0264,81 905.26005,47.725 929.85424,18.811204 931.68016,16.747119 L 935,12.994238 V 113.99712 215 h -17 -17 l -0.14059,-12.25 c -0.0773,-6.7375 -0.41483,-31.07918 -0.75,-54.09262 L 899.5,106.81475 861.70415,152.37669 c -20.78771,25.05907 -38.11271,45.75405 -38.5,45.98884 C 822.81687,198.60032 805.175,178.16891 784,152.9624 L 745.5,107.13237 745.24139,161.06619 744.98278,215 H 728.99139 713 l 0.0222,-99.75 z M 998.24528,112.75 998.5,10.5 1015.25,10.225821 1032,9.9516421 V 112.47582 215 h -17.0047 -17.00473 z M 32,114.44911 V 14.898217 l 3.25,2.508991 c 1.7875,1.379945 36.1,29.68192 76.25,62.893276 l 73,60.384286 0.25735,-63.842385 L 185.0147,13 H 201.50735 218 v 99.55902 c 0,54.75746 -0.35178,99.34161 -0.78172,99.07588 -0.42995,-0.26572 -35.41745,-28.64134 -77.75,-63.05693 C 97.135725,114.16238 62.1625,86.003229 61.75,86.002083 61.3375,86.000937 61,114.8 61,150 v 64 H 46.5 32 Z"
       id="path883"
       inkscape:label="Black" />
  </g>
</svg>
