<?xml version="1.0" encoding="UTF-8" standalone="no"?>
<!-- Created with Inkscape (http://www.inkscape.org/) -->
<svg xmlns:dc="http://purl.org/dc/elements/1.1/" xmlns:cc="http://creativecommons.org/ns#" xmlns:rdf="http://www.w3.org/1999/02/22-rdf-syntax-ns#" xmlns:svg="http://www.w3.org/2000/svg" xmlns="http://www.w3.org/2000/svg" xmlns:sodipodi="http://sodipodi.sourceforge.net/DTD/sodipodi-0.dtd" xmlns:inkscape="http://www.inkscape.org/namespaces/inkscape" width="210mm" height="50mm" viewBox="0 0 744.09449 177.16525" id="svg2" version="1.1" inkscape:version="0.91 r13725" sodipodi:docname="Nichubutsu.svg">
  <defs id="defs4"/>
  <sodipodi:namedview id="base" pagecolor="#ffffff" bordercolor="#666666" borderopacity="1.0" inkscape:pageopacity="0.0" inkscape:pageshadow="2" inkscape:zoom="0.7" inkscape:cx="286.40959" inkscape:cy="229.8865" inkscape:document-units="px" inkscape:current-layer="layer1" showgrid="false" inkscape:window-width="1366" inkscape:window-height="705" inkscape:window-x="-8" inkscape:window-y="-8" inkscape:window-maximized="1"/>
  <metadata id="metadata7">
    <rdf:RDF>
      <cc:Work rdf:about="">
        <dc:format>image/svg+xml</dc:format>
        <dc:type rdf:resource="http://purl.org/dc/dcmitype/StillImage"/>
        <dc:title/>
      </cc:Work>
    </rdf:RDF>
  </metadata>
  <g inkscape:label="Layer 1" inkscape:groupmode="layer" id="layer1" transform="translate(0,-875.19749)">
    <g style="font-style:normal;font-weight:normal;font-size:97.93483734px;line-height:125%;font-family:sans-serif;letter-spacing:0px;word-spacing:0px;fill:#000000;fill-opacity:1;stroke:none;stroke-width:1px;stroke-linecap:butt;stroke-linejoin:miter;stroke-opacity:1" id="text3336">
      <path d="m 191.1424,981.10541 0,-70.53413 27.83109,0 22.33182,50.16292 0,-50.16292 16.73692,0 0,70.53413 -26.92252,0 -22.90566,-51.78879 0,51.78879 -17.07165,0 z" style="font-style:normal;font-variant:normal;font-weight:normal;font-stretch:normal;font-family:'Zurich Blk BT';-inkscape-font-specification:'Zurich Blk BT'" id="path3563"/>
      <path d="m 270.52318,923.72171 0,-13.15043 18.60188,0 0,13.15043 -18.60188,0 z m 0.28692,57.3837 0,-49.1587 18.12368,0 0,49.1587 -18.12368,0 z" style="font-style:normal;font-variant:normal;font-weight:normal;font-stretch:normal;font-family:'Zurich Blk BT';-inkscape-font-specification:'Zurich Blk BT'" id="path3565"/>
      <path d="m 350.66907,962.21661 q -0.28692,9.22921 -7.17296,14.68066 -6.83822,5.40363 -18.36278,5.40363 -12.3375,0 -19.22354,-6.93386 -6.83822,-6.93386 -6.83822,-19.41482 0,-12.00275 6.93386,-18.60188 6.98168,-6.59912 19.70173,-6.59912 11.3811,0 17.83677,4.92543 6.50348,4.92543 6.64694,13.58081 l -18.12368,0 q 0,-4.1125 -1.67369,-6.26439 -1.67369,-2.15189 -4.87761,-2.15189 -3.92122,0 -5.88183,3.82558 -1.96061,3.77776 -1.96061,11.28546 0,8.36846 1.86497,12.0984 1.86497,3.72994 5.97747,3.72994 3.25174,0 4.87761,-2.39099 1.67369,-2.39099 1.67369,-7.17296 l 18.60188,0 z" style="font-style:normal;font-variant:normal;font-weight:normal;font-stretch:normal;font-family:'Zurich Blk BT';-inkscape-font-specification:'Zurich Blk BT'" id="path3567"/>
      <path d="m 360.51994,981.10541 0,-70.53413 18.12368,0 0,28.21365 q 2.34317,-3.58648 6.40785,-5.59491 4.06468,-2.00843 8.99011,-2.00843 8.99011,0 13.62863,4.68634 4.68633,4.68633 4.68633,13.81991 l 0,31.41757 -18.12368,0 0,-24.67499 q 0,-8.17718 -1.67369,-10.95072 -1.67369,-2.77355 -5.78619,-2.77355 -3.8734,0 -6.02529,2.72573 -2.10407,2.6779 -2.10407,7.65116 l 0,28.02237 -18.12368,0 z" style="font-style:normal;font-variant:normal;font-weight:normal;font-stretch:normal;font-family:'Zurich Blk BT';-inkscape-font-specification:'Zurich Blk BT'" id="path3569"/>
      <path d="m 424.69403,923.72171 0,-13.15043 18.60188,0 0,13.15043 -18.60188,0 z m 0.28692,57.3837 0,-49.1587 18.12369,0 0,49.1587 -18.12369,0 z" style="font-style:normal;font-variant:normal;font-weight:normal;font-stretch:normal;font-family:'Zurich Blk BT';-inkscape-font-specification:'Zurich Blk BT'" id="path3571"/>
      <path d="m 490.7331,956.33478 q 0,-7.36424 -2.15189,-11.142 -2.10407,-3.82558 -6.26439,-3.82558 -4.39941,0 -6.83822,3.92122 -2.43881,3.92122 -2.43881,11.04636 0,6.98168 2.39099,10.99854 2.39099,3.96904 6.50349,3.96904 4.44723,0 6.59912,-3.68212 2.19971,-3.68212 2.19971,-11.28546 z m -36.34301,24.77063 q 0.38256,-3.3952 0.57384,-6.31221 0.2391,-2.96482 0.2391,-5.16453 l 0,-59.05739 18.21932,0 0,26.97034 q 2.77355,-3.34738 6.59913,-5.06889 3.82558,-1.72151 8.55973,-1.72151 10.28125,0 15.78052,6.64694 5.49927,6.64695 5.49927,19.1279 0,12.24185 -5.45145,19.03226 -5.40364,6.74258 -15.11104,6.74258 -5.26018,0 -9.27703,-1.86497 -4.01686,-1.86497 -7.31642,-5.78619 l -0.0956,6.45567 -18.21933,0 z" style="font-style:normal;font-variant:normal;font-weight:normal;font-stretch:normal;font-family:'Zurich Blk BT';-inkscape-font-specification:'Zurich Blk BT'" id="path3573"/>
      <path d="m 571.8354,931.94671 0,38.68617 q 0,1.91279 0.19128,4.49506 0.19128,2.53445 0.62166,5.97747 l -18.31497,0 -0.28692,-7.17296 q -2.1997,3.82558 -6.40784,6.0731 -4.20814,2.19971 -9.27703,2.19971 -8.99011,0 -13.67645,-4.73415 -4.63851,-4.73416 -4.63851,-13.91555 l 0,-31.60885 18.12368,0 0,24.86627 q 0,8.22499 1.67369,11.04636 1.67369,2.77354 5.78619,2.77354 3.82558,0 5.97747,-2.72572 2.15189,-2.77355 2.15189,-7.7468 l 0,-28.21365 18.07586,0 z" style="font-style:normal;font-variant:normal;font-weight:normal;font-stretch:normal;font-family:'Zurich Blk BT';-inkscape-font-specification:'Zurich Blk BT'" id="path3575"/>
      <path d="m 617.98144,981.10541 q -3.44303,0.4782 -6.55131,0.71729 -3.06046,0.2391 -5.69055,0.2391 -8.65537,0 -12.81569,-3.44302 -4.1125,-3.44302 -4.1125,-10.61598 l 0,-24.29243 -9.18139,0 0,-11.76366 9.18139,0 0,-7.65116 17.74113,-7.41206 0,15.06322 11.42892,0 0,11.76366 -11.71584,0 0,20.75377 q 0,3.01264 1.53023,4.30377 1.53023,1.29114 5.11671,1.29114 0.76512,0 2.53445,-0.14346 1.81715,-0.14346 2.53445,-0.19128 l 0,11.3811 z" style="font-style:normal;font-variant:normal;font-weight:normal;font-stretch:normal;font-family:'Zurich Blk BT';-inkscape-font-specification:'Zurich Blk BT'" id="path3577"/>
      <path d="m 641.74785,965.32489 0,0.62166 q 0,3.20392 1.48242,4.82979 1.48241,1.62587 4.39941,1.62587 2.72573,0 4.3516,-1.33895 1.62587,-1.33895 1.62587,-3.58648 0,-3.25174 -9.51613,-5.83401 -0.71729,-0.2391 -1.09985,-0.33474 -11.09418,-3.01264 -14.63284,-6.21656 -3.53867,-3.25175 -3.53867,-9.03794 0,-7.12514 6.02529,-11.18982 6.02529,-4.11249 16.68909,-4.11249 10.71163,0 16.45,4.11249 5.78618,4.1125 5.78618,11.66802 l 0,0.38256 -16.83255,0 0,-0.57384 q 0,-3.1561 -1.57805,-4.78197 -1.53023,-1.67369 -4.39941,-1.67369 -2.43881,0 -3.8734,1.09985 -1.4346,1.09986 -1.4346,2.91701 0,3.77776 11.04637,6.59912 1.62587,0.43038 2.4388,0.62166 9.61177,2.53444 12.72005,5.64273 3.15611,3.10828 3.15611,8.94229 0,8.36846 -6.12093,12.48095 -6.07311,4.1125 -18.45842,4.1125 -11.33328,0 -16.97601,-4.06468 -5.64273,-4.1125 -5.64273,-12.28967 l 0,-0.62166 17.9324,0 z" style="font-style:normal;font-variant:normal;font-weight:normal;font-stretch:normal;font-family:'Zurich Blk BT';-inkscape-font-specification:'Zurich Blk BT'" id="path3579"/>
      <path d="m 732.701,931.94671 0,38.68617 q 0,1.91279 0.19128,4.49506 0.19128,2.53445 0.62166,5.97747 l -18.31497,0 -0.28692,-7.17296 q -2.1997,3.82558 -6.40784,6.0731 -4.20814,2.19971 -9.27703,2.19971 -8.99011,0 -13.67645,-4.73415 -4.63851,-4.73416 -4.63851,-13.91555 l 0,-31.60885 18.12368,0 0,24.86627 q 0,8.22499 1.67369,11.04636 1.67369,2.77354 5.78619,2.77354 3.82558,0 5.97747,-2.72572 2.15189,-2.77355 2.15189,-7.7468 l 0,-28.21365 18.07586,0 z" style="font-style:normal;font-variant:normal;font-weight:normal;font-stretch:normal;font-family:'Zurich Blk BT';-inkscape-font-specification:'Zurich Blk BT'" id="path3581"/>
    </g>
    <circle style="fill:#ffff00;stroke:#000000;stroke-width:2.45370317" id="path3517" cx="87.34893" cy="965.77905" r="80.400055"/>
    <path style="fill:#000000;fill-rule:evenodd;stroke:#000000;stroke-width:2.54048824px;stroke-linecap:butt;stroke-linejoin:miter;stroke-opacity:1" d="m 38.108413,910.92517 0,76.98848 c 0,22.49935 25.099288,48.11765 50.042463,48.11765 22.054974,0 44.589124,-24.1583 44.589124,-47.79679 l 0,-77.63011 -7.37803,6.73649 -81.158646,0 z" id="path3511" inkscape:connector-curvature="0" sodipodi:nodetypes="cccscccc"/>
    <path style="fill:#ffffff;fill-rule:evenodd;stroke:#ffffff;stroke-width:2.54048824px;stroke-linecap:butt;stroke-linejoin:miter;stroke-opacity:1" d="m 130.23165,944.76803 c 0,21.91069 -24.13906,39.46826 -45.13904,39.46826 -19.810931,0 -44.013223,-19.59631 -44.231705,-41.73667 0,-15.29475 8.959972,-22.00243 22.456088,-22.00243 15.15607,0 22.682953,13.42524 22.682953,30.16833 0,-12.20502 5.942761,-30.62198 24.270734,-30.62198 15.2879,0 19.96097,7.16768 19.96097,24.72449 z" id="path3507" inkscape:connector-curvature="0" sodipodi:nodetypes="ccccccc"/>
    <circle id="path3353" cx="61.729218" cy="942.72626" r="15.651222" style="fill:#000000;stroke:#000000;stroke-width:2.54048824"/>
    <circle id="path3353-1" cx="61.729176" cy="942.72644" r="12.923797" style="fill:#ffffff;stroke:#ffffff;stroke-width:2.0977757"/>
    <circle id="path3351" cx="61.956028" cy="942.95312" r="8.1658554"/>
    <path style="fill:#000000;fill-rule:evenodd;stroke:#000000;stroke-width:2.54048824px;stroke-linecap:butt;stroke-linejoin:miter;stroke-opacity:1" d="m 85.546265,951.40277 -5.557292,6.97491 5.613996,7.25868 -0.05665,9.52658 1.326542,0.0305 0.05665,-9.55706 5.092535,-7.30416 -4.944654,-6.98609 z" id="path3374" inkscape:connector-curvature="0" sodipodi:nodetypes="ccccccccc"/>
    <circle id="path3353-5" cx="109.59019" cy="942.49957" r="15.651222" style="fill:#000000;stroke:#000000;stroke-width:2.54048824"/>
    <circle id="path3353-1-7" cx="109.59015" cy="942.49988" r="12.923797" style="fill:#ffffff;stroke:#ffffff;stroke-width:2.0977757"/>
    <circle id="path3351-7" cx="109.59015" cy="942.0462" r="10.660978"/>
    <circle id="path3351-7-4" cx="61.502365" cy="942.49957" r="10.660978"/>
    <path style="fill:#ffffff;fill-rule:evenodd;stroke:none;stroke-width:1px;stroke-linecap:butt;stroke-linejoin:miter;stroke-opacity:1" d="m 43.639564,989.85026 9.300017,9.29997 8.846336,-9.29997 z" id="path3412" inkscape:connector-curvature="0" sodipodi:nodetypes="cccc"/>
    <path style="fill:#ffffff;fill-rule:evenodd;stroke:none;stroke-width:1px;stroke-linecap:butt;stroke-linejoin:miter;stroke-opacity:1" d="m 66.719418,989.96357 9.300016,9.30022 8.846336,-9.30022 z" id="path3412-3" inkscape:connector-curvature="0" sodipodi:nodetypes="cccc"/>
    <path style="fill:#ffffff;fill-rule:evenodd;stroke:none;stroke-width:1px;stroke-linecap:butt;stroke-linejoin:miter;stroke-opacity:1" d="m 54.810904,1002.4961 9.300017,9.2999 8.846336,-9.2999 z" id="path3412-31" inkscape:connector-curvature="0" sodipodi:nodetypes="cccc"/>
    <path style="fill:#ffffff;fill-rule:evenodd;stroke:none;stroke-width:1px;stroke-linecap:butt;stroke-linejoin:miter;stroke-opacity:1" d="m 77.511616,1022.8675 9.300016,9.2999 8.846336,-9.2999 z" id="path3412-9" inkscape:connector-curvature="0" sodipodi:nodetypes="cccc"/>
    <path style="fill:#ffffff;fill-rule:evenodd;stroke:none;stroke-width:1px;stroke-linecap:butt;stroke-linejoin:miter;stroke-opacity:1" d="m 65.283966,1012.455 9.300016,9.3 8.846336,-9.3 z" id="path3412-1" inkscape:connector-curvature="0" sodipodi:nodetypes="cccc"/>
    <path style="fill:#ffffff;fill-rule:evenodd;stroke:none;stroke-width:1px;stroke-linecap:butt;stroke-linejoin:miter;stroke-opacity:1" d="m 88.861654,1012.7759 9.300016,9.2999 8.84634,-9.2999 z" id="path3412-8" inkscape:connector-curvature="0" sodipodi:nodetypes="cccc" inkscape:transform-center-x="22.134169" inkscape:transform-center-y="-2.2455111"/>
    <path style="fill:#ffffff;fill-rule:evenodd;stroke:none;stroke-width:1px;stroke-linecap:butt;stroke-linejoin:miter;stroke-opacity:1" d="m 88.06803,989.78294 9.300017,9.29996 8.846333,-9.29996 z" id="path3412-0" inkscape:connector-curvature="0" sodipodi:nodetypes="cccc"/>
    <path style="fill:#ffffff;fill-rule:evenodd;stroke:none;stroke-width:1px;stroke-linecap:butt;stroke-linejoin:miter;stroke-opacity:1" d="m 111.14788,989.8965 9.30002,9.29996 8.84634,-9.29996 z" id="path3412-3-4" inkscape:connector-curvature="0" sodipodi:nodetypes="cccc"/>
    <path style="fill:#ffffff;fill-rule:evenodd;stroke:none;stroke-width:1px;stroke-linecap:butt;stroke-linejoin:miter;stroke-opacity:1" d="m 76.671832,1002.6711 9.300016,9.3 8.846336,-9.3 z" id="path3412-31-3" inkscape:connector-curvature="0" sodipodi:nodetypes="cccc"/>
    <path style="fill:#ffffff;fill-rule:evenodd;stroke:none;stroke-width:1px;stroke-linecap:butt;stroke-linejoin:miter;stroke-opacity:1" d="m 98.966395,1002.6711 9.300015,9.3 8.84634,-9.3 z" id="path3412-31-0" inkscape:connector-curvature="0" sodipodi:nodetypes="cccc"/>
    <path style="fill:none;fill-rule:evenodd;stroke:#000000;stroke-width:2.54048824px;stroke-linecap:butt;stroke-linejoin:miter;stroke-opacity:1" d="m 86.226761,951.34586 0,-23.36335" id="path3509" inkscape:connector-curvature="0"/>
    <g style="font-style:normal;font-weight:normal;font-size:46.06222534px;line-height:125%;font-family:sans-serif;letter-spacing:0px;word-spacing:0px;fill:#000000;fill-opacity:1;stroke:none;stroke-width:1px;stroke-linecap:butt;stroke-linejoin:miter;stroke-opacity:1" id="text3519">
      <path d="m 190.46881,1024.8313 0,-33.1747 13.08995,0 10.50344,23.5934 0,-23.5934 7.87197,0 0,33.1747 -12.66262,0 -10.77334,-24.3581 0,24.3581 -8.0294,0 z" style="font-style:normal;font-variant:normal;font-weight:normal;font-stretch:normal;font-family:'Zurich Blk BT';-inkscape-font-specification:'Zurich Blk BT'" id="path3524"/>
      <path d="m 227.8044,997.84171 0,-6.18511 8.74912,0 0,6.18511 -8.74912,0 z m 0.13495,26.98959 0,-23.1211 8.52421,0 0,23.1211 -8.52421,0 z" style="font-style:normal;font-variant:normal;font-weight:normal;font-stretch:normal;font-family:'Zurich Blk BT';-inkscape-font-specification:'Zurich Blk BT'" id="path3526"/>
      <path d="m 242.42376,1024.8313 0,-33.1747 8.52421,0 0,13.2699 q 1.10207,-1.6869 3.01383,-2.6315 1.91177,-0.9446 4.22837,-0.9446 4.22837,0 6.41003,2.2041 2.20415,2.2042 2.20415,6.5 l 0,14.7768 -8.52421,0 0,-11.6055 q 0,-3.846 -0.7872,-5.1505 -0.78719,-1.3045 -2.72145,-1.3045 -1.82179,0 -2.8339,1.282 -0.98962,1.2595 -0.98962,3.5986 l 0,13.1799 -8.52421,0 z" style="font-style:normal;font-variant:normal;font-weight:normal;font-stretch:normal;font-family:'Zurich Blk BT';-inkscape-font-specification:'Zurich Blk BT'" id="path3528"/>
      <path d="m 280.56903,1013.2258 q 0,3.9135 1.01211,5.6453 1.01211,1.7318 3.28374,1.7318 2.27162,0 3.28373,-1.7093 1.0346,-1.7318 1.0346,-5.6678 0,-3.936 -1.0346,-5.6678 -1.01211,-1.7544 -3.28373,-1.7544 -2.24913,0 -3.28374,1.7544 -1.01211,1.7318 -1.01211,5.6678 z m -8.97403,0.045 q 0,-5.8253 3.44117,-8.9966 3.46366,-3.1712 9.87369,-3.1712 6.36504,0 9.80622,3.1712 3.46366,3.1488 3.46366,8.9966 0,5.8477 -3.46366,9.019 -3.44118,3.1488 -9.80622,3.1488 -6.41003,0 -9.87369,-3.1713 -3.44117,-3.1713 -3.44117,-8.9965 z" style="font-style:normal;font-variant:normal;font-weight:normal;font-stretch:normal;font-family:'Zurich Blk BT';-inkscape-font-specification:'Zurich Blk BT'" id="path3530"/>
      <path d="m 303.06036,1024.8313 0,-18.1055 q 0,-0.8097 -0.09,-2.0017 -0.09,-1.1921 -0.2699,-3.0139 l 8.65916,0 0.09,3.3062 q 1.0346,-1.7768 3.01384,-2.8114 1.97924,-1.0571 4.36332,-1.0571 4.22837,0 6.41002,2.2267 2.20415,2.2041 2.20415,6.4775 l 0,14.9792 -8.52421,0 0,-11.7855 q 0,-3.846 -0.78719,-5.1505 -0.7872,-1.3045 -2.72145,-1.3045 -1.8218,0 -2.83391,1.282 -0.98962,1.2596 -0.98962,3.5987 l 0,13.3598 -8.52421,0 z" style="font-style:normal;font-variant:normal;font-weight:normal;font-stretch:normal;font-family:'Zurich Blk BT';-inkscape-font-specification:'Zurich Blk BT'" id="path3532"/>
      <path d="m 357.51185,1018.8036 3.55362,0 q 3.35121,0 4.83564,-0.9446 1.48443,-0.9671 1.48443,-3.1263 0,-2.0017 -1.52941,-2.9464 -1.52941,-0.9671 -4.79066,-0.9671 l -3.55362,0 0,7.9844 z m 0,-13.6972 3.55362,0 q 2.96886,0 4.34083,-0.8996 1.37197,-0.9222 1.37197,-2.8564 0,-1.84433 -1.43944,-2.76647 -1.43945,-0.92215 -4.27336,-0.92215 l -3.55362,0 0,7.44462 z m -8.88408,19.7249 0,-33.1747 12.4377,0 q 7.51211,0 11.08823,2.09169 3.59861,2.0917 3.59861,6.47751 0,2.9239 -1.77682,4.7906 -1.75432,1.8443 -5.30795,2.6765 4.09342,0.7422 6.07266,2.744 1.97923,1.9792 1.97923,5.3304 0,4.5432 -3.23875,6.8149 -3.21625,2.2491 -9.73874,2.2491 l -15.11417,0 z" style="font-style:normal;font-variant:normal;font-weight:normal;font-stretch:normal;font-family:'Zurich Blk BT';-inkscape-font-specification:'Zurich Blk BT'" id="path3534"/>
      <path d="m 405.77822,1001.7102 0,18.1955 q 0,0.8997 0.09,2.1142 0.09,1.192 0.29239,2.8114 l -8.61417,0 -0.13495,-3.3737 q -1.0346,1.7993 -3.01384,2.8564 -1.97924,1.0346 -4.36332,1.0346 -4.22836,0 -6.43251,-2.2266 -2.18166,-2.2267 -2.18166,-6.545 l 0,-14.8668 8.52421,0 0,11.6955 q 0,3.8685 0.7872,5.1955 0.78719,1.3045 2.72144,1.3045 1.79931,0 2.81142,-1.282 1.01211,-1.3045 1.01211,-3.6436 l 0,-13.2699 8.50172,0 z" style="font-style:normal;font-variant:normal;font-weight:normal;font-stretch:normal;font-family:'Zurich Blk BT';-inkscape-font-specification:'Zurich Blk BT'" id="path3536"/>
      <path d="m 418.5083,1017.4092 0,0.2924 q 0,1.5069 0.69724,2.2716 0.69723,0.7647 2.0692,0.7647 1.282,0 2.04671,-0.6298 0.7647,-0.6297 0.7647,-1.6868 0,-1.5294 -4.47577,-2.744 -0.33737,-0.1124 -0.5173,-0.1574 -5.21799,-1.417 -6.88235,-2.9239 -1.66435,-1.5294 -1.66435,-4.2508 0,-3.3512 2.8339,-5.263 2.83391,-1.9343 7.84947,-1.9343 5.03806,0 7.73702,1.9343 2.72145,1.9342 2.72145,5.4879 l 0,0.1799 -7.91695,0 0,-0.2699 q 0,-1.4844 -0.74221,-2.2491 -0.71972,-0.7872 -2.0692,-0.7872 -1.14706,0 -1.8218,0.5173 -0.67474,0.5173 -0.67474,1.372 0,1.7768 5.1955,3.1038 0.7647,0.2024 1.14705,0.2923 4.52076,1.1921 5.9827,2.654 1.48442,1.462 1.48442,4.2059 0,3.936 -2.87889,5.8702 -2.85639,1.9343 -8.68165,1.9343 -5.33044,0 -7.98442,-1.9118 -2.65397,-1.9342 -2.65397,-5.7802 l 0,-0.2924 8.43424,0 z" style="font-style:normal;font-variant:normal;font-weight:normal;font-stretch:normal;font-family:'Zurich Blk BT';-inkscape-font-specification:'Zurich Blk BT'" id="path3538"/>
      <path d="m 443.6986,1017.4092 0,0.2924 q 0,1.5069 0.69723,2.2716 0.69723,0.7647 2.0692,0.7647 1.282,0 2.04671,-0.6298 0.7647,-0.6297 0.7647,-1.6868 0,-1.5294 -4.47577,-2.744 -0.33737,-0.1124 -0.5173,-0.1574 -5.21799,-1.417 -6.88234,-2.9239 -1.66436,-1.5294 -1.66436,-4.2508 0,-3.3512 2.83391,-5.263 2.8339,-1.9343 7.84947,-1.9343 5.03805,0 7.73701,1.9343 2.72145,1.9342 2.72145,5.4879 l 0,0.1799 -7.91694,0 0,-0.2699 q 0,-1.4844 -0.74222,-2.2491 -0.71972,-0.7872 -2.0692,-0.7872 -1.14706,0 -1.8218,0.5173 -0.67474,0.5173 -0.67474,1.372 0,1.7768 5.1955,3.1038 0.7647,0.2024 1.14706,0.2923 4.52075,1.1921 5.98269,2.654 1.48442,1.462 1.48442,4.2059 0,3.936 -2.87888,5.8702 -2.8564,1.9343 -8.68165,1.9343 -5.33045,0 -7.98442,-1.9118 -2.65398,-1.9342 -2.65398,-5.7802 l 0,-0.2924 8.43425,0 z" style="font-style:normal;font-variant:normal;font-weight:normal;font-stretch:normal;font-family:'Zurich Blk BT';-inkscape-font-specification:'Zurich Blk BT'" id="path3540"/>
      <path d="m 475.97364,1014.013 q -0.17993,0 -0.53979,-0.023 -0.35986,-0.023 -0.56229,-0.023 -2.96885,0 -4.47577,0.8996 -1.50692,0.8772 -1.50692,2.6315 0,1.327 0.87717,2.1592 0.89965,0.8322 2.29411,0.8322 1.97924,0 2.96885,-1.3495 1.01211,-1.372 1.01211,-4.0709 0,-0.4274 -0.0225,-0.6298 0,-0.2249 -0.045,-0.4273 z m 0.38235,10.8183 q -0.0675,-0.5173 -0.13495,-1.3045 -0.0675,-0.7872 -0.15744,-1.8668 -0.98961,1.7768 -2.94636,2.744 -1.95674,0.9446 -4.58823,0.9446 -3.59861,0 -5.78027,-2.0017 -2.15916,-2.0018 -2.15916,-5.2855 0,-4.0259 3.28373,-6.0951 3.30622,-2.0692 9.71625,-2.0692 0.96713,0 1.46194,0.022 0.4948,0 0.92214,0.022 l 0,-1.3269 q 0,-1.6419 -0.74221,-2.5416 -0.71973,-0.8996 -2.04671,-0.8996 -1.25952,0 -2.06921,0.8547 -0.78719,0.8321 -0.78719,2.1816 l 0,0.4049 -8.16435,0 q 0.045,-3.7786 2.78892,-5.6229 2.76643,-1.8443 8.36677,-1.8443 5.91522,0 8.38927,2.0243 2.47404,2.0242 2.47404,6.9273 l 0,9.4913 q 0,1.7543 0.0675,2.9914 0.0675,1.2145 0.20242,2.2491 l -8.09688,0 z" style="font-style:normal;font-variant:normal;font-weight:normal;font-stretch:normal;font-family:'Zurich Blk BT';-inkscape-font-specification:'Zurich Blk BT'" id="path3542"/>
      <path d="m 490.00821,1024.8313 0,-18.1055 q 0,-0.8097 -0.09,-2.0017 -0.09,-1.1921 -0.26989,-3.0139 l 8.65915,0 0.09,3.3062 q 1.0346,-1.7768 3.01384,-2.8114 1.97923,-1.0571 4.36331,-1.0571 4.22837,0 6.41003,2.2267 2.20415,2.2041 2.20415,6.4775 l 0,14.9792 -8.52421,0 0,-11.7855 q 0,-3.846 -0.7872,-5.1505 -0.78719,-1.3045 -2.72145,-1.3045 -1.8218,0 -2.8339,1.282 -0.98962,1.2596 -0.98962,3.5987 l 0,13.3598 -8.52421,0 z" style="font-style:normal;font-variant:normal;font-weight:normal;font-stretch:normal;font-family:'Zurich Blk BT';-inkscape-font-specification:'Zurich Blk BT'" id="path3544"/>
      <path d="m 566.11883,1014.1479 0,0.3149 q 0,5.1055 -4.04843,8.0069 -4.02595,2.8789 -11.20068,2.8789 -7.75951,0 -12.01037,-4.2958 -4.25086,-4.3184 -4.25086,-12.1678 0,-8.6592 4.31834,-13.17996 4.31833,-4.54325 12.55015,-4.54325 6.83737,0 10.52594,2.78893 3.71107,2.78892 3.93598,8.11938 l -9.40137,0 q -0.13495,-2.0692 -1.64187,-3.26126 -1.48442,-1.19204 -3.93598,-1.19204 -3.3512,0 -5.08304,2.7889 -1.73183,2.7889 -1.73183,8.2543 0,5.0606 1.73183,7.6246 1.75433,2.564 5.17301,2.564 2.47404,0 3.95847,-1.237 1.48443,-1.2595 1.61938,-3.4637 l 9.49133,0 z" style="font-style:normal;font-variant:normal;font-weight:normal;font-stretch:normal;font-family:'Zurich Blk BT';-inkscape-font-specification:'Zurich Blk BT'" id="path3546"/>
      <path d="m 578.80397,1013.2258 q 0,3.9135 1.01211,5.6453 1.01211,1.7318 3.28373,1.7318 2.27162,0 3.28373,-1.7093 1.0346,-1.7318 1.0346,-5.6678 0,-3.936 -1.0346,-5.6678 -1.01211,-1.7544 -3.28373,-1.7544 -2.24913,0 -3.28373,1.7544 -1.01211,1.7318 -1.01211,5.6678 z m -8.97404,0.045 q 0,-5.8253 3.44117,-8.9966 3.46367,-3.1712 9.87369,-3.1712 6.36505,0 9.80622,3.1712 3.46366,3.1488 3.46366,8.9966 0,5.8477 -3.46366,9.019 -3.44117,3.1488 -9.80622,3.1488 -6.41002,0 -9.87369,-3.1713 -3.44117,-3.1713 -3.44117,-8.9965 z" style="font-style:normal;font-variant:normal;font-weight:normal;font-stretch:normal;font-family:'Zurich Blk BT';-inkscape-font-specification:'Zurich Blk BT'" id="path3548"/>
      <path d="m 601.85757,1024.8313 0,-6.8599 8.05189,0 0,6.8599 -8.05189,0 z" style="font-style:normal;font-variant:normal;font-weight:normal;font-stretch:normal;font-family:'Zurich Blk BT';-inkscape-font-specification:'Zurich Blk BT'" id="path3550"/>
      <path d="m 615.30738,1030.3642 2.99134,-12.3028 8.5692,0 -5.35294,12.3028 -6.2076,0 z" style="font-style:normal;font-variant:normal;font-weight:normal;font-stretch:normal;font-family:'Zurich Blk BT';-inkscape-font-specification:'Zurich Blk BT'" id="path3552"/>
      <path d="m 646.8627,1024.8313 0,-33.1747 9.17646,0 0,26.7647 14.73181,0 0,6.41 -23.90827,0 z" style="font-style:normal;font-variant:normal;font-weight:normal;font-stretch:normal;font-family:'Zurich Blk BT';-inkscape-font-specification:'Zurich Blk BT'" id="path3554"/>
      <path d="m 690.27093,1024.8313 q -1.61937,0.2249 -3.08131,0.3374 -1.43944,0.1124 -2.67647,0.1124 -4.07093,0 -6.02767,-1.6193 -1.93426,-1.6194 -1.93426,-4.9931 l 0,-11.4256 -4.31833,0 0,-5.5329 4.31833,0 0,-3.59859 8.34428,-3.48616 0,7.08475 5.37543,0 0,5.5329 -5.51037,0 0,9.7612 q 0,1.417 0.71972,2.0242 0.71972,0.6073 2.40657,0.6073 0.35986,0 1.19204,-0.067 0.85467,-0.067 1.19204,-0.09 l 0,5.3529 z" style="font-style:normal;font-variant:normal;font-weight:normal;font-stretch:normal;font-family:'Zurich Blk BT';-inkscape-font-specification:'Zurich Blk BT'" id="path3556"/>
      <path d="m 702.59617,1013.1808 q 0,3.5761 1.01211,5.3079 1.0346,1.7319 3.14879,1.7319 1.93425,0 3.08131,-1.8668 1.14706,-1.8893 1.14706,-5.173 0,-3.3512 -1.16955,-5.1955 -1.16955,-1.8443 -3.26124,-1.8443 -1.93426,0 -2.94637,1.7993 -1.01211,1.7768 -1.01211,5.2405 z m 8.5692,11.6505 -0.09,-3.0363 q -1.5519,1.8443 -3.44117,2.7214 -1.86678,0.8772 -4.34083,0.8772 -4.58823,0 -7.10725,-3.1713 -2.51903,-3.1938 -2.51903,-8.9515 0,-5.8703 2.56401,-8.9966 2.5865,-3.1263 7.42213,-3.1263 2.22665,0 4.07093,0.8322 1.84429,0.8322 3.08131,2.3616 l 0,-12.6851 8.52422,0 0,27.7768 q 0,1.0346 0.09,2.429 0.09,1.372 0.2699,2.9689 l -8.52421,0 z" style="font-style:normal;font-variant:normal;font-weight:normal;font-stretch:normal;font-family:'Zurich Blk BT';-inkscape-font-specification:'Zurich Blk BT'" id="path3558"/>
      <path d="m 725.6498,1024.8313 0,-6.8599 8.0519,0 0,6.8599 -8.0519,0 z" style="font-style:normal;font-variant:normal;font-weight:normal;font-stretch:normal;font-family:'Zurich Blk BT';-inkscape-font-specification:'Zurich Blk BT'" id="path3560"/>
    </g>
  </g>
</svg>