<?xml version="1.0" encoding="UTF-8" standalone="no"?>
<!-- Generator: Adobe Illustrator 21.0.0, SVG Export Plug-In . SVG Version: 6.00 Build 0)  -->

<svg
   version="1.1"
   id="Layer_1"
   x="0px"
   y="0px"
   width="1144.9325"
   height="161.82857"
   viewBox="0 0 801.45275 113.28"
   xml:space="preserve"
   sodipodi:docname="saturn.svg"
   inkscape:version="1.1.2 (0a00cf5339, 2022-02-04)"
   xmlns:inkscape="http://www.inkscape.org/namespaces/inkscape"
   xmlns:sodipodi="http://sodipodi.sourceforge.net/DTD/sodipodi-0.dtd"
   xmlns="http://www.w3.org/2000/svg"
   xmlns:svg="http://www.w3.org/2000/svg"><defs
   id="defs21081" /><sodipodi:namedview
   id="namedview21079"
   pagecolor="#ffffff"
   bordercolor="#111111"
   borderopacity="1"
   inkscape:pageshadow="0"
   inkscape:pageopacity="0"
   inkscape:pagecheckerboard="1"
   showgrid="false"
   fit-margin-top="0"
   fit-margin-left="0"
   fit-margin-right="0"
   fit-margin-bottom="0"
   inkscape:zoom="1.44625"
   inkscape:cx="268.28003"
   inkscape:cy="54.969749"
   inkscape:window-width="1366"
   inkscape:window-height="703"
   inkscape:window-x="0"
   inkscape:window-y="0"
   inkscape:window-maximized="1"
   inkscape:current-layer="Layer_1" />
<style
   type="text/css"
   id="style20941">
	.st0{fill:url(#SVGID_1_);stroke:#484848;stroke-width:1.44;stroke-linecap:round;stroke-linejoin:round;}
	.st1{fill:url(#SVGID_2_);stroke:#484848;stroke-width:1.44;stroke-linecap:round;stroke-linejoin:round;}
	.st2{fill:url(#SVGID_3_);stroke:#484848;stroke-width:1.44;stroke-linecap:round;stroke-linejoin:round;}
	.st3{fill:url(#SVGID_4_);stroke:#484848;stroke-width:1.44;stroke-linecap:round;stroke-linejoin:round;}
	.st4{fill:url(#SVGID_5_);stroke:#484848;stroke-width:1.44;stroke-linecap:round;stroke-linejoin:round;}
	.st5{fill:url(#SVGID_6_);stroke:#484848;stroke-width:1.44;stroke-linecap:round;stroke-linejoin:round;}
	.st6{fill:url(#SVGID_7_);stroke:#484848;stroke-width:1.44;stroke-linecap:round;stroke-linejoin:round;}
	.st7{fill:url(#SVGID_8_);stroke:#484848;stroke-width:1.44;stroke-linecap:round;stroke-linejoin:round;}
	.st8{fill:url(#SVGID_9_);stroke:#484848;stroke-width:1.44;stroke-linecap:round;stroke-linejoin:round;}
	.st9{fill:url(#SVGID_10_);stroke:#484848;stroke-width:1.44;stroke-linecap:round;stroke-linejoin:round;}
	.st10{fill:url(#SVGID_11_);}
	.st11{fill:url(#SVGID_12_);}
	.st12{fill:url(#SVGID_13_);}
	.st13{fill:#CCCCCC;}
	.st14{fill:url(#SVGID_14_);}
	.st15{fill:url(#SVGID_15_);}
	.st16{fill:none;stroke:#333333;stroke-width:1.44;stroke-linecap:round;stroke-linejoin:round;}
	.st17{fill:url(#SVGID_16_);stroke:#33317A;stroke-width:2.88;stroke-linecap:round;stroke-linejoin:round;}
	.st18{fill:url(#SVGID_17_);}
	.st19{fill:none;stroke:#333333;stroke-linecap:round;stroke-linejoin:round;}
</style>
<linearGradient
   id="SVGID_1_"
   gradientUnits="userSpaceOnUse"
   x1="194.8436"
   y1="197.0799"
   x2="250.60201"
   y2="252.838"
   gradientTransform="matrix(1,0,0,-1,0.83272646,282.7999)">
	<stop
   offset="0"
   style="stop-color:#999999"
   id="stop20943" />
	<stop
   offset="0.98"
   style="stop-color:#F3F3F3"
   id="stop20945" />
</linearGradient>
<path
   class="st0"
   d="m 249.83273,34.440001 c -0.7,-1.2 -1.8,-2.1 -3.2,-2.5 -24,-6.9 -39.5,-5.8 -46.4,3 -2.5,2.8 -3.9,5.6 -4.4,8.6 -0.5,2.8 -0.2,5.6 1.1,8.3 h -0.1 c 1.1,1.9 2.5,3.9 4.4,5.5 h 0.2 c 1.6,1.2 3.2,2.3 5.1,3.2 1.2,0.7 4.4,1.1 9.3,1.2 1.1,0.2 2.8,0.2 5.6,0.2 2.5,0.2 4.4,0.2 5.8,0.2 v 0 c 4.4,0.2 8.8,0.5 10.2,0.9 1.4,0.5 3.9,3 4.1,4.2 0.2,1.2 0,0 0,0 0.4,0.7 0.5,0.9 0.4,2.6 -0.2,1.8 -0.9,1.4 -1.6,2.3 v -0.2 c -0.9,0.7 -2.1,1.2 -3.9,1.8 -2.6,0.5 -5.8,1.1 -9.5,1.1 -3.7,0.2 -7.4,0 -11.1,-0.4 -3.5,-0.5 -6.7,-1.1 -9.3,-1.8 -1.2,-0.4 -2.6,-0.4 -3.9,0.4 -1.2,0.5 -2.1,1.6 -2.6,3 -0.5,1.2 -0.4,2.6 0.4,4.1 0.7,1.2 1.8,2.1 3.2,2.5 3.2,1.1 6.9,1.8 11.3,2.3 4.2,0.4 8.5,0.5 12.7,0.5 4.6,-0.2 8.5,-0.7 11.8,-1.4 4.6,-1.1 7.8,-2.8 9.3,-5.1 h 0.2 c 1.4,-1.8 2.5,-3.4 3,-4.8 v -0.2 c 0.7,-1.8 1.1,-3.5 1.1,-5.3 v -0.2 c -0.2,-1.2 0,-3.2 -0.7,-5.1 -0.2,-0.9 -0.5,-1.4 -1.9,-4.6 -1.4,-3 -4.8,-4.9 -10.4,-6.2 v 0 c -2.8,-0.5 -6.9,-0.9 -12,-1.1 -1.4,-0.2 -3.5,-0.2 -6.2,-0.2 -2.7,0 -4.4,0 -5.5,0 -2.8,0 -4.6,-0.2 -5.3,-0.4 -1.1,-0.5 -1.8,-0.9 -2.5,-1.6 -0.7,-0.7 -1.4,-1.4 -1.8,-2.1 v -0.2 c -0.4,-0.5 -0.5,-1.1 -0.4,-1.8 0.4,-1.1 0.9,-2.3 1.9,-3.5 5.3,-5.1 17.1,-5.1 35.4,0.2 1.4,0.4 2.8,0.2 3.9,-0.5 1.4,-0.7 2.3,-1.8 2.5,-3.2 0.7,-1.1 0.5,-2.5 -0.2,-3.7 z"
   id="path20948"
   style="fill:url(#SVGID_1_)" />
<linearGradient
   id="SVGID_2_"
   gradientUnits="userSpaceOnUse"
   x1="446.32361"
   y1="199.2144"
   x2="503.13419"
   y2="256.02539"
   gradientTransform="matrix(1,0,0,-1,0.83272646,282.7999)">
	<stop
   offset="0"
   style="stop-color:#999999"
   id="stop20950" />
	<stop
   offset="0.98"
   style="stop-color:#F3F3F3"
   id="stop20952" />
</linearGradient>
<path
   class="st1"
   d="m 502.33273,31.240001 c -0.7,-1.2 -1.8,-2.1 -3.2,-2.5 -24,-6.7 -39.5,-5.8 -46.4,3 -2.5,2.8 -3.9,5.6 -4.4,8.6 -0.5,2.8 -0.2,5.6 1.1,8.3 h -0.2 c 1.1,1.9 2.5,3.9 4.4,5.5 h 0.2 c 1.6,1.2 3.2,2.3 5.1,3.2 1.2,0.7 4.4,1.1 9.3,1.2 1.1,0 2.8,0 5.6,0 2.5,0.2 4.4,0.2 5.8,0.2 h 0.2 c 4.4,0 8.8,0.5 10.2,0.9 1.4,0.5 3.9,3 4.1,4.2 0.2,1.2 0,0 0,0 0.2,0.7 0.5,0.9 0.4,2.6 -0.2,1.8 -0.9,1.4 -1.6,2.3 v -0.1 c -0.9,0.7 -2.1,1.2 -3.9,1.8 -2.6,0.5 -5.8,1.1 -9.5,1.1 -3.7,0.2 -7.4,0 -11.1,-0.4 -3.5,-0.5 -6.7,-1.1 -9.3,-1.8 -1.2,-0.4 -2.6,-0.4 -3.9,0.4 -1.2,0.5 -2.3,1.6 -2.6,3 -0.5,1.2 -0.2,2.6 0.4,4.1 0.7,1.2 1.8,2.1 3.2,2.5 3.2,1.1 6.9,1.8 11.3,2.3 4.2,0.4 8.5,0.5 12.7,0.5 4.6,-0.2 8.5,-0.7 11.8,-1.4 4.6,-1.1 7.8,-2.8 9.3,-5.1 h 0.2 c 1.4,-1.8 2.5,-3.4 3,-4.8 v -0.2 c 0.7,-1.8 1.1,-3.5 1.1,-5.3 v -0.2 c -0.2,-1.2 0,-3.2 -0.7,-5.1 -0.2,-0.9 -0.5,-1.4 -1.9,-4.6 -1.4,-3 -4.8,-4.9 -10.4,-6.2 h -0.2 c -2.8,-0.5 -6.9,-0.9 -12,-1.1 -1.4,0 -3.5,0 -6.2,-0.2 -2.6,0 -4.4,0 -5.5,-0.2 -2.8,0 -4.6,-0.2 -5.3,-0.4 -1.1,-0.5 -1.8,-0.9 -2.6,-1.6 -0.7,-0.7 -1.4,-1.4 -1.8,-2.1 v 0 c -0.4,-0.5 -0.5,-1.1 -0.2,-1.8 0.2,-1.1 0.9,-2.3 1.9,-3.5 5.3,-5.1 17.1,-5.1 35.4,0.2 1.4,0.4 2.6,0.2 3.9,-0.5 1.4,-0.7 2.3,-1.8 2.6,-3.2 0.6,-1.1 0.5,-2.3 -0.3,-3.6 z"
   id="path20955"
   style="fill:url(#SVGID_2_)" />
<linearGradient
   id="SVGID_3_"
   gradientUnits="userSpaceOnUse"
   x1="254.11011"
   y1="201.7711"
   x2="308.39819"
   y2="256.05939"
   gradientTransform="matrix(1,0,0,-1,0.83272646,282.7999)">
	<stop
   offset="0"
   style="stop-color:#999999"
   id="stop20957" />
	<stop
   offset="0.98"
   style="stop-color:#F3F3F3"
   id="stop20959" />
</linearGradient>
<path
   class="st2"
   d="m 301.73273,30.040001 c -1.1,-0.9 -2.3,-1.4 -3.7,-1.4 h -35.3 c -1.4,0 -2.6,0.5 -3.7,1.4 -1.1,1.1 -1.6,2.3 -1.6,3.7 v 43.7 c 0,1.4 0.5,2.6 1.6,3.7 1.1,1.1 2.3,1.6 3.7,1.6 h 35.3 c 1.4,0 2.6,-0.5 3.7,-1.6 0.9,-0.9 1.4,-2.3 1.4,-3.7 0,-1.4 -0.5,-2.6 -1.4,-3.7 -1.1,-0.9 -2.3,-1.4 -3.7,-1.4 h -30 v -11.4 h 22 c 1.4,0 2.6,-0.5 3.7,-1.6 0.9,-0.9 1.4,-2.3 1.4,-3.7 0,-1.4 -0.5,-2.6 -1.4,-3.7 -1.1,-0.9 -2.3,-1.4 -3.7,-1.4 h -22 v -11.5 h 30 c 1.4,0 2.6,-0.5 3.7,-1.6 0.9,-0.9 1.4,-2.1 1.4,-3.7 0.2,-1.4 -0.4,-2.6 -1.4,-3.7 z"
   id="path20962"
   style="fill:url(#SVGID_3_)" />
<linearGradient
   id="SVGID_4_"
   gradientUnits="userSpaceOnUse"
   x1="305.78229"
   y1="195.97141"
   x2="365.5387"
   y2="255.7276"
   gradientTransform="matrix(1,0,0,-1,0.83272646,282.7999)">
	<stop
   offset="0"
   style="stop-color:#999999"
   id="stop20964" />
	<stop
   offset="0.98"
   style="stop-color:#F3F3F3"
   id="stop20966" />
</linearGradient>
<path
   class="st3"
   d="m 362.53273,36.240001 c -0.2,-1.6 -1.1,-2.8 -2.1,-3.5 -9.7,-6.9 -20.3,-8.3 -30.5,-6.5 -4.1,0.9 -5.3,0.9 -9.7,3 -4.4,2.1 -7.4,6.2 -7.4,6.2 -2.1,2.3 -3.2,5.1 -4.6,8.8 -1.4,3.7 -1.4,5.5 -1.6,10.1 -0.2,4.6 0.4,8.8 1.8,12.7 1.2,4.1 3.4,7.6 6,10.4 v 0 c 2.6,3 5.8,5.5 9.7,6.9 3.7,1.6 7.9,2.5 12.3,2.5 10.6,0 18.2,-2.5 22.9,-7.1 5.5,-4.9 7.8,-12.2 6.9,-22 -0.2,-1.6 -0.7,-2.6 -1.6,-3.7 -1.1,-0.9 -2.1,-1.4 -3.5,-1.4 h -22.9 c -1.4,0 -2.6,0.5 -3.7,1.6 -1.1,1.1 -1.6,2.5 -1.6,4.1 0,1.6 0.5,3 1.6,4.1 1.1,1.1 2.3,1.8 3.7,1.8 h 17.6 c -0.4,2.8 -1.4,5.3 -3.2,7.1 -3.4,3 -8.8,4.4 -16,4.4 -3,0 -6,-0.5 -8.5,-1.6 l -0.2,-0.2 c -2.3,-0.9 -4.2,-2.3 -5.8,-4.2 -1.6,-1.8 -2.8,-4.1 -3.7,-6.3 -0.9,-2.6 -1.2,-5.5 -1.1,-8.5 0,-3.2 0.5,-4.9 1.1,-7.2 0.5,-1.6 1.1,-3 2.1,-4.1 0,0 1.6,-2.5 4.2,-3.7 2.6,-1.4 4.6,-1.8 7.8,-2.6 h 0.2 c 7.8,-1.9 15.2,-0.4 22.2,4.9 1.2,0.9 2.5,1.1 3.9,0.9 1.4,-0.4 2.5,-1.1 3.4,-2.5 0.3,-1.4 0.7,-2.8 0.3,-4.4 z"
   id="path20969"
   style="fill:url(#SVGID_4_)" />
<linearGradient
   id="SVGID_5_"
   gradientUnits="userSpaceOnUse"
   x1="374.56409"
   y1="193.6812"
   x2="433.06021"
   y2="252.1768"
   gradientTransform="matrix(1,0,0,-1,0.83272646,282.7999)">
	<stop
   offset="0"
   style="stop-color:#999999"
   id="stop20971" />
	<stop
   offset="0.98"
   style="stop-color:#F3F3F3"
   id="stop20973" />
</linearGradient>
<path
   class="st4"
   d="m 429.23273,82.440001 c 0.9,-1.2 1.2,-2.5 1.1,-3.9 -5.5,-36.5 -15.5,-54.5 -30,-53.6 -14.5,-0.9 -24.5,16.4 -29.8,51.8 -0.2,1.4 0.2,2.6 1.1,3.9 0.9,1.2 1.9,1.9 3.4,2.1 1.5,0.2 2.6,-0.2 3.9,-0.9 1.1,-0.9 1.8,-1.9 2.1,-3.4 0.7,-4.4 1.4,-8.5 2.1,-12.2 v 0 h 34.2 c 0.9,4.2 1.8,8.8 2.5,13.9 0.2,1.4 0.9,2.5 2.1,3.4 1.1,0.9 2.5,1.2 3.9,0.9 1.3,-0.3 2.5,-1 3.4,-2 z m -43.6,-26.8 c 3.9,-13 8.8,-19.8 14.6,-20.1 5.6,0.5 10.6,7.2 14.3,20.1 z"
   id="path20976"
   style="fill:url(#SVGID_5_)" />
<linearGradient
   id="SVGID_6_"
   gradientUnits="userSpaceOnUse"
   x1="511.6803"
   y1="192.34599"
   x2="573.1214"
   y2="253.7868"
   gradientTransform="matrix(1,0,0,-1,0.83272646,282.7999)">
	<stop
   offset="0"
   style="stop-color:#999999"
   id="stop20978" />
	<stop
   offset="0.98"
   style="stop-color:#F3F3F3"
   id="stop20980" />
</linearGradient>
<path
   class="st5"
   d="m 516.63273,82.440001 c 1.2,-0.9 1.9,-1.9 2.1,-3.4 0.7,-4.4 1.4,-8.5 2.1,-12.2 h 34.2 c 0.9,4.2 1.8,8.8 2.5,13.9 0.2,1.4 0.9,2.5 2.1,3.4 1.1,0.9 2.5,1.2 3.9,0.9 1.4,-0.2 2.5,-0.9 3.4,-1.9 0.9,-1.2 1.2,-2.5 1.1,-3.9 -5.5,-36.5 -15.5,-54.5 -30,-53.6 -14.5,-0.9 -24.3,16.4 -29.8,51.8 -0.2,1.4 0.2,2.6 0.9,3.9 0.9,1.2 1.9,1.9 3.5,2.1 1.6,0.2 2.8,-0.2 4,-1 z m 6.9,-26.1 c 3.9,-13 8.8,-19.8 14.6,-20.1 5.8,0.5 10.6,7.2 14.5,20.1 z"
   id="path20983"
   style="fill:url(#SVGID_6_)" />
<linearGradient
   id="SVGID_7_"
   gradientUnits="userSpaceOnUse"
   x1="553.90302"
   y1="206.0959"
   x2="611.34528"
   y2="263.53851"
   gradientTransform="matrix(1,0,0,-1,0.83272646,282.7999)">
	<stop
   offset="0"
   style="stop-color:#999999"
   id="stop20985" />
	<stop
   offset="0.98"
   style="stop-color:#F3F3F3"
   id="stop20987" />
</linearGradient>
<path
   class="st6"
   d="m 613.33273,29.640001 c -1.1,-0.9 -2.3,-1.4 -3.7,-1.4 h -45.8 c -1.4,0 -2.8,0.5 -3.7,1.4 -1.1,1.1 -1.6,2.3 -1.6,3.7 0,1.4 0.5,2.6 1.6,3.7 1.1,1.1 2.3,1.6 3.7,1.6 h 17.6 v 40.4 c 0,1.4 0.5,2.6 1.6,3.7 1.1,1.1 2.3,1.6 3.7,1.6 1.6,0 2.6,-0.5 3.7,-1.6 1.1,-0.9 1.6,-2.3 1.6,-3.7 v -40.4 h 17.6 c 1.4,0 2.6,-0.5 3.7,-1.6 1.1,-0.9 1.4,-2.3 1.4,-3.7 0.2,-1.4 -0.4,-2.6 -1.4,-3.7 z"
   id="path20990"
   style="fill:url(#SVGID_7_)" />
<linearGradient
   id="SVGID_8_"
   gradientUnits="userSpaceOnUse"
   x1="614.1767"
   y1="200.5295"
   x2="672.25018"
   y2="258.6026"
   gradientTransform="matrix(1,0,0,-1,0.83272646,282.7999)">
	<stop
   offset="0"
   style="stop-color:#999999"
   id="stop20992" />
	<stop
   offset="0.98"
   style="stop-color:#F3F3F3"
   id="stop20994" />
</linearGradient>
<path
   class="st7"
   d="m 675.03273,28.640001 c -1.1,-1.1 -2.3,-1.6 -3.7,-1.6 -1.4,0 -2.6,0.5 -3.7,1.6 -1.1,0.9 -1.6,2.3 -1.6,3.7 v 26.1 c 0,1.9 -0.4,3.9 -1.1,5.6 -0.7,1.8 -1.8,3.4 -3.2,4.8 -1.4,1.2 -2.8,2.5 -4.8,3.2 -1.8,0.7 -3.7,1.1 -5.6,1.1 h -7.8 c -1.9,0 -3.9,-0.4 -5.6,-1.1 -1.8,-0.7 -3.4,-1.8 -4.8,-3.2 -1.4,-1.4 -2.5,-2.8 -3.2,-4.6 v 0 c -0.7,-1.8 -1.1,-3.7 -1.1,-5.6 v -26.3 c 0,-1.4 -0.5,-2.6 -1.4,-3.7 -1.1,-1.1 -2.3,-1.6 -3.7,-1.6 -1.4,0 -2.8,0.5 -3.7,1.6 -1.1,0.9 -1.6,2.3 -1.6,3.7 v 26.1 c 0,3.4 0.7,6.7 1.9,9.9 v 0 c 1.2,3 3,5.6 5.3,8.1 2.3,2.3 4.9,4.1 8.1,5.5 3.2,1.2 6.3,1.9 9.9,1.9 h 7.8 c 3.5,0 6.7,-0.5 9.9,-1.9 h -0.2 c 3,-1.2 5.6,-3.2 8.1,-5.5 2.3,-2.3 4.1,-4.9 5.5,-8.1 v 0.2 c 1.2,-3.2 1.9,-6.3 1.9,-9.9 v -26.3 c 0,-1.4 -0.6,-2.8 -1.6,-3.7 z"
   id="path20997"
   style="fill:url(#SVGID_8_)" />
<linearGradient
   id="SVGID_9_"
   gradientUnits="userSpaceOnUse"
   x1="680.01678"
   y1="198.23801"
   x2="738.50928"
   y2="256.73071"
   gradientTransform="matrix(1,0,0,-1,0.83272646,282.7999)">
	<stop
   offset="0"
   style="stop-color:#999999"
   id="stop20999" />
	<stop
   offset="0.98"
   style="stop-color:#F3F3F3"
   id="stop21001" />
</linearGradient>
<path
   class="st8"
   d="m 682.03273,28.640001 c -0.9,0.9 -1.4,2.1 -1.4,3.5 v 45.3 c 0,1.4 0.5,2.6 1.6,3.7 1.1,1.1 2.5,1.6 4.1,1.6 1.6,0 2.8,-0.5 3.9,-1.6 1.1,-0.9 1.8,-2.3 1.8,-3.7 v -40.4 c 12.2,-0.7 21.3,0 27.9,1.8 4.9,1.4 7.4,3.9 7.8,7.2 0.2,2.6 -1.1,4.6 -3.4,5.8 -3.7,1.6 -9.3,1.9 -16.6,1.2 -1.2,-0.2 -2.5,0.2 -3.5,0.7 -1.1,0.5 -1.9,1.4 -2.3,2.6 -0.5,1.1 -0.5,2.1 -0.2,3.4 0.4,1.1 1.1,1.9 2.1,2.6 l 28,19.2 c 1.2,0.9 2.6,1.2 4.1,0.9 1.6,-0.2 2.8,-0.9 3.7,-2.1 0.9,-1.1 1.2,-2.5 1.1,-3.9 -0.4,-1.4 -1.1,-2.6 -2.3,-3.5 l -14.8,-10.1 c 2.1,-0.5 4.1,-1.1 5.6,-1.9 6.3,-3 9.5,-7.9 9.7,-15 0.4,-8.3 -4.9,-14.1 -15.5,-17.3 -8.3,-2.6 -20.8,-3.2 -37.4,-1.9 -1.7,0.3 -2.9,0.8 -4,1.9 z"
   id="path21004"
   style="fill:url(#SVGID_9_)" />
<linearGradient
   id="SVGID_10_"
   gradientUnits="userSpaceOnUse"
   x1="743.90729"
   y1="198.7372"
   x2="800.7207"
   y2="255.5506"
   gradientTransform="matrix(1,0,0,-1,0.83272646,282.7999)">
	<stop
   offset="0"
   style="stop-color:#999999"
   id="stop21006" />
	<stop
   offset="0.98"
   style="stop-color:#F3F3F3"
   id="stop21008" />
</linearGradient>
<path
   class="st9"
   d="m 747.13273,29.540001 c -0.7,0.9 -0.9,1.8 -0.9,3 v 45.5 c 0,1.4 0.5,2.6 1.6,3.7 0.9,1.1 2.3,1.6 3.7,1.6 1.4,0 2.6,-0.5 3.7,-1.6 0.9,-0.9 1.4,-2.3 1.4,-3.7 v -32.5 l 34.9,36.1 c 0.9,0.7 1.6,1.2 2.8,1.6 1.1,0.2 1.9,0 3,-0.2 1.1,-0.5 1.8,-1.1 2.5,-1.9 0.7,-0.8 0.9,-1.8 0.9,-2.8 v -45.8 c 0,-1.4 -0.5,-2.6 -1.6,-3.7 -1.1,-0.9 -2.3,-1.4 -3.7,-1.4 -1.4,0 -2.6,0.5 -3.7,1.4 -1.1,1.1 -1.6,2.3 -1.6,3.7 v 32.4 l -34.9,-36.1 c -0.9,-0.7 -1.6,-1.2 -2.8,-1.4 -1.1,-0.2 -2.1,0 -3,0.4 -0.9,0.3 -1.8,0.8 -2.3,1.7 z"
   id="path21011"
   style="fill:url(#SVGID_10_)" />
<g
   id="g21076"
   transform="translate(0.83272646,-3.3599992)">
	
		<radialGradient
   id="SVGID_11_"
   cx="141.9182"
   cy="231.59599"
   r="23.3146"
   gradientTransform="matrix(1,0,0,-1,0,286.1599)"
   gradientUnits="userSpaceOnUse">
		<stop
   offset="0.43"
   style="stop-color:#FFFFFF"
   id="stop21013" />
		<stop
   offset="0.64"
   style="stop-color:#7A7A7A"
   id="stop21015" />
		<stop
   offset="0.99"
   style="stop-color:#000000"
   id="stop21017" />
	</radialGradient>
	<path
   class="st10"
   d="m 151.9,47.7 c 1.6,-0.2 2.8,-0.2 3.7,0 v 0.2 c 2.3,1.6 3.7,3 3.7,4.8 -0.9,2.6 -3.5,5.8 -7.9,9.2 -5.1,3.9 -12.3,7.9 -21.2,12 -4.1,1.8 -8.1,3.5 -12.5,5.3 -5.1,1.9 -4.2,15.5 -0.5,14.1 6.7,-2.5 12.9,-4.9 18.5,-7.6 9.7,-4.6 17.6,-9 23.6,-13.6 7.6,-5.8 12,-11.3 12.7,-16.8 1.4,-5.1 0.2,-9.7 -3.7,-13.8 -1.6,-1.8 -17.1,6.2 -16.4,6.2 z"
   id="path21020"
   style="fill:url(#SVGID_11_)" />
	
		<radialGradient
   id="SVGID_12_"
   cx="29.118"
   cy="197"
   r="24.064699"
   gradientTransform="matrix(1,0,0,-1,0,286.1599)"
   gradientUnits="userSpaceOnUse">
		<stop
   offset="0"
   style="stop-color:#FFFFFF"
   id="stop21022" />
		<stop
   offset="1"
   style="stop-color:#000000"
   id="stop21024" />
	</radialGradient>
	<path
   class="st11"
   d="m 64,94.2 c -3.9,0.7 -7.6,1.4 -11.1,1.9 l 0.2,-0.2 C 45.7,97 39.3,97.5 33.9,97.7 h -0.2 c -4.8,0 -8.5,-0.4 -10.8,-1.2 -1.6,-0.7 -3.2,-0.5 -4.9,0.2 -1.8,0.7 -2.8,1.9 -3.5,3.5 -0.7,1.8 -0.5,3.4 0.2,4.9 0.7,1.6 1.9,2.8 3.5,3.5 3.5,1.2 8.6,1.9 15.5,1.9 6,-0.2 12.9,-0.7 21,-1.8 h 0.2 C 59,108.2 63,107.5 67.2,106.6 71.3,106 68.1,93.3 64,94.2 Z"
   id="path21027"
   style="fill:url(#SVGID_12_)" />
	
		<radialGradient
   id="SVGID_13_"
   cx="41.025501"
   cy="247.63429"
   r="55.138199"
   gradientTransform="matrix(1,0,0,-1,0,286.1599)"
   gradientUnits="userSpaceOnUse">
		<stop
   offset="0.8128"
   style="stop-color:#FFFFFF"
   id="stop21029" />
		<stop
   offset="1"
   style="stop-color:#575757"
   id="stop21031" />
	</radialGradient>
	<path
   class="st12"
   d="m 63.2,24.4 c -3.7,1.2 -7.2,2.5 -10.8,3.7 -8.1,3.2 -15.3,6.3 -21.9,9.7 h 0.2 C 23.6,41.3 18,44.9 13.4,48.6 V 48.4 C 8,52.6 4.3,56.7 2.3,60.5 v 0.2 c -3,5.5 -3.2,10.6 -0.7,15.3 1.6,4.6 6.2,7.2 14.1,7.6 4.6,0.4 10.8,-0.4 18.5,-1.8 3.9,-0.9 8.5,-1.9 13.4,-3.4 3,-0.9 -0.5,-13.4 -3.5,-12.5 -4.6,1.2 -8.8,2.3 -12.5,3 -6.3,1.2 -11.3,1.8 -15.2,1.6 -1.6,0 -2.6,-0.2 -3,-0.2 L 13.2,70.1 C 12.8,69 13,67.8 13.7,66.4 v -0.2 c 1.4,-2.5 3.9,-5.1 7.6,-7.9 4.1,-3.2 9,-6.3 15,-9.3 6,-3.2 12.9,-6.2 20.5,-9.2 V 40 c 2.1,-0.9 4.4,-1.6 6.5,-2.3 5.9,-1.5 4.5,-14.9 -0.1,-13.3 z"
   id="path21034"
   style="fill:url(#SVGID_13_)" />
	<path
   class="st13"
   d="m 117.1,25.1 c 4.2,-0.5 8.3,-0.9 12.2,-1.1 7.8,-0.7 14.8,-0.5 21,0.2 1.8,0.2 3.4,-0.4 4.8,-1.4 1.4,-1.2 2.1,-2.6 2.5,-4.4 0.2,-1.8 -0.4,-3.5 -1.4,-4.8 -1.2,-1.4 -2.6,-2.3 -4.4,-2.3 -6.9,-0.7 -14.8,-0.7 -23.3,-0.2 -5.5,0.4 -11.1,1.1 -17.1,1.9 -2.7,0.3 2,12.6 5.7,12.1 z"
   id="path21036" />
	
		<radialGradient
   id="SVGID_14_"
   cx="147.5619"
   cy="286.1153"
   r="30.8323"
   gradientTransform="matrix(1,0,0,-1,0,286.1599)"
   gradientUnits="userSpaceOnUse">
		<stop
   offset="0"
   style="stop-color:#FFFFFF"
   id="stop21038" />
		<stop
   offset="1"
   style="stop-color:#000000"
   id="stop21040" />
	</radialGradient>
	<path
   class="st14"
   d="m 117.1,25.1 c 4.2,-0.5 8.3,-0.9 12.2,-1.1 7.8,-0.7 14.8,-0.5 21,0.2 1.8,0.2 3.4,-0.4 4.8,-1.4 1.4,-1.2 2.1,-2.6 2.5,-4.4 0.2,-1.8 -0.4,-3.5 -1.4,-4.8 -1.2,-1.4 -2.6,-2.3 -4.4,-2.3 -6.9,-0.7 -14.8,-0.7 -23.3,-0.2 -5.5,0.4 -11.1,1.1 -17.1,1.9 -2.7,0.3 2,12.6 5.7,12.1 z"
   id="path21043"
   style="fill:url(#SVGID_14_)" />
	
		<linearGradient
   id="SVGID_15_"
   gradientUnits="userSpaceOnUse"
   x1="32.9492"
   y1="240.078"
   x2="23.5499"
   y2="247.2213"
   gradientTransform="matrix(1,0,0,-1,0,286.1599)">
		<stop
   offset="0"
   style="stop-color:#000000"
   id="stop21045" />
		<stop
   offset="1"
   style="stop-color:#FFFFFF"
   id="stop21047" />
	</linearGradient>
	<path
   class="st15"
   d="m 9,64.3 c 0,7.1 4.4,6.5 4.4,6.5 v 0 L 13.2,70.6 C 12.8,69.5 13,68.3 13.7,66.9 v -0.2 c 1.4,-2.5 3.9,-5.1 7.6,-7.9 4.1,-3.2 9,-6.3 15,-9.3 6,-3.2 12.9,-6.2 20.5,-9.2 v 0.2 c 2.1,-0.9 4.4,-1.6 6.5,-2.3 2.5,-0.9 3.5,-3.9 3.5,-6.9 C 64,30.9 61,30.8 58,30.8 c -6.5,0 -12.5,0.9 -18.2,2.6 -3.4,1.6 -6.5,3 -9.7,4.6 h 0.2 c -2.1,1.1 -4.2,2.3 -6.2,3.4 C 16.8,47.1 9,55.3 9,64.3 Z"
   id="path21050"
   style="fill:url(#SVGID_15_)" />
	<path
   class="st16"
   d="m 157.5,18.4 c 0.2,-1.8 -0.4,-3.5 -1.4,-4.8 -1.2,-1.4 -2.6,-2.3 -4.4,-2.3 -6.9,-0.7 -14.8,-0.7 -23.3,-0.2 -7.9,0.5 -16.4,1.6 -25.4,3.2 -8.6,1.6 -17.3,3.5 -25.9,6 -8.6,2.5 -16.9,5.1 -24.7,7.9 -8.1,3.2 -15.3,6.3 -21.9,9.7 h 0.2 C 23.7,41.5 18,45 13.4,48.7 V 48.5 C 8,52.8 4.3,56.8 2.3,60.7 v 0.2 c -3,5.5 -3.2,10.6 -0.7,15.3 1.6,4.6 6.2,6.9 13.9,7.2 4.6,0.4 10.8,0 18.5,-1.6 6.3,-1.2 13.9,-3.4 23.1,-6 6.7,-2.1 15.3,-4.8 25.7,-8.3 L 108.5,59 c 9.3,-3.2 17.1,-5.5 23.1,-7.2 7.2,-2.1 13,-3.5 17.3,-4.1 3,-0.4 5.1,-0.5 6.2,-0.4 v 0.2 c 2.3,1.6 3.7,3 3.7,4.8 -0.9,2.6 -3.5,5.8 -7.9,9.2 -5.1,3.9 -12.3,7.9 -21.2,12 -8.6,3.9 -18.2,7.4 -28.6,10.9 h -0.2 c -8.1,2.6 -16.4,4.9 -25,6.9 -8.3,1.9 -16.2,3.4 -23.6,4.6 l 0.2,-0.2 c -7.4,1.1 -13.8,1.6 -19.2,1.8 h -0.2 c -4.8,0 -8.5,-0.4 -10.8,-1.2 -1.6,-0.7 -3.2,-0.5 -4.9,0.2 -1.8,0.7 -2.8,1.9 -3.5,3.5 -0.7,1.8 -0.5,3.4 0.2,4.9 0.7,1.5 1.9,2.8 3.5,3.5 3.5,1.2 8.6,1.9 15.5,1.9 6,-0.2 12.9,-0.7 21,-1.8 h 0.2 c 7.8,-1.1 16,-2.6 24.5,-4.6 H 79 c 8.8,-2.1 17.5,-4.6 25.9,-7.2 11.1,-3.5 21.2,-7.4 30.2,-11.5 9.7,-4.6 17.6,-9 23.6,-13.6 7.6,-5.8 12,-11.3 12.7,-16.8 1.9,-7.2 -1.2,-13.2 -9.5,-18.5 -2.6,-2.1 -7.4,-2.6 -14.8,-1.6 h -0.2 c -4.8,0.7 -11.1,2.1 -19,4.4 -6,1.8 -13.9,4.1 -23.6,7.4 L 78.6,55 c -10.2,3.4 -18.7,6 -25.2,7.9 -8.8,2.6 -16,4.6 -22,5.8 -6.3,1.2 -11.3,1.8 -15.2,1.6 -1.6,0 -2.6,-0.2 -3,-0.2 L 13,69.9 c -0.4,-1.1 -0.2,-2.3 0.5,-3.7 V 66 c 1.4,-2.5 3.9,-5.1 7.6,-7.9 4.1,-3.2 9,-6.3 15,-9.3 6,-3.2 12.9,-6.2 20.5,-9.2 v 0.2 C 64,37 71.9,34.3 80.2,32 c 8.3,-2.5 16.6,-4.4 24.9,-5.8 8.3,-1.6 16.4,-2.6 24,-3 7.8,-0.7 14.8,-0.5 21,0.2 1.8,0.2 3.4,-0.4 4.8,-1.4 1.7,-0.6 2.4,-2 2.6,-3.6 z"
   id="path21052" />
	
		<radialGradient
   id="SVGID_16_"
   cx="95.703499"
   cy="249.7997"
   r="50.008999"
   gradientTransform="matrix(1,0,0,-1,0,286.1599)"
   gradientUnits="userSpaceOnUse">
		<stop
   offset="4.000000e-02"
   style="stop-color:#FFFFFF"
   id="stop21054" />
		<stop
   offset="4.000000e-02"
   style="stop-color:#FFFFFF"
   id="stop21056" />
		<stop
   offset="0.23"
   style="stop-color:#6E93E1"
   id="stop21058" />
		<stop
   offset="1"
   style="stop-color:#363499"
   id="stop21060" />
	</radialGradient>
	<circle
   class="st17"
   cx="86.599998"
   cy="60"
   r="55.200001"
   id="circle21063"
   style="fill:url(#SVGID_16_)" />
	
		<linearGradient
   id="SVGID_17_"
   gradientUnits="userSpaceOnUse"
   x1="92.507202"
   y1="220.5575"
   x2="88.742798"
   y2="232.854"
   gradientTransform="matrix(1,0,0,-1,0,286.1599)">
		<stop
   offset="0"
   style="stop-color:#000000"
   id="stop21065" />
		<stop
   offset="0.9893"
   style="stop-color:#FFFFFF"
   id="stop21067" />
	</linearGradient>
	<path
   class="st18"
   d="m 31.3,69.2 c -0.7,0.2 -17.3,3.7 -20.1,1.1 -0.9,-0.9 1.8,1.2 4.4,4.6 0.4,0.5 0,1.2 -0.4,2.1 -0.2,0.2 -0.2,0.4 -0.4,0.5 0,0.2 -0.2,0.5 -0.2,0.7 0,0.4 -0.2,0.5 -0.4,0.9 -0.2,0.9 -0.7,1.8 -0.9,2.3 0,0.2 0.4,0.4 0.4,0.7 0,0.2 -0.4,0.2 -0.4,0.4 0,0.2 -0.5,0.2 -0.4,0.4 v 0.2 c 0.4,0 1.1,0.2 1.2,0.2 0.2,0 1.6,0.2 3.7,0.2 2.1,0 4.8,0 7.1,-0.2 1.4,-0.2 2.8,-0.4 4.2,-0.5 1.8,-0.4 3.5,-0.5 4.6,-0.7 1.1,-0.2 1.6,0 1.8,0 6,-1.2 13.2,-3.2 21.7,-5.6 6.7,-2.1 15.3,-4.8 25.7,-8.3 l 25.7,-8.5 c 5.1,-1.8 9.9,-3.2 13.9,-4.6 3.4,-1.1 6.3,-1.9 9,-2.6 3.4,-1.1 6.2,-1.8 9,-2.5 3.2,-0.7 6,-1.4 8.5,-1.8 3,-0.4 5.1,-0.5 6.2,-0.4 V 48 c 0.9,0.5 4.9,0.2 6.9,3.2 3.2,4.9 4.8,13.8 6.2,12 1.9,-2.6 3,-5.1 3.4,-7.6 1.9,-7.2 -1.2,-12.9 -9.5,-18.2 -2.6,-2.1 -7.4,-2.6 -14.8,-1.6 h -0.2 c -2.8,0.5 -6.3,1.2 -10.4,2.1 -2.6,0.7 -5.5,1.1 -8.6,1.9 -3,0.9 -6.5,1.9 -10.4,3.2 -3.9,1.2 -8.3,2.6 -13.2,4.2 l -25.7,8.5 c -7.2,2.3 -13.6,4.4 -19,6.2 z"
   id="path21070"
   style="fill:url(#SVGID_17_)" />
	<path
   class="st19"
   d="m 137.9,36.9 c -2.6,0.7 -6.3,1.8 -9.3,2.6 -6,1.8 -13.9,4.1 -23.6,7.4 L 79.3,55.4 C 71.5,58 64.8,60 59.2,61.7 c -2.6,0.5 -4.4,0.9 -5.3,1.2 -8.6,2.5 -29.4,8.6 -37.7,7.8"
   id="path21072" />
	<path
   class="st19"
   d="m 34.2,81.9 c 6,-1.2 14.8,-3.5 23.3,-6 6.7,-2.1 15.3,-4.8 25.7,-8.3 l 25.7,-8.5 c 9.3,-3.2 17.1,-5.5 23.1,-7.2 3.4,-1.1 7.1,-1.9 9.7,-2.6"
   id="path21074" />
</g>
</svg>
