<svg height="247.18355" viewBox="0 0 500.97369 247.18355" width="500.97369" xmlns="http://www.w3.org/2000/svg" xmlns:xlink="http://www.w3.org/1999/xlink"><filter id="a" color-interpolation-filters="sRGB" height="1.16197" width="1.04011" x="-.017088" y="-.070036"><feFlood result="flood"/><feComposite in="flood" in2="SourceGraphic" operator="in" result="composite1"/><feGaussianBlur in="composite1" result="blur" stdDeviation="3"/><feOffset dx="2.5" dy="2.2513" result="offset"/><feComposite in="offset" in2="SourceGraphic" operator="out" result="composite2"/></filter><linearGradient id="b" gradientUnits="userSpaceOnUse" x1="355.69232" x2="357.10883" y1="84.585022" y2="152.18121"><stop offset="0" stop-color="#009ee0"/><stop offset="1" stop-color="#009ee0" stop-opacity="0"/></linearGradient><g transform="translate(-59.375871 -31.365455)"><g><path d="m531.51276 160.8587h-55.26083v20.55462h84.09763l-43.73741-128.323196c-3.8329-12.516688-16.46732-21.724669-31.42445-21.724669-14.98009 0-27.57566 9.167695-31.43682 21.673873l-44.13836 128.375742h22.01707l42.85426-124.788535c1.73982-4.131944 5.84296-7.043046 10.66676-7.043046 4.7973 0 8.9234 2.911102 10.67912 7.016772zm-52.70145-102.000671c.92202-2.616839 3.42841-4.503275 6.39052-4.503275 2.96387 0 5.49499 1.886436 6.39228 4.503275l33.22079 97.322241h-48.64422l.053-22.89472h16.25536l-7.31783-21.56702-23.83814 69.69479h-24.5217zm-148.60687 81.388251c0 8.70703 7.10234 15.78861 15.86502 15.78861h42.74651v-46.05742h-33.07242v20.59841h12.2741l.0389 4.83608h-12.21934c-2.66713 0-4.85029-2.19121-4.85029-4.83608l-.10951-46.004868s-.0141-4.783525 4.90504-4.902632h58.74576l-.0265-20.517839-68.43575.01401c-8.76267 0-15.86501 7.043046-15.86501 15.732563v65.349166m15.9233 20.61242c-11.44393 0-20.79655-9.24827-20.79655-20.61242v-65.350916c0-11.374667 9.2855-20.544113 20.7418-20.544113h68.4357v-20.580896h-68.59471c-22.98325 0-41.60901 18.4037-41.60901 41.126761v65.350914c0 22.72481 18.78649 41.15478 41.76798 41.15478l68.43574.028v-96.845785h-58.81288v20.530105h38.02869v55.74357h-47.5968m-120.17278-4.94292c-8.75031 0-15.85265-7.00276-15.85265-15.66775v-30.24429h71.47557v20.57214h-50.78676c.0671 4.83608 4.94391 4.8606 4.94391 4.8606h60.58096l-.0141 20.45128-70.3469.028m-15.82618-81.018644c0-8.689517 7.04935-15.732563 15.82615-15.732563h70.65777v20.622934h-60.87594c-4.87678 0-4.9439 4.797538-4.9439 4.797538h50.78676v20.530105h-71.47557l.0247-30.218014m15.82615 86.014134c-11.48456 0-20.89194-9.07662-20.89194-20.66497v-65.575116c0-11.148716 9.40738-20.318161 20.89194-20.318161l70.65777.01226v-20.594908h-70.65777c-22.99385 0-41.6196 18.4037-41.6196 41.126761v65.350914c0 22.72481 18.62575 41.15478 41.6196 41.15478l70.36279.028-.0141-20.54411-70.34866.0245m-166.522569-4.95688h66.236689c12.82342 0 23.1952-10.25717 23.1952-22.935 0-12.66382-10.37178-22.90873-23.1952-22.90873l-17.27276-.18567c-15.490556 0-28.05963-12.42385-28.05963-27.77282 0-15.306932 12.569074-27.732538 28.05963-27.732538l66.11658-.01401-.0265-20.635195h-66.07595c-27.054598 0-49.031049 21.673873-49.031049 48.436044 0 26.762169 21.976451 48.448299 49.031049 48.448299l17.0979.0263c1.3 0 2.39865 1.05094 2.39865 2.37862 0 1.30317-1.09865 2.35236-2.39865 2.35236l-66.102454.0525.02649 20.48982m-.02649 25.60613 66.196064-.0666c27.08286 0 49.03105-21.69839 49.03105-48.43429 0-26.78844-21.94819-48.488586-49.03105-48.488586l-17.19151.09283c-1.35476 0-2.45341-1.101734-2.45341-2.457446s1.09865-2.459198 2.45341-2.459198l66.07595.01401.0265-20.556374h-66.11658c-12.7828 0-23.182844 10.297454-23.182844 22.949013 0 12.663819 10.398277 22.920991 23.182844 22.920991l17.27276.22595c15.51705 0 28.07376 12.40984 28.07376 27.72028 0 15.32094-12.55495 27.75881-28.07376 27.75881h-66.236689l-.02649 20.78057" fill="#00448c"/><path d="m531.51276 160.8587h-55.26083v20.55462h84.09763l-43.73741-128.323196c-3.8329-12.516688-16.46732-21.724669-31.42445-21.724669-14.98009 0-27.57566 9.167695-31.43682 21.673873l-44.13836 128.375742h22.01707l42.85426-124.788535c1.73982-4.131944 5.84296-7.043046 10.66676-7.043046 4.7973 0 8.9234 2.911102 10.67912 7.016772zm-52.70145-102.000671c.92202-2.616839 3.42841-4.503275 6.39052-4.503275 2.96387 0 5.49499 1.886436 6.39228 4.503275l33.22079 97.322241h-48.64422l.053-22.89472h16.25536l-7.31783-21.56702-23.83814 69.69479h-24.5217zm-148.60687 81.388251c0 8.70703 7.10234 15.78861 15.86502 15.78861h42.74651v-46.05742h-33.07242v20.59841h12.2741l.0389 4.83608h-12.21934c-2.66713 0-4.85029-2.19121-4.85029-4.83608l-.10951-46.004868s-.0141-4.783525 4.90504-4.902632h58.74576l-.0265-20.517839-68.43575.01401c-8.76267 0-15.86501 7.043046-15.86501 15.732563v65.349166m15.9233 20.61242c-11.44393 0-20.79655-9.24827-20.79655-20.61242v-65.350916c0-11.374667 9.2855-20.544113 20.7418-20.544113h68.4357v-20.580896h-68.59471c-22.98325 0-41.60901 18.4037-41.60901 41.126761v65.350914c0 22.72481 18.78649 41.15478 41.76798 41.15478l68.43574.028v-96.845785h-58.81288v20.530105h38.02869v55.74357h-47.5968m-120.17278-4.94292c-8.75031 0-15.85265-7.00276-15.85265-15.66775v-30.24429h71.47557v20.57214h-50.78676c.0671 4.83608 4.94391 4.8606 4.94391 4.8606h60.58096l-.0141 20.45128-70.3469.028m-15.82618-81.018644c0-8.689517 7.04935-15.732563 15.82615-15.732563h70.65777v20.622934h-60.87594c-4.87678 0-4.9439 4.797538-4.9439 4.797538h50.78676v20.530105h-71.47557l.0247-30.218014m15.82615 86.014134c-11.48456 0-20.89194-9.07662-20.89194-20.66497v-65.575116c0-11.148716 9.40738-20.318161 20.89194-20.318161l70.65777.01226v-20.594908h-70.65777c-22.99385 0-41.6196 18.4037-41.6196 41.126761v65.350914c0 22.72481 18.62575 41.15478 41.6196 41.15478l70.36279.028-.0141-20.54411-70.34866.0245m-166.522569-4.95688h66.236689c12.82342 0 23.1952-10.25717 23.1952-22.935 0-12.66382-10.37178-22.90873-23.1952-22.90873l-17.27276-.18567c-15.490556 0-28.05963-12.42385-28.05963-27.77282 0-15.306932 12.569074-27.732538 28.05963-27.732538l66.11658-.01401-.0265-20.635195h-66.07595c-27.054598 0-49.031049 21.673873-49.031049 48.436044 0 26.762169 21.976451 48.448299 49.031049 48.448299l17.0979.0263c1.3 0 2.39865 1.05094 2.39865 2.37862 0 1.30317-1.09865 2.35236-2.39865 2.35236l-66.102454.0525.02649 20.48982m-.02649 25.60613 66.196064-.0666c27.08286 0 49.03105-21.69839 49.03105-48.43429 0-26.78844-21.94819-48.488586-49.03105-48.488586l-17.19151.09283c-1.35476 0-2.45341-1.101734-2.45341-2.457446s1.09865-2.459198 2.45341-2.459198l66.07595.01401.0265-20.556374h-66.11658c-12.7828 0-23.182844 10.297454-23.182844 22.949013 0 12.663819 10.398277 22.920991 23.182844 22.920991l17.27276.22595c15.51705 0 28.07376 12.40984 28.07376 27.72028 0 15.32094-12.55495 27.75881-28.07376 27.75881h-66.236689l-.02649 20.78057" fill="url(#b)"/></g><g fill="#fff"><g fill-opacity=".5" stroke-width="2.5"><path d="m247.79232 56.663515q0 .24-.058.404-.086.244-.276.244-.126 0-.264-.058-.166-.07-.182-.172.056 0 .132.02.176.046.22.046.17 0 .256-.17.068-.136.068-.326 0-.134-.088-.382-.086-.25-.086-.348 0-.03.016-.048.018-.02.048-.02.078 0 .152.36.062.304.062.45z"/><path d="m248.56232 56.867515q0 .204-.118.32-.118.116-.326.116-.114 0-.176-.054-.062-.054-.062-.166 0-.158.206-.318.196-.152.362-.152.076 0 .1.094.014.054.014.16zm-.122.056q0-.024-.006-.046-.004-.024-.016-.054-.032.022-.106.108-.038.044-.066.064 0-.038.008-.062.016-.034.026-.058-.088 0-.184.074-.094.074-.094.16 0 .058.064.058.122 0 .236-.06.138-.072.138-.184z"/><path d="m249.38632 56.949515q0 .098-.074.22-.084.138-.174.138-.026 0-.044-.028-.016-.03-.016-.058 0-.036.076-.112.078-.078.078-.106 0-.018-.006-.036-.006-.018-.008-.024-.15.034-.306.172-.154.138-.234.156-.016-.044-.016-.09 0-.056.026-.118.018-.044.06-.106.07-.106.148-.24.04-.07.138-.242.1-.172.146-.244.024-.036.042-.054.026-.024.062-.032.024.008.034.03.012.022.012.052 0 .068-.088.184-.16.208-.164.216-.09.136-.09.246l.004.02q.11-.054.13-.062.082-.034.14-.034.064 0 .094.044.03.042.03.108z"/><path d="m250.31433 56.831515q0 .136-.066.29-.072.17-.178.234-.022-.026-.038-.058-.014-.032-.014-.064 0-.034.1-.202.044-.074.04-.13l-.002-.026q-.074.022-.256.134-.18.11-.364.224-.028 0-.052-.02-.022-.022-.022-.048 0-.042.134-.282.04-.072.144-.25.032.042.042.094.01.05.01.12 0 .03 0 .046.184-.11.288-.166.114-.062.156-.062.028 0 .052.064.026.064.026.102z"/><path d="m252.05233 57.219515q0 .036-.032.056-.03.018-.068.018-.034 0-.086-.008-.118-.018-.152-.018-.06 0-.236.014-.1.008-.144.008-.122 0-.122-.122 0-.116.076-.332.042-.122.158-.4.104-.25.132-.352.01-.032.016-.042.016-.024.04-.024.038 0 .064.056.026.054.026.098 0 .07-.082.236-.082.164-.16.322-.086.188-.086.286 0 .05.042.07.03.014.088.014.044 0 .152-.01.108-.012.144-.012.09 0 .148.026.082.036.082.116z"/><path d="m252.79633 56.867515q0 .204-.118.32-.118.116-.326.116-.114 0-.176-.054-.062-.054-.062-.166 0-.158.206-.318.196-.152.362-.152.076 0 .1.094.014.054.014.16zm-.122.056q0-.024-.006-.046-.004-.024-.016-.054-.032.022-.106.108-.038.044-.066.064 0-.038.008-.062.016-.034.026-.058-.088 0-.184.074-.094.074-.094.16 0 .058.064.058.122 0 .236-.06.138-.072.138-.184z"/><path d="m253.63833 56.825515q0 .064-.034.136-.032.072-.082.12l-.002-.028q0-.024.006-.074.006-.05.006-.074 0-.034-.01-.05-.01-.018-.042-.018-.094 0-.234.146-.152.16-.302.318-.012 0-.024-.002-.03-.008-.04-.01.006-.072.05-.16.118-.238.122-.254.016-.064.024-.094.008-.03.022-.062.016-.034.036-.06.022-.028.056-.042l.02.24q.086-.07.132-.108.088-.07.152-.07.064 0 .104.042.04.042.04.104z"/><path d="m254.62033 56.593515q0 .084-.224.222-.216.132-.314.132-.046 0-.062-.032-.014-.032-.014-.09 0-.038 0-.054.134 0 .244-.04.11-.04.192-.132-.06-.022-.122-.022-.146 0-.31.112-.18.122-.18.26 0 .132.18.184.028.008.338.056.182.028.182.098 0 .03-.066.048-.066.02-.168.02-.256 0-.404-.078-.196-.104-.196-.334 0-.24.24-.382.204-.12.464-.12.078 0 .142.036.078.044.078.116z"/><path d="m255.41633 56.235515q0 .044-.106.184-.106.14-.106.214 0 .038.044.076.1.088.1.108 0 .026-.018.05-.016.024-.042.024-.022 0-.062-.024-.028-.016-.108-.078-.03.058-.046.088-.056.106-.076.154-.03.092-.06.184-.052.124-.13.124l-.002-.046q0-.142.092-.336.018-.036.1-.186-.158-.086-.348-.086 0-.074.03-.108.032-.036.106-.036.068 0 .17.024.05.012.1.024.038-.012.104-.13.162-.284.22-.326.016.026.026.052.012.026.012.05z"/><path d="m256.15433 56.949515q0 .098-.074.22-.084.138-.174.138-.026 0-.044-.028-.016-.03-.016-.058 0-.036.076-.112.078-.078.078-.106 0-.018-.006-.036-.006-.018-.008-.024-.15.034-.306.172-.154.138-.234.156-.016-.044-.016-.09 0-.056.026-.118.018-.044.06-.106.07-.106.148-.24.04-.07.138-.242.1-.172.146-.244.024-.036.042-.054.026-.024.062-.032.024.008.034.03.012.022.012.052 0 .068-.088.184-.16.208-.164.216-.09.136-.09.246l.004.02q.11-.054.13-.062.082-.034.14-.034.064 0 .094.044.03.042.03.108z"/><path d="m257.79633 56.297515q0 .094-.1.252-.064.1-.21.288-.146.186-.182.244.006.002.15.048.146.044.146.16-.06.01-.118.018l-.022-.002v-.016q-.032-.008-.052-.008-.038 0-.12.012-.082.012-.124.012-.054 0-.088-.02-.034-.02-.034-.072 0-.042.154-.238.288-.366.29-.37.156-.212.156-.284 0-.028-.02-.042-.018-.014-.074-.014-.038 0-.158.074-.058.036-.094.036l-.034-.006q-.012-.008-.026-.03-.014-.024-.014-.038 0-.084.162-.154.138-.06.24-.06.086 0 .132.064.04.056.04.146z"/><path d="m258.99833 56.657515q0 .242-.262.428-.24.17-.494.17-.126 0-.2-.064-.074-.064-.074-.186 0-.272.238-.472.226-.19.506-.19.142 0 .214.084.072.084.072.23zm-.122.046q0-.092-.104-.138-.078-.034-.186-.034-.158 0-.33.154-.172.154-.172.31 0 .064.032.092.034.026.102.026.196 0 .408-.108.25-.128.25-.302z"/><path d="m259.91433 56.297515q0 .094-.1.252-.064.1-.21.288-.146.186-.182.244.006.002.15.048.146.044.146.16-.06.01-.118.018l-.022-.002v-.016q-.032-.008-.052-.008-.038 0-.12.012-.082.012-.124.012-.054 0-.088-.02-.034-.02-.034-.072 0-.042.154-.238.288-.366.29-.37.156-.212.156-.284 0-.028-.02-.042-.018-.014-.074-.014-.038 0-.158.074-.058.036-.094.036l-.034-.006q-.012-.008-.026-.03-.014-.024-.014-.038 0-.084.162-.154.138-.06.24-.06.086 0 .132.064.04.056.04.146z"/><path d="m260.83433 56.297515q0 .094-.1.252-.064.1-.21.288-.146.186-.182.244.006.002.15.048.146.044.146.16-.06.01-.118.018l-.022-.002v-.016q-.032-.008-.052-.008-.038 0-.12.012-.082.012-.124.012-.054 0-.088-.02-.034-.02-.034-.072 0-.042.154-.238.288-.366.29-.37.156-.212.156-.284 0-.028-.02-.042-.018-.014-.074-.014-.038 0-.158.074-.058.036-.094.036l-.034-.006q-.012-.008-.026-.03-.014-.024-.014-.038 0-.084.162-.154.138-.06.24-.06.086 0 .132.064.04.056.04.146z"/></g><path d="m258.73312 266.01454h42.29861v-71.84334h39.2533v-24.75683h-120.71988v24.75683h39.16797zm73.54234-51.45536h55.09608v23.30054h-55.09608zm91.30218 51.45536-48.13132-96.60017h46.53756l24.08747 60.81503 23.49396-60.81503h46.54136l-47.83836 96.60017zm-196.49878-67.76556c1.13052-10.15262-7.30916-18.4272-20.22476-24.55475-20.11955-9.54532-86.31448-11.36024-100.48009 3.60436-7.559713 7.41888-10.095721 14.81488-10.428298 20.92069 1.368168 27.32485 30.447208 26.85856 52.305908 29.88962 10.05296 1.39022 19.14728 3.09848 26.04463 3.40852 10.83911.66141 8.69551 12.4208-.43057 13.49905-6.07264 1.03914-17.49704 1.19926-23.9692-1.27525-3.7463-1.43233-4.03499-3.90191-4.26287-7.28564h-50.8007c-.650515 9.80202 3.630358 19.08202 13.05752 23.44371 30.23892 13.99072 87.02834 9.46762 100.88125 3.14244 34.355-11.24843 28.60661-47.95832.0495-53.7222-16.71035-3.79363-42.13445-5.42009-63.48546-9.0714-3.43961-1.10626-5.3152-3.11791-3.77286-7.1815 1.95099-4.68077 11.6861-4.64623 17.97271-3.7261 16.91212 2.47531 18.54368 4.98606 18.41926 8.90845z" filter="url(#a)" opacity=".98"/><path d="m227.07886 198.24898c1.13052-10.15262-7.30916-18.4272-20.22476-24.55475-20.11955-9.54532-86.31448-11.36024-100.48009 3.60436-7.559713 7.41888-10.095721 14.81488-10.428298 20.92069 1.368168 27.32485 30.447208 26.85856 52.305908 29.88962 10.05296 1.39022 19.14728 3.09848 26.04463 3.40852 10.83911.66141 8.69551 12.4208-.43057 13.49905-6.07264 1.03914-17.49704 1.19926-23.9692-1.27525-3.7463-1.43233-4.03499-3.90191-4.26287-7.28564h-50.8007c-.650515 9.80202 3.630358 19.08202 13.05752 23.44371 30.23892 13.99072 87.02834 9.46762 100.88125 3.14244 34.355-11.24843 28.60661-47.95832.0495-53.7222-16.71035-3.79363-42.13445-5.42009-63.48546-9.0714-3.43961-1.10626-5.3152-3.11791-3.77286-7.1815 1.95099-4.68077 11.6861-4.64623 17.97271-3.7261 16.91212 2.47531 18.54368 4.98606 18.41926 8.90845z" opacity=".98"/><path d="m423.57764 266.01454-48.13132-96.60017h46.53756l24.08747 60.81503 23.49396-60.81503h46.54136l-47.83836 96.60017z" opacity=".98"/><path d="m332.27546 214.55918h55.09608v23.30054h-55.09608z" opacity=".98"/><path d="m258.73312 266.01454h42.29861v-71.84334h39.2533v-24.75683h-120.71988v24.75683h39.16797z" opacity=".98"/></g></g></svg>