<?xml version="1.0" encoding="UTF-8" standalone="no"?>
<svg
   version="1.1"
   width="500"
   height="165.94167"
   id="svg19107"
   sodipodi:docname="sega.svg"
   viewBox="0 0 300 99.564999"
   inkscape:version="1.1.2 (0a00cf5339, 2022-02-04)"
   xmlns:inkscape="http://www.inkscape.org/namespaces/inkscape"
   xmlns:sodipodi="http://sodipodi.sourceforge.net/DTD/sodipodi-0.dtd"
   xmlns="http://www.w3.org/2000/svg"
   xmlns:svg="http://www.w3.org/2000/svg">
  <defs
     id="defs19111" />
  <sodipodi:namedview
     id="namedview19109"
     pagecolor="#000000"
     bordercolor="#111111"
     borderopacity="1"
     inkscape:pageshadow="0"
     inkscape:pageopacity="0"
     inkscape:pagecheckerboard="1"
     showgrid="false"
     showguides="true"
     inkscape:guide-bbox="true"
     fit-margin-top="0"
     fit-margin-left="0"
     fit-margin-right="0"
     fit-margin-bottom="0"
     inkscape:zoom="1.9283333"
     inkscape:cx="438.72083"
     inkscape:cy="50.043215"
     inkscape:window-width="1366"
     inkscape:window-height="703"
     inkscape:window-x="0"
     inkscape:window-y="0"
     inkscape:window-maximized="1"
     inkscape:current-layer="svg19107">
    <sodipodi:guide
       position="0.15557476,65.805274"
       orientation="1,0"
       id="guide20133" />
  </sodipodi:namedview>
  <path
     d="m 147.808,90.894 c 5.508,5.349 13.019,8.656 21.303,8.656 L 300,99.565 271.732,15.233 C 267.871,6.274 258.813,0 247.934,0 237.101,0 227.906,6.479 224.189,15.401 L 214.766,42.872 214.729,1.419 169.02,1.396 c -8.262,0 -15.689,3.224 -21.159,8.557 l 0.016,-8.52 h -46.801 c -8.717,0 -16.645,3.717 -22.19,9.559 V 1.396 L 34.776,1.434 C 15.734,1.418 0.114,16.303 0.091,35.983 c 0,9.111 3.982,17.374 9.854,23.496 L 0,59.463 V 99.55 L 44.442,99.542 C 56.929,99.527 69.303,91.993 73.604,82.966 l 0.129,-0.371 c 4.969,10.036 15.339,16.955 27.341,16.955 l 46.733,-0.008 v -8.648"
     style="fill:#ffffff;stroke-width:0.999998"
     id="path19928"
     inkscape:label="Background" />
  <path
     d="m 6.866,92.691 37.477,-0.038 c 15.333,0 27.759,-12.388 27.759,-27.652 0,-15.294 -12.426,-27.683 -27.759,-27.683 l -9.733,0.053 c -0.767,0 -1.389,-0.629 -1.389,-1.403 0,-0.774 0.622,-1.404 1.389,-1.404 l 37.409,0.008 0.015,-11.736 H 34.602 c -7.237,0 -13.125,5.879 -13.125,13.102 0,7.23 5.887,13.086 13.125,13.086 l 9.779,0.129 c 8.785,0 15.894,7.085 15.894,15.826 0,8.747 -7.108,15.848 -15.894,15.848 H 6.881 L 6.866,92.691"
     style="fill:#0060a8"
     id="path19085"
     inkscape:label="Lower S" />
  <path
     d="m 6.881,78.072 h 37.5 c 7.26,0 13.132,-5.856 13.132,-13.094 0,-7.23 -5.872,-13.079 -13.132,-13.079 l -9.779,-0.106 c -8.77,0 -15.886,-7.093 -15.886,-15.856 0,-8.739 7.116,-15.833 15.886,-15.833 L 72.034,20.096 72.019,8.315 H 34.61 c -15.317,0 -27.759,12.374 -27.759,27.653 0,15.279 12.442,27.66 27.759,27.66 l 9.68,0.015 c 0.736,0 1.358,0.6 1.358,1.358 0,0.744 -0.622,1.343 -1.358,1.343 l -37.424,0.03 0.015,11.698"
     style="display:inline;fill:#0060a8"
     id="path19087"
     inkscape:label="Upper S" />
  <path
     d="M 101.158,80.902 C 94.656,80.902 89.33,75.72 89.33,69.104 V 31.666 c 0,-6.365 5.326,-11.6 11.828,-11.6 l 40.003,0.007 V 8.315 h -40.003 c -13.018,0 -23.563,10.507 -23.563,23.48 v 37.31 c 0,12.974 10.545,23.496 23.563,23.496 l 39.836,0.016 -0.008,-11.729 -39.828,0.014"
     style="fill:#0060a8"
     id="path19089"
     inkscape:label="Outer E" />
  <path
     d="m 92.198,31.795 c 0,-4.961 3.991,-8.982 8.96,-8.982 h 40.003 v 11.774 h -34.465 c -2.761,0 -2.799,2.739 -2.799,2.739 H 132.65 V 49.047 H 92.184 l 0.014,-17.252"
     style="fill:#0060a8"
     id="path19091"
     inkscape:label="Inner Upper E" />
  <path
     d="m 101.158,78.05 c -4.954,0 -8.975,-3.998 -8.975,-8.945 V 51.838 h 40.466 v 11.745 h -28.753 c 0.038,2.761 2.799,2.775 2.799,2.775 h 34.298 l -0.008,11.676 -39.827,0.016"
     style="fill:#0060a8"
     id="path19093"
     inkscape:label="Inner Lower E" />
  <path
     d="m 169.194,80.872 c -6.479,0 -11.774,-5.28 -11.774,-11.768 v -37.31 c 0,-6.494 5.257,-11.729 11.743,-11.729 h 38.745 V 8.315 h -38.835 c -13.012,0 -23.557,10.507 -23.557,23.48 v 37.31 c 0,12.974 10.636,23.496 23.647,23.496 l 38.745,0.016 V 37.326 h -33.297 v 11.721 h 21.53 v 31.825 h -26.947"
     style="fill:#0060a8"
     id="path19095"
     inkscape:label="Outer G" />
  <path
     d="m 160.181,69.104 c 0,4.971 4.021,9.014 8.982,9.014 h 24.201 V 51.823 H 174.64 v 11.76 h 6.949 l 0.022,2.761 h -6.918 c -1.51,0 -2.746,-1.251 -2.746,-2.761 l -0.062,-26.265 c 0,0 -0.008,-2.731 2.777,-2.799 h 33.259 l -0.015,-11.714 -38.745,0.008 c -4.961,0 -8.982,4.021 -8.982,8.982 v 37.309"
     style="fill:#0060a8"
     id="path19097"
     inkscape:label="Inner G" />
  <path
     d="m 244.315,22.638 c 0.522,-1.494 1.941,-2.571 3.618,-2.571 1.678,0 3.111,1.077 3.619,2.571 l 18.808,55.563 h -27.54 l 0.03,-13.071 h 9.203 l -4.143,-12.313 -13.496,39.79 h -13.883 l 23.784,-69.969"
     style="fill:#0060a8"
     id="path19099"
     inkscape:label="Inner A" />
  <path
     d="m 274.152,80.872 h -31.286 v 11.735 h 47.612 L 265.716,19.345 c -2.17,-7.146 -9.323,-12.403 -17.791,-12.403 -8.481,0 -15.612,5.234 -17.798,12.374 l -24.989,73.292 h 12.465 l 24.262,-71.244 c 0.985,-2.359 3.308,-4.021 6.039,-4.021 2.716,0 5.052,1.662 6.046,4.006 l 20.202,59.523"
     style="fill:#0060a8"
     id="path19101"
     inkscape:label="OuterA" />
</svg>
