<?xml version="1.0" encoding="UTF-8" standalone="no"?>
<!-- Created with Inkscape (http://www.inkscape.org/) -->

<svg
   width="993.64954mm"
   height="159.98466mm"
   viewBox="0 0 993.64956 159.98467"
   version="1.1"
   id="svg1154"
   inkscape:version="1.1.2 (0a00cf5339, 2022-02-04)"
   sodipodi:docname="snes-msu.svg"
   xmlns:inkscape="http://www.inkscape.org/namespaces/inkscape"
   xmlns:sodipodi="http://sodipodi.sourceforge.net/DTD/sodipodi-0.dtd"
   xmlns="http://www.w3.org/2000/svg"
   xmlns:svg="http://www.w3.org/2000/svg">
  <sodipodi:namedview
     id="namedview1156"
     pagecolor="#000000"
     bordercolor="#111111"
     borderopacity="1"
     inkscape:pageshadow="0"
     inkscape:pageopacity="0"
     inkscape:pagecheckerboard="1"
     inkscape:document-units="mm"
     showgrid="false"
     showguides="true"
     inkscape:guide-bbox="true"
     inkscape:zoom="0.77860548"
     inkscape:cx="2979.6862"
     inkscape:cy="319.16035"
     inkscape:window-width="1366"
     inkscape:window-height="703"
     inkscape:window-x="0"
     inkscape:window-y="0"
     inkscape:window-maximized="1"
     inkscape:current-layer="g1409"
     fit-margin-top="0"
     fit-margin-left="0"
     fit-margin-right="0"
     fit-margin-bottom="0">
    <sodipodi:guide
       position="768.24106,26.356078"
       orientation="0,-1"
       id="guide1491" />
  </sodipodi:namedview>
  <defs
     id="defs1151" />
  <g
     inkscape:label="Layer 1"
     inkscape:groupmode="layer"
     id="layer1"
     transform="translate(324.33938,-118.30175)">
    <path
       d="m -289.82139,118.30175 c -7.21644,0 -14.23121,5.9319 -15.51984,13.28395 v 0.13168 0.13169 0.13169 l -0.13149,0.13168 v 0.26338 0.13168 l -0.13149,0.26338 v 0.26337 l -0.13149,0.26337 v 0.39506 l -0.13149,0.26338 v 0.39506 l -0.13149,0.39407 -0.13149,0.39506 -0.13149,0.78914 -0.26308,0.92083 -0.13149,0.92082 -0.26308,0.92082 -0.13159,1.05222 -0.26298,1.05212 -0.26308,1.1837 -0.26308,1.05222 -0.39457,2.23592 -0.26308,1.18371 -0.26307,1.05221 -0.13149,1.05222 -0.26308,1.05222 -0.26308,1.05211 -0.13149,1.05222 -0.13159,0.92083 -0.26308,0.78913 -0.13159,0.92083 v 0.39407 l -0.13149,0.26338 v 0.39407 0.26338 l -0.13149,0.39506 v 0.26337 0.26338 l -0.13149,0.26337 v 0.13169 0.13168 c -0.13571,3.21483 0.31143,7.60373 1.31524,8.41753 1.27507,7.08082 24.87871,39.85793 24.20046,44.84974 -0.6375,5.00547 -3.41965,19.72864 -3.41965,19.72864 -0.85458,4.96478 -4.24196,8.94369 -9.20668,8.94369 -4.96466,0 -8.35143,-3.96544 -7.4969,-8.94369 l 4.47183,-24.46346 h -17.62423 l -5.9186,33.93321 c -1.20725,6.89094 3.45884,12.36331 10.39041,12.36331 h 25.12114 c 6.95869,0 13.58716,-5.47237 14.86224,-12.36331 0,0 6.47183,-31.69503 6.44469,-33.93321 -0.0275,-2.25175 -0.65765,-2.499 -0.65765,-2.499 0,-2.57723 -21.00503,-37.24788 -23.14825,-38.53654 -0.92239,-0.54247 -1.68268,-3.97468 -1.70982,-6.05012 -0.0403,-2.06188 2.762,-15.91444 2.762,-15.91444 0.85459,-4.96469 5.55726,-8.94359 10.52193,-8.94359 4.96468,0 7.03621,3.9789 6.18166,8.94359 l -3.81422,21.96456 h 17.75577 l 6.18163,-33.01258 c 1.39718,-7.35205 -3.3055,-13.28395 -10.52194,-13.28395 z m 48.40089,0 -21.04385,121.26527 c -1.20729,6.89095 3.45883,12.36332 10.3904,12.36332 h 25.12115 c 6.95868,0 13.70509,-5.47237 14.99374,-12.36332 l 22.49064,-121.26527 h -15.7829 l -21.43844,117.84574 c -0.31201,1.70908 -1.97355,3.15655 -3.68269,3.15655 h -12.49481 c -1.74986,0 -2.91535,-1.43381 -2.63048,-3.15655 l 20.91236,-117.84574 z m 60.50114,0 -25.38415,133.62859 h 16.83509 l 11.57413,-60.5011 h 21.43844 c 6.97228,0 13.58714,-5.51315 14.86224,-12.36331 l 9.20668,-47.48023 c 1.38363,-7.36561 -3.30549,-13.28395 -10.52193,-13.28395 h -21.1754 z m 60.10656,0 -26.30484,133.62859 h 37.87898 l 2.63048,-16.57198 h -18.67644 l 7.6284,-45.11282 h 18.676444 l 2.63048,-13.94159 h -18.676434 l 8.28603,-41.43012 h 18.676434 l 2.63048,-16.57208 z m 45.244334,0 -25.252644,133.62859 h 16.835094 l 11.4426,-60.5011 h 11.96871 c 1.57349,1.46497 1.75582,4.1675 1.97285,5.52397 0.31202,1.96685 0.63878,4.47784 0.39457,6.44468 -0.21699,1.95339 -9.2067,48.53245 -9.2067,48.53245 h 16.83511 c 0,0 9.46973,-50.7436 9.46973,-51.55751 0.0275,-0.82746 0.002,-3.42847 -0.92062,-4.86631 -0.61048,-0.92279 -1.6727,-3.04108 -2.89353,-3.8143 -2.34674,-1.50565 -4.99793,-2.4989 -4.99793,-2.4989 h -1.18371 c 4.81547,-1.89904 13.89913,-5.02709 14.86224,-10.12739 l 9.20669,-47.48023 c 1.39718,-7.36561 -3.3055,-13.28395 -10.52194,-13.28395 z m 90.09402,0 -25.38413,133.62859 H 8.4754944 l 15.6513796,-77.46775 6.18161,77.46775 h 16.83506 l 25.38419,-133.62859 h -19.33407 l -13.15235,69.83936 -8.68061,-69.83936 z m 66.814276,0 -25.384086,133.62859 h 16.83507 L 98.17499,118.30175 Z m 25.64726,0 -25.38418,133.62859 h 19.46555 l 15.65146,-77.46775 6.18161,77.46775 h 16.83506 l 25.38418,-133.62859 h -19.46555 l -13.02087,69.83936 -8.68061,-69.83936 z m 65.23602,0 -3.15665,16.57208 h 10.52196 l -20.78085,117.05651 h 19.20258 l 21.17542,-117.05651 h 10.12729 l 2.63049,-16.57208 z m 46.29652,0 -26.30491,133.62859 h 37.87899 l 2.63049,-16.57198 h -18.67641 l 7.75988,-45.11282 h 18.67642 l 2.63049,-13.94159 h -18.67642 l 8.15455,-41.43012 h 18.67642 l 2.63049,-16.57208 z m 42.74531,0 -25.38419,133.62859 h 19.46565 l 15.65136,-77.46775 6.18161,77.46775 h 16.83506 l 25.38419,-133.62859 h -19.46556 l -13.02086,69.83936 -8.68061,-69.83936 z m 66.94578,0 -25.38419,133.62859 h 38.40515 c 6.97222,0 13.70505,-5.47237 14.99371,-12.36332 L 376.61167,131.5857 c 1.3835,-7.36561 -3.30553,-13.28395 -10.52196,-13.28395 z m 72.20686,0 c -7.21643,0 -14.09971,5.9319 -15.38838,13.28395 l -18.808,107.98132 c -1.22085,6.89095 3.34101,12.36332 10.25888,12.36332 h 27.7517 c 6.95866,0 13.70505,-5.47237 14.99371,-12.36332 L 439.61177,131.5857 c 1.39715,-7.35205 -3.3191,-13.28395 -10.52197,-13.28395 z m -57.8707,15.38838 h 7.75998 c 4.96469,0 8.35139,3.9789 7.49681,8.94359 l -16.57199,87.46365 c -0.86775,4.96469 -5.68886,9.07518 -10.65345,9.07518 h -7.6284 z m 67.73502,0 h 0.52576 c 4.96469,0 8.21981,3.9789 7.36532,8.94359 l -15.78285,87.46365 c -0.85498,4.95113 -5.42569,9.07518 -10.39047,9.07518 -4.96449,0 -7.0362,-4.11049 -6.18161,-9.07518 l 15.65145,-87.46365 0.13169,-0.39408 0.13169,-0.39506 0.13168,-0.52576 0.13169,-0.39506 0.13169,-0.52577 0.13168,-0.39407 0.13169,-0.39506 0.26337,-0.39408 0.13169,-0.39506 0.26337,-0.39506 0.13169,-0.39408 0.26337,-0.39506 0.26338,-0.26337 0.26337,-0.39506 0.26337,-0.39408 0.39408,-0.26337 0.26337,-0.26338 0.26338,-0.26337 0.39506,-0.26337 0.39506,-0.26338 0.26337,-0.26337 0.39408,-0.26337 0.39506,-0.13169 0.39506,-0.26337 0.26337,-0.13169 0.52577,-0.13169 0.39407,-0.13168 h 0.39506 l 0.39506,-0.13169 h 0.52577 z m -575.02378,0.52576 h 8.15451 c 1.79056,0 5.58653,4.10096 5.26097,5.91863 l -6.97079,33.01258 c -0.32558,1.70918 -2.63114,5.65555 -4.34029,5.65555 h -9.86432 -0.13149 -0.13149 l -0.13149,-0.13169 h -0.13149 -0.13149 -0.13149 -0.13149 v -0.13168 h -0.13149 -0.13149 l -0.13149,-0.13169 h -0.13149 l -0.13149,-0.13169 -0.13149,-0.13168 h -0.13149 v -0.13169 l -0.13149,-0.13169 -0.13149,-0.13168 v -0.13169 l -0.13149,-0.13169 -0.13149,-0.13168 v -0.13169 -0.13169 l -0.13149,-0.13168 v -0.13169 -0.13169 l -0.13149,-0.13168 v -0.13169 c -2e-5,-0.21718 -0.0275,-0.54542 0,-0.78914 l 7.89144,-40.37789 c 0.71897,-0.59652 1.60369,-1.05222 2.49896,-1.05222 z m 104.824794,0 h 0.13149 0.13149 0.13149 0.13149 7.6284 c 1.79054,0 5.61366,4.10096 5.26096,5.91863 l -6.97077,32.88099 c -0.31192,1.72274 -4.59046,5.78714 -6.31316,5.78714 h -7.23383 c -1.49211,0 -2.52196,-0.98391 -2.63048,-2.36751 0,-0.21718 -0.0275,-0.53166 0,-0.78914 l 7.75993,-40.37789 0.13149,-0.13169 0.13149,-0.13169 0.26308,-0.13168 h 0.13149 l 0.13149,-0.13169 0.13149,-0.13169 h 0.13149 l 0.13149,-0.13168 h 0.13158 l 0.26308,-0.13169 h 0.13149 0.13149 0.13149 z"
       style="font-style:normal;font-variant:normal;font-weight:normal;font-stretch:normal;letter-spacing:normal;word-spacing:normal;text-anchor:start;fill:#e4000f;fill-opacity:1;fill-rule:nonzero;stroke:#fc0c18;stroke-width:0;stroke-linecap:butt;stroke-linejoin:miter;stroke-miterlimit:10.433;stroke-dasharray:none;stroke-dashoffset:0;stroke-opacity:1"
       id="polyline2177"
       sodipodi:nodetypes="cccccccccccccccccccccccccccccccccccccccccccccccsccccssccccccsccccccccssccccsscccccccsccscccccccccccccccccccccccccccccccscccccccccccccccccccccccccccccccccccccccccccccccccccccccccccccccsccscsccssccsscsccscccsccsccccccccccccccccccccccccccccccccccsccsccccccccccccccccccccccccccccscccccccccsccssccccccccccccccccc" />
    <g
       id="g1409"
       transform="matrix(0.2356877,0,0,0.23553141,401.73159,174.46138)"
       style="stroke-width:1.62367">
      <path
         id="MSU-1"
         fill="none"
         stroke="black"
         stroke-width="1.62367"
         d="m 148,296 c 0,0 228,-228 228,-228 0,0 28,0 28,0 0,0 0,156 0,156 0,0 156,-156 156,-156 0,0 28,0 28,0 0,0 0,228 0,228 0,0 -40,0 -40,0 0,0 0,-160 0,-160 0,0 -160,160 -160,160 0,0 -28,0 -28,0 0,0 0,-160 0,-160 0,0 -160,160 -160,160 0,0 -52,0 -52,0 z M 1132,68 c 0,0 -24,0 -24,0 0,0 -64,64 -64,64 0,0 0,24 0,24 0,0 48,0 48,0 0,0 0,140 0,140 0,0 40,0 40,0 0,0 0,-228 0,-228 z m -328,0 c 0,0 -148,0 -148,0 -25,0 -44,31 -44,56 0,0 0,24 0,24 0,25 19,56 44,56 0,0 84,0 84,0 20,0 24,14 24,24 0,10 -4,24 -24,24 0,0 -128,0 -128,0 0,0 0,44 0,44 0,0 148,0 148,0 25,0 44,-31 44,-56 0,0 0,-24 0,-24 0,-25 -19,-56 -44,-56 0,0 -84,0 -84,0 -20,0 -24,-14 -24,-24 0,-10 4,-24 24,-24 0,0 128,0 128,0 0,0 0,-44 0,-44 z m 64,155 c 0,25 15,33 30,33 0,0 52,0 52,0 15,0 30,-8 30,-33 0,0 0,-155 0,-155 0,0 44,0 44,0 0,0 0,172 0,172 0,30 -13,56 -48,56 0,0 -104,0 -104,0 -35,0 -48,-26 -48,-56 0,0 0,-172 0,-172 0,0 44,0 44,0 0,0 0,155 0,155 z m 266,93 c 0,0 0,28 0,28 0,0 -994,0 -994,0 0,0 0,-28 0,-28 0,0 994,0 994,0 z M 827,421 c 0,10 -8,19 -18,19 0,0 -19,0 -19,0 -10,0 -18,-9 -18,-19 0,0 0,-39 0,-39 0,-10 8,-19 18,-19 0,0 19,0 19,0 10,0 18,9 18,19 0,0 -0.17,7.88 0,10 0,0 -22,0 -22,0 0,-10 0,-13 -4.5,-13 -4.5,0 -4.5,3 -4.5,13 0,0 0,18 0,18 0,10 0,13 4.53,13 4.47,0 4.47,-3 4.47,-13 0,0 22,0 22,0 0,4.31 0,11 0,11 z M 173,363 c 0,0 9.48,39 9.48,39 0,0 9.52,-39 9.52,-39 0,0 30,0 30,0 0,0 0,76 0,76 0,0 -22,0 -22,0 0,0 0,-46 0,-46 0,0 -13,46 -13,46 0,0 -9,0 -9,0 0,0 -13,-46 -13,-46 0,0 0,46 0,46 0,0 -22,0 -22,0 0,0 0,-76 0,-76 0,0 30,0 30,0 z m 101,0 c 0,0 0,17 0,17 0,0 -21,0 -21,0 0,0 0,12 0,12 0,0 18,0 18,0 0,0 0,17 0,17 0,0 -18,0 -18,0 0,0 0,13 0,13 0,0 21,0 21,0 0,0 0,17 0,17 0,0 -45,0 -45,0 0,0 0,-76 0,-76 0,0 45,0 45,0 z m 6,76 c 0,0 0,-76 0,-76 5.01,0 29,0 29,0 26,0 26,18 26,18 0,0 0,40 0,40 0,0 0,18 -20,18 0,0 -35,0 -35,0 z m 86,-76 c 0,0 0,76 0,76 0,0 -24,0 -24,0 0,0 0,-76 0,-76 0,0 24,0 24,0 z m 20,0 c 0,0 33,0 33,0 0,0 15,76 15,76 0,0 -24,0 -24,0 0,0 -2,-14 -2,-14 0,0 -11,0 -11,0 0,0 -2,14 -2,14 0,0 -24,0 -24,0 0,0 15,-76 15,-76 z m 99,46 c 0,0 0,13 0,13 0,0 21,0 21,0 0,0 0,17 0,17 0,0 -45,0 -45,0 0,0 0,-76 0,-76 0,0 45,0 45,0 0,0 0,17 0,17 0,0 -21,0 -21,0 0,0 0,12 0,12 0,0 18,0 18,0 0,0 0,17 0,17 0,0 -18,0 -18,0 z m 50,-46 c 0,0 13,38 13,38 0,0 0,-38 0,-38 0,0 22,0 22,0 0,0 0,76 0,76 0,0 -22,0 -22,0 0,0 -15,-41 -15,-41 0,0 0,41 0,41 0,0 -22,0 -22,0 0,0 0,-76 0,-76 0,0 24,0 24,0 z m 66,76 c 0,0 -24,0 -24,0 0,0 0,-76 0,-76 0,0 24,0 24,0 0,0 0,29 0,29 0,0 10,0 10,0 0,0 0,-29 0,-29 0,0 24,0 24,0 0,0 0,76 0,76 0,0 -24,0 -24,0 0,0 0,-30 0,-30 0,0 -10,0 -10,0 0,0 0,30 0,30 z m 54,-76 c 0,0 33,0 33,0 0,0 15,76 15,76 0,0 -24,0 -24,0 0,0 -2,-14 -2,-14 0,0 -11,0 -11,0 0,0 -2,14 -2,14 0,0 -24,0 -24,0 0,0 15,-76 15,-76 z m 74,35 c 0,0 0,41 0,41 0,0 -22,0 -22,0 0,0 0,-76 0,-76 0,0 24,0 24,0 0,0 13,38 13,38 0,0 0,-38 0,-38 0,0 22,0 22,0 0,0 0,76 0,76 0,0 -22,0 -22,0 0,0 -15,-41 -15,-41 z m 128,11 c 0,0 0,13 0,13 0,0 21,0 21,0 0,0 0,17 0,17 0,0 -45,0 -45,0 0,0 0,-76 0,-76 0,0 45,0 45,0 0,0 0,17 0,17 0,0 -21,0 -21,0 0,0 0,12 0,12 0,0 18,0 18,0 0,0 0,17 0,17 0,0 -18,0 -18,0 z m 55,-46 c 0,0 10.53,39 10.53,39 0,0 10.47,-39 10.47,-39 0,0 29,0 29,0 0,0 0,76 0,76 0,0 -22,0 -22,0 0,0 0,-46 0,-46 0,0 -13,46 -13,46 0,0 -9,0 -9,0 0,0 -13,-45 -13,-45 0,0 0,45 0,45 0,0 -22,0 -22,0 0,0 0,-76 0,-76 0,0 29,0 29,0 z m 102,0 c 0,0 0,17 0,17 0,0 -21,0 -21,0 0,0 0,12 0,12 0,0 18,0 18,0 0,0 0,17 0,17 0,0 -18,0 -18,0 0,0 0,13 0,13 0,0 21,0 21,0 0,0 0,17 0,17 0,0 -45,0 -45,0 0,0 0,-76 0,-76 0,0 45,0 45,0 z m 29,0 c 0,0 13,38 13,38 0,0 0,-38 0,-38 0,0 22,0 22,0 0,0 0,76 0,76 0,0 -22,0 -22,0 0,0 -15,-41 -15,-41 0,0 0,41 0,41 0,0 -22,0 -22,0 0,0 0,-76 0,-76 0,0 24,0 24,0 z m 90,0 c 0,0 0,17 0,17 0,0 -13,0 -13,0 0,0 0,59 0,59 0,0 -24,0 -24,0 0,0 0,-59 0,-59 0,0 -13,0 -13,0 0,0 0,-17 0,-17 0,0 50,0 50,0 z m -820,29 c 0.04,-10.02 -2,-12 -10,-12 0,0 0,42 0,42 8,0 10,-2 10,-12 0,0 0,-18 0,-18 z m 86,16 c 0,0 7,0 7,0 0,0 -3.53,-29 -3.53,-29 0,0 -3.47,29 -3.47,29 z m 269,0 c 0,0 7,0 7,0 0,0 -3.49,-29 -3.49,-29 0,0 -3.51,29 -3.51,29 z"
         style="fill:#ffffff;stroke:#ffffff" />
      <path
         style="fill:#e4000f;stroke:#ff0000;stroke-width:2.61954;stroke-opacity:1;fill-opacity:1"
         d="M 140,330 V 316 H 636.99999 1134 v 14 14 H 636.99999 140 Z"
         id="path827"
         inkscape:connector-curvature="0" />
    </g>
  </g>
</svg>
