<?xml version="1.0" encoding="UTF-8" standalone="no"?>
<!-- Created with Inkscape (http://www.inkscape.org/) -->

<svg
   version="1.1"
   id="svg1406"
   width="456.63205"
   height="159.70381"
   viewBox="0 0 319.64243 111.79267"
   sodipodi:docname="supracan.svg"
   inkscape:version="1.1.2 (0a00cf5339, 2022-02-04)"
   xmlns:inkscape="http://www.inkscape.org/namespaces/inkscape"
   xmlns:sodipodi="http://sodipodi.sourceforge.net/DTD/sodipodi-0.dtd"
   xmlns="http://www.w3.org/2000/svg"
   xmlns:svg="http://www.w3.org/2000/svg">
  <defs
     id="defs1410" />
  <sodipodi:namedview
     id="namedview1408"
     pagecolor="#ffffff"
     bordercolor="#111111"
     borderopacity="1"
     inkscape:pageshadow="0"
     inkscape:pageopacity="0"
     inkscape:pagecheckerboard="1"
     showgrid="false"
     inkscape:zoom="16"
     inkscape:cx="339.9375"
     inkscape:cy="82.40625"
     inkscape:window-width="1366"
     inkscape:window-height="703"
     inkscape:window-x="0"
     inkscape:window-y="0"
     inkscape:window-maximized="1"
     inkscape:current-layer="g1412"
     showguides="false"
     inkscape:guide-bbox="true"
     fit-margin-top="0"
     fit-margin-left="0"
     fit-margin-right="0"
     fit-margin-bottom="0">
    <sodipodi:guide
       position="-0.089244719,36.856961"
       orientation="0,-1"
       id="guide839" />
    <sodipodi:guide
       position="155.62757,72.472965"
       orientation="0,-1"
       id="guide2018" />
  </sodipodi:namedview>
  <g
     inkscape:groupmode="layer"
     inkscape:label="SuperAcan"
     id="g1412"
     transform="translate(-0.29748239,-1.0002925)">
    <text
       xml:space="preserve"
       style="font-weight:bold;font-size:1.4px;line-height:1.25;font-family:TrasksHand;-inkscape-font-specification:'TrasksHand Bold';text-decoration-color:#000000;fill:#ef00eb;stroke:none;stroke-width:1.75;-inkscape-stroke:none;stop-color:#000000"
       x="233.58781"
       y="57.449738"
       id="text73495"
       inkscape:label="Signature"><tspan
         sodipodi:role="line"
         id="tspan73493"
         style="font-size:1.4px;fill:#ffffff;fill-opacity:0.5;stroke:none;stroke-width:1.75"
         x="233.58781"
         y="57.449738">John Loreth 2022</tspan></text>
    <path
       style="display:inline;fill:#000000;fill-opacity:1;stroke-width:0.32"
       d="m 194.40988,112.31211 c -13.14412,-2.04592 -21.34682,-10.61202 -21.27444,-22.264546 -0.11129,-5.715471 2.43507,-10.94155 6.09526,-15.04909 7.28734,-8.084893 17.77452,-14.098108 27.35089,-13.972442 6.83101,-0.139753 13.38243,0.880414 19.43337,3.113057 0.90261,0.271205 1.01732,0.297032 1.1898,-0.381412 0.14595,-1.017652 0.39504,-1.808527 0.6752,-2.81735 7.01271,0.148989 14.12286,-1e-6 21.09663,-1e-6 -4.06113,15.519617 -6.10824,21.88979 -10.04762,37.457214 -0.33004,1.77049 1.27535,1.478482 2.34055,1.238542 0.38815,-0.167 0.41495,0.1491 0.31847,0.317593 -0.88106,3.258015 -1.64337,5.857175 -2.61707,9.247905 -8.17494,4.87192 -16.46282,3.24336 -20.4095,-2.84619 -7.92119,6.12883 -15.71156,7.2565 -24.15156,5.95672 z m 23.95745,-16.670082 c 1.68703,-6.66062 3.86918,-13.248991 5.248,-19.96847 -8.91636,-6.078483 -22.85938,1.921523 -24.66906,11.343223 -1.19342,5.16901 -0.40463,10.522879 5.26657,11.754878 4.6735,0.694313 9.65731,0.144057 14.15449,-3.129631 z M 14.192295,98.293241 C 32.221822,72.90029 50.836056,57.222476 68.489883,52.561177 c 8.657153,-2.224687 18.653431,-1.784091 24.795949,3.023235 3.811606,2.870259 6.20568,6.777488 7.731888,12.618781 3.51774,13.381994 -0.79029,29.646725 -4.785712,43.617147 h -6.225299 c -5.805725,0 -6.209341,-0.0377 -5.988512,-0.56 0.710774,-1.68099 2.82806,-8.73679 3.802944,-12.673218 4.054982,-16.373363 2.291152,-25.011664 -5.091258,-24.934249 -6.62344,0.06946 -15.126045,7.593606 -24.326931,21.527459 -3.389409,5.437428 -6.754795,10.888048 -9.566394,16.640008 H 5.4273653 C 8.1532414,107.18833 11.1099,102.65728 14.192295,98.293241 Z m 96.352565,-0.710499 c -2.55814,-5.199405 -2.70025,-11.611143 -0.38441,-17.344576 4.33011,-10.720279 19.56652,-19.106698 34.64943,-19.071725 8.30609,-0.354995 21.46721,4.469124 30.08,10.946281 -1.5581,1.572389 -3.1162,3.144784 -4.67429,4.717178 -5.2463,-1.008217 -10.87458,-2.224501 -16.10281,-1.547821 -10.45578,1.554024 -22.68125,8.703236 -14.0909,19.825539 5.36295,7.324042 19.99352,2.468635 27.66207,0.142298 0.70939,2.877044 1.43215,5.810714 1.87722,8.705934 -7.88054,3.56083 -16.08671,7.0181 -25.82141,7.77708 -13.76012,0.91124 -28.12646,-4.32351 -33.1949,-14.150188 z M 258.57519,61.015869 c 7.49841,-0.137518 13.2729,0.0032 21.28225,-0.06962 -0.37587,1.329682 -0.64762,2.439348 -0.87068,3.771226 5.75607,-1.4401 13.65909,-2.497555 18.13309,-2.185413 8.19484,-0.15929 17.5183,2.330357 20.76469,9.998629 1.04634,2.200051 1.76877,3.967677 1.98367,6.369663 0.73551,12.34522 -4.27174,23.318856 -11.10748,32.919986 h -18.2038 c 3.35761,-6.03749 6.60325,-12.491256 8.5163,-18.745793 1.42933,-6.192083 2.78019,-15.749908 -3.60005,-18.579277 -6.33565,-2.304649 -14.16786,-0.03818 -20.01111,2.678101 -3.51751,12.434517 -6.60261,23.620079 -9.60563,34.646969 H 244.7405 c 4.62919,-17.699828 9.17429,-32.887934 13.83469,-50.804471 z M 59.634609,98.888982 c 4.010319,-3.839552 24.566172,-3.306495 25.175274,0.46852 -1.494598,3.876688 -25.950139,3.984208 -25.175274,-0.46852 z M 100.97147,53.231336 c 3.22024,-1.778459 8.07498,-2.412779 11.99841,-1.446956 4.09914,1.079897 7.07954,2.501372 10.90894,6.945783 -5.35332,2.431615 -10.53847,5.84588 -14.15622,10.635882 -1.26243,-5.982445 -2.37896,-8.680493 -4.1466,-10.894791 -1.20853,-1.513905 -2.2715,-3.174664 -4.60453,-5.239918 z"
       id="path22892"
       sodipodi:nodetypes="ccccccccccccccccccccccccccssscccccsccccccccccccccccccccccccccccccsc"
       inkscape:label="Acan Shadow" />
    <path
       style="display:inline;fill:#f1001d;fill-opacity:1;stroke-width:0.32"
       d="m 189.28,108.97177 c -13.14412,-2.04592 -21.34682,-10.612017 -21.27444,-22.264538 -0.11129,-5.715471 2.43507,-10.94155 6.09526,-15.04909 7.28734,-8.084893 17.77452,-14.098108 27.35089,-13.972442 6.83101,-0.139753 13.38243,0.880414 19.43337,3.113057 0.90261,0.271205 1.01732,0.297032 1.1898,-0.381412 0.14595,-1.017652 0.39504,-1.808527 0.6752,-2.81735 7.01271,0.148989 14.12286,-10e-7 21.09663,-10e-7 -4.06113,15.519617 -6.10824,21.88979 -10.04762,37.457214 -0.33004,1.770478 1.27535,1.478478 2.34055,1.238539 0.38815,-0.167001 0.41495,0.149107 0.31847,0.31759 -0.88106,3.258016 -1.64337,5.857173 -2.61707,9.247903 -8.17494,4.87192 -16.46282,3.24336 -20.4095,-2.84619 -7.92119,6.12883 -15.71156,7.2565 -24.15156,5.95672 z m 23.95745,-16.670074 c 1.68703,-6.66062 3.86918,-13.248991 5.248,-19.96847 -8.91636,-6.078483 -22.85938,1.921523 -24.66906,11.343223 -1.19342,5.16901 -0.40463,10.522879 5.26657,11.754878 4.6735,0.694317 9.65731,0.144057 14.15449,-3.129631 z M 9.0624115,94.952909 C 27.091939,69.559958 45.706173,53.882144 63.36,49.220845 c 8.657153,-2.224687 18.653431,-1.784091 24.795949,3.023235 3.811606,2.870259 6.20568,6.777488 7.731891,12.618781 3.517743,13.381994 -0.790292,29.646725 -4.785715,43.617139 h -6.225299 c -5.805725,0 -6.209341,-0.0377 -5.988512,-0.56 0.710774,-1.68099 2.82806,-8.736794 3.802944,-12.67321 C 86.74624,78.873427 84.98241,70.235126 77.6,70.312541 70.97656,70.381997 62.473955,77.906147 53.273069,91.84 49.88366,97.277424 46.518274,102.72804 43.706675,108.48 H 0.29748239 C 3.0233585,103.84799 5.9800169,99.316942 9.0624115,94.952909 Z M 105.41498,94.24241 c -2.55814,-5.199405 -2.70025,-11.611143 -0.38441,-17.344576 4.33011,-10.720279 19.56652,-19.106698 34.64943,-19.071725 8.30609,-0.354995 21.46721,4.469124 30.08,10.946281 -1.5581,1.572389 -3.1162,3.144784 -4.67429,4.717178 -5.2463,-1.008217 -10.87458,-2.224501 -16.10281,-1.547821 -10.45578,1.554024 -22.68125,8.703236 -14.0909,19.825539 5.36295,7.324035 19.99352,2.468635 27.66207,0.142298 0.70939,2.877044 1.43215,5.810708 1.87722,8.705926 -7.88054,3.56083 -16.08671,7.0181 -25.82141,7.77708 -13.76012,0.91124 -28.12646,-4.32351 -33.1949,-14.15018 z M 253.44531,57.675537 c 7.49841,-0.137518 13.2729,0.0032 21.28225,-0.06962 -0.37587,1.329682 -0.64762,2.439348 -0.87068,3.771226 5.75607,-1.4401 13.65909,-2.497555 18.13309,-2.185413 8.19484,-0.15929 17.5183,2.330357 20.76469,9.998629 1.04634,2.200051 1.76877,3.967677 1.98367,6.369663 0.73551,12.34522 -4.27174,23.318849 -11.10748,32.919978 h -18.2038 c 3.35761,-6.03749 6.60325,-12.491248 8.5163,-18.745785 1.42933,-6.192083 2.78019,-15.749908 -3.60005,-18.579277 -6.33565,-2.304649 -14.16786,-0.03818 -20.01111,2.678101 -3.51751,12.434517 -6.60261,23.620076 -9.60563,34.646961 h -21.11594 c 4.62919,-17.69982 9.17429,-32.887926 13.83469,-50.804463 z M 54.504726,95.54865 C 58.515045,91.709098 79.070898,92.242155 79.68,96.017168 78.185402,99.89385 53.729861,100.00137 54.504726,95.54865 Z M 95.841583,49.891004 c 3.220242,-1.778459 8.074987,-2.412779 11.998417,-1.446956 4.09914,1.079897 7.07954,2.501372 10.90894,6.945783 -5.35332,2.431615 -10.53847,5.84588 -14.15622,10.635882 -1.26243,-5.982445 -2.37896,-8.680493 -4.1466,-10.894791 -1.208526,-1.513905 -2.271501,-3.174664 -4.604537,-5.239918 z"
       id="path1442"
       sodipodi:nodetypes="ccccccccccccccccccccccccccssscccccsccccccccccccccccccccccccccccccsc"
       inkscape:label="Acan" />
    <path
       style="display:inline;fill:#f1001d;fill-opacity:1;stroke:#ffe600;stroke-width:1.25;stroke-miterlimit:4;stroke-dasharray:none;stroke-opacity:1"
       d="M 171.10208,51.513814 167.64416,46.4 l 1.53792,-0.0022 c 3.88001,-0.0057 10.23655,-2.335795 12.93747,-4.742534 2.42977,-2.165124 3.28523,-5.023917 1.88306,-6.292855 -0.70824,-0.640953 -4.01645,-1.064675 -8.64261,-1.106966 -9.42986,-0.0862 -13.48579,-4.317847 -11.66983,-12.175405 0.6635,-2.870932 3.55923,-8.554869 6.09722,-11.968035 2.7977,-3.7624399 7.85579,-8.99953 8.15657,-8.445226 0.33511,0.6175534 3.49604,9.538824 3.49604,9.867044 0,0.155925 -1.18799,1.044611 -2.63998,1.974859 -4.88645,3.1306 -9.01877,7.01461 -10.04466,9.44108 -0.53253,1.259551 -0.56057,2.985349 -0.0661,4.070499 0.7426,1.629831 2.50581,2.099268 8.95777,2.384919 6.71264,0.297192 8.37619,0.768889 10.327,2.928198 1.32013,1.461228 1.64224,3.08358 1.35754,6.837433 -0.38661,5.097555 -1.66524,8.267876 -5.42607,12.026155 -2.16925,2.167776 -3.5088,3.023087 -5.6774,4.093983 -1.50257,0.742 -3.10467,1.474574 -3.3621,1.471172 -0.25743,-0.0034 -1.86201,-2.435668 -3.76387,-5.248267 z m 127.18252,-3.567228 -3.32245,-0.926624 c 1.38849,-3.868782 1.22755,-7.766199 -1.87223,-10.980374 -5.32503,0.911939 -9.84978,-1.107094 -14.03888,-3.712026 -0.68822,4.016238 -0.94157,7.594879 -1.75922,11.801975 -1.58893,-0.145006 -2.98119,-0.429578 -4.66086,-0.697946 -0.0899,-10.441378 0.26215,-21.091185 0.34009,-31.512328 2.77656,0.221904 5.55928,0.838431 8.29946,1.355043 -0.0119,0.751367 0.11295,1.741261 0.11295,1.741261 4.3649,-1.736661 8.04865,-2.310547 12.5187,-1.154224 5.84543,1.782853 9.71655,6.348248 9.26454,11.394989 -0.33655,4.517784 -2.31785,6.262533 -5.16426,8.869312 l 1.03954,1.717294 c 2.95724,4.547786 2.88571,8.381164 2.84388,13.218893 -1.26385,-0.349557 -2.57795,-0.790427 -3.60126,-1.115245 z m -2.75711,-18.03636 c 2.1465,-1.106096 3.03251,-2.443325 3.03251,-4.576872 0,-1.866338 -0.74476,-3.329503 -2.46589,-4.844497 -2.09678,-1.84566 -3.96543,-2.361175 -7.8972,-2.178638 -2.6367,0.122412 -3.65227,0.324224 -5.47691,1.088365 l -2.24,0.938087 -0.42901,3.294414 c -0.49726,3.818495 -0.48764,3.841215 2.25846,5.335826 2.98959,1.62714 4.89659,2.083375 8.29229,1.983858 2.68872,-0.0788 3.3169,-0.211498 4.92575,-1.040543 z M 203.52,47.328656 c -3.73148,-0.728736 -7.92407,-3.990771 -9.10382,-7.08321 -0.2865,-0.750995 -1.79002,-5.940054 -3.34116,-11.531243 l -2.80107,-10.168544 c 1.88633,-0.40046 3.86682,-0.954937 5.46894,-1.203593 0.0397,0.05386 1.04574,4.561934 2.23576,10.017934 1.49154,6.8384 2.40056,10.332 2.92624,11.246272 2.54417,4.424918 8.1299,5.590349 12.13871,2.532675 1.57805,-1.203635 2.3964,-2.965129 2.3964,-5.15824 -1.34035,-6.551985 -3.06752,-12.726531 -4.73849,-18.212712 1.72504,-0.80001 3.04692,-1.18662 5.0415,-1.686424 0.12035,0.131807 1.17219,4.286429 2.28303,9.038429 1.5877,6.791952 2.181,9.171343 2.18246,11.183772 0.003,4.743078 -1.94039,8.018798 -5.48747,9.753972 -3.07884,1.506112 -5.95937,1.90399 -9.20105,1.270912 z m 15.95695,-2.885482 0.22382,-15.101586 c 0.1231,-8.305873 -0.14046,-15.444246 -0.0814,-15.511952 2.8214,0.495039 5.10997,0.855951 8.07636,1.297653 0,0.594474 -0.17578,1.171126 -0.17578,1.7656 l 1.91951,-0.597418 c 3.05798,-0.951748 6.47324,-1.269148 8.79847,-1.053613 2.22402,0.206154 6.45331,2.18606 6.95403,3.084933 1.30297,4.701388 1.86799,8.136786 3.05976,13.177061 -1.61871,2.969462 -4.58515,5.254974 -7.54551,5.941831 -5.49146,1.879133 -9.37178,0.192109 -15.26195,-3.283893 -0.68072,3.524755 -0.94553,6.808544 -1.45368,10.579529 -1.59827,-0.05659 -2.98326,-0.178281 -4.51368,-0.298145 z M 241.12,32.185286 c 5.38936,-2.264047 5.02482,-8.300383 -0.6706,-11.104227 -1.93635,-0.953264 -2.51242,-0.757443 -4.89946,-1.047356 -3.40936,0.15876 -6.08291,0.896251 -8.86645,2.316303 -0.25731,2.193078 -0.51461,4.386155 -0.77192,6.579233 2.01645,1.609679 4.46708,2.962981 6.83575,3.595849 2.15267,0.548544 6.69708,0.364112 8.37268,-0.339802 z m 3.91945,-19.872265 c 0.32911,-0.308044 17.735,-8.0926568 17.84869,-7.9789675 0.33057,0.3305673 2.26504,7.6698615 2.05704,7.8552375 -4.66982,1.373341 -8.50766,2.134334 -13.39981,3.573541 -0.23844,0.147366 1.38992,7.639021 1.73375,7.982843 3.41649,-1.216169 6.36977,-2.403432 9.91576,-3.568591 0,0 1.44621,3.809199 1.62297,4.261712 -3.53765,1.710721 -6.84318,2.587034 -10.39509,4.473114 0.4906,2.701554 1.14608,4.593568 1.82899,7.410051 5.18065,-2.321499 10.31338,-4.745602 15.44951,-7.16318 -0.0553,2.263871 -0.0768,4.483021 -0.049,6.725926 -6.36446,2.505371 -12.90923,5.202149 -19.27876,7.688723 -2.25454,-10.170875 -5.92766,-20.776886 -7.334,-31.260409 z"
       id="path22719"
       sodipodi:nodetypes="ccssssssssscsssssssccccccccccsccccccsssscssssssscccsssccccsssssscccssccccccsscccccscscccccccccccc"
       inkscape:label="Super" />
  </g>
</svg>
