<svg height="162.40361" viewBox="0 0 1065.7224 243.60542" width="710.48163" xmlns="http://www.w3.org/2000/svg" xmlns:xlink="http://www.w3.org/1999/xlink"><mask id="a" maskUnits="userSpaceOnUse"><path d="m92.94074 34.08154h165.13373v151.5883h-165.13373z" fill="#fff"/><path d="m167.02016 130.90612 42.03257-58.927496-28.89853 58.927496z" opacity=".98" stroke-linecap="round" stroke-linejoin="round" stroke-width="10"/></mask><mask id="b" maskUnits="userSpaceOnUse"><path d="m578.35844 66.40585h158.38467v147.74264h-158.38467z" fill="#fff"/><path d="m658.97475 157.84353s-3.32191 5.627-12.32939 3.38925c19.74369-35.49365 30.47379-53.87158 38.74932-67.327326 3.62367-3.504829 9.84734.399326 7.20044 5.705886-10.04553 20.0514-21.99872 39.05034-33.62037 58.23219z" opacity=".98" stroke-linecap="round" stroke-linejoin="round" stroke-width="10"/></mask><mask id="c" maskUnits="userSpaceOnUse"><path d="m342.40711 30.565292h149.47484v158.729968h-149.47484z" fill="#fff"/><path d="m384.28487 156.57904 54.8813-94.773776c2.78437-6.457978 16.21047-7.111481 9.14642 3.811019l-53.54057 92.734997c-2.03736 4.40087-13.55163 5.02342-10.48715-1.77224z" opacity=".98" stroke-linecap="round" stroke-linejoin="round" stroke-width="10"/></mask><g fill="#fff" fill-opacity=".5" stroke-width="3.75"><path d="m671.94453 40.181962q0 .36-.087.606-.129.366-.414.366-.189 0-.396-.087-.249-.105-.273-.258.084 0 .198.03.264.069.33.069.255 0 .384-.255.102-.204.102-.489 0-.201-.132-.573-.129-.375-.129-.522 0-.045.024-.072.027-.03.072-.03.117 0 .228.54.093.456.093.675z"/><path d="m673.09953 40.487962q0 .306-.177.48-.177.174-.489.174-.171 0-.264-.081-.093-.081-.093-.249 0-.237.309-.477.294-.228.543-.228.114 0 .15.141.021.081.021.24zm-.183.084q0-.036-.009-.069-.006-.036-.024-.081-.048.033-.159.162-.057.066-.099.096 0-.057.012-.093.024-.051.039-.087-.132 0-.276.111-.141.111-.141.24 0 .087.096.087.183 0 .354-.09.207-.108.207-.276z"/><path d="m674.33553 40.610962q0 .147-.111.33-.126.207-.261.207-.039 0-.066-.042-.024-.045-.024-.087 0-.054.114-.168.117-.117.117-.159 0-.027-.009-.054-.009-.027-.012-.036-.225.051-.459.258-.231.207-.351.234-.024-.066-.024-.135 0-.084.039-.177.027-.066.09-.159.105-.159.222-.36.06-.105.207-.363.15-.258.219-.366.036-.054.063-.081.039-.036.093-.048.036.012.051.045.018.033.018.078 0 .102-.132.276-.24.312-.246.324-.135.204-.135.369l.006.03q.165-.081.195-.093.123-.051.21-.051.096 0 .141.066.045.063.045.162z"/><path d="m675.72753 40.433962q0 .204-.099.435-.108.255-.267.351-.033-.039-.057-.087-.021-.048-.021-.096 0-.051.15-.303.066-.111.06-.195l-.003-.039q-.111.033-.384.201-.27.165-.546.336-.042 0-.078-.03-.033-.033-.033-.072 0-.063.201-.423.06-.108.216-.375.048.063.063.141.015.075.015.18 0 .045 0 .069.276-.165.432-.249.171-.093.234-.093.042 0 .078.096.039.096.039.153z"/><path d="m678.33453 41.015962q0 .054-.048.084-.045.027-.102.027-.051 0-.129-.012-.177-.027-.228-.027-.09 0-.354.021-.15.012-.216.012-.183 0-.183-.183 0-.174.114-.498.063-.183.237-.6.156-.375.198-.528.015-.048.024-.063.024-.036.06-.036.057 0 .096.084.039.081.039.147 0 .105-.123.354-.123.246-.24.483-.129.282-.129.429 0 .075.063.105.045.021.132.021.066 0 .228-.015.162-.018.216-.018.135 0 .222.039.123.054.123.174z"/><path d="m679.45053 40.487962q0 .306-.177.48-.177.174-.489.174-.171 0-.264-.081-.093-.081-.093-.249 0-.237.309-.477.294-.228.543-.228.114 0 .15.141.021.081.021.24zm-.183.084q0-.036-.009-.069-.006-.036-.024-.081-.048.033-.159.162-.057.066-.099.096 0-.057.012-.093.024-.051.039-.087-.132 0-.276.111-.141.111-.141.24 0 .087.096.087.183 0 .354-.09.207-.108.207-.276z"/><path d="m680.71353 40.424962q0 .096-.051.204-.048.108-.123.18l-.003-.042q0-.036.009-.111.009-.075.009-.111 0-.051-.015-.075-.015-.027-.063-.027-.141 0-.351.219-.228.24-.453.477-.018 0-.036-.003-.045-.012-.06-.015.009-.108.075-.24.177-.357.183-.381.024-.096.036-.141.012-.045.033-.093.024-.051.054-.09.033-.042.084-.063l.03.36q.129-.105.198-.162.132-.105.228-.105.096 0 .156.063.06.063.06.156z"/><path d="m682.18653 40.076962q0 .126-.336.333-.324.198-.471.198-.069 0-.093-.048-.021-.048-.021-.135 0-.057 0-.081.201 0 .366-.06.165-.06.288-.198-.09-.033-.183-.033-.219 0-.465.168-.27.183-.27.39 0 .198.27.276.042.012.507.084.273.042.273.147 0 .045-.099.072-.099.03-.252.03-.384 0-.606-.117-.294-.156-.294-.501 0-.36.36-.573.306-.18.696-.18.117 0 .213.054.117.066.117.174z"/><path d="m683.38053 39.539962q0 .066-.159.276-.159.21-.159.321 0 .057.066.114.15.132.15.162 0 .039-.027.075-.024.036-.063.036-.033 0-.093-.036-.042-.024-.162-.117-.045.087-.069.132-.084.159-.114.231-.045.138-.09.276-.078.186-.195.186l-.003-.069q0-.213.138-.504.027-.054.15-.279-.237-.129-.522-.129 0-.111.045-.162.048-.054.159-.054.102 0 .255.036.075.018.15.036.057-.018.156-.195.243-.426.33-.489.024.039.039.078.018.039.018.075z"/><path d="m684.48754 40.610962q0 .147-.111.33-.126.207-.261.207-.039 0-.066-.042-.024-.045-.024-.087 0-.054.114-.168.117-.117.117-.159 0-.027-.009-.054-.009-.027-.012-.036-.225.051-.459.258-.231.207-.351.234-.024-.066-.024-.135 0-.084.039-.177.027-.066.09-.159.105-.159.222-.36.06-.105.207-.363.15-.258.219-.366.036-.054.063-.081.039-.036.093-.048.036.012.051.045.018.033.018.078 0 .102-.132.276-.24.312-.246.324-.135.204-.135.369l.006.03q.165-.081.195-.093.123-.051.21-.051.096 0 .141.066.045.063.045.162z"/><path d="m686.95054 39.632962q0 .141-.15.378-.096.15-.315.432-.219.279-.273.366.009.003.225.072.219.066.219.24-.09.015-.177.027l-.033-.003v-.024q-.048-.012-.078-.012-.057 0-.18.018-.123.018-.186.018-.081 0-.132-.03-.051-.03-.051-.108 0-.063.231-.357.432-.549.435-.555.234-.318.234-.426 0-.042-.03-.063-.027-.021-.111-.021-.057 0-.237.111-.087.054-.141.054l-.051-.009q-.018-.012-.039-.045-.021-.036-.021-.057 0-.126.243-.231.207-.09.36-.09.129 0 .198.096.06.084.06.219z"/><path d="m688.75354 40.172962q0 .363-.393.642-.36.255-.741.255-.189 0-.3-.096-.111-.096-.111-.279 0-.408.357-.708.339-.285.759-.285.213 0 .321.126.108.126.108.345zm-.183.069q0-.138-.156-.207-.117-.051-.279-.051-.237 0-.495.231-.258.231-.258.465 0 .096.048.138.051.039.153.039.294 0 .612-.162.375-.192.375-.453z"/><path d="m690.12754 39.632962q0 .141-.15.378-.096.15-.315.432-.219.279-.273.366.009.003.225.072.219.066.219.24-.09.015-.177.027l-.033-.003v-.024q-.048-.012-.078-.012-.057 0-.18.018-.123.018-.186.018-.081 0-.132-.03-.051-.03-.051-.108 0-.063.231-.357.432-.549.435-.555.234-.318.234-.426 0-.042-.03-.063-.027-.021-.111-.021-.057 0-.237.111-.087.054-.141.054l-.051-.009q-.018-.012-.039-.045-.021-.036-.021-.057 0-.126.243-.231.207-.09.36-.09.129 0 .198.096.06.084.06.219z"/><path d="m691.50754 39.632962q0 .141-.15.378-.096.15-.315.432-.219.279-.273.366.009.003.225.072.219.066.219.24-.09.015-.177.027l-.033-.003v-.024q-.048-.012-.078-.012-.057 0-.18.018-.123.018-.186.018-.081 0-.132-.03-.051-.03-.051-.108 0-.063.231-.357.432-.549.435-.555.234-.318.234-.426 0-.042-.03-.063-.027-.021-.111-.021-.057 0-.237.111-.087.054-.141.054l-.051-.009q-.018-.012-.039-.045-.021-.036-.021-.057 0-.126.243-.231.207-.09.36-.09.129 0 .198.096.06.084.06.219z"/></g><path d="m854.57018 2.8729457c-6.95879-1.1055035-9.08339 4.4196978-8.56549 9.0101673l1.61792 79.903035-1.25781 1.078125c.61211-3.673213.93766-7.53724.71484-11.806641-7.932-47.617324-63.03252-43.650932-94.36589-24.472656-15.68767-15.222543-33.2183-15.518998-52.20953-11.810775-22.08026-.917994-46.22741-.243046-68.52223-.20485 7.07877-15.922784 24.03989-31.033223 8.01397-33.010631l-128.46103-.146211c-6.43746.367176-5.75924 3.749039-9.84801 8.551903-20.64728-19.01925185-56.19557-10.486513-65.3429-8.682736-100.92551.928009-232.48085-1.061118-336.16472-.245068-6.852102.101566-8.738515.317763-16.183641 12.544462l-33.724901 59.658348c-5.580814 10.476679 6.727697 8.668968 17.387461 9.663591-18.874982 32.563601-49.818114 88.728721-64.0943007 111.449371-1.4062071 2.37022-1.8922764 7.28834 7.1529347 7.3605 43.835682.34971 243.456937.0686 301.417377.26223 5.23602.13876 5.19718-.36305 8.76026-5.57551l6.32968-11.08416c1.56682 2.27536 3.27869 4.42014 5.28321 6.24024 7.62697 8.23904 26.13671 13.7323 43.15295 13.18756 18.26311-.58466 34.32008-5.73381 40.5743-10.45027 4.80384-3.62269-4.5188 6.25626 8.95079 8.45378 3.35324.54707 29.66331.87043 36.69849-.78895-.56843 3.11276-.82971 7.10038 2.36826 9.04142 10.62763 6.45052 22.80787 13.44803 37.03898 17.08845 12.72392 3.25488 26.27755 2.91241 33.15481 2.51072 15.71509.0891 31.18963-1.08282 45.68447-.16966l42.43085.18652c9.23691-.00049 9.87396.23173 14.49257-7.76758l12.0297-20.97558c18.39242-1.36128 29.48379-5.08223 42.91821-14.21309 12.13242 14.1758 27.23368 17.44774 54.52496 13.24039 32.95556-.94382 48.53044-.42932 81.77761-.10972 6.01878.34673 12.02293-8.51661 21.66215-16.00947 1.11894 9.38043-.94148 15.54767 7.25637 15.65297l79.85995.1722c6.16701.0744 7.55876-1.12426 7.31661-7.21822l-2.06904-87.43007c37.54822-32.010894 81.54533-72.124873 118.25243-103.389151 1.4807-.905213 5.8701-8.3990465-3.0371-9.537327-12.1928.7231081-100.57666-.1925747-106.07526.3267895l-12.1189 11.1928545c-3.3644-7.7740672 1.8606-10.8523499-9.37876-11.1476282z" style="opacity:.98;stroke:#fff;stroke-width:5.5;stroke-linecap:round;stroke-linejoin:round;stroke-opacity:.970748"/><g fill="#fff" transform="translate(.77105 1.426773)"><path d="m917.90707 183.45738h-41.93498l-1.59586-45.69938-53.31838 45.69938h-43.09723l95.16317-81.5647-2.60281-74.53458h41.93498l1.45403 41.63787 46.17478-41.63787h43.09723l-88.08946 75.5018z" fill="#2a7fbd" opacity=".98"/><path d="m616.89803 213.14849h-37.53959l83.22649-144.15252h30.08352c1.61634-.181933 1.78524.813784.50603 2.987708l9.44865-2.987708c11.65874-2.371842 19.01323-1.852645 24.38246 0 8.35449 2.848484 11.24367 10.13195 6.35715 23.725228-8.98628 23.325712-23.08996 44.142682-36.86181 65.122332-10.8162 11.93308-29.88489 32.78203-62.37752 25.46972z" mask="url(#b)" opacity=".98"/><path d="m656.50579 68.99597-66.78434 115.67387c-13.27566 15.7291-29.96992 27.34989-54.63445 29.39232-21.52799.88506-34.25061-1.8218-41.3605-6.81822l13.00299-21.22782c19.1499 6.61441 29.26458 6.07477 37.68782 4.19586 5.69622-2.36458 9.52855-6.35002 12.57456-11.01924l-21.2848.34094-11.34716-31.35566 45.60866-79.18205h37.82414l-45.01389 77.96635 3.7109 9.13252c1.8056-.74332 2.87301-1.95671 3.9072-3.19125l48.44409-83.90762z" opacity=".98"/><path d="m456.65914 185.36518h39.05967l69.09029-119.667903h23.34621l18.60997-30.615737-87.35075.695337-17.27455 29.9204h23.60945z" opacity=".98"/><path d="m474.77716 32.766089c29.6892 5.810128 11.33284 35.319714.23283 54.371562l-35.81399 61.470469c-29.53371 52.60914-110.10035 50.05172-93.57879 9.16372 19.19501-35.81128 50.12035-94.658797 65.97456-107.16203 6.22083-4.905978 31.87968-23.970193 63.1854-17.843716z" mask="url(#c)" opacity=".98"/><path d="m262.85962 184.66984h39.05967l69.09029-119.6679h23.34621l18.26185-29.9204h-87.00263l-17.27455 29.9204h23.60945z" opacity=".98"/><path d="m197.12748 184.66984 86.52762-149.5883h38.95475l-86.61264 149.5883z" opacity=".98"/><path d="m135.18946 184.66984h-41.24872l106.7003-149.5883h56.43343l-64.11362 149.5883h-40.79427l13.9649-26.82631-14.04859-.00001z" mask="url(#a)" opacity=".98"/><path d="m42.859618 184.66984h39.059673l69.090289-119.6679h23.34621l21.34201-29.9204h-90.08279l-17.274549 29.9204h23.609449z" opacity=".98"/><path d="m704.5472-380.76435c6.24372 25.66132-4.80683 49.33246-23.63839 65.04111-26.43965 22.05506-43.97338-16.76557-44.90742-70.08853-.74577-42.57443 19.77351-72.28848 41.6252-74.33916 14.01978-1.31569 21.86204 28.33874 25.18661 57.05278.89374 7.71922.0865 15.56267 1.734 22.3338z" opacity=".98" transform="matrix(.77493676 .63203878 -.63203878 .77493676 0 0)"/><path d="m769.97452 108.71191 10.19199-.0908 6.68122-11.887997c1.43668-5.985938-5.29825-5.978582-7.93042-.853262zm31.87167 23.03928h-45.24184l-11.68243 22.10994c-2.73675 5.29302 3.97467 10.50911 8.03571 3.17407l3.82119-6.97114 32.37704.16881" fill="#000" opacity=".98"/></g></svg>