<?xml version="1.0" encoding="UTF-8" standalone="no"?>
<!-- Created with Inkscape (http://www.inkscape.org/) -->

<svg
   version="1.1"
   id="svg2"
   xml:space="preserve"
   width="371.71216"
   height="156.804"
   viewBox="0 0 817.76675 344.9688"
   sodipodi:docname="triforce.svg"
   inkscape:version="1.1.2 (0a00cf5339, 2022-02-04)"
   xmlns:inkscape="http://www.inkscape.org/namespaces/inkscape"
   xmlns:sodipodi="http://sodipodi.sourceforge.net/DTD/sodipodi-0.dtd"
   xmlns="http://www.w3.org/2000/svg"
   xmlns:svg="http://www.w3.org/2000/svg"><defs
     id="defs6" /><sodipodi:namedview
     id="namedview4"
     pagecolor="#ffffff"
     bordercolor="#111111"
     borderopacity="1"
     inkscape:pageshadow="0"
     inkscape:pageopacity="0"
     inkscape:pagecheckerboard="1"
     showgrid="false"
     scale-x="2.2"
     fit-margin-top="0"
     fit-margin-left="0"
     fit-margin-right="0"
     fit-margin-bottom="0"
     inkscape:zoom="1.5572893"
     inkscape:cx="146.08718"
     inkscape:cy="39.812769"
     inkscape:window-width="1366"
     inkscape:window-height="708"
     inkscape:window-x="0"
     inkscape:window-y="0"
     inkscape:window-maximized="1"
     inkscape:current-layer="g8" /><g
     id="g8"
     inkscape:groupmode="layer"
     inkscape:label="Triforce"
     transform="matrix(1.3333333,0,0,-1.3333333,-139.35826,567.53439)"><g
       id="g213"
       inkscape:label="Triangle"
       style="display:inline;fill:#6b4386;fill-opacity:1"><path
         d="m 414.8081,397.7188 c 2.206,-3.814 42.042,-72.814 42.042,-72.814 h 16.127 l -58.169,100.746 -58.157,-100.746 h 16.129 c 0,0 39.622,68.62 42.028,72.814"
         style="fill:#6b4386;fill-opacity:1;fill-rule:nonzero;stroke:none"
         id="path20" /><path
         d="m 537.4287,213.2832 h -16.142 c 0,0 17.014,-29.465 18.709,-32.399 h -250.363 c 2.144,3.713 18.696,32.399 18.696,32.399 h -16.116 l -26.772,-46.359 h 298.748 z"
         style="fill:#6b4386;fill-opacity:1;fill-rule:nonzero;stroke:none"
         id="path24" /></g><g
       id="g207"
       inkscape:label="Triforce"
       style="fill:#6b4386;fill-opacity:1"><path
         d="m 448.7227,300.5313 c 0,-0.835 0.063,-35.729 0.063,-36.545 h -41.792 c 0,0.816 -0.063,35.71 -0.063,36.545 z m 2.492,16.365 h -46.776 c -8.912,0 -19.058,-9.086 -19.058,-17.051 v -35.69 c 0,-7.971 10.146,-17.058 19.058,-17.058 h 46.776 c 8.9,0 19.045,9.087 19.045,17.058 v 35.69 c 0,7.965 -10.145,17.051 -19.045,17.051"
         style="fill:#6b4386;fill-opacity:1;fill-rule:nonzero;stroke:none"
         id="path28" /><path
         d="m 623.0186,317.1206 h -41.917 c -8.699,0 -18.608,-8.974 -18.608,-16.833 v -36.114 c 0,-7.858 9.909,-16.826 18.608,-16.826 h 41.917 c 8.7,0 18.621,8.968 18.621,16.826 v 11.33 l -19.817,0.025 v -11.71 h -38.664 v 36.825 h 38.664 v -10.364 l 19.817,0.031 v 9.977 c 0,7.859 -9.921,16.833 -18.621,16.833"
         style="fill:#6b4386;fill-opacity:1;fill-rule:nonzero;stroke:none"
         id="path32" /><path
         d="m 248.377,272.3691 h 3.029 c 8.737,0 17.001,7.472 17.001,15.38 v 14.003 c 0,7.909 -8.264,15.381 -17.001,15.381 l -59.316,0.012 v -69.81 h 20.366 v 54.48 h 33.254 c 2.692,0 3.64,-2.063 3.64,-3.833 v -6.949 c 0,-2.156 -1.297,-3.352 -3.64,-3.352 h -24.031 l 0.386,-14.838 30.674,-25.477 h 26.699 c 0,0 -26.96,21.7 -31.061,25.003"
         style="fill:#6b4386;fill-opacity:1;fill-rule:nonzero;stroke:none"
         id="path36" /><path
         d="m 533.752,272.1387 h 3.053 c 8.725,0 16.988,7.466 16.988,15.374 v 14.003 c 0,7.909 -8.263,15.381 -16.988,15.381 l -59.316,0.012 v -69.811 h 20.354 v 54.487 h 33.254 c 2.692,0 3.639,-2.07 3.639,-3.839 v -6.949 c 0,-2.156 -1.297,-3.346 -3.639,-3.346 h -24.031 l 0.387,-14.845 30.661,-25.477 h 26.71 c 0,0 -26.959,21.7 -31.072,25.01"
         style="fill:#6b4386;fill-opacity:1;fill-rule:nonzero;stroke:none"
         id="path40" /><path
         d="m 186.6807,317.1206 h -82.162 v -16.091 h 30.324 v -53.57 h 21.513 v 53.57 h 30.325 z"
         style="fill:#6b4386;fill-opacity:1;fill-rule:nonzero;stroke:none"
         id="path44" /><path
         d="M 302.583,317.089 H 281.02 v -69.723 h 21.563 z"
         style="fill:#6b4386;fill-opacity:1;fill-rule:nonzero;stroke:none"
         id="path46" /><path
         d="m 379.8965,301.0298 v 16.091 h -65.498 v -69.78 h 21.575 v 27.234 h 37.591 v 16.073 h -37.591 v 10.382 z"
         style="fill:#6b4386;fill-opacity:1;fill-rule:nonzero;stroke:none"
         id="path50" /><path
         d="m 717.8438,263.4385 h -47.612 v 11.137 h 33.204 v 16.072 h -33.204 v 10.382 h 46.852 v 16.091 h -68.876 v -69.791 l 69.636,0.018 z"
         style="fill:#6b4386;fill-opacity:1;fill-rule:nonzero;stroke:none"
         id="path54" /></g><g
       id="g190"
       inkscape:label="Nintendo"
       style="fill:#6b4386;fill-opacity:1"><path
         d="m 491.5234,220.9736 -9.298,12.906 -1.184,-0.529 -0.025,-12.377 h -4.425 v 17.568 h 6.93 l 7.292,-10.264 1.209,0.405 0.037,9.859 h 4.438 v -17.568 z"
         style="fill:#6b4386;fill-opacity:1;fill-rule:nonzero;stroke:none"
         id="path66" /><path
         d="m 543.3359,220.9736 -9.298,12.906 -1.196,-0.529 -0.013,-12.377 h -4.412 v 17.568 h 6.93 l 7.279,-10.264 1.209,0.405 0.037,9.859 h 4.438 v -17.568 z"
         style="fill:#6b4386;fill-opacity:1;fill-rule:nonzero;stroke:none"
         id="path70" /><path
         d="m 633.4004,220.9736 -9.298,12.906 -1.183,-0.529 -0.026,-12.377 h -4.425 v 17.568 h 6.943 l 7.279,-10.264 1.222,0.405 0.024,9.859 h 4.45 v -17.568 z"
         style="fill:#6b4386;fill-opacity:1;fill-rule:nonzero;stroke:none"
         id="path74" /><path
         d="m 510.282,238.542 h 4.923 v -17.568 h -4.923 z"
         style="display:inline;fill:#6b4386;fill-opacity:1;fill-rule:nonzero;stroke:none"
         id="path76" /><path
         d="m 571.8906,234.9395 v -13.966 h -5.146 v 13.966 h -7.043 v 3.603 h 18.945 v -3.603 z"
         style="fill:#6b4386;fill-opacity:1;fill-rule:nonzero;stroke:none"
         id="path80" /><path
         d="m 594.9248,234.9395 v -3.583 h 12.04 v -3.122 h -12.04 v -3.658 h 12.015 v -3.603 h -16.889 v 17.569 h 16.977 v -3.603 z"
         style="fill:#6b4386;fill-opacity:1;fill-rule:nonzero;stroke:none"
         id="path84" /><path
         d="m 670.8174,225.3857 v 8.918 c 0,2.829 -1.707,4.238 -4.437,4.238 h -15.804 v -17.568 h 15.654 c 3.079,0 4.587,1.384 4.587,4.412 m -5.011,-0.81 h -10.494 v 10.363 h 10.494 z"
         style="fill:#6b4386;fill-opacity:1;fill-rule:nonzero;stroke:none"
         id="path88" /><path
         d="m 701.7031,225.2305 v 9.049 c 0,3.097 -1.296,4.263 -4.35,4.263 h -10.594 c -3.017,0 -4.388,-1.209 -4.388,-4.263 v -9.049 c 0,-2.973 1.434,-4.257 4.388,-4.257 h 10.594 c 2.979,0 4.35,1.259 4.35,4.257 m -4.749,-0.654 h -9.771 v 10.363 h 9.771 z"
         style="fill:#6b4386;fill-opacity:1;fill-rule:nonzero;stroke:none"
         id="path92" /></g><g
       id="g173"
       inkscape:label="Sega"
       style="display:inline;fill:#6b4386;fill-opacity:1"><path
         d="m 331.5366,220.5439 h -15.592 v 3.808 h 14.832 v 3.763 h -10.308 c -2.78,0 -4.388,0.693 -4.388,2.998 v 4.954 c 0,2.039 1.297,2.936 5.597,2.936 h 12.277 v -3.783 h -13.237 v -3.808 h 10.732 c 2.954,0 3.914,-1.227 3.914,-3.209 v -5.036 c 0,-1.508 -1.098,-2.623 -3.827,-2.623"
         style="fill:#6b4386;fill-opacity:1;fill-rule:nonzero;stroke:none"
         id="path96" /><path
         d="m 396.7104,220.5186 h -11.205 c -2.966,0 -4.4,1.378 -4.4,4.5 v 9.522 c 0,3.272 1.272,4.462 4.562,4.462 h 15.181 v -3.783 h -14.957 v -10.887 h 10.507 v 3.44 h -7.216 v 3.297 h 11.89 v -6.051 c 0,-3.122 -1.433,-4.5 -4.362,-4.5"
         style="fill:#6b4386;fill-opacity:1;fill-rule:nonzero;stroke:none"
         id="path100" /><path
         d="m 433.8906,220.5439 v 15.312 c 0,1.913 -1.222,3.147 -3.901,3.147 h -11.854 c -2.68,0 -3.938,-1.234 -3.938,-3.147 v -15.312 h 4.761 v 7.26 h 10.183 v -7.26 z m -4.749,10.625 h -10.183 v 4.051 h 10.183 z"
         style="fill:#6b4386;fill-opacity:1;fill-rule:nonzero;stroke:none"
         id="path104" /><path
         d="m 368.2178,235.2139 v 3.776 h -15.168 c -3.304,0 -4.575,-1.183 -4.575,-4.474 v -9.51 c 0,-3.122 1.446,-4.506 4.4,-4.506 h 15.28 l 0.038,3.82 h -14.919 v 3.795 h 10.781 v 3.297 h -10.781 v 3.802 z"
         style="fill:#6b4386;fill-opacity:1;fill-rule:nonzero;stroke:none"
         id="path108" /></g><g
       id="g163"
       inkscape:label="Dots"
       style="display:inline;fill:#6b4386;fill-opacity:1"><path
         d="m 294.7803,229.748 c 0,-1.694 -1.371,-3.072 -3.079,-3.072 -1.694,0 -3.078,1.378 -3.078,3.072 0,1.708 1.384,3.085 3.078,3.085 1.708,0 3.079,-1.377 3.079,-3.085"
         style="fill:#6b4386;fill-opacity:1;fill-rule:nonzero;stroke:none"
         id="path112" /><path
         d="m 457.7344,229.748 c 0,-1.694 -1.384,-3.072 -3.079,-3.072 -1.695,0 -3.079,1.378 -3.079,3.072 0,1.708 1.384,3.085 3.079,3.085 1.695,0 3.079,-1.377 3.079,-3.085"
         style="fill:#6b4386;fill-opacity:1;fill-rule:nonzero;stroke:none"
         id="path116" /></g><g
       id="g157"
       inkscape:label="Namco"
       style="display:inline;fill:#6b4386;fill-opacity:1"><path
         d="m 136.3633,220.8555 -9.298,13.105 -1.196,-0.542 -0.013,-12.563 h -4.425 v 17.836 h 6.931 l 7.291,-10.414 1.209,0.405 0.037,10.009 h 4.45 v -17.836 z"
         style="fill:#6b4386;fill-opacity:1;fill-rule:nonzero;stroke:none"
         id="path120" /><path
         d="m 268.0703,225.1182 v 9.049 c 0,3.097 -1.296,4.263 -4.362,4.263 h -10.595 c -3.004,0 -4.387,-1.216 -4.387,-4.263 v -9.049 c 0,-2.973 1.433,-4.263 4.387,-4.263 h 10.595 c 2.978,0 4.362,1.265 4.362,4.263 m -4.762,-0.661 h -9.771 v 10.364 h 9.771 z"
         style="fill:#6b4386;fill-opacity:1;fill-rule:nonzero;stroke:none"
         id="path124" /><path
         d="m 224.3838,220.8555 c -3.141,0 -4.998,1.483 -4.998,4.499 v 8.726 c 0,2.841 2.057,4.611 5.186,4.611 h 13.411 v -3.658 h -13.786 v -10.52 h 13.786 v -3.658 z"
         style="fill:#6b4386;fill-opacity:1;fill-rule:nonzero;stroke:none"
         id="path128" /><path
         d="m 204.8032,220.8555 v 9.067 l -0.013,4.606 h -1.757 l -4.076,-13.673 h -4.536 l -4.101,13.673 h -1.72 l 0.012,-13.673 h -4.624 v 17.836 h 8.488 l 3.366,-12.602 h 1.707 l 3.39,12.602 h 8.45 v -17.836 z"
         style="fill:#6b4386;fill-opacity:1;fill-rule:nonzero;stroke:none"
         id="path132" /><path
         d="m 172.6338,220.8555 v 14.795 c 0,1.845 -1.234,3.041 -3.914,3.041 h -11.841 c -2.68,0 -3.951,-1.196 -3.951,-3.041 v -14.795 h 4.762 v 7.018 h 10.183 v -7.018 z m -4.362,10.264 h -10.196 v 3.914 h 10.196 z"
         style="fill:#6b4386;fill-opacity:1;fill-rule:nonzero;stroke:none"
         id="path136" /></g></g></svg>
