<?xml version="1.0" encoding="UTF-8" standalone="no"?>
<!-- Created with Inkscape (http://www.inkscape.org/) -->

<svg
   version="1.1"
   id="svg2"
   xml:space="preserve"
   width="371.71216"
   height="156.804"
   viewBox="0 0 817.76675 344.9688"
   sodipodi:docname="triforce.svg"
   inkscape:version="1.1.2 (0a00cf5339, 2022-02-04)"
   xmlns:inkscape="http://www.inkscape.org/namespaces/inkscape"
   xmlns:sodipodi="http://sodipodi.sourceforge.net/DTD/sodipodi-0.dtd"
   xmlns="http://www.w3.org/2000/svg"
   xmlns:svg="http://www.w3.org/2000/svg"><defs
     id="defs6"><clipPath
       clipPathUnits="userSpaceOnUse"
       id="clipPath16"><path
         d="M 0,595.276 H 841.89 V 0 H 0 Z"
         id="path14" /></clipPath></defs><sodipodi:namedview
     id="namedview4"
     pagecolor="#ffffff"
     bordercolor="#111111"
     borderopacity="1"
     inkscape:pageshadow="0"
     inkscape:pageopacity="0"
     inkscape:pagecheckerboard="1"
     showgrid="false"
     scale-x="2.2"
     fit-margin-top="0"
     fit-margin-left="0"
     fit-margin-right="0"
     fit-margin-bottom="0"
     inkscape:zoom="2.2023397"
     inkscape:cx="351.44442"
     inkscape:cy="148.25143"
     inkscape:window-width="1366"
     inkscape:window-height="703"
     inkscape:window-x="0"
     inkscape:window-y="0"
     inkscape:window-maximized="1"
     inkscape:current-layer="g8" /><g
     id="g8"
     inkscape:groupmode="layer"
     inkscape:label="Triforce-logo"
     transform="matrix(1.3333333,0,0,-1.3333333,-139.35826,567.53439)"><g
       id="g10"
       style="fill:#6b4386;fill-opacity:1"><g
         id="g12"
         clip-path="url(#clipPath16)"
         style="fill:#6b4386;fill-opacity:1"><g
           id="g18"
           transform="translate(414.8081,397.7188)"
           style="fill:#6b4386;fill-opacity:1"><path
             d="M 0,0 C 2.206,-3.814 42.042,-72.814 42.042,-72.814 H 58.169 L 0,27.932 -58.157,-72.814 h 16.129 c 0,0 39.622,68.62 42.028,72.814"
             style="fill:#6b4386;fill-opacity:1;fill-rule:nonzero;stroke:none"
             id="path20" /></g><g
           id="g22"
           transform="translate(537.4287,213.2832)"
           style="fill:#6b4386;fill-opacity:1"><path
             d="m 0,0 h -16.142 c 0,0 17.014,-29.465 18.709,-32.399 H -247.796 C -245.652,-28.686 -229.1,0 -229.1,0 h -16.116 l -26.772,-46.359 H 26.76 Z"
             style="fill:#6b4386;fill-opacity:1;fill-rule:nonzero;stroke:none"
             id="path24" /></g><g
           id="g26"
           transform="translate(448.7227,300.5313)"
           style="fill:#6b4386;fill-opacity:1"><path
             d="m 0,0 c 0,-0.835 0.063,-35.729 0.063,-36.545 h -41.792 c 0,0.816 -0.063,35.71 -0.063,36.545 z m 2.492,16.365 h -46.776 c -8.912,0 -19.058,-9.086 -19.058,-17.051 v -35.69 c 0,-7.971 10.146,-17.058 19.058,-17.058 H 2.492 c 8.9,0 19.045,9.087 19.045,17.058 v 35.69 c 0,7.965 -10.145,17.051 -19.045,17.051"
             style="fill:#6b4386;fill-opacity:1;fill-rule:nonzero;stroke:none"
             id="path28" /></g><g
           id="g30"
           transform="translate(623.0186,317.1206)"
           style="fill:#6b4386;fill-opacity:1"><path
             d="m 0,0 h -41.917 c -8.699,0 -18.608,-8.974 -18.608,-16.833 v -36.114 c 0,-7.858 9.909,-16.826 18.608,-16.826 H 0 c 8.7,0 18.621,8.968 18.621,16.826 v 11.33 l -19.817,0.025 v -11.71 H -39.86 v 36.825 h 38.664 v -10.364 l 19.817,0.031 v 9.977 C 18.621,-8.974 8.7,0 0,0"
             style="fill:#6b4386;fill-opacity:1;fill-rule:nonzero;stroke:none"
             id="path32" /></g><g
           id="g34"
           transform="translate(248.377,272.3691)"
           style="fill:#6b4386;fill-opacity:1"><path
             d="M 0,0 H 3.029 C 11.766,0 20.03,7.472 20.03,15.38 v 14.003 c 0,7.909 -8.264,15.381 -17.001,15.381 l -59.316,0.012 v -69.81 h 20.366 v 54.48 h 33.254 c 2.692,0 3.64,-2.063 3.64,-3.833 v -6.949 c 0,-2.156 -1.297,-3.352 -3.64,-3.352 H -26.698 L -26.312,0.474 4.362,-25.003 h 26.699 c 0,0 -26.96,21.7 -31.061,25.003"
             style="fill:#6b4386;fill-opacity:1;fill-rule:nonzero;stroke:none"
             id="path36" /></g><g
           id="g38"
           transform="translate(533.752,272.1387)"
           style="fill:#6b4386;fill-opacity:1"><path
             d="m 0,0 h 3.053 c 8.725,0 16.988,7.466 16.988,15.374 v 14.003 c 0,7.909 -8.263,15.381 -16.988,15.381 l -59.316,0.012 v -69.811 h 20.354 v 54.487 h 33.254 c 2.692,0 3.639,-2.07 3.639,-3.839 v -6.949 c 0,-2.156 -1.297,-3.346 -3.639,-3.346 H -26.686 L -26.299,0.467 4.362,-25.01 h 26.71 C 31.072,-25.01 4.113,-3.31 0,0"
             style="fill:#6b4386;fill-opacity:1;fill-rule:nonzero;stroke:none"
             id="path40" /></g><g
           id="g42"
           transform="translate(186.6807,317.1206)"
           style="fill:#6b4386;fill-opacity:1"><path
             d="m 0,0 h -82.162 v -16.091 h 30.324 v -53.57 h 21.513 v 53.57 H 0 Z"
             style="fill:#6b4386;fill-opacity:1;fill-rule:nonzero;stroke:none"
             id="path44" /></g><path
           d="M 302.583,317.089 H 281.02 v -69.723 h 21.563 z"
           style="fill:#6b4386;fill-opacity:1;fill-rule:nonzero;stroke:none"
           id="path46" /><g
           id="g48"
           transform="translate(379.8965,301.0298)"
           style="fill:#6b4386;fill-opacity:1"><path
             d="m 0,0 v 16.091 h -65.498 v -69.78 h 21.575 v 27.234 h 37.591 v 16.073 H -43.923 V 0 Z"
             style="fill:#6b4386;fill-opacity:1;fill-rule:nonzero;stroke:none"
             id="path50" /></g><g
           id="g52"
           transform="translate(717.8438,263.4385)"
           style="fill:#6b4386;fill-opacity:1"><path
             d="m 0,0 h -47.612 v 11.137 h 33.204 V 27.209 H -47.612 V 37.591 H -0.76 V 53.682 H -69.636 V -16.109 L 0,-16.091 Z"
             style="fill:#6b4386;fill-opacity:1;fill-rule:nonzero;stroke:none"
             id="path54" /></g><g
           id="g64"
           transform="translate(491.5234,220.9736)"
           style="fill:#6b4386;fill-opacity:1"><path
             d="M 0,0 -9.298,12.906 -10.482,12.377 -10.507,0 h -4.425 v 17.568 h 6.93 L -0.71,7.304 0.499,7.709 0.536,17.568 H 4.974 V 0 Z"
             style="fill:#6b4386;fill-opacity:1;fill-rule:nonzero;stroke:none"
             id="path66" /></g><g
           id="g68"
           transform="translate(543.3359,220.9736)"
           style="fill:#6b4386;fill-opacity:1"><path
             d="M 0,0 -9.298,12.906 -10.494,12.377 -10.507,0 h -4.412 v 17.568 h 6.93 L -0.71,7.304 0.499,7.709 0.536,17.568 H 4.974 V 0 Z"
             style="fill:#6b4386;fill-opacity:1;fill-rule:nonzero;stroke:none"
             id="path70" /></g><g
           id="g72"
           transform="translate(633.4004,220.9736)"
           style="fill:#6b4386;fill-opacity:1"><path
             d="M 0,0 -9.298,12.906 -10.481,12.377 -10.507,0 h -4.425 v 17.568 h 6.943 L -0.71,7.304 0.512,7.709 0.536,17.568 h 4.45 L 4.986,0 Z"
             style="fill:#6b4386;fill-opacity:1;fill-rule:nonzero;stroke:none"
             id="path74" /></g><path
           d="m 510.282,238.542 h 4.923 v -17.568 h -4.923 z"
           style="fill:#6b4386;fill-opacity:1;fill-rule:nonzero;stroke:none"
           id="path76" /><g
           id="g78"
           transform="translate(571.8906,234.9395)"
           style="fill:#6b4386;fill-opacity:1"><path
             d="M 0,0 V -13.966 H -5.146 V 0 h -7.043 V 3.603 H 6.756 V 0 Z"
             style="fill:#6b4386;fill-opacity:1;fill-rule:nonzero;stroke:none"
             id="path80" /></g><g
           id="g82"
           transform="translate(594.9248,234.9395)"
           style="fill:#6b4386;fill-opacity:1"><path
             d="M 0,0 V -3.583 H 12.04 V -6.705 H 0 v -3.658 h 12.015 v -3.603 H -4.874 V 3.603 H 12.103 V 0 Z"
             style="fill:#6b4386;fill-opacity:1;fill-rule:nonzero;stroke:none"
             id="path84" /></g><g
           id="g86"
           transform="translate(670.8174,225.3857)"
           style="fill:#6b4386;fill-opacity:1"><path
             d="m 0,0 v 8.918 c 0,2.829 -1.707,4.238 -4.437,4.238 H -20.241 V -4.412 H -4.587 C -1.508,-4.412 0,-3.028 0,0 M -5.011,-0.81 H -15.505 V 9.553 h 10.494 z"
             style="fill:#6b4386;fill-opacity:1;fill-rule:nonzero;stroke:none"
             id="path88" /></g><g
           id="g90"
           transform="translate(701.7031,225.2305)"
           style="fill:#6b4386;fill-opacity:1"><path
             d="m 0,0 v 9.049 c 0,3.097 -1.296,4.263 -4.35,4.263 h -10.594 c -3.017,0 -4.388,-1.209 -4.388,-4.263 V 0 c 0,-2.973 1.434,-4.257 4.388,-4.257 H -4.35 C -1.371,-4.257 0,-2.998 0,0 M -4.749,-0.654 H -14.52 V 9.709 h 9.771 z"
             style="fill:#6b4386;fill-opacity:1;fill-rule:nonzero;stroke:none"
             id="path92" /></g><g
           id="g94"
           transform="translate(331.5366,220.5439)"
           style="fill:#6b4386;fill-opacity:1"><path
             d="M 0,0 H -15.592 V 3.808 H -0.76 v 3.763 h -10.308 c -2.78,0 -4.388,0.693 -4.388,2.998 v 4.954 c 0,2.039 1.297,2.936 5.597,2.936 H 2.418 v -3.783 h -13.237 v -3.808 h 10.732 c 2.954,0 3.914,-1.227 3.914,-3.209 V 2.623 C 3.827,1.115 2.729,0 0,0"
             style="fill:#6b4386;fill-opacity:1;fill-rule:nonzero;stroke:none"
             id="path96" /></g><g
           id="g98"
           transform="translate(396.7104,220.5186)"
           style="fill:#6b4386;fill-opacity:1"><path
             d="m 0,0 h -11.205 c -2.966,0 -4.4,1.378 -4.4,4.5 v 9.522 c 0,3.272 1.272,4.462 4.562,4.462 H 4.138 V 14.701 H -10.819 V 3.814 h 10.507 v 3.44 h -7.216 v 3.297 H 4.362 V 4.5 C 4.362,1.378 2.929,0 0,0"
             style="fill:#6b4386;fill-opacity:1;fill-rule:nonzero;stroke:none"
             id="path100" /></g><g
           id="g102"
           transform="translate(433.8906,220.5439)"
           style="fill:#6b4386;fill-opacity:1"><path
             d="m 0,0 v 15.312 c 0,1.913 -1.222,3.147 -3.901,3.147 h -11.854 c -2.68,0 -3.938,-1.234 -3.938,-3.147 V 0 h 4.761 V 7.26 H -4.749 V 0 Z m -4.749,10.625 h -10.183 v 4.051 h 10.183 z"
             style="fill:#6b4386;fill-opacity:1;fill-rule:nonzero;stroke:none"
             id="path104" /></g><g
           id="g106"
           transform="translate(368.2178,235.2139)"
           style="fill:#6b4386;fill-opacity:1"><path
             d="m 0,0 v 3.776 h -15.168 c -3.304,0 -4.575,-1.183 -4.575,-4.474 v -9.51 c 0,-3.122 1.446,-4.506 4.4,-4.506 h 15.28 l 0.038,3.82 h -14.919 v 3.795 h 10.781 v 3.297 H -14.944 V 0 Z"
             style="fill:#6b4386;fill-opacity:1;fill-rule:nonzero;stroke:none"
             id="path108" /></g><g
           id="g110"
           transform="translate(294.7803,229.748)"
           style="fill:#6b4386;fill-opacity:1"><path
             d="m 0,0 c 0,-1.694 -1.371,-3.072 -3.079,-3.072 -1.694,0 -3.078,1.378 -3.078,3.072 0,1.708 1.384,3.085 3.078,3.085 C -1.371,3.085 0,1.708 0,0"
             style="fill:#6b4386;fill-opacity:1;fill-rule:nonzero;stroke:none"
             id="path112" /></g><g
           id="g114"
           transform="translate(457.7344,229.748)"
           style="fill:#6b4386;fill-opacity:1"><path
             d="m 0,0 c 0,-1.694 -1.384,-3.072 -3.079,-3.072 -1.695,0 -3.079,1.378 -3.079,3.072 0,1.708 1.384,3.085 3.079,3.085 C -1.384,3.085 0,1.708 0,0"
             style="fill:#6b4386;fill-opacity:1;fill-rule:nonzero;stroke:none"
             id="path116" /></g><g
           id="g118"
           transform="translate(136.3633,220.8555)"
           style="fill:#6b4386;fill-opacity:1"><path
             d="M 0,0 -9.298,13.105 -10.494,12.563 -10.507,0 h -4.425 v 17.836 h 6.931 L -0.71,7.422 0.499,7.827 0.536,17.836 h 4.45 L 4.986,0 Z"
             style="fill:#6b4386;fill-opacity:1;fill-rule:nonzero;stroke:none"
             id="path120" /></g><g
           id="g122"
           transform="translate(268.0703,225.1182)"
           style="fill:#6b4386;fill-opacity:1"><path
             d="m 0,0 v 9.049 c 0,3.097 -1.296,4.263 -4.362,4.263 h -10.595 c -3.004,0 -4.387,-1.216 -4.387,-4.263 V 0 c 0,-2.973 1.433,-4.263 4.387,-4.263 H -4.362 C -1.384,-4.263 0,-2.998 0,0 m -4.762,-0.661 h -9.771 V 9.703 h 9.771 z"
             style="fill:#6b4386;fill-opacity:1;fill-rule:nonzero;stroke:none"
             id="path124" /></g><g
           id="g126"
           transform="translate(224.3838,220.8555)"
           style="fill:#6b4386;fill-opacity:1"><path
             d="m 0,0 c -3.141,0 -4.998,1.483 -4.998,4.499 v 8.726 c 0,2.841 2.057,4.611 5.186,4.611 H 13.599 V 14.178 H -0.187 V 3.658 H 13.599 V 0 Z"
             style="fill:#6b4386;fill-opacity:1;fill-rule:nonzero;stroke:none"
             id="path128" /></g><g
           id="g130"
           transform="translate(204.8032,220.8555)"
           style="fill:#6b4386;fill-opacity:1"><path
             d="m 0,0 v 9.067 l -0.013,4.606 H -1.77 L -5.846,0 h -4.536 l -4.101,13.673 h -1.72 L -16.191,0 h -4.624 v 17.836 h 8.488 L -8.961,5.234 h 1.707 l 3.39,12.602 h 8.45 V 0 Z"
             style="fill:#6b4386;fill-opacity:1;fill-rule:nonzero;stroke:none"
             id="path132" /></g><g
           id="g134"
           transform="translate(172.6338,220.8555)"
           style="fill:#6b4386;fill-opacity:1"><path
             d="m 0,0 v 14.795 c 0,1.845 -1.234,3.041 -3.914,3.041 h -11.841 c -2.68,0 -3.951,-1.196 -3.951,-3.041 V 0 h 4.762 V 7.018 H -4.761 V 0 Z m -4.362,10.264 h -10.196 v 3.914 h 10.196 z"
             style="fill:#6b4386;fill-opacity:1;fill-rule:nonzero;stroke:none"
             id="path136" /></g></g></g></g></svg>
