<svg height="156.804" viewBox="0 0 817.76675 344.9688" width="371.71216" xmlns="http://www.w3.org/2000/svg" xmlns:xlink="http://www.w3.org/1999/xlink"><clipPath id="a"><path d="m0 595.276h841.89v-595.276h-841.89z"/></clipPath><g clip-path="url(#a)" fill="#6b4386" transform="matrix(1.3333333 0 0 -1.3333333 -139.35826 567.53439)"><path d="m0 0c2.206-3.814 42.042-72.814 42.042-72.814h16.127l-58.169 100.746-58.157-100.746h16.129s39.622 68.62 42.028 72.814" transform="translate(414.8081 397.7188)"/><path d="m0 0h-16.142s17.014-29.465 18.709-32.399h-250.363c2.144 3.713 18.696 32.399 18.696 32.399h-16.116l-26.772-46.359h298.748z" transform="translate(537.4287 213.2832)"/><path d="m0 0c0-.835.063-35.729.063-36.545h-41.792c0 .816-.063 35.71-.063 36.545zm2.492 16.365h-46.776c-8.912 0-19.058-9.086-19.058-17.051v-35.69c0-7.971 10.146-17.058 19.058-17.058h46.776c8.9 0 19.045 9.087 19.045 17.058v35.69c0 7.965-10.145 17.051-19.045 17.051" transform="translate(448.7227 300.5313)"/><path d="m0 0h-41.917c-8.699 0-18.608-8.974-18.608-16.833v-36.114c0-7.858 9.909-16.826 18.608-16.826h41.917c8.7 0 18.621 8.968 18.621 16.826v11.33l-19.817.025v-11.71h-38.664v36.825h38.664v-10.364l19.817.031v9.977c0 7.859-9.921 16.833-18.621 16.833" transform="translate(623.0186 317.1206)"/><path d="m0 0h3.029c8.737 0 17.001 7.472 17.001 15.38v14.003c0 7.909-8.264 15.381-17.001 15.381l-59.316.012v-69.81h20.366v54.48h33.254c2.692 0 3.64-2.063 3.64-3.833v-6.949c0-2.156-1.297-3.352-3.64-3.352h-24.031l.386-14.838 30.674-25.477h26.699s-26.96 21.7-31.061 25.003" transform="translate(248.377 272.3691)"/><path d="m0 0h3.053c8.725 0 16.988 7.466 16.988 15.374v14.003c0 7.909-8.263 15.381-16.988 15.381l-59.316.012v-69.811h20.354v54.487h33.254c2.692 0 3.639-2.07 3.639-3.839v-6.949c0-2.156-1.297-3.346-3.639-3.346h-24.031l.387-14.845 30.661-25.477h26.71s-26.959 21.7-31.072 25.01" transform="translate(533.752 272.1387)"/><path d="m0 0h-82.162v-16.091h30.324v-53.57h21.513v53.57h30.325z" transform="translate(186.6807 317.1206)"/><path d="m302.583 317.089h-21.563v-69.723h21.563z"/><path d="m0 0v16.091h-65.498v-69.78h21.575v27.234h37.591v16.073h-37.591v10.382z" transform="translate(379.8965 301.0298)"/><path d="m0 0h-47.612v11.137h33.204v16.072h-33.204v10.382h46.852v16.091h-68.876v-69.791l69.636.018z" transform="translate(717.8438 263.4385)"/><path d="m0 0-9.298 12.906-1.184-.529-.025-12.377h-4.425v17.568h6.93l7.292-10.264 1.209.405.037 9.859h4.438v-17.568z" transform="translate(491.5234 220.9736)"/><path d="m0 0-9.298 12.906-1.196-.529-.013-12.377h-4.412v17.568h6.93l7.279-10.264 1.209.405.037 9.859h4.438v-17.568z" transform="translate(543.3359 220.9736)"/><path d="m0 0-9.298 12.906-1.183-.529-.026-12.377h-4.425v17.568h6.943l7.279-10.264 1.222.405.024 9.859h4.45v-17.568z" transform="translate(633.4004 220.9736)"/><path d="m510.282 238.542h4.923v-17.568h-4.923z"/><path d="m0 0v-13.966h-5.146v13.966h-7.043v3.603h18.945v-3.603z" transform="translate(571.8906 234.9395)"/><path d="m0 0v-3.583h12.04v-3.122h-12.04v-3.658h12.015v-3.603h-16.889v17.569h16.977v-3.603z" transform="translate(594.9248 234.9395)"/><path d="m0 0v8.918c0 2.829-1.707 4.238-4.437 4.238h-15.804v-17.568h15.654c3.079 0 4.587 1.384 4.587 4.412m-5.011-.81h-10.494v10.363h10.494z" transform="translate(670.8174 225.3857)"/><path d="m0 0v9.049c0 3.097-1.296 4.263-4.35 4.263h-10.594c-3.017 0-4.388-1.209-4.388-4.263v-9.049c0-2.973 1.434-4.257 4.388-4.257h10.594c2.979 0 4.35 1.259 4.35 4.257m-4.749-.654h-9.771v10.363h9.771z" transform="translate(701.7031 225.2305)"/><path d="m0 0h-15.592v3.808h14.832v3.763h-10.308c-2.78 0-4.388.693-4.388 2.998v4.954c0 2.039 1.297 2.936 5.597 2.936h12.277v-3.783h-13.237v-3.808h10.732c2.954 0 3.914-1.227 3.914-3.209v-5.036c0-1.508-1.098-2.623-3.827-2.623" transform="translate(331.5366 220.5439)"/><path d="m0 0h-11.205c-2.966 0-4.4 1.378-4.4 4.5v9.522c0 3.272 1.272 4.462 4.562 4.462h15.181v-3.783h-14.957v-10.887h10.507v3.44h-7.216v3.297h11.89v-6.051c0-3.122-1.433-4.5-4.362-4.5" transform="translate(396.7104 220.5186)"/><path d="m0 0v15.312c0 1.913-1.222 3.147-3.901 3.147h-11.854c-2.68 0-3.938-1.234-3.938-3.147v-15.312h4.761v7.26h10.183v-7.26zm-4.749 10.625h-10.183v4.051h10.183z" transform="translate(433.8906 220.5439)"/><path d="m0 0v3.776h-15.168c-3.304 0-4.575-1.183-4.575-4.474v-9.51c0-3.122 1.446-4.506 4.4-4.506h15.28l.038 3.82h-14.919v3.795h10.781v3.297h-10.781v3.802z" transform="translate(368.2178 235.2139)"/><path d="m0 0c0-1.694-1.371-3.072-3.079-3.072-1.694 0-3.078 1.378-3.078 3.072 0 1.708 1.384 3.085 3.078 3.085 1.708 0 3.079-1.377 3.079-3.085" transform="translate(294.7803 229.748)"/><path d="m0 0c0-1.694-1.384-3.072-3.079-3.072s-3.079 1.378-3.079 3.072c0 1.708 1.384 3.085 3.079 3.085s3.079-1.377 3.079-3.085" transform="translate(457.7344 229.748)"/><path d="m0 0-9.298 13.105-1.196-.542-.013-12.563h-4.425v17.836h6.931l7.291-10.414 1.209.405.037 10.009h4.45v-17.836z" transform="translate(136.3633 220.8555)"/><path d="m0 0v9.049c0 3.097-1.296 4.263-4.362 4.263h-10.595c-3.004 0-4.387-1.216-4.387-4.263v-9.049c0-2.973 1.433-4.263 4.387-4.263h10.595c2.978 0 4.362 1.265 4.362 4.263m-4.762-.661h-9.771v10.364h9.771z" transform="translate(268.0703 225.1182)"/><path d="m0 0c-3.141 0-4.998 1.483-4.998 4.499v8.726c0 2.841 2.057 4.611 5.186 4.611h13.411v-3.658h-13.786v-10.52h13.786v-3.658z" transform="translate(224.3838 220.8555)"/><path d="m0 0v9.067l-.013 4.606h-1.757l-4.076-13.673h-4.536l-4.101 13.673h-1.72l.012-13.673h-4.624v17.836h8.488l3.366-12.602h1.707l3.39 12.602h8.45v-17.836z" transform="translate(204.8032 220.8555)"/><path d="m0 0v14.795c0 1.845-1.234 3.041-3.914 3.041h-11.841c-2.68 0-3.951-1.196-3.951-3.041v-14.795h4.762v7.018h10.183v-7.018zm-4.362 10.264h-10.196v3.914h10.196z" transform="translate(172.6338 220.8555)"/></g></svg>