<svg height="152.11555" viewBox="0 0 475.71575 258.59644" width="279.83279" xmlns="http://www.w3.org/2000/svg" xmlns:xlink="http://www.w3.org/1999/xlink"><filter id="a" color-interpolation-filters="sRGB" height="1.364804" width="1.09905" x="-.03706" y="-.136493"><feFlood result="flood"/><feComposite in="flood" in2="SourceGraphic" operator="in" result="composite1"/><feGaussianBlur in="composite1" result="blur" stdDeviation="5.88436"/><feOffset dx="9.5" dy="9.5" result="offset"/><feComposite in="SourceGraphic" in2="offset" operator="over" result="composite2"/></filter><filter id="b" color-interpolation-filters="sRGB" height="1.366091" width="1.0828" x="-.03098" y="-.136975"><feFlood result="flood"/><feComposite in="flood" in2="SourceGraphic" operator="in" result="composite1"/><feGaussianBlur in="composite1" result="blur" stdDeviation="5.88436"/><feOffset dx="9.5" dy="9.5" result="offset"/><feComposite in="SourceGraphic" in2="offset" operator="over" result="composite2"/></filter><g fill="#dc1c27" transform="translate(-431.09844 -252.41808)"><g filter="url(#a)"><path d="m531.50545 298.94046h9.86664q3.19999 0 5.86665-1.19999 2.79999-1.2 4.93332-3.33333 2.13333-2.13333 3.33333-4.79999 1.19999-2.79999 1.19999-5.99998 0-3.19999-1.19999-5.99998-1.2-2.8-3.33333-4.79999-2.13333-2.13333-4.93332-3.33333-2.66666-1.19999-5.86665-1.19999h-53.99986q-3.2 0-5.99999 1.19999-2.79999 1.2-4.93332 3.33333-1.99999 1.99999-3.19999 4.79999-1.2 2.79999-1.2 5.99998 0 3.19999 1.2 5.99998 1.2 2.66666 3.19999 4.79999 2.13333 2.13333 4.93332 3.33333 2.79999 1.19999 5.99999 1.19999h10.1333v52.26654q0 3.59999 1.33333 6.66665 1.33333 3.06666 3.59999 5.46665 2.26667 2.26666 5.33332 3.59999 3.2 1.33333 6.66665 1.33333 3.59999 0 6.66665-1.33333 3.06666-1.33333 5.33332-3.59999 2.4-2.39999 3.73333-5.46665 1.33333-3.06666 1.33333-6.66665z"/><path d="m604.26193 266.54055q-10.66664 0-20.13328 4.13332-9.46665 3.99999-16.53329 11.06664-6.93332 6.93331-11.06664 16.39996-3.99999 9.46664-3.99999 20.13328 0 10.66664 3.99999 20.13328 4.13332 9.46664 11.06664 16.53329 7.06664 6.93332 16.53329 11.06664 9.46664 3.99999 20.13328 3.99999 10.66664 0 20.13328-3.99999 9.46664-4.13332 16.39996-11.06664 7.06665-7.06665 11.06664-16.53329 4.13332-9.46664 4.13332-20.13328 0-10.66664-4.13332-20.13328-3.99999-9.46665-11.06664-16.39996-6.93332-7.06665-16.39996-11.06664-9.46664-4.13332-20.13328-4.13332zm.93333 32.39991q3.99999 0 7.46665 1.6 3.59999 1.46666 6.13332 4.13332 2.66666 2.53333 4.13332 6.13332 1.59999 3.46666 1.59999 7.46665 0 3.99999-1.59999 7.59998-1.46666 3.46666-4.13332 6.13332-2.53333 2.53332-6.13332 4.13332-3.46666 1.46666-7.46665 1.46666-3.99999 0-7.59998-1.46666-3.46666-1.6-6.13332-4.13332-2.53333-2.66666-4.13332-6.13332-1.46666-3.59999-1.46666-7.59998 0-3.99999 1.46666-7.46665 1.59999-3.59999 4.13332-6.13332 2.66666-2.66666 6.13332-4.13332 3.59999-1.6 7.59998-1.6z"/><path d="m738.75156 339.60703 2.8 15.19996q.53333 3.06666 1.99999 5.59998 1.6 2.4 3.86666 4.13333 2.26666 1.73333 4.93332 2.79999 2.79999.93333 5.73332.93333 4.39999 0 7.59998-1.6 3.19999-1.59999 5.33332-3.99999 2.13333-2.39999 3.19999-5.33331 1.06666-3.06666 1.06666-5.86666 0-.66666-.13333-1.46666 0-.8-.13333-1.46666l-12.39997-66.6665q-1.2-6.26665-5.73332-9.86664-4.53332-3.73332-10.9333-3.73332-5.19999 0-9.19998 2.39999-3.86666 2.26666-6.13332 7.06665l-15.86662 33.19991-15.86663-33.19991q-4.53332-9.46664-15.3333-9.46664-6.39998 0-11.06663 3.73332-4.53333 3.59999-5.59999 9.86664l-12.26663 66.6665q-.13334.8-.26667 1.59999 0 .66667 0 1.46667 0 3.33332 1.33333 6.39998 1.33333 2.93333 3.59999 5.33332 2.39999 2.26666 5.46665 3.59999 3.06666 1.33333 6.66665 1.33333 2.93333 0 5.59999-.93333 2.79999-1.06666 5.06665-2.79999 2.26666-1.73333 3.73333-4.13333 1.59999-2.53332 2.13332-5.59998l2.8-15.19996 9.19997 19.33328q4.39999 9.33331 14.79997 9.33331 10.39997 0 14.79996-9.33331z"/><path d="m850.17466 294.27381q2.93333-4.26666 2.93333-9.46664 0-3.33333-1.33333-6.39999-1.33333-3.06666-3.59999-5.19998-2.13333-2.26666-5.19999-3.59999-3.06666-1.33333-6.39998-1.33333-3.86666 0-7.46665 1.73333-3.46666 1.73332-5.86665 5.19998l-11.99997 17.06662-11.86664-17.06662q-2.39999-3.46666-5.99998-5.19998-3.59999-1.73333-7.46665-1.73333-3.46666 0-6.53332 1.33333-2.93332 1.33333-5.19998 3.59999-2.13333 2.13332-3.46666 5.19998-1.33333 3.06666-1.33333 6.39999 0 2.39999.66666 4.79998.8 2.4 2.26666 4.53333l21.99995 31.46658v25.59994q0 3.59999 1.33333 6.66665 1.33333 3.06666 3.59999 5.46665 2.26666 2.26666 5.33332 3.59999 3.19999 1.33333 6.66665 1.33333 3.46666 0 6.53331-1.33333 3.2-1.33333 5.46666-3.59999 2.39999-2.39999 3.73332-5.46665 1.33333-3.06666 1.33333-6.66665v-25.59994z"/></g><g filter="url(#b)" stroke-width=".999999" transform="scale(.96376522 1.0375971)"><path d="m520.6863 398.05907h9.83193q3.18874 0 5.84602-1.19578 2.79014-1.19578 4.91597-3.3216 2.12582-2.12582 3.3216-4.7831 1.19577-2.79015 1.19577-5.97888 0-3.18874-1.19577-5.97888-1.19578-2.79015-3.3216-4.78311-2.12583-2.12582-4.91597-3.3216-2.65728-1.19577-5.84602-1.19577h-53.80992q-3.18873 0-5.97888 1.19577-2.79014 1.19578-4.91596 3.3216-1.99296 1.99296-3.18874 4.78311-1.19578 2.79014-1.19578 5.97888 0 3.18873 1.19578 5.97888 1.19578 2.65728 3.18874 4.7831 2.12582 2.12582 4.91596 3.3216 2.79015 1.19578 5.97888 1.19578h10.09767v52.08268q0 3.58733 1.32864 6.6432 1.32864 3.05588 3.58732 5.44743 2.25869 2.25869 5.31456 3.58733 3.18874 1.32864 6.6432 1.32864 3.58733 0 6.6432-1.32864 3.05588-1.32864 5.31456-3.58733 2.39156-2.39155 3.7202-5.44743 1.32864-3.05587 1.32864-6.6432z"/><path d="m596.02009 434.86239q-3.45446 0-5.97888-2.39155-2.52441-2.52441-2.52441-5.97888v-42.11789q0-3.45446-1.32864-6.51033-1.32864-3.05587-3.72019-5.31456-2.25869-2.39155-5.31456-3.72019-3.05588-1.32864-6.6432-1.32864-3.45447 0-6.6432 1.32864-3.05588 1.32864-5.31456 3.72019-2.25869 2.25869-3.58733 5.31456-1.32864 3.05587-1.32864 6.51033v42.11789q0 8.76903 3.3216 16.47514 3.3216 7.70611 9.03475 13.55213 5.84602 5.71315 13.55213 9.03475 7.70611 3.3216 16.47513 3.3216 8.76903 0 16.34228-3.3216 7.70611-3.3216 13.41926-9.03475 5.84602-5.84602 9.16762-13.55213 3.3216-7.70611 3.3216-16.47514v-42.11789q0-3.45446-1.32864-6.51033-1.32864-3.05587-3.7202-5.31456-2.25868-2.39155-5.31456-3.72019-3.05587-1.32864-6.51033-1.32864-3.45447 0-6.6432 1.32864-3.05587 1.32864-5.44743 3.72019-2.25868 2.25869-3.58732 5.31456-1.32864 3.05587-1.32864 6.51033v42.11789q0 3.45447-2.52442 5.97888-2.39155 2.39155-5.84602 2.39155z"/><path d="m705.36717 398.05907h9.83194q3.18874 0 5.84602-1.19578 2.79014-1.19578 4.91596-3.3216 2.12583-2.12582 3.3216-4.7831 1.19578-2.79015 1.19578-5.97888 0-3.18874-1.19578-5.97888-1.19577-2.79015-3.3216-4.78311-2.12582-2.12582-4.91596-3.3216-2.65728-1.19577-5.84602-1.19577h-53.80992q-3.18874 0-5.97888 1.19577-2.79014 1.19578-4.91597 3.3216-1.99296 1.99296-3.18873 4.78311-1.19578 2.79014-1.19578 5.97888 0 3.18873 1.19578 5.97888 1.19577 2.65728 3.18873 4.7831 2.12583 2.12582 4.91597 3.3216 2.79014 1.19578 5.97888 1.19578h10.09766v52.08268q0 3.58733 1.32864 6.6432 1.32864 3.05588 3.58733 5.44743 2.25869 2.25869 5.31456 3.58733 3.18874 1.32864 6.6432 1.32864 3.58733 0 6.6432-1.32864 3.05587-1.32864 5.31456-3.58733 2.39155-2.39155 3.72019-5.44743 1.32864-3.05587 1.32864-6.6432z"/><path d="m779.77101 365.77312q-10.62912 0-20.06246 4.11878-9.43335 3.98592-16.47514 11.02771-6.90893 6.90893-11.02771 16.34227-3.98592 9.43335-3.98592 20.06247 0 10.62912 3.98592 20.06246 4.11878 9.43334 11.02771 16.47514 7.04179 6.90892 16.47514 11.02771 9.43334 3.98592 20.06246 3.98592 10.62912 0 20.06247-3.98592 9.43334-4.11879 16.34227-11.02771 7.04179-7.0418 11.02771-16.47514 4.11878-9.43334 4.11878-20.06246 0-10.62912-4.11878-20.06247-3.98592-9.43334-11.02771-16.34227-6.90893-7.04179-16.34227-11.02771-9.43335-4.11878-20.06247-4.11878zm.93005 32.28595q3.98592 0 7.44038 1.59436 3.58733 1.46151 6.11175 4.11879 2.65728 2.52441 4.11878 6.11174 1.59437 3.45447 1.59437 7.44039 0 3.98592-1.59437 7.57324-1.4615 3.45447-4.11878 6.11175-2.52442 2.52441-6.11175 4.11878-3.45446 1.46151-7.44038 1.46151-3.98592 0-7.57325-1.46151-3.45446-1.59437-6.11174-4.11878-2.52442-2.65728-4.11879-6.11175-1.4615-3.58732-1.4615-7.57324 0-3.98592 1.4615-7.44039 1.59437-3.58733 4.11879-6.11174 2.65728-2.65728 6.11174-4.11879 3.58733-1.59436 7.57325-1.59436z"/><path d="m878.48896 398.05907q1.99296 0 3.45447 1.4615 1.4615 1.4615 1.4615 3.45446 0 2.12583-1.4615 3.58733-1.46151 1.46151-3.45447 1.46151h-4.51737v-9.9648zm28.03431 30.55872q2.12582-1.8601 3.98592-4.65024 1.99296-2.79015 3.45446-5.97888 1.59437-3.3216 2.39155-7.0418.93005-3.85305.93005-7.70611 0-7.44038-2.79014-13.95072-2.79015-6.51033-7.70612-11.29344-4.7831-4.91596-11.29344-7.70611-6.51033-2.79014-13.95072-2.79014h-24.57984q-3.45446 0-6.6432 1.32864-3.05587 1.32864-5.31456 3.72019-2.25868 2.25869-3.58732 5.31456-1.32864 3.05587-1.32864 6.51033v65.76768q0 3.58733 1.32864 6.6432 1.32864 3.05588 3.58732 5.44743 2.25869 2.25869 5.31456 3.58733 3.18874 1.32864 6.6432 1.32864 3.58733 0 6.6432-1.32864 3.05588-1.32864 5.31456-3.58733 2.39156-2.39155 3.7202-5.44743 1.32864-3.05587 1.32864-6.6432v-9.5662l11.82489 18.99955q2.25869 3.85305 6.11175 5.71315 3.85305 1.8601 8.23756 1.8601 3.45447 0 6.51034-1.32864 3.05587-1.32864 5.31456-3.58733 2.39155-2.25869 3.72019-5.31456 1.32864-3.18874 1.32864-6.6432 0-4.65024-2.52441-8.76903z"/></g></g></svg>