<svg height="161.50385" viewBox="0 0 598.39426 145.35346" width="664.88251" xmlns="http://www.w3.org/2000/svg" xmlns:xlink="http://www.w3.org/1999/xlink"><mask id="a" maskUnits="userSpaceOnUse"><path d="m448.61261-1.2698162h152v147.0000062h-152z" fill="#fff"/><rect height="93.950546" rx="16.056814" style="opacity:.98;fill-opacity:.907045;stroke:#000;stroke-width:7.5;stroke-linecap:round;stroke-linejoin:round" width="32.113628" x="508.68692" y="24.567846"/></mask><g transform="translate(-1.21833 .269816)"><g fill="#fff" fill-opacity=".5" stroke="none" stroke-width="2.25"><path d="m285.30312 8.6721561q0 .216-.0522.3636-.0774.2196-.2484.2196-.1134 0-.2376-.0522-.1494-.063-.1638-.1548.0504 0 .1188.018.1584.0414.198.0414.153 0 .2304-.153.0612-.1224.0612-.2934 0-.1206-.0792-.3437999-.0774-.225-.0774-.3132 0-.027.0144-.0432.0162-.018.0432-.018.0702 0 .1368.324.0558.2735999.0558.4049999z"/><path d="m285.99613 8.8557561q0 .1836-.1062.288-.1062.1044-.2934.1044-.1026 0-.1584-.0486-.0558-.0486-.0558-.1494 0-.1422.1854-.2862.1764-.1368.3258-.1368.0684 0 .09.0846.0126.0486.0126.144zm-.1098.0504q0-.0216-.005-.0414-.004-.0216-.0144-.0486-.0288.0198-.0954.0972-.0342.0396-.0594.0576 0-.0342.007-.0558.0144-.0306.0234-.0522-.0792 0-.1656.0666-.0846.0666-.0846.144 0 .0522.0576.0522.1098 0 .2124-.054.1242-.0648.1242-.1656z"/><path d="m286.73772 8.9295561q0 .0882-.0666.198-.0756.1242-.1566.1242-.0234 0-.0396-.0252-.0144-.027-.0144-.0522 0-.0324.0684-.1008.0702-.0702.0702-.0954 0-.0162-.005-.0324-.005-.0162-.007-.0216-.135.0306-.2754.1548-.1386.1242-.2106.1404-.0144-.0396-.0144-.081 0-.0504.0234-.1062.0162-.0396.054-.0954.063-.0954.1332-.216.036-.063.1242-.2177999.09-.1548.1314-.2196.0216-.0324.0378-.0486.0234-.0216.0558-.0288.0216.0072.0306.027.0108.0198.0108.0468 0 .0612-.0792.1656-.144.1871999-.1476.1943999-.081.1224-.081.2214l.004.018q.099-.0486.117-.0558.0738-.0306.126-.0306.0576 0 .0846.0396.027.0378.027.0972z"/><path d="m287.57293 8.8233561q0 .1224-.0594.261-.0648.153-.1602.2106-.0198-.0234-.0342-.0522-.0126-.0288-.0126-.0576 0-.0306.09-.1818.0396-.0666.036-.117l-.002-.0234q-.0666.0198-.2304.1206-.162.099-.3276.2016-.0252 0-.0468-.018-.0198-.0198-.0198-.0432 0-.0378.1206-.2538.036-.0648.1296-.225.0288.0378.0378.0846.009.045.009.108 0 .027 0 .0414.1656-.099.2592-.1494.1026-.0558.1404-.0558.0252 0 .0468.0576.0234.0576.0234.0918z"/><path d="m289.13713 9.1725561q0 .0324-.0288.0504-.027.0162-.0612.0162-.0306 0-.0774-.0072-.1062-.0162-.1368-.0162-.054 0-.2124.0126-.09.0072-.1296.0072-.1098 0-.1098-.1098 0-.1044.0684-.2988.0378-.1098.1422-.3599999.0936-.225.1188-.3168.009-.0288.0144-.0378.0144-.0216.036-.0216.0342 0 .0576.0504.0234.0486.0234.0882 0 .063-.0738.2124-.0738.1475999-.144.2897999-.0774.1692-.0774.2574 0 .045.0378.063.027.0126.0792.0126.0396 0 .1368-.009.0972-.0108.1296-.0108.081 0 .1332.0234.0738.0324.0738.1044z"/><path d="m289.80673 8.8557561q0 .1836-.1062.288-.1062.1044-.2934.1044-.1026 0-.1584-.0486-.0558-.0486-.0558-.1494 0-.1422.1854-.2862.1764-.1368.3258-.1368.0684 0 .09.0846.0126.0486.0126.144zm-.1098.0504q0-.0216-.005-.0414-.004-.0216-.0144-.0486-.0288.0198-.0954.0972-.0342.0396-.0594.0576 0-.0342.007-.0558.0144-.0306.0234-.0522-.0792 0-.1656.0666-.0846.0666-.0846.144 0 .0522.0576.0522.1098 0 .2124-.054.1242-.0648.1242-.1656z"/><path d="m290.56453 8.8179561q0 .0576-.0306.1224-.0288.0648-.0738.108l-.002-.0252q0-.0216.005-.0666.005-.045.005-.0666 0-.0306-.009-.045-.009-.0162-.0378-.0162-.0846 0-.2106.1314-.1368.144-.2718.2862-.0108 0-.0216-.0018-.027-.0072-.036-.009.005-.0648.045-.144.1062-.2142.1098-.2286.0144-.0576.0216-.0846.007-.027.0198-.0558.0144-.0306.0324-.054.0198-.0252.0504-.0378l.018.216q.0774-.063.1188-.0972.0792-.063.1368-.063.0576 0 .0936.0378.036.0378.036.0936z"/><path d="m291.44833 8.6091561q0 .0756-.2016.1998-.1944.1188-.2826.1188-.0414 0-.0558-.0288-.0126-.0288-.0126-.081 0-.0342 0-.0486.1206 0 .2196-.036.099-.036.1728-.1188-.054-.0198-.1098-.0198-.1314 0-.279.1008-.162.1098-.162.234 0 .1188.162.1656.0252.0072.3042.0504.1638.0252.1638.0882 0 .027-.0594.0432-.0594.018-.1512.018-.2304 0-.3636-.0702-.1764-.0936-.1764-.3006 0-.216.216-.3438.1836-.1079999.4176-.1079999.0702 0 .1278.0324.0702.0396.0702.1043999z"/><path d="m292.16473 8.2869562q0 .0396-.0954.1656-.0954.1259999-.0954.1925999 0 .0342.0396.0684.09.0792.09.0972 0 .0234-.0162.045-.0144.0216-.0378.0216-.0198 0-.0558-.0216-.0252-.0144-.0972-.0702-.027.0522-.0414.0792-.0504.0954-.0684.1386-.027.0828-.054.1656-.0468.1116-.117.1116l-.002-.0414q0-.1278.0828-.3024.0162-.0324.09-.1674-.1422-.0774-.3132-.0774 0-.0666.027-.0972.0288-.0324.0954-.0324.0612 0 .153.0216.045.0108.09.0216.0342-.0108.0936-.1169999.1458-.2556.198-.2934.0144.0234.0234.0468.0108.0234.0108.045z"/><path d="m292.82893 8.9295561q0 .0882-.0666.198-.0756.1242-.1566.1242-.0234 0-.0396-.0252-.0144-.027-.0144-.0522 0-.0324.0684-.1008.0702-.0702.0702-.0954 0-.0162-.005-.0324-.005-.0162-.007-.0216-.135.0306-.2754.1548-.1386.1242-.2106.1404-.0144-.0396-.0144-.081 0-.0504.0234-.1062.0162-.0396.054-.0954.063-.0954.1332-.216.036-.063.1242-.2177999.09-.1548.1314-.2196.0216-.0324.0378-.0486.0234-.0216.0558-.0288.0216.0072.0306.027.0108.0198.0108.0468 0 .0612-.0792.1656-.144.1871999-.1476.1943999-.081.1224-.081.2214l.004.018q.099-.0486.117-.0558.0738-.0306.126-.0306.0576 0 .0846.0396.027.0378.027.0972z"/><path d="m294.30673 8.3427562q0 .0846-.09.2267999-.0576.09-.189.2592-.1314.1674-.1638.2196.005.0018.135.0432.1314.0396.1314.144-.054.009-.1062.0162l-.0198-.0018v-.0144q-.0288-.0072-.0468-.0072-.0342 0-.108.0108-.0738.0108-.1116.0108-.0486 0-.0792-.018-.0306-.018-.0306-.0648 0-.0378.1386-.2142.2592-.3294.261-.333.1404-.1907999.1404-.2555999 0-.0252-.018-.0378-.0162-.0126-.0666-.0126-.0342 0-.1422.0666-.0522.0324-.0846.0324l-.0306-.0054q-.0108-.0072-.0234-.027-.0126-.0216-.0126-.0342 0-.0756.1458-.1386.1242-.054.216-.054.0774 0 .1188.0576.036.0504.036.1314z"/><path d="m295.38853 8.6667561q0 .2178-.2358.3852-.216.153-.4446.153-.1134 0-.18-.0576-.0666-.0576-.0666-.1674 0-.2448.2142-.4248.2034-.1709999.4554-.1709999.1278 0 .1926.0756.0648.0756.0648.2069999zm-.1098.0414q0-.0828-.0936-.1242-.0702-.0306-.1674-.0306-.1422 0-.297.1386-.1548.1386-.1548.279 0 .0576.0288.0828.0306.0234.0918.0234.1764 0 .3672-.0972.225-.1152.225-.2718z"/><path d="m296.21293 8.3427562q0 .0846-.09.2267999-.0576.09-.189.2592-.1314.1674-.1638.2196.005.0018.135.0432.1314.0396.1314.144-.054.009-.1062.0162l-.0198-.0018v-.0144q-.0288-.0072-.0468-.0072-.0342 0-.108.0108-.0738.0108-.1116.0108-.0486 0-.0792-.018-.0306-.018-.0306-.0648 0-.0378.1386-.2142.2592-.3294.261-.333.1404-.1907999.1404-.2555999 0-.0252-.018-.0378-.0162-.0126-.0666-.0126-.0342 0-.1422.0666-.0522.0324-.0846.0324l-.0306-.0054q-.0108-.0072-.0234-.027-.0126-.0216-.0126-.0342 0-.0756.1458-.1386.1242-.054.216-.054.0774 0 .1188.0576.036.0504.036.1314z"/><path d="m297.04093 8.3427562q0 .0846-.09.2267999-.0576.09-.189.2592-.1314.1674-.1638.2196.005.0018.135.0432.1314.0396.1314.144-.054.009-.1062.0162l-.0198-.0018v-.0144q-.0288-.0072-.0468-.0072-.0342 0-.108.0108-.0738.0108-.1116.0108-.0486 0-.0792-.018-.0306-.018-.0306-.0648 0-.0378.1386-.2142.2592-.3294.261-.333.1404-.1907999.1404-.2555999 0-.0252-.018-.0378-.0162-.0126-.0666-.0126-.0342 0-.1422.0666-.0522.0324-.0846.0324l-.0306-.0054q-.0108-.0072-.0234-.027-.0126-.0216-.0126-.0342 0-.0756.1458-.1386.1242-.054.216-.054.0774 0 .1188.0576.036.0504.036.1314z"/></g><g stroke="#fff" stroke-linecap="round" stroke-linejoin="round"><path d="m105.27023 141.31324c11.56695.60769 11.01643-11.63496 8.32214-17.53103-5.75913-8.02564-9.43076-16.55952-6.97707-28.666879 4.84448-19.101659 11.02487-37.490028 17.5052-55.718251 2.62382-5.180356 8.06416-10.967857 12.93975-15.350853 4.44083-4.501649 1.44441-17.7957069-11.6367-15.2460231-7.2406 2.3461251-13.62385 7.4957121-22.93462 3.0725001-9.700391-4.8599262-21.387763 3.065172-12.645518 13.843217 8.459187 6.457734 8.696277 9.66572 8.118046 20.118875l-11.760784 52.249218-18.279528-55.319186c-1.919558-16.680868 12.701484-16.667825 8.279596-29.348531-3.605703-5.2587797-6.171213-5.6291289-11.571921-4.5350674-7.188831 1.4562944-26.192727 6.0634314-37.74849 3.6050654-4.256272-.905476-8.992148-1.179372-13.254372-1.615812-12.0269753 4.558432-9.5252748 14.897371-4.4231446 20.375128 4.5390956 2.628771 7.4661226 6.249175 9.5654166 10.378741l27.176966 77.322478c-10.158521 4.60816-13.289845 25.43776 6.541535 21.83264 13.113077-2.96097 22.217674-5.98795 52.783498.53377z" fill="#00499b" opacity=".98" stroke-width="7.5"/><path d="m196.47138 54.817314c-.0337-12.56946 7.70606-19.589949 14.60286-29.530338 6.86017-6.694619.0407-21.2474641-10.43294-17.2241317-17.3036 8.3827957-38.49207 4.1510507-49.13772.209155-11.25392-1.1424641-18.51407 11.0674657-12.48395 18.6644137 7.90946 7.33684 11.78296 12.935401 12.86277 23.193908l-.17979 56.947859c.49175 5.11777-3.6657 10.76741-10.3524 16.24824-4.43577 4.08228-6.93932 17.5062 8.1773 16.30447 15.10808-5.74687 30.7176-8.90631 52.64929-1.59272 7.57814.1813 11.69925-6.2048 8.58193-13.10333-6.56397-10.50328-12.45734-15.66693-13.72269-24.54557z" fill="#00499b" opacity=".98" stroke-width="7.5"/><path d="m235.03976 79.987287c-12.10619-.369648-21.89678 5.921086-27.54296 13.389139-14.16469 30.099274 26.11933 47.196884 47.42446 47.531894 84.7181 4.28639 92.33822-70.565467 47.23611-86.594034-22.9892-4.980619-57.66076-15.973218-56.49009-17.678624-3.38029-5.772042-6.62432-13.705828 8.74262-11.643943 4.17036.616847 9.50955 7.24401 15.69046 17.614167 13.22388 12.534892 29.29678 5.550533 29.29678 5.550533 19.35153-10.742277 23.31325-38.7178081 9.19742-41.3976611-6.03906 5.0434141-14.78399 11.4499771-30.19418 4.9661151-45.86852-24.458225-103.0847 24.906404-57.30084 63.162909 21.69526 8.480752 47.79975 17.003439 57.71193 20.868569 18.6191 18.617409-24.79689 42.120939-33.37123 13.373559-1.96066-5.32883 14.15344-12.799647 9.89499-20.330963" fill="#00499b" opacity=".98" stroke-width="7.5"/><path d="m401.75359 5.6932665c-99.36464-11.0055228-101.22062 133.9170235-.15598 135.2771235 74.02915-5.26147 67.06062-78.347661 26.3682-77.819292-21.80625 1.922055-40.62598 24.043889-30.48444 32.286321 7.64331 4.515366 5.00215 1.439786 11.89622-.263119 10.94898 3.799409 5.00823 24.71107-9.12708 24.08753-28.93725.0309-27.74797-85.000215-12.04652-94.399658 12.09297-4.469796 20.49347 28.091053 39.83222 26.838077 12.44867-.740308 15.99535-5.797697 20.58023-10.643097 4.02137-8.788077 9.30879-17.483103 7.95485-27.533389.57891-9.4393438-8.01046-11.6121979-13.79397-7.332171-13.08542 12.589155-14.70133 4.347253-41.02373-.4983255z" fill="#00499b" opacity=".98" stroke-width="7.5"/><path d="m595.86262 72.230186a71.250008 68.750008 0 0 1 -71.25001 68.750004 71.250008 68.750008 0 0 1 -71.25001-68.750004 71.250008 68.750008 0 0 1 71.25001-68.7500072 71.250008 68.750008 0 0 1 71.25001 68.7500072z" fill="#00499b" mask="url(#a)" opacity=".98" stroke-width="7.49999"/><rect fill="none" height="93.950546" opacity=".98" rx="16.056814" stroke-width="7.5" width="32.113628" x="508.68692" y="24.567846"/></g></g></svg>