<?xml version="1.0" encoding="UTF-8" standalone="no"?>
<!-- Generator: Adobe Illustrator 19.0.0, SVG Export Plug-In . SVG Version: 6.00 Build 0)  -->

<svg
   version="1.1"
   id="Camada_1"
   x="0px"
   y="0px"
   viewBox="0 0 755.46331 181.83937"
   xml:space="preserve"
   sodipodi:docname="vsmile.svg"
   width="755.46332"
   height="181.83937"
   inkscape:version="1.1.2 (0a00cf5339, 2022-02-04)"
   xmlns:inkscape="http://www.inkscape.org/namespaces/inkscape"
   xmlns:sodipodi="http://sodipodi.sourceforge.net/DTD/sodipodi-0.dtd"
   xmlns="http://www.w3.org/2000/svg"
   xmlns:svg="http://www.w3.org/2000/svg"><defs
   id="defs67" /><sodipodi:namedview
   id="namedview65"
   pagecolor="#ffffff"
   bordercolor="#111111"
   borderopacity="1"
   inkscape:pageshadow="0"
   inkscape:pageopacity="0"
   inkscape:pagecheckerboard="1"
   showgrid="false"
   fit-margin-top="0"
   fit-margin-left="0"
   fit-margin-right="0"
   fit-margin-bottom="0"
   inkscape:zoom="0.74100165"
   inkscape:cx="263.15731"
   inkscape:cy="87.04434"
   inkscape:window-width="1366"
   inkscape:window-height="703"
   inkscape:window-x="0"
   inkscape:window-y="0"
   inkscape:window-maximized="1"
   inkscape:current-layer="Camada_1" />
<style
   type="text/css"
   id="style2">
	.st0{fill:#FFFFFF;}
	.st1{fill:#E18837;}
	.st2{fill:#8A6AA2;}
	.st3{fill:#0D0E0F;}
	.st4{fill:#CBCFD0;}
	.st5{fill:#007CB3;}
	.st6{fill:#F0973A;}
	.st7{fill:#007CB4;}
	.st8{fill:none;}
</style>
<g
   id="XMLID_27_"
   transform="translate(-14.8,-10.2)">
	<path
   id="XMLID_32_"
   class="st0"
   d="m 651.3,47.3 c 0.8,-1.5 2.6,-1.6 4.1,-1.4 0.6,4.2 -0.8,10.9 -6,11.3 -1.4,-3.4 -0.3,-7.1 1.9,-9.9 z" />
	<path
   id="XMLID_31_"
   class="st0"
   d="m 666.3,49.1 c 0.8,-0.1 2.3,-0.2 3.1,-0.3 0.7,3.9 0,8 -2.5,11.1 -0.6,0 -1.9,0.1 -2.5,0.2 -1.7,-3.6 -0.8,-8.1 1.9,-11 z" />
	<g
   id="XMLID_28_">
		<path
   id="XMLID_29_"
   class="st0"
   d="m 627.4,35.7 c 18.6,-3.1 37.8,0.7 55,8.1 7.1,3.8 15.6,7 19.5,14.6 3.4,6.7 3.8,14.6 3,21.9 -0.6,7.9 -3.1,15.5 -6,22.8 -1.9,5 -5.5,9.1 -9,13 -3.9,4.3 -9.3,7.1 -15.1,7.5 -18.5,1.2 -37.6,-0.3 -55.1,-7 -5.8,-2.3 -11.8,-6.1 -13.5,-12.5 -1.5,-6.2 -0.8,-12.6 -1,-18.8 -0.4,-13.5 2.8,-26.9 8.8,-39 2.6,-5.3 7.7,-9.1 13.4,-10.6 z" />
	</g>
</g>
<g
   id="XMLID_23_"
   transform="translate(-14.8,-10.2)">
	<path
   id="XMLID_24_"
   class="st1"
   d="m 605.5,26.5 c 2,-6.4 6.2,-12.3 12,-15.7 3.5,-0.9 7.1,-0.6 10.7,-0.3 9.7,2.5 16.6,11.9 27,12.4 7,1 14.3,1 20.9,3.6 7.6,2.6 13.6,9.5 22.1,9.6 7.8,0.8 16,-0.2 23.4,3 5.7,2.8 10.7,8.6 10.3,15.3 -0.1,6.5 -4.2,11.8 -7.8,16.8 -3.9,5.3 -1.9,12.2 -2.1,18.3 0,1.7 0,3.4 -0.2,5 -2.1,5.3 -6.2,9.9 -6.3,15.8 -0.4,4.1 0.5,8.3 1.4,12.3 1.9,7.4 -1.9,16.6 -9.5,18.9 -5.9,1.6 -12.2,0.7 -17.8,-1.4 -5.7,-2.1 -11.7,-3.6 -17.8,-3.8 -1.6,-0.1 -3.2,-0.1 -4.8,-0.1 -10.1,1.1 -20.5,0.8 -30.3,-2.3 -1.6,-0.5 -3.2,-1 -4.9,-1.4 -2.8,-0.7 -5.7,-1.4 -8.6,-1.2 -4.4,0.3 -8.5,2.2 -13,2.4 -6,-0.2 -12.6,-1.8 -16.4,-6.7 -3.5,-3.9 -3.4,-9.5 -2.9,-14.5 0.5,-6 4,-11.1 5.6,-16.7 2,-6.6 2.1,-13.5 2,-20.3 0.1,-1.6 -0.5,-3.1 -1.4,-4.5 0.8,-1.3 1.5,-2.7 1.6,-4.2 0.6,-6.6 3.9,-12.5 5.8,-18.7 1.1,-7.3 -0.8,-14.6 1,-21.6 z m 22.1,9.2 c -5.7,1.4 -10.8,5.3 -13.3,10.6 -6,12 -9.2,25.5 -8.8,39 0.2,6.3 -0.5,12.7 1,18.8 1.6,6.4 7.7,10.3 13.5,12.5 17.5,6.7 36.5,8.2 55.1,7 5.8,-0.3 11.2,-3.2 15.1,-7.5 3.5,-3.9 7.1,-8 9,-13 2.9,-7.3 5.4,-14.9 6,-22.8 0.8,-7.3 0.4,-15.2 -3,-21.9 -3.9,-7.6 -12.3,-10.8 -19.5,-14.6 -17.3,-7.3 -36.5,-11.2 -55.1,-8.1 z" />
</g>
<g
   id="XMLID_18_"
   transform="translate(-14.8,-10.2)">
	<path
   id="XMLID_22_"
   class="st2"
   d="m 546.5,27.6 c 5.2,-4.8 13.7,-3.7 18.8,0.7 8,6.9 8.6,18.3 12.4,27.5 -1.1,1 -2.2,2 -3.3,3 -7.9,1.4 -15.5,-2.6 -22.1,-6.6 -4.5,-2.6 -7.9,-7 -9,-12.1 -0.9,-4.3 -0.5,-9.6 3.2,-12.5 z" />
	<path
   id="XMLID_21_"
   class="st2"
   d="m 741.5,51.5 c 2.2,-6.8 9.5,-11.7 16.7,-10.7 4.9,-0.1 8.4,4.1 10.4,8.1 2.1,3.7 1.8,8.2 1.3,12.3 -1.6,5.6 -5.8,10.1 -10.5,13.4 -3.6,2.6 -8,3.6 -12,5.3 -0.7,-1.2 -1.4,-2.4 -2.1,-3.6 -1.7,-3 -1.4,-6.5 -2.2,-9.7 -0.9,-5 -3,-10.1 -1.6,-15.1 z" />
	<path
   id="XMLID_20_"
   class="st2"
   d="m 607.2,160.2 c 4.3,-1.8 9.1,-4.3 13.7,-2.1 1.6,0.7 3.2,1.4 4.9,1.9 1.2,3.7 1.9,7.6 0.7,11.4 -1.5,4.8 -2.2,10.3 -6.1,13.8 -6.8,7.3 -20.6,4.7 -24.9,-4.2 -2.4,-4.9 -2.6,-11.4 0.8,-15.9 2.5,-3.3 7.2,-3.3 10.9,-4.9 z" />
	<path
   id="XMLID_19_"
   class="st2"
   d="m 678.8,163 c 5.5,-2.8 11.6,0 17.4,0.2 3.4,0.1 6.1,2.8 7.3,5.8 2,7.2 -0.5,15.6 -6.7,20 -5.5,4.3 -14.3,4.1 -19.2,-1 -2.6,-2.5 -4,-6 -4.3,-9.5 -0.4,-4.2 -0.8,-8.9 1.8,-12.6 1.2,-1.2 2.4,-2.1 3.7,-2.9 z" />
</g>
<g
   id="XMLID_5_"
   transform="translate(-14.8,-10.2)">
	<g
   id="XMLID_14_">
		<path
   id="XMLID_15_"
   class="st3"
   d="m 652.7,44.6 c 1.5,-1.8 4.6,-0.5 4.7,1.7 0.8,5.5 -1.3,11.2 -5.2,15 -1.3,1.5 -4.3,2.3 -5.1,-0.2 -1.6,-5.8 0.9,-12.6 5.6,-16.5 z m -1.4,2.7 c -2.2,2.8 -3.3,6.5 -1.8,9.9 5.2,-0.4 6.5,-7.1 6,-11.3 -1.6,-0.1 -3.4,0 -4.2,1.4 z" />
	</g>
	<g
   id="XMLID_10_">
		<path
   id="XMLID_11_"
   class="st3"
   d="m 663,52 c 1.2,-2.3 3,-5.3 5.9,-5.3 3.2,2.3 2.9,7 2.1,10.4 -1.1,3.9 -2.9,8.9 -7.6,9.4 -3,-4.2 -2.3,-9.9 -0.4,-14.5 z m 3.3,-2.9 c -2.7,2.9 -3.6,7.3 -1.9,11 0.6,0 1.9,-0.1 2.5,-0.2 2.5,-3.2 3.2,-7.2 2.5,-11.1 -0.7,0.1 -2.3,0.3 -3.1,0.3 z" />
	</g>
	<path
   id="XMLID_9_"
   class="st3"
   d="m 574.3,58.8 c 1.1,-1 2.2,-2 3.3,-3 6.4,4.6 13.7,8 21.1,10.8 -0.1,1.6 -0.8,2.9 -1.6,4.2 -8,-3.2 -16.1,-6.5 -22.8,-12 z" />
	<path
   id="XMLID_8_"
   class="st3"
   d="m 722,89.4 c 9.1,-1.6 16.3,-7.8 23.4,-13.2 0.7,1.2 1.4,2.4 2.1,3.6 -7.3,6.6 -15.9,12.5 -25.7,14.6 0.1,-1.7 0.2,-3.3 0.2,-5 z" />
	<path
   id="XMLID_7_"
   class="st3"
   d="m 631.8,132.4 c 1.6,0.4 3.2,1 4.9,1.4 -2.6,9.1 -6.2,18 -10.9,26.3 -1.7,-0.6 -3.3,-1.2 -4.9,-1.9 4.5,-8.3 8.3,-16.8 10.9,-25.8 z" />
	<path
   id="XMLID_6_"
   class="st3"
   d="m 667,136.1 c 1.6,0 3.2,0 4.8,0.1 0.5,9.3 2.1,18.8 7,26.8 -1.3,0.8 -2.5,1.8 -3.7,2.8 -6.4,-8.4 -8.3,-19.5 -8.1,-29.7 z" />
</g>
<g
   id="XMLID_2_"
   transform="translate(-14.8,-10.2)">
	<path
   id="XMLID_4_"
   class="st1"
   d="m 674.5,71.7 c -1,3.2 -1.6,6.6 -3.1,9.7 -2.8,2.6 -5,6.2 -8.7,7.6 -5,2 -11,2.8 -15.9,-0.1 -6.3,-3.6 -9.8,-10.6 -11,-17.6 0.3,-3 2,-5.6 2.3,-8.6 -2,-0.9 -4.1,-1 -6.3,-0.8 -1.2,4.3 3.3,7.2 3,11.4 0.4,8.8 5.1,18.5 14,21.2 5.4,1.1 11.3,0.4 16.1,-2.5 3.4,-2.7 6.1,-6.2 8.5,-9.8 2.5,-2.1 5.2,-4 7.3,-6.5 2.7,-3.5 -4,-7.6 -6.2,-4 z" />
	
</g>
<g
   id="XMLID_1_"
   transform="translate(-14.8,-30.2)">
	<path
   id="XMLID_99_"
   class="st5"
   d="m 132.2,61 c -5.4,7.9 -49.1,78.5 -59.9,95 H 70.9 C 56,133.1 19.5,69.7 14.8,62.1 L 45.5,45.4 C 48.5,51.8 69,95 73.4,104.6 77.7,94.9 100,50 102,45.4 Z" />
</g>
<g
   id="XMLID_33_"
   transform="translate(-14.8,-30.2)">
	<path
   id="XMLID_89_"
   class="st6"
   d="m 171.7,129.5 c 11.4,0.4 23.8,-2.8 23.8,-8.3 0,-2.3 -2,-3.7 -11.5,-9.1 -7.4,-4.2 -15.9,-10.1 -15.9,-19.9 0,-13.1 17.4,-27.4 47.1,-30 l 3.2,19.6 c -14.6,0 -22,2.5 -22,7.3 0,2.8 3.7,4.6 11.4,8.3 6.2,3 16.3,8.3 16.3,18.9 0,12.9 -13.5,29.3 -49.1,33.4 z" />
	<path
   id="XMLID_91_"
   class="st6"
   d="m 227.1,142.5 c 2,-4.7 25.6,-65.9 32.4,-80.8 h 1.2 c 7.1,11.6 24.5,40.3 28.1,46.3 4.6,-6.9 21.1,-34.3 27.3,-44.4 h 1.2 c 8.1,17.3 31.6,70.5 34.8,76.9 L 328.4,151 c -3.7,-9.4 -14.9,-39.1 -16.2,-42.3 -1.4,2.1 -16.4,25.2 -25.2,37.5 h -1.2 c -9,-13.6 -21.3,-33.5 -23.2,-37 -2,6.1 -10.4,36.3 -12.5,41.8 z" />
	<path
   id="XMLID_93_"
   class="st6"
   d="m 390.9,112.1 c 0,11.7 0.4,32.7 0.5,35.4 h -27.2 c 0.2,-5.2 0.4,-32.6 0.4,-35.6 V 99.2 c 0,-2 -0.4,-32.1 -0.4,-34.9 h 27.2 c -0.1,2.1 -0.5,21.1 -0.5,35.1 z" />
	<path
   id="XMLID_95_"
   class="st6"
   d="M 441.6,64.3 C 441.5,67 441,91.1 441,105.9 v 21.4 c 2.8,0 16.6,0 26,-0.5 l 0.1,21.8 c -2.8,0 -43.4,-1.2 -52.8,-1.2 0.4,-6.2 0.4,-31.3 0.4,-34.1 V 97.8 c 0,-1.9 -0.2,-31.3 -0.5,-33.5 z" />
	<path
   id="XMLID_97_"
   class="st6"
   d="m 533.8,148.6 c -4.2,0 -46.5,-1.2 -52.6,-1.2 0.4,-6.2 0.4,-31.3 0.4,-34 V 97.8 c 0,-1.9 -0.2,-30.1 -0.4,-33.5 6.6,0 45.9,-1.8 50.2,-2.1 l 0.5,19.3 c -4.3,0 -22.7,0.6 -24.8,0.6 v 15.5 c 2.3,0 15.8,-0.6 21,-1.1 l 0.4,18.7 c -3.2,0 -18.7,-0.5 -21.3,-0.5 v 13.9 c 3,0 20.7,0.2 26.2,-0.2 z" />
</g>
<circle
   id="XMLID_34_"
   class="st5"
   cx="113.1"
   cy="111.10001"
   r="13.9" />
<g
   id="XMLID_37_"
   style="display:inline"
   transform="translate(-14.8,-30.2)">
	<path
   id="XMLID_51_"
   class="st7"
   d="m 31.3,186 v 16.3 H 26.9 V 186 h -5.5 v -4 h 15.5 v 4 z" />
	<path
   id="XMLID_53_"
   class="st7"
   d="m 72.1,182 -2.3,6.2 c -0.9,2.4 -1.7,4.7 -2.6,7 -0.9,2.3 -1.7,4.7 -2.6,7 H 60 l -7,-20.3 h 5 L 62.9,198 H 63 c 0,-0.4 0.1,-1 0.3,-1.8 0.1,-0.8 0.3,-1.7 0.6,-2.7 0.2,-1 0.5,-2.2 0.8,-3.5 0.3,-1.3 0.7,-2.6 1.1,-4 l 1.2,-4.1 h 5.1 z" />
	<path
   id="XMLID_55_"
   class="st7"
   d="M 112.9,202.3 V 182 h 4.4 v 16.3 h 7.9 v 4 z" />
	<path
   id="XMLID_57_"
   class="st7"
   d="m 143.2,202.3 v -17.5 h 9.9 v 3.3 h -6 v 3.8 h 5.7 v 3.2 h -5.7 v 4.1 h 6.2 v 3.3 h -10.1 z" />
	<path
   id="XMLID_59_"
   class="st7"
   d="m 180.5,202.3 -1,-3.4 h -5.8 l -1,3.4 h -4.3 l 6.4,-17.5 h 4 l 6.1,17.5 z m -4.2,-14 v 0 c -0.1,0.3 -0.2,0.8 -0.2,1.3 -0.1,0.5 -0.2,1 -0.3,1.6 -0.1,0.6 -0.2,1.1 -0.4,1.7 -0.1,0.6 -0.2,1 -0.4,1.5 l -0.3,1.3 h 3.9 z" />
	<path
   id="XMLID_62_"
   class="st7"
   d="m 204.4,202.3 h -3.8 v -17.5 c 2.1,-0.1 4.3,-0.1 6.5,-0.1 0.9,0 1.8,0.1 2.5,0.4 0.7,0.3 1.3,0.6 1.8,1.1 0.5,0.5 0.9,1 1.2,1.7 0.3,0.7 0.4,1.4 0.4,2.1 0,0.6 -0.1,1.1 -0.3,1.6 -0.2,0.5 -0.4,1 -0.8,1.4 -0.3,0.4 -0.7,0.8 -1.2,1.2 -0.5,0.3 -1,0.6 -1.5,0.8 l 4.9,7.2 h -4.8 l -3.8,-6.4 c -0.2,0 -0.4,0 -0.6,0 -0.2,0 -0.4,0 -0.5,0 z m 0,-9.6 c 0.3,0 0.6,0.1 0.9,0.1 0.3,0 0.6,0 0.9,0 0.8,0 1.5,-0.3 2,-0.7 0.5,-0.4 0.7,-1 0.7,-1.7 0,-0.3 -0.1,-0.6 -0.2,-0.9 -0.1,-0.3 -0.3,-0.5 -0.5,-0.8 -0.2,-0.2 -0.5,-0.4 -0.8,-0.5 -0.3,-0.1 -0.7,-0.2 -1.2,-0.2 h -1.8 v 4.6 z" />
	<path
   id="XMLID_65_"
   class="st7"
   d="m 241.1,202.3 c -0.1,0 -0.2,-0.1 -0.3,-0.3 -0.2,-0.2 -0.3,-0.4 -0.5,-0.7 -0.2,-0.3 -0.4,-0.6 -0.7,-1 -0.2,-0.4 -0.5,-0.7 -0.7,-1 -0.2,-0.3 -0.4,-0.6 -0.5,-0.8 -0.2,-0.2 -0.3,-0.4 -0.3,-0.5 l -5.1,-7.9 h -0.1 c 0.1,0.5 0.2,1 0.3,1.7 0.1,0.7 0.1,1.3 0.2,2 0.1,0.7 0.1,1.5 0.1,2.2 0,0.8 0,1.5 0,2.2 v 4 h -3.7 v -17.5 h 4.2 l 7.8,12.1 h 0.1 c -0.2,-1 -0.3,-2.2 -0.5,-3.7 -0.1,-1.4 -0.2,-2.9 -0.2,-4.5 v -3.9 h 3.6 v 17.5 h -3.7 z" />
	<path
   id="XMLID_67_"
   class="st7"
   d="m 261.8,202.3 v -17.5 h 3.8 v 17.5 z" />
	<path
   id="XMLID_69_"
   class="st7"
   d="m 293.9,202.3 c -0.1,0 -0.2,-0.1 -0.3,-0.3 -0.2,-0.2 -0.3,-0.4 -0.5,-0.7 -0.2,-0.3 -0.4,-0.6 -0.7,-1 -0.2,-0.4 -0.5,-0.7 -0.7,-1 -0.2,-0.3 -0.4,-0.6 -0.5,-0.8 -0.2,-0.2 -0.3,-0.4 -0.3,-0.5 l -5.1,-7.9 h -0.1 c 0.1,0.5 0.2,1 0.3,1.7 0.1,0.7 0.1,1.3 0.2,2 0.1,0.7 0.1,1.5 0.1,2.2 0,0.8 0,1.5 0,2.2 v 4 h -3.7 v -17.5 h 4.2 l 7.8,12.1 h 0.1 c -0.2,-1 -0.3,-2.2 -0.5,-3.7 -0.1,-1.4 -0.2,-2.9 -0.2,-4.5 v -3.9 h 3.6 v 17.5 h -3.7 z" />
	<path
   id="XMLID_74_"
   class="st7"
   d="m 381.3,183.9 c 0,0.4 0,0.9 0,1.3 0,0.4 0,0.8 -0.1,1.1 0,0.3 0,0.6 -0.1,0.8 -0.7,-0.5 -1.5,-0.8 -2.3,-1 -0.8,-0.2 -1.6,-0.3 -2.4,-0.3 -0.8,0 -1.5,0.1 -1.9,0.4 -0.5,0.3 -0.8,0.6 -0.8,1.1 0,0.5 0.2,1 0.6,1.3 0.4,0.4 1,0.7 1.6,1 0.6,0.3 1.3,0.7 2.1,1 0.8,0.3 1.4,0.8 2.1,1.3 0.6,0.5 1.2,1.1 1.6,1.8 0.4,0.7 0.6,1.6 0.6,2.6 0,1 -0.2,1.8 -0.6,2.5 -0.4,0.7 -1,1.3 -1.8,1.8 -0.8,0.5 -1.6,0.8 -2.6,1.1 -1,0.3 -2.1,0.4 -3.2,0.4 -0.7,0 -1.4,0 -2.2,-0.1 -0.8,-0.1 -1.5,-0.2 -2.1,-0.4 0,-0.8 0,-1.6 0.1,-2.4 0,-0.9 0.1,-1.6 0.1,-2.1 0.8,0.4 1.6,0.8 2.4,0.9 0.8,0.2 1.7,0.3 2.6,0.3 1,0 1.7,-0.1 2.2,-0.3 0.5,-0.2 0.8,-0.6 0.8,-1.2 0,-0.5 -0.2,-1 -0.6,-1.3 -0.4,-0.4 -1,-0.7 -1.6,-1.1 -0.6,-0.3 -1.3,-0.7 -2.1,-1.1 -0.8,-0.4 -1.4,-0.8 -2.1,-1.3 -0.6,-0.5 -1.2,-1.1 -1.6,-1.8 -0.4,-0.7 -0.6,-1.5 -0.6,-2.5 0,-0.9 0.2,-1.8 0.6,-2.5 0.4,-0.7 1,-1.3 1.8,-1.8 0.7,-0.5 1.6,-0.9 2.6,-1.1 1,-0.2 2,-0.4 3.1,-0.4 0.6,0 1.3,0 2,0.1 0.7,0.1 1.4,0.2 1.9,0.4 -0.1,0.6 -0.1,1 -0.1,1.5 z" />
	<path
   id="XMLID_76_"
   class="st7"
   d="M 410.4,202.3 V 195 l -5.9,-10.3 h 4.4 l 3.7,7.3 c 0,-0.1 0.1,-0.4 0.3,-0.7 0.2,-0.4 0.4,-0.8 0.6,-1.3 0.2,-0.5 0.5,-1 0.7,-1.5 0.3,-0.5 0.5,-1 0.7,-1.4 l 1.2,-2.3 h 4.4 l -1.8,2.8 c -0.7,1.1 -1.5,2.3 -2.3,3.5 -0.8,1.2 -1.5,2.2 -2.2,3.2 v 8.1 h -3.8 z" />
	<path
   id="XMLID_78_"
   class="st7"
   d="m 444.9,186.3 c 0,0.4 0,0.8 0,1.1 0,0.3 0,0.7 -0.1,1 0,0.3 0,0.5 -0.1,0.7 -0.6,-0.4 -1.3,-0.7 -2,-0.9 -0.7,-0.1 -1.4,-0.2 -2.1,-0.2 -0.7,0 -1.3,0.1 -1.7,0.3 -0.4,0.2 -0.7,0.6 -0.7,1 0,0.5 0.2,0.8 0.6,1.2 0.4,0.3 0.8,0.6 1.4,0.9 0.6,0.3 1.2,0.6 1.8,0.9 0.7,0.3 1.3,0.7 1.8,1.1 0.5,0.4 1,1 1.4,1.6 0.4,0.6 0.6,1.4 0.6,2.3 0,0.8 -0.2,1.6 -0.6,2.2 -0.4,0.6 -0.9,1.2 -1.5,1.6 -0.6,0.4 -1.4,0.7 -2.3,0.9 -0.9,0.2 -1.8,0.3 -2.8,0.3 -0.6,0 -1.2,0 -1.9,-0.1 -0.7,-0.1 -1.3,-0.2 -1.8,-0.4 0,-0.7 0,-1.4 0.1,-2.1 0,-0.8 0.1,-1.4 0.1,-1.8 0.7,0.4 1.4,0.7 2.1,0.8 0.7,0.2 1.5,0.2 2.2,0.2 0.8,0 1.5,-0.1 1.9,-0.3 0.4,-0.2 0.6,-0.5 0.6,-1 0,-0.5 -0.2,-0.8 -0.6,-1.2 -0.4,-0.3 -0.8,-0.6 -1.4,-0.9 -0.6,-0.3 -1.2,-0.6 -1.8,-0.9 -0.6,-0.3 -1.3,-0.7 -1.8,-1.1 -0.6,-0.4 -1,-0.9 -1.4,-1.5 -0.4,-0.6 -0.6,-1.3 -0.6,-2.2 0,-0.8 0.2,-1.5 0.6,-2.2 0.4,-0.6 0.9,-1.2 1.5,-1.6 0.6,-0.4 1.4,-0.8 2.2,-1 0.8,-0.2 1.7,-0.3 2.7,-0.3 0.5,0 1.1,0 1.7,0.1 0.6,0.1 1.2,0.2 1.6,0.4 0.3,0.4 0.3,0.7 0.3,1.1 z" />
	<path
   id="XMLID_80_"
   class="st7"
   d="m 468.9,188.2 v 14.1 H 465 v -14.1 h -4.8 v -3.4 h 13.4 v 3.4 z" />
	<path
   id="XMLID_82_"
   class="st7"
   d="m 487.7,202.3 v -17.5 h 9.9 v 3.3 h -6 v 3.8 h 5.7 v 3.2 h -5.7 v 4.1 h 6.2 v 3.3 h -10.1 z" />
	<path
   id="XMLID_84_"
   class="st7"
   d="m 514.3,184.7 h 4.4 l 4.2,12.8 h 0.1 c 0,-0.1 0.1,-0.4 0.1,-0.7 0.1,-0.4 0.2,-0.8 0.3,-1.4 0.1,-0.5 0.3,-1.1 0.5,-1.8 0.2,-0.7 0.4,-1.4 0.6,-2.1 l 0.5,-1.6 c 0.2,-0.6 0.4,-1.1 0.5,-1.6 0.2,-0.5 0.3,-0.9 0.5,-1.3 0.1,-0.4 0.3,-0.8 0.4,-1.2 0.1,-0.4 0.3,-0.8 0.4,-1.2 h 4.3 l 2,17.5 h -4 L 528,189.7 v 0 c 0,0.1 0,0.3 -0.1,0.7 -0.1,0.4 -0.2,0.9 -0.4,1.4 -0.2,0.5 -0.3,1.2 -0.5,1.8 -0.2,0.6 -0.4,1.3 -0.6,2 l -0.5,1.6 c -0.3,0.8 -0.5,1.6 -0.8,2.4 -0.3,0.8 -0.6,1.6 -0.9,2.4 h -3.6 l -3.9,-12.3 h -0.1 c 0,0.1 0,0.5 0,1.1 0,0.6 0,1.3 -0.1,2.1 0,0.8 -0.1,1.7 -0.1,2.7 0,1 -0.1,1.9 -0.1,2.7 l -0.2,3.9 H 512 Z" />
</g>

<path
   id="XMLID_72_"
   class="st8"
   d="m 311.3,160 c -0.1,-0.2 -0.2,-0.4 -0.3,-0.6 -0.4,-0.5 -0.8,-0.9 -1.4,-1.2 -0.6,-0.3 -1.2,-0.5 -1.9,-0.5 -0.8,0 -1.4,0.1 -2,0.4 -0.6,0.3 -1,0.7 -1.4,1.1 -0.4,0.5 -0.6,1.1 -0.8,1.7 -0.2,0.6 -0.2,1.4 -0.2,2.2 0,0.7 0.1,1.4 0.3,2.1 0.2,0.7 0.5,1.3 0.8,1.8 0.4,0.5 0.8,0.9 1.4,1.2 0.5,0.3 1.2,0.5 1.9,0.5 0.8,0 1.4,-0.1 2,-0.4 0.6,-0.3 1,-0.7 1.4,-1.1 0.4,-0.5 0.6,-1.1 0.8,-1.7 0.2,-0.6 0.3,-1.4 0.3,-2.2 0,-0.2 0,-0.4 0,-0.6"
   style="display:inline" />
<path
   id="XMLID_86_"
   class="st7"
   d="m 316.2,162.7 h -2.1 -2 -4.4 v 2.7 h 4.2 c 0,0.1 0,0.1 0,0.2 -0.2,0.7 -0.4,1.3 -0.8,1.7 -0.4,0.5 -0.8,0.9 -1.4,1.1 -0.6,0.2 -1.2,0.4 -2,0.4 -0.7,0 -1.3,-0.2 -1.9,-0.5 -0.5,-0.3 -1,-0.7 -1.4,-1.2 -0.4,-0.5 -0.7,-1.1 -0.8,-1.8 -0.1,-0.7 -0.3,-1.4 -0.3,-2.1 0,-0.8 0.1,-1.5 0.2,-2.2 0.1,-0.7 0.4,-1.3 0.8,-1.7 0.4,-0.5 0.8,-0.9 1.4,-1.1 0.6,-0.2 1.2,-0.4 2,-0.4 0.7,0 1.3,0.2 1.9,0.5 0.6,0.3 1,0.7 1.4,1.2 0.1,0.2 0.2,0.4 0.3,0.6 h 4.4 c 0,-0.1 0,-0.1 -0.1,-0.2 -0.3,-1 -0.8,-2 -1.5,-2.8 -0.7,-0.8 -1.5,-1.4 -2.4,-1.9 -0.9,-0.5 -2.1,-0.7 -3.4,-0.7 -1.4,0 -2.6,0.2 -3.7,0.7 -1.1,0.5 -2.1,1.1 -2.9,1.9 -0.8,0.8 -1.4,1.8 -1.9,2.8 -0.4,1.1 -0.7,2.3 -0.7,3.5 0,1.2 0.2,2.3 0.5,3.3 0.3,1 0.8,2 1.4,2.7 0.6,0.8 1.5,1.4 2.4,1.9 0.9,0.5 2.1,0.7 3.5,0.7 1.3,0 2.6,-0.2 3.7,-0.7 1.1,-0.5 2.1,-1.1 2.9,-1.9 0.8,-0.8 1.4,-1.7 1.9,-2.8 0.5,-1.1 0.7,-2.3 0.7,-3.5 0.1,-0.1 0.1,-0.2 0.1,-0.4 z"
   style="display:inline"
   inkscape:label="G" />
<g
   id="XMLID_35_"
   style="display:inline"
   transform="translate(-14.8,-30.2)">
</g>
<g
   id="XMLID_101_"
   style="display:inline"
   transform="translate(-14.8,-30.2)">
</g>
<g
   id="XMLID_102_"
   style="display:inline"
   transform="translate(-14.8,-30.2)">
</g>
<g
   id="XMLID_103_"
   style="display:inline"
   transform="translate(-14.8,-30.2)">
</g>
<g
   id="XMLID_104_"
   style="display:inline"
   transform="translate(-14.8,-30.2)">
</g>
<g
   id="XMLID_105_"
   style="display:inline"
   transform="translate(-14.8,-30.2)">
</g>
</svg>
