<?xml version="1.0" encoding="UTF-8" standalone="no"?>
<!-- Created with Inkscape (http://www.inkscape.org/) -->

<svg
   width="117.43232mm"
   height="40.350868mm"
   viewBox="0 0 117.43232 40.350869"
   version="1.1"
   id="svg841"
   inkscape:version="1.1.2 (0a00cf5339, 2022-02-04)"
   sodipodi:docname="zeldac.svg"
   xmlns:inkscape="http://www.inkscape.org/namespaces/inkscape"
   xmlns:sodipodi="http://sodipodi.sourceforge.net/DTD/sodipodi-0.dtd"
   xmlns="http://www.w3.org/2000/svg"
   xmlns:svg="http://www.w3.org/2000/svg">
  <sodipodi:namedview
     id="namedview843"
     pagecolor="#000000"
     bordercolor="#111111"
     borderopacity="1"
     inkscape:pageshadow="0"
     inkscape:pageopacity="0"
     inkscape:pagecheckerboard="1"
     inkscape:document-units="px"
     showgrid="false"
     showguides="true"
     inkscape:guide-bbox="true"
     fit-margin-top="0"
     fit-margin-left="-0.2"
     fit-margin-right="0"
     fit-margin-bottom="0"
     inkscape:zoom="0.38930275"
     inkscape:cx="719.23458"
     inkscape:cy="188.79908"
     inkscape:window-width="1366"
     inkscape:window-height="703"
     inkscape:window-x="0"
     inkscape:window-y="0"
     inkscape:window-maximized="1"
     inkscape:current-layer="layer1"
     scale-x="1">
    <sodipodi:guide
       position="41.131211,0.36594574"
       orientation="0,-1"
       id="guide140180" />
  </sodipodi:namedview>
  <defs
     id="defs838" />
  <g
     inkscape:label="Zelda Classic Logo"
     inkscape:groupmode="layer"
     id="layer1"
     transform="translate(-38.69993,-149.16879)">
    <text
       xml:space="preserve"
       style="font-size:0.15875px;line-height:1.25;font-family:TrasksHand;-inkscape-font-specification:TrasksHand;fill:#ffffff;fill-opacity:0.5;stroke-width:0.079375"
       x="69.904663"
       y="159.09688"
       id="text12121"
       inkscape:label="Signature"><tspan
         sodipodi:role="line"
         id="tspan12119"
         style="fill:#ffffff;fill-opacity:0.5;stroke-width:0.079375"
         x="69.904663"
         y="159.09688">John Loreth 2022</tspan></text>
    <text
       xml:space="preserve"
       style="font-style:normal;font-variant:normal;font-weight:500;font-stretch:normal;font-size:35.7232px;line-height:1.25;font-family:'Zapf Intl ITC Std';-inkscape-font-specification:'Zapf Intl ITC Std Medium';display:inline;fill:#e20d11;fill-opacity:1;stroke-width:0.264583"
       x="37.362667"
       y="172.48364"
       id="text2470"
       transform="scale(1.0063829,0.99365759)"
       inkscape:label="Zelda"><tspan
         sodipodi:role="line"
         id="tspan2468"
         style="font-style:normal;font-variant:normal;font-weight:500;font-stretch:normal;font-family:'Zapf Intl ITC Std';-inkscape-font-specification:'Zapf Intl ITC Std Medium';fill:#e20d11;fill-opacity:1;stroke-width:0.264583"
         x="37.362667"
         y="172.48364">ZELDA</tspan></text>
    <text
       xml:space="preserve"
       style="font-size:7.32786px;line-height:1.25;font-family:Abel;-inkscape-font-specification:Abel;display:inline;fill:#ba9453;fill-opacity:1;stroke-width:0.264583"
       x="101.22719"
       y="185.41447"
       id="text17595"
       transform="scale(1.0233912,0.97714344)"
       inkscape:label="Classic"><tspan
         sodipodi:role="line"
         id="tspan17593"
         style="font-style:normal;font-variant:normal;font-weight:normal;font-stretch:normal;font-family:'Nintendo NES Font';-inkscape-font-specification:'Nintendo NES Font';fill:#ba9453;fill-opacity:1;stroke-width:0.264583"
         x="101.22719"
         y="185.41447">CLASSIC</tspan></text>
    <g
       inkscape:label="Link"
       id="g27126"
       transform="matrix(0.02050624,0,0,0.0202072,70.045631,176.80924)"
       style="display:inline;stroke-width:12.9978">
      <path
         style="display:inline;opacity:0.98;fill:#c94b0e;fill-opacity:1;stroke:none;stroke-width:12.9978"
         d="M 465.66204,407.01532 H 45.263004 l -0.407938,-53.28938 -43.90924065,0.0425 v -36.94676 l 43.93561665,0.0223 -0.06267,-43.99826 420.888278,0.17229 z"
         id="path27220"
         sodipodi:nodetypes="ccccccccc"
         inkscape:label="Sword Blade" />
      <path
         id="rect32956"
         style="display:inline;opacity:0.98;fill:#6fd903;fill-opacity:0.980392;stroke:#6fd903;stroke-width:12.9978;stroke-opacity:0.980392"
         d="m 546.65527,353.3428 h 42.31697 v 43.97783 h -42.31697 z m -36.17025,85.31589 h 36.07349 v 37.27664 H 510.48502 Z M 464.88318,194.7518 h 45.60187 v 281.18353 h -45.60187 z"
         inkscape:label="Hilt" />
      <path
         id="rect28763"
         style="display:inline;opacity:0.98;fill:#72d804;fill-opacity:1;stroke:#72d804;stroke-width:12.9978;stroke-opacity:1"
         d="m 783.76227,80.033989 h 76.39096 V 122.86958 H 783.76227 Z M 739.61328,69.424805 H 913.00786 V 80.231699 H 739.61328 Z M 1035.9432,202.58151 h 46.8351 v 72.24264 h -46.8351 z m -76.07888,-44.43559 h 78.74648 v 89.86392 H 959.86432 Z M 913.00787,70.381737 h 89.77803 V 195.96093 H 913.00787 Z M 739.66095,35.368855 H 960.17136 V 70.333763 H 739.66095 Z M 694.45276,1.3688543 h 185.6136 V 36.333763 h -185.6136 z"
         inkscape:label="Hat" />
      <path
         id="rect29541"
         style="display:inline;opacity:0.98;fill:#cb4d10;fill-opacity:1;stroke-width:12.9978"
         d="m 809.50201,237.62822 h 44.53132 v 35.05672 h -44.53132 z m 44.53132,-41.97469 H 960.4557 v 77.03141 H 854.03333 Z M 748.57129,159.60159 h 35.19099 v 78.36905 h -35.19099 z m 35.19098,-36.73201 h 59.99689 v 36.61756 H 783.76227 Z M 739.66095,80.033989 h 44.10132 V 159.60159 H 739.66095 Z M 580.32043,35.368855 h 9.34264 v 44.8269 h -9.34264 z m -53.49896,43.607509 h 63.38464 V 123.73895 H 526.82147 Z M 589.66309,35.368855 H 739.66095 V 159.6016 H 589.66309 Z"
         inkscape:label="Hair" />
      <path
         id="rect30532"
         style="display:inline;opacity:0.98;fill:#6fd903;fill-opacity:1;stroke-width:12.9978"
         d="m 634.56757,519.8714 h 156.90667 v 34.72566 H 634.56757 Z m 32.36438,-81.22501 h 124.54229 v 37.16813 H 666.93195 Z m 246.32898,-0.37079 h 56.78049 v 40.1518 h -56.78049 z m -121.78669,37.53891 h 178.56708 v 78.78253 H 791.47424 Z m 262.59646,-37.16433 h 36.8238 v 37.42733 h -36.8238 z m -49.4583,-44.62827 h 51.5473 v 126.16353 h -51.5473 z m -74.2031,-74.86716 h 39.63201 v 43.78211 H 930.4093 Z m 37.63202,-2 h 43.96138 V 554.59702 H 968.04132 Z M 748.57129,271.86658 h 219.46995 v 47.28818 H 748.57129 Z"
         inkscape:label="Tunic" />
      <path
         id="rect31520"
         style="display:inline;opacity:0.98;fill:#cb4d10;fill-opacity:1;stroke:#cb4d10;stroke-width:12.9978;stroke-opacity:1"
         d="m 974.65265,554.5733 h 36.59405 v 44.47028 h -36.59405 z m 36.59405,-35.08758 h 79.0292 v 79.55788 h -79.0292 z m 42.824,-45.87061 h 80.3718 v 89.71152 h -80.3718 z m -509.88082,45.35651 h 44.86332 v 35.6254 h -44.86332 z m -61.04736,35.62543 h 186.00821 v 43.73116 H 483.14252 Z m 105.9107,-78.78254 h 45.51435 v 78.78255 h -45.51435 z m 0,-44.55157 h 77.87872 v 44.55157 h -77.87872 z m 45.51435,44.55157 H 791.47424 V 519.8714 H 634.56757 Z M 791.47424,438.2756 h 121.78669 v 37.53891 H 791.47424 Z m 138.935,-75.33874 h 43.67105 V 438.2756 H 930.40924 Z M 666.93195,319.15475 H 930.4093 V 438.64639 H 666.93195 Z"
         inkscape:label="Body" />
      <path
         id="rect32710"
         style="display:inline;opacity:0.98;fill:#f89739;fill-opacity:1;stroke:#f89739;stroke-width:12.9978;stroke-opacity:1"
         d="m 580.07068,229.99875 h 24.33855 v 45.74736 H 580.07068 Z M 510.48505,194.7518 h 88.67772 v 36.00468 h -88.67772 z m 79.17804,-35.15021 h 78.06157 v 87.17739 h -78.06157 z m -79.42667,187.18305 h 36.64028 v 50.53599 h -36.64028 z m 0,-73.82151 h 79.27437 V 353.487 h -79.27437 z m 78.73575,-26.18414 h 78.7525 V 397.3206 h -78.7525 z M 843.70233,122.86958 h 10.33102 v 36.73202 h -10.33102 z m 9.49085,-42.637883 h 59.81469 V 196.19936 h -59.81469 z m -70.67865,79.369893 h 71.51882 v 78.02663 h -71.51882 z m -33.94324,77.36583 h 60.93072 v 35.71753 h -60.93072 z m -81.63934,-77.36583 h 81.63934 v 159.55316 h -81.63934 z"
         inkscape:label="Skin" />
      <rect
         style="opacity:0.98;fill:#6fd903;fill-opacity:1;stroke:none;stroke-width:12.9978"
         id="rect32768"
         width="42.990105"
         height="42.859665"
         x="615.65588"
         y="159.5426"
         inkscape:label="Green Eye" />
      <rect
         style="opacity:0.98;fill:#cb4d10;fill-opacity:0.980392;stroke:none;stroke-width:12.9978"
         id="rect32930"
         width="42.990105"
         height="42.859665"
         x="615.65588"
         y="203.5426"
         inkscape:label="Brown Eye" />
    </g>
    <g
       inkscape:label="Moblin"
       id="g105686"
       transform="matrix(0.16703163,0,0,0.16703495,49.701644,175.08962)"
       style="stroke-width:1.98003">
      <path
         id="rect107703"
         style="display:inline;opacity:0.98;fill:#008888;fill-opacity:1;stroke:#008888;stroke-width:1.98003;stroke-opacity:1"
         d="M 0.02833422,63.812649 H 11.138254 v 5.173723 H 0.02833422 Z M 58.300308,74.398857 H 74.10576 v 5.105624 H 58.300308 Z M 48.08223,79.504478 H 69.606243 V 85.39933 H 48.08223 Z M 11.072883,74.384834 h 4.683406 v 11.0145 h -4.683406 z m 26.618443,-0.02953 h 5.293864 v 6.069873 h -5.293864 z m -5.336742,0 h 5.336744 V 85.39933 H 32.354584 Z M 15.756289,69.087624 H 32.354586 V 85.39933 H 15.756289 Z M 37.295166,48.530678 h 5.659282 V 58.945794 H 37.295166 Z M 21.009054,42.691505 h 5.530374 v 10.996024 h -5.530374 z m 5.530375,0 H 37.473964 V 64.210529 H 26.539429 Z m 0,-10.329368 H 42.291608 V 42.691506 H 26.539429 Z m 37.25119,25.890152 h 5.1127 v 5.580664 h -5.1127 z M 68.90332,53.78072 h 5.474297 V 63.832953 H 68.90332 Z m 5.474297,-11.262749 h 5.870479 V 53.780719 H 74.377617 Z M 64.356598,37.615372 h 10.021019 v 4.883705 H 64.356598 Z M 59.01997,42.499077 H 74.377617 V 53.78072 H 59.01997 Z M 74.377617,31.66363 H 85.286992 V 42.499078 H 74.377617 Z M 63.77422,5.4139972 h 5.328563 V 10.766591 H 63.77422 Z m 5.328563,5.3525938 h 5.102022 v 5.575896 h -5.102022 z m 0.05702,15.789367 h 5.916858 v 5.805791 h -5.916858 z m -4.803207,-5.619459 h 15.259156 v 6.075706 H 64.356598 Z m -6.493572,0 h 6.493573 V 37.61537 H 57.863026 Z M 32.223877,-0.01013896 H 37.60555 V 4.9353547 h -5.381673 z m 5.381672,0 h 4.686056 V 11.160946 H 37.605549 Z M 36.998154,15.741518 h 5.446165 V 27.05654 H 36.998154 Z M 47.58543,32.362137 h 5.429708 V 43.011889 H 47.58543 Z M 42.291607,-0.01013896 H 53.015139 V 32.362137 H 42.291607 Z m 10.72353,0 h 6.004832 V 53.78072 h -6.004832 z"
         inkscape:label="Skin" />
      <path
         id="rect108214"
         style="display:inline;opacity:0.98;fill:#000000;fill-opacity:1;stroke:#000000;stroke-width:1.98003;stroke-opacity:1"
         inkscape:label="Clothes"
         d="m 59.014496,5.4605265 h 4.759725 v 5.3060645 h -4.759725 z m 4.759724,5.3060645 h 5.328563 v 5.575896 H 63.77422 Z m 5.328563,5.575896 h 10.512969 v 4.594012 H 69.102783 Z M 75.07666,26.555958 H 85.286991 V 31.66363 H 75.07666 Z m -5.916855,5.80579 h 5.217814 v 5.253623 H 69.159805 Z M 59.01997,37.615372 h 5.336628 v 4.883705 H 59.01997 Z M 36.998154,27.05654 h 5.293454 v 5.305596 h -5.293454 z m 0.475811,15.634965 h 5.480484 v 5.839173 h -5.480484 z m 4.817642,-10.329368 h 5.293822 v 10.649752 h -5.293822 z m 0,10.329368 H 53.015136 V 53.78072 H 42.291607 Z M 26.546169,64.210526 h 5.808415 v 4.983734 h -5.808415 z m 5.808415,0 h 5.11938 v 10.144775 h -5.11938 z m 4.940582,-5.264733 h 5.690024 v 15.40951 h -5.690024 z m 21.005142,-0.693504 h 5.490311 v 16.146568 h -5.490311 z m -15.345859,0 H 58.300308 V 79.50448 H 42.954449 Z M 11.138254,69.19426 h 4.618035 v 5.190574 h -4.618035 z m 0,-5.381611 H 26.54617 v 5.381608 H 11.138254 Z M 5.4411087,58.621098 H 26.600376 v 5.255297 H 5.4411087 Z m 0,-15.612175 H 10.356876 V 53.681866 H 5.4411087 Z m 4.9157673,0 H 21.009054 V 53.687529 H 10.356876 Z M 5.4411087,32.362137 h 4.9157673 v 5.204597 H 5.4411087 Z M 16.102457,16.057419 h 6.486667 v 5.446502 h -6.486667 z m -5.745581,5.446503 H 22.589123 V 32.362137 H 10.356876 Z m 0,10.858215 H 26.539429 V 43.008922 H 10.356876 Z M 21.471205,11.160946 H 37.605549 V 32.362137 H 21.471205 Z m 16.134344,0 h 4.83877 v 4.580572 h -4.83877 z" />
      <path
         id="rect127969"
         style="opacity:0.98;fill:#e4133a;stroke:#e4133a;stroke-width:1.98003"
         d="m 42.352554,58.252288 h 26.611709 v 0.879516 H 42.352554 Z m 0,-4.471569 h 0.662842 v 4.471569 H 42.352554 Z M 5.5020557,37.566733 h 4.9157673 v 5.44219 H 5.5020557 Z m 0,16.120797 H 26.600376 v 4.933568 H 5.5020557 Z M 37.752273,80.425178 h 5.293862 v 4.974153 h -5.293862 z m 31.914913,-0.920701 h 4.499517 v 5.894849 H 69.667186 Z M 43.015396,53.780719 h 25.948871 v 4.471569 H 43.015396 Z M 64.417545,27.012204 h 4.803207 V 37.61537 h -4.803207 z m 0,-10.669718 h 4.746185 v 4.594012 H 64.417545 Z M 59.075443,10.76659 h 5.3421 v 10.169908 h -5.3421 z"
         inkscape:label="Accents" />
      <rect
         style="display:inline;opacity:0.98;fill:#008888;fill-opacity:1;stroke:#008888;stroke-width:1.98003;stroke-opacity:1"
         id="rect128200"
         width="13.648345"
         height="0.7814256"
         x="27.649862"
         y="58.340111"
         inkscape:label="Patch" />
    </g>
  </g>
</svg>
