<?xml version="1.0" encoding="UTF-8" standalone="no"?>
<!-- Created with Inkscape (http://www.inkscape.org/) -->

<svg
   version="1.1"
   id="svg17872"
   width="794.58234"
   height="357.64096"
   viewBox="0 0 2304.2888 1037.1588"
   sodipodi:docname="adam.svg"
   inkscape:version="1.1.2 (0a00cf5339, 2022-02-04)"
   xmlns:inkscape="http://www.inkscape.org/namespaces/inkscape"
   xmlns:sodipodi="http://sodipodi.sourceforge.net/DTD/sodipodi-0.dtd"
   xmlns="http://www.w3.org/2000/svg"
   xmlns:svg="http://www.w3.org/2000/svg">
  <defs
     id="defs17876" />
  <sodipodi:namedview
     id="namedview17874"
     pagecolor="#000000"
     bordercolor="#111111"
     borderopacity="1"
     inkscape:pageshadow="0"
     inkscape:pageopacity="0"
     inkscape:pagecheckerboard="1"
     showgrid="false"
     showguides="true"
     inkscape:guide-bbox="true"
     inkscape:zoom="9.3515286"
     inkscape:cx="511.25332"
     inkscape:cy="57.156431"
     inkscape:window-width="1366"
     inkscape:window-height="703"
     inkscape:window-x="0"
     inkscape:window-y="0"
     inkscape:window-maximized="1"
     inkscape:current-layer="svg17872"
     fit-margin-top="0"
     fit-margin-left="0"
     fit-margin-right="0"
     fit-margin-bottom="0">
    <sodipodi:guide
       position="986.36813,-2093.8327"
       orientation="0,-1"
       id="guide17939" />
    <sodipodi:guide
       position="1768.6673,611.7367"
       orientation="0,-1"
       id="guide17943" />
    <sodipodi:guide
       position="230.89819,312.56728"
       orientation="-0.70710678,-0.70710678"
       id="guide18117" />
    <sodipodi:guide
       position="6436.7604,-1637.9936"
       orientation="-0.70710678,-0.70710678"
       id="guide18201" />
    <sodipodi:guide
       position="3416.2918,-2093.8327"
       orientation="1,0"
       id="guide19092" />
    <sodipodi:guide
       position="3155.5105,-933.94701"
       orientation="0,-1"
       id="guide19396" />
    <sodipodi:guide
       position="432.68894,-985.479"
       orientation="1,0"
       id="guide20335" />
    <sodipodi:guide
       position="5393.6879,-932.75082"
       orientation="1,0"
       id="guide20419" />
    <sodipodi:guide
       position="5064.3784,-312.67895"
       orientation="0,-1"
       id="guide20425" />
    <sodipodi:guide
       position="5355.0633,-925.27378"
       orientation="1,0"
       id="guide20552" />
    <sodipodi:guide
       position="5156.0517,-650.29535"
       orientation="0,-1"
       id="guide21266" />
    <sodipodi:guide
       position="4254.9666,-1021.2702"
       orientation="1,0"
       id="guide29200" />
    <sodipodi:guide
       position="5224.7864,-261.30026"
       orientation="0,-1"
       id="guide29441" />
    <sodipodi:guide
       position="5489.124,-1322.3827"
       orientation="1,0"
       id="guide29443" />
    <sodipodi:guide
       position="1574.4437,-996.3839"
       orientation="1,0"
       id="guide1828" />
    <sodipodi:guide
       position="2015.769,138.43414"
       orientation="1,0"
       id="guide924" />
  </sodipodi:namedview>
  <text
     xml:space="preserve"
     style="font-size:7.73334px;line-height:1.25;font-family:TrasksHand;-inkscape-font-specification:TrasksHand;fill:#f4f4f4;fill-opacity:0.5;stroke-width:2.9"
     x="1460.4987"
     y="131.64244"
     id="text120136"
     inkscape:label="Signature"><tspan
       sodipodi:role="line"
       id="tspan120134"
       style="fill:#f4f4f4;fill-opacity:0.5;stroke-width:2.9"
       x="1460.4987"
       y="131.64244">John Loreth 2022</tspan></text>
  <g
     inkscape:groupmode="layer"
     id="layer4"
     inkscape:label="Body"
     transform="translate(-39.570839,-60.015354)">
    <rect
       style="display:inline;fill:none;stroke:#f4f4f4;stroke-width:5.8;stroke-miterlimit:4;stroke-dasharray:none;stroke-opacity:1"
       id="rect18907"
       width="2302.2888"
       height="1035.1588"
       x="40.570839"
       y="61.015354"
       ry="6.2236953"
       inkscape:label="Body Outline"
       rx="6.2236953" />
    <rect
       style="display:inline;fill:none;stroke:#f4f4f4;stroke-width:5.8;stroke-miterlimit:4;stroke-dasharray:none;stroke-opacity:1"
       id="rect17967"
       width="1405.3051"
       height="91.623199"
       x="159.25111"
       y="80.874901"
       ry="8.8639135"
       inkscape:label="Logo Indent"
       rx="8.8639135" />
    <rect
       style="fill:none;stroke:#f4f4f4;stroke-width:5.8;stroke-miterlimit:4;stroke-dasharray:none;stroke-opacity:1"
       id="rect18497"
       width="2172.4619"
       height="790.0777"
       x="104.27095"
       y="196.59877"
       ry="27.201654"
       inkscape:label="Keyboard Outline"
       rx="27.201654" />
    <circle
       style="display:inline;fill:none;stroke:#f4f4f4;stroke-width:2.9;stroke-miterlimit:4;stroke-dasharray:none;stroke-opacity:1"
       id="path29596"
       cx="2056.8865"
       cy="1026.8934"
       r="10.054414"
       inkscape:label="Power Light" />
  </g>
  <g
     id="layer6"
     inkscape:label="Keyboard"
     transform="translate(-39.570839,-60.015354)"
     inkscape:groupmode="layer">
    <g
       id="g29193"
       inkscape:label="Space Row"
       transform="matrix(1.0009188,0,0,1,-16.386146,0)"
       style="stroke:#f4f4f4;stroke-width:5.79734;stroke-miterlimit:4;stroke-dasharray:none;stroke-opacity:1">
      <path
         id="path29187"
         style="fill:none;stroke:#f4f4f4;stroke-width:5.79734;stroke-miterlimit:4;stroke-dasharray:none;stroke-opacity:1"
         d="m 216.03249,834.15625 h 93.03006 c 1.44048,0 2.60014,1.15966 2.60014,2.60014 v 93.03006 c 0,1.44047 -1.15966,2.60013 -2.60014,2.60013 h -93.03006 c -1.44047,0 -2.60013,-1.15966 -2.60013,-2.60013 v -93.03006 c 0,-1.44048 1.15966,-2.60014 2.60013,-2.60014 z" />
      <rect
         style="fill:none;stroke:#f4f4f4;stroke-width:5.79734;stroke-miterlimit:4;stroke-dasharray:none;stroke-opacity:1"
         id="rect30126"
         width="923.14331"
         height="97.802025"
         x="569.08185"
         y="835.25623"
         ry="2.6001401"
         rx="2.5977533" />
    </g>
    <g
       id="g28455"
       inkscape:label="ZXC Row"
       transform="matrix(1.0003219,0,0,1,-15.895605,232.30246)"
       style="display:inline;stroke:#f4f4f4;stroke-width:5.79907;stroke-miterlimit:4;stroke-dasharray:none;stroke-opacity:1">
      <path
         id="path28427"
         style="fill:none;stroke:#f4f4f4;stroke-width:5.79907;stroke-miterlimit:4;stroke-dasharray:none;stroke-opacity:1"
         d="m 1162.3523,486.15625 h 93.0301 c 1.4405,0 2.6001,1.15966 2.6001,2.60014 v 93.03006 c 0,1.44047 -1.1596,2.60013 -2.6001,2.60013 h -93.0301 c -1.4404,0 -2.6001,-1.15966 -2.6001,-2.60013 v -93.03006 c 0,-1.44048 1.1597,-2.60014 2.6001,-2.60014 z" />
      <path
         id="path28429"
         style="fill:none;stroke:#f4f4f4;stroke-width:5.79907;stroke-miterlimit:4;stroke-dasharray:none;stroke-opacity:1"
         d="m 1044.3523,486.15625 h 93.0301 c 1.4405,0 2.6001,1.15966 2.6001,2.60014 v 93.03006 c 0,1.44047 -1.1596,2.60013 -2.6001,2.60013 h -93.0301 c -1.4404,0 -2.6001,-1.15966 -2.6001,-2.60013 v -93.03006 c 0,-1.44048 1.1597,-2.60014 2.6001,-2.60014 z" />
      <path
         id="path28431"
         style="fill:none;stroke:#f4f4f4;stroke-width:5.79907;stroke-miterlimit:4;stroke-dasharray:none;stroke-opacity:1"
         d="m 926.35233,486.15625 h 93.03007 c 1.4405,0 2.6001,1.15966 2.6001,2.60014 v 93.03006 c 0,1.44047 -1.1596,2.60013 -2.6001,2.60013 h -93.03007 c -1.44047,0 -2.60013,-1.15966 -2.60013,-2.60013 v -93.03006 c 0,-1.44048 1.15966,-2.60014 2.60013,-2.60014 z" />
      <path
         id="path28433"
         style="fill:none;stroke:#f4f4f4;stroke-width:5.79907;stroke-miterlimit:4;stroke-dasharray:none;stroke-opacity:1"
         d="m 808.35233,486.15625 h 93.03006 c 1.44048,0 2.60014,1.15966 2.60014,2.60014 v 93.03006 c 0,1.44047 -1.15966,2.60013 -2.60014,2.60013 h -93.03006 c -1.44047,0 -2.60013,-1.15966 -2.60013,-2.60013 v -93.03006 c 0,-1.44048 1.15966,-2.60014 2.60013,-2.60014 z" />
      <path
         id="path28435"
         style="fill:none;stroke:#f4f4f4;stroke-width:5.79907;stroke-miterlimit:4;stroke-dasharray:none;stroke-opacity:1"
         d="m 690.35233,486.15625 h 93.03006 c 1.44048,0 2.60014,1.15966 2.60014,2.60014 v 93.03006 c 0,1.44047 -1.15966,2.60013 -2.60014,2.60013 h -93.03006 c -1.44047,0 -2.60013,-1.15966 -2.60013,-2.60013 v -93.03006 c 0,-1.44048 1.15966,-2.60014 2.60013,-2.60014 z" />
      <path
         id="path28437"
         style="fill:none;stroke:#f4f4f4;stroke-width:5.79907;stroke-miterlimit:4;stroke-dasharray:none;stroke-opacity:1"
         d="m 572.35233,486.15625 h 93.03006 c 1.44048,0 2.60014,1.15966 2.60014,2.60014 v 93.03006 c 0,1.44047 -1.15966,2.60013 -2.60014,2.60013 h -93.03006 c -1.44047,0 -2.60013,-1.15966 -2.60013,-2.60013 v -93.03006 c 0,-1.44048 1.15966,-2.60014 2.60013,-2.60014 z" />
      <path
         id="path28439"
         style="fill:none;stroke:#f4f4f4;stroke-width:5.79907;stroke-miterlimit:4;stroke-dasharray:none;stroke-opacity:1"
         d="m 454.35233,486.15625 h 93.03006 c 1.44048,0 2.60014,1.15966 2.60014,2.60014 v 93.03006 c 0,1.44047 -1.15966,2.60013 -2.60014,2.60013 h -93.03006 c -1.44047,0 -2.60013,-1.15966 -2.60013,-2.60013 v -93.03006 c 0,-1.44048 1.15966,-2.60014 2.60013,-2.60014 z" />
      <path
         id="path28443"
         style="fill:none;stroke:#f4f4f4;stroke-width:5.79907;stroke-miterlimit:4;stroke-dasharray:none;stroke-opacity:1"
         d="m 1516.3523,486.15625 h 93.0301 c 1.4405,0 2.6001,1.15966 2.6001,2.60014 v 93.03006 c 0,1.44047 -1.1596,2.60013 -2.6001,2.60013 h -93.0301 c -1.4404,0 -2.6001,-1.15966 -2.6001,-2.60013 v -93.03006 c 0,-1.44048 1.1597,-2.60014 2.6001,-2.60014 z" />
      <path
         id="path28445"
         style="fill:none;stroke:#f4f4f4;stroke-width:5.79907;stroke-miterlimit:4;stroke-dasharray:none;stroke-opacity:1"
         d="m 1398.3523,486.15625 h 93.0301 c 1.4405,0 2.6001,1.15966 2.6001,2.60014 v 93.03006 c 0,1.44047 -1.1596,2.60013 -2.6001,2.60013 h -93.0301 c -1.4404,0 -2.6001,-1.15966 -2.6001,-2.60013 v -93.03006 c 0,-1.44048 1.1597,-2.60014 2.6001,-2.60014 z" />
      <path
         id="path28447"
         style="fill:none;stroke:#f4f4f4;stroke-width:5.79907;stroke-miterlimit:4;stroke-dasharray:none;stroke-opacity:1"
         d="m 1280.3523,486.15625 h 93.0301 c 1.4405,0 2.6001,1.15966 2.6001,2.60014 v 93.03006 c 0,1.44047 -1.1596,2.60013 -2.6001,2.60013 h -93.0301 c -1.4404,0 -2.6001,-1.15966 -2.6001,-2.60013 v -93.03006 c 0,-1.44048 1.1597,-2.60014 2.6001,-2.60014 z" />
      <rect
         style="fill:none;stroke:#f4f4f4;stroke-width:5.79907;stroke-miterlimit:4;stroke-dasharray:none;stroke-opacity:1"
         id="rect1625"
         width="256.04642"
         height="98.230637"
         x="176.16466"
         y="486.04932"
         rx="2.5100319"
         ry="2.51003" />
      <rect
         style="fill:none;stroke:#f4f4f4;stroke-width:5.79907;stroke-miterlimit:4;stroke-dasharray:none;stroke-opacity:1"
         id="rect1746"
         width="241.2896"
         height="98.230637"
         x="1631.6993"
         y="486.04932"
         rx="2.5100319"
         ry="2.51003" />
    </g>
    <g
       id="g20305"
       inkscape:label="ASD Row"
       transform="matrix(0.99051001,0,0,1,-14.474157,0)"
       style="display:inline;stroke:#f4f4f4;stroke-width:5.82772;stroke-miterlimit:4;stroke-dasharray:none;stroke-opacity:1">
      <rect
         style="display:inline;fill:none;stroke:#f4f4f4;stroke-width:5.82772;stroke-miterlimit:4;stroke-dasharray:none;stroke-opacity:1"
         id="rect2019"
         width="197.48837"
         height="98.230637"
         x="176.16692"
         y="602.04932"
         rx="2.5100319"
         ry="2.51003" />
      <path
         id="rect20091"
         style="display:inline;fill:none;stroke:#f4f4f4;stroke-width:5.82772;stroke-miterlimit:4;stroke-dasharray:none;stroke-opacity:1"
         d="m 1104.3523,602.15625 h 93.0301 c 1.4405,0 2.6001,1.15966 2.6001,2.60014 v 93.03006 c 0,1.44047 -1.1596,2.60013 -2.6001,2.60013 h -93.0301 c -1.4404,0 -2.6001,-1.15966 -2.6001,-2.60013 v -93.03006 c 0,-1.44048 1.1597,-2.60014 2.6001,-2.60014 z" />
      <path
         id="rect20096"
         style="fill:none;stroke:#f4f4f4;stroke-width:5.82772;stroke-miterlimit:4;stroke-dasharray:none;stroke-opacity:1"
         d="m 986.35233,602.15625 h 93.03007 c 1.4405,0 2.6001,1.15966 2.6001,2.60014 v 93.03006 c 0,1.44047 -1.1596,2.60013 -2.6001,2.60013 h -93.03007 c -1.44047,0 -2.60013,-1.15966 -2.60013,-2.60013 v -93.03006 c 0,-1.44048 1.15966,-2.60014 2.60013,-2.60014 z" />
      <path
         id="rect20232"
         style="fill:none;stroke:#f4f4f4;stroke-width:5.82772;stroke-miterlimit:4;stroke-dasharray:none;stroke-opacity:1"
         d="m 868.35233,602.15625 h 93.03006 c 1.44048,0 2.60014,1.15966 2.60014,2.60014 v 93.03006 c 0,1.44047 -1.15966,2.60013 -2.60014,2.60013 h -93.03006 c -1.44047,0 -2.60013,-1.15966 -2.60013,-2.60013 v -93.03006 c 0,-1.44048 1.15966,-2.60014 2.60013,-2.60014 z" />
      <path
         id="rect20234"
         style="fill:none;stroke:#f4f4f4;stroke-width:5.82772;stroke-miterlimit:4;stroke-dasharray:none;stroke-opacity:1"
         d="m 750.35233,602.15625 h 93.03006 c 1.44048,0 2.60014,1.15966 2.60014,2.60014 v 93.03006 c 0,1.44047 -1.15966,2.60013 -2.60014,2.60013 h -93.03006 c -1.44047,0 -2.60013,-1.15966 -2.60013,-2.60013 v -93.03006 c 0,-1.44048 1.15966,-2.60014 2.60013,-2.60014 z" />
      <path
         id="rect20236"
         style="fill:none;stroke:#f4f4f4;stroke-width:5.82772;stroke-miterlimit:4;stroke-dasharray:none;stroke-opacity:1"
         d="m 632.35233,602.15625 h 93.03006 c 1.44048,0 2.60014,1.15966 2.60014,2.60014 v 93.03006 c 0,1.44047 -1.15966,2.60013 -2.60014,2.60013 h -93.03006 c -1.44047,0 -2.60013,-1.15966 -2.60013,-2.60013 v -93.03006 c 0,-1.44048 1.15966,-2.60014 2.60013,-2.60014 z" />
      <path
         id="rect20238"
         style="fill:none;stroke:#f4f4f4;stroke-width:5.82772;stroke-miterlimit:4;stroke-dasharray:none;stroke-opacity:1"
         d="m 514.35233,602.15625 h 93.03006 c 1.44048,0 2.60014,1.15966 2.60014,2.60014 v 93.03006 c 0,1.44047 -1.15966,2.60013 -2.60014,2.60013 h -93.03006 c -1.44047,0 -2.60013,-1.15966 -2.60013,-2.60013 v -93.03006 c 0,-1.44048 1.15966,-2.60014 2.60013,-2.60014 z" />
      <path
         id="rect20240"
         style="display:inline;fill:none;stroke:#f4f4f4;stroke-width:5.82772;stroke-miterlimit:4;stroke-dasharray:none;stroke-opacity:1"
         d="m 396.35233,602.15625 h 93.03006 c 1.44048,0 2.60014,1.15966 2.60014,2.60014 v 93.03006 c 0,1.44047 -1.15966,2.60013 -2.60014,2.60013 h -93.03006 c -1.44047,0 -2.60013,-1.15966 -2.60013,-2.60013 v -93.03006 c 0,-1.44048 1.15966,-2.60014 2.60013,-2.60014 z" />
      <path
         id="rect20282"
         style="display:inline;fill:none;stroke:#f4f4f4;stroke-width:5.82772;stroke-miterlimit:4;stroke-dasharray:none;stroke-opacity:1"
         d="m 1889.7997,697.39583 c 0,1.42838 -1.1499,2.5783 -2.5783,2.5783 H 1694.743 c -1.4284,0 -2.5783,-1.14992 -2.5783,-2.5783 v -92.2488 c 0,-1.42838 1.1499,-2.5784 2.5783,-2.5783 l 96.5565,0.007 c 2.6633,-2e-5 3.8229,-1.15968 3.8183,-4.57907 l -0.06,-108.75027 c -9e-4,-1.71114 1.587,-3.0887 3.5586,-3.0887 h 87.528 c 1.9715,0 3.558,1.37756 3.5587,3.0887 l 0.048,113.20542 z"
         sodipodi:nodetypes="ssssssccsssscs" />
      <path
         id="rect20286"
         style="display:inline;fill:none;stroke:#f4f4f4;stroke-width:5.82772;stroke-miterlimit:4;stroke-dasharray:none;stroke-opacity:1"
         d="m 1458.3523,602.15625 h 93.0301 c 1.4405,0 2.6001,1.15966 2.6001,2.60014 v 93.03006 c 0,1.44047 -1.1596,2.60013 -2.6001,2.60013 h -93.0301 c -1.4404,0 -2.6001,-1.15966 -2.6001,-2.60013 v -93.03006 c 0,-1.44048 1.1597,-2.60014 2.6001,-2.60014 z" />
      <path
         id="rect20288"
         style="display:inline;fill:none;stroke:#f4f4f4;stroke-width:5.82772;stroke-miterlimit:4;stroke-dasharray:none;stroke-opacity:1"
         d="m 1340.3523,602.15625 h 93.0301 c 1.4405,0 2.6001,1.15966 2.6001,2.60014 v 93.03006 c 0,1.44047 -1.1596,2.60013 -2.6001,2.60013 h -93.0301 c -1.4404,0 -2.6001,-1.15966 -2.6001,-2.60013 v -93.03006 c 0,-1.44048 1.1597,-2.60014 2.6001,-2.60014 z" />
      <path
         id="rect20290"
         style="display:inline;fill:none;stroke:#f4f4f4;stroke-width:5.82772;stroke-miterlimit:4;stroke-dasharray:none;stroke-opacity:1"
         d="m 1222.3523,602.15625 h 93.0301 c 1.4405,0 2.6001,1.15966 2.6001,2.60014 v 93.03006 c 0,1.44047 -1.1596,2.60013 -2.6001,2.60013 h -93.0301 c -1.4404,0 -2.6001,-1.15966 -2.6001,-2.60013 v -93.03006 c 0,-1.44048 1.1597,-2.60014 2.6001,-2.60014 z" />
      <path
         id="path28092"
         style="display:inline;fill:none;stroke:#f4f4f4;stroke-width:5.82772;stroke-miterlimit:4;stroke-dasharray:none;stroke-opacity:1"
         d="m 1577.4851,602.15625 h 93.0301 c 1.4405,0 2.6001,1.15966 2.6001,2.60014 v 93.03006 c 0,1.44047 -1.1596,2.60013 -2.6001,2.60013 h -93.0301 c -1.4404,0 -2.6001,-1.15966 -2.6001,-2.60013 v -93.03006 c 0,-1.44048 1.1597,-2.60014 2.6001,-2.60014 z" />
    </g>
    <g
       id="g20333"
       inkscape:label="QWE Row"
       transform="translate(-45.311108,-116)"
       style="display:inline;stroke:#f4f4f4;stroke-width:5.8;stroke-miterlimit:4;stroke-dasharray:none;stroke-opacity:1">
      <rect
         style="display:inline;fill:none;stroke:#f4f4f4;stroke-width:5.8;stroke-miterlimit:4;stroke-dasharray:none;stroke-opacity:1"
         id="rect2102"
         width="167.48839"
         height="98.230637"
         x="206.1669"
         y="602.04932"
         rx="2.5100319"
         ry="2.51003" />
      <path
         id="rect20307"
         style="fill:none;stroke:#f4f4f4;stroke-width:5.8;stroke-miterlimit:4;stroke-dasharray:none;stroke-opacity:1"
         d="m 1104.3523,602.15625 h 93.0301 c 1.4405,0 2.6001,1.15966 2.6001,2.60014 v 93.03006 c 0,1.44047 -1.1596,2.60013 -2.6001,2.60013 h -93.0301 c -1.4404,0 -2.6001,-1.15966 -2.6001,-2.60013 v -93.03006 c 0,-1.44048 1.1597,-2.60014 2.6001,-2.60014 z" />
      <path
         id="rect20309"
         style="fill:none;stroke:#f4f4f4;stroke-width:5.8;stroke-miterlimit:4;stroke-dasharray:none;stroke-opacity:1"
         d="m 986.35233,602.15625 h 93.03007 c 1.4405,0 2.6001,1.15966 2.6001,2.60014 v 93.03006 c 0,1.44047 -1.1596,2.60013 -2.6001,2.60013 h -93.03007 c -1.44047,0 -2.60013,-1.15966 -2.60013,-2.60013 v -93.03006 c 0,-1.44048 1.15966,-2.60014 2.60013,-2.60014 z" />
      <path
         id="rect20311"
         style="fill:none;stroke:#f4f4f4;stroke-width:5.8;stroke-miterlimit:4;stroke-dasharray:none;stroke-opacity:1"
         d="m 868.35233,602.15625 h 93.03006 c 1.44048,0 2.60014,1.15966 2.60014,2.60014 v 93.03006 c 0,1.44047 -1.15966,2.60013 -2.60014,2.60013 h -93.03006 c -1.44047,0 -2.60013,-1.15966 -2.60013,-2.60013 v -93.03006 c 0,-1.44048 1.15966,-2.60014 2.60013,-2.60014 z" />
      <path
         id="rect20313"
         style="fill:none;stroke:#f4f4f4;stroke-width:5.8;stroke-miterlimit:4;stroke-dasharray:none;stroke-opacity:1"
         d="m 750.35233,602.15625 h 93.03006 c 1.44048,0 2.60014,1.15966 2.60014,2.60014 v 93.03006 c 0,1.44047 -1.15966,2.60013 -2.60014,2.60013 h -93.03006 c -1.44047,0 -2.60013,-1.15966 -2.60013,-2.60013 v -93.03006 c 0,-1.44048 1.15966,-2.60014 2.60013,-2.60014 z" />
      <path
         id="rect20315"
         style="fill:none;stroke:#f4f4f4;stroke-width:5.8;stroke-miterlimit:4;stroke-dasharray:none;stroke-opacity:1"
         d="m 632.35233,602.15625 h 93.03006 c 1.44048,0 2.60014,1.15966 2.60014,2.60014 v 93.03006 c 0,1.44047 -1.15966,2.60013 -2.60014,2.60013 h -93.03006 c -1.44047,0 -2.60013,-1.15966 -2.60013,-2.60013 v -93.03006 c 0,-1.44048 1.15966,-2.60014 2.60013,-2.60014 z" />
      <path
         id="rect20317"
         style="fill:none;stroke:#f4f4f4;stroke-width:5.8;stroke-miterlimit:4;stroke-dasharray:none;stroke-opacity:1"
         d="m 514.35233,602.15625 h 93.03006 c 1.44048,0 2.60014,1.15966 2.60014,2.60014 v 93.03006 c 0,1.44047 -1.15966,2.60013 -2.60014,2.60013 h -93.03006 c -1.44047,0 -2.60013,-1.15966 -2.60013,-2.60013 v -93.03006 c 0,-1.44048 1.15966,-2.60014 2.60013,-2.60014 z" />
      <path
         id="rect20319"
         style="fill:none;stroke:#f4f4f4;stroke-width:5.8;stroke-miterlimit:4;stroke-dasharray:none;stroke-opacity:1"
         d="m 396.35233,602.15625 h 93.03006 c 1.44048,0 2.60014,1.15966 2.60014,2.60014 v 93.03006 c 0,1.44047 -1.15966,2.60013 -2.60014,2.60013 h -93.03006 c -1.44047,0 -2.60013,-1.15966 -2.60013,-2.60013 v -93.03006 c 0,-1.44048 1.15966,-2.60014 2.60013,-2.60014 z" />
      <path
         id="rect20325"
         style="fill:none;stroke:#f4f4f4;stroke-width:5.8;stroke-miterlimit:4;stroke-dasharray:none;stroke-opacity:1"
         d="m 1576.3523,602.15625 h 93.0301 c 1.4405,0 2.6001,1.15966 2.6001,2.60014 v 93.03006 c 0,1.44047 -1.1596,2.60013 -2.6001,2.60013 h -93.0301 c -1.4404,0 -2.6001,-1.15966 -2.6001,-2.60013 v -93.03006 c 0,-1.44048 1.1597,-2.60014 2.6001,-2.60014 z" />
      <path
         id="rect20327"
         style="fill:none;stroke:#f4f4f4;stroke-width:5.8;stroke-miterlimit:4;stroke-dasharray:none;stroke-opacity:1"
         d="m 1458.3523,602.15625 h 93.0301 c 1.4405,0 2.6001,1.15966 2.6001,2.60014 v 93.03006 c 0,1.44047 -1.1596,2.60013 -2.6001,2.60013 h -93.0301 c -1.4404,0 -2.6001,-1.15966 -2.6001,-2.60013 v -93.03006 c 0,-1.44048 1.1597,-2.60014 2.6001,-2.60014 z" />
      <path
         id="rect20329"
         style="fill:none;stroke:#f4f4f4;stroke-width:5.8;stroke-miterlimit:4;stroke-dasharray:none;stroke-opacity:1"
         d="m 1340.3523,602.15625 h 93.0301 c 1.4405,0 2.6001,1.15966 2.6001,2.60014 v 93.03006 c 0,1.44047 -1.1596,2.60013 -2.6001,2.60013 h -93.0301 c -1.4404,0 -2.6001,-1.15966 -2.6001,-2.60013 v -93.03006 c 0,-1.44048 1.1597,-2.60014 2.6001,-2.60014 z" />
      <path
         id="rect20331"
         style="fill:none;stroke:#f4f4f4;stroke-width:5.8;stroke-miterlimit:4;stroke-dasharray:none;stroke-opacity:1"
         d="m 1222.3523,602.15625 h 93.0301 c 1.4405,0 2.6001,1.15966 2.6001,2.60014 v 93.03006 c 0,1.44047 -1.1596,2.60013 -2.6001,2.60013 h -93.0301 c -1.4404,0 -2.6001,-1.15966 -2.6001,-2.60013 v -93.03006 c 0,-1.44048 1.1597,-2.60014 2.6001,-2.60014 z" />
      <path
         id="rect20417"
         style="fill:none;stroke:#f4f4f4;stroke-width:5.8;stroke-miterlimit:4;stroke-dasharray:none;stroke-opacity:1"
         d="m 1694.3523,602.15625 h 93.0301 c 1.4405,0 2.6001,1.15966 2.6001,2.60014 v 93.03006 c 0,1.44047 -1.1596,2.60013 -2.6001,2.60013 h -93.0301 c -1.4404,0 -2.6001,-1.15966 -2.6001,-2.60013 v -93.03006 c 0,-1.44048 1.1597,-2.60014 2.6001,-2.60014 z" />
    </g>
    <g
       id="g28183"
       inkscape:label="Number Row"
       transform="translate(-54.983621,-116)"
       style="display:inline;stroke:#f4f4f4;stroke-width:5.8;stroke-miterlimit:4;stroke-dasharray:none;stroke-opacity:1">
      <path
         id="path28157"
         style="fill:none;stroke:#f4f4f4;stroke-width:5.8;stroke-miterlimit:4;stroke-dasharray:none;stroke-opacity:1"
         d="m 1162.3523,486.15625 h 93.0301 c 1.4405,0 2.6001,1.15966 2.6001,2.60014 v 93.03006 c 0,1.44047 -1.1596,2.60013 -2.6001,2.60013 h -93.0301 c -1.4404,0 -2.6001,-1.15966 -2.6001,-2.60013 v -93.03006 c 0,-1.44048 1.1597,-2.60014 2.6001,-2.60014 z" />
      <path
         id="path28159"
         style="fill:none;stroke:#f4f4f4;stroke-width:5.8;stroke-miterlimit:4;stroke-dasharray:none;stroke-opacity:1"
         d="m 1044.3523,486.15625 h 93.0301 c 1.4405,0 2.6001,1.15966 2.6001,2.60014 v 93.03006 c 0,1.44047 -1.1596,2.60013 -2.6001,2.60013 h -93.0301 c -1.4404,0 -2.6001,-1.15966 -2.6001,-2.60013 v -93.03006 c 0,-1.44048 1.1597,-2.60014 2.6001,-2.60014 z" />
      <path
         id="path28161"
         style="fill:none;stroke:#f4f4f4;stroke-width:5.8;stroke-miterlimit:4;stroke-dasharray:none;stroke-opacity:1"
         d="m 926.35233,486.15625 h 93.03007 c 1.4405,0 2.6001,1.15966 2.6001,2.60014 v 93.03006 c 0,1.44047 -1.1596,2.60013 -2.6001,2.60013 h -93.03007 c -1.44047,0 -2.60013,-1.15966 -2.60013,-2.60013 v -93.03006 c 0,-1.44048 1.15966,-2.60014 2.60013,-2.60014 z" />
      <path
         id="path28163"
         style="fill:none;stroke:#f4f4f4;stroke-width:5.8;stroke-miterlimit:4;stroke-dasharray:none;stroke-opacity:1"
         d="m 808.35233,486.15625 h 93.03006 c 1.44048,0 2.60014,1.15966 2.60014,2.60014 v 93.03006 c 0,1.44047 -1.15966,2.60013 -2.60014,2.60013 h -93.03006 c -1.44047,0 -2.60013,-1.15966 -2.60013,-2.60013 v -93.03006 c 0,-1.44048 1.15966,-2.60014 2.60013,-2.60014 z" />
      <path
         id="path28165"
         style="fill:none;stroke:#f4f4f4;stroke-width:5.8;stroke-miterlimit:4;stroke-dasharray:none;stroke-opacity:1"
         d="m 690.35233,486.15625 h 93.03006 c 1.44048,0 2.60014,1.15966 2.60014,2.60014 v 93.03006 c 0,1.44047 -1.15966,2.60013 -2.60014,2.60013 h -93.03006 c -1.44047,0 -2.60013,-1.15966 -2.60013,-2.60013 v -93.03006 c 0,-1.44048 1.15966,-2.60014 2.60013,-2.60014 z" />
      <path
         id="path28167"
         style="fill:none;stroke:#f4f4f4;stroke-width:5.8;stroke-miterlimit:4;stroke-dasharray:none;stroke-opacity:1"
         d="m 572.35233,486.15625 h 93.03006 c 1.44048,0 2.60014,1.15966 2.60014,2.60014 v 93.03006 c 0,1.44047 -1.15966,2.60013 -2.60014,2.60013 h -93.03006 c -1.44047,0 -2.60013,-1.15966 -2.60013,-2.60013 v -93.03006 c 0,-1.44048 1.15966,-2.60014 2.60013,-2.60014 z" />
      <path
         id="path28169"
         style="fill:none;stroke:#f4f4f4;stroke-width:5.8;stroke-miterlimit:4;stroke-dasharray:none;stroke-opacity:1"
         d="m 454.35233,486.15625 h 93.03006 c 1.44048,0 2.60014,1.15966 2.60014,2.60014 v 93.03006 c 0,1.44047 -1.15966,2.60013 -2.60014,2.60013 h -93.03006 c -1.44047,0 -2.60013,-1.15966 -2.60013,-2.60013 v -93.03006 c 0,-1.44048 1.15966,-2.60014 2.60013,-2.60014 z" />
      <path
         id="path28173"
         style="fill:none;stroke:#f4f4f4;stroke-width:5.8;stroke-miterlimit:4;stroke-dasharray:none;stroke-opacity:1"
         d="m 1634.3523,486.15625 h 93.0301 c 1.4405,0 2.6001,1.15966 2.6001,2.60014 v 93.03006 c 0,1.44047 -1.1596,2.60013 -2.6001,2.60013 h -93.0301 c -1.4404,0 -2.6001,-1.15966 -2.6001,-2.60013 v -93.03006 c 0,-1.44048 1.1597,-2.60014 2.6001,-2.60014 z" />
      <path
         id="path28175"
         style="fill:none;stroke:#f4f4f4;stroke-width:5.8;stroke-miterlimit:4;stroke-dasharray:none;stroke-opacity:1"
         d="m 1516.3523,486.15625 h 93.0301 c 1.4405,0 2.6001,1.15966 2.6001,2.60014 v 93.03006 c 0,1.44047 -1.1596,2.60013 -2.6001,2.60013 h -93.0301 c -1.4404,0 -2.6001,-1.15966 -2.6001,-2.60013 v -93.03006 c 0,-1.44048 1.1597,-2.60014 2.6001,-2.60014 z" />
      <path
         id="path28177"
         style="fill:none;stroke:#f4f4f4;stroke-width:5.8;stroke-miterlimit:4;stroke-dasharray:none;stroke-opacity:1"
         d="m 1398.3523,486.15625 h 93.0301 c 1.4405,0 2.6001,1.15966 2.6001,2.60014 v 93.03006 c 0,1.44047 -1.1596,2.60013 -2.6001,2.60013 h -93.0301 c -1.4404,0 -2.6001,-1.15966 -2.6001,-2.60013 v -93.03006 c 0,-1.44048 1.1597,-2.60014 2.6001,-2.60014 z" />
      <path
         id="path28179"
         style="fill:none;stroke:#f4f4f4;stroke-width:5.8;stroke-miterlimit:4;stroke-dasharray:none;stroke-opacity:1"
         d="m 1280.3523,486.15625 h 93.0301 c 1.4405,0 2.6001,1.15966 2.6001,2.60014 v 93.03006 c 0,1.44047 -1.1596,2.60013 -2.6001,2.60013 h -93.0301 c -1.4404,0 -2.6001,-1.15966 -2.6001,-2.60013 v -93.03006 c 0,-1.44048 1.1597,-2.60014 2.6001,-2.60014 z" />
      <path
         id="path28181"
         style="fill:none;stroke:#f4f4f4;stroke-width:5.8;stroke-miterlimit:4;stroke-dasharray:none;stroke-opacity:1"
         d="m 1752.3523,486.15625 h 93.0301 c 1.4405,0 2.6001,1.15966 2.6001,2.60014 v 93.03006 c 0,1.44047 -1.1596,2.60013 -2.6001,2.60013 h -93.0301 c -1.4404,0 -2.6001,-1.15966 -2.6001,-2.60013 v -93.03006 c 0,-1.44048 1.1597,-2.60014 2.6001,-2.60014 z" />
      <path
         id="path28345"
         style="fill:none;stroke:#f4f4f4;stroke-width:5.8;stroke-miterlimit:4;stroke-dasharray:none;stroke-opacity:1"
         d="m 336.35233,486.15625 h 93.03006 c 1.44048,0 2.60014,1.15966 2.60014,2.60014 v 93.03006 c 0,1.44047 -1.15966,2.60013 -2.60014,2.60013 h -93.03006 c -1.44047,0 -2.60013,-1.15966 -2.60013,-2.60013 v -93.03006 c 0,-1.44048 1.15966,-2.60014 2.60013,-2.60014 z" />
      <path
         id="path28347"
         style="fill:none;stroke:#f4f4f4;stroke-width:5.8;stroke-miterlimit:4;stroke-dasharray:none;stroke-opacity:1"
         d="m 218.35233,486.15625 h 93.03006 c 1.44048,0 2.60014,1.15966 2.60014,2.60014 v 93.03006 c 0,1.44047 -1.15966,2.60013 -2.60014,2.60013 h -93.03006 c -1.44047,0 -2.60013,-1.15966 -2.60013,-2.60013 v -93.03006 c 0,-1.44048 1.15966,-2.60014 2.60013,-2.60014 z" />
    </g>
    <g
       id="g28939"
       inkscape:label="Function Row"
       style="display:inline;stroke:#f4f4f4;stroke-width:5.8;stroke-miterlimit:4;stroke-dasharray:none;stroke-opacity:1"
       transform="translate(-16.983621)">
      <path
         id="path28832"
         style="fill:none;stroke:#f4f4f4;stroke-width:5.8;stroke-miterlimit:4;stroke-dasharray:none;stroke-opacity:1"
         d="m 1661.7585,254.15625 h 93.0301 c 1.4405,0 2.6001,1.15966 2.6001,2.60014 v 93.03006 c 0,1.44047 -1.1596,2.60013 -2.6001,2.60013 h -93.0301 c -1.4404,0 -2.6001,-1.15966 -2.6001,-2.60013 v -93.03006 c 0,-1.44048 1.1597,-2.60014 2.6001,-2.60014 z" />
      <path
         id="path28834"
         style="fill:none;stroke:#f4f4f4;stroke-width:5.8;stroke-miterlimit:4;stroke-dasharray:none;stroke-opacity:1"
         d="m 1779.7585,254.15625 h 93.0301 c 1.4405,0 2.6001,1.15966 2.6001,2.60014 v 93.03006 c 0,1.44047 -1.1596,2.60013 -2.6001,2.60013 h -93.0301 c -1.4404,0 -2.6001,-1.15966 -2.6001,-2.60013 v -93.03006 c 0,-1.44048 1.1597,-2.60014 2.6001,-2.60014 z" />
      <path
         id="path28836"
         style="fill:none;stroke:#f4f4f4;stroke-width:5.8;stroke-miterlimit:4;stroke-dasharray:none;stroke-opacity:1"
         d="m 298.1669,253.40011 h 93.03006 c 1.44048,0 2.60014,1.15966 2.60014,2.60014 v 93.03006 c 0,1.44047 -1.15966,2.60013 -2.60014,2.60013 H 298.1669 c -1.44047,0 -2.60013,-1.15966 -2.60013,-2.60013 v -93.03006 c 0,-1.44048 1.15966,-2.60014 2.60013,-2.60014 z" />
      <path
         id="path28838"
         style="fill:none;stroke:#f4f4f4;stroke-width:5.8;stroke-miterlimit:4;stroke-dasharray:none;stroke-opacity:1"
         d="m 180.1669,253.40011 h 93.03006 c 1.44048,0 2.60014,1.15966 2.60014,2.60014 v 93.03006 c 0,1.44047 -1.15966,2.60013 -2.60014,2.60013 H 180.1669 c -1.44047,0 -2.60013,-1.15966 -2.60013,-2.60013 v -93.03006 c 0,-1.44048 1.15966,-2.60014 2.60013,-2.60014 z" />
      <path
         id="path29071"
         style="fill:none;stroke:#f4f4f4;stroke-width:5.8;stroke-miterlimit:4;stroke-dasharray:none;stroke-opacity:1"
         d="m 867.7947,254.15625 h 151.351 c 2.3436,0 4.2302,1.15966 4.2302,2.60014 v 93.03006 c 0,1.44047 -1.8866,2.60013 -4.2302,2.60013 h -151.351 c -2.3435,0 -4.23016,-1.15966 -4.23016,-2.60013 v -93.03006 c 0,-1.44048 1.88666,-2.60014 4.23016,-2.60014 z" />
      <path
         id="path29073"
         style="fill:none;stroke:#f4f4f4;stroke-width:5.8;stroke-miterlimit:4;stroke-dasharray:none;stroke-opacity:1"
         d="m 1047.7947,254.15625 h 151.351 c 2.3436,0 4.2302,1.15966 4.2302,2.60014 v 93.03006 c 0,1.44047 -1.8866,2.60013 -4.2302,2.60013 h -151.351 c -2.3435,0 -4.2302,-1.15966 -4.2302,-2.60013 v -93.03006 c 0,-1.44048 1.8867,-2.60014 4.2302,-2.60014 z" />
      <path
         id="path29077"
         style="fill:none;stroke:#f4f4f4;stroke-width:5.8;stroke-miterlimit:4;stroke-dasharray:none;stroke-opacity:1"
         d="m 507.7947,254.15625 h 151.351 c 2.3436,0 4.2302,1.15966 4.2302,2.60014 v 93.03006 c 0,1.44047 -1.8866,2.60013 -4.2302,2.60013 h -151.351 c -2.3435,0 -4.23016,-1.15966 -4.23016,-2.60013 v -93.03006 c 0,-1.44048 1.88666,-2.60014 4.23016,-2.60014 z" />
      <path
         id="path29079"
         style="fill:none;stroke:#f4f4f4;stroke-width:5.8;stroke-miterlimit:4;stroke-dasharray:none;stroke-opacity:1"
         d="m 687.7947,254.15625 h 151.351 c 2.3436,0 4.2302,1.15966 4.2302,2.60014 v 93.03006 c 0,1.44047 -1.8866,2.60013 -4.2302,2.60013 h -151.351 c -2.3435,0 -4.2302,-1.15966 -4.2302,-2.60013 v -93.03006 c 0,-1.44048 1.8867,-2.60014 4.2302,-2.60014 z" />
      <path
         id="path29081"
         style="fill:none;stroke:#f4f4f4;stroke-width:5.8;stroke-miterlimit:4;stroke-dasharray:none;stroke-opacity:1"
         d="m 1227.7947,254.15625 h 151.351 c 2.3436,0 4.2302,1.15966 4.2302,2.60014 v 93.03006 c 0,1.44047 -1.8866,2.60013 -4.2302,2.60013 h -151.351 c -2.3435,0 -4.2302,-1.15966 -4.2302,-2.60013 v -93.03006 c 0,-1.44048 1.8867,-2.60014 4.2302,-2.60014 z" />
      <path
         id="path29083"
         style="fill:none;stroke:#f4f4f4;stroke-width:5.8;stroke-miterlimit:4;stroke-dasharray:none;stroke-opacity:1"
         d="m 1407.7947,254.15625 h 151.351 c 2.3436,0 4.2302,1.15966 4.2302,2.60014 v 93.03006 c 0,1.44047 -1.8866,2.60013 -4.2302,2.60013 h -151.351 c -2.3435,0 -4.2302,-1.15966 -4.2302,-2.60013 v -93.03006 c 0,-1.44048 1.8867,-2.60014 4.2302,-2.60014 z" />
    </g>
    <g
       id="g29207"
       inkscape:label="Arrow Keys"
       transform="translate(-16.983621)"
       style="stroke:#f4f4f4;stroke-width:5.8;stroke-miterlimit:4;stroke-dasharray:none;stroke-opacity:1">
      <path
         id="path29202"
         style="fill:none;stroke:#f4f4f4;stroke-width:5.8;stroke-miterlimit:4;stroke-dasharray:none;stroke-opacity:1"
         d="m 1908.7859,718.15625 h 93.0301 c 1.4405,0 2.6001,1.15966 2.6001,2.60014 v 93.03006 c 0,1.44047 -1.1596,2.60013 -2.6001,2.60013 h -93.0301 c -1.4404,0 -2.6001,-1.15966 -2.6001,-2.60013 v -93.03006 c 0,-1.44048 1.1597,-2.60014 2.6001,-2.60014 z" />
      <path
         id="path29209"
         style="fill:none;stroke:#f4f4f4;stroke-width:5.8;stroke-miterlimit:4;stroke-dasharray:none;stroke-opacity:1"
         d="m 2026.7859,718.15625 h 93.0301 c 1.4405,0 2.6001,1.15966 2.6001,2.60014 v 93.03006 c 0,1.44047 -1.1596,2.60013 -2.6001,2.60013 h -93.0301 c -1.4404,0 -2.6001,-1.15966 -2.6001,-2.60013 v -93.03006 c 0,-1.44048 1.1597,-2.60014 2.6001,-2.60014 z" />
      <path
         id="path29211"
         style="fill:none;stroke:#f4f4f4;stroke-width:5.8;stroke-miterlimit:4;stroke-dasharray:none;stroke-opacity:1"
         d="m 2026.7859,604.15625 h 93.0301 c 1.4405,0 2.6001,1.15966 2.6001,2.60014 v 93.03006 c 0,1.44047 -1.1596,2.60013 -2.6001,2.60013 h -93.0301 c -1.4404,0 -2.6001,-1.15966 -2.6001,-2.60013 v -93.03006 c 0,-1.44048 1.1597,-2.60014 2.6001,-2.60014 z" />
      <path
         id="path29213"
         style="fill:none;stroke:#f4f4f4;stroke-width:5.8;stroke-miterlimit:4;stroke-dasharray:none;stroke-opacity:1"
         d="m 2026.7859,834.15625 h 93.0301 c 1.4405,0 2.6001,1.15966 2.6001,2.60014 v 93.03006 c 0,1.44047 -1.1596,2.60013 -2.6001,2.60013 h -93.0301 c -1.4404,0 -2.6001,-1.15966 -2.6001,-2.60013 v -93.03006 c 0,-1.44048 1.1597,-2.60014 2.6001,-2.60014 z" />
      <path
         id="path29217"
         style="fill:none;stroke:#f4f4f4;stroke-width:5.8;stroke-miterlimit:4;stroke-dasharray:none;stroke-opacity:1"
         d="m 2142.7859,718.15625 h 93.0301 c 1.4405,0 2.6001,1.15966 2.6001,2.60014 v 93.03006 c 0,1.44047 -1.1596,2.60013 -2.6001,2.60013 h -93.0301 c -1.4404,0 -2.6001,-1.15966 -2.6001,-2.60013 v -93.03006 c 0,-1.44048 1.1597,-2.60014 2.6001,-2.60014 z" />
    </g>
    <g
       id="g29437"
       inkscape:label="Navigation Keys"
       transform="translate(-16.983621)"
       style="stroke:#f4f4f4;stroke-width:5.8;stroke-miterlimit:4;stroke-dasharray:none;stroke-opacity:1">
      <path
         id="path29433"
         style="fill:none;stroke:#f4f4f4;stroke-width:5.8;stroke-miterlimit:4;stroke-dasharray:none;stroke-opacity:1"
         d="m 2026.7859,370.22276 h 93.0301 c 1.4405,0 2.6001,1.15966 2.6001,2.60014 v 93.03006 c 0,1.44047 -1.1596,2.60013 -2.6001,2.60013 h -93.0301 c -1.4404,0 -2.6001,-1.15966 -2.6001,-2.60013 V 372.8229 c 0,-1.44048 1.1597,-2.60014 2.6001,-2.60014 z" />
      <path
         id="path29439"
         style="fill:none;stroke:#f4f4f4;stroke-width:5.8;stroke-miterlimit:4;stroke-dasharray:none;stroke-opacity:1"
         d="m 2026.7859,254.22276 h 93.0301 c 1.4405,0 2.6001,1.15966 2.6001,2.60014 v 93.03006 c 0,1.44047 -1.1596,2.60013 -2.6001,2.60013 h -93.0301 c -1.4404,0 -2.6001,-1.15966 -2.6001,-2.60013 V 256.8229 c 0,-1.44048 1.1597,-2.60014 2.6001,-2.60014 z" />
      <path
         id="path29445"
         style="fill:none;stroke:#f4f4f4;stroke-width:5.8;stroke-miterlimit:4;stroke-dasharray:none;stroke-opacity:1"
         d="m 1908.7859,370.22276 h 93.0301 c 1.4405,0 2.6001,1.15966 2.6001,2.60014 v 93.03006 c 0,1.44047 -1.1596,2.60013 -2.6001,2.60013 h -93.0301 c -1.4404,0 -2.6001,-1.15966 -2.6001,-2.60013 V 372.8229 c 0,-1.44048 1.1597,-2.60014 2.6001,-2.60014 z" />
      <path
         id="path29447"
         style="fill:none;stroke:#f4f4f4;stroke-width:5.8;stroke-miterlimit:4;stroke-dasharray:none;stroke-opacity:1"
         d="m 1908.7859,254.22276 h 93.0301 c 1.4405,0 2.6001,1.15966 2.6001,2.60014 v 93.03006 c 0,1.44047 -1.1596,2.60013 -2.6001,2.60013 h -93.0301 c -1.4404,0 -2.6001,-1.15966 -2.6001,-2.60013 V 256.8229 c 0,-1.44048 1.1597,-2.60014 2.6001,-2.60014 z" />
      <path
         id="path29449"
         style="fill:none;stroke:#f4f4f4;stroke-width:5.8;stroke-miterlimit:4;stroke-dasharray:none;stroke-opacity:1"
         d="m 2144.7859,370.22276 h 93.0301 c 1.4405,0 2.6001,1.15966 2.6001,2.60014 v 93.03006 c 0,1.44047 -1.1596,2.60013 -2.6001,2.60013 h -93.0301 c -1.4404,0 -2.6001,-1.15966 -2.6001,-2.60013 V 372.8229 c 0,-1.44048 1.1597,-2.60014 2.6001,-2.60014 z" />
      <path
         id="path29451"
         style="fill:none;stroke:#f4f4f4;stroke-width:5.8;stroke-miterlimit:4;stroke-dasharray:none;stroke-opacity:1"
         d="m 2144.7859,254.22276 h 93.0301 c 1.4405,0 2.6001,1.15966 2.6001,2.60014 v 93.03006 c 0,1.44047 -1.1596,2.60013 -2.6001,2.60013 h -93.0301 c -1.4404,0 -2.6001,-1.15966 -2.6001,-2.60013 V 256.8229 c 0,-1.44048 1.1597,-2.60014 2.6001,-2.60014 z" />
    </g>
  </g>
</svg>
