<?xml version="1.0" encoding="UTF-8" standalone="no"?>
<!-- Created with Inkscape (http://www.inkscape.org/) -->

<svg
   version="1.1"
   id="svg1310"
   width="553.49945"
   height="354.92783"
   viewBox="0 0 3874.4962 2484.4948"
   sodipodi:docname="amiga500..svg"
   inkscape:version="1.1.2 (0a00cf5339, 2022-02-04)"
   xmlns:inkscape="http://www.inkscape.org/namespaces/inkscape"
   xmlns:sodipodi="http://sodipodi.sourceforge.net/DTD/sodipodi-0.dtd"
   xmlns:xlink="http://www.w3.org/1999/xlink"
   xmlns="http://www.w3.org/2000/svg"
   xmlns:svg="http://www.w3.org/2000/svg">
  <defs
     id="defs1314">
    <linearGradient
       id="linearGradient6232">
      <stop
         id="stop6234"
         style="stop-color:#279e64;stop-opacity:1"
         offset="0" />
      <stop
         id="stop6236"
         style="stop-color:#146daf;stop-opacity:1"
         offset="1" />
    </linearGradient>
    <linearGradient
       id="linearGradient6224">
      <stop
         id="stop6226"
         style="stop-color:#e5e975;stop-opacity:1"
         offset="0" />
      <stop
         id="stop6228"
         style="stop-color:#e13e28;stop-opacity:1"
         offset="1" />
    </linearGradient>
    <linearGradient
       x1="766.43481"
       y1="19.913881"
       x2="766.43481"
       y2="-108.08125"
       id="linearGradient6230"
       xlink:href="#linearGradient6224"
       gradientUnits="userSpaceOnUse" />
    <linearGradient
       x1="699.17328"
       y1="16.676712"
       x2="699.17328"
       y2="-27.783451"
       id="linearGradient6238"
       xlink:href="#linearGradient6232"
       gradientUnits="userSpaceOnUse" />
  </defs>
  <sodipodi:namedview
     id="namedview1312"
     pagecolor="#000000"
     bordercolor="#111111"
     borderopacity="1"
     inkscape:pageshadow="0"
     inkscape:pageopacity="0"
     inkscape:pagecheckerboard="1"
     showgrid="false"
     showguides="true"
     inkscape:guide-bbox="true"
     inkscape:zoom="5.026455"
     inkscape:cx="48.145263"
     inkscape:cy="268.87737"
     inkscape:window-width="1366"
     inkscape:window-height="703"
     inkscape:window-x="0"
     inkscape:window-y="0"
     inkscape:window-maximized="1"
     inkscape:current-layer="g22598"
     fit-margin-top="0"
     fit-margin-left="0"
     fit-margin-right="0"
     fit-margin-bottom="0">
    <sodipodi:guide
       position="14062.617,-17194.767"
       orientation="1,0"
       id="guide1707" />
    <sodipodi:guide
       position="14066.894,-424.20097"
       orientation="0,-1"
       id="guide5788" />
    <sodipodi:guide
       position="27269.259,-3749.1303"
       orientation="1,0"
       id="guide6161" />
    <sodipodi:guide
       position="1937.336,-166.63866"
       orientation="1,0"
       id="guide22796" />
    <sodipodi:guide
       position="18130.378,-9420.1181"
       orientation="1,0"
       id="guide23363" />
    <sodipodi:guide
       position="4925.266,-14825.776"
       orientation="1,0"
       id="guide23641" />
    <sodipodi:guide
       position="18130.378,-10345.776"
       orientation="0,-1"
       id="guide27340" />
    <sodipodi:guide
       position="21763.869,-5415.8891"
       orientation="0,-1"
       id="guide88824" />
    <sodipodi:guide
       position="27440.981,-7733.0543"
       orientation="0,-1"
       id="guide71312" />
  </sodipodi:namedview>
  <g
     inkscape:label="Amiga500"
     id="g1316"
     transform="translate(-86.52043,-263.22265)">
    <text
       xml:space="preserve"
       style="font-size:18.6667px;line-height:1.25;font-family:'ITC Garamond Std';-inkscape-font-specification:'ITC Garamond Std';stroke-width:7"
       x="3409.1885"
       y="2501.4575"
       id="text88469"
       inkscape:label="Signature"><tspan
         sodipodi:role="line"
         id="tspan88467"
         style="font-style:normal;font-variant:normal;font-weight:normal;font-stretch:normal;font-family:TrasksHand;-inkscape-font-specification:TrasksHand;fill:#f4f4ff;fill-opacity:0.5;stroke-width:7"
         x="3409.1885"
         y="2501.4575">John Loreth 2022</tspan></text>
    <g
       id="g22598"
       inkscape:label="Body">
      <circle
         style="fill:#f4f4ff;fill-opacity:1;stroke:none;stroke-width:7"
         id="path996"
         cx="492.81824"
         cy="2096.9678"
         r="14"
         inkscape:label="Caplock Light" />
      <rect
         style="display:inline;fill:none;fill-opacity:0.5;stroke:#f4f4f4;stroke-width:14;stroke-miterlimit:4;stroke-dasharray:none;stroke-opacity:1"
         id="rect1421"
         width="3866.937"
         height="1462.891"
         x="90.299965"
         y="1281.0469"
         ry="14.442335"
         rx="14.442335"
         inkscape:label="Bottom Body Outline" />
      <path
         id="path13463"
         style="display:inline;fill:none;fill-opacity:0.5;stroke:#f4f4f4;stroke-width:14;stroke-miterlimit:4;stroke-dasharray:none;stroke-opacity:1"
         inkscape:label="Top Body Outline"
         d="M 175.07794,903.22392 118.7832,1265.9316 c -1.2271,7.9063 6.44236,14.4414 14.44336,14.4414 h 1888.68944 8 1880.6914 c 8.001,0 15.6685,-6.5351 14.4414,-14.4414 l -48.2988,-311.18999 -0.2139,-1.36874 -23.2539,3.64574 c -1.4551,0.22813 -2.8097,-0.76119 -3.0371,-2.21633 l -38.9283,-249.16019 c -0.2274,-1.45515 0.7799,-2.71129 2.2163,-3.03703 l 23.917,-5.42427 -1.1725,-6.65418 -35.2288,-223.52853 c -1.2252,-7.90674 -6.4404,-14.44335 -14.4414,-14.44338 l -37.8144,0.42575 -1.7442,-14.29104 -18,-135.34761 c -1.0548,-7.93119 -6.4403,-14.4414 -14.4414,-14.44142 l -4.6699,1e-5 v -21.99805 c 0,-1.48458 -1.1854,-2.67968 -2.6582,-2.67968 h -13.9258 c -1.4728,10e-6 -2.6582,1.1951 -2.6582,2.67968 v 21.99804 l -26.248,1e-5 h -0.5098 v -21.99805 c 0,-1.48458 -1.1854,-2.67968 -2.6582,-2.67967 l -13.9258,-2e-5 c -1.4728,1e-5 -2.6582,1.19511 -2.6582,2.67969 v 21.99806 l -26.7578,-10e-6 v -21.99805 c 0,-1.48459 -1.1854,-2.67969 -2.6582,-2.67968 h -13.9258 c -1.4728,0 -2.6582,1.1951 -2.6582,2.67969 v 21.99804 h -26.7578 v -21.99805 c 0,-1.48458 -1.1854,-2.67968 -2.6582,-2.67968 h -13.9258 c -1.4728,10e-6 -2.6582,1.1951 -2.6582,2.67968 v 21.99804 l -26.7578,1e-5 v -21.99805 c 0,-1.48458 -1.1854,-2.67968 -2.6582,-2.67967 l -13.9258,-2e-5 c -1.4728,1e-5 -2.6582,1.19511 -2.6582,2.67969 v 21.99806 h -26.7578 v -21.99806 c 0,-1.48459 -1.1854,-2.67967 -2.6582,-2.67968 h -13.9258 c -1.4728,0 -2.6582,1.1951 -2.6582,2.67969 v 21.99804 h -26.7578 v -21.99806 c 0,-1.48457 -1.1854,-2.67967 -2.6582,-2.67967 h -13.9258 c -1.4728,10e-6 -2.6582,1.1951 -2.6582,2.67968 v 21.99804 l -26.7578,1e-5 v -21.99805 c 0,-1.48458 -1.1854,-2.67968 -2.6582,-2.67967 h -13.9258 c -1.4728,-10e-6 -2.6582,1.19509 -2.6582,2.67967 v 21.99806 l -26.7578,-10e-6 v -21.99805 c 0,-1.48459 -1.1854,-2.67967 -2.6582,-2.67968 h -13.9258 c -1.4728,0 -2.6582,1.1951 -2.6582,2.67969 v 21.99804 h -26.7578 v -21.99805 c 0,-1.48458 -1.1854,-2.67968 -2.6582,-2.67968 l -13.9258,-1e-5 c -1.4728,2e-5 -2.6582,1.19511 -2.6582,2.67969 v 21.99806 l -26.7578,-10e-6 v -21.99805 c 0,-1.48459 -1.1854,-2.67969 -2.6582,-2.67968 l -13.9258,10e-6 c -1.4728,-10e-6 -2.6582,1.19509 -2.6582,2.67967 v 21.99805 h -26.7578 v -21.99805 c 0,-1.48457 -1.1854,-2.67967 -2.6582,-2.67968 h -13.9258 c -1.4728,0 -2.6582,1.1951 -2.6582,2.67968 v 21.99805 h -26.7578 v -21.99805 c 0,-1.48458 -1.1854,-2.67968 -2.6582,-2.67968 l -13.9258,-1e-5 c -1.4728,1e-5 -2.6582,1.1951 -2.6582,2.67969 v 21.99806 l -26.7578,-10e-6 v -21.99805 c 0,-1.48459 -1.1854,-2.67969 -2.6582,-2.67968 l -13.9258,10e-6 c -1.4728,-10e-6 -2.6582,1.19509 -2.6582,2.67968 v 21.99804 h -26.7578 v -21.99805 c 0,-1.48457 -1.1854,-2.67967 -2.6582,-2.67968 h -13.9258 c -1.4728,0 -2.6582,1.1951 -2.6582,2.67968 v 21.99805 h -26.7578 v -21.99805 c 0,-1.48458 -1.1854,-2.67968 -2.6582,-2.67967 l -13.9258,-2e-5 c -1.4728,1e-5 -2.6582,1.19511 -2.6582,2.67969 v 21.99806 l -26.7578,-10e-6 v -21.99805 c 0,-1.48459 -1.1854,-2.67969 -2.6582,-2.67968 l -13.9258,10e-6 c -1.4728,-10e-6 -2.6582,1.19509 -2.6582,2.67968 v 21.99804 h -26.7578 v -21.99806 c 0,-1.48456 -1.1854,-2.67966 -2.6582,-2.67967 h -13.9258 c -1.4728,10e-6 -2.6582,1.1951 -2.6582,2.67968 v 21.99805 h -26.7578 v -21.99805 c 0,-1.48458 -1.1854,-2.67968 -2.6582,-2.67967 l -13.9258,-2e-5 c -1.4728,1e-5 -2.6582,1.19511 -2.6582,2.67969 v 21.99806 l -26.7578,-2e-5 v -21.99804 c 0,-1.48459 -1.1854,-2.67969 -2.6582,-2.67968 l -13.9258,10e-6 c -1.4728,-10e-6 -2.6582,1.19509 -2.6582,2.67968 v 21.99804 h -26.7578 v -21.99806 c 0,-1.48456 -1.1854,-2.67966 -2.6582,-2.67967 l -13.9258,-1e-5 c -1.4728,2e-5 -2.6582,1.19511 -2.6582,2.67969 v 21.99805 h -26.7578 v -21.99805 c 0,-1.48459 -1.1854,-2.67969 -2.6582,-2.67968 l -13.9258,-1e-5 c -1.4728,1e-5 -2.6582,1.19511 -2.6582,2.67969 v 21.99805 l -26.7578,-1e-5 v -21.99804 c 0,-1.48459 -1.1854,-2.67967 -2.6582,-2.67968 l -13.9258,10e-6 c -1.4728,-10e-6 -2.6582,1.19509 -2.6582,2.67967 v 21.99805 h -26.7578 v -21.99806 c 0,-1.48456 -1.1854,-2.67966 -2.6582,-2.67967 l -13.9258,-1e-5 c -1.4728,1e-5 -2.6582,1.1951 -2.6582,2.67969 v 21.99805 h -26.7578 v -21.99805 c 0,-1.48459 -1.1854,-2.67969 -2.6582,-2.67968 l -13.9258,10e-6 c -1.4728,-10e-6 -2.6582,1.19509 -2.6582,2.67967 v 21.99805 h -26.7578 v -21.99805 c 0,-1.48459 -1.1854,-2.67967 -2.6582,-2.67968 l -13.9258,10e-6 c -1.4728,-10e-6 -2.6582,1.19509 -2.6582,2.67967 v 21.99805 h -26.7578 v -21.99804 c 0,-1.48458 -1.1854,-2.67968 -2.6582,-2.67969 l -13.9258,-1e-5 c -1.4728,1e-5 -2.6582,1.1951 -2.6582,2.67969 v 21.99805 h -26.7578 v -21.99805 c 0,-1.48459 -1.1854,-2.67969 -2.6582,-2.67968 l -13.9258,10e-6 c -1.4728,-10e-6 -2.6582,1.19509 -2.6582,2.67967 v 21.99805 h -26.7578 v -21.99806 c 0,-1.48456 -1.1854,-2.67966 -2.6582,-2.67967 l -13.9258,10e-6 c -1.4728,-10e-6 -2.6582,1.19509 -2.6582,2.67967 v 21.99805 h -26.7578 v -21.99804 c 0,-1.48458 -1.1854,-2.67968 -2.6582,-2.67969 l -13.9258,-1e-5 c -1.4728,1e-5 -2.6582,1.1951 -2.6582,2.67969 v 21.99806 l -26.7578,-2e-5 v -21.99804 c 0,-1.48459 -1.1854,-2.67969 -2.6582,-2.67968 l -13.9258,10e-6 c -1.4728,-10e-6 -2.6582,1.19509 -2.6582,2.67968 v 21.99804 h -26.7578 v -21.99806 c 0,-1.48456 -1.1854,-2.67966 -2.6582,-2.67967 h -13.9258 c -1.4728,0 -2.6582,1.1951 -2.6582,2.67968 v 21.99805 h -26.7578 v -21.99804 c 0,-1.48459 -1.1854,-2.67969 -2.6582,-2.6797 h -13.9258 c -1.4728,1e-5 -2.6582,1.19512 -2.6582,2.67969 v 21.99805 l -26.7578,-1e-5 v -21.99804 c 0,-1.48459 -1.1854,-2.67969 -2.6582,-2.67968 l -13.9258,10e-6 c -1.4728,-10e-6 -2.6582,1.19509 -2.6582,2.67967 v 21.99805 h -26.7578 v -21.99806 c 0,-1.48456 -1.1854,-2.67966 -2.6582,-2.67967 h -13.9258 c -1.4728,-1e-5 -2.6582,1.19509 -2.6582,2.67968 v 21.99805 h -26.7578 v -21.99804 c 0,-1.48459 -1.1854,-2.67969 -2.6582,-2.67969 l -13.9258,-1e-5 c -1.4728,1e-5 -2.6582,1.19512 -2.6582,2.67969 v 21.99805 l -26.7578,-1e-5 v -21.99804 c 0,-1.48459 -1.1854,-2.67969 -2.6582,-2.67968 l -13.9258,10e-6 c -1.4728,-10e-6 -2.6582,1.19509 -2.6582,2.67967 v 21.99805 h -12.7793 -13.9785 v -21.99806 c 0,-1.48456 -1.1854,-2.67966 -2.6582,-2.67967 h -13.9258 c -1.4728,0 -2.6582,1.19509 -2.6582,2.67968 v 21.99805 h -26.7578 v -21.99804 c 0,-1.48459 -1.1854,-2.67969 -2.6582,-2.67969 l -13.9258,-1e-5 c -1.4728,1e-5 -2.6582,1.19512 -2.6582,2.67969 v 21.99805 l -26.7578,-1e-5 v -21.99805 c 0,-1.48458 -1.1854,-2.67968 -2.6582,-2.67967 l -13.9258,10e-6 c -1.4728,-10e-6 -2.6582,1.19509 -2.6582,2.67967 v 21.99805 h -26.7578 v -21.99806 c 0,-1.48456 -1.1854,-2.67966 -2.6582,-2.67967 h -13.9258 c -1.4728,0 -2.6582,1.19509 -2.6582,2.67968 v 21.99805 l -26.7578,-1e-5 v -21.99803 c 0,-1.48459 -1.1854,-2.67969 -2.6582,-2.67969 l -13.9258,-1e-5 c -1.4728,1e-5 -2.6582,1.19512 -2.6582,2.67969 v 21.99805 l -26.7578,10e-6 v -21.99807 c 0,-1.48458 -1.1854,-2.67966 -2.6582,-2.67967 h -13.9258 c -1.4728,0 -2.6582,1.1951 -2.6582,2.67968 v 21.99805 h -26.7578 v -21.99806 c 0,-1.48457 -1.1854,-2.67967 -2.6582,-2.67968 l -13.9258,1e-5 c -1.4728,0 -2.6582,1.19509 -2.6582,2.67968 v 21.99804 h -26.7578 v -21.99803 c 0,-1.48459 -1.1854,-2.67969 -2.6582,-2.67969 l -13.9258,10e-6 c -1.4728,-10e-6 -2.6582,1.1951 -2.6582,2.67966 v 21.99806 l -26.7578,10e-6 v -21.99807 c 0,-1.48456 -1.1854,-2.67966 -2.6582,-2.67967 h -13.9258 c -1.4728,-1e-5 -2.6582,1.19509 -2.6582,2.67968 v 21.99805 h -26.7578 v -21.99804 c 0,-1.48459 -1.1854,-2.67969 -2.6582,-2.6797 l -13.9258,1e-5 c -1.4728,0 -2.6582,1.19509 -2.6582,2.67968 v 21.99805 l -26.7578,-1e-5 v -21.99803 c 0,-1.48459 -1.1854,-2.67969 -2.6582,-2.67969 l -13.9258,10e-6 c -1.4728,-10e-6 -2.6582,1.1951 -2.6582,2.67966 v 21.99806 l -26.7578,10e-6 v -21.99807 c 0,-1.48456 -1.1854,-2.67966 -2.6582,-2.67967 h -13.9258 c -1.4728,-1e-5 -2.6582,1.19509 -2.6582,2.67968 v 21.99805 h -26.7578 v -21.99804 c 0,-1.48459 -1.1854,-2.67969 -2.6582,-2.6797 l -13.9258,1e-5 c -1.4728,0 -2.6582,1.19511 -2.6582,2.67968 v 21.99805 l -26.7578,-1e-5 v -21.99804 c 0,-1.48458 -1.1854,-2.67968 -2.6582,-2.67968 l -13.9258,10e-6 c -1.4728,-10e-6 -2.6582,1.1951 -2.6582,2.67967 v 21.99805 l -26.7578,10e-6 v -21.99807 c 0,-1.48456 -1.1854,-2.67966 -2.6582,-2.67967 h -13.9258 c -1.4728,-1e-5 -2.6582,1.19509 -2.6582,2.67968 v 21.99805 l -26.7578,-1e-5 v -21.99803 c 0,-1.48459 -1.1854,-2.67969 -2.6582,-2.67968 l -13.9258,-10e-6 c -1.4728,0 -2.6582,1.19511 -2.6582,2.67968 v 21.99805 l -26.7578,-1e-5 v -21.99804 c 0,-1.48458 -1.1854,-2.67968 -2.6582,-2.67968 h -13.9258 c -1.4728,0 -2.6582,1.19511 -2.6582,2.67968 v 21.99805 l -26.7578,10e-6 v -21.99807 c 0,-1.48457 -1.1854,-2.67967 -2.6582,-2.67968 l -13.9258,1e-5 c -1.4728,10e-6 -2.6582,1.19509 -2.6582,2.67968 v 21.99804 h -26.7578 v -21.99803 c 0,-1.48459 -1.1854,-2.67969 -2.6582,-2.67968 l -13.9258,-10e-6 c -1.4728,0 -2.6582,1.19511 -2.6582,2.67967 v 21.99806 l -26.7578,-1e-5 v -21.99804 c 0,-1.48458 -1.1854,-2.67968 -2.6582,-2.67968 h -13.9258 c -1.4728,-1e-5 -2.6582,1.1951 -2.6582,2.67968 v 21.99805 l -26.7578,10e-6 v -21.99807 c 0,-1.48457 -1.1854,-2.67967 -2.6582,-2.67968 l -13.9258,1e-5 c -1.4728,10e-6 -2.6582,1.19509 -2.6582,2.67968 v 21.99804 l -26.7578,1e-5 v -21.99805 c 0,-1.48458 -1.1854,-2.67968 -2.6582,-2.67968 h -13.9258 c -1.4728,0 -2.6582,1.1951 -2.6582,2.67968 v 21.99805 h -26.7578 v -21.99805 c 0,-1.48458 -1.18539,-2.67968 -2.6582,-2.67968 h -13.92578 c -1.4728,0 -2.6582,1.1951 -2.65821,2.67968 v 21.99805 H 949.9375 v -21.99805 c 0,-1.48458 -1.1854,-2.67968 -2.6582,-2.67968 h -13.92578 c -1.4728,0 -2.65821,1.1951 -2.65821,2.67968 v 21.99805 H 903.9375 v -21.99805 c 0,-1.48458 -1.1854,-2.67968 -2.6582,-2.67968 h -13.92578 c -1.4728,0 -2.65821,1.1951 -2.65821,2.67968 v 21.99805 H 857.9375 v -21.99805 c 0,-1.48458 -1.1854,-2.67968 -2.6582,-2.67968 h -13.92578 c -1.4728,0 -2.65821,1.1951 -2.65821,2.67968 v 21.99805 H 811.9375 v -21.99805 c 0,-1.48458 -1.1854,-2.67968 -2.6582,-2.67968 h -13.92578 c -1.4728,0 -2.65821,1.1951 -2.65821,2.67968 v 21.99805 H 765.9375 v -21.99805 c 0,-1.48458 -1.1854,-2.67968 -2.6582,-2.67968 h -13.92578 c -1.4728,0 -2.65821,1.1951 -2.65821,2.67968 v 21.99805 H 719.9375 v -21.99805 c 0,-1.48458 -1.1854,-2.67968 -2.6582,-2.67969 l -13.92578,1e-5 c -1.4728,-1e-5 -2.65821,1.1951 -2.65821,2.67968 v 21.99805 H 673.9375 v -21.99805 c 0,-1.48458 -1.1854,-2.67968 -2.6582,-2.67968 h -13.92578 c -1.4728,0 -2.65821,1.1951 -2.65821,2.67968 v 21.99805 H 627.9375 l -10e-6,-21.99805 c 10e-6,-1.48458 -1.18539,-2.67968 -2.65819,-2.67968 h -13.92578 c -1.4728,0 -2.65821,1.1951 -2.65821,2.67968 l 1e-5,21.99805 H 581.9375 v -21.99805 c 0,-1.48458 -1.1854,-2.67968 -2.6582,-2.67968 h -13.92578 c -1.4728,0 -2.65821,1.1951 -2.65821,2.67968 v 21.99805 H 535.9375 v -21.99804 c 0,-1.48459 -1.1854,-2.67969 -2.6582,-2.67969 h -13.92578 c -1.4728,0 -2.65821,1.1951 -2.65822,2.67968 l 10e-6,21.99805 H 489.9375 v -21.99805 c 0,-1.48458 -1.1854,-2.67968 -2.6582,-2.67968 h -13.92578 c -1.4728,0 -2.65821,1.1951 -2.65821,2.67968 v 21.99805 l -26.75781,10e-6 v -21.99806 c 0,-1.48458 -1.1854,-2.67968 -2.6582,-2.67968 h -13.92578 c -1.4728,0 -2.65821,1.1951 -2.65821,2.67968 v 21.99805 H 397.9375 v -21.99805 c 0,-1.48458 -1.1854,-2.67968 -2.6582,-2.67968 h -13.92578 c -1.4728,0 -2.65821,1.1951 -2.65821,2.67968 v 21.99805 H 351.9375 v -21.99805 c 0,-1.48458 -1.1854,-2.67967 -2.65819,-2.67968 h -13.92579 c -1.47279,0 -2.65821,1.1951 -2.65821,2.67968 v 21.99805 h -3.46875 c -8.0011,0 -13.38856,6.51021 -14.44336,14.44141 l -18,135.34765 -1.74218,14.29102 -37.81446,-0.42578 c -8.001,-10e-6 -13.21626,6.53699 -14.44336,14.44336 L 178.1354,883.5246 m 0,0 -3.05746,19.69932 M 295.04102,452.98047 3746.7921,453.1312"
         sodipodi:nodetypes="ccsccscccssssccccccsscsssscccssssccssssccssssccssssccssssccssssccssssccssssccssssccssssccssssccssssccssssccssssccssssccssssccssssccssssccssssccssssccssssccssssccssssccssssccssssccssssccssssccssssccssssccssssccssssccssssccssssccssssccssssccsssscccssssccssssccssssccssssccssssccssssccssssccssssccssssccssssccssssccssssccssssccssssccssssccssssccssssccssssccssssccssssccssssccssssccssssccssssccssssccssssccssssccssssccssssccssssccssssccssssccssssccssssccssssccssssccsssscscccccccccc" />
      <rect
         style="display:inline;fill:none;fill-opacity:0.5;stroke:#f4f4f4;stroke-width:7;stroke-miterlimit:4;stroke-dasharray:none;stroke-opacity:1"
         id="rect1941"
         width="559.51654"
         height="119.03036"
         x="3253.2444"
         y="1349.608"
         rx="14.4423"
         ry="14.4423"
         inkscape:label="Logo" />
      <path
         id="path13535"
         style="display:inline;fill:none;fill-opacity:0.5;stroke:#f4f4f4;stroke-width:14;stroke-miterlimit:4;stroke-dasharray:none;stroke-opacity:1"
         inkscape:label="Ribs"
         d="m 1991.3537,264.22307 h 13.9249 c 1.4728,0 2.6585,1.19517 2.6585,2.67975 v 183.35891 c 0,1.48459 -1.1857,2.67976 -2.6585,2.67976 h -13.9249 c -1.4728,0 -2.6585,-1.19517 -2.6585,-2.67976 V 266.90282 c 0,-1.48458 1.1857,-2.67975 2.6585,-2.67975 z m -46,0 h 13.9249 c 1.4728,0 2.6585,1.19517 2.6585,2.67975 v 183.35891 c 0,1.48459 -1.1857,2.67976 -2.6585,2.67976 h -13.9249 c -1.4728,0 -2.6585,-1.19517 -2.6585,-2.67976 V 266.90282 c 0,-1.48458 1.1857,-2.67975 2.6585,-2.67975 z m -46,0 h 13.9249 c 1.4728,0 2.6585,1.19517 2.6585,2.67975 v 183.35891 c 0,1.48459 -1.1857,2.67976 -2.6585,2.67976 h -13.9249 c -1.4728,0 -2.6585,-1.19517 -2.6585,-2.67976 V 266.90282 c 0,-1.48458 1.1857,-2.67975 2.6585,-2.67975 z m -46,0 h 13.9249 c 1.4728,0 2.6585,1.19517 2.6585,2.67975 v 183.35891 c 0,1.48459 -1.1857,2.67976 -2.6585,2.67976 h -13.9249 c -1.4728,0 -2.6585,-1.19517 -2.6585,-2.67976 V 266.90282 c 0,-1.48458 1.1857,-2.67975 2.6585,-2.67975 z m -46,0 h 13.9249 c 1.4728,0 2.6585,1.19517 2.6585,2.67975 v 183.35891 c 0,1.48459 -1.1857,2.67976 -2.6585,2.67976 h -13.9249 c -1.4728,0 -2.6585,-1.19517 -2.6585,-2.67976 V 266.90282 c 0,-1.48458 1.1857,-2.67975 2.6585,-2.67975 z m -46,0 h 13.9249 c 1.4728,0 2.6585,1.19517 2.6585,2.67975 v 183.35891 c 0,1.48459 -1.1857,2.67976 -2.6585,2.67976 h -13.9249 c -1.4728,0 -2.6585,-1.19517 -2.6585,-2.67976 V 266.90282 c 0,-1.48458 1.1857,-2.67975 2.6585,-2.67975 z m -46,0 h 13.9249 c 1.4728,0 2.6585,1.19517 2.6585,2.67975 v 183.35891 c 0,1.48459 -1.1857,2.67976 -2.6585,2.67976 h -13.9249 c -1.4728,0 -2.6585,-1.19517 -2.6585,-2.67976 V 266.90282 c 0,-1.48458 1.1857,-2.67975 2.6585,-2.67975 z m -46,0 h 13.9249 c 1.4728,0 2.6585,1.19517 2.6585,2.67975 v 183.35891 c 0,1.48459 -1.1857,2.67976 -2.6585,2.67976 h -13.9249 c -1.4728,0 -2.6585,-1.19517 -2.6585,-2.67976 V 266.90282 c 0,-1.48458 1.1857,-2.67975 2.6585,-2.67975 z m -46,0 h 13.9249 c 1.4728,0 2.6585,1.19517 2.6585,2.67975 v 183.35891 c 0,1.48459 -1.1857,2.67976 -2.6585,2.67976 h -13.9249 c -1.4728,0 -2.6585,-1.19517 -2.6585,-2.67976 V 266.90282 c 0,-1.48458 1.1857,-2.67975 2.6585,-2.67975 z m -46,0 h 13.9249 c 1.4728,0 2.6585,1.19517 2.6585,2.67975 v 183.35891 c 0,1.48459 -1.1857,2.67976 -2.6585,2.67976 h -13.9249 c -1.4728,0 -2.6585,-1.19517 -2.6585,-2.67976 V 266.90282 c 0,-1.48458 1.1857,-2.67975 2.6585,-2.67975 z m -46,0 h 13.9249 c 1.4728,0 2.6585,1.19517 2.6585,2.67975 v 183.35891 c 0,1.48459 -1.1857,2.67976 -2.6585,2.67976 h -13.9249 c -1.4728,0 -2.6585,-1.19517 -2.6585,-2.67976 V 266.90282 c 0,-1.48458 1.1857,-2.67975 2.6585,-2.67975 z m -46,0 h 13.9249 c 1.4728,0 2.6585,1.19517 2.6585,2.67975 v 183.35891 c 0,1.48459 -1.1857,2.67976 -2.6585,2.67976 h -13.9249 c -1.4728,0 -2.6585,-1.19517 -2.6585,-2.67976 V 266.90282 c 0,-1.48458 1.1857,-2.67975 2.6585,-2.67975 z m -46,0 h 13.9249 c 1.4728,0 2.6585,1.19517 2.6585,2.67975 v 183.35891 c 0,1.48459 -1.1857,2.67976 -2.6585,2.67976 h -13.9249 c -1.4728,0 -2.6585,-1.19517 -2.6585,-2.67976 V 266.90282 c 0,-1.48458 1.1857,-2.67975 2.6585,-2.67975 z m -46,0 h 13.9249 c 1.4728,0 2.6585,1.19517 2.6585,2.67975 v 183.35891 c 0,1.48459 -1.1857,2.67976 -2.6585,2.67976 h -13.9249 c -1.4728,0 -2.6585,-1.19517 -2.6585,-2.67976 V 266.90282 c 0,-1.48458 1.1857,-2.67975 2.6585,-2.67975 z m -46,0 h 13.9249 c 1.4728,0 2.6585,1.19517 2.6585,2.67975 v 183.35891 c 0,1.48459 -1.1857,2.67976 -2.6585,2.67976 h -13.9249 c -1.4728,0 -2.6585,-1.19517 -2.6585,-2.67976 V 266.90282 c 0,-1.48458 1.1857,-2.67975 2.6585,-2.67975 z m -46,0 h 13.9249 c 1.4728,0 2.6585,1.19517 2.6585,2.67975 v 183.35891 c 0,1.48459 -1.1857,2.67976 -2.6585,2.67976 h -13.9249 c -1.4728,0 -2.6585,-1.19517 -2.6585,-2.67976 V 266.90282 c 0,-1.48458 1.1857,-2.67975 2.6585,-2.67975 z m -46,0 h 13.9249 c 1.4728,0 2.6585,1.19517 2.6585,2.67975 v 183.35891 c 0,1.48459 -1.1857,2.67976 -2.6585,2.67976 h -13.9249 c -1.4728,0 -2.6585,-1.19517 -2.6585,-2.67976 V 266.90282 c 0,-1.48458 1.1857,-2.67975 2.6585,-2.67975 z m -46,0 h 13.9249 c 1.4728,0 2.6585,1.19517 2.6585,2.67975 v 183.35891 c 0,1.48459 -1.1857,2.67976 -2.6585,2.67976 h -13.9249 c -1.4728,0 -2.6585,-1.19517 -2.6585,-2.67976 V 266.90282 c 0,-1.48458 1.1857,-2.67975 2.6585,-2.67975 z m -46,0 h 13.9249 c 1.4728,0 2.6585,1.19517 2.6585,2.67975 v 183.35891 c 0,1.48459 -1.1857,2.67976 -2.6585,2.67976 h -13.9249 c -1.4728,0 -2.6585,-1.19517 -2.6585,-2.67976 V 266.90282 c 0,-1.48458 1.1857,-2.67975 2.6585,-2.67975 z m -46,0 h 13.9249 c 1.4728,0 2.6585,1.19517 2.6585,2.67975 v 183.35891 c 0,1.48459 -1.1857,2.67976 -2.6585,2.67976 h -13.9249 c -1.4728,0 -2.6585,-1.19517 -2.6585,-2.67976 V 266.90282 c 0,-1.48458 1.1857,-2.67975 2.6585,-2.67975 z m -46,0 h 13.9249 c 1.4728,0 2.6585,1.19517 2.6585,2.67975 v 183.35891 c 0,1.48459 -1.1857,2.67976 -2.6585,2.67976 h -13.9249 c -1.4728,0 -2.6585,-1.19517 -2.6585,-2.67976 V 266.90282 c 0,-1.48458 1.1857,-2.67975 2.6585,-2.67975 z m -46,0 h 13.9249 c 1.4728,0 2.6585,1.19517 2.6585,2.67975 v 183.35891 c 0,1.48459 -1.1857,2.67976 -2.6585,2.67976 h -13.9249 c -1.4728,0 -2.6585,-1.19517 -2.6585,-2.67976 V 266.90282 c 0,-1.48458 1.1857,-2.67975 2.6585,-2.67975 z m -46.00002,0 h 13.9249 c 1.4728,0 2.6585,1.19517 2.6585,2.67975 v 183.35891 c 0,1.48459 -1.1857,2.67976 -2.6585,2.67976 h -13.9249 c -1.4728,0 -2.6585,-1.19517 -2.6585,-2.67976 V 266.90282 c 0,-1.48458 1.1857,-2.67975 2.6585,-2.67975 z m -46,0 h 13.9249 c 1.4728,0 2.6585,1.19517 2.6585,2.67975 v 183.35891 c 0,1.48459 -1.1857,2.67976 -2.6585,2.67976 h -13.9249 c -1.4728,0 -2.6585,-1.19517 -2.6585,-2.67976 V 266.90282 c 0,-1.48458 1.1857,-2.67975 2.6585,-2.67975 z m -46,0 h 13.9249 c 1.4728,0 2.6585,1.19517 2.6585,2.67975 v 183.35891 c 0,1.48459 -1.1857,2.67976 -2.6585,2.67976 h -13.9249 c -1.4728,0 -2.6585,-1.19517 -2.6585,-2.67976 V 266.90282 c 0,-1.48458 1.1857,-2.67975 2.6585,-2.67975 z m -46,0 h 13.9249 c 1.4728,0 2.6585,1.19517 2.6585,2.67975 v 183.35891 c 0,1.48459 -1.1857,2.67976 -2.6585,2.67976 h -13.9249 c -1.4728,0 -2.6585,-1.19517 -2.6585,-2.67976 V 266.90282 c 0,-1.48458 1.1857,-2.67975 2.6585,-2.67975 z m -46,0 h 13.9249 c 1.4728,0 2.6585,1.19517 2.6585,2.67975 v 183.35891 c 0,1.48459 -1.1857,2.67976 -2.6585,2.67976 h -13.9249 c -1.4728,0 -2.6585,-1.19517 -2.6585,-2.67976 V 266.90282 c 0,-1.48458 1.1857,-2.67975 2.6585,-2.67975 z m -46,0 h 13.9249 c 1.4728,0 2.6585,1.19517 2.6585,2.67975 v 183.35891 c 0,1.48459 -1.1857,2.67976 -2.6585,2.67976 h -13.9249 c -1.4728,0 -2.6585,-1.19517 -2.6585,-2.67976 V 266.90282 c 0,-1.48458 1.1857,-2.67975 2.6585,-2.67975 z m -46,0 h 13.9249 c 1.4728,0 2.6585,1.19517 2.6585,2.67975 v 183.35891 c 0,1.48459 -1.1857,2.67976 -2.6585,2.67976 h -13.9249 c -1.4728,0 -2.6585,-1.19517 -2.6585,-2.67976 V 266.90282 c 0,-1.48458 1.1857,-2.67975 2.6585,-2.67975 z m -46,0 h 13.9249 c 1.4728,0 2.6585,1.19517 2.6585,2.67975 v 183.35891 c 0,1.48459 -1.1857,2.67976 -2.6585,2.67976 h -13.9249 c -1.4728,0 -2.6585,-1.19517 -2.6585,-2.67976 V 266.90282 c 0,-1.48458 1.1857,-2.67975 2.6585,-2.67975 z m -46,0 h 13.9249 c 1.4728,0 2.6585,1.19517 2.6585,2.67975 v 183.35891 c 0,1.48459 -1.1857,2.67976 -2.6585,2.67976 h -13.9249 c -1.4728,0 -2.6585,-1.19517 -2.6585,-2.67976 V 266.90282 c 0,-1.48458 1.1857,-2.67975 2.6585,-2.67975 z m -46,0 h 13.9249 c 1.4728,0 2.6585,1.19517 2.6585,2.67975 v 183.35891 c 0,1.48459 -1.1857,2.67976 -2.6585,2.67976 h -13.9249 c -1.4728,0 -2.6585,-1.19517 -2.6585,-2.67976 V 266.90282 c 0,-1.48458 1.1857,-2.67975 2.6585,-2.67975 z m -46,0 h 13.9249 c 1.4728,0 2.6585,1.19517 2.6585,2.67975 v 183.35891 c 0,1.48459 -1.1857,2.67976 -2.6585,2.67976 h -13.9249 c -1.4728,0 -2.6585,-1.19517 -2.6585,-2.67976 V 266.90282 c 0,-1.48458 1.1857,-2.67975 2.6585,-2.67975 z m -46,0 h 13.9249 c 1.4728,0 2.6585,1.19517 2.6585,2.67975 v 183.35891 c 0,1.48459 -1.1857,2.67976 -2.6585,2.67976 h -13.9249 c -1.4728,0 -2.6585,-1.19517 -2.6585,-2.67976 V 266.90282 c 0,-1.48458 1.1857,-2.67975 2.6585,-2.67975 z m -46,0 h 13.9249 c 1.4728,0 2.6585,1.19517 2.6585,2.67975 v 183.35891 c 0,1.48459 -1.1857,2.67976 -2.6585,2.67976 h -13.9249 c -1.4728,0 -2.6585,-1.19517 -2.6585,-2.67976 V 266.90282 c 0,-1.48458 1.1857,-2.67975 2.6585,-2.67975 z m -46,0 h 13.9249 c 1.4728,0 2.6585,1.19517 2.6585,2.67975 v 183.35891 c 0,1.48459 -1.1857,2.67976 -2.6585,2.67976 h -13.9249 c -1.4728,0 -2.6585,-1.19517 -2.6585,-2.67976 V 266.90282 c 0,-1.48458 1.1857,-2.67975 2.6585,-2.67975 z m -46,0 h 13.9249 c 1.4728,0 2.6585,1.19517 2.6585,2.67975 v 183.35891 c 0,1.48459 -1.1857,2.67976 -2.6585,2.67976 h -13.9249 c -1.4728,0 -2.6585,-1.19517 -2.6585,-2.67976 V 266.90282 c 0,-1.48458 1.1857,-2.67975 2.6585,-2.67975 z m 3358.00002,0 h 13.9249 c 1.4728,0 2.6585,1.19517 2.6585,2.67975 v 183.35891 c 0,1.48459 -1.1857,2.67976 -2.6585,2.67976 h -13.9249 c -1.4728,0 -2.6585,-1.19517 -2.6585,-2.67976 V 266.90282 c 0,-1.48458 1.1857,-2.67975 2.6585,-2.67975 z m -46,0 h 13.9249 c 1.4728,0 2.6585,1.19517 2.6585,2.67975 v 183.35891 c 0,1.48459 -1.1857,2.67976 -2.6585,2.67976 h -13.9249 c -1.4728,0 -2.6585,-1.19517 -2.6585,-2.67976 V 266.90282 c 0,-1.48458 1.1857,-2.67975 2.6585,-2.67975 z m -46,0 h 13.9249 c 1.4728,0 2.6585,1.19517 2.6585,2.67975 v 183.35891 c 0,1.48459 -1.1857,2.67976 -2.6585,2.67976 h -13.9249 c -1.4728,0 -2.6585,-1.19517 -2.6585,-2.67976 V 266.90282 c 0,-1.48458 1.1857,-2.67975 2.6585,-2.67975 z m -46,0 h 13.9249 c 1.4728,0 2.6585,1.19517 2.6585,2.67975 v 183.35891 c 0,1.48459 -1.1857,2.67976 -2.6585,2.67976 h -13.9249 c -1.4728,0 -2.6585,-1.19517 -2.6585,-2.67976 V 266.90282 c 0,-1.48458 1.1857,-2.67975 2.6585,-2.67975 z m -46,0 h 13.9249 c 1.4728,0 2.6585,1.19517 2.6585,2.67975 v 183.35891 c 0,1.48459 -1.1857,2.67976 -2.6585,2.67976 h -13.9249 c -1.4728,0 -2.6585,-1.19517 -2.6585,-2.67976 V 266.90282 c 0,-1.48458 1.1857,-2.67975 2.6585,-2.67975 z m -46,0 h 13.9249 c 1.4728,0 2.6585,1.19517 2.6585,2.67975 v 183.35891 c 0,1.48459 -1.1857,2.67976 -2.6585,2.67976 h -13.9249 c -1.4728,0 -2.6585,-1.19517 -2.6585,-2.67976 V 266.90282 c 0,-1.48458 1.1857,-2.67975 2.6585,-2.67975 z m -46,0 h 13.9249 c 1.4728,0 2.6585,1.19517 2.6585,2.67975 v 183.35891 c 0,1.48459 -1.1857,2.67976 -2.6585,2.67976 h -13.9249 c -1.4728,0 -2.6585,-1.19517 -2.6585,-2.67976 V 266.90282 c 0,-1.48458 1.1857,-2.67975 2.6585,-2.67975 z m -46,0 h 13.9249 c 1.4728,0 2.6585,1.19517 2.6585,2.67975 v 183.35891 c 0,1.48459 -1.1857,2.67976 -2.6585,2.67976 h -13.9249 c -1.4728,0 -2.6585,-1.19517 -2.6585,-2.67976 V 266.90282 c 0,-1.48458 1.1857,-2.67975 2.6585,-2.67975 z m -46,0 h 13.9249 c 1.4728,0 2.6585,1.19517 2.6585,2.67975 v 183.35891 c 0,1.48459 -1.1857,2.67976 -2.6585,2.67976 h -13.9249 c -1.4728,0 -2.6585,-1.19517 -2.6585,-2.67976 V 266.90282 c 0,-1.48458 1.1857,-2.67975 2.6585,-2.67975 z m -46,0 h 13.9249 c 1.4728,0 2.6585,1.19517 2.6585,2.67975 v 183.35891 c 0,1.48459 -1.1857,2.67976 -2.6585,2.67976 h -13.9249 c -1.4728,0 -2.6585,-1.19517 -2.6585,-2.67976 V 266.90282 c 0,-1.48458 1.1857,-2.67975 2.6585,-2.67975 z m -46,0 h 13.9249 c 1.4728,0 2.6585,1.19517 2.6585,2.67975 v 183.35891 c 0,1.48459 -1.1857,2.67976 -2.6585,2.67976 h -13.9249 c -1.4728,0 -2.6585,-1.19517 -2.6585,-2.67976 V 266.90282 c 0,-1.48458 1.1857,-2.67975 2.6585,-2.67975 z m -46,0 h 13.9249 c 1.4728,0 2.6585,1.19517 2.6585,2.67975 v 183.35891 c 0,1.48459 -1.1857,2.67976 -2.6585,2.67976 h -13.9249 c -1.4728,0 -2.6585,-1.19517 -2.6585,-2.67976 V 266.90282 c 0,-1.48458 1.1857,-2.67975 2.6585,-2.67975 z m -46,0 h 13.9249 c 1.4728,0 2.6585,1.19517 2.6585,2.67975 v 183.35891 c 0,1.48459 -1.1857,2.67976 -2.6585,2.67976 h -13.9249 c -1.4728,0 -2.6585,-1.19517 -2.6585,-2.67976 V 266.90282 c 0,-1.48458 1.1857,-2.67975 2.6585,-2.67975 z m -46,0 h 13.9249 c 1.4728,0 2.6585,1.19517 2.6585,2.67975 v 183.35891 c 0,1.48459 -1.1857,2.67976 -2.6585,2.67976 h -13.9249 c -1.4728,0 -2.6585,-1.19517 -2.6585,-2.67976 V 266.90282 c 0,-1.48458 1.1857,-2.67975 2.6585,-2.67975 z m -46,0 h 13.9249 c 1.4728,0 2.6585,1.19517 2.6585,2.67975 v 183.35891 c 0,1.48459 -1.1857,2.67976 -2.6585,2.67976 h -13.9249 c -1.4728,0 -2.6585,-1.19517 -2.6585,-2.67976 V 266.90282 c 0,-1.48458 1.1857,-2.67975 2.6585,-2.67975 z m -46,0 h 13.9249 c 1.4728,0 2.6585,1.19517 2.6585,2.67975 v 183.35891 c 0,1.48459 -1.1857,2.67976 -2.6585,2.67976 h -13.9249 c -1.4728,0 -2.6585,-1.19517 -2.6585,-2.67976 V 266.90282 c 0,-1.48458 1.1857,-2.67975 2.6585,-2.67975 z m -46,0 h 13.9249 c 1.4728,0 2.6585,1.19517 2.6585,2.67975 v 183.35891 c 0,1.48459 -1.1857,2.67976 -2.6585,2.67976 h -13.9249 c -1.4728,0 -2.6585,-1.19517 -2.6585,-2.67976 V 266.90282 c 0,-1.48458 1.1857,-2.67975 2.6585,-2.67975 z m -46,0 h 13.9249 c 1.4728,0 2.6585,1.19517 2.6585,2.67975 v 183.35891 c 0,1.48459 -1.1857,2.67976 -2.6585,2.67976 h -13.9249 c -1.4728,0 -2.6585,-1.19517 -2.6585,-2.67976 V 266.90282 c 0,-1.48458 1.1857,-2.67975 2.6585,-2.67975 z m -46,0 h 13.9249 c 1.4728,0 2.6585,1.19517 2.6585,2.67975 v 183.35891 c 0,1.48459 -1.1857,2.67976 -2.6585,2.67976 h -13.9249 c -1.4728,0 -2.6585,-1.19517 -2.6585,-2.67976 V 266.90282 c 0,-1.48458 1.1857,-2.67975 2.6585,-2.67975 z m -46,0 h 13.9249 c 1.4728,0 2.6585,1.19517 2.6585,2.67975 v 183.35891 c 0,1.48459 -1.1857,2.67976 -2.6585,2.67976 h -13.9249 c -1.4728,0 -2.6585,-1.19517 -2.6585,-2.67976 V 266.90282 c 0,-1.48458 1.1857,-2.67975 2.6585,-2.67975 z m -46,0 h 13.9249 c 1.4728,0 2.6585,1.19517 2.6585,2.67975 v 183.35891 c 0,1.48459 -1.1857,2.67976 -2.6585,2.67976 h -13.9249 c -1.4728,0 -2.6585,-1.19517 -2.6585,-2.67976 V 266.90282 c 0,-1.48458 1.1857,-2.67975 2.6585,-2.67975 z m -46,0 h 13.9249 c 1.4728,0 2.6585,1.19517 2.6585,2.67975 v 183.35891 c 0,1.48459 -1.1857,2.67976 -2.6585,2.67976 h -13.9249 c -1.4728,0 -2.6585,-1.19517 -2.6585,-2.67976 V 266.90282 c 0,-1.48458 1.1857,-2.67975 2.6585,-2.67975 z m -46,0 h 13.9249 c 1.4728,0 2.6585,1.19517 2.6585,2.67975 v 183.35891 c 0,1.48459 -1.1857,2.67976 -2.6585,2.67976 h -13.9249 c -1.4728,0 -2.6585,-1.19517 -2.6585,-2.67976 V 266.90282 c 0,-1.48458 1.1857,-2.67975 2.6585,-2.67975 z m -46,0 h 13.9249 c 1.4728,0 2.6585,1.19517 2.6585,2.67975 v 183.35891 c 0,1.48459 -1.1857,2.67976 -2.6585,2.67976 h -13.9249 c -1.4728,0 -2.6585,-1.19517 -2.6585,-2.67976 V 266.90282 c 0,-1.48458 1.1857,-2.67975 2.6585,-2.67975 z m -46,0 h 13.9249 c 1.4728,0 2.6585,1.19517 2.6585,2.67975 v 183.35891 c 0,1.48459 -1.1857,2.67976 -2.6585,2.67976 h -13.9249 c -1.4728,0 -2.6585,-1.19517 -2.6585,-2.67976 V 266.90282 c 0,-1.48458 1.1857,-2.67975 2.6585,-2.67975 z m -46,0 h 13.9249 c 1.4728,0 2.6585,1.19517 2.6585,2.67975 v 183.35891 c 0,1.48459 -1.1857,2.67976 -2.6585,2.67976 h -13.9249 c -1.4728,0 -2.6585,-1.19517 -2.6585,-2.67976 V 266.90282 c 0,-1.48458 1.1857,-2.67975 2.6585,-2.67975 z m -46,0 h 13.9249 c 1.4728,0 2.6585,1.19517 2.6585,2.67975 v 183.35891 c 0,1.48459 -1.1857,2.67976 -2.6585,2.67976 h -13.9249 c -1.4728,0 -2.6585,-1.19517 -2.6585,-2.67976 V 266.90282 c 0,-1.48458 1.1857,-2.67975 2.6585,-2.67975 z m -46,0 h 13.9249 c 1.4728,0 2.6585,1.19517 2.6585,2.67975 v 183.35891 c 0,1.48459 -1.1857,2.67976 -2.6585,2.67976 h -13.9249 c -1.4728,0 -2.6585,-1.19517 -2.6585,-2.67976 V 266.90282 c 0,-1.48458 1.1857,-2.67975 2.6585,-2.67975 z m -46,0 h 13.9249 c 1.4728,0 2.6585,1.19517 2.6585,2.67975 v 183.35891 c 0,1.48459 -1.1857,2.67976 -2.6585,2.67976 h -13.9249 c -1.4728,0 -2.6585,-1.19517 -2.6585,-2.67976 V 266.90282 c 0,-1.48458 1.1857,-2.67975 2.6585,-2.67975 z m -46,0 h 13.9249 c 1.4728,0 2.6585,1.19517 2.6585,2.67975 v 183.35891 c 0,1.48459 -1.1857,2.67976 -2.6585,2.67976 h -13.9249 c -1.4728,0 -2.6585,-1.19517 -2.6585,-2.67976 V 266.90282 c 0,-1.48458 1.1857,-2.67975 2.6585,-2.67975 z m -46,0 h 13.9249 c 1.4728,0 2.6585,1.19517 2.6585,2.67975 v 183.35891 c 0,1.48459 -1.1857,2.67976 -2.6585,2.67976 h -13.9249 c -1.4728,0 -2.6585,-1.19517 -2.6585,-2.67976 V 266.90282 c 0,-1.48458 1.1857,-2.67975 2.6585,-2.67975 z m -46,0 h 13.9249 c 1.4728,0 2.6585,1.19517 2.6585,2.67975 v 183.35891 c 0,1.48459 -1.1857,2.67976 -2.6585,2.67976 h -13.9249 c -1.4728,0 -2.6585,-1.19517 -2.6585,-2.67976 V 266.90282 c 0,-1.48458 1.1857,-2.67975 2.6585,-2.67975 z m -46,0 h 13.9249 c 1.4728,0 2.6585,1.19517 2.6585,2.67975 v 183.35891 c 0,1.48459 -1.1857,2.67976 -2.6585,2.67976 h -13.9249 c -1.4728,0 -2.6585,-1.19517 -2.6585,-2.67976 V 266.90282 c 0,-1.48458 1.1857,-2.67975 2.6585,-2.67975 z m -46,0 h 13.9249 c 1.4728,0 2.6585,1.19517 2.6585,2.67975 v 183.35891 c 0,1.48459 -1.1857,2.67976 -2.6585,2.67976 h -13.9249 c -1.4728,0 -2.6585,-1.19517 -2.6585,-2.67976 V 266.90282 c 0,-1.48458 1.1857,-2.67975 2.6585,-2.67975 z m -46,0 h 13.9249 c 1.4728,0 2.6585,1.19517 2.6585,2.67975 v 183.35891 c 0,1.48459 -1.1857,2.67976 -2.6585,2.67976 h -13.9249 c -1.4728,0 -2.6585,-1.19517 -2.6585,-2.67976 V 266.90282 c 0,-1.48458 1.1857,-2.67975 2.6585,-2.67975 z m -46,0 h 13.9249 c 1.4728,0 2.6585,1.19517 2.6585,2.67975 v 183.35891 c 0,1.48459 -1.1857,2.67976 -2.6585,2.67976 h -13.9249 c -1.4728,0 -2.6585,-1.19517 -2.6585,-2.67976 V 266.90282 c 0,-1.48458 1.1857,-2.67975 2.6585,-2.67975 z m -46,0 h 13.9249 c 1.4728,0 2.6585,1.19517 2.6585,2.67975 v 183.35891 c 0,1.48459 -1.1857,2.67976 -2.6585,2.67976 h -13.9249 c -1.4728,0 -2.6585,-1.19517 -2.6585,-2.67976 V 266.90282 c 0,-1.48458 1.1857,-2.67975 2.6585,-2.67975 z" />
      <g
         id="g22560"
         inkscape:label="Vents"
         style="fill:none;stroke:#f4f4f4;stroke-width:7;stroke-miterlimit:4;stroke-dasharray:none;stroke-opacity:1">
        <path
           id="rect14394"
           style="fill:none;stroke:#f4f4f4;stroke-width:7;stroke-miterlimit:4;stroke-dasharray:none;stroke-opacity:1"
           d="M 178.24989,882.93304 H 3758.7793 c 1.4728,0 2.6585,1.18573 2.6585,2.65858 v 14.55787 c 0,1.47285 -1.1857,2.65858 -2.6585,2.65858 H 175.09565"
           sodipodi:nodetypes="cssssc" />
        <path
           id="rect14498"
           style="fill:none;stroke:#f4f4f4;stroke-width:7;stroke-miterlimit:4;stroke-dasharray:none;stroke-opacity:1"
           d="M 184.78038,838.93304 H 3758.7793 c 1.4728,0 2.6585,1.18573 2.6585,2.65858 v 14.55787 c 0,1.47285 -1.1857,2.65858 -2.6585,2.65858 H 181.57558"
           sodipodi:nodetypes="cssssc" />
        <path
           id="rect14500"
           style="fill:none;stroke:#f4f4f4;stroke-width:7;stroke-miterlimit:4;stroke-dasharray:none;stroke-opacity:1"
           d="M 191.83072,794.93304 H 3758.7793 c 1.4728,0 2.6585,1.18573 2.6585,2.65858 v 14.55787 c 0,1.47285 -1.1857,2.65858 -2.6585,2.65858 H 188.90178"
           sodipodi:nodetypes="cssssc" />
        <path
           id="rect14502"
           style="fill:none;stroke:#f4f4f4;stroke-width:7;stroke-miterlimit:4;stroke-dasharray:none;stroke-opacity:1"
           d="M 198.71181,750.93304 H 3758.7793 c 1.4728,0 2.6585,1.18573 2.6585,2.65858 v 14.55787 c 0,1.47285 -1.1857,2.65858 -2.6585,2.65858 H 195.78067"
           sodipodi:nodetypes="cssssc" />
        <path
           id="rect14504"
           style="fill:none;stroke:#f4f4f4;stroke-width:7;stroke-miterlimit:4;stroke-dasharray:none;stroke-opacity:1"
           d="M 205.70829,706.93304 H 3758.7793 c 1.4728,0 2.6585,1.18573 2.6585,2.65858 v 14.55787 c 0,1.47285 -1.1857,2.65858 -2.6585,2.65858 H 202.31556"
           sodipodi:nodetypes="cssssc" />
        <path
           id="rect14506"
           style="fill:none;stroke:#f4f4f4;stroke-width:7;stroke-miterlimit:4;stroke-dasharray:none;stroke-opacity:1"
           d="M 212.66851,662.93304 H 3758.7793 c 1.4728,0 2.6585,1.18573 2.6585,2.65858 v 14.55787 c 0,1.47285 -1.1857,2.65858 -2.6585,2.65858 H 209.09223"
           sodipodi:nodetypes="cssssc" />
        <path
           id="rect14508"
           style="fill:none;stroke:#f4f4f4;stroke-width:7;stroke-miterlimit:4;stroke-dasharray:none;stroke-opacity:1"
           d="M 218.95721,618.93304 H 3758.7793 c 1.4728,0 2.6585,1.18573 2.6585,2.65858 v 14.55787 c 0,1.47285 -1.1857,2.65858 -2.6585,2.65858 H 215.57766"
           sodipodi:nodetypes="cssssc" />
        <path
           id="rect14510"
           style="fill:none;stroke:#f4f4f4;stroke-width:7;stroke-miterlimit:4;stroke-dasharray:none;stroke-opacity:1"
           d="m 225.6009,574.93304 h 3533.1784 c 1.4728,0 2.6585,1.18573 2.6585,2.65858 v 14.55787 c 0,1.47285 -1.1857,2.65858 -2.6585,2.65858 H 223.26215"
           sodipodi:nodetypes="cssssc" />
        <path
           id="rect14512"
           style="fill:none;stroke:#f4f4f4;stroke-width:7;stroke-miterlimit:4;stroke-dasharray:none;stroke-opacity:1"
           d="M 232.82599,530.93304 H 3758.7793 c 1.4728,0 2.6585,1.18573 2.6585,2.65858 v 14.55787 c 0,1.47285 -1.1857,2.65858 -2.6585,2.65858 H 229.81792"
           sodipodi:nodetypes="cssssc" />
      </g>
      <rect
         style="fill:none;fill-opacity:1;stroke:#f4f4f4;stroke-width:7;stroke-miterlimit:4;stroke-dasharray:none;stroke-opacity:1"
         id="rect27744"
         width="133.50688"
         height="17.811031"
         x="3683.6367"
         y="1542.5215"
         inkscape:label="Power Light" />
      <rect
         style="fill:none;fill-opacity:1;stroke:#f4f4f4;stroke-width:7;stroke-miterlimit:4;stroke-dasharray:none;stroke-opacity:1"
         id="rect27662"
         width="133.50688"
         height="17.811031"
         x="3683.6367"
         y="1608.5215"
         inkscape:label="Drive Light" />
      <g
         aria-label="AMIGA"
         id="text37502"
         style="font-size:233.333px;line-height:15;font-family:'ITC Garamond Std';-inkscape-font-specification:'ITC Garamond Std';letter-spacing:12px;display:inline;fill:none;stroke:#f4f4f4;stroke-width:7;stroke-miterlimit:4;stroke-dasharray:none;stroke-opacity:1"
         inkscape:label="Amiga Logo">
        <path
           d="m 3061.7484,1111.5045 c 0.7594,8.6798 1.8104,17.8556 2.3216,26.5354 0.9668,13.8878 -2.81,16.1197 -11.2071,16.6156 -6.4111,0.4961 -12.1208,0.4961 -11.6218,6.1999 0.4556,5.2079 6.4136,5.2079 9.6408,5.2079 6.2063,0 14.8082,-0.992 31.9375,-0.992 12.4124,0 26.8977,0.992 33.104,0.992 3.7238,0 10.1782,0 9.6575,-5.9519 -0.3906,-4.4638 -3.8878,-4.7119 -10.4507,-5.9518 -8.5489,-1.24 -9.4144,-5.456 -10.6728,-19.8396 -2.4058,-21.8235 -7.4591,-99.4458 -9.6696,-119.0374 -0.3471,-3.9679 -2.3235,-6.6959 -11.2605,-6.6959 -12.4126,0 -17.7004,1.984 -22.3496,8.4318 -28.5309,39.9272 -54.7965,77.3744 -81.3753,114.0776 -9.0935,12.3997 -15.0586,20.8316 -24.0485,23.0635 -5.0832,1.488 -9.2165,2.4799 -8.8476,6.6958 0.1301,1.4879 0.952,5.2079 7.903,5.2079 6.7027,0 14.5599,-0.992 22.2557,-0.992 8.6888,0 17.216,0.992 25.6565,0.992 3.972,0 9.9083,-0.248 9.4527,-5.4559 -0.3689,-4.2158 -4.1795,-5.2079 -8.713,-5.9519 -4.7818,-0.744 -10.8266,-1.7359 -11.3473,-7.6878 -0.3038,-3.4719 2.0148,-8.1838 4.6249,-12.3997 4.7888,-7.6879 10.0091,-16.1197 13.7738,-21.3276 1.0893,-1.7359 1.8341,-1.7359 3.8201,-1.7359 z m -0.6317,-12.8957 h -41.2095 c 12.3615,-17.6077 24.5182,-34.7193 36.6315,-52.3269 l 0.5182,0.248 z"
           style="font-style:italic;font-weight:bold;-inkscape-font-specification:'ITC Garamond Std Bold Italic';fill:none;fill-opacity:1;stroke:#f4f4f4;stroke-width:7;stroke-miterlimit:4;stroke-dasharray:none;stroke-opacity:1"
           id="path85914" />
        <path
           d="m 3167.6615,1023.2631 c 0.4509,5.0032 7.0762,5.0032 8.7939,5.0032 3.9475,0.2383 10.5943,0.4765 11.131,6.4327 0.2361,2.6207 -1.095,6.9091 -1.8404,9.5299 -8.1562,29.3042 -16.8032,58.6085 -25.4288,88.1511 -4.8343,17.1536 -6.7943,22.6333 -18.956,23.8246 -7.0732,0.4764 -9.8676,2.1442 -9.5025,6.1943 0.3434,3.812 5.5608,4.5267 8.7508,4.5267 4.4169,0 12.1833,-0.953 20.7717,-0.953 9.5699,0 19.2256,0.953 23.1517,0.953 3.4354,0 8.7909,-0.4764 8.34,-5.4796 -0.3863,-4.2884 -4.6008,-4.765 -9.0606,-5.2414 -4.4598,-0.4765 -8.7816,-2.1442 -9.4256,-9.2916 -0.6871,-7.6239 3.497,-23.8246 5.9141,-32.4015 6.5488,-22.6335 13.3645,-45.0286 19.935,-67.4237 h 0.4908 c 1.328,9.2916 2.1437,18.345 3.4718,27.6366 3.0332,25.4923 6.0664,50.9846 9.0782,76.2387 0.9446,10.4829 2.0672,14.7713 10.6556,14.7713 6.8708,0 8.4167,-1.906 11.8489,-7.3856 22.4162,-37.1664 45.0992,-74.0946 67.5152,-111.261 l 0.7576,0.2383 c -5.1257,30.2572 -10.23,60.7527 -15.3557,91.01 -1.9786,10.7211 -3.3406,17.392 -18.0421,17.6302 -3.6593,0.2383 -8.2141,1.4295 -7.8062,5.9561 0.4507,5.0032 7.5669,5.0032 11.9838,5.0032 4.9075,0 16.8454,-0.953 29.36,-0.953 16.686,0 30.7585,0.953 37.3839,0.953 3.19,0 10.0607,0 9.524,-5.9561 -0.3434,-3.8119 -4.6009,-4.7649 -9.9993,-4.7649 -4.193,-0.2383 -10.4134,-1.1913 -10.9072,-6.671 -0.2361,-2.6206 0.583,-7.1474 1.1781,-11.4358 5.3282,-30.7337 10.1656,-61.4675 15.27,-91.963 2.5736,-15.0095 4.8341,-17.1538 15.588,-17.6302 1.9417,-0.2383 8.7695,-0.7147 8.2972,-5.9562 -0.3006,-3.3354 -3.6408,-5.0031 -10.0208,-5.0031 -6.1345,0 -18.3393,0.7148 -26.9277,0.7148 -11.533,0 -16.5049,-0.7148 -22.8849,-0.7148 -6.1131,0.2382 -7.1254,2.6207 -11.3675,10.0063 -16.5115,26.4453 -33.2469,53.1289 -49.7368,79.8125 h -0.4908 c -3.1191,-26.4454 -6.2383,-52.8906 -9.3359,-79.0978 -0.73,-8.1003 -0.4753,-10.721 -6.1191,-10.721 -5.8892,0 -16.8669,0.7148 -28.4,0.7148 -12.5145,0 -20.9218,-0.7148 -27.3018,-0.7148 -3.1899,0 -10.7968,0 -10.303,5.4796 z"
           style="font-style:italic;font-weight:bold;-inkscape-font-specification:'ITC Garamond Std Bold Italic';fill:none;fill-opacity:1;stroke:#f4f4f4;stroke-width:7;stroke-miterlimit:4;stroke-dasharray:none;stroke-opacity:1"
           id="path85916" />
        <path
           d="m 3422.2445,1147.856 c -0.3266,-3.8139 1.3535,-11.4418 1.9806,-15.0174 l 17.3639,-86.0515 c 2.8234,-13.3487 3.4302,-17.1627 14.1022,-17.8778 7.1721,-0.7151 12.0517,-0.9535 11.5822,-6.436 -0.4287,-5.0057 -6.4954,-5.0057 -8.362,-5.0057 -9.1,0 -18.3517,0.9534 -34.4517,0.9534 -14.4667,0 -23.1816,-0.9534 -30.8816,-0.9534 -3.2666,0 -12.1537,-0.2384 -11.623,5.9592 0.4287,5.0058 6.3028,5.4825 8.3824,5.2441 6.3,0 11.4743,0.4768 11.9438,5.9593 0.2449,2.8604 -0.4027,6.1976 -1.3944,10.965 l -18.0522,88.9121 c -2.9139,15.0172 -4.6056,19.7847 -13.8777,20.4998 -8.8054,0.7151 -13.685,0.9534 -13.1951,6.6743 0.2858,3.3372 4.1825,5.2441 9.5491,5.2441 7.7,0 18.8184,-0.9534 30.4851,-0.9534 17.7333,0 28.7815,0.9534 35.3148,0.9534 3.9667,0 11.4334,0 10.9027,-6.1975 -0.4083,-4.7675 -5.3287,-5.0058 -8.3621,-5.0058 -5.1537,-0.2383 -10.8558,-1.4302 -11.3866,-7.6279 z"
           style="font-style:italic;font-weight:bold;-inkscape-font-specification:'ITC Garamond Std Bold Italic';fill:none;fill-opacity:1;stroke:#f4f4f4;stroke-width:7;stroke-miterlimit:4;stroke-dasharray:none;stroke-opacity:1"
           id="path85918" />
        <path
           d="m 3447.3262,1115.8636 c 0.945,10.322 6.9175,33.4237 31.6022,47.4321 14.0926,7.8644 32.4768,12.0424 54.0789,12.0424 12.3439,0 30.9373,-1.9662 43.8502,-4.178 11.907,-1.9662 17.195,-3.1949 18.3105,-7.8644 l 8.1849,-39.8135 c 1.9963,-9.0932 2.8546,-13.7627 12.5145,-14.9915 7.6025,-1.2289 12.4661,-1.4746 11.9937,-6.6356 -0.4726,-5.161 -6.6445,-5.161 -9.9877,-5.161 -6.4292,0 -20.4609,1.2288 -35.8909,1.2288 -10.801,0 -22.4861,-1.2288 -33.2871,-1.2288 -4.8862,0 -11.7172,1.2288 -11.1997,6.8813 0.45,4.9153 6.8792,4.9153 10.7591,5.161 7.7601,0.4916 11.0711,2.9492 11.4986,7.6187 0.2475,2.7033 -0.254,5.6525 -0.8006,8.1101 l -5.0182,23.8389 c -0.9259,3.9323 -2.0189,8.8475 -4.4105,10.8136 -2.604,2.4576 -7.6573,3.4408 -12.0291,3.4408 -10.801,0 -20.4416,-4.178 -28.1725,-12.7798 -7.1268,-7.6186 -12.8132,-19.1694 -13.8706,-30.7203 -2.3399,-25.5592 8.7282,-47.9236 23.5797,-62.6694 17.5777,-18.6779 42.1597,-28.2626 59.1328,-28.2626 10.801,0 13.1732,3.4407 13.5783,7.8644 0.36,3.9322 -0.283,13.7627 0.1219,18.1864 0.4275,4.6694 2.6552,9.339 8.5699,9.339 5.6578,0 7.5898,-4.178 9.3869,-9.8306 2.2438,-6.3897 5.6707,-16.7118 7.3778,-23.3474 1.0158,-2.9491 1.5848,-5.161 1.4498,-6.6356 -0.2925,-3.1948 -4.0278,-4.6694 -7.7182,-5.6524 -7.94,-2.4577 -19.7697,-2.4577 -27.2276,-2.4577 -33.9461,0 -67.2943,9.339 -91.8507,24.822 -28.2116,17.6949 -47.2937,45.2202 -44.5487,75.2033 z"
           style="font-style:italic;font-weight:bold;-inkscape-font-specification:'ITC Garamond Std Bold Italic';fill:none;fill-opacity:1;stroke:#f4f4f4;stroke-width:7;stroke-miterlimit:4;stroke-dasharray:none;stroke-opacity:1"
           id="path85920" />
        <path
           d="m 3724.5976,1113.2823 c 1.3537,8.5341 3.0327,17.556 4.1391,26.0901 1.9186,13.6548 -1.6943,15.8493 -10.0342,16.3369 -6.359,0.4877 -12.0531,0.4877 -11.1636,6.0958 0.8123,5.1205 6.7539,5.1205 9.9723,5.1205 6.1891,0 14.6992,-0.9753 31.7813,-0.9753 12.3783,0 26.8916,0.9753 33.0807,0.9753 3.7135,0 10.1503,0 9.2221,-5.852 -0.6962,-4.3889 -4.2011,-4.6328 -10.8313,-5.8519 -8.6107,-1.2192 -9.7631,-5.3645 -12.007,-19.5068 -3.8992,-21.4573 -14.2744,-97.7772 -17.8253,-117.04 -0.619,-3.9014 -2.7774,-6.5836 -11.6898,-6.5836 -12.3782,0 -17.5153,1.9507 -21.7083,8.2904 -25.708,39.2571 -49.3269,76.076 -73.3096,112.1634 -8.216,12.1916 -13.585,20.4821 -22.3968,22.6766 -4.9665,1.463 -9.0206,2.4383 -8.3631,6.5834 0.2323,1.463 1.3075,5.1205 8.2393,5.1205 6.6843,0 14.4517,-0.9753 22.1263,-0.9753 8.6648,0 17.2365,0.9753 25.6538,0.9753 3.9611,0 9.8642,-0.2438 9.0517,-5.3643 -0.6577,-4.1451 -4.5259,-5.1205 -9.0982,-5.852 -4.8195,-0.7315 -10.9161,-1.7068 -11.8443,-7.5589 -0.5416,-3.4137 1.4464,-8.0465 3.7598,-12.1916 4.2474,-7.5589 8.8734,-15.8492 12.2699,-20.9697 0.9671,-1.7068 1.7098,-1.7068 3.6902,-1.7068 z m -1.5164,-12.6794 h -41.0958 c 11.1171,-17.3122 22.0639,-34.1367 32.9334,-51.4489 l 0.534,0.2438 z"
           style="font-style:italic;font-weight:bold;-inkscape-font-specification:'ITC Garamond Std Bold Italic';display:inline;fill:none;fill-opacity:1;stroke:#f4f4f4;stroke-width:7;stroke-miterlimit:4;stroke-dasharray:none;stroke-opacity:1"
           id="path85922" />
      </g>
    </g>
    <g
       id="g22601"
       inkscape:label="Keyboard"
       style="fill:none;stroke:#f4f4f4;stroke-opacity:1">
      <g
         id="g23479"
         inkscape:label="Spacebar Row"
         transform="matrix(0.89825151,0,0,0.89830172,292.30212,392.31759)"
         style="fill:none;stroke:#f4f4f4;stroke-width:15.5854;stroke-miterlimit:4;stroke-dasharray:none;stroke-opacity:1">
        <rect
           style="fill:none;fill-opacity:1;stroke:#f4f4f4;stroke-width:15.5854;stroke-miterlimit:4;stroke-dasharray:none;stroke-opacity:1"
           id="rect23449"
           width="187.32634"
           height="147.20753"
           x="2034.7043"
           y="2210.7769"
           ry="9.8219643"
           rx="9.8225136" />
        <rect
           style="fill:none;fill-opacity:1;stroke:#f4f4f4;stroke-width:15.5854;stroke-miterlimit:4;stroke-dasharray:none;stroke-opacity:1"
           id="rect23451"
           width="1532.3552"
           height="147.20753"
           x="471.65701"
           y="2210.7769"
           ry="9.8219643"
           rx="9.8225136" />
        <rect
           style="fill:none;fill-opacity:1;stroke:#f4f4f4;stroke-width:15.5854;stroke-miterlimit:4;stroke-dasharray:none;stroke-opacity:1"
           id="rect23469"
           width="187.03008"
           height="147.20753"
           x="253.45474"
           y="2210.7769"
           ry="9.8219643"
           rx="9.8225136" />
        <rect
           style="fill:none;fill-opacity:1;stroke:#f4f4f4;stroke-width:15.5854;stroke-miterlimit:4;stroke-dasharray:none;stroke-opacity:1"
           id="rect23471"
           width="187.03008"
           height="147.20753"
           x="35.253136"
           y="2210.7769"
           ry="9.8219643"
           rx="9.8225136" />
        <rect
           style="fill:none;fill-opacity:1;stroke:#f4f4f4;stroke-width:15.5854;stroke-miterlimit:4;stroke-dasharray:none;stroke-opacity:1"
           id="rect23477"
           width="187.03008"
           height="147.20753"
           x="2252.9075"
           y="2210.7769"
           ry="9.8219643"
           rx="9.8225136" />
      </g>
      <g
         id="g22604"
         inkscape:label="ZXC Row"
         transform="matrix(0.89825151,0,0,0.89830172,214.30212,232.31759)"
         style="fill:none;stroke:#f4f4f4;stroke-width:15.5854;stroke-miterlimit:4;stroke-dasharray:none;stroke-opacity:1">
        <g
           id="g25847"
           inkscape:label="Arrow Keys"
           style="fill:none;stroke:#f4f4f4;stroke-width:15.5854;stroke-miterlimit:4;stroke-dasharray:none;stroke-opacity:1">
          <rect
             style="fill:none;fill-opacity:1;stroke:#f4f4f4;stroke-width:15.5854;stroke-miterlimit:4;stroke-dasharray:none;stroke-opacity:1"
             id="rect25838"
             width="142.98062"
             height="147.20753"
             x="1861.0325"
             y="2210.7769"
             ry="9.8219643"
             rx="9.8225136" />
          <rect
             style="fill:none;fill-opacity:1;stroke:#f4f4f4;stroke-width:15.5854;stroke-miterlimit:4;stroke-dasharray:none;stroke-opacity:1"
             id="rect25840"
             width="142.98062"
             height="147.20753"
             x="1687.3606"
             y="2210.7769"
             ry="9.8219643"
             rx="9.8225136" />
          <rect
             style="fill:none;fill-opacity:1;stroke:#f4f4f4;stroke-width:15.5854;stroke-miterlimit:4;stroke-dasharray:none;stroke-opacity:1"
             id="rect25842"
             width="142.98062"
             height="147.20753"
             x="1513.6887"
             y="2210.7769"
             ry="9.8219643"
             rx="9.8225136" />
        </g>
        <rect
           style="fill:none;fill-opacity:1;stroke:#f4f4f4;stroke-width:15.5854;stroke-miterlimit:4;stroke-dasharray:none;stroke-opacity:1"
           id="rect22447"
           width="142.98062"
           height="147.20753"
           x="2034.7043"
           y="2210.7769"
           ry="9.8219643"
           rx="9.8225136" />
        <rect
           style="fill:none;fill-opacity:1;stroke:#f4f4f4;stroke-width:15.5854;stroke-miterlimit:4;stroke-dasharray:none;stroke-opacity:1"
           id="rect22686"
           width="142.98062"
           height="147.20753"
           x="1861.0325"
           y="2210.7769"
           ry="9.8219643"
           rx="9.8225136" />
        <rect
           style="fill:none;fill-opacity:1;stroke:#f4f4f4;stroke-width:15.5854;stroke-miterlimit:4;stroke-dasharray:none;stroke-opacity:1"
           id="rect22688"
           width="142.98062"
           height="147.20753"
           x="1687.3606"
           y="2210.7769"
           ry="9.8219643"
           rx="9.8225136" />
        <rect
           style="fill:none;fill-opacity:1;stroke:#f4f4f4;stroke-width:15.5854;stroke-miterlimit:4;stroke-dasharray:none;stroke-opacity:1"
           id="rect22690"
           width="142.98062"
           height="147.20753"
           x="1513.6887"
           y="2210.7769"
           ry="9.8219643"
           rx="9.8225136" />
        <rect
           style="fill:none;fill-opacity:1;stroke:#f4f4f4;stroke-width:15.5854;stroke-miterlimit:4;stroke-dasharray:none;stroke-opacity:1"
           id="rect22692"
           width="142.98062"
           height="147.20753"
           x="1340.0168"
           y="2210.7769"
           ry="9.8219643"
           rx="9.8225136" />
        <rect
           style="fill:none;fill-opacity:1;stroke:#f4f4f4;stroke-width:15.5854;stroke-miterlimit:4;stroke-dasharray:none;stroke-opacity:1"
           id="rect22694"
           width="142.98062"
           height="147.20753"
           x="1166.345"
           y="2210.7769"
           ry="9.8219643"
           rx="9.8225136" />
        <rect
           style="fill:none;fill-opacity:1;stroke:#f4f4f4;stroke-width:15.5854;stroke-miterlimit:4;stroke-dasharray:none;stroke-opacity:1"
           id="rect22696"
           width="142.98062"
           height="147.20753"
           x="992.67346"
           y="2210.7769"
           ry="9.8219643"
           rx="9.8225136" />
        <rect
           style="fill:none;fill-opacity:1;stroke:#f4f4f4;stroke-width:15.5854;stroke-miterlimit:4;stroke-dasharray:none;stroke-opacity:1"
           id="rect22698"
           width="142.98062"
           height="147.20753"
           x="819.00159"
           y="2210.7769"
           ry="9.8219643"
           rx="9.8225136" />
        <rect
           style="fill:none;fill-opacity:1;stroke:#f4f4f4;stroke-width:15.5854;stroke-miterlimit:4;stroke-dasharray:none;stroke-opacity:1"
           id="rect22700"
           width="142.98062"
           height="147.20753"
           x="645.32971"
           y="2210.7769"
           ry="9.8219643"
           rx="9.8225136" />
        <rect
           style="fill:none;fill-opacity:1;stroke:#f4f4f4;stroke-width:15.5854;stroke-miterlimit:4;stroke-dasharray:none;stroke-opacity:1"
           id="rect22702"
           width="142.98062"
           height="147.20753"
           x="471.65784"
           y="2210.7769"
           ry="9.8219643"
           rx="9.8225136" />
        <rect
           style="fill:none;fill-opacity:1;stroke:#f4f4f4;stroke-width:15.5854;stroke-miterlimit:4;stroke-dasharray:none;stroke-opacity:1"
           id="rect22704"
           width="142.98062"
           height="147.20753"
           x="297.98596"
           y="2210.7769"
           ry="9.8219643"
           rx="9.8225136" />
        <rect
           style="fill:none;fill-opacity:1;stroke:#f4f4f4;stroke-width:15.5854;stroke-miterlimit:4;stroke-dasharray:none;stroke-opacity:1"
           id="rect22706"
           width="316.65131"
           height="147.20753"
           x="-49.355675"
           y="2210.7769"
           ry="9.8219643"
           rx="9.8225136" />
        <rect
           style="fill:none;fill-opacity:1;stroke:#f4f4f4;stroke-width:15.5854;stroke-miterlimit:4;stroke-dasharray:none;stroke-opacity:1"
           id="rect22911"
           width="450.24634"
           height="147.20753"
           x="2208.3762"
           y="2210.7769"
           ry="9.8219643"
           rx="9.8225136" />
      </g>
      <g
         id="g22943"
         inkscape:label="ASD Row"
         transform="matrix(0.89825151,0,0,0.89830172,136.30212,72.31759)"
         style="display:inline;fill:none;stroke:#f4f4f4;stroke-width:15.5854;stroke-miterlimit:4;stroke-dasharray:none;stroke-opacity:1">
        <path
           id="rect23171"
           style="fill:none;stroke:#f4f4f4;stroke-width:15.5854;stroke-miterlimit:4;stroke-dasharray:none;stroke-opacity:1"
           d="m 2523.2378,2179.8781 c -5.4417,0 -9.8225,-4.3806 -9.8225,-9.822 v -127.5636 c 0,-5.4414 4.3808,-9.822 9.8225,-9.822 h 212.3978 c 5.4416,0 9.8225,4.3806 9.8225,9.822 v 127.5636 50.5427 127.5636 c 0,5.4414 -4.3809,9.822 -9.8225,9.822 h -170.0931 c -5.4417,0 -9.8225,-4.3806 -9.8225,-9.822 v -127.5636"
           sodipodi:nodetypes="csssssccssssc" />
        <rect
           style="fill:none;fill-opacity:1;stroke:#f4f4f4;stroke-width:15.5854;stroke-miterlimit:4;stroke-dasharray:none;stroke-opacity:1"
           id="rect22913"
           width="142.98062"
           height="147.20753"
           x="2034.7043"
           y="2210.7769"
           ry="9.8219643"
           rx="9.8225136" />
        <rect
           style="fill:none;fill-opacity:1;stroke:#f4f4f4;stroke-width:15.5854;stroke-miterlimit:4;stroke-dasharray:none;stroke-opacity:1"
           id="rect22915"
           width="142.98062"
           height="147.20753"
           x="1861.0325"
           y="2210.7769"
           ry="9.8219643"
           rx="9.8225136" />
        <rect
           style="fill:none;fill-opacity:1;stroke:#f4f4f4;stroke-width:15.5854;stroke-miterlimit:4;stroke-dasharray:none;stroke-opacity:1"
           id="rect22917"
           width="142.98062"
           height="147.20753"
           x="1687.3606"
           y="2210.7769"
           ry="9.8219643"
           rx="9.8225136" />
        <rect
           style="fill:none;fill-opacity:1;stroke:#f4f4f4;stroke-width:15.5854;stroke-miterlimit:4;stroke-dasharray:none;stroke-opacity:1"
           id="rect22919"
           width="142.98062"
           height="147.20753"
           x="1513.6887"
           y="2210.7769"
           ry="9.8219643"
           rx="9.8225136" />
        <rect
           style="fill:none;fill-opacity:1;stroke:#f4f4f4;stroke-width:15.5854;stroke-miterlimit:4;stroke-dasharray:none;stroke-opacity:1"
           id="rect22921"
           width="142.98062"
           height="147.20753"
           x="1340.0168"
           y="2210.7769"
           ry="9.8219643"
           rx="9.8225136" />
        <rect
           style="fill:none;fill-opacity:1;stroke:#f4f4f4;stroke-width:15.5854;stroke-miterlimit:4;stroke-dasharray:none;stroke-opacity:1"
           id="rect22923"
           width="142.98062"
           height="147.20753"
           x="1166.345"
           y="2210.7769"
           ry="9.8219643"
           rx="9.8225136" />
        <rect
           style="fill:none;fill-opacity:1;stroke:#f4f4f4;stroke-width:15.5854;stroke-miterlimit:4;stroke-dasharray:none;stroke-opacity:1"
           id="rect22925"
           width="142.98062"
           height="147.20753"
           x="992.67346"
           y="2210.7769"
           ry="9.8219643"
           rx="9.8225136" />
        <rect
           style="fill:none;fill-opacity:1;stroke:#f4f4f4;stroke-width:15.5854;stroke-miterlimit:4;stroke-dasharray:none;stroke-opacity:1"
           id="rect22927"
           width="142.98062"
           height="147.20753"
           x="819.00159"
           y="2210.7769"
           ry="9.8219643"
           rx="9.8225136" />
        <rect
           style="fill:none;fill-opacity:1;stroke:#f4f4f4;stroke-width:15.5854;stroke-miterlimit:4;stroke-dasharray:none;stroke-opacity:1"
           id="rect22929"
           width="142.98062"
           height="147.20753"
           x="645.32971"
           y="2210.7769"
           ry="9.8219643"
           rx="9.8225136" />
        <rect
           style="fill:none;fill-opacity:1;stroke:#f4f4f4;stroke-width:15.5854;stroke-miterlimit:4;stroke-dasharray:none;stroke-opacity:1"
           id="rect22931"
           width="142.98062"
           height="147.20753"
           x="471.65784"
           y="2210.7769"
           ry="9.8219643"
           rx="9.8225136" />
        <rect
           style="fill:none;fill-opacity:1;stroke:#f4f4f4;stroke-width:15.5854;stroke-miterlimit:4;stroke-dasharray:none;stroke-opacity:1"
           id="rect22933"
           width="142.98062"
           height="147.20753"
           x="297.98596"
           y="2210.7769"
           ry="9.8219643"
           rx="9.8225136" />
        <rect
           style="fill:none;fill-opacity:1;stroke:#f4f4f4;stroke-width:15.5854;stroke-miterlimit:4;stroke-dasharray:none;stroke-opacity:1"
           id="rect22939"
           width="142.98062"
           height="147.20753"
           x="2382.0481"
           y="2210.7769"
           ry="9.8219643"
           rx="9.8225136" />
        <rect
           style="fill:none;fill-opacity:1;stroke:#f4f4f4;stroke-width:15.5854;stroke-miterlimit:4;stroke-dasharray:none;stroke-opacity:1"
           id="rect22941"
           width="142.98062"
           height="147.20753"
           x="2208.3762"
           y="2210.7769"
           ry="9.8219643"
           rx="9.8225136" />
        <rect
           style="fill:none;fill-opacity:1;stroke:#f4f4f4;stroke-width:15.5854;stroke-miterlimit:4;stroke-dasharray:none;stroke-opacity:1"
           id="rect23105"
           width="229.81593"
           height="147.20753"
           x="37.479683"
           y="2210.7769"
           ry="9.8219643"
           rx="9.8225136" />
        <path
           style="fill:none;stroke:#f4f4f4;stroke-width:15.5854;stroke-linecap:butt;stroke-linejoin:miter;stroke-miterlimit:4;stroke-dasharray:none;stroke-opacity:1"
           d="m 2523.2377,2179.878 c 16.3383,0.2305 32.911,-1.7821 32.4822,40.7208"
           id="path24757"
           sodipodi:nodetypes="cc" />
      </g>
      <g
         id="g23137"
         inkscape:label="QWE Row"
         transform="matrix(0.89825151,0,0,0.89830172,98.30212,-87.68241)"
         style="fill:none;stroke:#f4f4f4;stroke-width:15.5854;stroke-miterlimit:4;stroke-dasharray:none;stroke-opacity:1">
        <rect
           style="fill:none;fill-opacity:1;stroke:#f4f4f4;stroke-width:15.5854;stroke-miterlimit:4;stroke-dasharray:none;stroke-opacity:1"
           id="rect23107"
           width="142.98062"
           height="147.20753"
           x="2034.7043"
           y="2210.7769"
           ry="9.8219643"
           rx="9.8225136" />
        <rect
           style="fill:none;fill-opacity:1;stroke:#f4f4f4;stroke-width:15.5854;stroke-miterlimit:4;stroke-dasharray:none;stroke-opacity:1"
           id="rect23109"
           width="142.98062"
           height="147.20753"
           x="1861.0325"
           y="2210.7769"
           ry="9.8219643"
           rx="9.8225136" />
        <rect
           style="fill:none;fill-opacity:1;stroke:#f4f4f4;stroke-width:15.5854;stroke-miterlimit:4;stroke-dasharray:none;stroke-opacity:1"
           id="rect23111"
           width="142.98062"
           height="147.20753"
           x="1687.3606"
           y="2210.7769"
           ry="9.8219643"
           rx="9.8225136" />
        <rect
           style="fill:none;fill-opacity:1;stroke:#f4f4f4;stroke-width:15.5854;stroke-miterlimit:4;stroke-dasharray:none;stroke-opacity:1"
           id="rect23113"
           width="142.98062"
           height="147.20753"
           x="1513.6887"
           y="2210.7769"
           ry="9.8219643"
           rx="9.8225136" />
        <rect
           style="fill:none;fill-opacity:1;stroke:#f4f4f4;stroke-width:15.5854;stroke-miterlimit:4;stroke-dasharray:none;stroke-opacity:1"
           id="rect23115"
           width="142.98062"
           height="147.20753"
           x="1340.0168"
           y="2210.7769"
           ry="9.8219643"
           rx="9.8225136" />
        <rect
           style="fill:none;fill-opacity:1;stroke:#f4f4f4;stroke-width:15.5854;stroke-miterlimit:4;stroke-dasharray:none;stroke-opacity:1"
           id="rect23117"
           width="142.98062"
           height="147.20753"
           x="1166.345"
           y="2210.7769"
           ry="9.8219643"
           rx="9.8225136" />
        <rect
           style="fill:none;fill-opacity:1;stroke:#f4f4f4;stroke-width:15.5854;stroke-miterlimit:4;stroke-dasharray:none;stroke-opacity:1"
           id="rect23119"
           width="142.98062"
           height="147.20753"
           x="992.67346"
           y="2210.7769"
           ry="9.8219643"
           rx="9.8225136" />
        <rect
           style="fill:none;fill-opacity:1;stroke:#f4f4f4;stroke-width:15.5854;stroke-miterlimit:4;stroke-dasharray:none;stroke-opacity:1"
           id="rect23121"
           width="142.98062"
           height="147.20753"
           x="819.00159"
           y="2210.7769"
           ry="9.8219643"
           rx="9.8225136" />
        <rect
           style="fill:none;fill-opacity:1;stroke:#f4f4f4;stroke-width:15.5854;stroke-miterlimit:4;stroke-dasharray:none;stroke-opacity:1"
           id="rect23123"
           width="142.98062"
           height="147.20753"
           x="645.32971"
           y="2210.7769"
           ry="9.8219643"
           rx="9.8225136" />
        <rect
           style="fill:none;fill-opacity:1;stroke:#f4f4f4;stroke-width:15.5854;stroke-miterlimit:4;stroke-dasharray:none;stroke-opacity:1"
           id="rect23125"
           width="142.98062"
           height="147.20753"
           x="471.65784"
           y="2210.7769"
           ry="9.8219643"
           rx="9.8225136" />
        <rect
           style="fill:none;fill-opacity:1;stroke:#f4f4f4;stroke-width:15.5854;stroke-miterlimit:4;stroke-dasharray:none;stroke-opacity:1"
           id="rect23127"
           width="361.18246"
           height="147.20753"
           x="79.784088"
           y="2210.7769"
           ry="9.8219643"
           rx="9.8225136" />
        <rect
           style="fill:none;fill-opacity:1;stroke:#f4f4f4;stroke-width:15.5854;stroke-miterlimit:4;stroke-dasharray:none;stroke-opacity:1"
           id="rect23131"
           width="142.98062"
           height="147.20753"
           x="2382.0481"
           y="2210.7769"
           ry="9.8219643"
           rx="9.8225136" />
        <rect
           style="fill:none;fill-opacity:1;stroke:#f4f4f4;stroke-width:15.5854;stroke-miterlimit:4;stroke-dasharray:none;stroke-opacity:1"
           id="rect23133"
           width="142.98062"
           height="147.20753"
           x="2208.3762"
           y="2210.7769"
           ry="9.8219643"
           rx="9.8225136" />
      </g>
      <g
         id="g23359"
         inkscape:label="Number Row"
         transform="matrix(0.89825151,0,0,0.89830172,176.30212,-247.68241)"
         style="fill:none;stroke:#f4f4f4;stroke-width:15.5854;stroke-miterlimit:4;stroke-dasharray:none;stroke-opacity:1">
        <rect
           style="fill:none;fill-opacity:1;stroke:#f4f4f4;stroke-width:15.5854;stroke-miterlimit:4;stroke-dasharray:none;stroke-opacity:1"
           id="rect23333"
           width="142.98062"
           height="147.20753"
           x="2034.7043"
           y="2210.7769"
           ry="9.8219643"
           rx="9.8225136" />
        <rect
           style="fill:none;fill-opacity:1;stroke:#f4f4f4;stroke-width:15.5854;stroke-miterlimit:4;stroke-dasharray:none;stroke-opacity:1"
           id="rect23335"
           width="142.98062"
           height="147.20753"
           x="1861.0325"
           y="2210.7769"
           ry="9.8219643"
           rx="9.8225136" />
        <rect
           style="fill:none;fill-opacity:1;stroke:#f4f4f4;stroke-width:15.5854;stroke-miterlimit:4;stroke-dasharray:none;stroke-opacity:1"
           id="rect23337"
           width="142.98062"
           height="147.20753"
           x="1687.3606"
           y="2210.7769"
           ry="9.8219643"
           rx="9.8225136" />
        <rect
           style="fill:none;fill-opacity:1;stroke:#f4f4f4;stroke-width:15.5854;stroke-miterlimit:4;stroke-dasharray:none;stroke-opacity:1"
           id="rect23339"
           width="142.98062"
           height="147.20753"
           x="1513.6887"
           y="2210.7769"
           ry="9.8219643"
           rx="9.8225136" />
        <rect
           style="fill:none;fill-opacity:1;stroke:#f4f4f4;stroke-width:15.5854;stroke-miterlimit:4;stroke-dasharray:none;stroke-opacity:1"
           id="rect23341"
           width="142.98062"
           height="147.20753"
           x="1340.0168"
           y="2210.7769"
           ry="9.8219643"
           rx="9.8225136" />
        <rect
           style="fill:none;fill-opacity:1;stroke:#f4f4f4;stroke-width:15.5854;stroke-miterlimit:4;stroke-dasharray:none;stroke-opacity:1"
           id="rect23343"
           width="142.98062"
           height="147.20753"
           x="1166.345"
           y="2210.7769"
           ry="9.8219643"
           rx="9.8225136" />
        <rect
           style="fill:none;fill-opacity:1;stroke:#f4f4f4;stroke-width:15.5854;stroke-miterlimit:4;stroke-dasharray:none;stroke-opacity:1"
           id="rect23345"
           width="142.98062"
           height="147.20753"
           x="992.67346"
           y="2210.7769"
           ry="9.8219643"
           rx="9.8225136" />
        <rect
           style="fill:none;fill-opacity:1;stroke:#f4f4f4;stroke-width:15.5854;stroke-miterlimit:4;stroke-dasharray:none;stroke-opacity:1"
           id="rect23347"
           width="142.98062"
           height="147.20753"
           x="819.00159"
           y="2210.7769"
           ry="9.8219643"
           rx="9.8225136" />
        <rect
           style="fill:none;fill-opacity:1;stroke:#f4f4f4;stroke-width:15.5854;stroke-miterlimit:4;stroke-dasharray:none;stroke-opacity:1"
           id="rect23349"
           width="142.98062"
           height="147.20753"
           x="645.32971"
           y="2210.7769"
           ry="9.8219643"
           rx="9.8225136" />
        <rect
           style="fill:none;fill-opacity:1;stroke:#f4f4f4;stroke-width:15.5854;stroke-miterlimit:4;stroke-dasharray:none;stroke-opacity:1"
           id="rect23351"
           width="142.98062"
           height="147.20753"
           x="471.65784"
           y="2210.7769"
           ry="9.8219643"
           rx="9.8225136" />
        <rect
           style="fill:none;fill-opacity:1;stroke:#f4f4f4;stroke-width:15.5854;stroke-miterlimit:4;stroke-dasharray:none;stroke-opacity:1"
           id="rect23355"
           width="142.98062"
           height="147.20753"
           x="2382.0481"
           y="2210.7769"
           ry="9.8219643"
           rx="9.8225136" />
        <rect
           style="fill:none;fill-opacity:1;stroke:#f4f4f4;stroke-width:15.5854;stroke-miterlimit:4;stroke-dasharray:none;stroke-opacity:1"
           id="rect23357"
           width="142.98062"
           height="147.20753"
           x="2208.3762"
           y="2210.7769"
           ry="9.8219643"
           rx="9.8225136" />
        <rect
           style="fill:none;fill-opacity:1;stroke:#f4f4f4;stroke-width:15.5854;stroke-miterlimit:4;stroke-dasharray:none;stroke-opacity:1"
           id="rect23361"
           width="142.98062"
           height="147.20753"
           x="2557.9465"
           y="2210.7769"
           ry="9.8219643"
           rx="9.8225136" />
        <rect
           style="fill:none;fill-opacity:1;stroke:#f4f4f4;stroke-width:15.5854;stroke-miterlimit:4;stroke-dasharray:none;stroke-opacity:1"
           id="rect23445"
           width="142.98062"
           height="147.20753"
           x="297.98596"
           y="2210.7769"
           ry="9.8219643"
           rx="9.8225136" />
        <rect
           style="fill:none;fill-opacity:1;stroke:#f4f4f4;stroke-width:15.5854;stroke-miterlimit:4;stroke-dasharray:none;stroke-opacity:1"
           id="rect23447"
           width="274.34689"
           height="147.20753"
           x="-7.05127"
           y="2210.7769"
           ry="9.8219643"
           rx="9.8225136" />
      </g>
      <g
         id="g25540"
         inkscape:label="Function Row"
         transform="matrix(0.89825151,0,0,0.89830172,176.30212,-473.68241)"
         style="fill:none;stroke:#f4f4f4;stroke-width:15.5854;stroke-miterlimit:4;stroke-dasharray:none;stroke-opacity:1">
        <rect
           style="fill:none;fill-opacity:1;stroke:#f4f4f4;stroke-width:15.5854;stroke-miterlimit:4;stroke-dasharray:none;stroke-opacity:1"
           id="rect25530"
           width="187.03008"
           height="147.20753"
           x="2337.5168"
           y="2210.7769"
           ry="9.8219643"
           rx="9.8225136" />
        <rect
           style="fill:none;fill-opacity:1;stroke:#f4f4f4;stroke-width:15.5854;stroke-miterlimit:4;stroke-dasharray:none;stroke-opacity:1"
           id="rect25702"
           width="187.03008"
           height="147.20753"
           x="2119.3137"
           y="2210.7769"
           ry="9.8219643"
           rx="9.8225136" />
        <rect
           style="fill:none;fill-opacity:1;stroke:#f4f4f4;stroke-width:15.5854;stroke-miterlimit:4;stroke-dasharray:none;stroke-opacity:1"
           id="rect25704"
           width="187.03008"
           height="147.20753"
           x="1901.1106"
           y="2210.7769"
           ry="9.8219643"
           rx="9.8225136" />
        <rect
           style="fill:none;fill-opacity:1;stroke:#f4f4f4;stroke-width:15.5854;stroke-miterlimit:4;stroke-dasharray:none;stroke-opacity:1"
           id="rect25706"
           width="187.03008"
           height="147.20753"
           x="1682.9075"
           y="2210.7769"
           ry="9.8219643"
           rx="9.8225136" />
        <rect
           style="fill:none;fill-opacity:1;stroke:#f4f4f4;stroke-width:15.5854;stroke-miterlimit:4;stroke-dasharray:none;stroke-opacity:1"
           id="rect25708"
           width="187.03008"
           height="147.20753"
           x="1464.7043"
           y="2210.7769"
           ry="9.8219643"
           rx="9.8225136" />
        <rect
           style="fill:none;fill-opacity:1;stroke:#f4f4f4;stroke-width:15.5854;stroke-miterlimit:4;stroke-dasharray:none;stroke-opacity:1"
           id="rect25710"
           width="187.03008"
           height="147.20753"
           x="1157.4387"
           y="2210.7769"
           ry="9.8219643"
           rx="9.8225136" />
        <rect
           style="fill:none;fill-opacity:1;stroke:#f4f4f4;stroke-width:15.5854;stroke-miterlimit:4;stroke-dasharray:none;stroke-opacity:1"
           id="rect25712"
           width="187.03008"
           height="147.20753"
           x="939.23596"
           y="2210.7769"
           ry="9.8219643"
           rx="9.8225136" />
        <rect
           style="fill:none;fill-opacity:1;stroke:#f4f4f4;stroke-width:15.5854;stroke-miterlimit:4;stroke-dasharray:none;stroke-opacity:1"
           id="rect25714"
           width="187.03008"
           height="147.20753"
           x="721.03284"
           y="2210.7769"
           ry="9.8219643"
           rx="9.8225136" />
        <rect
           style="fill:none;fill-opacity:1;stroke:#f4f4f4;stroke-width:15.5854;stroke-miterlimit:4;stroke-dasharray:none;stroke-opacity:1"
           id="rect25716"
           width="187.03008"
           height="147.20753"
           x="502.82971"
           y="2210.7769"
           ry="9.8219643"
           rx="9.8225136" />
        <rect
           style="fill:none;fill-opacity:1;stroke:#f4f4f4;stroke-width:15.5854;stroke-miterlimit:4;stroke-dasharray:none;stroke-opacity:1"
           id="rect25718"
           width="187.03008"
           height="147.20753"
           x="284.62659"
           y="2210.7769"
           ry="9.8219643"
           rx="9.8225136" />
        <rect
           style="fill:none;fill-opacity:1;stroke:#f4f4f4;stroke-width:15.5854;stroke-miterlimit:4;stroke-dasharray:none;stroke-opacity:1"
           id="rect25730"
           width="147.21606"
           height="147.20772"
           x="-7.0512657"
           y="2210.7769"
           ry="9.8219633"
           rx="9.8225136" />
      </g>
      <g
         id="g26090"
         inkscape:label="Arrow Keys"
         transform="matrix(0.89825151,0,0,0.89830172,2440.3021,232.31759)"
         style="fill:none;stroke:#f4f4f4;stroke-width:15.5854;stroke-miterlimit:4;stroke-dasharray:none;stroke-opacity:1">
        <rect
           style="fill:none;fill-opacity:1;stroke:#f4f4f4;stroke-width:15.5854;stroke-miterlimit:4;stroke-dasharray:none;stroke-opacity:1"
           id="rect26080"
           width="142.98062"
           height="147.20753"
           x="645.32971"
           y="2210.7769"
           ry="9.8219643"
           rx="9.8225136" />
        <rect
           style="fill:none;fill-opacity:1;stroke:#f4f4f4;stroke-width:15.5854;stroke-miterlimit:4;stroke-dasharray:none;stroke-opacity:1"
           id="rect26082"
           width="142.98062"
           height="147.20753"
           x="471.65784"
           y="2210.7769"
           ry="9.8219643"
           rx="9.8225136" />
        <rect
           style="fill:none;fill-opacity:1;stroke:#f4f4f4;stroke-width:15.5854;stroke-miterlimit:4;stroke-dasharray:none;stroke-opacity:1"
           id="rect26084"
           width="142.98062"
           height="147.20753"
           x="297.98596"
           y="2210.7769"
           ry="9.8219643"
           rx="9.8225136" />
        <rect
           style="fill:none;fill-opacity:1;stroke:#f4f4f4;stroke-width:15.5854;stroke-miterlimit:4;stroke-dasharray:none;stroke-opacity:1"
           id="rect26732"
           width="142.98062"
           height="147.20753"
           x="471.65784"
           y="2032.6705"
           ry="9.8219643"
           rx="9.8225136" />
      </g>
      <g
         id="g26742"
         inkscape:label="Number Pad"
         transform="matrix(0.89825151,0,0,0.89830172,2996.3021,232.31759)"
         style="fill:none;stroke:#f4f4f4;stroke-width:15.5854;stroke-miterlimit:4;stroke-dasharray:none;stroke-opacity:1">
        <rect
           style="fill:none;fill-opacity:1;stroke:#f4f4f4;stroke-width:15.5854;stroke-miterlimit:4;stroke-dasharray:none;stroke-opacity:1"
           id="rect26734"
           width="142.98062"
           height="147.20753"
           x="645.32971"
           y="2210.7769"
           ry="9.8219643"
           rx="9.8225136" />
        <rect
           style="fill:none;fill-opacity:1;stroke:#f4f4f4;stroke-width:15.5854;stroke-miterlimit:4;stroke-dasharray:none;stroke-opacity:1"
           id="rect26736"
           width="142.98062"
           height="147.20753"
           x="471.65784"
           y="2210.7769"
           ry="9.8219643"
           rx="9.8225136" />
        <rect
           style="fill:none;fill-opacity:1;stroke:#f4f4f4;stroke-width:15.5854;stroke-miterlimit:4;stroke-dasharray:none;stroke-opacity:1"
           id="rect26738"
           width="142.98062"
           height="147.20753"
           x="297.98596"
           y="2210.7769"
           ry="9.8219643"
           rx="9.8225136" />
        <rect
           style="fill:none;fill-opacity:1;stroke:#f4f4f4;stroke-width:15.5854;stroke-miterlimit:4;stroke-dasharray:none;stroke-opacity:1"
           id="rect26740"
           width="142.98062"
           height="147.20753"
           x="471.65784"
           y="2032.6705"
           ry="9.8219643"
           rx="9.8225136" />
        <rect
           style="fill:none;fill-opacity:1;stroke:#f4f4f4;stroke-width:15.5854;stroke-miterlimit:4;stroke-dasharray:none;stroke-opacity:1"
           id="rect26744"
           width="142.98062"
           height="147.20753"
           x="295.7594"
           y="2032.6705"
           ry="9.8219643"
           rx="9.8225136" />
        <rect
           style="fill:none;fill-opacity:1;stroke:#f4f4f4;stroke-width:15.5854;stroke-miterlimit:4;stroke-dasharray:none;stroke-opacity:1"
           id="rect26746"
           width="142.98062"
           height="147.20753"
           x="645.32971"
           y="2032.6705"
           ry="9.8219643"
           rx="9.8225136" />
        <rect
           style="fill:none;fill-opacity:1;stroke:#f4f4f4;stroke-width:15.5854;stroke-miterlimit:4;stroke-dasharray:none;stroke-opacity:1"
           id="rect26748"
           width="142.98062"
           height="147.20753"
           x="471.65784"
           y="1854.5553"
           ry="9.8219643"
           rx="9.8225136" />
        <rect
           style="fill:none;fill-opacity:1;stroke:#f4f4f4;stroke-width:15.5854;stroke-miterlimit:4;stroke-dasharray:none;stroke-opacity:1"
           id="rect26750"
           width="142.98062"
           height="147.20753"
           x="295.7594"
           y="1854.5553"
           ry="9.8219643"
           rx="9.8225136" />
        <rect
           style="fill:none;fill-opacity:1;stroke:#f4f4f4;stroke-width:15.5854;stroke-miterlimit:4;stroke-dasharray:none;stroke-opacity:1"
           id="rect26752"
           width="142.98062"
           height="147.20753"
           x="645.32971"
           y="1854.5553"
           ry="9.8219643"
           rx="9.8225136" />
        <rect
           style="fill:none;fill-opacity:1;stroke:#f4f4f4;stroke-width:15.5854;stroke-miterlimit:4;stroke-dasharray:none;stroke-opacity:1"
           id="rect26754"
           width="142.98062"
           height="147.20753"
           x="645.32971"
           y="2388.8823"
           ry="9.8219643"
           rx="9.8225136" />
        <rect
           style="fill:none;fill-opacity:1;stroke:#f4f4f4;stroke-width:15.5854;stroke-miterlimit:4;stroke-dasharray:none;stroke-opacity:1"
           id="rect26758"
           width="316.65247"
           height="147.20753"
           x="297.98596"
           y="2388.8823"
           ry="9.8219643"
           rx="9.8225136" />
        <rect
           style="display:inline;fill:none;fill-opacity:1;stroke:#f4f4f4;stroke-width:15.5854;stroke-miterlimit:4;stroke-dasharray:none;stroke-opacity:1"
           id="rect26760"
           width="142.98062"
           height="325.31302"
           x="819.00159"
           y="2210.7769"
           ry="9.8219643"
           rx="9.8225136" />
        <rect
           style="fill:none;fill-opacity:1;stroke:#f4f4f4;stroke-width:15.5854;stroke-miterlimit:4;stroke-dasharray:none;stroke-opacity:1"
           id="rect26762"
           width="142.98062"
           height="147.20753"
           x="819.00159"
           y="2032.6705"
           ry="9.8219643"
           rx="9.8225136" />
        <rect
           style="fill:none;fill-opacity:1;stroke:#f4f4f4;stroke-width:15.5854;stroke-miterlimit:4;stroke-dasharray:none;stroke-opacity:1"
           id="rect26764"
           width="142.98062"
           height="147.20753"
           x="819.00159"
           y="1854.5553"
           ry="9.8219643"
           rx="9.8225136" />
        <rect
           style="fill:none;fill-opacity:1;stroke:#f4f4f4;stroke-width:15.5854;stroke-miterlimit:4;stroke-dasharray:none;stroke-opacity:1"
           id="rect26768"
           width="142.98062"
           height="147.20753"
           x="471.65784"
           y="1676.4401"
           ry="9.8219643"
           rx="9.8225136" />
        <rect
           style="fill:none;fill-opacity:1;stroke:#f4f4f4;stroke-width:15.5854;stroke-miterlimit:4;stroke-dasharray:none;stroke-opacity:1"
           id="rect26770"
           width="142.98062"
           height="147.20753"
           x="295.7594"
           y="1676.4401"
           ry="9.8219643"
           rx="9.8225136" />
        <rect
           style="fill:none;fill-opacity:1;stroke:#f4f4f4;stroke-width:15.5854;stroke-miterlimit:4;stroke-dasharray:none;stroke-opacity:1"
           id="rect26772"
           width="142.98062"
           height="147.20753"
           x="645.32971"
           y="1676.4401"
           ry="9.8219643"
           rx="9.8225136" />
        <rect
           style="fill:none;fill-opacity:1;stroke:#f4f4f4;stroke-width:15.5854;stroke-miterlimit:4;stroke-dasharray:none;stroke-opacity:1"
           id="rect26774"
           width="142.98062"
           height="147.20753"
           x="819.00159"
           y="1676.4401"
           ry="9.8219643"
           rx="9.8225136" />
      </g>
      <g
         id="g27258"
         inkscape:label="Del/Help"
         transform="matrix(0.89825151,0,0,0.89830172,2440.3021,-247.68242)"
         style="fill:none;stroke:#f4f4f4;stroke-width:15.5854;stroke-miterlimit:4;stroke-dasharray:none;stroke-opacity:1">
        <rect
           style="fill:none;fill-opacity:1;stroke:#f4f4f4;stroke-width:15.5854;stroke-miterlimit:4;stroke-dasharray:none;stroke-opacity:1"
           id="rect27250"
           width="253.82652"
           height="147.20753"
           x="569.62659"
           y="2210.7769"
           ry="9.8219643"
           rx="9.8225136" />
        <rect
           style="fill:none;fill-opacity:1;stroke:#f4f4f4;stroke-width:15.5854;stroke-miterlimit:4;stroke-dasharray:none;stroke-opacity:1"
           id="rect27254"
           width="239.41331"
           height="147.20753"
           x="297.98596"
           y="2210.7769"
           ry="9.8219643"
           rx="9.8225136" />
      </g>
    </g>
  </g>
</svg>
