<?xml version="1.0" encoding="UTF-8" standalone="no"?>
<!-- Created with Inkscape (http://www.inkscape.org/) -->

<svg
   version="1.1"
   id="svg58279"
   width="202.02518"
   height="351.53839"
   viewBox="0 0 505.06294 878.84598"
   sodipodi:docname="apfm1000.svg"
   inkscape:version="1.1.2 (0a00cf5339, 2022-02-04)"
   xmlns:inkscape="http://www.inkscape.org/namespaces/inkscape"
   xmlns:sodipodi="http://sodipodi.sourceforge.net/DTD/sodipodi-0.dtd"
   xmlns="http://www.w3.org/2000/svg"
   xmlns:svg="http://www.w3.org/2000/svg">
  <defs
     id="defs58283" />
  <sodipodi:namedview
     id="namedview58281"
     pagecolor="#000000"
     bordercolor="#111111"
     borderopacity="1"
     inkscape:pageshadow="0"
     inkscape:pageopacity="0"
     inkscape:pagecheckerboard="1"
     showgrid="false"
     showguides="true"
     inkscape:guide-bbox="true"
     inkscape:zoom="11.466597"
     inkscape:cx="123.22749"
     inkscape:cy="196.52736"
     inkscape:window-width="1366"
     inkscape:window-height="703"
     inkscape:window-x="0"
     inkscape:window-y="0"
     inkscape:window-maximized="1"
     inkscape:current-layer="svg58279"
     fit-margin-top="0"
     fit-margin-left="0"
     fit-margin-right="0"
     fit-margin-bottom="0">
    <sodipodi:guide
       position="748.21719,809.9582"
       orientation="1,0"
       id="guide58560" />
    <sodipodi:guide
       position="496.89421,285.36037"
       orientation="0,-1"
       id="guide59015" />
  </sodipodi:namedview>
  <text
     xml:space="preserve"
     style="font-size:6.66668px;line-height:1.25;font-family:TrasksHand;-inkscape-font-specification:TrasksHand;fill:#f4f4f4;fill-opacity:0.5;stroke-width:2.5"
     x="277.80032"
     y="478.52744"
     id="text139846"
     inkscape:label="Signature"><tspan
       sodipodi:role="line"
       id="tspan139844"
       style="fill:#f4f4f4;fill-opacity:0.5;stroke-width:2.5"
       x="277.80032"
       y="478.52744">John Loreth 2022</tspan></text>
  <g
     inkscape:groupmode="layer"
     id="layer4"
     inkscape:label="Buttons"
     transform="translate(-77.839111,-57.714375)">
    <g
       id="g70791"
       inkscape:label="Keypad"
       style="display:inline;stroke:#f4f4f4;stroke-width:5;stroke-miterlimit:4;stroke-dasharray:none;stroke-opacity:1">
      <path
         id="rect58748"
         style="display:inline;fill:none;stroke:#f4f4f4;stroke-width:5;stroke-miterlimit:4;stroke-dasharray:none;stroke-opacity:1"
         d="m 350.59571,540.06293 h 55.7673 c 2.50195,0 4.51616,2.0142 4.51616,4.51615 v 55.76731 c 0,2.50195 -2.01421,4.51615 -4.51616,4.51615 h -55.7673 c -2.50195,0 -4.51615,-2.0142 -4.51615,-4.51615 v -55.76731 c 0,-2.50195 2.0142,-4.51615 4.51615,-4.51615 z" />
      <path
         id="rect58937"
         style="display:inline;fill:none;stroke:#f4f4f4;stroke-width:5;stroke-miterlimit:4;stroke-dasharray:none;stroke-opacity:1"
         d="m 446.59571,540.06293 h 55.7673 c 2.50195,0 4.51616,2.0142 4.51616,4.51615 v 55.76731 c 0,2.50195 -2.01421,4.51615 -4.51616,4.51615 h -55.7673 c -2.50195,0 -4.51615,-2.0142 -4.51615,-4.51615 v -55.76731 c 0,-2.50195 2.0142,-4.51615 4.51615,-4.51615 z" />
      <path
         id="rect58939"
         style="display:inline;fill:none;stroke:#f4f4f4;stroke-width:5;stroke-miterlimit:4;stroke-dasharray:none;stroke-opacity:1"
         d="m 254.59571,540.06293 h 55.7673 c 2.50195,0 4.51616,2.0142 4.51616,4.51615 v 55.76731 c 0,2.50195 -2.01421,4.51615 -4.51616,4.51615 h -55.7673 c -2.50195,0 -4.51615,-2.0142 -4.51615,-4.51615 v -55.76731 c 0,-2.50195 2.0142,-4.51615 4.51615,-4.51615 z" />
      <path
         id="rect58941"
         style="display:inline;fill:none;stroke:#f4f4f4;stroke-width:5;stroke-miterlimit:4;stroke-dasharray:none;stroke-opacity:1"
         d="m 162.59571,540.06293 h 55.7673 c 2.50195,0 4.51616,2.0142 4.51616,4.51615 v 55.76731 c 0,2.50195 -2.01421,4.51615 -4.51616,4.51615 h -55.7673 c -2.50195,0 -4.51615,-2.0142 -4.51615,-4.51615 v -55.76731 c 0,-2.50195 2.0142,-4.51615 4.51615,-4.51615 z" />
      <path
         id="rect58975"
         style="display:inline;fill:none;stroke:#f4f4f4;stroke-width:5;stroke-miterlimit:4;stroke-dasharray:none;stroke-opacity:1"
         d="m 350.59571,656.06293 h 55.7673 c 2.50195,0 4.51616,2.0142 4.51616,4.51615 v 55.76731 c 0,2.50195 -2.01421,4.51615 -4.51616,4.51615 h -55.7673 c -2.50195,0 -4.51615,-2.0142 -4.51615,-4.51615 v -55.76731 c 0,-2.50195 2.0142,-4.51615 4.51615,-4.51615 z" />
      <path
         id="rect58977"
         style="display:inline;fill:none;stroke:#f4f4f4;stroke-width:5;stroke-miterlimit:4;stroke-dasharray:none;stroke-opacity:1"
         d="m 446.59571,656.06293 h 55.7673 c 2.50195,0 4.51616,2.0142 4.51616,4.51615 v 55.76731 c 0,2.50195 -2.01421,4.51615 -4.51616,4.51615 h -55.7673 c -2.50195,0 -4.51615,-2.0142 -4.51615,-4.51615 v -55.76731 c 0,-2.50195 2.0142,-4.51615 4.51615,-4.51615 z" />
      <path
         id="rect58979"
         style="display:inline;fill:none;stroke:#f4f4f4;stroke-width:5;stroke-miterlimit:4;stroke-dasharray:none;stroke-opacity:1"
         d="m 254.59571,656.06293 h 55.7673 c 2.50195,0 4.51616,2.0142 4.51616,4.51615 v 55.76731 c 0,2.50195 -2.01421,4.51615 -4.51616,4.51615 h -55.7673 c -2.50195,0 -4.51615,-2.0142 -4.51615,-4.51615 v -55.76731 c 0,-2.50195 2.0142,-4.51615 4.51615,-4.51615 z" />
      <path
         id="rect58981"
         style="display:inline;fill:none;stroke:#f4f4f4;stroke-width:5;stroke-miterlimit:4;stroke-dasharray:none;stroke-opacity:1"
         d="m 162.59571,656.06293 h 55.7673 c 2.50195,0 4.51616,2.0142 4.51616,4.51615 v 55.76731 c 0,2.50195 -2.01421,4.51615 -4.51616,4.51615 h -55.7673 c -2.50195,0 -4.51615,-2.0142 -4.51615,-4.51615 v -55.76731 c 0,-2.50195 2.0142,-4.51615 4.51615,-4.51615 z" />
      <path
         id="rect58983"
         style="display:inline;fill:none;stroke:#f4f4f4;stroke-width:5;stroke-miterlimit:4;stroke-dasharray:none;stroke-opacity:1"
         d="m 350.59571,776.06293 h 55.7673 c 2.50195,0 4.51616,2.0142 4.51616,4.51615 v 55.76731 c 0,2.50195 -2.01421,4.51615 -4.51616,4.51615 h -55.7673 c -2.50195,0 -4.51615,-2.0142 -4.51615,-4.51615 v -55.76731 c 0,-2.50195 2.0142,-4.51615 4.51615,-4.51615 z" />
      <path
         id="rect58985"
         style="display:inline;fill:none;stroke:#f4f4f4;stroke-width:5;stroke-miterlimit:4;stroke-dasharray:none;stroke-opacity:1"
         d="m 446.59571,776.06293 h 55.7673 c 2.50195,0 4.51616,2.0142 4.51616,4.51615 v 55.76731 c 0,2.50195 -2.01421,4.51615 -4.51616,4.51615 h -55.7673 c -2.50195,0 -4.51615,-2.0142 -4.51615,-4.51615 v -55.76731 c 0,-2.50195 2.0142,-4.51615 4.51615,-4.51615 z" />
      <path
         id="rect58987"
         style="display:inline;fill:none;stroke:#f4f4f4;stroke-width:5;stroke-miterlimit:4;stroke-dasharray:none;stroke-opacity:1"
         d="m 254.59571,776.06293 h 55.7673 c 2.50195,0 4.51616,2.0142 4.51616,4.51615 v 55.76731 c 0,2.50195 -2.01421,4.51615 -4.51616,4.51615 h -55.7673 c -2.50195,0 -4.51615,-2.0142 -4.51615,-4.51615 v -55.76731 c 0,-2.50195 2.0142,-4.51615 4.51615,-4.51615 z" />
      <path
         id="rect58989"
         style="display:inline;fill:none;stroke:#f4f4f4;stroke-width:5;stroke-miterlimit:4;stroke-dasharray:none;stroke-opacity:1"
         d="m 162.59571,776.06293 h 55.7673 c 2.50195,0 4.51616,2.0142 4.51616,4.51615 v 55.76731 c 0,2.50195 -2.01421,4.51615 -4.51616,4.51615 h -55.7673 c -2.50195,0 -4.51615,-2.0142 -4.51615,-4.51615 v -55.76731 c 0,-2.50195 2.0142,-4.51615 4.51615,-4.51615 z" />
    </g>
    <g
       id="g70800"
       inkscape:label="Joystick">
      <path
         id="path59039"
         style="fill:none;stroke:#f4f4f4;stroke-width:5;stroke-miterlimit:4;stroke-dasharray:none;stroke-opacity:1"
         inkscape:label="Outer Circle"
         d="M 472.49541,260.3757 A 143.52971,143.52911 0 0 1 328.9657,403.90482 143.52971,143.52911 0 0 1 185.43599,260.3757 143.52971,143.52911 0 0 1 328.9657,116.84659 143.52971,143.52911 0 0 1 472.49541,260.3757 Z" />
      <path
         id="path59180"
         style="fill:none;stroke:#f4f4f4;stroke-width:5;stroke-miterlimit:4;stroke-dasharray:none;stroke-opacity:1"
         inkscape:label="Inner Circle"
         d="M 450.96583,260.37549 A 122.00025,121.99975 0 0 1 328.96558,382.37524 122.00025,121.99975 0 0 1 206.96532,260.37549 122.00025,121.99975 0 0 1 328.96558,138.37574 122.00025,121.99975 0 0 1 450.96583,260.37549 Z" />
      <path
         id="path59657"
         style="fill:none;fill-opacity:1;stroke:#f4f4f4;stroke-width:2.5;stroke-linecap:butt;stroke-linejoin:miter;stroke-miterlimit:4;stroke-dasharray:none;stroke-opacity:1"
         d="m 330.49219,153.90625 -16.29297,16.05078 -0.0488,15.51172 16.27149,-16.01367 16.39453,16.01367 -0.0937,-15.4668 z m -6.64063,30.2207 v 20.23828 h 4.47852 v -20.23828 z m 8.95899,0 v 20.23828 h 4.48047 v -20.23828 z"
         inkscape:label="N" />
      <path
         id="path70680"
         style="fill:none;fill-opacity:1;stroke:#f4f4f4;stroke-width:2.5;stroke-linecap:butt;stroke-linejoin:miter;stroke-miterlimit:4;stroke-dasharray:none;stroke-opacity:1"
         d="m 330.47641,366.26372 16.29297,-16.05078 0.0488,-15.51172 -16.27149,16.01367 -16.39453,-16.01367 0.0937,15.4668 z m 6.64063,-30.2207 v -20.23828 h -4.47852 v 20.23828 z m -8.95899,0 v -20.23828 h -4.48047 v 20.23828 z"
         inkscape:label="S" />
      <path
         id="path70712"
         style="fill:none;fill-opacity:1;stroke:#f4f4f4;stroke-width:2.5;stroke-linecap:butt;stroke-linejoin:miter;stroke-miterlimit:4;stroke-dasharray:none;stroke-opacity:1"
         d="m 435.71435,260.45718 -16.05101,-16.29321 -15.51194,-0.0488 16.0139,16.27173 -16.0139,16.39476 15.46702,-0.0937 z m -30.22113,-6.64073 h -20.23857 v 4.47859 h 20.23857 z m 0,8.95912 h -20.23857 v 4.48053 h 20.23857 z"
         inkscape:label="E" />
      <path
         id="path70745"
         style="fill:none;fill-opacity:1;stroke:#f4f4f4;stroke-width:2.5;stroke-linecap:butt;stroke-linejoin:miter;stroke-miterlimit:4;stroke-dasharray:none;stroke-opacity:1"
         d="m 223.35616,260.44139 16.05101,16.29321 15.51194,0.0488 -16.0139,-16.27173 16.0139,-16.39476 -15.46702,0.0937 z m 30.22113,6.64073 h 20.23857 v -4.47859 h -20.23857 z m 0,-8.95912 h 20.23857 v -4.48053 h -20.23857 z"
         inkscape:label="W" />
    </g>
  </g>
  <g
     inkscape:groupmode="layer"
     id="layer3"
     inkscape:label="Body"
     transform="translate(-77.839111,-57.714375)">
    <path
       id="rect58369"
       style="fill:none;stroke:#f4f4f4;stroke-width:5;stroke-miterlimit:4;stroke-dasharray:none;stroke-opacity:1"
       inkscape:label="Body Outline"
       d="M 85.574971,58.714375 H 575.16621 c 3.73167,0 6.73586,3.004193 6.73586,6.735859 V 928.82452 c 0,3.73167 -3.00419,6.73586 -6.73586,6.73586 H 85.574971 c -3.731666,0 -6.73586,-3.00419 -6.73586,-6.73586 V 65.450234 c 0,-3.731666 3.004194,-6.735859 6.73586,-6.735859 z" />
    <path
       id="rect58452"
       style="fill:none;stroke:#f4f4f4;stroke-width:5;stroke-miterlimit:4;stroke-dasharray:none;stroke-opacity:1"
       inkscape:label="Body Inner Outline"
       d="M 97.814754,80.635529 H 562.92644 c 3.54508,0 6.39907,2.853983 6.39907,6.399066 V 907.24018 c 0,3.54509 -2.85399,6.39907 -6.39907,6.39907 H 97.814754 c -3.545083,0 -6.399066,-2.85398 -6.399066,-6.39907 V 87.034595 c 0,-3.545083 2.853983,-6.399066 6.399066,-6.399066 z" />
    <path
       id="rect58476"
       style="fill:none;stroke:#f4f4f4;stroke-width:5;stroke-miterlimit:4;stroke-dasharray:none;stroke-opacity:1"
       inkscape:label="Keypad Surround"
       d="m 133.13216,502.27713 h 392.86802 c 5.74589,0 10.37164,4.62575 10.37164,10.37164 v 350.16971 c 0,5.74589 -4.62575,10.37164 -10.37164,10.37164 H 133.13216 c -5.74589,0 -10.37164,-4.62575 -10.37164,-10.37164 V 512.64877 c 0,-5.74589 4.62575,-10.37164 10.37164,-10.37164 z" />
    <path
       id="rect58632"
       style="fill:none;stroke:#f4f4f4;stroke-width:5;stroke-miterlimit:4;stroke-dasharray:none;stroke-opacity:1"
       inkscape:label="Joystick Surround"
       d="M 123.08782,102.91774 H 537.5086 c 5.72945,0 10.34196,4.61251 10.34196,10.34196 v 293.95112 c 0,5.72945 -4.61251,10.34196 -10.34196,10.34196 H 123.08782 c -5.72945,0 -10.34196,-4.61251 -10.34196,-10.34196 V 113.2597 c 0,-5.72945 4.61251,-10.34196 10.34196,-10.34196 z" />
  </g>
</svg>
