<?xml version="1.0" encoding="UTF-8" standalone="no"?>
<!-- Created with Inkscape (http://www.inkscape.org/) -->

<svg
   version="1.1"
   id="svg1074"
   width="190.58647"
   height="369.84689"
   viewBox="0 0 266.82106 517.78565"
   sodipodi:docname="arcadia2001.svg"
   inkscape:version="1.1.2 (0a00cf5339, 2022-02-04)"
   xmlns:inkscape="http://www.inkscape.org/namespaces/inkscape"
   xmlns:sodipodi="http://sodipodi.sourceforge.net/DTD/sodipodi-0.dtd"
   xmlns="http://www.w3.org/2000/svg"
   xmlns:svg="http://www.w3.org/2000/svg">
  <defs
     id="defs1078" />
  <sodipodi:namedview
     id="namedview1076"
     pagecolor="#000000"
     bordercolor="#111111"
     borderopacity="1"
     inkscape:pageshadow="0"
     inkscape:pageopacity="0"
     inkscape:pagecheckerboard="1"
     showgrid="false"
     showguides="true"
     inkscape:guide-bbox="true"
     inkscape:zoom="1.1662352"
     inkscape:cx="82.316159"
     inkscape:cy="217.36611"
     inkscape:window-width="1366"
     inkscape:window-height="703"
     inkscape:window-x="0"
     inkscape:window-y="0"
     inkscape:window-maximized="1"
     inkscape:current-layer="layer1"
     fit-margin-top="0"
     fit-margin-left="0"
     fit-margin-right="0"
     fit-margin-bottom="0"
     scale-x="1.5">
    <sodipodi:guide
       position="338.9953,92.957118"
       orientation="0,-1"
       id="guide1141" />
    <sodipodi:guide
       position="186.34672,-239.07819"
       orientation="1,0"
       id="guide1391" />
    <sodipodi:guide
       position="143.13068,253.70408"
       orientation="0,-1"
       id="guide1811" />
    <sodipodi:guide
       position="44.677897,105.74694"
       orientation="1,0"
       id="guide2121" />
    <sodipodi:guide
       position="315.76258,92.957076"
       orientation="1,0"
       id="guide2147" />
    <sodipodi:guide
       position="93.312244,-63.213136"
       orientation="0,-1"
       id="guide2476" />
    <sodipodi:guide
       position="19.935165,305.99842"
       orientation="0,-1"
       id="guide4152" />
    <sodipodi:guide
       position="18.734721,198.25857"
       orientation="0,-1"
       id="guide4154" />
    <sodipodi:guide
       position="13.79225,192.60675"
       orientation="1,0"
       id="guide3043" />
  </sodipodi:namedview>
  <text
     xml:space="preserve"
     style="font-size:2.66667px;line-height:1.25;font-family:TrasksHand;-inkscape-font-specification:TrasksHand;fill:#f4f4f4;fill-opacity:0.5"
     x="205.4771"
     y="302.08084"
     id="text5682"
     inkscape:label="Signature"><tspan
       sodipodi:role="line"
       id="tspan5680"
       x="205.4771"
       y="302.08084">John Loreth 2022</tspan></text>
  <g
     inkscape:groupmode="layer"
     id="layer1"
     inkscape:label="Body"
     transform="translate(-945.57989,-519.20355)">
    <path
       id="path6710"
       style="display:inline;fill:none;stroke:#f4f4f4;stroke-width:2.8;stroke-linecap:round;stroke-miterlimit:4;stroke-dasharray:none;stroke-opacity:1"
       d="m 1202.2027,670.47329 c -5.462,0 -9.8591,4.50949 -9.8591,10.11095 v 58.64856 c 0,5.60149 4.4857,10.1472 9.9477,10.1472 m 0,0 0.01,2.09423 m 0,0 V 1028.818 c 0,3.9729 -3.1983,7.1712 -7.1712,7.1712 H 962.6027 M 955.4315,670.47679 V 527.37473 c 0,-3.97283 3.1984,-7.17118 7.1712,-7.17118 h 232.5224 c 3.9728,0 7.1712,3.19835 7.1712,7.17118 v 143.05642 m -246.7712,0.0421 c 5.46196,0 9.86533,4.50949 9.85914,10.11095 l -0.0648,58.63598 c -0.006,5.60148 -4.39718,10.11098 -9.85914,10.11098 m -0.0288,0.14303 V 1026.818 c 0,3.9729 3.19834,9.1712 7.17118,9.1712 h 232.52242 c 3.9728,0 7.1712,-3.1983 7.1712,-7.1712 m 0,-358.34121 V 527.37473 c 0,-3.97283 -3.1984,-7.17118 -7.1712,-7.17118 H 962.6027 c -3.97284,0 -7.17118,3.19835 -7.17118,7.17118 v 143.05642"
       inkscape:label="Body Outline"
       sodipodi:nodetypes="cssccccssccssssccssccsssccssssc" />
    <rect
       style="display:inline;fill:none;stroke:#f4f4f4;stroke-width:2.8;stroke-linecap:round;stroke-miterlimit:4;stroke-dasharray:none;stroke-opacity:1"
       id="rect1915"
       width="227.95375"
       height="185.50778"
       x="964.38635"
       y="841.85828"
       ry="4.8366103"
       inkscape:label="Joystick Square"
       rx="4.8366103" />
    <rect
       style="display:inline;fill:none;stroke:#f4f4f4;stroke-width:1.4;stroke-linecap:round;stroke-miterlimit:4;stroke-dasharray:none;stroke-opacity:1"
       id="rect2145"
       width="203.18446"
       height="19.049175"
       x="977.49261"
       y="822.65253"
       ry="4.8366098"
       rx="4.8366098"
       inkscape:label="Lower Rectangle" />
    <path
       id="circle2355"
       style="display:inline;fill:none;stroke:#f4f4f4;stroke-width:1.4;stroke-linecap:round;stroke-miterlimit:4;stroke-dasharray:none;stroke-opacity:1"
       sodipodi:type="inkscape:offset"
       inkscape:radius="10.856774"
       inkscape:original="M 1087.2949 872.81641 A 69.5 69.5 0 0 0 1017.7949 942.31641 A 69.5 69.5 0 0 0 1087.2949 1011.8164 A 69.5 69.5 0 0 0 1156.7949 942.31641 A 69.5 69.5 0 0 0 1087.2949 872.81641 z "
       d="m 1087.2949,861.95898 c -21.0373,0 -41.9446,8.66146 -56.8203,23.53711 -14.8756,14.87566 -23.5371,35.78296 -23.5371,56.82032 0,21.03735 8.6615,41.94466 23.5371,56.82031 14.8757,14.87568 35.783,23.53708 56.8203,23.53708 21.0374,0 41.9447,-8.6614 56.8203,-23.53708 14.8757,-14.87565 23.5371,-35.78296 23.5371,-56.82031 0,-21.03736 -8.6614,-41.94466 -23.5371,-56.82032 -14.8756,-14.87565 -35.7829,-23.53711 -56.8203,-23.53711 z"
       transform="translate(-8.6102,-8.6516376)"
       inkscape:label="Joystick Indent" />
    <path
       id="rect2743"
       style="display:inline;fill:none;stroke:#f4f4f4;stroke-width:1.4;stroke-linecap:round;stroke-miterlimit:4;stroke-dasharray:none;stroke-opacity:1"
       d="m 1162.9919,598.66156 h 16.5313 v 217.4666 h -16.5313 z m -185.49922,-0.42242 h 16.53122 v 217.46659 h -16.53122 z m 8.73205,0.15616 v -5.43155 h 184.89987 v 5.80648 m 0,217.30959 v 6.57271 H 986.22473 V 815.797"
       inkscape:label="Numbepad Square" />
    <rect
       style="display:inline;fill:none;stroke:#f4f4f4;stroke-width:1.4;stroke-linecap:round;stroke-miterlimit:4;stroke-dasharray:none;stroke-opacity:1"
       id="rect2818"
       width="203.18446"
       height="21.199038"
       x="977.49261"
       y="571.66791"
       ry="4.8366098"
       rx="4.8366098"
       inkscape:label="Upper Rectangle" />
    <rect
       style="display:inline;fill:none;stroke:#f4f4f4;stroke-width:2.8;stroke-linecap:round;stroke-miterlimit:4;stroke-dasharray:none;stroke-opacity:1"
       id="rect1417"
       width="207.07492"
       height="35.840824"
       x="975.37091"
       y="535.50055"
       ry="6.7843175"
       inkscape:label="Logo"
       rx="6.7843175" />
  </g>
  <g
     id="layer2"
     inkscape:label="Buttons"
     transform="translate(-945.57989,-519.20355)">
    <circle
       style="fill:none;stroke:#f4f4f4;stroke-width:2.8;stroke-linecap:round;stroke-opacity:1;stroke-miterlimit:4;stroke-dasharray:none"
       id="path2273"
       cx="1078.8627"
       cy="933.02289"
       r="69.5"
       inkscape:label="Joystick Outer Circle" />
    <circle
       style="fill:none;stroke:#f4f4f4;stroke-width:2.8;stroke-linecap:round;stroke-opacity:1;stroke-miterlimit:4;stroke-dasharray:none"
       id="path2501"
       cx="1079.0195"
       cy="933.81073"
       r="17"
       inkscape:label="Joystick" />
    <g
       id="g9572"
       inkscape:label="Number Pad"
       transform="translate(-1.6442763)"
       style="stroke:#f4f4f4;stroke-opacity:1;stroke-width:2.8;stroke-miterlimit:4;stroke-dasharray:none">
      <circle
         style="fill:none;stroke:#f4f4f4;stroke-width:2.8;stroke-linecap:round;stroke-opacity:1;stroke-miterlimit:4;stroke-dasharray:none"
         id="path2605"
         cx="1081.0647"
         cy="789.23865"
         r="19" />
      <circle
         style="fill:none;stroke:#f4f4f4;stroke-width:2.8;stroke-linecap:round;stroke-opacity:1;stroke-miterlimit:4;stroke-dasharray:none"
         id="circle2687"
         cx="1133.2726"
         cy="788.79486"
         r="19" />
      <circle
         style="fill:none;stroke:#f4f4f4;stroke-width:2.8;stroke-linecap:round;stroke-opacity:1;stroke-miterlimit:4;stroke-dasharray:none"
         id="circle2689"
         cx="1028.1249"
         cy="790.29706"
         r="19" />
      <circle
         style="fill:none;stroke:#f4f4f4;stroke-width:2.8;stroke-linecap:round;stroke-opacity:1;stroke-miterlimit:4;stroke-dasharray:none"
         id="circle2691"
         cx="1081.0647"
         cy="737.23865"
         r="19" />
      <circle
         style="fill:none;stroke:#f4f4f4;stroke-width:2.8;stroke-linecap:round;stroke-opacity:1;stroke-miterlimit:4;stroke-dasharray:none"
         id="circle2693"
         cx="1133.2726"
         cy="736.79486"
         r="19" />
      <circle
         style="fill:none;stroke:#f4f4f4;stroke-width:2.8;stroke-linecap:round;stroke-opacity:1;stroke-miterlimit:4;stroke-dasharray:none"
         id="circle2695"
         cx="1028.1249"
         cy="738.29706"
         r="19" />
      <circle
         style="fill:none;stroke:#f4f4f4;stroke-width:2.8;stroke-linecap:round;stroke-opacity:1;stroke-miterlimit:4;stroke-dasharray:none"
         id="circle2697"
         cx="1081.0647"
         cy="685.23865"
         r="19" />
      <circle
         style="display:inline;fill:none;stroke:#f4f4f4;stroke-width:2.8;stroke-linecap:round;stroke-opacity:1;stroke-miterlimit:4;stroke-dasharray:none"
         id="circle2699"
         cx="1133.2726"
         cy="684.79486"
         r="19" />
      <circle
         style="display:inline;fill:none;stroke:#f4f4f4;stroke-width:2.8;stroke-linecap:round;stroke-opacity:1;stroke-miterlimit:4;stroke-dasharray:none"
         id="circle2701"
         cx="1028.1249"
         cy="686.29706"
         r="19" />
      <circle
         style="display:inline;fill:none;stroke:#f4f4f4;stroke-width:2.8;stroke-linecap:round;stroke-opacity:1;stroke-miterlimit:4;stroke-dasharray:none"
         id="circle2703"
         cx="1081.0647"
         cy="633.23865"
         r="19" />
      <circle
         style="display:inline;fill:none;stroke:#f4f4f4;stroke-width:2.8;stroke-linecap:round;stroke-opacity:1;stroke-miterlimit:4;stroke-dasharray:none"
         id="circle2705"
         cx="1133.2726"
         cy="632.79486"
         r="19" />
      <circle
         style="display:inline;fill:none;stroke:#f4f4f4;stroke-width:2.8;stroke-linecap:round;stroke-opacity:1;stroke-miterlimit:4;stroke-dasharray:none"
         id="circle2707"
         cx="1028.1249"
         cy="634.29706"
         r="19" />
    </g>
    <path
       id="path6268"
       style="display:inline;fill:none;stroke:#f4f4f4;stroke-width:2.8;stroke-linecap:round;stroke-opacity:1;stroke-miterlimit:4;stroke-dasharray:none"
       d="m 1192.5844,740.26001 c 10.3497,0 20.118,-4.45002 18.6818,-9.85915 m 0,0 c -3.3516,-12.62338 -3.1847,-25.48742 0,-38.55789 1.32,-5.41737 -8.3321,-9.85914 -18.6818,-9.85914"
       sodipodi:nodetypes="cccsc"
       inkscape:label="Right Side Button" />
    <path
       id="rect3062"
       style="display:inline;fill:none;stroke:#f4f4f4;stroke-width:2.8;stroke-linecap:round;stroke-opacity:1;stroke-miterlimit:4;stroke-dasharray:none"
       d="m 965.05889,740.24201 c -10.34971,0 -19.7759,-4.43202 -18.33975,-9.84115 m 0,0 c 3.3516,-12.62338 3.18472,-25.48742 0,-38.55789 -1.31997,-5.41737 8.3321,-9.85914 18.68181,-9.85914"
       sodipodi:nodetypes="cccsc"
       inkscape:label="Left Side Button" />
  </g>
</svg>
