<?xml version="1.0" encoding="UTF-8" standalone="no"?>
<!-- Created with Inkscape (http://www.inkscape.org/) -->

<svg
   version="1.1"
   id="svg1186"
   width="575.55811"
   height="352.37891"
   viewBox="0 0 2014.4534 1233.3262"
   sodipodi:docname="atom.svg"
   inkscape:version="1.1.2 (0a00cf5339, 2022-02-04)"
   xmlns:inkscape="http://www.inkscape.org/namespaces/inkscape"
   xmlns:sodipodi="http://sodipodi.sourceforge.net/DTD/sodipodi-0.dtd"
   xmlns="http://www.w3.org/2000/svg"
   xmlns:svg="http://www.w3.org/2000/svg">
  <defs
     id="defs1190" />
  <sodipodi:namedview
     id="namedview1188"
     pagecolor="#000000"
     bordercolor="#e6b928"
     borderopacity="1"
     inkscape:pageshadow="0"
     inkscape:pageopacity="0"
     inkscape:pagecheckerboard="1"
     showgrid="false"
     showguides="true"
     inkscape:guide-bbox="true"
     inkscape:zoom="9.6938776"
     inkscape:cx="445.22947"
     inkscape:cy="253.82"
     inkscape:window-width="1366"
     inkscape:window-height="703"
     inkscape:window-x="0"
     inkscape:window-y="0"
     inkscape:window-maximized="1"
     inkscape:current-layer="svg1186"
     scale-x="3.5"
     fit-margin-left="-0.3"
     fit-margin-top="0"
     fit-margin-right="0"
     fit-margin-bottom="0">
    <sodipodi:guide
       position="291.78925,341.73585"
       orientation="0,-1"
       id="guide1544" />
    <sodipodi:guide
       position="-2.3195472,526.13739"
       orientation="1,0"
       id="guide1546" />
    <sodipodi:guide
       position="1006.6735,297.73259"
       orientation="1,0"
       id="guide2082" />
    <sodipodi:guide
       position="141.81711,1030.3239"
       orientation="0,-1"
       id="guide2574" />
    <sodipodi:guide
       position="1006.6735,1582.2215"
       orientation="0,-1"
       id="guide5931" />
    <sodipodi:guide
       position="1006.6735,1568.0006"
       orientation="0,-1"
       id="guide6540" />
    <sodipodi:guide
       position="122.91016,924.04189"
       orientation="1,0"
       id="guide7491" />
  </sodipodi:namedview>
  <text
     xml:space="preserve"
     style="font-size:9.33335px;line-height:1.25;font-family:TrasksHand;-inkscape-font-specification:TrasksHand;fill:#f4f4f4;fill-opacity:0.5;stroke-width:3.5"
     x="1557.969"
     y="950.4386"
     id="text164370"
     inkscape:label="Signature"><tspan
       sodipodi:role="line"
       id="tspan164368"
       style="fill:#f4f4f4;fill-opacity:0.5;stroke-width:3.5"
       x="1557.969"
       y="950.4386">John Loreth 2022</tspan><tspan
       sodipodi:role="line"
       style="fill:#f4f4f4;fill-opacity:0.5;stroke-width:3.5"
       x="1557.969"
       y="962.10529"
       id="tspan164724" /></text>
  <g
     inkscape:groupmode="layer"
     id="layer1"
     inkscape:label="Body"
     transform="translate(-39.666695,-153.24609)">
    <rect
       style="fill:none;stroke:#f4f4f4;stroke-width:7;stroke-miterlimit:4;stroke-dasharray:none;stroke-opacity:1"
       id="rect1278"
       width="1762.8688"
       height="607.15344"
       x="163.9207"
       y="720.5498"
       inkscape:label="Keyboard Outline" />
    <path
       id="path3754"
       style="display:inline;fill:none;stroke:#f4f4f4;stroke-width:7;stroke-miterlimit:4;stroke-dasharray:none;stroke-opacity:1"
       inkscape:label="Body Outline"
       d="m 1046.3688,1381.0497 h 983.3448 c 12.9672,0 23.4065,-10.4393 23.4065,-23.4065 V 690.81216 l -49.635,-508.4768 c -1.2598,-12.90586 -12.2276,-23.11953 -25.1948,-23.13006 l -931.9219,-0.7566 m -4e-4,1222.601 H 63.023182 c -12.967194,0 -23.406487,-10.4393 -23.406487,-23.4065 V 690.81216 L 89.251761,182.33536 C 90.511569,169.4295 101.4794,159.21583 114.44659,159.2053 l 931.92181,-0.7566" />
    <path
       style="display:inline;fill:none;stroke:#f4f4f4;stroke-width:2;stroke-linecap:butt;stroke-linejoin:miter;stroke-miterlimit:4;stroke-dasharray:none;stroke-opacity:1"
       d="M 39.616695,690.81216 H 2053.1201"
       id="path5585"
       inkscape:label="Bend Line" />
    <g
       id="g6538"
       inkscape:label="Ribs"
       transform="translate(19.125588,0.04860159)"
       style="display:inline;fill:#f4f4f4;fill-opacity:1;stroke:none;stroke-opacity:1">
      <path
         id="rect7489"
         style="display:inline;fill:#f4f4f4;fill-opacity:1;stroke:none;stroke-width:1.16355;stroke-opacity:1"
         d="m 147.05214,156.85723 c -2.01159,0 -3.63085,1.61445 -3.63085,3.62008 v 562.04794 h 7.29101 V 160.47731 c 0,-2.00563 -1.61927,-3.62008 -3.63086,-3.62008 z m 19.47852,0 c -2.01159,0 -3.63086,1.61445 -3.63086,3.62008 v 562.04794 h 7.28906 V 160.47731 c 0,-2.00563 -1.61927,-3.62008 -3.63086,-3.62008 z m 19.16602,0 c -2.01159,0 -3.63086,1.61445 -3.63086,3.62008 v 562.04794 h 7.28906 V 160.47731 c 0,-2.00563 -1.61926,-3.62008 -3.63086,-3.62008 z m 19.47656,0 c -2.01159,0 -3.63086,1.61445 -3.63086,3.62008 v 562.04794 h 7.29101 V 160.47731 c 0,-2.00563 -1.61926,-3.62008 -3.63086,-3.62008 z m 19.16797,0 c -2.01159,0 -3.63086,1.61445 -3.63086,3.62008 v 562.04794 h 7.28906 V 160.47731 c 0,-2.00563 -1.61927,-3.62008 -3.63086,-3.62008 z m 19.47656,0 c -2.0116,0 -3.63086,1.61445 -3.63086,3.62008 v 562.04794 h 7.28906 V 160.47731 c 0,-2.00563 -1.61927,-3.62008 -3.63086,-3.62008 z m 19.16797,0 c -2.01159,0 -3.63086,1.61445 -3.63086,3.62008 v 562.04794 h 7.28906 V 160.47731 c 0,-2.00563 -1.61927,-3.62008 -3.63086,-3.62008 z m 19.47656,0 c -2.01159,0 -3.63086,1.61445 -3.63086,3.62008 v 562.04794 h 7.28906 V 160.47731 c 0,-2.00563 -1.61927,-3.62008 -3.63086,-3.62008 z m 19.16602,0 c -2.01159,0 -3.63086,1.61445 -3.63086,3.62008 v 562.04794 h 7.29101 V 160.47731 c 0,-2.00563 -1.61927,-3.62008 -3.63086,-3.62008 z m 19.47851,0 c -2.01159,0 -3.63086,1.61445 -3.63086,3.62008 v 562.04794 h 7.28906 V 160.47731 c 0,-2.00563 -1.61926,-3.62008 -3.63085,-3.62008 z m 19.16602,0 c -2.01159,0 -3.63086,1.61445 -3.63086,3.62008 v 562.04794 h 7.28906 V 160.47731 c 0,-2.00563 -1.61927,-3.62008 -3.63086,-3.62008 z m 19.47656,0 c -2.01159,0 -3.63086,1.61445 -3.63086,3.62008 v 562.04794 h 7.29102 V 160.47731 c 0,-2.00563 -1.61927,-3.62008 -3.63086,-3.62008 z m 19.16797,0 c -2.0116,0 -3.63086,1.61445 -3.63086,3.62008 v 562.04794 h 7.28906 V 160.47731 c 0,-2.00563 -1.61927,-3.62008 -3.63086,-3.62008 z m 19.47656,0 c -2.01159,0 -3.63086,1.61445 -3.63086,3.62008 v 562.04794 h 7.28906 V 160.47731 c 0,-2.00563 -1.61926,-3.62008 -3.63085,-3.62008 z m 19.16797,0 c -2.01159,0 -3.63086,1.61445 -3.63086,3.62008 v 562.04794 h 7.28906 V 160.47731 c 0,-2.00563 -1.61927,-3.62008 -3.63086,-3.62008 z m 19.47656,0 c -2.01159,0 -3.63086,1.61445 -3.63086,3.62008 v 562.04794 h 7.28907 V 160.47731 c 0,-2.00563 -1.61927,-3.62008 -3.63086,-3.62008 z m 19.16602,0 c -2.01159,0 -3.63086,1.61445 -3.63086,3.62008 v 562.04794 h 7.29101 V 160.47731 c 0,-2.00563 -1.61926,-3.62008 -3.63085,-3.62008 z m 19.47851,0 c -2.01159,0 -3.63086,1.61445 -3.63086,3.62008 v 562.04794 h 7.28907 V 160.47731 c 0,-2.00563 -1.61927,-3.62008 -3.63086,-3.62008 z m 19.16602,0 c -2.01159,0 -3.63086,1.61445 -3.63086,3.62008 v 562.04794 h 7.28906 V 160.47731 c 0,-2.00563 -1.61927,-3.62008 -3.63086,-3.62008 z m 19.47656,0 c -1.0058,0 -1.91205,0.40304 -2.56836,1.0574 -0.65631,0.65436 -1.0625,1.55987 -1.0625,2.56268 v 562.04794 h 7.29102 V 160.47731 c 0,-2.00563 -1.61927,-3.62008 -3.63086,-3.62008 z m 19.16797,0 c -2.01159,0 -3.63086,1.61445 -3.63086,3.62008 v 562.04794 h 7.28906 V 160.47731 c 0,-2.00563 -1.61927,-3.62008 -3.63086,-3.62008 z m 19.47656,0 c -2.01159,0 -3.63086,1.61445 -3.63086,3.62008 v 562.04794 h 7.28907 V 160.47731 c 0,-2.00563 -1.61927,-3.62008 -3.63086,-3.62008 z m 19.16797,0 c -2.01159,0 -3.63086,1.61445 -3.63086,3.62008 v 562.04794 h 7.28907 V 160.47731 c 0,-2.00563 -1.61926,-3.62008 -3.63086,-3.62008 z m 19.47656,0 c -1.00579,0 -1.914,0.40304 -2.57031,1.0574 -0.65631,0.65436 -1.06054,1.55987 -1.06054,2.56268 v 562.04794 h 7.28906 V 160.47731 c 0,-2.00563 -1.61927,-3.62008 -3.63086,-3.62008 z m 19.16602,0 c -1.0058,0 -1.91205,0.40304 -2.56836,1.0574 -0.65631,0.65436 -1.0625,1.55987 -1.0625,2.56268 v 562.04794 h 7.29102 V 160.47731 c 0,-2.00563 -1.61927,-3.62008 -3.63086,-3.62008 z m 19.47852,0 c -1.0058,0 -1.91401,0.40304 -2.57032,1.0574 -0.65631,0.65436 -1.06054,1.55987 -1.06054,2.56268 v 562.04794 h 7.28906 V 160.47731 c 0,-2.00563 -1.61927,-3.62008 -3.63086,-3.62008 z m 19.16601,0 c -1.0058,0 -1.914,0.40304 -2.57031,1.0574 -0.65631,0.65436 -1.06055,1.55987 -1.06055,2.56268 v 562.04794 h 7.28906 V 160.47731 c 0,-2.00563 -1.61927,-3.62008 -3.63086,-3.62008 z m 19.47656,0 c -1.0058,0 -1.91205,0.40304 -2.56836,1.0574 -0.65631,0.65436 -1.0625,1.55987 -1.0625,2.56268 v 562.04794 h 7.29102 V 160.47731 c 0,-2.00563 -1.61927,-3.62008 -3.63086,-3.62008 z m 19.16797,0 c -1.00579,0 -1.914,0.40304 -2.57031,1.0574 -0.65631,0.65436 -1.06055,1.55987 -1.06055,2.56268 v 562.04794 h 7.28907 V 160.47731 c 0,-2.00563 -1.61927,-3.62008 -3.63086,-3.62008 z m 19.47657,0 c -2.0116,0 -3.63086,1.61445 -3.63086,3.62008 v 562.04794 h 7.28906 V 160.47731 c 0,-2.00563 -1.61926,-3.62008 -3.63086,-3.62008 z m 19.16796,0 c -2.01159,0 -3.63086,1.61445 -3.63086,3.62008 v 562.04794 h 7.28907 V 160.47731 c 0,-2.00563 -1.61927,-3.62008 -3.63086,-3.62008 z m 19.47657,0 c -1.0058,0 -1.91401,0.40304 -2.57032,1.0574 -0.6563,0.65436 -1.06054,1.55987 -1.06054,2.56268 v 562.04794 h 7.28906 V 160.47731 c 0,-2.00563 -1.61927,-3.62008 -3.63086,-3.62008 z m 19.16601,0 c -2.01159,0 -3.63086,1.61445 -3.63086,3.62008 v 562.04794 h 7.29102 V 160.47731 c 0,-2.00563 -1.61927,-3.62008 -3.63086,-3.62008 z m 19.16797,0 c -2.01159,0 -3.63086,1.61445 -3.63086,3.62008 V 722.52525 H 788.183 V 160.47731 c 0,-2.00563 -1.61927,-3.62008 -3.63086,-3.62008 z m 19.47656,0 c -2.01159,0 -3.63086,1.61445 -3.63086,3.62008 v 562.04794 h 7.28907 V 160.47731 c 0,-2.00563 -1.61927,-3.62008 -3.63086,-3.62008 z m 19.16797,0 c -2.01159,0 -3.63086,1.61445 -3.63086,3.62008 v 562.04794 h 7.28906 V 160.47731 c 0,-2.00563 -1.61926,-3.62008 -3.63085,-3.62008 z m 19.47656,0 c -2.01159,0 -3.63086,1.61445 -3.63086,3.62008 v 562.04794 h 7.28907 V 160.47731 c 0,-2.00563 -1.61926,-3.62008 -3.63086,-3.62008 z m 19.16602,0 c -2.01159,0 -3.63086,1.61445 -3.63086,3.62008 v 562.04794 h 7.29102 V 160.47731 c 0,-2.00563 -1.61927,-3.62008 -3.63086,-3.62008 z m 19.47852,0 c -2.01159,0 -3.63086,1.61445 -3.63086,3.62008 v 562.04794 h 7.28906 V 160.47731 c 0,-2.00563 -1.61927,-3.62008 -3.63086,-3.62008 z m 19.16601,0 c -2.01159,0 -3.63086,1.61445 -3.63086,3.62008 v 562.04794 h 7.28906 V 160.47731 c 0,-2.00563 -1.61927,-3.62008 -3.63085,-3.62008 z m 19.47656,0 c -2.01159,0 -3.63086,1.61445 -3.63086,3.62008 v 562.04794 h 7.29102 V 160.47731 c 0,-2.00563 -1.61927,-3.62008 -3.63086,-3.62008 z m 19.16797,0 c -1.00579,0 -1.914,0.40304 -2.57031,1.0574 -0.65631,0.65436 -1.06055,1.55987 -1.06055,2.56268 v 562.04794 h 7.28907 V 160.47731 c 0,-2.00563 -1.61927,-3.62008 -3.63086,-3.62008 z m 19.47656,0 c -1.00579,0 -1.914,0.40304 -2.57031,1.0574 -0.65631,0.65436 -1.06054,1.55987 -1.06054,2.56268 v 562.04794 h 7.28906 V 160.47731 c 0,-2.00563 -1.61926,-3.62008 -3.63086,-3.62008 z m 19.16797,0 c -2.01159,0 -3.63086,1.61445 -3.63086,3.62008 v 562.04794 h 7.28907 V 160.47731 c 0,-2.00563 -1.61927,-3.62008 -3.63086,-3.62008 z m 19.16601,0 c -2.0116,0 -3.6309,1.61445 -3.6309,3.62008 v 562.04794 h 7.28909 V 160.47731 c 0,-2.00563 -1.61929,-3.62008 -3.63079,-3.62008 z m 19.47659,0 c -2.0116,0 -3.6309,1.61445 -3.6309,3.62008 v 562.04794 h 7.291 V 160.47731 c 0,-2.00563 -1.6192,-3.62008 -3.6308,-3.62008 z m 19.1679,0 c -2.0116,0 -3.6308,1.61445 -3.6308,3.62008 v 562.04794 h 7.289 V 160.47731 c 0,-2.00563 -1.6192,-3.62008 -3.6308,-3.62008 z m 19.4766,0 c -2.0116,0 -3.6309,1.61445 -3.6309,3.62008 v 562.04794 h 7.2911 V 160.47731 c 0,-2.00563 -1.6193,-3.62008 -3.6309,-3.62008 z m 19.168,0 c -2.0116,0 -3.6309,1.61445 -3.6309,3.62008 v 562.04794 h 7.2891 V 160.47731 c 0,-2.00563 -1.6193,-3.62008 -3.6309,-3.62008 z m 19.4765,0 c -2.0116,0 -3.6308,1.61445 -3.6308,3.62008 v 562.04794 h 7.289 V 160.47731 c 0,-2.00563 -1.6192,-3.62008 -3.6308,-3.62008 z m 19.1661,0 c -2.0116,0 -3.6309,1.61445 -3.6309,3.62008 v 562.04794 h 7.291 V 160.47731 c 0,-2.00563 -1.6194,-3.62008 -3.6309,-3.62008 z m 19.4785,0 c -2.0116,0 -3.6309,1.61445 -3.6309,3.62008 v 562.04794 h 7.2891 V 160.47731 c 0,-2.00563 -1.6193,-3.62008 -3.6309,-3.62008 z m 19.166,0 c -2.0116,0 -3.6309,1.61445 -3.6309,3.62008 v 562.04794 h 7.291 V 160.47731 c 0,-2.00563 -1.6192,-3.62008 -3.6308,-3.62008 z m 19.4765,0 c -2.0116,0 -3.6308,1.61445 -3.6308,3.62008 v 562.04794 h 7.291 V 160.47731 c 0,-2.00563 -1.6194,-3.62008 -3.6309,-3.62008 z m 19.168,0 c -2.0116,0 -3.6308,1.61445 -3.6308,3.62008 v 562.04794 h 7.289 V 160.47731 c 0,-2.00563 -1.6192,-3.62008 -3.6308,-3.62008 z m 19.4766,0 c -2.0116,0 -3.6309,1.61445 -3.6309,3.62008 v 562.04794 h 7.291 V 160.47731 c 0,-2.00563 -1.6192,-3.62008 -3.6308,-3.62008 z m 19.1679,0 c -2.0116,0 -3.6308,1.61445 -3.6308,3.62008 v 562.04794 h 7.289 V 160.47731 c 0,-2.00563 -1.6192,-3.62008 -3.6308,-3.62008 z m 19.4766,0 c -2.0116,0 -3.6309,1.61445 -3.6309,3.62008 v 562.04794 h 7.2891 V 160.47731 c 0,-2.00563 -1.6192,-3.62008 -3.6309,-3.62008 z m 19.166,0 c -2.0116,0 -3.6308,1.61445 -3.6308,3.62008 v 562.04794 h 7.291 V 160.47731 c 0,-2.00563 -1.6193,-3.62008 -3.6309,-3.62008 z m 19.4785,0 c -2.0116,0 -3.6308,1.61445 -3.6308,3.62008 v 562.04794 h 7.289 V 160.47731 c 0,-2.00563 -1.6192,-3.62008 -3.6308,-3.62008 z m 19.1661,0 c -2.0116,0 -3.6309,1.61445 -3.6309,3.62008 v 562.04794 h 7.291 V 160.47731 c 0,-2.00563 -1.6192,-3.62008 -3.6308,-3.62008 z m 19.4765,0 c -2.0116,0 -3.6308,1.61445 -3.6308,3.62008 v 562.04794 h 7.291 V 160.47731 c 0,-2.00563 -1.6193,-3.62008 -3.6309,-3.62008 z m 19.168,0 c -2.0116,0 -3.6309,1.61445 -3.6309,3.62008 v 562.04794 h 7.2891 V 160.47731 c 0,-2.00563 -1.6193,-3.62008 -3.6309,-3.62008 z m 19.4765,0 c -2.0116,0 -3.6308,1.61445 -3.6308,3.62008 v 562.04794 h 7.291 V 160.47731 c 0,-2.00563 -1.6193,-3.62008 -3.6309,-3.62008 z m 19.168,0 c -2.0115,0 -3.6308,1.61445 -3.6308,3.62008 v 562.04794 h 7.289 V 160.47731 c 0,-2.00563 -1.6192,-3.62008 -3.6308,-3.62008 z m 19.4766,0 c -1.0058,0 -1.914,0.40304 -2.5703,1.0574 -0.6563,0.65436 -1.0606,1.55987 -1.0606,2.56268 v 562.04794 h 7.2891 V 160.47731 c 0,-2.00563 -1.6193,-3.62008 -3.6309,-3.62008 z m 19.166,0 c -2.0116,0 -3.6309,1.61445 -3.6309,3.62008 v 562.04794 h 7.291 V 160.47731 c 0,-2.00563 -1.6192,-3.62008 -3.6308,-3.62008 z m 19.4785,0 c -1.0058,0 -1.914,0.40304 -2.5703,1.0574 -0.6563,0.65436 -1.0605,1.55987 -1.0605,2.56268 v 562.04794 h 7.289 V 160.47731 c 0,-2.00563 -1.6193,-3.62008 -3.6308,-3.62008 z m 19.166,0 c -2.0116,0 -3.6308,1.61445 -3.6308,3.62008 v 562.04794 h 7.291 V 160.47731 c 0,-2.00563 -1.6193,-3.62008 -3.6309,-3.62008 z m 19.4766,0 c -2.0116,0 -3.6309,1.61445 -3.6309,3.62008 v 562.04794 h 7.291 V 160.47731 c 0,-2.00563 -1.6192,-3.62008 -3.6308,-3.62008 z m 19.168,0 c -2.0116,0 -3.6309,1.61445 -3.6309,3.62008 v 562.04794 h 7.2891 V 160.47731 c 0,-2.00563 -1.6193,-3.62008 -3.6309,-3.62008 z m 19.4765,0 c -2.0116,0 -3.6308,1.61445 -3.6308,3.62008 v 562.04794 h 7.291 V 160.47731 c 0,-2.00563 -1.6193,-3.62008 -3.6309,-3.62008 z m 19.168,0 c -1.0058,0 -1.914,0.40304 -2.5703,1.0574 -0.6563,0.65436 -1.0606,1.55987 -1.0606,2.56268 v 562.04794 h 7.2891 V 160.47731 c 0,-2.00563 -1.6193,-3.62008 -3.6309,-3.62008 z m 19.4765,0 c -2.0116,0 -3.6308,1.61445 -3.6308,3.62008 v 562.04794 h 7.2891 V 160.47731 c 0,-2.00563 -1.6193,-3.62008 -3.6309,-3.62008 z m 19.1661,0 c -2.0116,0 -3.6309,1.61445 -3.6309,3.62008 v 562.04794 h 7.291 V 160.47731 c 0,-2.00563 -1.6192,-3.62008 -3.6308,-3.62008 z m 19.4785,0 c -1.0058,0 -1.914,0.40304 -2.5703,1.0574 -0.6563,0.65436 -1.0606,1.55987 -1.0606,2.56268 v 562.04794 h 7.2891 V 160.47731 c 0,-2.00563 -1.6193,-3.62008 -3.6309,-3.62008 z m 19.166,0 c -1.0058,0 -1.914,0.40304 -2.5703,1.0574 -0.6563,0.65436 -1.0606,1.55987 -1.0606,2.56268 v 562.04794 h 7.2911 V 160.47731 c 0,-2.00563 -1.6193,-3.62008 -3.6309,-3.62008 z m 19.4766,0 c -1.0058,0 -1.9121,0.40304 -2.5684,1.0574 -0.6563,0.65436 -1.0625,1.55987 -1.0625,2.56268 v 562.04794 h 7.291 V 160.47731 c 0,-2.00563 -1.6192,-3.62008 -3.6308,-3.62008 z m 19.1679,0 c -2.0115,0 -3.6308,1.61445 -3.6308,3.62008 v 562.04794 h 7.289 V 160.47731 c 0,-2.00563 -1.6192,-3.62008 -3.6308,-3.62008 z m 19.166,0 c -2.0116,0 -3.6308,1.61445 -3.6308,3.62008 v 562.04794 h 7.291 V 160.47731 c 0,-2.00563 -1.6194,-3.62008 -3.6309,-3.62008 z m 19.4786,0 c -2.0116,0 -3.6309,1.61445 -3.6309,3.62008 v 562.04794 h 7.2891 V 160.47731 c 0,-2.00563 -1.6193,-3.62008 -3.6309,-3.62008 z m 19.166,0 c -2.0116,0 -3.6309,1.61445 -3.6309,3.62008 v 562.04794 h 7.291 V 160.47731 c 0,-2.00563 -1.6192,-3.62008 -3.6308,-3.62008 z m 19.4765,0 c -2.0116,0 -3.6308,1.61445 -3.6308,3.62008 v 562.04794 h 7.291 V 160.47731 c 0,-2.00563 -1.6193,-3.62008 -3.6309,-3.62008 z m 19.168,0 c -2.0116,0 -3.6309,1.61445 -3.6309,3.62008 v 562.04794 h 7.2891 V 160.47731 c 0,-2.00563 -1.6192,-3.62008 -3.6308,-3.62008 z m 19.4766,0 c -2.0116,0 -3.6309,1.61445 -3.6309,3.62008 v 562.04794 h 7.291 V 160.47731 c 0,-2.00563 -1.6192,-3.62008 -3.6308,-3.62008 z m 19.1679,0 c -2.0116,0 -3.6308,1.61445 -3.6308,3.62008 v 562.04794 h 7.289 V 160.47731 c 0,-2.00563 -1.6192,-3.62008 -3.6308,-3.62008 z m 19.4766,0 c -2.0116,0 -3.6309,1.61445 -3.6309,3.62008 v 562.04794 h 7.2891 V 160.47731 c 0,-2.00563 -1.6193,-3.62008 -3.6309,-3.62008 z m 19.166,0 c -2.0116,0 -3.6308,1.61445 -3.6308,3.62008 v 562.04794 h 7.291 V 160.47731 c 0,-2.00563 -1.6193,-3.62008 -3.6309,-3.62008 z m 19.4785,0 c -2.0116,0 -3.6308,1.61445 -3.6308,3.62008 v 562.04794 h 7.289 V 160.47731 c 0,-2.00563 -1.6192,-3.62008 -3.6308,-3.62008 z m 19.166,0 c -1.0058,0 -1.9139,0.40304 -2.5703,1.0574 -0.6563,0.65436 -1.0605,1.55987 -1.0605,2.56268 v 562.04794 h 7.291 V 160.47731 c 0,-2.00563 -1.6193,-3.62008 -3.6309,-3.62008 z m 19.168,0 c -2.0115,0 -3.6308,1.61445 -3.6308,3.62008 v 562.04794 h 7.289 V 160.47731 c 0,-2.00563 -1.6192,-3.62008 -3.6308,-3.62008 z m 19.4766,0 c -2.0116,0 -3.6309,1.61445 -3.6309,3.62008 v 562.04794 h 7.2891 V 160.47731 c 0,-2.00563 -1.6193,-3.62008 -3.6309,-3.62008 z M 143.42129,1327.8779 v 55.0257 c 0,2.0056 1.61926,3.6201 3.63085,3.6201 h 0.0293 c 2.01159,0 3.63086,-1.6145 3.63086,-3.6201 v -55.0257 z m 19.47851,0 v 55.0257 c 0,2.0056 1.61927,3.6201 3.63086,3.6201 h 0.0273 c 2.01159,0 3.63086,-1.6145 3.63086,-3.6201 v -55.0257 z m 19.16602,0 v 55.0257 c 0,2.0056 1.61927,3.6201 3.63086,3.6201 h 0.0273 c 2.0116,0 3.63086,-1.6145 3.63086,-3.6201 v -55.0257 z m 19.47656,0 v 55.0257 c 0,2.0056 1.61927,3.6201 3.63086,3.6201 h 0.0293 c 2.01159,0 3.63086,-1.6145 3.63086,-3.6201 v -55.0257 z m 19.16797,0 v 55.0257 c 0,2.0056 1.61927,3.6201 3.63086,3.6201 h 0.0273 c 2.01159,0 3.63086,-1.6145 3.63086,-3.6201 v -55.0257 z m 19.47656,0 v 55.0257 c 0,2.0056 1.61926,3.6201 3.63086,3.6201 h 0.0273 c 2.01159,0 3.63086,-1.6145 3.63086,-3.6201 v -55.0257 z m 19.16797,0 v 55.0257 c 0,2.0056 1.61927,3.6201 3.63086,3.6201 h 0.0273 c 2.01159,0 3.63086,-1.6145 3.63086,-3.6201 v -55.0257 z m 19.47656,0 v 55.0257 c 0,2.0056 1.61927,3.6201 3.63086,3.6201 h 0.0273 c 2.01159,0 3.63086,-1.6145 3.63086,-3.6201 v -55.0257 z m 19.16602,0 v 55.0257 c 0,2.0056 1.61927,3.6201 3.63086,3.6201 h 0.0293 c 2.01159,0 3.63086,-1.6145 3.63086,-3.6201 v -55.0257 z m 19.47851,0 v 55.0257 c 0,2.0056 1.61927,3.6201 3.63086,3.6201 h 0.0274 c 2.01159,0 3.63085,-1.6145 3.63085,-3.6201 v -55.0257 z m 19.16602,0 v 55.0257 c 0,2.0056 1.61927,3.6201 3.63086,3.6201 h 0.0273 c 2.01159,0 3.63086,-1.6145 3.63086,-3.6201 v -55.0257 z m 19.47656,0 v 55.0257 c 0,2.0056 1.61927,3.6201 3.63086,3.6201 h 0.0293 c 2.01159,0 3.63086,-1.6145 3.63086,-3.6201 v -55.0257 z m 19.16797,0 v 55.0257 c 0,2.0056 1.61926,3.6201 3.63086,3.6201 h 0.0273 c 2.01159,0 3.63086,-1.6145 3.63086,-3.6201 v -55.0257 z m 19.47656,0 v 55.0257 c 0,2.0056 1.61927,3.6201 3.63086,3.6201 h 0.0274 c 2.01159,0 3.63085,-1.6145 3.63085,-3.6201 v -55.0257 z m 19.16797,0 v 55.0257 c 0,2.0056 1.61927,3.6201 3.63086,3.6201 h 0.0273 c 2.01159,0 3.63086,-1.6145 3.63086,-3.6201 v -55.0257 z m 19.47656,0 v 55.0257 c 0,2.0056 1.61927,3.6201 3.63086,3.6201 h 0.0274 c 2.01159,0 3.63086,-1.6145 3.63086,-3.6201 v -55.0257 z m 19.16602,0 v 55.0257 c 0,2.0056 1.61927,3.6201 3.63086,3.6201 h 0.0293 c 2.01159,0 3.63085,-1.6145 3.63085,-3.6201 v -55.0257 z m 19.47851,0 v 55.0257 c 0,2.0056 1.61927,3.6201 3.63086,3.6201 h 0.0274 c 2.01159,0 3.63086,-1.6145 3.63086,-3.6201 v -55.0257 z m 19.16602,0 v 55.0257 c 0,2.0056 1.61927,3.6201 3.63086,3.6201 h 0.0273 c 2.01159,0 3.63086,-1.6145 3.63086,-3.6201 v -55.0257 z m 19.47656,0 v 55.0257 c 0,1.0028 0.40619,1.9083 1.0625,2.5626 0.65631,0.6544 1.56256,1.0575 2.56836,1.0575 h 0.0293 c 2.01159,0 3.63086,-1.6145 3.63086,-3.6201 v -55.0257 z m 19.16797,0 v 55.0257 c 0,2.0056 1.61927,3.6201 3.63086,3.6201 h 0.0273 c 2.01159,0 3.63086,-1.6145 3.63086,-3.6201 v -55.0257 z m 19.47656,0 v 55.0257 c 0,2.0056 1.61927,3.6201 3.63086,3.6201 h 0.0274 c 2.01159,0 3.63086,-1.6145 3.63086,-3.6201 v -55.0257 z m 19.16797,0 v 55.0257 c 0,2.0056 1.61927,3.6201 3.63086,3.6201 h 0.0273 c 2.0116,0 3.63086,-1.6145 3.63086,-3.6201 v -55.0257 z m 19.47657,0 v 55.0257 c 0,2.0056 1.61926,3.6201 3.63085,3.6201 h 0.0273 c 2.01159,0 3.63086,-1.6145 3.63086,-3.6201 v -55.0257 z m 19.16601,0 v 55.0257 c 0,1.0028 0.40619,1.9083 1.0625,2.5626 0.65631,0.6544 1.56256,1.0575 2.56836,1.0575 h 0.0293 c 2.01159,0 3.63086,-1.6145 3.63086,-3.6201 v -55.0257 z m 19.47852,0 v 55.0257 c 0,1.0028 0.40423,1.9083 1.06054,2.5626 0.65631,0.6544 1.56452,1.0575 2.57032,1.0575 h 0.0273 c 2.01159,0 3.63086,-1.6145 3.63086,-3.6201 v -55.0257 z m 19.16601,0 v 55.0257 c 0,1.0028 0.40424,1.9083 1.06055,2.5626 0.65631,0.6544 1.56451,1.0575 2.57031,1.0575 h 0.0273 c 2.0116,0 3.63086,-1.6145 3.63086,-3.6201 v -55.0257 z m 19.47656,0 v 55.0257 c 0,1.0028 0.40619,1.9083 1.0625,2.5626 0.65631,0.6544 1.56256,1.0575 2.56836,1.0575 h 0.0293 c 2.01159,0 3.63086,-1.6145 3.63086,-3.6201 v -55.0257 z m 19.16797,0 v 55.0257 c 0,2.0056 1.61927,3.6201 3.63086,3.6201 h 0.0274 c 2.01159,0 3.63086,-1.6145 3.63086,-3.6201 v -55.0257 z m 19.47657,0 v 55.0257 c 0,1.0028 0.40423,1.9083 1.06054,2.5626 0.65631,0.6544 1.56452,1.0575 2.57032,1.0575 h 0.0273 c 2.0116,0 3.63086,-1.6145 3.63086,-3.6201 v -55.0257 z m 19.16796,0 v 55.0257 c 0,1.0028 0.40424,1.9083 1.06055,2.5626 0.65631,0.6544 1.56452,1.0575 2.57031,1.0575 h 0.0274 c 2.01159,0 3.63086,-1.6145 3.63086,-3.6201 v -55.0257 z m 19.47657,0 v 55.0257 c 0,1.0028 0.40424,1.9083 1.06054,2.5626 0.65631,0.6544 1.56452,1.0575 2.57032,1.0575 h 0.0273 c 2.01159,0 3.63086,-1.6145 3.63086,-3.6201 v -55.0257 z m 19.16601,0 v 55.0257 c 0,2.0056 1.61927,3.6201 3.63086,3.6201 h 0.0293 c 2.01159,0 3.63086,-1.6145 3.63086,-3.6201 v -55.0257 z m 19.16797,0 v 55.0257 c 0,2.0056 1.61927,3.6201 3.63086,3.6201 h 0.0273 c 2.01159,0 3.63086,-1.6145 3.63086,-3.6201 v -55.0257 z m 19.47656,0 v 55.0257 c 0,2.0056 1.61927,3.6201 3.63086,3.6201 h 0.0274 c 2.01159,0 3.63086,-1.6145 3.63086,-3.6201 v -55.0257 z m 19.16797,0 v 55.0257 c 0,2.0056 1.61927,3.6201 3.63086,3.6201 h 0.0273 c 2.01159,0 3.63085,-1.6145 3.63085,-3.6201 v -55.0257 z m 19.47656,0 v 55.0257 c 0,2.0056 1.61927,3.6201 3.63086,3.6201 h 0.0273 c 2.0116,0 3.63086,-1.6145 3.63086,-3.6201 v -55.0257 z m 19.16602,0 v 55.0257 c 0,2.0056 1.61927,3.6201 3.63086,3.6201 h 0.0293 c 2.01159,0 3.63086,-1.6145 3.63086,-3.6201 v -55.0257 z m 19.47852,0 v 55.0257 c 0,2.0056 1.61927,3.6201 3.63086,3.6201 h 0.0273 c 2.01159,0 3.63086,-1.6145 3.63086,-3.6201 v -55.0257 z m 19.16601,0 v 55.0257 c 0,2.0056 1.61927,3.6201 3.63086,3.6201 h 0.0273 c 2.01158,0 3.63085,-1.6145 3.63085,-3.6201 v -55.0257 z m 19.47656,0 v 55.0257 c 0,2.0056 1.61927,3.6201 3.63086,3.6201 h 0.0293 c 2.01159,0 3.63086,-1.6145 3.63086,-3.6201 v -55.0257 z m 19.16797,0 v 55.0257 c 0,1.0028 0.40424,1.9083 1.06055,2.5626 0.65631,0.6544 1.56452,1.0575 2.57031,1.0575 h 0.0274 c 2.01159,0 3.63086,-1.6145 3.63086,-3.6201 v -55.0257 z m 19.47657,0 v 55.0257 c 0,2.0056 1.61927,3.6201 3.63085,3.6201 h 0.0273 c 2.0116,0 3.63086,-1.6145 3.63086,-3.6201 v -55.0257 z m 19.16796,0 v 55.0257 c 0,2.0056 1.61927,3.6201 3.63086,3.6201 h 0.0274 c 2.01159,0 3.63081,-1.6145 3.63081,-3.6201 v -55.0257 z m 19.16597,0 v 55.0257 c 0,2.0056 1.6193,3.6201 3.6309,3.6201 h 0.027 c 2.0115,0 3.63079,-1.6145 3.63079,-3.6201 v -55.0257 z m 19.47659,0 v 55.0257 c 0,2.0056 1.6193,3.6201 3.6309,3.6201 h 0.029 c 2.0116,0 3.6308,-1.6145 3.6308,-3.6201 v -55.0257 z m 19.168,0 v 55.0257 c 0,2.0056 1.6192,3.6201 3.6308,3.6201 h 0.027 c 2.0116,0 3.6308,-1.6145 3.6308,-3.6201 v -55.0257 z m 19.4765,0 v 55.0257 c 0,2.0056 1.6193,3.6201 3.6309,3.6201 h 0.029 c 2.0116,0 3.6309,-1.6145 3.6309,-3.6201 v -55.0257 z m 19.168,0 v 55.0257 c 0,2.0056 1.6193,3.6201 3.6309,3.6201 h 0.027 c 2.0116,0 3.6309,-1.6145 3.6309,-3.6201 v -55.0257 z m 19.4766,0 v 55.0257 c 0,2.0056 1.6192,3.6201 3.6308,3.6201 h 0.027 c 2.0116,0 3.6308,-1.6145 3.6308,-3.6201 v -55.0257 z m 19.166,0 v 55.0257 c 0,2.0056 1.6193,3.6201 3.6309,3.6201 h 0.029 c 2.0115,0 3.6309,-1.6145 3.6309,-3.6201 v -55.0257 z m 19.4785,0 v 55.0257 c 0,2.0056 1.6193,3.6201 3.6309,3.6201 h 0.027 c 2.0116,0 3.6309,-1.6145 3.6309,-3.6201 v -55.0257 z m 19.166,0 v 55.0257 c 0,2.0056 1.6193,3.6201 3.6309,3.6201 h 0.029 c 2.0116,0 3.6308,-1.6145 3.6308,-3.6201 v -55.0257 z m 19.4766,0 v 55.0257 c 0,2.0056 1.6192,3.6201 3.6308,3.6201 h 0.029 c 2.0115,0 3.6309,-1.6145 3.6309,-3.6201 v -55.0257 z m 19.168,0 v 55.0257 c 0,2.0056 1.6192,3.6201 3.6308,3.6201 h 0.027 c 2.0116,0 3.6308,-1.6145 3.6308,-3.6201 v -55.0257 z m 19.4765,0 v 55.0257 c 0,2.0056 1.6193,3.6201 3.6309,3.6201 h 0.029 c 2.0116,0 3.6308,-1.6145 3.6308,-3.6201 v -55.0257 z m 19.168,0 v 55.0257 c 0,2.0056 1.6192,3.6201 3.6308,3.6201 h 0.027 c 2.0116,0 3.6308,-1.6145 3.6308,-3.6201 v -55.0257 z m 19.4765,0 v 55.0257 c 0,2.0056 1.6193,3.6201 3.6309,3.6201 h 0.027 c 2.0117,0 3.6309,-1.6145 3.6309,-3.6201 v -55.0257 z m 19.1661,0 v 55.0257 c 0,2.0056 1.6192,3.6201 3.6308,3.6201 h 0.029 c 2.0116,0 3.6309,-1.6145 3.6309,-3.6201 v -55.0257 z m 19.4785,0 v 55.0257 c 0,2.0056 1.6192,3.6201 3.6308,3.6201 h 0.027 c 2.0116,0 3.6308,-1.6145 3.6308,-3.6201 v -55.0257 z m 19.166,0 v 55.0257 c 0,2.0056 1.6193,3.6201 3.6309,3.6201 h 0.029 c 2.0116,0 3.6308,-1.6145 3.6308,-3.6201 v -55.0257 z m 19.4766,0 v 55.0257 c 0,2.0056 1.6192,3.6201 3.6308,3.6201 h 0.029 c 2.0116,0 3.6309,-1.6145 3.6309,-3.6201 v -55.0257 z m 19.1679,0 v 55.0257 c 0,2.0056 1.6193,3.6201 3.6309,3.6201 h 0.027 c 2.0116,0 3.6309,-1.6145 3.6309,-3.6201 v -55.0257 z m 19.4766,0 v 55.0257 c 0,2.0056 1.6192,3.6201 3.6308,3.6201 h 0.029 c 2.0116,0 3.6309,-1.6145 3.6309,-3.6201 v -55.0257 z m 19.168,0 v 55.0257 c 0,2.0056 1.6193,3.6201 3.6308,3.6201 h 0.027 c 2.0116,0 3.6308,-1.6145 3.6308,-3.6201 v -55.0257 z m 19.4765,0 v 55.0257 c 0,1.0028 0.4043,1.9083 1.0606,2.5626 0.6563,0.6544 1.5645,1.0575 2.5703,1.0575 h 0.027 c 2.0116,0 3.6309,-1.6145 3.6309,-3.6201 v -55.0257 z m 19.166,0 v 55.0257 c 0,2.0056 1.6193,3.6201 3.6309,3.6201 h 0.029 c 2.0116,0 3.6308,-1.6145 3.6308,-3.6201 v -55.0257 z m 19.4786,0 v 55.0257 c 0,2.0056 1.6192,3.6201 3.6308,3.6201 h 0.027 c 2.0115,0 3.6308,-1.6145 3.6308,-3.6201 v -55.0257 z m 19.166,0 v 55.0257 c 0,2.0056 1.6192,3.6201 3.6308,3.6201 h 0.029 c 2.0116,0 3.6309,-1.6145 3.6309,-3.6201 v -55.0257 z m 19.4765,0 v 55.0257 c 0,1.0028 0.4062,1.9083 1.0625,2.5626 0.6563,0.6544 1.5626,1.0575 2.5684,1.0575 h 0.029 c 2.0116,0 3.6308,-1.6145 3.6308,-3.6201 v -55.0257 z m 19.168,0 v 55.0257 c 0,1.0028 0.4042,1.9083 1.0605,2.5626 0.6564,0.6544 1.5646,1.0575 2.5704,1.0575 h 0.027 c 2.0116,0 3.6309,-1.6145 3.6309,-3.6201 v -55.0257 z m 19.4766,0 v 55.0257 c 0,2.0056 1.6192,3.6201 3.6308,3.6201 h 0.029 c 2.0116,0 3.6309,-1.6145 3.6309,-3.6201 v -55.0257 z m 19.1679,0 v 55.0257 c 0,1.0028 0.4043,1.9083 1.0606,2.5626 0.6563,0.6544 1.5645,1.0575 2.5703,1.0575 h 0.027 c 2.0116,0 3.6309,-1.6145 3.6309,-3.6201 v -55.0257 z m 19.4766,0 v 55.0257 c 0,2.0056 1.6192,3.6201 3.6308,3.6201 h 0.027 c 2.0116,0 3.6309,-1.6145 3.6309,-3.6201 v -55.0257 z m 19.166,0 v 55.0257 c 0,2.0056 1.6193,3.6201 3.6309,3.6201 h 0.029 c 2.0116,0 3.6308,-1.6145 3.6308,-3.6201 v -55.0257 z m 19.4785,0 v 55.0257 c 0,1.0028 0.4043,1.9083 1.0606,2.5626 0.6563,0.6544 1.5645,1.0575 2.5703,1.0575 h 0.027 c 2.0116,0 3.6309,-1.6145 3.6309,-3.6201 v -55.0257 z m 19.166,0 v 55.0257 c 0,1.0028 0.4043,1.9083 1.0606,2.5626 0.6563,0.6544 1.5645,1.0575 2.5703,1.0575 h 0.029 c 2.0116,0 3.6309,-1.6145 3.6309,-3.6201 v -55.0257 z m 19.4766,0 v 55.0257 c 0,1.0028 0.4062,1.9083 1.0625,2.5626 0.6563,0.6544 1.5626,1.0575 2.5684,1.0575 h 0.029 c 2.0116,0 3.6308,-1.6145 3.6308,-3.6201 v -55.0257 z m 19.168,0 v 55.0257 c 0,2.0056 1.6193,3.6201 3.6308,3.6201 h 0.027 c 2.0116,0 3.6308,-1.6145 3.6308,-3.6201 v -55.0257 z m 19.166,0 v 55.0257 c 0,2.0056 1.6192,3.6201 3.6308,3.6201 h 0.029 c 2.0115,0 3.6309,-1.6145 3.6309,-3.6201 v -55.0257 z m 19.4785,0 v 55.0257 c 0,2.0056 1.6193,3.6201 3.6309,3.6201 h 0.027 c 2.0116,0 3.6309,-1.6145 3.6309,-3.6201 v -55.0257 z m 19.166,0 v 55.0257 c 0,2.0056 1.6193,3.6201 3.6309,3.6201 h 0.029 c 2.0116,0 3.6308,-1.6145 3.6308,-3.6201 v -55.0257 z m 19.4766,0 v 55.0257 c 0,2.0056 1.6192,3.6201 3.6308,3.6201 h 0.029 c 2.0116,0 3.6309,-1.6145 3.6309,-3.6201 v -55.0257 z m 19.1679,0 v 55.0257 c 0,2.0056 1.6193,3.6201 3.6309,3.6201 h 0.027 c 2.0116,0 3.6308,-1.6145 3.6308,-3.6201 v -55.0257 z m 19.4766,0 v 55.0257 c 0,2.0056 1.6193,3.6201 3.6309,3.6201 h 0.029 c 2.0116,0 3.6308,-1.6145 3.6308,-3.6201 v -55.0257 z m 19.168,0 v 55.0257 c 0,2.0056 1.6192,3.6201 3.6308,3.6201 h 0.027 c 2.0116,0 3.6308,-1.6145 3.6308,-3.6201 v -55.0257 z m 19.4765,0 v 55.0257 c 0,2.0056 1.6193,3.6201 3.6309,3.6201 h 0.027 c 2.0116,0 3.6309,-1.6145 3.6309,-3.6201 v -55.0257 z m 19.1661,0 v 55.0257 c 0,1.0028 0.4062,1.9083 1.0625,2.5626 0.6563,0.6544 1.5625,1.0575 2.5683,1.0575 h 0.029 c 2.0116,0 3.6309,-1.6145 3.6309,-3.6201 v -55.0257 z m 19.4785,0 v 55.0257 c 0,2.0056 1.6192,3.6201 3.6308,3.6201 h 0.027 c 2.0116,0 3.6308,-1.6145 3.6308,-3.6201 v -55.0257 z m 19.166,0 v 55.0257 c 0,1.0028 0.4042,1.9083 1.0605,2.5626 0.6564,0.6544 1.5645,1.0575 2.5703,1.0575 h 0.029 c 2.0116,0 3.6309,-1.6145 3.6309,-3.6201 v -55.0257 z m 19.168,0 v 55.0257 c 0,2.0056 1.6193,3.6201 3.6308,3.6201 h 0.027 c 2.0116,0 3.6308,-1.6145 3.6308,-3.6201 v -55.0257 z m 19.4765,0 v 55.0257 c 0,2.0056 1.6193,3.6201 3.6309,3.6201 h 0.027 c 2.0116,0 3.6309,-1.6145 3.6309,-3.6201 v -55.0257 z"
         inkscape:label="Ribs" />
    </g>
  </g>
  <g
     id="g1885"
     inkscape:label="Keyboard"
     transform="translate(-39.666695,-153.24609)">
    <g
       id="g2050"
       inkscape:label="ZXC Row"
       style="fill:none;stroke:#f4f4f4;stroke-width:7;stroke-miterlimit:4;stroke-dasharray:none;stroke-opacity:1">
      <rect
         style="fill:none;stroke:#f4f4f4;stroke-width:7;stroke-miterlimit:4;stroke-dasharray:none;stroke-opacity:1"
         id="rect1780"
         width="83.105675"
         height="83.105675"
         x="989.11853"
         y="1108.676"
         ry="12.116609" />
      <rect
         style="fill:none;stroke:#f4f4f4;stroke-width:7;stroke-miterlimit:4;stroke-dasharray:none;stroke-opacity:1"
         id="rect1991"
         width="83.105675"
         height="83.105675"
         x="889.11853"
         y="1108.676"
         ry="12.116609" />
      <rect
         style="fill:none;stroke:#f4f4f4;stroke-width:7;stroke-miterlimit:4;stroke-dasharray:none;stroke-opacity:1"
         id="rect1993"
         width="83.105675"
         height="83.105675"
         x="789.11853"
         y="1108.676"
         ry="12.116609" />
      <rect
         style="fill:none;stroke:#f4f4f4;stroke-width:7;stroke-miterlimit:4;stroke-dasharray:none;stroke-opacity:1"
         id="rect1995"
         width="83.105675"
         height="83.105675"
         x="689.11853"
         y="1108.676"
         ry="12.116609" />
      <rect
         style="fill:none;stroke:#f4f4f4;stroke-width:7;stroke-miterlimit:4;stroke-dasharray:none;stroke-opacity:1"
         id="rect1997"
         width="83.105675"
         height="83.105675"
         x="589.11853"
         y="1108.676"
         ry="12.116609" />
      <rect
         style="fill:none;stroke:#f4f4f4;stroke-width:7;stroke-miterlimit:4;stroke-dasharray:none;stroke-opacity:1"
         id="rect1999"
         width="83.105675"
         height="83.105675"
         x="489.11853"
         y="1108.676"
         ry="12.116609" />
      <rect
         style="fill:none;stroke:#f4f4f4;stroke-width:7;stroke-miterlimit:4;stroke-dasharray:none;stroke-opacity:1"
         id="rect2001"
         width="83.105675"
         height="83.105675"
         x="389.11853"
         y="1108.676"
         ry="12.116609" />
      <rect
         style="fill:none;stroke:#f4f4f4;stroke-width:7;stroke-miterlimit:4;stroke-dasharray:none;stroke-opacity:1"
         id="rect2003"
         width="83.105675"
         height="83.105675"
         x="289.11853"
         y="1108.676"
         ry="12.116609" />
      <rect
         style="fill:none;stroke:#f4f4f4;stroke-width:7;stroke-miterlimit:4;stroke-dasharray:none;stroke-opacity:1"
         id="rect2024"
         width="83.105675"
         height="83.105675"
         x="1289.1185"
         y="1108.676"
         ry="12.116609" />
      <rect
         style="fill:none;stroke:#f4f4f4;stroke-width:7;stroke-miterlimit:4;stroke-dasharray:none;stroke-opacity:1"
         id="rect2026"
         width="83.105675"
         height="83.105675"
         x="1189.1185"
         y="1108.676"
         ry="12.116609" />
      <rect
         style="fill:none;stroke:#f4f4f4;stroke-width:7;stroke-miterlimit:4;stroke-dasharray:none;stroke-opacity:1"
         id="rect2028"
         width="83.105675"
         height="83.105675"
         x="1089.1185"
         y="1108.676"
         ry="12.116609" />
      <rect
         style="fill:none;stroke:#f4f4f4;stroke-width:7;stroke-miterlimit:4;stroke-dasharray:none;stroke-opacity:1"
         id="rect2030"
         width="83.105675"
         height="83.105675"
         x="1589.1185"
         y="1108.676"
         ry="12.116609" />
      <rect
         style="fill:none;stroke:#f4f4f4;stroke-width:7;stroke-miterlimit:4;stroke-dasharray:none;stroke-opacity:1"
         id="rect2032"
         width="83.105675"
         height="83.105675"
         x="1489.1185"
         y="1108.676"
         ry="12.116609" />
      <rect
         style="fill:none;stroke:#f4f4f4;stroke-width:7;stroke-miterlimit:4;stroke-dasharray:none;stroke-opacity:1"
         id="rect2034"
         width="83.105675"
         height="83.105675"
         x="1389.1185"
         y="1108.676"
         ry="12.116609" />
    </g>
    <g
       id="g2080"
       inkscape:label="ASD Row"
       transform="translate(-50.702083,-104)"
       style="fill:none;stroke:#f4f4f4;stroke-width:7;stroke-miterlimit:4;stroke-dasharray:none;stroke-opacity:1">
      <rect
         style="fill:none;stroke:#f4f4f4;stroke-width:7;stroke-miterlimit:4;stroke-dasharray:none;stroke-opacity:1"
         id="rect2052"
         width="83.105675"
         height="83.105675"
         x="989.11853"
         y="1108.676"
         ry="12.116609" />
      <rect
         style="fill:none;stroke:#f4f4f4;stroke-width:7;stroke-miterlimit:4;stroke-dasharray:none;stroke-opacity:1"
         id="rect2054"
         width="83.105675"
         height="83.105675"
         x="889.11853"
         y="1108.676"
         ry="12.116609" />
      <rect
         style="fill:none;stroke:#f4f4f4;stroke-width:7;stroke-miterlimit:4;stroke-dasharray:none;stroke-opacity:1"
         id="rect2056"
         width="83.105675"
         height="83.105675"
         x="789.11853"
         y="1108.676"
         ry="12.116609" />
      <rect
         style="fill:none;stroke:#f4f4f4;stroke-width:7;stroke-miterlimit:4;stroke-dasharray:none;stroke-opacity:1"
         id="rect2058"
         width="83.105675"
         height="83.105675"
         x="689.11853"
         y="1108.676"
         ry="12.116609" />
      <rect
         style="fill:none;stroke:#f4f4f4;stroke-width:7;stroke-miterlimit:4;stroke-dasharray:none;stroke-opacity:1"
         id="rect2060"
         width="83.105675"
         height="83.105675"
         x="589.11853"
         y="1108.676"
         ry="12.116609" />
      <rect
         style="fill:none;stroke:#f4f4f4;stroke-width:7;stroke-miterlimit:4;stroke-dasharray:none;stroke-opacity:1"
         id="rect2062"
         width="83.105675"
         height="83.105675"
         x="489.11853"
         y="1108.676"
         ry="12.116609" />
      <rect
         style="fill:none;stroke:#f4f4f4;stroke-width:7;stroke-miterlimit:4;stroke-dasharray:none;stroke-opacity:1"
         id="rect2064"
         width="83.105675"
         height="83.105675"
         x="389.11853"
         y="1108.676"
         ry="12.116609" />
      <rect
         style="fill:none;stroke:#f4f4f4;stroke-width:7;stroke-miterlimit:4;stroke-dasharray:none;stroke-opacity:1"
         id="rect2066"
         width="83.105675"
         height="83.105675"
         x="289.11853"
         y="1108.676"
         ry="12.116609" />
      <rect
         style="fill:none;stroke:#f4f4f4;stroke-width:7;stroke-miterlimit:4;stroke-dasharray:none;stroke-opacity:1"
         id="rect2068"
         width="83.105675"
         height="83.105675"
         x="1289.1185"
         y="1108.676"
         ry="12.116609" />
      <rect
         style="fill:none;stroke:#f4f4f4;stroke-width:7;stroke-miterlimit:4;stroke-dasharray:none;stroke-opacity:1"
         id="rect2070"
         width="83.105675"
         height="83.105675"
         x="1189.1185"
         y="1108.676"
         ry="12.116609" />
      <rect
         style="fill:none;stroke:#f4f4f4;stroke-width:7;stroke-miterlimit:4;stroke-dasharray:none;stroke-opacity:1"
         id="rect2072"
         width="83.105675"
         height="83.105675"
         x="1089.1185"
         y="1108.676"
         ry="12.116609" />
      <rect
         style="fill:none;stroke:#f4f4f4;stroke-width:7;stroke-miterlimit:4;stroke-dasharray:none;stroke-opacity:1"
         id="rect2074"
         width="83.105675"
         height="83.105675"
         x="1589.1185"
         y="1108.676"
         ry="12.116609" />
      <rect
         style="fill:none;stroke:#f4f4f4;stroke-width:7;stroke-miterlimit:4;stroke-dasharray:none;stroke-opacity:1"
         id="rect2076"
         width="83.105675"
         height="83.105675"
         x="1489.1185"
         y="1108.676"
         ry="12.116609" />
      <rect
         style="fill:none;stroke:#f4f4f4;stroke-width:7;stroke-miterlimit:4;stroke-dasharray:none;stroke-opacity:1"
         id="rect2078"
         width="83.105675"
         height="83.105675"
         x="1389.1185"
         y="1108.676"
         ry="12.116609" />
      <rect
         style="fill:none;stroke:#f4f4f4;stroke-width:7;stroke-miterlimit:4;stroke-dasharray:none;stroke-opacity:1"
         id="rect2084"
         width="83.105675"
         height="83.105675"
         x="1689.1185"
         y="1108.676"
         ry="12.116609" />
    </g>
    <g
       id="g2114"
       inkscape:label="QWE Row"
       transform="translate(24,-206)"
       style="fill:none;stroke:#f4f4f4;stroke-width:7;stroke-miterlimit:4;stroke-dasharray:none;stroke-opacity:1">
      <rect
         style="fill:none;stroke:#f4f4f4;stroke-width:7;stroke-miterlimit:4;stroke-dasharray:none;stroke-opacity:1"
         id="rect2086"
         width="83.105675"
         height="83.105675"
         x="989.11853"
         y="1108.676"
         ry="12.116609" />
      <rect
         style="fill:none;stroke:#f4f4f4;stroke-width:7;stroke-miterlimit:4;stroke-dasharray:none;stroke-opacity:1"
         id="rect2088"
         width="83.105675"
         height="83.105675"
         x="889.11853"
         y="1108.676"
         ry="12.116609" />
      <rect
         style="fill:none;stroke:#f4f4f4;stroke-width:7;stroke-miterlimit:4;stroke-dasharray:none;stroke-opacity:1"
         id="rect2090"
         width="83.105675"
         height="83.105675"
         x="789.11853"
         y="1108.676"
         ry="12.116609" />
      <rect
         style="fill:none;stroke:#f4f4f4;stroke-width:7;stroke-miterlimit:4;stroke-dasharray:none;stroke-opacity:1"
         id="rect2092"
         width="83.105675"
         height="83.105675"
         x="689.11853"
         y="1108.676"
         ry="12.116609" />
      <rect
         style="fill:none;stroke:#f4f4f4;stroke-width:7;stroke-miterlimit:4;stroke-dasharray:none;stroke-opacity:1"
         id="rect2094"
         width="83.105675"
         height="83.105675"
         x="589.11853"
         y="1108.676"
         ry="12.116609" />
      <rect
         style="fill:none;stroke:#f4f4f4;stroke-width:7;stroke-miterlimit:4;stroke-dasharray:none;stroke-opacity:1"
         id="rect2096"
         width="83.105675"
         height="83.105675"
         x="489.11853"
         y="1108.676"
         ry="12.116609" />
      <rect
         style="fill:none;stroke:#f4f4f4;stroke-width:7;stroke-miterlimit:4;stroke-dasharray:none;stroke-opacity:1"
         id="rect2098"
         width="83.105675"
         height="83.105675"
         x="389.11853"
         y="1108.676"
         ry="12.116609" />
      <rect
         style="fill:none;stroke:#f4f4f4;stroke-width:7;stroke-miterlimit:4;stroke-dasharray:none;stroke-opacity:1"
         id="rect2100"
         width="83.105675"
         height="83.105675"
         x="289.11853"
         y="1108.676"
         ry="12.116609" />
      <rect
         style="fill:none;stroke:#f4f4f4;stroke-width:7;stroke-miterlimit:4;stroke-dasharray:none;stroke-opacity:1"
         id="rect2102"
         width="83.105675"
         height="83.105675"
         x="1289.1185"
         y="1108.676"
         ry="12.116609" />
      <rect
         style="fill:none;stroke:#f4f4f4;stroke-width:7;stroke-miterlimit:4;stroke-dasharray:none;stroke-opacity:1"
         id="rect2104"
         width="83.105675"
         height="83.105675"
         x="1189.1185"
         y="1108.676"
         ry="12.116609" />
      <rect
         style="fill:none;stroke:#f4f4f4;stroke-width:7;stroke-miterlimit:4;stroke-dasharray:none;stroke-opacity:1"
         id="rect2106"
         width="83.105675"
         height="83.105675"
         x="1089.1185"
         y="1108.676"
         ry="12.116609" />
      <rect
         style="fill:none;stroke:#f4f4f4;stroke-width:7;stroke-miterlimit:4;stroke-dasharray:none;stroke-opacity:1"
         id="rect2108"
         width="83.105675"
         height="83.105675"
         x="1589.1185"
         y="1108.676"
         ry="12.116609" />
      <rect
         style="fill:none;stroke:#f4f4f4;stroke-width:7;stroke-miterlimit:4;stroke-dasharray:none;stroke-opacity:1"
         id="rect2110"
         width="83.105675"
         height="83.105675"
         x="1489.1185"
         y="1108.676"
         ry="12.116609" />
      <rect
         style="fill:none;stroke:#f4f4f4;stroke-width:7;stroke-miterlimit:4;stroke-dasharray:none;stroke-opacity:1"
         id="rect2112"
         width="83.105675"
         height="83.105675"
         x="1389.1185"
         y="1108.676"
         ry="12.116609" />
      <rect
         style="fill:none;stroke:#f4f4f4;stroke-width:7;stroke-miterlimit:4;stroke-dasharray:none;stroke-opacity:1"
         id="rect2196"
         width="83.105675"
         height="83.105675"
         x="189.11853"
         y="1108.676"
         ry="12.116609" />
    </g>
    <g
       id="g2228"
       inkscape:label="Number Row"
       transform="translate(74,-310)"
       style="fill:none;stroke:#f4f4f4;stroke-width:7;stroke-miterlimit:4;stroke-dasharray:none;stroke-opacity:1">
      <rect
         style="fill:none;stroke:#f4f4f4;stroke-width:7;stroke-miterlimit:4;stroke-dasharray:none;stroke-opacity:1"
         id="rect2198"
         width="83.105675"
         height="83.105675"
         x="989.11853"
         y="1108.676"
         ry="12.116609" />
      <rect
         style="fill:none;stroke:#f4f4f4;stroke-width:7;stroke-miterlimit:4;stroke-dasharray:none;stroke-opacity:1"
         id="rect2200"
         width="83.105675"
         height="83.105675"
         x="889.11853"
         y="1108.676"
         ry="12.116609" />
      <rect
         style="fill:none;stroke:#f4f4f4;stroke-width:7;stroke-miterlimit:4;stroke-dasharray:none;stroke-opacity:1"
         id="rect2202"
         width="83.105675"
         height="83.105675"
         x="789.11853"
         y="1108.676"
         ry="12.116609" />
      <rect
         style="fill:none;stroke:#f4f4f4;stroke-width:7;stroke-miterlimit:4;stroke-dasharray:none;stroke-opacity:1"
         id="rect2204"
         width="83.105675"
         height="83.105675"
         x="689.11853"
         y="1108.676"
         ry="12.116609" />
      <rect
         style="fill:none;stroke:#f4f4f4;stroke-width:7;stroke-miterlimit:4;stroke-dasharray:none;stroke-opacity:1"
         id="rect2206"
         width="83.105675"
         height="83.105675"
         x="589.11853"
         y="1108.676"
         ry="12.116609" />
      <rect
         style="fill:none;stroke:#f4f4f4;stroke-width:7;stroke-miterlimit:4;stroke-dasharray:none;stroke-opacity:1"
         id="rect2208"
         width="83.105675"
         height="83.105675"
         x="489.11853"
         y="1108.676"
         ry="12.116609" />
      <rect
         style="fill:none;stroke:#f4f4f4;stroke-width:7;stroke-miterlimit:4;stroke-dasharray:none;stroke-opacity:1"
         id="rect2210"
         width="83.105675"
         height="83.105675"
         x="389.11853"
         y="1108.676"
         ry="12.116609" />
      <rect
         style="fill:none;stroke:#f4f4f4;stroke-width:7;stroke-miterlimit:4;stroke-dasharray:none;stroke-opacity:1"
         id="rect2212"
         width="83.105675"
         height="83.105675"
         x="289.11853"
         y="1108.676"
         ry="12.116609" />
      <rect
         style="fill:none;stroke:#f4f4f4;stroke-width:7;stroke-miterlimit:4;stroke-dasharray:none;stroke-opacity:1"
         id="rect2214"
         width="83.105675"
         height="83.105675"
         x="1289.1185"
         y="1108.676"
         ry="12.116609" />
      <rect
         style="fill:none;stroke:#f4f4f4;stroke-width:7;stroke-miterlimit:4;stroke-dasharray:none;stroke-opacity:1"
         id="rect2216"
         width="83.105675"
         height="83.105675"
         x="1189.1185"
         y="1108.676"
         ry="12.116609" />
      <rect
         style="fill:none;stroke:#f4f4f4;stroke-width:7;stroke-miterlimit:4;stroke-dasharray:none;stroke-opacity:1"
         id="rect2218"
         width="83.105675"
         height="83.105675"
         x="1089.1185"
         y="1108.676"
         ry="12.116609" />
      <rect
         style="fill:none;stroke:#f4f4f4;stroke-width:7;stroke-miterlimit:4;stroke-dasharray:none;stroke-opacity:1"
         id="rect2220"
         width="83.105675"
         height="83.105675"
         x="1589.1185"
         y="1108.676"
         ry="12.116609" />
      <rect
         style="fill:none;stroke:#f4f4f4;stroke-width:7;stroke-miterlimit:4;stroke-dasharray:none;stroke-opacity:1"
         id="rect2222"
         width="83.105675"
         height="83.105675"
         x="1489.1185"
         y="1108.676"
         ry="12.116609" />
      <rect
         style="fill:none;stroke:#f4f4f4;stroke-width:7;stroke-miterlimit:4;stroke-dasharray:none;stroke-opacity:1"
         id="rect2224"
         width="83.105675"
         height="83.105675"
         x="1389.1185"
         y="1108.676"
         ry="12.116609" />
      <rect
         style="fill:none;stroke:#f4f4f4;stroke-width:7;stroke-miterlimit:4;stroke-dasharray:none;stroke-opacity:1"
         id="rect2226"
         width="83.105675"
         height="83.105675"
         x="189.11853"
         y="1108.676"
         ry="12.116609" />
    </g>
  </g>
</svg>
