<?xml version="1.0" encoding="UTF-8" standalone="no"?>
<!-- Created with Inkscape (http://www.inkscape.org/) -->

<svg
   version="1.1"
   id="svg916"
   width="174.30438"
   height="379.69666"
   viewBox="0 0 174.30438 379.69666"
   sodipodi:docname="cdi.svg"
   inkscape:version="1.1.2 (0a00cf5339, 2022-02-04)"
   xmlns:inkscape="http://www.inkscape.org/namespaces/inkscape"
   xmlns:sodipodi="http://sodipodi.sourceforge.net/DTD/sodipodi-0.dtd"
   xmlns="http://www.w3.org/2000/svg"
   xmlns:svg="http://www.w3.org/2000/svg">
  <defs
     id="defs920">
    <inkscape:path-effect
       effect="powermask"
       id="path-effect12385"
       is_visible="true"
       lpeversion="1"
       uri="#mask-powermask-path-effect12385"
       invert="false"
       hide_mask="false"
       background="true"
       background_color="#ffffffff" />
    <inkscape:path-effect
       effect="powermask"
       id="path-effect11702"
       is_visible="true"
       lpeversion="1"
       uri="#mask-powermask-path-effect11702"
       invert="false"
       hide_mask="false"
       background="true"
       background_color="#ffffffff" />
    <filter
       id="mask-powermask-path-effect11692_inverse"
       inkscape:label="filtermask-powermask-path-effect11692"
       style="color-interpolation-filters:sRGB"
       height="100"
       width="100"
       x="-50"
       y="-50">
      <feColorMatrix
         id="mask-powermask-path-effect11692_primitive1"
         values="1"
         type="saturate"
         result="fbSourceGraphic" />
      <feColorMatrix
         id="mask-powermask-path-effect11692_primitive2"
         values="-1 0 0 0 1 0 -1 0 0 1 0 0 -1 0 1 0 0 0 1 0 "
         in="fbSourceGraphic" />
    </filter>
    <mask
       maskUnits="userSpaceOnUse"
       id="mask-powermask-path-effect11702">
      <path
         id="mask-powermask-path-effect11702_box"
         style="fill:#ffffff;fill-opacity:1"
         d="M 38.300781,36.580078 H 178.56445 V 176.84375 H 38.300781 Z" />
      <path
         id="path11700"
         style="opacity:0.98;fill:#000000;fill-opacity:1;stroke:#00000d;stroke-width:2;stroke-linecap:round;stroke-miterlimit:4;stroke-dasharray:none;stroke-opacity:1"
         inkscape:label="Left Button"
         d="m 56.844848,53.129838 7.357196,6.75593 c 2.041085,1.878077 1.077485,3.881175 0.08329,5.265738 C 56.013546,76.46253 47.1311,87.210053 47.670198,106.65157 c 0.05456,3.86404 -1.234229,4.7232 -3.368634,4.85655 l -8.346712,0.11106 c -3.723083,0.0432 -3.403735,-1.85896 -3.382289,-3.47696 0.20482,-19.329897 5.980232,-37.488236 20.207253,-53.268667 2.835881,-3.169341 2.738501,-2.892066 4.065032,-1.743715 z m 102.515852,0 -7.3572,6.75593 c -2.04108,1.878077 -1.07748,3.881175 -0.0833,5.265738 8.27179,11.311024 17.15424,22.058547 16.61514,41.500064 -0.0546,3.86404 1.23423,4.7232 3.36863,4.85655 l 8.34672,0.11106 c 3.72308,0.0432 3.40373,-1.85896 3.38229,-3.47696 -0.20482,-19.329897 -5.98024,-37.488236 -20.20726,-53.268667 -2.83588,-3.169341 -2.7385,-2.892066 -4.06503,-1.743715 z" />
    </mask>
    <filter
       id="mask-powermask-path-effect11702_inverse"
       inkscape:label="filtermask-powermask-path-effect11702"
       style="color-interpolation-filters:sRGB"
       height="100"
       width="100"
       x="-50"
       y="-50">
      <feColorMatrix
         id="mask-powermask-path-effect11702_primitive1"
         values="1"
         type="saturate"
         result="fbSourceGraphic" />
      <feColorMatrix
         id="mask-powermask-path-effect11702_primitive2"
         values="-1 0 0 0 1 0 -1 0 0 1 0 0 -1 0 1 0 0 0 1 0 "
         in="fbSourceGraphic" />
    </filter>
    <style
       type="text/css"
       id="style2488" />
    <mask
       maskUnits="userSpaceOnUse"
       id="mask-powermask-path-effect12385">
      <path
         id="mask-powermask-path-effect12385_box"
         style="fill:#ffffff;fill-opacity:1"
         d="m -0.943601,1.3741561 h 6.472222 v 2.986114 h -6.472222 z" />
      <path
         id="path12383"
         style="fill:#000001;fill-opacity:1;stroke:#f500b8;stroke-width:0.0609162;stroke-miterlimit:4;stroke-dasharray:none;stroke-opacity:0"
         d="m 3.9959801,2.9950902 c -9.746e-4,0.1135514 0.059815,0.2078423 0.1764084,0.2078423 0.079084,0 0.1409259,-0.043594 0.159174,-0.1206494 l 0.067929,-3.6e-6 c -0.030413,0.099358 -0.093272,0.175402 -0.2271028,0.175402 -0.168298,0 -0.2412987,-0.1196345 -0.2412987,-0.2747563 0,-0.1530945 0.091249,-0.2788109 0.2412987,-0.2788109 0.1439693,0 0.2321735,0.1023976 0.2311574,0.2909759 z m 0.3426804,-0.050693 c 0,-0.1024025 -0.056775,-0.1855348 -0.166272,-0.1855348 -0.1074646,0 -0.1642434,0.086177 -0.176412,0.1855348 z M 3.7049799,3.2434905 h -0.06793 L 3.4363103,2.7183004 h 0.065899 L 3.6725396,3.16846 3.8428698,2.7183004 h 0.0659 z m -0.3882395,0 V 2.7183053 h 0.060831 v 0.5251852 z m -0.00305,-0.639749 v -0.090235 h 0.066914 v 0.090235 z m -0.06271,0.6417787 c -0.014194,0.00303 -0.040554,0.012171 -0.069957,0.012171 -0.059815,0 -0.093276,-0.026362 -0.093276,-0.104425 l 4.9e-6,-0.3842568 h -0.074017 v -0.050697 h 0.074017 V 2.5723173 h 0.060826 v 0.1459953 h 0.09835 v 0.050697 h -0.09835 v 0.3599172 c 0,0.051709 0.00203,0.074017 0.05272,0.074017 0.016224,0 0.033461,-0.00305 0.049681,-0.0071 v 0.049681 z M 2.9154745,2.8835697 c -0.021295,-0.078066 -0.07503,-0.1247052 -0.1561379,-0.1247052 -0.1246966,0 -0.1764059,0.1135514 -0.1764059,0.223047 4.9e-6,0.110513 0.050693,0.2210247 0.1764059,0.2210247 0.090233,0 0.147009,-0.053737 0.1612013,-0.1409247 h 0.064894 C 2.9641368,3.1786026 2.8911373,3.257684 2.7593378,3.257684 c -0.1672794,0 -0.2412902,-0.1206494 -0.2412902,-0.2757725 0,-0.1459953 0.08415,-0.2777948 0.2412902,-0.2777948 0.1206506,0 0.1997284,0.057787 0.2179801,0.179453 z m -0.6538596,0.053731 c 0.022303,-0.00203 0.059815,-0.00811 0.080091,-0.017232 0.02028,-0.00913 0.022306,-0.0365 0.022306,-0.054753 0,-0.061842 -0.0365,-0.1064522 -0.1307858,-0.1064522 -0.084151,0 -0.141942,0.027373 -0.1530945,0.1186221 l -0.061847,-4.9e-6 c 0.00913,-0.1236879 0.1013865,-0.173365 0.2159527,-0.173365 0.1064572,0 0.1906068,0.041567 0.1906068,0.1632273 v 0.2859089 c 0,0.047655 0.012171,0.058807 0.063873,0.040556 v 0.04765 c -0.00913,0.00303 -0.030417,0.010149 -0.047654,0.010149 -0.010136,0 -0.018248,-9.747e-4 -0.027375,-0.00305 -0.040551,-0.00608 -0.04765,-0.041567 -0.048665,-0.078067 -0.050688,0.056776 -0.1196333,0.087193 -0.1956725,0.087193 -0.092265,0 -0.1753984,-0.049677 -0.1753984,-0.1510636 0,-0.088209 0.060831,-0.1419408 0.1835075,-0.158164 l 0.084154,-0.011148 z m 0.1023976,0.030413 c -0.051708,0.021295 -0.1044286,0.02535 -0.1571491,0.029404 -0.09226,0.00709 -0.1480239,0.040556 -0.1480239,0.111529 0,0.063869 0.055759,0.094286 0.1135502,0.094286 0.096319,0 0.1916228,-0.046637 0.1916228,-0.1530933 z M 1.7873452,3.2434905 H 1.7265105 V 2.7183053 h 0.060835 v 0.098346 h 0.00203 C 1.8228325,2.7325013 1.8725095,2.704116 1.9607151,2.704116 l 3.7e-6,0.065898 C 1.8238478,2.766984 1.7873478,2.86836 1.7873478,2.985971 V 3.2434905 Z M 1.2379051,2.9950902 c -0.00102,0.1135514 0.059815,0.2078423 0.176409,0.2078423 0.079083,0 0.1409291,-0.043594 0.159177,-0.1206494 l 0.067929,-3.6e-6 c -0.030417,0.099358 -0.093276,0.175402 -0.227106,0.175402 -0.168299,0 -0.241299,-0.1196345 -0.241299,-0.2747563 0,-0.1530945 0.091248,-0.2788109 0.241299,-0.2788109 0.143969,0 0.232173,0.1023976 0.231161,0.2909759 h -0.407571 z m 0.3426851,-0.050693 c 0,-0.1024025 -0.056776,-0.1855348 -0.1662761,-0.1855348 -0.1074689,0 -0.1642439,0.086177 -0.176413,0.1855348 z m -0.4368151,0.301123 c -0.014193,0.00303 -0.040555,0.012171 -0.069957,0.012171 -0.059819,0 -0.0932756,-0.026362 -0.0932756,-0.104425 V 2.7690107 H 0.9065311 V 2.7183137 H 0.9805429 V 2.5723173 h 0.0608345 v 0.1459965 h 0.098343 v 0.050697 H 1.0413774 V 3.128928 c 0,0.051708 0.00202,0.074016 0.052717,0.074016 0.016224,0 0.033457,-0.00303 0.049681,-0.0071 V 3.245526 Z M 0.49700317,3.2434856 H 0.43617239 V 2.7183004 h 0.0608308 v 0.073 c 0.0486653,-0.051705 0.0963188,-0.087189 0.16931493,-0.087189 0.063874,0 0.12267703,0.020277 0.16018897,0.075024 0.0253505,0.037512 0.0263622,0.077055 0.0263622,0.1206506 v 0.3437 H 0.79203862 V 2.9007968 c 0,-0.094286 -0.0385275,-0.1419372 -0.13585794,-0.1419372 -0.0750236,0 -0.12673209,0.048666 -0.1459961,0.1024026 -0.012165,0.033453 -0.013181,0.062858 -0.013181,0.099358 V 3.2434856 Z M 0.29743214,2.5134954 V 3.2434856 H 0.22848709 V 2.5134954 Z" />
    </mask>
    <filter
       id="mask-powermask-path-effect12385_inverse"
       inkscape:label="filtermask-powermask-path-effect12385"
       style="color-interpolation-filters:sRGB"
       height="100"
       width="100"
       x="-50"
       y="-50">
      <feColorMatrix
         id="mask-powermask-path-effect12385_primitive1"
         values="1"
         type="saturate"
         result="fbSourceGraphic" />
      <feColorMatrix
         id="mask-powermask-path-effect12385_primitive2"
         values="-1 0 0 0 1 0 -1 0 0 1 0 0 -1 0 1 0 0 0 1 0 "
         in="fbSourceGraphic" />
    </filter>
  </defs>
  <sodipodi:namedview
     id="namedview918"
     pagecolor="#000000"
     bordercolor="#111111"
     borderopacity="1"
     inkscape:pageshadow="0"
     inkscape:pageopacity="0"
     inkscape:pagecheckerboard="1"
     showgrid="false"
     showguides="true"
     inkscape:guide-bbox="true"
     inkscape:zoom="12.137007"
     inkscape:cx="98.788775"
     inkscape:cy="331.25961"
     inkscape:window-width="1366"
     inkscape:window-height="703"
     inkscape:window-x="0"
     inkscape:window-y="0"
     inkscape:window-maximized="1"
     inkscape:current-layer="g922"
     fit-margin-top="0"
     fit-margin-left="0"
     fit-margin-right="0"
     fit-margin-bottom="0">
    <sodipodi:guide
       position="87.359315,157.40183"
       orientation="1,0"
       id="guide1278" />
    <sodipodi:guide
       position="34.78894,313.77543"
       orientation="0,-1"
       id="guide5952" />
    <sodipodi:guide
       position="120.45122,292.09987"
       orientation="0,-1"
       id="guide8274" />
    <sodipodi:guide
       position="87.359315,292.09987"
       orientation="0.70710678,-0.70710678"
       id="guide8549" />
    <sodipodi:guide
       position="87.359315,292.09987"
       orientation="-0.70710678,-0.70710678"
       id="guide8551" />
    <sodipodi:guide
       position="12.19411,274.39887"
       orientation="0,-1"
       id="guide13878" />
  </sodipodi:namedview>
  <g
     inkscape:groupmode="layer"
     inkscape:label="Philips CD-I"
     id="g922"
     transform="translate(-21.238055,-19.602333)">
    <text
       xml:space="preserve"
       style="font-size:2px;line-height:1.25;font-family:TrasksHand;-inkscape-font-specification:TrasksHand;fill:#f4f4f4;fill-opacity:0.5"
       x="113.14414"
       y="363.18768"
       id="text17695"
       inkscape:label="Signature"><tspan
         sodipodi:role="line"
         id="tspan17693"
         x="113.14414"
         y="363.18768">John Loreth 2022</tspan></text>
    <g
       id="g13976"
       inkscape:label="Body">
      <path
         id="path9098"
         style="display:inline;opacity:0.98;fill:none;fill-opacity:0.5;stroke:#f4f4f4;stroke-width:2;stroke-linecap:round;stroke-miterlimit:4;stroke-dasharray:none;stroke-opacity:1"
         d="m 108.60927,398.29898 c 29.43948,0 53.13985,-23.70037 53.13985,-53.13985 V 186.99911 c -0.26465,-8.62183 4.08437,-14.49667 9.74744,-21.2882 m -62.88729,232.58807 c -29.439479,0 -53.139852,-23.70037 -53.139852,-53.13985 V 186.99911 c 0.264652,-8.62183 -4.084362,-14.49667 -9.747435,-21.2882"
         inkscape:label="Lower Body Outline" />
      <path
         id="path11163"
         style="display:inline;opacity:0.98;fill:none;fill-opacity:1;stroke:#f4f4f4;stroke-width:1.5;stroke-linecap:round;stroke-miterlimit:4;stroke-dasharray:none;stroke-opacity:1"
         d="M 55.126276,350.06862 C 52.872433,306.40969 47.753058,261.68542 42.449109,218.90204 L 37.369085,178.81093 C 36.16246,166.02074 19.673121,140.22192 22.195473,106.60834"
         inkscape:label="Lower Body Outer Bevel Left"
         sodipodi:nodetypes="cccc" />
      <path
         id="path13473"
         style="display:inline;opacity:0.98;fill:none;fill-opacity:1;stroke:#f4f4f4;stroke-width:1.5;stroke-linecap:round;stroke-miterlimit:4;stroke-dasharray:none;stroke-opacity:1"
         d="m 161.85869,350.06862 c 2.25384,-43.65893 7.37322,-88.3832 12.67717,-131.16658 l 5.08003,-40.09111 c 1.20661,-12.79019 17.69595,-38.58901 15.1736,-72.20259"
         inkscape:label="Lower Body Outer Bevel Right"
         sodipodi:nodetypes="cccc" />
      <path
         id="path1028"
         style="display:inline;opacity:0.98;fill:none;fill-opacity:0.5;stroke:#f4f4f4;stroke-width:2;stroke-linecap:round;stroke-miterlimit:4;stroke-dasharray:none;stroke-opacity:1"
         d="M 194.54243,106.71257 A 86.110237,86.110237 0 0 1 108.43219,192.82281 86.110237,86.110237 0 0 1 22.321953,106.71257 86.110237,86.110237 0 0 1 108.43219,20.602333 86.110237,86.110237 0 0 1 194.54243,106.71257 Z"
         inkscape:label="Upper Body Outline" />
      <path
         id="path8306"
         style="display:inline;opacity:0.98;fill:none;fill-opacity:0.5;stroke:#f4f4f4;stroke-width:1;stroke-linecap:round;stroke-miterlimit:4;stroke-dasharray:none;stroke-opacity:1"
         sodipodi:type="inkscape:offset"
         inkscape:radius="-17.479012"
         inkscape:original="M 108.43164 20.601562 A 86.110237 86.110237 0 0 0 22.322266 106.71289 A 86.110237 86.110237 0 0 0 108.43164 192.82227 A 86.110237 86.110237 0 0 0 194.54297 106.71289 A 86.110237 86.110237 0 0 0 108.43164 20.601562 z "
         d="m 108.43164,38.080078 c -17.967642,1.8e-4 -35.824398,7.398329 -48.529296,20.103516 -12.704898,12.705186 -20.10179,30.561654 -20.101563,48.529296 1.79e-4,17.96738 7.396704,35.82444 20.101563,48.5293 12.704859,12.70486 30.561912,20.10138 48.529296,20.10156 17.96764,2.3e-4 35.82411,-7.39666 48.5293,-20.10156 12.70518,-12.7049 20.10333,-30.56166 20.10351,-48.5293 2.3e-4,-17.967902 -7.39633,-35.826024 -20.10156,-48.531249 C 144.25766,45.476415 126.39954,38.07985 108.43164,38.080078 Z"
         inkscape:label="Upper Body Indent"
         mask="url(#mask-powermask-path-effect11702)"
         inkscape:path-effect="#path-effect11702" />
      <g
         id="Layer_x0020_1"
         transform="matrix(9.0288,0,0,9.0288,87.921184,330.86638)"
         style="display:inline;fill:#f4f4f4;fill-opacity:1;stroke:none;stroke-width:0.0553784;stroke-miterlimit:4;stroke-dasharray:none;stroke-opacity:1"
         inkscape:label="CDI Logo">
  
  <g
   id="_59007160"
   style="fill:#f4f4f4;fill-opacity:1;stroke:none;stroke-width:0.0553784;stroke-miterlimit:4;stroke-dasharray:none;stroke-opacity:1">
   <path
   d="m 4.41053,3.36027 c 0.065205,0 0.118091,-0.052882 0.118091,-0.118106 V 2.492262 C 4.528621,2.427038 4.475735,2.37416 4.41053,2.37416 l -4.23604,-3.9e-6 c -0.0652008,0 -0.118091,0.052886 -0.118091,0.118106 v 0.749902 c 0,0.06522 0.0528858,0.118106 0.118091,0.118106 z"
   style="display:inline;fill:#f4f4f4;fill-opacity:1;stroke:none;stroke-width:0.0553784;stroke-miterlimit:4;stroke-dasharray:none;stroke-opacity:1"
   id="_120344872"
   mask="url(#mask-powermask-path-effect12385)"
   inkscape:path-effect="#path-effect12385"
   inkscape:original-d="m 4.41053,3.36027 c 0.065205,0 0.118091,-0.052882 0.118091,-0.118106 V 2.492262 C 4.528621,2.427038 4.475735,2.37416 4.41053,2.37416 l -4.23604,-3.9e-6 c -0.0652008,0 -0.118091,0.052886 -0.118091,0.118106 v 0.749902 c 0,0.06522 0.0528858,0.118106 0.118091,0.118106 z" />

   
   
   
   
   
   
   
   
   
   
   
   <path
   d="m 4.09139,0.324598 c -3.386e-4,0.0127874 -7.52e-4,0.0232913 -0.00118,0.0270551 -0.00328,0.0288189 0,0.0424409 -0.083094,0.0424409 -0.083091,0 -0.079811,-0.013622 -0.083091,-0.0424409 -0.00106,-0.009382 -0.00205,-0.0606929 -0.00195,-0.0847008 9.84e-5,-0.0240079 8.819e-4,-0.0753189 0.00195,-0.0846969 0.00328,-0.0288228 0,-0.0424449 0.083091,-0.0424449 0.083094,0 0.079815,0.013626 0.083094,0.0424449 4.449e-4,0.003925 8.425e-4,0.0152323 0.00116,0.0288031 l 0.113665,-3.94e-6 c -7.322e-4,-0.0257598 -0.00195,-0.0472835 -0.00322,-0.0585 -0.00655,-0.0576378 0.016153,-0.112827 -0.194567,-0.112827 -0.210717,-3.93e-6 -0.188012,0.055189 -0.194567,0.112827 -0.00213,0.0187598 -0.00411,0.0663819 -0.0039,0.114398 2.047e-4,0.0480157 0.00177,0.0956378 0.0039,0.114402 0.00656,0.0576339 -0.01615,0.112827 0.194567,0.112827 0.210724,-3.93e-6 0.188016,-0.0551929 0.194567,-0.112827 0.00125,-0.0109646 0.0023,-0.0317717 0.003,-0.056752 z"
   style="fill:#f4f4f4;fill-opacity:1;stroke:none;stroke-width:0.0553784;stroke-miterlimit:4;stroke-dasharray:none;stroke-opacity:1"
   id="_59759256" />

   <polygon
   points="2.5777,0.48528 2.68861,0.48528 2.79864,0.161283 2.79864,0.48528 2.90954,0.48528 2.90954,0.0503858 2.74361,0.051252 2.63272,0.375244 2.52181,0.051252 2.35589,0.0503858 2.35589,0.48528 2.4668,0.48528 2.4668,0.161283 "
   style="fill:#f4f4f4;fill-opacity:1;stroke:none;stroke-width:0.0553784;stroke-miterlimit:4;stroke-dasharray:none;stroke-opacity:1"
   id="_59358120" />

   <polygon
   points="4.22993,0.161283 4.22993,0.0503858 4.54869,0.0503858 4.54869,0.161283 4.44476,0.161283 4.44476,0.48528 4.33386,0.48528 4.33386,0.161283 "
   style="fill:#f4f4f4;fill-opacity:1;stroke:none;stroke-width:0.0553784;stroke-miterlimit:4;stroke-dasharray:none;stroke-opacity:1"
   id="_58923920" />

   <polygon
   points="3.5022,0.0499567 3.66754,0.0499567 3.79504,0.48528 3.68414,0.48528 3.65794,0.395323 3.51242,0.395323 3.53304,0.324598 3.63698,0.324598 3.58546,0.147311 3.4859,0.48528 3.375,0.48528 "
   style="fill:#f4f4f4;fill-opacity:1;stroke:none;stroke-width:0.0553784;stroke-miterlimit:4;stroke-dasharray:none;stroke-opacity:1"
   id="_59357072" />

   <path
   d="m 2.0888,0.139811 c 0.083095,0 0.079815,0.013626 0.083095,0.0424449 0.00107,0.009378 0.00185,0.060689 0.00195,0.0846969 1.024e-4,0.0240079 -8.858e-4,0.0753189 -0.00195,0.0847008 -0.00328,0.0288189 0,0.0424409 -0.083095,0.0424409 -0.083087,0 -0.079815,-0.013622 -0.083091,-0.0424409 -0.00106,-0.009382 -0.00205,-0.0606929 -0.00195,-0.0847008 1.023e-4,-0.0240079 8.819e-4,-0.0753189 0.00195,-0.0846969 0.00328,-0.0288228 0,-0.0424449 0.083091,-0.0424449 l 1.299e-4,-0.100087 c -0.210717,0 -0.188012,0.0551929 -0.194567,0.112831 -0.00213,0.0187598 -0.00411,0.0663819 -0.0039,0.114398 2.047e-4,0.0480157 0.00177,0.0956378 0.0039,0.114402 0.00656,0.0576339 -0.01615,0.112827 0.194567,0.112827 0.21072,-3.94e-6 0.188016,-0.0551929 0.194567,-0.112827 0.00213,-0.0187638 0.0037,-0.0663858 0.0039,-0.114402 2.047e-4,-0.0480157 -0.00177,-0.0956339 -0.0039,-0.114398 -0.00655,-0.0576378 0.016154,-0.112827 -0.194567,-0.112827 z"
   style="fill:#f4f4f4;fill-opacity:1;stroke:none;stroke-width:0.0553784;stroke-miterlimit:4;stroke-dasharray:none;stroke-opacity:1"
   id="_119970072" />

   <path
   d="m 1.71434,0.324598 c -3.386e-4,0.0127874 -7.52e-4,0.0232913 -0.00118,0.0270551 -0.00328,0.0288189 0,0.0424409 -0.083091,0.0424409 -0.083087,0 -0.079811,-0.013622 -0.083091,-0.0424409 -0.00106,-0.009382 -0.00205,-0.0606929 -0.00195,-0.0847008 9.84e-5,-0.0240079 8.858e-4,-0.0753189 0.00195,-0.0846969 0.00328,-0.0288228 0,-0.0424449 0.083091,-0.0424449 0.083091,0 0.079815,0.013626 0.083091,0.0424449 4.488e-4,0.003925 8.425e-4,0.0152323 0.00116,0.0288031 l 0.113669,-3.94e-6 c -7.323e-4,-0.0257598 -0.00195,-0.0472835 -0.00322,-0.0585 -0.00655,-0.0576378 0.01615,-0.112827 -0.194567,-0.112827 -0.210717,-3.93e-6 -0.188012,0.055189 -0.194567,0.112827 -0.00213,0.0187598 -0.00411,0.0663819 -0.0039,0.114398 2.048e-4,0.0480157 0.00177,0.0956378 0.0039,0.114402 0.00656,0.0576339 -0.01615,0.112827 0.194567,0.112827 0.21072,-3.93e-6 0.188012,-0.0551929 0.194567,-0.112827 0.00124,-0.0109646 0.0023,-0.0317717 0.003,-0.056752 l -0.113421,-3.93e-6 z"
   style="fill:#f4f4f4;fill-opacity:1;stroke:none;stroke-width:0.0553784;stroke-miterlimit:4;stroke-dasharray:none;stroke-opacity:1"
   id="_60339936" />

   <path
   d="m 3.17957,0.385815 -0.067291,-3.543e-5 v -0.0992008 l 0.067276,-4.0552e-4 c 0.083095,0 0.080516,-0.013622 0.083791,-0.0424409 0.00107,-0.009386 8.465e-4,-0.001673 7.441e-4,-0.0256811 -1.024e-4,-0.0240079 3.228e-4,-0.0157638 -7.441e-4,-0.0251417 -0.00328,-0.0288189 -7.008e-4,-0.0424488 -0.083791,-0.0424488 l -0.067311,1.7717e-4 1.142e-4,0.334209 h -0.111122 v -0.434461 l 0.178335,-3.94e-6 c 0.210724,0 0.187626,0.0553386 0.195378,0.112827 9.212e-4,0.006811 9.212e-4,0.038248 9.212e-4,0.0551969 0,0.0136181 0,0.0450551 -9.212e-4,0.0550236 -0.00532,0.0577598 0.015343,0.11239 -0.195378,0.112386 z"
   style="fill:#f4f4f4;fill-opacity:1;stroke:none;stroke-width:0.0553784;stroke-miterlimit:4;stroke-dasharray:none;stroke-opacity:1"
   id="_59963744" />

   <path
   d="M 1.02277,2.12283 0.328573,2.1220229 c -0.100445,0 -0.181862,-0.081429 -0.181862,-0.181862 V 0.88349091 c 0,-0.100449 0.0814173,-0.181866 0.181862,-0.181866 l 0.434472,-4.9212e-4 c 0.0521772,0 0.0944843,-0.0422953 0.0944843,-0.0944803 l 0.001272,-0.422484 c 0,-0.0218661 0.0177283,-0.0395984 0.0395984,-0.0395984 h 0.2547006 c 0.02187,0 0.039614,0.0177323 0.039614,0.0396024 l 0.00261,1.89920001 c 0,0.021866 -0.017732,0.039614 -0.039594,0.039614 l -0.132961,-1.575e-4 -0.00323,0.094366 0.173736,-5.12e-5 c 0.052173,0 0.09448,-0.042291 0.09448,-0.09448 V 0.14381383 c 0,-0.0521693 -0.042307,-0.0944646 -0.094484,-0.0944646 l -0.33416099,-3.94e-6 c -0.0521732,0 -0.0944843,0.0422992 -0.0944843,0.0944724 l 4.7638e-4,0.423543 c 0,0.0218661 -0.0177323,0.0396142 -0.0396142,0.0396142 l -0.396913,-7.2835e-4 c -0.153122,0 -0.277256,0.124118 -0.277256,0.277244 l 3.93e-6,1.05665996 c 0,0.153106 0.12413001,0.27724 0.27725201,0.27724 l 0.69096497,-2.007e-4 0.00323,-0.094366 z"
   style="fill:#f4f4f4;fill-opacity:1;stroke:none;stroke-width:0.0553784;stroke-miterlimit:4;stroke-dasharray:none;stroke-opacity:1"
   id="_59947616" />

   <path
   d="M 0.76461,1.73389 V 1.050276 c 0,-0.0572835 -0.0464449,-0.103728 -0.103748,-0.103728 -0.0572835,0 -0.103728,0.0464449 -0.103728,0.103732 v 0.737921 c 0,0.057291 0.0464409,0.103748 0.103728,0.103748 0.0573031,0 0.103748,-0.046457 0.103748,-0.103744 V 1.73389 l 0.0942992,0.00323 v 0.051079 c 0,0.109366 -0.0886693,0.198035 -0.198047,0.198035 -0.109358,0 -0.198028,-0.088669 -0.198028,-0.198031 V 1.050276 c 0,-0.10936202 0.0886693,-0.19802802 0.198028,-0.19802802 0.109378,-3.94e-6 0.198047,0.0886693 0.198047,0.19803102 V 1.737122 L 0.76461,1.7338897 Z"
   style="fill:#f4f4f4;fill-opacity:1;stroke:none;stroke-width:0.0553784;stroke-miterlimit:4;stroke-dasharray:none;stroke-opacity:1"
   id="_59263952" />

   <path
   d="m 1.68258,2.12283 -0.129921,7.9e-6 c -0.021886,0 -0.039614,-0.017748 -0.039614,-0.039614 l 0.00159,-1.34114003 c 0,-0.0218819 0.017728,-0.0396102 0.039606,-0.0396102 H 1.80895 c 0.021878,0 0.03961,0.0177283 0.03961,0.0396102 L 1.85117,2.0832139 c 0,0.021882 -0.017732,0.039614 -0.039602,0.039614 l -0.128996,7.8e-6 v 0.09398 l 0.166543,1.733e-4 c 0.052189,0 0.09448,-0.042291 0.09448,-0.094468 V 0.70173078 c 0,-0.0521693 -0.042295,-0.0944803 -0.09448,-0.0944803 H 1.514938 c -0.052173,0 -0.094469,0.042311 -0.094469,0.0944803 L 1.4202812,2.1221608 c 0,0.052185 0.041972,0.09448 0.094146,0.09448 l 0.168154,1.771e-4 v -0.09398 z"
   style="fill:#f4f4f4;fill-opacity:1;stroke:none;stroke-width:0.0553784;stroke-miterlimit:4;stroke-dasharray:none;stroke-opacity:1"
   id="_59378368" />

   <path
   d="M 2.88252,0.966354 2.602709,0.96597211 c -0.086098,0 -0.155921,0.0698189 -0.155921,0.15592099 0,0.08611 0.069819,0.155917 0.155917,0.155917 l 0.38337,0.00104 c 0.100433,0 0.181862,0.081437 0.181862,0.18187 l -0.00128,0.477268 c 0,0.100449 -0.081433,0.181866 -0.181866,0.181866 l -0.761028,0.00138 c -0.021866,0 -0.03961,-0.017744 -0.03961,-0.03961 v -0.184843 c 0,-0.021882 0.017744,-0.03961 0.03961,-0.03961 l 0.518665,-0.00169 c 0.08611,0 0.155929,-0.069803 0.155929,-0.155917 4e-6,-0.086114 -0.069819,-0.155917 -0.155933,-0.155917 l -0.3755,-0.00148 c -0.100433,0 -0.181866,-0.081429 -0.181866,-0.181862 V 0.88349575 c 0,-0.100449 0.081433,-0.181866 0.181866,-0.181866 l 0.705449,-0.003299 c 0.021866,0 0.039594,0.017748 0.039594,0.0396142 l 1.58e-5,0.189059 c 0,0.0218661 -0.017732,0.0396142 -0.039614,0.0396142 l -0.189846,-2.6378e-4 -0.00323,0.0929528 0.232024,7.08e-5 c 0.052169,0 0.09448,-0.041972 0.09448,-0.0941417 l 3.504e-4,-0.264839 c 0,-0.052189 -0.042295,-0.0944803 -0.094484,-0.0944803 l -0.744736,3.3464e-4 c -0.15311,0 -0.27724,0.124118 -0.27724,0.277244 V 1.3603025 c 0,0.153106 0.12413,0.27724 0.27724,0.27724 l 0.375504,-6.418e-4 c 0.034622,0 0.062677,0.028055 0.062677,0.062665 0,0.034622 -0.028055,0.062681 -0.062681,0.062681 l -0.559012,-1.141e-4 c -0.052177,0 -0.094469,0.042295 -0.094469,0.094484 v 0.264303 c 0,0.052185 0.042291,0.09448 0.094465,0.09448 l 0.801386,-1.693e-4 c 0.15311,0 0.277236,-0.124114 0.277236,-0.277236 l 0.00129,-0.477276 c 0,-0.153106 -0.12413,-0.27724 -0.27724,-0.27724 l -0.383366,0.00109 c -0.03461,0 -0.062669,-0.028059 -0.062669,-0.062681 0,-0.034614 0.028055,-0.062669 0.062665,-0.062669 l 0.276583,8.26e-5 0.00323,-0.0929528 z"
   style="fill:#f4f4f4;fill-opacity:1;stroke:none;stroke-width:0.0553784;stroke-miterlimit:4;stroke-dasharray:none;stroke-opacity:1"
   id="_59501248" />

   <path
   d="m 4.29271,1.22856 h 0.120181 c 0.021878,0 0.039606,-0.017728 0.039606,-0.03961 l -5e-4,-0.305449 c 0,-0.100449 -0.081417,-0.181866 -0.181866,-0.181866 H 3.668899 c -0.100445,0 -0.181882,0.0814173 -0.181882,0.181866 v 1.05666 c 0,0.100437 0.081433,0.181866 0.181878,0.181866 h 0.601236 c 0.100449,0 0.181866,-0.081429 0.181866,-0.181862 l 5e-4,-0.290437 c 0,-0.021878 -0.017728,-0.039606 -0.03961,-0.039606 H 4.186072 c -0.021866,0 -0.039598,0.017728 -0.039598,0.03961 l 0.00128,0.138476 c 0,0.109366 -0.068874,0.198035 -0.178236,0.198035 -0.109374,0 -0.178228,-0.088669 -0.178228,-0.198031 V 1.050283 c 0,-0.109362 0.068854,-0.198028 0.178228,-0.198028 0.109366,-3.94e-6 0.178236,0.0886693 0.178236,0.198031 l -0.00127,0.138661 c 0,0.021882 0.017728,0.03961 0.039594,0.03961 h 0.106638 l -0.00323,0.09522 H 4.146793 c -0.052173,0 -0.094484,-0.042303 -0.094484,-0.094476 l 0.00115,-0.17902 c 0,-0.0572835 -0.02665,-0.103728 -0.083937,-0.103728 -0.057299,0 -0.083945,0.0464449 -0.083945,0.103732 v 0.737921 c 0,0.057291 0.026646,0.103748 0.083945,0.103748 0.057291,0 0.083933,-0.046457 0.083933,-0.103744 L 4.052315,1.609375 c 0,-0.052173 0.042303,-0.09448 0.09448,-0.09448 l 0.306272,-3.9e-6 c 0.052189,0 0.094484,0.042311 0.094484,0.094488 l -1.653e-4,0.33078 c 0,0.153106 -0.124122,0.27724 -0.277244,0.27724 h -0.601232 c -0.153122,0 -0.277256,-0.12413 -0.277256,-0.277236 V 0.88349296 c 0,-0.153126 0.12413,-0.277244 0.277252,-0.277244 h 0.601236 c 0.153126,0 0.27724,0.124118 0.27724,0.277244 L 4.5475411,1.229292 c 0,0.052177 -0.042295,0.094484 -0.094484,0.094484 l -0.163579,-4e-6 0.00323,-0.09522 z"
   style="fill:#f4f4f4;fill-opacity:1;stroke:none;stroke-width:0.0553784;stroke-miterlimit:4;stroke-dasharray:none;stroke-opacity:1"
   id="_59390680" />

  </g>

 </g>
    </g>
    <g
       id="g13954"
       inkscape:label="Buttons">
      <path
         style="display:inline;opacity:0.98;fill:none;fill-opacity:0.5;stroke:#f4f4f4;stroke-width:2;stroke-linecap:round;stroke-miterlimit:4;stroke-dasharray:none;stroke-opacity:1"
         d="m 159.3607,53.129838 -7.3572,6.75593 c -2.04108,1.878077 -1.07748,3.881175 -0.0833,5.265738 8.27179,11.311024 17.15424,22.058547 16.61514,41.500064 -0.0546,3.86404 1.23423,4.7232 3.36863,4.85655 l 8.34672,0.11106 c 3.72308,0.0432 3.40373,-1.85896 3.38229,-3.47696 -0.20482,-19.329897 -5.98024,-37.488236 -20.20726,-53.268667 -2.83588,-3.169341 -2.7385,-2.892066 -4.06503,-1.743715 z"
         id="path7957"
         sodipodi:nodetypes="ccccccccc"
         inkscape:label="Right Button" />
      <path
         style="display:inline;opacity:0.98;fill:none;fill-opacity:0.5;stroke:#f4f4f4;stroke-width:2;stroke-linecap:round;stroke-miterlimit:4;stroke-dasharray:none;stroke-opacity:1"
         d="m 56.844848,53.129838 7.357196,6.75593 c 2.041085,1.878077 1.077485,3.881175 0.08329,5.265738 C 56.013546,76.46253 47.1311,87.210053 47.670198,106.65157 c 0.05456,3.86404 -1.234229,4.7232 -3.368634,4.85655 l -8.346712,0.11106 c -3.723083,0.0432 -3.403735,-1.85896 -3.382289,-3.47696 0.20482,-19.329897 5.980232,-37.488236 20.207253,-53.268667 2.835881,-3.169341 2.738501,-2.892066 4.065032,-1.743715 z"
         id="path6508"
         sodipodi:nodetypes="ccccccccc"
         inkscape:label="Left Button" />
      <g
         id="g11241"
         inkscape:label="D-Pad"
         style="display:inline">
        <circle
           style="display:inline;opacity:0.98;fill:none;fill-opacity:0.5;stroke:#f4f4f4;stroke-width:2;stroke-linecap:round;stroke-miterlimit:4;stroke-dasharray:none;stroke-opacity:1"
           id="path4142"
           cx="108.46871"
           cy="107.15056"
           r="40"
           inkscape:label="D-Pad Outer Circle" />
        <circle
           style="opacity:0.98;fill:none;fill-opacity:0.5;stroke:#f4f4f4;stroke-width:2;stroke-linecap:round;stroke-miterlimit:4;stroke-dasharray:none;stroke-opacity:1"
           id="path8163"
           cx="108.55296"
           cy="106.94628"
           r="14"
           inkscape:label="D-Pad Inner Circle" />
        <path
           style="opacity:0.98;fill:none;fill-opacity:0.5;stroke:#f4f4f4;stroke-width:1.5;stroke-linecap:round;stroke-miterlimit:4;stroke-dasharray:none;stroke-opacity:1"
           d="M 74.974727,107.19912 H 85.647149"
           id="path8361"
           inkscape:label="Left" />
        <path
           style="opacity:0.98;fill:none;fill-opacity:0.5;stroke:#f4f4f4;stroke-width:1.5;stroke-linecap:round;stroke-miterlimit:4;stroke-dasharray:none;stroke-opacity:1"
           d="m 130.97473,107.19912 h 10.67242"
           id="path8443"
           inkscape:label="Right" />
        <path
           style="opacity:0.98;fill:none;fill-opacity:0.5;stroke:#f4f4f4;stroke-width:1.5;stroke-linecap:round;stroke-miterlimit:4;stroke-dasharray:none;stroke-opacity:1"
           d="M 108.59737,73.86291 V 84.53533"
           id="path8445"
           inkscape:label="Up" />
        <path
           style="opacity:0.98;fill:none;fill-opacity:0.5;stroke:#f4f4f4;stroke-width:1.5;stroke-linecap:round;stroke-miterlimit:4;stroke-dasharray:none;stroke-opacity:1"
           d="m 108.59737,129.86291 v 10.67242"
           id="path8527"
           inkscape:label="Down" />
        <circle
           style="opacity:0.98;fill:#f4f4f4;fill-opacity:1;stroke:none;stroke-width:2;stroke-linecap:round;stroke-miterlimit:4;stroke-dasharray:none;stroke-opacity:1"
           id="path8575"
           cx="84.831299"
           cy="130.85304"
           r="1"
           inkscape:label="SW" />
        <circle
           style="opacity:0.98;fill:#f4f4f4;fill-opacity:1;stroke:none;stroke-width:2;stroke-linecap:round;stroke-miterlimit:4;stroke-dasharray:none;stroke-opacity:1"
           id="circle8933"
           cx="85.283165"
           cy="83.894394"
           r="1"
           inkscape:label="NW" />
        <circle
           style="opacity:0.98;fill:#f4f4f4;fill-opacity:1;stroke:none;stroke-width:2;stroke-linecap:round;stroke-miterlimit:4;stroke-dasharray:none;stroke-opacity:1"
           id="circle8935"
           cx="132.16556"
           cy="83.657188"
           r="1"
           inkscape:label="NE" />
        <circle
           style="opacity:0.98;fill:#f4f4f4;fill-opacity:1;stroke:none;stroke-width:2;stroke-linecap:round;stroke-miterlimit:4;stroke-dasharray:none;stroke-opacity:1"
           id="circle8937"
           cx="132.04872"
           cy="130.63548"
           r="1"
           inkscape:label="SW" />
      </g>
    </g>
  </g>
</svg>
