<?xml version="1.0" encoding="UTF-8" standalone="no"?>
<!-- Created with Inkscape (http://www.inkscape.org/) -->

<svg
   version="1.1"
   id="svg870"
   width="418.93921"
   height="351.24887"
   viewBox="0 0 921.66626 772.74752"
   sodipodi:docname="coco.svg"
   inkscape:version="1.1.2 (0a00cf5339, 2022-02-04)"
   xmlns:inkscape="http://www.inkscape.org/namespaces/inkscape"
   xmlns:sodipodi="http://sodipodi.sourceforge.net/DTD/sodipodi-0.dtd"
   xmlns="http://www.w3.org/2000/svg"
   xmlns:svg="http://www.w3.org/2000/svg">
  <defs
     id="defs874" />
  <sodipodi:namedview
     id="namedview872"
     pagecolor="#000000"
     bordercolor="#111111"
     borderopacity="1"
     inkscape:pageshadow="0"
     inkscape:pageopacity="0"
     inkscape:pagecheckerboard="1"
     showgrid="false"
     showguides="true"
     inkscape:guide-bbox="true"
     inkscape:zoom="1.2213333"
     inkscape:cx="235.80787"
     inkscape:cy="181.35918"
     inkscape:window-width="1366"
     inkscape:window-height="703"
     inkscape:window-x="0"
     inkscape:window-y="0"
     inkscape:window-maximized="1"
     inkscape:current-layer="g876"
     fit-margin-top="0"
     fit-margin-left="0"
     fit-margin-right="0"
     fit-margin-bottom="0">
    <sodipodi:guide
       position="612.27449,-69.909773"
       orientation="0,-1"
       id="guide960" />
    <sodipodi:guide
       position="1354.938,-1170.7756"
       orientation="1,0"
       id="guide1368" />
    <sodipodi:guide
       position="391.6874,610.72002"
       orientation="0,-1"
       id="guide2262" />
    <sodipodi:guide
       position="474.09733,31.148503"
       orientation="1,0"
       id="guide6425" />
    <sodipodi:guide
       position="1980.074,-705.06201"
       orientation="1,0"
       id="guide9206" />
    <sodipodi:guide
       position="648.83154,-705.06201"
       orientation="1,0"
       id="guide9208" />
    <sodipodi:guide
       position="1623.1393,-815.60481"
       orientation="1,0"
       id="guide9577" />
    <sodipodi:guide
       position="581.87441,-667.85347"
       orientation="0,-1"
       id="guide9787" />
  </sodipodi:namedview>
  <g
     inkscape:groupmode="layer"
     inkscape:label="TRS80 Coco"
     id="g876"
     transform="translate(-284.25419,-127.98341)">
    <text
       xml:space="preserve"
       style="font-size:5.86667px;line-height:1.25;font-family:TrasksHand;-inkscape-font-specification:TrasksHand;fill:#f4f4f4;fill-opacity:0.5;stroke-width:2.2"
       x="782.02704"
       y="832.67548"
       id="text20851"
       inkscape:label="Signature"><tspan
         sodipodi:role="line"
         id="tspan20849"
         style="fill:#f4f4f4;fill-opacity:0.5;stroke-width:2.2"
         x="782.02704"
         y="832.67548">John Loreth 2022</tspan><tspan
         sodipodi:role="line"
         style="fill:#f4f4f4;fill-opacity:0.5;stroke-width:2.2"
         x="782.02704"
         y="840.00879"
         id="tspan20853" /></text>
    <g
       id="g8803"
       inkscape:label="Body">
      <path
         id="path3061"
         style="display:inline;fill:none;fill-opacity:0.5;stroke:#f4f4f4;stroke-width:4.4;stroke-linecap:butt;stroke-miterlimit:4;stroke-dasharray:none;stroke-opacity:1"
         inkscape:label="Body Outline"
         d="m 745.08664,896.95136 h 443.81056 c 7.337,0 13.2437,-5.90673 13.2437,-13.24378 V 475.61523 l -20,-330.60851 c -0.443,-7.32366 -5.9067,-13.24378 -13.2437,-13.24378 l -423.80986,0.0602 m 7e-4,765.12825 H 301.2775 c -7.33705,0 -13.24378,-5.90673 -13.24378,-13.24378 V 475.61526 l 20,-330.60851 c 0.44304,-7.32366 5.90673,-13.24378 13.24378,-13.24378 l 423.80984,0.0602" />
      <rect
         style="display:inline;fill:none;fill-opacity:0.5;stroke:#f4f4f4;stroke-width:4.4;stroke-linecap:round;stroke-miterlimit:4;stroke-dasharray:none;stroke-opacity:1"
         id="rect1392"
         width="851.54968"
         height="290.16693"
         x="319.61795"
         y="567.28149"
         ry="34.448296"
         rx="34.448299"
         inkscape:label="Keyboard Indent" />
      <rect
         style="display:inline;fill:none;fill-opacity:0.5;stroke:#f4f4f4;stroke-width:2.2;stroke-linecap:round;stroke-miterlimit:4;stroke-dasharray:none;stroke-opacity:1"
         id="rect1598"
         width="709.88477"
         height="242.85301"
         x="390.80905"
         y="591.71759"
         ry="15.310495"
         rx="15.310495"
         inkscape:label="Keyboard Outline" />
      <rect
         style="display:inline;fill:none;fill-opacity:0.5;stroke:#f4f4f4;stroke-width:2.2;stroke-linecap:butt;stroke-miterlimit:4;stroke-dasharray:none;stroke-opacity:1"
         id="rect3371"
         width="913.06531"
         height="420.50354"
         x="289.13321"
         y="475.90756"
         ry="16.812542"
         rx="16.812542"
         inkscape:label="Top Body Ridge" />
      <g
         id="g6073"
         inkscape:label="Vents">
        <g
           id="g7676"
           inkscape:label="Left Side"
           style="fill:none;stroke:#f4f4f4;stroke-width:2.2;stroke-miterlimit:4;stroke-dasharray:none;stroke-opacity:1">
          <path
             id="rect3577"
             style="fill:none;fill-opacity:0.5;stroke:#f4f4f4;stroke-width:2.2;stroke-miterlimit:4;stroke-dasharray:none;stroke-opacity:1"
             d="m 289.90573,429.03131 h 47.86069 c 1.84587,0 3.33188,1.48602 3.33188,3.33188 0,1.84587 -1.48601,3.33188 -3.33188,3.33188 h -47.86069"
             sodipodi:nodetypes="csssc" />
          <path
             id="path4736"
             style="fill:none;fill-opacity:0.5;stroke:#f4f4f4;stroke-width:2.2;stroke-miterlimit:4;stroke-dasharray:none;stroke-opacity:1"
             d="M 291.16531,415.13766 H 337.026 c 1.84587,0 5.33188,1.48602 5.33188,3.33188 0,1.84587 -1.48601,3.33188 -3.33188,3.33188 h -47.86069"
             sodipodi:nodetypes="csssc" />
          <path
             id="path6075"
             style="fill:none;fill-opacity:0.5;stroke:#f4f4f4;stroke-width:2.2;stroke-miterlimit:4;stroke-dasharray:none;stroke-opacity:1"
             d="m 290.83325,401.03131 h 47.86069 c 1.84587,0 3.33188,1.48602 3.33188,3.33188 0,1.84587 -1.48601,3.33188 -3.33188,3.33188 h -47.86069"
             sodipodi:nodetypes="csssc" />
          <path
             id="path6077"
             style="fill:none;fill-opacity:0.5;stroke:#f4f4f4;stroke-width:2.2;stroke-miterlimit:4;stroke-dasharray:none;stroke-opacity:1"
             d="m 291.58189,387.13766 h 45.86069 c 1.84587,0 5.33188,1.48602 5.33188,3.33188 0,1.84587 -1.48601,3.33188 -3.33188,3.33188 h -47.86069"
             sodipodi:nodetypes="csssc" />
          <path
             id="path6507"
             style="fill:none;fill-opacity:0.5;stroke:#f4f4f4;stroke-width:2.2;stroke-miterlimit:4;stroke-dasharray:none;stroke-opacity:1"
             d="m 292.82422,373.03131 h 47.86069 c 1.84587,0 3.33188,1.48602 3.33188,3.33188 0,1.84587 -1.48601,3.33188 -3.33188,3.33188 h -47.86069"
             sodipodi:nodetypes="csssc" />
          <path
             id="path6509"
             style="fill:none;fill-opacity:0.5;stroke:#f4f4f4;stroke-width:2.2;stroke-miterlimit:4;stroke-dasharray:none;stroke-opacity:1"
             d="m 292.39667,359.13766 h 45.86069 c 1.84587,0 5.33188,1.48602 5.33188,3.33188 0,1.84587 -1.48601,3.33188 -3.33188,3.33188 h -47.86069"
             sodipodi:nodetypes="csssc" />
          <path
             id="path6511"
             style="fill:none;fill-opacity:0.5;stroke:#f4f4f4;stroke-width:2.2;stroke-miterlimit:4;stroke-dasharray:none;stroke-opacity:1"
             d="m 294.17632,345.03131 h 47.86069 c 1.84587,0 3.33188,1.48602 3.33188,3.33188 0,1.84587 -1.48601,3.33188 -3.33188,3.33188 h -47.86069"
             sodipodi:nodetypes="csssc" />
          <path
             id="path6513"
             style="fill:none;fill-opacity:0.5;stroke:#f4f4f4;stroke-width:2.2;stroke-miterlimit:4;stroke-dasharray:none;stroke-opacity:1"
             d="m 294.31248,331.13766 h 45.86069 c 1.84587,0 5.33188,1.48602 5.33188,3.33188 0,1.84587 -1.48601,3.33188 -3.33188,3.33188 h -47.86069"
             sodipodi:nodetypes="csssc" />
          <path
             id="path6515"
             style="fill:none;fill-opacity:0.5;stroke:#f4f4f4;stroke-width:2.2;stroke-miterlimit:4;stroke-dasharray:none;stroke-opacity:1"
             d="m 295.14303,317.03131 h 47.86069 c 1.84587,0 3.33188,1.48602 3.33188,3.33188 0,1.84587 -1.48601,3.33188 -3.33188,3.33188 h -47.86069"
             sodipodi:nodetypes="csssc" />
          <path
             id="path6517"
             style="fill:none;fill-opacity:0.5;stroke:#f4f4f4;stroke-width:2.2;stroke-miterlimit:4;stroke-dasharray:none;stroke-opacity:1"
             d="m 295.74055,303.13766 h 45.86069 c 1.84587,0 5.33188,1.48602 5.33188,3.33188 0,1.84587 -1.48601,3.33188 -3.33188,3.33188 h -47.86069"
             sodipodi:nodetypes="csssc" />
          <path
             id="path6519"
             style="fill:none;fill-opacity:0.5;stroke:#f4f4f4;stroke-width:2.2;stroke-miterlimit:4;stroke-dasharray:none;stroke-opacity:1"
             d="m 296.22007,289.03131 h 47.86069 c 1.84587,0 3.33188,1.48602 3.33188,3.33188 0,1.84587 -1.48601,3.33188 -3.33188,3.33188 h -47.86069"
             sodipodi:nodetypes="csssc" />
          <path
             id="path6521"
             style="fill:none;fill-opacity:0.5;stroke:#f4f4f4;stroke-width:2.2;stroke-miterlimit:4;stroke-dasharray:none;stroke-opacity:1"
             d="m 300.15953,275.13766 h 41.86069 c 1.84587,0 5.33188,1.48602 5.33188,3.33188 0,1.84587 -1.48601,3.33188 -3.33188,3.33188 h -45.86069"
             sodipodi:nodetypes="csssc" />
          <path
             id="path6523"
             style="fill:none;fill-opacity:0.5;stroke:#f4f4f4;stroke-width:2.2;stroke-miterlimit:4;stroke-dasharray:none;stroke-opacity:1"
             d="m 302.04952,261.03131 h 43.86069 c 1.84587,0 3.33188,1.48602 3.33188,3.33188 0,1.84587 -1.48601,3.33188 -3.33188,3.33188 h -45.86069"
             sodipodi:nodetypes="csssc" />
          <path
             id="path6525"
             style="fill:none;fill-opacity:0.5;stroke:#f4f4f4;stroke-width:2.2;stroke-miterlimit:4;stroke-dasharray:none;stroke-opacity:1"
             d="m 301.80268,247.13766 h 41.86069 c 1.84587,0 5.33188,1.48602 5.33188,3.33188 0,1.84587 -1.48601,3.33188 -3.33188,3.33188 h -45.86069"
             sodipodi:nodetypes="csssc" />
          <path
             id="path6527"
             style="fill:none;fill-opacity:0.5;stroke:#f4f4f4;stroke-width:2.2;stroke-miterlimit:4;stroke-dasharray:none;stroke-opacity:1"
             d="m 303.52396,233.03131 h 43.86069 c 1.84587,0 3.33188,1.48602 3.33188,3.33188 0,1.84587 -1.48601,3.33188 -3.33188,3.33188 h -45.86069"
             sodipodi:nodetypes="csssc" />
          <path
             id="path6529"
             style="fill:none;fill-opacity:0.5;stroke:#f4f4f4;stroke-width:2.2;stroke-miterlimit:4;stroke-dasharray:none;stroke-opacity:1"
             d="m 303.76167,219.13766 h 41.86069 c 1.84587,0 5.33188,1.48602 5.33188,3.33188 0,1.84587 -1.48601,3.33188 -3.33188,3.33188 h -45.86069"
             sodipodi:nodetypes="csssc" />
          <path
             id="path6531"
             style="fill:none;fill-opacity:0.5;stroke:#f4f4f4;stroke-width:2.2;stroke-miterlimit:4;stroke-dasharray:none;stroke-opacity:1"
             d="m 304.07407,205.03131 h 43.86069 c 1.84587,0 3.33188,1.48602 3.33188,3.33188 0,1.84587 -1.48601,3.33188 -3.33188,3.33188 h -45.86069"
             sodipodi:nodetypes="csssc" />
          <path
             id="path6533"
             style="fill:none;fill-opacity:0.5;stroke:#f4f4f4;stroke-width:2.2;stroke-miterlimit:4;stroke-dasharray:none;stroke-opacity:1"
             d="m 305.14415,191.13766 h 41.86069 c 1.84587,0 5.33188,1.48602 5.33188,3.33188 0,1.84587 -1.48601,3.33188 -3.33188,3.33188 h -45.86069"
             sodipodi:nodetypes="csssc" />
          <path
             id="path6535"
             style="fill:none;fill-opacity:0.5;stroke:#f4f4f4;stroke-width:2.2;stroke-miterlimit:4;stroke-dasharray:none;stroke-opacity:1"
             d="m 305.75721,177.03131 h 43.86069 c 1.84587,0 3.33188,1.48602 3.33188,3.33188 0,1.84587 -1.48601,3.33188 -3.33188,3.33188 h -45.86069"
             sodipodi:nodetypes="csssc" />
          <path
             id="path6537"
             style="fill:none;fill-opacity:0.5;stroke:#f4f4f4;stroke-width:2.2;stroke-miterlimit:4;stroke-dasharray:none;stroke-opacity:1"
             d="m 306.50345,163.13766 h 41.86069 c 1.84587,0 5.33188,1.48602 5.33188,3.33188 0,1.84587 -1.48601,3.33188 -3.33188,3.33188 h -45.86069"
             sodipodi:nodetypes="csssc" />
        </g>
        <g
           id="g7718"
           inkscape:label="Right Side"
           transform="matrix(-1,0,0,1,1485.4915,0)"
           style="fill:none;stroke:#f4f4f4;stroke-width:2.2;stroke-miterlimit:4;stroke-dasharray:none;stroke-opacity:1">
          <path
             id="path7678"
             style="fill:none;fill-opacity:0.5;stroke:#f4f4f4;stroke-width:2.2;stroke-miterlimit:4;stroke-dasharray:none;stroke-opacity:1"
             d="m 289.90573,429.03131 h 47.86069 c 1.84587,0 3.33188,1.48602 3.33188,3.33188 0,1.84587 -1.48601,3.33188 -3.33188,3.33188 h -47.86069"
             sodipodi:nodetypes="csssc" />
          <path
             id="path7680"
             style="fill:none;fill-opacity:0.5;stroke:#f4f4f4;stroke-width:2.2;stroke-miterlimit:4;stroke-dasharray:none;stroke-opacity:1"
             d="M 291.16531,415.13766 H 337.026 c 1.84587,0 5.33188,1.48602 5.33188,3.33188 0,1.84587 -1.48601,3.33188 -3.33188,3.33188 h -47.86069"
             sodipodi:nodetypes="csssc" />
          <path
             id="path7682"
             style="fill:none;fill-opacity:0.5;stroke:#f4f4f4;stroke-width:2.2;stroke-miterlimit:4;stroke-dasharray:none;stroke-opacity:1"
             d="m 290.83325,401.03131 h 47.86069 c 1.84587,0 3.33188,1.48602 3.33188,3.33188 0,1.84587 -1.48601,3.33188 -3.33188,3.33188 h -47.86069"
             sodipodi:nodetypes="csssc" />
          <path
             id="path7684"
             style="fill:none;fill-opacity:0.5;stroke:#f4f4f4;stroke-width:2.2;stroke-miterlimit:4;stroke-dasharray:none;stroke-opacity:1"
             d="m 291.58189,387.13766 h 45.86069 c 1.84587,0 5.33188,1.48602 5.33188,3.33188 0,1.84587 -1.48601,3.33188 -3.33188,3.33188 h -47.86069"
             sodipodi:nodetypes="csssc" />
          <path
             id="path7686"
             style="fill:none;fill-opacity:0.5;stroke:#f4f4f4;stroke-width:2.2;stroke-miterlimit:4;stroke-dasharray:none;stroke-opacity:1"
             d="m 292.82422,373.03131 h 47.86069 c 1.84587,0 3.33188,1.48602 3.33188,3.33188 0,1.84587 -1.48601,3.33188 -3.33188,3.33188 h -47.86069"
             sodipodi:nodetypes="csssc" />
          <path
             id="path7688"
             style="fill:none;fill-opacity:0.5;stroke:#f4f4f4;stroke-width:2.2;stroke-miterlimit:4;stroke-dasharray:none;stroke-opacity:1"
             d="m 292.39667,359.13766 h 45.86069 c 1.84587,0 5.33188,1.48602 5.33188,3.33188 0,1.84587 -1.48601,3.33188 -3.33188,3.33188 h -47.86069"
             sodipodi:nodetypes="csssc" />
          <path
             id="path7690"
             style="fill:none;fill-opacity:0.5;stroke:#f4f4f4;stroke-width:2.2;stroke-miterlimit:4;stroke-dasharray:none;stroke-opacity:1"
             d="m 294.17632,345.03131 h 47.86069 c 1.84587,0 3.33188,1.48602 3.33188,3.33188 0,1.84587 -1.48601,3.33188 -3.33188,3.33188 h -47.86069"
             sodipodi:nodetypes="csssc" />
          <path
             id="path7692"
             style="fill:none;fill-opacity:0.5;stroke:#f4f4f4;stroke-width:2.2;stroke-miterlimit:4;stroke-dasharray:none;stroke-opacity:1"
             d="m 294.31248,331.13766 h 45.86069 c 1.84587,0 5.33188,1.48602 5.33188,3.33188 0,1.84587 -1.48601,3.33188 -3.33188,3.33188 h -47.86069"
             sodipodi:nodetypes="csssc" />
          <path
             id="path7694"
             style="fill:none;fill-opacity:0.5;stroke:#f4f4f4;stroke-width:2.2;stroke-miterlimit:4;stroke-dasharray:none;stroke-opacity:1"
             d="m 295.14303,317.03131 h 47.86069 c 1.84587,0 3.33188,1.48602 3.33188,3.33188 0,1.84587 -1.48601,3.33188 -3.33188,3.33188 h -47.86069"
             sodipodi:nodetypes="csssc" />
          <path
             id="path7696"
             style="fill:none;fill-opacity:0.5;stroke:#f4f4f4;stroke-width:2.2;stroke-miterlimit:4;stroke-dasharray:none;stroke-opacity:1"
             d="m 295.74055,303.13766 h 45.86069 c 1.84587,0 5.33188,1.48602 5.33188,3.33188 0,1.84587 -1.48601,3.33188 -3.33188,3.33188 h -47.86069"
             sodipodi:nodetypes="csssc" />
          <path
             id="path7698"
             style="fill:none;fill-opacity:0.5;stroke:#f4f4f4;stroke-width:2.2;stroke-miterlimit:4;stroke-dasharray:none;stroke-opacity:1"
             d="m 296.22007,289.03131 h 47.86069 c 1.84587,0 3.33188,1.48602 3.33188,3.33188 0,1.84587 -1.48601,3.33188 -3.33188,3.33188 h -47.86069"
             sodipodi:nodetypes="csssc" />
          <path
             id="path7700"
             style="fill:none;fill-opacity:0.5;stroke:#f4f4f4;stroke-width:2.2;stroke-miterlimit:4;stroke-dasharray:none;stroke-opacity:1"
             d="m 300.15953,275.13766 h 41.86069 c 1.84587,0 5.33188,1.48602 5.33188,3.33188 0,1.84587 -1.48601,3.33188 -3.33188,3.33188 h -45.86069"
             sodipodi:nodetypes="csssc" />
          <path
             id="path7702"
             style="fill:none;fill-opacity:0.5;stroke:#f4f4f4;stroke-width:2.2;stroke-miterlimit:4;stroke-dasharray:none;stroke-opacity:1"
             d="m 302.04952,261.03131 h 43.86069 c 1.84587,0 3.33188,1.48602 3.33188,3.33188 0,1.84587 -1.48601,3.33188 -3.33188,3.33188 h -45.86069"
             sodipodi:nodetypes="csssc" />
          <path
             id="path7704"
             style="fill:none;fill-opacity:0.5;stroke:#f4f4f4;stroke-width:2.2;stroke-miterlimit:4;stroke-dasharray:none;stroke-opacity:1"
             d="m 301.80268,247.13766 h 41.86069 c 1.84587,0 5.33188,1.48602 5.33188,3.33188 0,1.84587 -1.48601,3.33188 -3.33188,3.33188 h -45.86069"
             sodipodi:nodetypes="csssc" />
          <path
             id="path7706"
             style="fill:none;fill-opacity:0.5;stroke:#f4f4f4;stroke-width:2.2;stroke-miterlimit:4;stroke-dasharray:none;stroke-opacity:1"
             d="m 303.52396,233.03131 h 43.86069 c 1.84587,0 3.33188,1.48602 3.33188,3.33188 0,1.84587 -1.48601,3.33188 -3.33188,3.33188 h -45.86069"
             sodipodi:nodetypes="csssc" />
          <path
             id="path7708"
             style="fill:none;fill-opacity:0.5;stroke:#f4f4f4;stroke-width:2.2;stroke-miterlimit:4;stroke-dasharray:none;stroke-opacity:1"
             d="m 303.76167,219.13766 h 41.86069 c 1.84587,0 5.33188,1.48602 5.33188,3.33188 0,1.84587 -1.48601,3.33188 -3.33188,3.33188 h -45.86069"
             sodipodi:nodetypes="csssc" />
          <path
             id="path7710"
             style="fill:none;fill-opacity:0.5;stroke:#f4f4f4;stroke-width:2.2;stroke-miterlimit:4;stroke-dasharray:none;stroke-opacity:1"
             d="m 304.07407,205.03131 h 43.86069 c 1.84587,0 3.33188,1.48602 3.33188,3.33188 0,1.84587 -1.48601,3.33188 -3.33188,3.33188 h -45.86069"
             sodipodi:nodetypes="csssc" />
          <path
             id="path7712"
             style="fill:none;fill-opacity:0.5;stroke:#f4f4f4;stroke-width:2.2;stroke-miterlimit:4;stroke-dasharray:none;stroke-opacity:1"
             d="m 305.14415,191.13766 h 41.86069 c 1.84587,0 5.33188,1.48602 5.33188,3.33188 0,1.84587 -1.48601,3.33188 -3.33188,3.33188 h -45.86069"
             sodipodi:nodetypes="csssc" />
          <path
             id="path7714"
             style="fill:none;fill-opacity:0.5;stroke:#f4f4f4;stroke-width:2.2;stroke-miterlimit:4;stroke-dasharray:none;stroke-opacity:1"
             d="m 305.75721,177.03131 h 43.86069 c 1.84587,0 3.33188,1.48602 3.33188,3.33188 0,1.84587 -1.48601,3.33188 -3.33188,3.33188 h -45.86069"
             sodipodi:nodetypes="csssc" />
          <path
             id="path7716"
             style="fill:none;fill-opacity:0.5;stroke:#f4f4f4;stroke-width:2.2;stroke-miterlimit:4;stroke-dasharray:none;stroke-opacity:1"
             d="m 306.50345,163.13766 h 41.86069 c 1.84587,0 5.33188,1.48602 5.33188,3.33188 0,1.84587 -1.48601,3.33188 -3.33188,3.33188 h -45.86069"
             sodipodi:nodetypes="csssc" />
        </g>
      </g>
      <g
         id="g8509"
         style="display:inline;stroke-width:1.001;stroke-miterlimit:4;stroke-dasharray:none"
         inkscape:label="TRS Logo">
        <rect
           style="display:inline;fill:none;fill-opacity:0.5;stroke:#f4f4f4;stroke-width:2.2;stroke-linecap:butt;stroke-miterlimit:4;stroke-dasharray:none;stroke-opacity:1"
           id="rect3165"
           width="378.08316"
           height="28.747101"
           x="556.81989"
           y="521.44208"
           ry="2.3814375"
           rx="2.3814373"
           inkscape:label="Logo Outline" />
        <path
           style="fill:none;stroke:#f4f4f4;stroke-width:2.2;stroke-linecap:butt;stroke-linejoin:miter;stroke-miterlimit:4;stroke-dasharray:none;stroke-opacity:1"
           d="m 702.49242,524.12772 0.45344,23.14721"
           id="path7847"
           inkscape:label="Logo Left Divider" />
        <path
           style="fill:none;stroke:#f4f4f4;stroke-width:2.2;stroke-linecap:butt;stroke-linejoin:miter;stroke-miterlimit:4;stroke-dasharray:none;stroke-opacity:1"
           d="m 790.39076,523.74664 -0.14135,26.52375"
           id="path7849"
           inkscape:label="Logo Right Divider" />
        <rect
           style="fill:none;fill-opacity:0.5;stroke:#f4f4f4;stroke-width:1.65;stroke-linecap:butt;stroke-miterlimit:4;stroke-dasharray:none;stroke-opacity:1"
           id="rect7873"
           width="19.705093"
           height="7.8425741"
           x="709.23804"
           y="532.66223"
           ry="1.4807657"
           rx="1.4807657"
           inkscape:label="Left TRS Square" />
        <rect
           style="fill:none;fill-opacity:0.5;stroke:#f4f4f4;stroke-width:1.65;stroke-linecap:butt;stroke-miterlimit:4;stroke-dasharray:none;stroke-opacity:1"
           id="rect8159"
           width="19.705093"
           height="7.8425741"
           x="736.7439"
           y="532.66223"
           ry="1.4807657"
           rx="1.4807657"
           inkscape:label="Middle TRS Square" />
        <rect
           style="fill:none;fill-opacity:0.5;stroke:#f4f4f4;stroke-width:1.65;stroke-linecap:butt;stroke-miterlimit:4;stroke-dasharray:none;stroke-opacity:1"
           id="rect8161"
           width="19.705093"
           height="7.8425741"
           x="763.95062"
           y="532.66223"
           ry="1.4807657"
           rx="1.4807657"
           inkscape:label="Left TRS Square" />
      </g>
    </g>
    <g
       id="g8747"
       inkscape:label="Keyboard"
       transform="translate(0,-1.2842118)">
      <rect
         style="fill:none;fill-opacity:0.5;stroke:#f4f4f4;stroke-width:4.4;stroke-linecap:butt;stroke-miterlimit:4;stroke-dasharray:none;stroke-opacity:1"
         id="rect9579"
         width="253.23523"
         height="27.698629"
         x="613.76178"
         y="792.57056"
         rx="2.3814399"
         ry="2.3814399"
         inkscape:label="Spacebar" />
      <g
         id="g9003"
         inkscape:label="ZXC Row"
         style="fill:none;stroke:#f4f4f4;stroke-width:4.4;stroke-miterlimit:4;stroke-dasharray:none;stroke-opacity:1">
        <rect
           style="fill:none;fill-opacity:0.5;stroke:#f4f4f4;stroke-width:4.4;stroke-linecap:butt;stroke-miterlimit:4;stroke-dasharray:none;stroke-opacity:1"
           id="rect8596"
           width="29.110241"
           height="29.110241"
           x="736.12988"
           y="746.79565"
           rx="2.3814399"
           ry="2.3814399" />
        <rect
           style="fill:none;fill-opacity:0.5;stroke:#f4f4f4;stroke-width:4.4;stroke-linecap:butt;stroke-miterlimit:4;stroke-dasharray:none;stroke-opacity:1"
           id="rect8678"
           width="29.110241"
           height="29.110241"
           x="688.12988"
           y="746.79565"
           rx="2.3814399"
           ry="2.3814399" />
        <rect
           style="fill:none;fill-opacity:0.5;stroke:#f4f4f4;stroke-width:4.4;stroke-linecap:butt;stroke-miterlimit:4;stroke-dasharray:none;stroke-opacity:1"
           id="rect8805"
           width="29.110241"
           height="29.110241"
           x="640.12988"
           y="746.79565"
           rx="2.3814399"
           ry="2.3814399" />
        <rect
           style="fill:none;fill-opacity:0.5;stroke:#f4f4f4;stroke-width:4.4;stroke-linecap:butt;stroke-miterlimit:4;stroke-dasharray:none;stroke-opacity:1"
           id="rect8807"
           width="29.110241"
           height="29.110241"
           x="592.12988"
           y="746.79565"
           rx="2.3814399"
           ry="2.3814399" />
        <rect
           style="fill:none;fill-opacity:0.5;stroke:#f4f4f4;stroke-width:4.4;stroke-linecap:butt;stroke-miterlimit:4;stroke-dasharray:none;stroke-opacity:1"
           id="rect8809"
           width="29.110241"
           height="29.110241"
           x="544.12988"
           y="746.79565"
           rx="2.3814399"
           ry="2.3814399" />
        <rect
           style="fill:none;fill-opacity:0.5;stroke:#f4f4f4;stroke-width:4.4;stroke-linecap:butt;stroke-miterlimit:4;stroke-dasharray:none;stroke-opacity:1"
           id="rect8811"
           width="29.110241"
           height="29.110241"
           x="496.12988"
           y="746.79565"
           rx="2.3814399"
           ry="2.3814399" />
        <rect
           style="fill:none;fill-opacity:0.5;stroke:#f4f4f4;stroke-width:4.4;stroke-linecap:butt;stroke-miterlimit:4;stroke-dasharray:none;stroke-opacity:1"
           id="rect8813"
           width="53.110245"
           height="29.110241"
           x="424.12988"
           y="746.79565"
           rx="2.3814399"
           ry="2.3814399" />
        <rect
           style="fill:none;fill-opacity:0.5;stroke:#f4f4f4;stroke-width:4.4;stroke-linecap:butt;stroke-miterlimit:4;stroke-dasharray:none;stroke-opacity:1"
           id="rect8901"
           width="53.110237"
           height="29.110241"
           x="976.12988"
           y="746.79565"
           rx="2.3814397"
           ry="2.3814399" />
        <rect
           style="fill:none;fill-opacity:0.5;stroke:#f4f4f4;stroke-width:4.4;stroke-linecap:butt;stroke-miterlimit:4;stroke-dasharray:none;stroke-opacity:1"
           id="rect8903"
           width="29.110241"
           height="29.110241"
           x="928.12988"
           y="746.79565"
           rx="2.3814399"
           ry="2.3814399" />
        <rect
           style="fill:none;fill-opacity:0.5;stroke:#f4f4f4;stroke-width:4.4;stroke-linecap:butt;stroke-miterlimit:4;stroke-dasharray:none;stroke-opacity:1"
           id="rect8905"
           width="29.110241"
           height="29.110241"
           x="880.12988"
           y="746.79565"
           rx="2.3814399"
           ry="2.3814399" />
        <rect
           style="fill:none;fill-opacity:0.5;stroke:#f4f4f4;stroke-width:4.4;stroke-linecap:butt;stroke-miterlimit:4;stroke-dasharray:none;stroke-opacity:1"
           id="rect8907"
           width="29.110241"
           height="29.110241"
           x="832.12988"
           y="746.79565"
           rx="2.3814399"
           ry="2.3814399" />
        <rect
           style="fill:none;fill-opacity:0.5;stroke:#f4f4f4;stroke-width:4.4;stroke-linecap:butt;stroke-miterlimit:4;stroke-dasharray:none;stroke-opacity:1"
           id="rect8909"
           width="29.110241"
           height="29.110241"
           x="784.12988"
           y="746.79565"
           rx="2.3814399"
           ry="2.3814399" />
      </g>
      <g
         id="g9029"
         inkscape:label="ASD Row"
         transform="translate(24,-46)"
         style="fill:none;stroke:#f4f4f4;stroke-width:4.4;stroke-miterlimit:4;stroke-dasharray:none;stroke-opacity:1">
        <rect
           style="fill:none;fill-opacity:0.5;stroke:#f4f4f4;stroke-width:4.4;stroke-linecap:butt;stroke-miterlimit:4;stroke-dasharray:none;stroke-opacity:1"
           id="rect9005"
           width="29.110241"
           height="29.110241"
           x="736.12988"
           y="746.79565"
           rx="2.3814399"
           ry="2.3814399" />
        <rect
           style="fill:none;fill-opacity:0.5;stroke:#f4f4f4;stroke-width:4.4;stroke-linecap:butt;stroke-miterlimit:4;stroke-dasharray:none;stroke-opacity:1"
           id="rect9007"
           width="29.110241"
           height="29.110241"
           x="688.12988"
           y="746.79565"
           rx="2.3814399"
           ry="2.3814399" />
        <rect
           style="fill:none;fill-opacity:0.5;stroke:#f4f4f4;stroke-width:4.4;stroke-linecap:butt;stroke-miterlimit:4;stroke-dasharray:none;stroke-opacity:1"
           id="rect9009"
           width="29.110241"
           height="29.110241"
           x="640.12988"
           y="746.79565"
           rx="2.3814399"
           ry="2.3814399" />
        <rect
           style="fill:none;fill-opacity:0.5;stroke:#f4f4f4;stroke-width:4.4;stroke-linecap:butt;stroke-miterlimit:4;stroke-dasharray:none;stroke-opacity:1"
           id="rect9011"
           width="29.110241"
           height="29.110241"
           x="592.12988"
           y="746.79565"
           rx="2.3814399"
           ry="2.3814399" />
        <rect
           style="fill:none;fill-opacity:0.5;stroke:#f4f4f4;stroke-width:4.4;stroke-linecap:butt;stroke-miterlimit:4;stroke-dasharray:none;stroke-opacity:1"
           id="rect9013"
           width="29.110241"
           height="29.110241"
           x="544.12988"
           y="746.79565"
           rx="2.3814399"
           ry="2.3814399" />
        <rect
           style="fill:none;fill-opacity:0.5;stroke:#f4f4f4;stroke-width:4.4;stroke-linecap:butt;stroke-miterlimit:4;stroke-dasharray:none;stroke-opacity:1"
           id="rect9015"
           width="29.110241"
           height="29.110241"
           x="496.12988"
           y="746.79565"
           rx="2.3814399"
           ry="2.3814399" />
        <rect
           style="fill:none;fill-opacity:0.5;stroke:#f4f4f4;stroke-width:4.4;stroke-linecap:butt;stroke-miterlimit:4;stroke-dasharray:none;stroke-opacity:1"
           id="rect9017"
           width="29.110241"
           height="29.110241"
           x="448.12988"
           y="746.79565"
           rx="2.3814399"
           ry="2.3814399" />
        <rect
           style="fill:none;fill-opacity:0.5;stroke:#f4f4f4;stroke-width:4.4;stroke-linecap:butt;stroke-miterlimit:4;stroke-dasharray:none;stroke-opacity:1"
           id="rect9021"
           width="77.11026"
           height="29.110241"
           x="928.12988"
           y="746.79565"
           rx="2.3814399"
           ry="2.3814399" />
        <rect
           style="fill:none;fill-opacity:0.5;stroke:#f4f4f4;stroke-width:4.4;stroke-linecap:butt;stroke-miterlimit:4;stroke-dasharray:none;stroke-opacity:1"
           id="rect9023"
           width="29.110241"
           height="29.110241"
           x="880.12988"
           y="746.79565"
           rx="2.3814399"
           ry="2.3814399" />
        <rect
           style="fill:none;fill-opacity:0.5;stroke:#f4f4f4;stroke-width:4.4;stroke-linecap:butt;stroke-miterlimit:4;stroke-dasharray:none;stroke-opacity:1"
           id="rect9025"
           width="29.110241"
           height="29.110241"
           x="832.12988"
           y="746.79565"
           rx="2.3814399"
           ry="2.3814399" />
        <rect
           style="fill:none;fill-opacity:0.5;stroke:#f4f4f4;stroke-width:4.4;stroke-linecap:butt;stroke-miterlimit:4;stroke-dasharray:none;stroke-opacity:1"
           id="rect9027"
           width="29.110241"
           height="29.110241"
           x="784.12988"
           y="746.79565"
           rx="2.3814399"
           ry="2.3814399" />
        <rect
           style="fill:none;fill-opacity:0.5;stroke:#f4f4f4;stroke-width:4.4;stroke-linecap:butt;stroke-miterlimit:4;stroke-dasharray:none;stroke-opacity:1"
           id="rect9122"
           width="29.110241"
           height="29.110241"
           x="400.12988"
           y="746.79565"
           rx="2.3814399"
           ry="2.3814399" />
        <rect
           style="fill:none;fill-opacity:0.5;stroke:#f4f4f4;stroke-width:4.4;stroke-linecap:butt;stroke-miterlimit:4;stroke-dasharray:none;stroke-opacity:1"
           id="rect9124"
           width="29.110241"
           height="29.110241"
           x="1024.1299"
           y="746.79565"
           rx="2.3814399"
           ry="2.3814399" />
      </g>
      <g
         id="g9236"
         inkscape:label="QWE Row"
         transform="translate(12,-92)"
         style="fill:none;stroke:#f4f4f4;stroke-width:4.4;stroke-miterlimit:4;stroke-dasharray:none;stroke-opacity:1">
        <rect
           style="fill:none;fill-opacity:0.5;stroke:#f4f4f4;stroke-width:4.4;stroke-linecap:butt;stroke-miterlimit:4;stroke-dasharray:none;stroke-opacity:1"
           id="rect9210"
           width="29.110241"
           height="29.110241"
           x="736.12988"
           y="746.79565"
           rx="2.3814399"
           ry="2.3814399" />
        <rect
           style="fill:none;fill-opacity:0.5;stroke:#f4f4f4;stroke-width:4.4;stroke-linecap:butt;stroke-miterlimit:4;stroke-dasharray:none;stroke-opacity:1"
           id="rect9212"
           width="29.110241"
           height="29.110241"
           x="688.12988"
           y="746.79565"
           rx="2.3814399"
           ry="2.3814399" />
        <rect
           style="fill:none;fill-opacity:0.5;stroke:#f4f4f4;stroke-width:4.4;stroke-linecap:butt;stroke-miterlimit:4;stroke-dasharray:none;stroke-opacity:1"
           id="rect9214"
           width="29.110241"
           height="29.110241"
           x="640.12988"
           y="746.79565"
           rx="2.3814399"
           ry="2.3814399" />
        <rect
           style="fill:none;fill-opacity:0.5;stroke:#f4f4f4;stroke-width:4.4;stroke-linecap:butt;stroke-miterlimit:4;stroke-dasharray:none;stroke-opacity:1"
           id="rect9216"
           width="29.110241"
           height="29.110241"
           x="592.12988"
           y="746.79565"
           rx="2.3814399"
           ry="2.3814399" />
        <rect
           style="fill:none;fill-opacity:0.5;stroke:#f4f4f4;stroke-width:4.4;stroke-linecap:butt;stroke-miterlimit:4;stroke-dasharray:none;stroke-opacity:1"
           id="rect9218"
           width="29.110241"
           height="29.110241"
           x="544.12988"
           y="746.79565"
           rx="2.3814399"
           ry="2.3814399" />
        <rect
           style="fill:none;fill-opacity:0.5;stroke:#f4f4f4;stroke-width:4.4;stroke-linecap:butt;stroke-miterlimit:4;stroke-dasharray:none;stroke-opacity:1"
           id="rect9220"
           width="29.110241"
           height="29.110241"
           x="496.12988"
           y="746.79565"
           rx="2.3814399"
           ry="2.3814399" />
        <rect
           style="fill:none;fill-opacity:0.5;stroke:#f4f4f4;stroke-width:4.4;stroke-linecap:butt;stroke-miterlimit:4;stroke-dasharray:none;stroke-opacity:1"
           id="rect9222"
           width="29.110241"
           height="29.110241"
           x="448.12988"
           y="746.79565"
           rx="2.3814399"
           ry="2.3814399" />
        <rect
           style="fill:none;fill-opacity:0.5;stroke:#f4f4f4;stroke-width:4.4;stroke-linecap:butt;stroke-miterlimit:4;stroke-dasharray:none;stroke-opacity:1"
           id="rect9226"
           width="29.110241"
           height="29.110241"
           x="880.12988"
           y="746.79565"
           rx="2.3814399"
           ry="2.3814399" />
        <rect
           style="fill:none;fill-opacity:0.5;stroke:#f4f4f4;stroke-width:4.4;stroke-linecap:butt;stroke-miterlimit:4;stroke-dasharray:none;stroke-opacity:1"
           id="rect9228"
           width="29.110241"
           height="29.110241"
           x="832.12988"
           y="746.79565"
           rx="2.3814399"
           ry="2.3814399" />
        <rect
           style="fill:none;fill-opacity:0.5;stroke:#f4f4f4;stroke-width:4.4;stroke-linecap:butt;stroke-miterlimit:4;stroke-dasharray:none;stroke-opacity:1"
           id="rect9230"
           width="29.110241"
           height="29.110241"
           x="784.12988"
           y="746.79565"
           rx="2.3814399"
           ry="2.3814399" />
        <rect
           style="fill:none;fill-opacity:0.5;stroke:#f4f4f4;stroke-width:4.4;stroke-linecap:butt;stroke-miterlimit:4;stroke-dasharray:none;stroke-opacity:1"
           id="rect9232"
           width="29.110241"
           height="29.110241"
           x="400.12988"
           y="746.79565"
           rx="2.3814399"
           ry="2.3814399" />
        <rect
           style="fill:none;fill-opacity:0.5;stroke:#f4f4f4;stroke-width:4.4;stroke-linecap:butt;stroke-miterlimit:4;stroke-dasharray:none;stroke-opacity:1"
           id="rect9234"
           width="29.110241"
           height="29.110241"
           x="1024.1299"
           y="746.79565"
           rx="2.3814399"
           ry="2.3814399" />
        <rect
           style="fill:none;fill-opacity:0.5;stroke:#f4f4f4;stroke-width:4.4;stroke-linecap:butt;stroke-miterlimit:4;stroke-dasharray:none;stroke-opacity:1"
           id="rect9318"
           width="29.110241"
           height="29.110241"
           x="976.12988"
           y="746.79565"
           rx="2.3814399"
           ry="2.3814399" />
        <rect
           style="fill:none;fill-opacity:0.5;stroke:#f4f4f4;stroke-width:4.4;stroke-linecap:butt;stroke-miterlimit:4;stroke-dasharray:none;stroke-opacity:1"
           id="rect9320"
           width="29.110241"
           height="29.110241"
           x="928.12988"
           y="746.79565"
           rx="2.3814399"
           ry="2.3814399" />
      </g>
      <g
         id="g9350"
         inkscape:label="Number Row"
         transform="translate(36,-138)"
         style="fill:none;stroke:#f4f4f4;stroke-width:4.4;stroke-miterlimit:4;stroke-dasharray:none;stroke-opacity:1">
        <rect
           style="fill:none;fill-opacity:0.5;stroke:#f4f4f4;stroke-width:4.4;stroke-linecap:butt;stroke-miterlimit:4;stroke-dasharray:none;stroke-opacity:1"
           id="rect9322"
           width="29.110241"
           height="29.110241"
           x="736.12988"
           y="746.79565"
           rx="2.3814399"
           ry="2.3814399" />
        <rect
           style="fill:none;fill-opacity:0.5;stroke:#f4f4f4;stroke-width:4.4;stroke-linecap:butt;stroke-miterlimit:4;stroke-dasharray:none;stroke-opacity:1"
           id="rect9324"
           width="29.110241"
           height="29.110241"
           x="688.12988"
           y="746.79565"
           rx="2.3814399"
           ry="2.3814399" />
        <rect
           style="fill:none;fill-opacity:0.5;stroke:#f4f4f4;stroke-width:4.4;stroke-linecap:butt;stroke-miterlimit:4;stroke-dasharray:none;stroke-opacity:1"
           id="rect9326"
           width="29.110241"
           height="29.110241"
           x="640.12988"
           y="746.79565"
           rx="2.3814399"
           ry="2.3814399" />
        <rect
           style="fill:none;fill-opacity:0.5;stroke:#f4f4f4;stroke-width:4.4;stroke-linecap:butt;stroke-miterlimit:4;stroke-dasharray:none;stroke-opacity:1"
           id="rect9328"
           width="29.110241"
           height="29.110241"
           x="592.12988"
           y="746.79565"
           rx="2.3814399"
           ry="2.3814399" />
        <rect
           style="fill:none;fill-opacity:0.5;stroke:#f4f4f4;stroke-width:4.4;stroke-linecap:butt;stroke-miterlimit:4;stroke-dasharray:none;stroke-opacity:1"
           id="rect9330"
           width="29.110241"
           height="29.110241"
           x="544.12988"
           y="746.79565"
           rx="2.3814399"
           ry="2.3814399" />
        <rect
           style="fill:none;fill-opacity:0.5;stroke:#f4f4f4;stroke-width:4.4;stroke-linecap:butt;stroke-miterlimit:4;stroke-dasharray:none;stroke-opacity:1"
           id="rect9332"
           width="29.110241"
           height="29.110241"
           x="496.12988"
           y="746.79565"
           rx="2.3814399"
           ry="2.3814399" />
        <rect
           style="fill:none;fill-opacity:0.5;stroke:#f4f4f4;stroke-width:4.4;stroke-linecap:butt;stroke-miterlimit:4;stroke-dasharray:none;stroke-opacity:1"
           id="rect9334"
           width="29.110241"
           height="29.110241"
           x="448.12988"
           y="746.79565"
           rx="2.3814399"
           ry="2.3814399" />
        <rect
           style="fill:none;fill-opacity:0.5;stroke:#f4f4f4;stroke-width:4.4;stroke-linecap:butt;stroke-miterlimit:4;stroke-dasharray:none;stroke-opacity:1"
           id="rect9336"
           width="29.110241"
           height="29.110241"
           x="880.12988"
           y="746.79565"
           rx="2.3814399"
           ry="2.3814399" />
        <rect
           style="fill:none;fill-opacity:0.5;stroke:#f4f4f4;stroke-width:4.4;stroke-linecap:butt;stroke-miterlimit:4;stroke-dasharray:none;stroke-opacity:1"
           id="rect9338"
           width="29.110241"
           height="29.110241"
           x="832.12988"
           y="746.79565"
           rx="2.3814399"
           ry="2.3814399" />
        <rect
           style="fill:none;fill-opacity:0.5;stroke:#f4f4f4;stroke-width:4.4;stroke-linecap:butt;stroke-miterlimit:4;stroke-dasharray:none;stroke-opacity:1"
           id="rect9340"
           width="29.110241"
           height="29.110241"
           x="784.12988"
           y="746.79565"
           rx="2.3814399"
           ry="2.3814399" />
        <rect
           style="fill:none;fill-opacity:0.5;stroke:#f4f4f4;stroke-width:4.4;stroke-linecap:butt;stroke-miterlimit:4;stroke-dasharray:none;stroke-opacity:1"
           id="rect9342"
           width="29.110241"
           height="29.110241"
           x="400.12988"
           y="746.79565"
           rx="2.3814399"
           ry="2.3814399" />
        <rect
           style="fill:none;fill-opacity:0.5;stroke:#f4f4f4;stroke-width:4.4;stroke-linecap:butt;stroke-miterlimit:4;stroke-dasharray:none;stroke-opacity:1"
           id="rect9346"
           width="29.110241"
           height="29.110241"
           x="976.12988"
           y="746.79565"
           rx="2.3814399"
           ry="2.3814399" />
        <rect
           style="fill:none;fill-opacity:0.5;stroke:#f4f4f4;stroke-width:4.4;stroke-linecap:butt;stroke-miterlimit:4;stroke-dasharray:none;stroke-opacity:1"
           id="rect9348"
           width="29.110241"
           height="29.110241"
           x="928.12988"
           y="746.79565"
           rx="2.3814399"
           ry="2.3814399" />
      </g>
    </g>
  </g>
</svg>
