<?xml version="1.0" encoding="UTF-8" standalone="no"?>
<!-- Created with Inkscape (http://www.inkscape.org/) -->

<svg
   version="1.1"
   id="svg1230"
   width="780.9043"
   height="384.10022"
   viewBox="0 0 468.54258 230.46013"
   sodipodi:docname="fmtowns.svg"
   inkscape:version="1.1.2 (0a00cf5339, 2022-02-04)"
   xmlns:inkscape="http://www.inkscape.org/namespaces/inkscape"
   xmlns:sodipodi="http://sodipodi.sourceforge.net/DTD/sodipodi-0.dtd"
   xmlns="http://www.w3.org/2000/svg"
   xmlns:svg="http://www.w3.org/2000/svg">
  <defs
     id="defs1234" />
  <sodipodi:namedview
     id="namedview1232"
     pagecolor="#000000"
     bordercolor="#111111"
     borderopacity="1"
     inkscape:pageshadow="0"
     inkscape:pageopacity="0"
     inkscape:pagecheckerboard="1"
     showgrid="false"
     showguides="true"
     inkscape:guide-bbox="true"
     inkscape:zoom="4.234407"
     inkscape:cx="198.37488"
     inkscape:cy="203.6885"
     inkscape:window-width="1366"
     inkscape:window-height="703"
     inkscape:window-x="0"
     inkscape:window-y="0"
     inkscape:window-maximized="1"
     inkscape:current-layer="g27860"
     fit-margin-top="0"
     fit-margin-left="0"
     fit-margin-right="0"
     fit-margin-bottom="0">
    <sodipodi:guide
       position="161.94896,101.04764"
       orientation="1,0"
       id="guide1297" />
    <sodipodi:guide
       position="63.393933,178.4475"
       orientation="1,0"
       id="guide12058" />
    <sodipodi:guide
       position="47.024025,163.06718"
       orientation="0,-1"
       id="guide12060" />
    <sodipodi:guide
       position="142.87809,111.27418"
       orientation="0,-1"
       id="guide13905" />
    <sodipodi:guide
       position="166.72568,125.8517"
       orientation="0,-1"
       id="guide24654" />
    <sodipodi:guide
       position="163.03548,96.751919"
       orientation="0,-1"
       id="guide24658" />
    <sodipodi:guide
       position="111.05285,61.100897"
       orientation="1,0"
       id="guide30681" />
  </sodipodi:namedview>
  <g
     inkscape:groupmode="layer"
     inkscape:label="FM-Towns Marty"
     id="g1236"
     transform="translate(-7.6943967,-8.9704347)">
    <g
       id="g27851"
       inkscape:label="Body">
      <path
         id="path11331"
         style="display:inline;opacity:0.98;fill:none;fill-opacity:0.5;stroke:#f4f4f4;stroke-width:1.2;stroke-miterlimit:4;stroke-dasharray:none;stroke-opacity:1"
         d="m 241.83067,185.77526 c 58.86974,-0.095 107.1223,17.18952 162.19351,36.95454 26.83953,9.16147 41.32382,0.98109 48.32252,-13.95979 6.81707,-15.83089 14.98796,-32.20175 19.36728,-47.06979 C 483.2462,126.95506 464.64194,105.85249 443.39304,87.184212 383.8543,36.646344 313.52027,11.339282 241.96568,9.9702517 m 0.13501,175.8050183 c -46.89161,-0.0756 -87.047,10.87532 -129.27774,25.32344 -10.78754,3.69068 -21.710509,7.60954 -32.915762,11.6311 C 53.06766,231.89128 38.583371,223.7109 31.584668,208.77002 24.767603,192.93913 16.59671,176.56827 12.217391,161.70023 0.68517475,126.95507 19.289429,105.85249 40.53833,87.184211 100.07707,36.646343 170.4111,11.339281 241.96568,9.9702517"
         inkscape:label="Body Outline" />
      <path
         style="display:inline;opacity:0.98;fill:none;fill-opacity:0.5;stroke:#f4f4f4;stroke-width:1.2;stroke-miterlimit:4;stroke-dasharray:none;stroke-opacity:1"
         d="m 371.71282,211.25 c -86.21208,35.83542 -172.42711,36.66758 -258.64531,0"
         id="path14092"
         sodipodi:nodetypes="cc"
         inkscape:label="Lower Body Outline" />
      <rect
         style="opacity:0.98;fill:none;fill-opacity:0.5;stroke:#f4f4f4;stroke-width:1.2;stroke-miterlimit:4;stroke-dasharray:none;stroke-opacity:1"
         id="rect24656"
         width="11.582313"
         height="20.247187"
         x="236.35046"
         y="203.55775"
         ry="2.3769789"
         rx="2.3769791"
         inkscape:label="Lower Button Ridge" />
      <rect
         style="opacity:0.98;fill:none;fill-opacity:1;stroke:#f4f4f4;stroke-width:0.6;stroke-miterlimit:4;stroke-dasharray:none;stroke-opacity:1"
         id="rect27250"
         width="16.445896"
         height="4.7155285"
         x="233.94069"
         y="10.259116"
         inkscape:label="Cord indent" />
    </g>
    <g
       id="g27877"
       inkscape:label="Buttons">
      <circle
         style="display:inline;opacity:0.98;fill:none;fill-opacity:0.5;stroke:#f4f4f4;stroke-width:1.2;stroke-miterlimit:4;stroke-dasharray:none;stroke-opacity:1"
         id="path4937"
         cx="395.08371"
         cy="125.95601"
         r="22"
         inkscape:label="A" />
      <circle
         style="display:inline;opacity:0.98;fill:none;fill-opacity:0.5;stroke:#f4f4f4;stroke-width:1.2;stroke-miterlimit:4;stroke-dasharray:none;stroke-opacity:1"
         id="circle5019"
         cx="347.69461"
         cy="162.83882"
         r="22"
         inkscape:label="B" />
      <path
         id="path22664"
         style="display:inline;opacity:0.98;fill:none;fill-opacity:0.5;stroke:#f4f4f4;stroke-width:1.2;stroke-miterlimit:4;stroke-dasharray:none;stroke-opacity:1"
         d="m 181.95945,213.59398 c -0.0135,3.4122 1.74561,5.3803 7.46434,6.5507 11.75668,2.40613 25.6652,2.60129 38.21763,3.16271 2.3036,0.26865 3.61549,-0.7989 3.50965,-2.64477 v -7.05933 m -49.19162,-0.009 c -0.18572,-2.35269 1.34385,-4.54788 3.53014,-5.3595 3.59586,-1.47477 7.52728,-1.81082 11.33538,-2.40536 10.49136,-1.3403 21.08205,-1.49229 31.63298,-1.98775 1.78785,-0.16155 3.03175,1.5385 2.69312,3.20712 0,2.17873 0,4.35745 0,6.53618"
         inkscape:label="Select" />
      <path
         id="path23031"
         style="display:inline;opacity:0.98;fill:none;fill-opacity:0.5;stroke:#f4f4f4;stroke-width:1.2;stroke-miterlimit:4;stroke-dasharray:none;stroke-opacity:1"
         d="m 302.28198,213.59398 c 0.0135,3.4122 -1.74561,5.3803 -7.46434,6.5507 -11.75668,2.40613 -25.6652,2.60129 -38.21763,3.16271 -2.3036,0.26865 -3.61549,-0.7989 -3.50965,-2.64477 v -7.05933 m 49.19162,-0.009 c 0.18572,-2.35269 -1.34385,-4.54788 -3.53014,-5.3595 -3.59586,-1.47477 -7.52728,-1.81082 -11.33538,-2.40536 -10.49136,-1.3403 -21.08205,-1.49229 -31.63298,-1.98775 -1.78785,-0.16155 -3.03175,1.5385 -2.69312,3.20712 0,2.17873 0,4.35745 0,6.53618"
         inkscape:label="Run" />
      <path
         id="rect23099"
         style="opacity:0.98;fill:none;fill-opacity:0.5;stroke:#f4f4f4;stroke-width:1.2;stroke-miterlimit:4;stroke-dasharray:none;stroke-opacity:1"
         transform="rotate(25.743613)"
         d="m 320.41821,-122.87506 v -3.79076 c 0,-2.74037 2.20615,-4.94652 4.94651,-4.94652 h 55.10699 c 2.74037,0 4.94651,2.20615 4.94651,4.94652 v 3.40246"
         sodipodi:nodetypes="cssssc"
         inkscape:label="Shoulder Button" />
      <g
         id="g27860"
         inkscape:label="D-Pad">
        <circle
           style="display:inline;opacity:0.98;fill:none;fill-opacity:0.5;stroke:#f4f4f4;stroke-width:1.2;stroke-miterlimit:4;stroke-dasharray:none;stroke-opacity:1"
           id="path5043"
           cx="118.55859"
           cy="127.39818"
           r="45.5"
           inkscape:label="D-Pad Circle" />
        <path
           id="path26730"
           style="display:inline;opacity:0.98;fill:none;fill-opacity:0.5;stroke:#f4f4f4;stroke-width:1.2;stroke-miterlimit:4;stroke-dasharray:none;stroke-opacity:1"
           d="m 107.97588,83.971093 v 27.346587 c -0.063,5.8383 -4.12167,6.53995 -9.01116,6.63621 H 73.72893 m 34.24695,53 v -27.34658 c -0.063,-5.8383 -4.12167,-6.53995 -9.01116,-6.63621 H 73.72893 m 55,33.98279 v -27.34658 c 0.063,-5.8383 4.12167,-6.53995 9.01116,-6.63621 h 25.23579 M 128.72893,83.971093 v 27.346587 c 0.063,5.8383 4.12167,6.53995 9.01116,6.63621 h 25.23579"
           inkscape:label="D-Pad" />
        <path
           sodipodi:type="star"
           style="opacity:0.98;fill:#f4f4f4;fill-opacity:1;stroke:none;stroke-width:1.87191;stroke-miterlimit:4;stroke-dasharray:none;stroke-opacity:1"
           id="path26942"
           inkscape:flatsided="false"
           sodipodi:sides="3"
           sodipodi:cx="118.48055"
           sodipodi:cy="94.397026"
           sodipodi:r1="5.6716247"
           sodipodi:r2="2.8358123"
           sodipodi:arg1="-1.5707963"
           sodipodi:arg2="-0.52359878"
           inkscape:rounded="0"
           inkscape:randomized="0"
           d="m 118.48055,88.725401 2.45589,4.253719 2.45588,4.253719 -4.91177,-10e-7 -4.91177,0 2.45589,-4.253718 z"
           inkscape:transform-center-y="-1.4179062"
           transform="matrix(1.0684272,0,0,1.0684273,-7.8521328,-4.6029501)"
           inkscape:label="Up" />
        <path
           sodipodi:type="star"
           style="opacity:0.98;fill:#f4f4f4;fill-opacity:1;stroke:none;stroke-width:1.87191;stroke-miterlimit:4;stroke-dasharray:none;stroke-opacity:1"
           id="path27060"
           inkscape:flatsided="false"
           sodipodi:sides="3"
           sodipodi:cx="118.48055"
           sodipodi:cy="94.397026"
           sodipodi:r1="5.6716247"
           sodipodi:r2="2.8358123"
           sodipodi:arg1="-1.5707963"
           sodipodi:arg2="-0.52359878"
           inkscape:rounded="0"
           inkscape:randomized="0"
           d="m 118.48055,88.725401 2.45589,4.253719 2.45588,4.253719 -4.91177,-10e-7 -4.91177,0 2.45589,-4.253718 z"
           inkscape:transform-center-y="1.4179073"
           transform="matrix(1.0684272,0,0,-1.0684273,-7.8521328,262.0799)"
           inkscape:label="Down" />
        <path
           sodipodi:type="star"
           style="opacity:0.98;fill:#f4f4f4;fill-opacity:1;stroke:none;stroke-width:1.87191;stroke-miterlimit:4;stroke-dasharray:none;stroke-opacity:1"
           id="path27160"
           inkscape:flatsided="false"
           sodipodi:sides="3"
           sodipodi:cx="118.48055"
           sodipodi:cy="94.397026"
           sodipodi:r1="5.6716247"
           sodipodi:r2="2.8358123"
           sodipodi:arg1="-1.5707963"
           sodipodi:arg2="-0.52359878"
           inkscape:rounded="0"
           inkscape:randomized="0"
           d="m 118.48055,88.725401 2.45589,4.253719 2.45588,4.253719 -4.91177,-10e-7 -4.91177,0 2.45589,-4.253718 z"
           transform="matrix(0,1.0684272,-1.0684273,0,251.49504,1.5685408)"
           inkscape:transform-center-x="-1.4179081"
           inkscape:label="Right" />
        <path
           sodipodi:type="star"
           style="opacity:0.98;fill:#f4f4f4;fill-opacity:1;stroke:none;stroke-width:1.87191;stroke-miterlimit:4;stroke-dasharray:none;stroke-opacity:1"
           id="path27162"
           inkscape:flatsided="false"
           sodipodi:sides="3"
           sodipodi:cx="118.48055"
           sodipodi:cy="94.397026"
           sodipodi:r1="5.6716247"
           sodipodi:r2="2.8358123"
           sodipodi:arg1="-1.5707963"
           sodipodi:arg2="-0.52359878"
           inkscape:rounded="0"
           inkscape:randomized="0"
           d="m 118.48055,88.725401 2.45589,4.253719 2.45588,4.253719 -4.91177,-10e-7 -4.91177,0 2.45589,-4.253718 z"
           transform="matrix(0,1.0684272,1.0684273,0,-13.63003,1.9770006)"
           inkscape:transform-center-x="1.4179082"
           inkscape:label="Left" />
        <ellipse
           style="opacity:0.98;fill:none;fill-opacity:1;stroke:#f4f4f4;stroke-width:0.6;stroke-miterlimit:4;stroke-dasharray:none;stroke-opacity:1"
           id="path27740"
           cx="118.50343"
           cy="127.24286"
           rx="6.5"
           ry="6.5000005"
           inkscape:label="D-Pad Circle" />
      </g>
    </g>
    <text
       xml:space="preserve"
       style="font-size:2.66667px;line-height:1.25;font-family:TrasksHand;-inkscape-font-specification:TrasksHand;fill:#f4f4f4;fill-opacity:0.5"
       x="254.47336"
       y="220.98044"
       id="text29171"
       inkscape:label="Signature"><tspan
         sodipodi:role="line"
         id="tspan29169"
         x="254.47336"
         y="220.98044">John Loreth 2022</tspan></text>
  </g>
</svg>
