<?xml version="1.0" encoding="UTF-8" standalone="no"?>
<!-- Created with Inkscape (http://www.inkscape.org/) -->

<svg
   version="1.1"
   id="svg4298"
   width="1054.8535"
   height="363.69339"
   viewBox="0 0 949.36816 327.32404"
   sodipodi:docname="macintosh.svg"
   inkscape:version="1.1.2 (0a00cf5339, 2022-02-04)"
   xmlns:inkscape="http://www.inkscape.org/namespaces/inkscape"
   xmlns:sodipodi="http://sodipodi.sourceforge.net/DTD/sodipodi-0.dtd"
   xmlns="http://www.w3.org/2000/svg"
   xmlns:svg="http://www.w3.org/2000/svg">
  <defs
     id="defs4302" />
  <sodipodi:namedview
     id="namedview4300"
     pagecolor="#000000"
     bordercolor="#111111"
     borderopacity="1"
     inkscape:pageshadow="0"
     inkscape:pageopacity="0"
     inkscape:pagecheckerboard="1"
     showgrid="false"
     showguides="true"
     inkscape:guide-bbox="true"
     inkscape:zoom="0.7421875"
     inkscape:cx="937.76842"
     inkscape:cy="283.62105"
     inkscape:window-width="1366"
     inkscape:window-height="703"
     inkscape:window-x="0"
     inkscape:window-y="0"
     inkscape:window-maximized="1"
     inkscape:current-layer="layer2"
     fit-margin-top="0"
     fit-margin-left="0"
     fit-margin-right="0"
     fit-margin-bottom="0"
     scale-x="0.9">
    <sodipodi:guide
       position="370.794,314.78078"
       orientation="0,-1"
       id="guide4365" />
    <sodipodi:guide
       position="0.79999897,323.78411"
       orientation="1,0"
       id="guide4367" />
    <sodipodi:guide
       position="346.5607,263.94277"
       orientation="1,0"
       id="guide4653" />
    <sodipodi:guide
       position="78.848951,401.26952"
       orientation="1,0"
       id="guide5063" />
    <sodipodi:guide
       position="79.257587,382.30575"
       orientation="0,-1"
       id="guide5065" />
    <sodipodi:guide
       position="632.57377,488.03051"
       orientation="1,0"
       id="guide5593" />
    <sodipodi:guide
       position="556.03291,371.03051"
       orientation="1,0"
       id="guide6273" />
    <sodipodi:guide
       position="835.5373,340.50458"
       orientation="0,-1"
       id="guide6755" />
    <sodipodi:guide
       position="787.43936,235.0645"
       orientation="1,0"
       id="guide6989" />
  </sodipodi:namedview>
  <text
     xml:space="preserve"
     style="font-size:2.4px;line-height:1.25;font-family:TrasksHand;-inkscape-font-specification:TrasksHand;fill:#f4f4f4;fill-opacity:0.5;stroke-width:0.9;stroke-miterlimit:4;stroke-dasharray:none"
     x="844.11926"
     y="256.37308"
     id="text18039"
     inkscape:label="Signature"><tspan
       sodipodi:role="line"
       id="tspan18037"
       style="fill:#f4f4f4;fill-opacity:0.5;stroke-width:0.9;stroke-miterlimit:4;stroke-dasharray:none"
       x="844.11926"
       y="256.37308">John Loreth 2022</tspan></text>
  <g
     id="g19745"
     inkscape:label="Body"
     transform="translate(-0.10000002,-0.10000002)">
    <rect
       style="fill:none;fill-opacity:0.5;stroke:#f4f4f4;stroke-width:1.8;stroke-linecap:round;stroke-miterlimit:4;stroke-dasharray:none;stroke-opacity:1"
       id="rect4415"
       width="768.26965"
       height="325.52405"
       x="1"
       y="1"
       ry="13.252669"
       rx="13.252667"
       inkscape:label="Body Outline" />
    <path
       style="font-style:normal;font-variant:normal;font-weight:normal;font-stretch:normal;font-size:144px;line-height:100%;font-family:Helvetica;text-align:start;writing-mode:lr-tb;text-anchor:start;fill:none;fill-opacity:1;stroke:#f4f4f4;stroke-width:0.9;stroke-linecap:butt;stroke-linejoin:miter;stroke-miterlimit:4;stroke-dasharray:none;stroke-opacity:1"
       d="m 852.60266,240.33121 c 0.49269,2e-5 1.08722,0.10737 1.78357,0.32207 0.70291,0.21472 1.16934,0.32208 1.39927,0.32206 0.29561,2e-5 0.77845,-0.12119 1.44853,-0.36362 0.67006,-0.2424 1.25145,-0.3636 1.74415,-0.36362 0.80802,2e-5 1.52736,0.22858 2.15803,0.68569 0.35472,0.2632 0.70618,0.61991 1.05437,1.07009 -0.52555,0.47099 -0.90986,0.89002 -1.15291,1.25711 -0.44016,0.66492 -0.66023,1.39909 -0.66022,2.20253 -10e-6,0.87963 0.2332,1.67266 0.69965,2.37913 0.46639,0.70649 0.99851,1.15321 1.59632,1.34023 -0.24965,0.8519 -0.6635,1.74192 -1.24159,2.67004 -0.87373,1.39216 -1.74088,2.08824 -2.60146,2.08824 -0.3416,0 -0.8146,-0.11428 -1.41896,-0.34285 -0.59783,-0.22857 -1.10366,-0.34284 -1.51752,-0.34284 -0.41387,0 -0.89672,0.11774 -1.44853,0.35323 -0.54526,0.24242 -0.98869,0.36364 -1.33029,0.36364 -1.03139,0 -2.04307,-0.9212 -3.03503,-2.76356 -0.99197,-1.82158 -1.48795,-3.60853 -1.48795,-5.36086 0,-1.62765 0.37774,-2.95402 1.13321,-3.97909 0.76204,-1.02506 1.72116,-1.5376 2.87736,-1.53762 m 6.20801,-4.09337 c 0.0263,0.0901 0.0427,0.1697 0.0492,0.23895 0.007,0.0693 0.01,0.13855 0.01,0.20779 -10e-6,0.4433 -0.0985,0.92813 -0.29563,1.4545 -0.19709,0.5264 -0.50913,1.0147 -0.93612,1.46488 -0.36789,0.38096 -0.73248,0.63722 -1.09379,0.76881 -0.22994,0.0762 -0.57811,0.13507 -1.04452,0.17661 0.0132,-1.05276 0.27262,-1.96355 0.77846,-2.73237 0.51239,-0.76878 1.35656,-1.29519 2.53248,-1.57917"
       id="path7600"
       inkscape:label="Apple Logo" />
    <rect
       style="fill:none;fill-opacity:0.5;stroke:#f4f4f4;stroke-width:0.9;stroke-linecap:round;stroke-miterlimit:4;stroke-dasharray:none;stroke-opacity:1"
       id="rect7598"
       width="23.9"
       height="23.9"
       x="843.64215"
       y="233.35072"
       inkscape:label="Apple Logo Outline" />
  </g>
  <g
     inkscape:groupmode="layer"
     id="layer1"
     inkscape:label="Mouse"
     transform="translate(-14.820101,-147.08445)">
    <path
       style="font-style:normal;font-variant:normal;font-weight:normal;font-stretch:normal;font-size:144px;line-height:100%;font-family:Helvetica;text-align:start;writing-mode:lr-tb;text-anchor:start;fill:none;fill-opacity:1;stroke:#f4f4f4;stroke-width:0.9;stroke-linecap:butt;stroke-linejoin:miter;stroke-miterlimit:4;stroke-dasharray:none;stroke-opacity:1"
       d="m 89.212164,391.16784 c 0.721513,2e-5 1.592151,0.15724 2.611916,0.47164 1.02937,0.31445 1.71242,0.47167 2.04914,0.47165 0.4329,2e-5 1.13999,-0.17748 2.12128,-0.5325 0.98126,-0.35499 1.83267,-0.53248 2.5542,-0.53251 1.18329,3e-5 2.23672,0.33475 3.16029,1.00416 0.51947,0.38544 1.03416,0.90781 1.54406,1.56707 -0.76964,0.68974 -1.33243,1.30338 -1.68837,1.84096 -0.64458,0.97373 -0.96686,2.04888 -0.96684,3.22546 -2e-5,1.28816 0.3415,2.44951 1.02458,3.48409 0.68301,1.0346 1.46226,1.6888 2.33772,1.96267 -0.3656,1.24756 -0.97166,2.55093 -1.81824,3.9101 -1.27952,2.03873 -2.5494,3.05809 -3.80966,3.05809 -0.50026,0 -1.19293,-0.16735 -2.07798,-0.50208 -0.87548,-0.33472 -1.61624,-0.50206 -2.22231,-0.50207 -0.60609,1e-5 -1.31319,0.17243 -2.12127,0.51729 -0.7985,0.35501 -1.447877,0.53252 -1.948134,0.53252 -1.510396,0 -2.991933,-1.34903 -4.444599,-4.04705 -1.452677,-2.66758 -2.179005,-5.28445 -2.179005,-7.85063 0,-2.38359 0.55317,-4.32597 1.65951,-5.82712 1.115955,-1.50114 2.520525,-2.25172 4.213712,-2.25174 m 9.091226,-5.99448 c 0.0385,0.13189 0.0625,0.24852 0.0721,0.34993 0.01,0.10146 0.0145,0.20289 0.0145,0.30429 -1e-5,0.64918 -0.14432,1.35919 -0.43292,2.13002 -0.28863,0.77089 -0.74559,1.48596 -1.3709,2.14523 -0.53875,0.55788 -1.07267,0.93316 -1.60178,1.12587 -0.33673,0.11159 -0.84661,0.1978 -1.52963,0.25863 0.0194,-1.5417 0.39923,-2.87549 1.14,-4.00137 0.75037,-1.12584 1.9866,-1.89673 3.70865,-2.3126"
       id="p4"
       inkscape:label="Apple Logo" />
    <rect
       style="fill:none;fill-opacity:0.5;stroke:#f4f4f4;stroke-width:0.9;stroke-linecap:round;stroke-miterlimit:4;stroke-dasharray:none;stroke-opacity:1"
       id="rect4879"
       width="35"
       height="35"
       x="76.09005"
       y="380.9454"
       inkscape:label="Apple Logo Outline" />
    <rect
       style="fill:none;fill-opacity:0.5;stroke:#f4f4ec;stroke-width:2;stroke-linecap:round;stroke-miterlimit:4;stroke-dasharray:none;stroke-opacity:1"
       id="rect7013"
       width="85.381287"
       height="60.673485"
       x="851.1955"
       y="251.48811"
       ry="5.5507884"
       rx="5.5507884"
       inkscape:label="Mouse Button" />
    <rect
       style="display:inline;fill:none;fill-opacity:0.5;stroke:#f4f4f4;stroke-width:0.9;stroke-linecap:round;stroke-miterlimit:4;stroke-dasharray:none;stroke-opacity:1"
       id="rect7117"
       width="113.47762"
       height="144.13069"
       x="837.13147"
       y="270.61908"
       ry="4.5794468"
       inkscape:label="Mouse Bevel"
       rx="4.5794468" />
    <path
       id="rect8174"
       style="fill:none;fill-opacity:1;stroke:#f4f4ec;stroke-width:2;stroke-linecap:round;stroke-miterlimit:4;stroke-dasharray:none;stroke-opacity:1"
       d="m 876.18823,235.1302 c -0.72311,0 -1.30664,0.58352 -1.30664,1.30664 0,0.17925 0.0367,0.34869 0.10157,0.5039 h -4.55274 c -0.72311,0 -1.30469,0.58157 -1.30469,1.30469 0,0.3429 0.1329,0.65231 0.34766,0.88477 h -30.98828 c -7.38322,0 -13.32813,5.94491 -13.32813,13.32812 v 179.14063 c 0,7.38321 5.94491,13.32812 13.32813,13.32812 h 111.375 c 7.38321,0 13.32812,-5.94491 13.32812,-13.32812 V 252.45832 c 0,-7.38321 -5.94491,-13.32812 -13.32812,-13.32812 h -31.0918 c 0.21487,-0.23248 0.34961,-0.54178 0.34961,-0.88477 0,-0.72312 -0.58352,-1.30469 -1.30664,-1.30469 h -4.4375 c 0.0648,-0.15521 0.10156,-0.32465 0.10156,-0.5039 0,-0.72312 -0.58352,-1.30664 -1.30664,-1.30664 z"
       inkscape:label="Mouse Outline" />
  </g>
  <g
     inkscape:groupmode="layer"
     id="layer2"
     inkscape:label="Keyboard"
     transform="translate(-14.820101,-147.08445)">
    <g
       id="g5453"
       inkscape:label="ZXC Row"
       style="stroke:#f4f4f4;stroke-width:1.8;stroke-miterlimit:4;stroke-dasharray:none;stroke-opacity:1">
      <rect
         style="fill:none;fill-opacity:0.5;stroke:#f4f4f4;stroke-width:1.8;stroke-linecap:round;stroke-miterlimit:4;stroke-dasharray:none;stroke-opacity:1"
         id="rect5171"
         width="33"
         height="33"
         x="409.64557"
         y="336.00876"
         ry="4.2547359"
         rx="4.2547359" />
      <rect
         style="fill:none;fill-opacity:0.5;stroke:#f4f4f4;stroke-width:1.8;stroke-linecap:round;stroke-miterlimit:4;stroke-dasharray:none;stroke-opacity:1"
         id="rect5286"
         width="33"
         height="33"
         x="365.64557"
         y="336.00876"
         ry="4.2547359"
         rx="4.2547359" />
      <rect
         style="fill:none;fill-opacity:0.5;stroke:#f4f4f4;stroke-width:1.8;stroke-linecap:round;stroke-miterlimit:4;stroke-dasharray:none;stroke-opacity:1"
         id="rect5288"
         width="33"
         height="33"
         x="323.64557"
         y="336.00876"
         ry="4.2547359"
         rx="4.2547359" />
      <rect
         style="fill:none;fill-opacity:0.5;stroke:#f4f4f4;stroke-width:1.8;stroke-linecap:round;stroke-miterlimit:4;stroke-dasharray:none;stroke-opacity:1"
         id="rect5290"
         width="33"
         height="33"
         x="279.64557"
         y="336.00876"
         ry="4.2547359"
         rx="4.2547359" />
      <rect
         style="fill:none;fill-opacity:0.5;stroke:#f4f4f4;stroke-width:1.8;stroke-linecap:round;stroke-miterlimit:4;stroke-dasharray:none;stroke-opacity:1"
         id="rect5292"
         width="33"
         height="33"
         x="235.64557"
         y="336.00876"
         ry="4.2547359"
         rx="4.2547359" />
      <rect
         style="fill:none;fill-opacity:0.5;stroke:#f4f4f4;stroke-width:1.8;stroke-linecap:round;stroke-miterlimit:4;stroke-dasharray:none;stroke-opacity:1"
         id="rect5294"
         width="33"
         height="33"
         x="191.64557"
         y="336.00876"
         ry="4.2547359"
         rx="4.2547359" />
      <rect
         style="fill:none;fill-opacity:0.5;stroke:#f4f4f4;stroke-width:1.8;stroke-linecap:round;stroke-miterlimit:4;stroke-dasharray:none;stroke-opacity:1"
         id="rect5296"
         width="77"
         height="33"
         x="105.64557"
         y="336.00876"
         ry="4.2547359"
         rx="4.2547359" />
      <rect
         style="fill:none;fill-opacity:0.5;stroke:#f4f4f4;stroke-width:1.8;stroke-linecap:round;stroke-miterlimit:4;stroke-dasharray:none;stroke-opacity:1"
         id="rect5404"
         width="90.045403"
         height="33"
         x="627.64557"
         y="336.00876"
         ry="4.2547359"
         rx="4.2547359" />
      <rect
         style="fill:none;fill-opacity:0.5;stroke:#f4f4f4;stroke-width:1.8;stroke-linecap:round;stroke-miterlimit:4;stroke-dasharray:none;stroke-opacity:1"
         id="rect5406"
         width="33"
         height="33"
         x="585.64557"
         y="336.00876"
         ry="4.2547359"
         rx="4.2547359" />
      <rect
         style="fill:none;fill-opacity:0.5;stroke:#f4f4f4;stroke-width:1.8;stroke-linecap:round;stroke-miterlimit:4;stroke-dasharray:none;stroke-opacity:1"
         id="rect5408"
         width="33"
         height="33"
         x="541.64557"
         y="336.00876"
         ry="4.2547359"
         rx="4.2547359" />
      <rect
         style="fill:none;fill-opacity:0.5;stroke:#f4f4f4;stroke-width:1.8;stroke-linecap:round;stroke-miterlimit:4;stroke-dasharray:none;stroke-opacity:1"
         id="rect5410"
         width="33"
         height="33"
         x="497.64557"
         y="336.00876"
         ry="4.2547359"
         rx="4.2547359" />
      <rect
         style="fill:none;fill-opacity:0.5;stroke:#f4f4f4;stroke-width:1.8;stroke-linecap:round;stroke-miterlimit:4;stroke-dasharray:none;stroke-opacity:1"
         id="rect5412"
         width="33"
         height="33"
         x="453.64557"
         y="336.00876"
         ry="4.2547359"
         rx="4.2547359" />
    </g>
    <g
       id="g5481"
       inkscape:label="ASD Row"
       transform="translate(-22,-44)"
       style="stroke:#f4f4f4;stroke-width:1.8;stroke-miterlimit:4;stroke-dasharray:none;stroke-opacity:1">
      <rect
         style="fill:none;fill-opacity:0.5;stroke:#f4f4f4;stroke-width:1.8;stroke-linecap:round;stroke-miterlimit:4;stroke-dasharray:none;stroke-opacity:1"
         id="rect5455"
         width="33"
         height="33"
         x="409.64557"
         y="336.00876"
         ry="4.2547359"
         rx="4.2547359" />
      <rect
         style="fill:none;fill-opacity:0.5;stroke:#f4f4f4;stroke-width:1.8;stroke-linecap:round;stroke-miterlimit:4;stroke-dasharray:none;stroke-opacity:1"
         id="rect5457"
         width="33"
         height="33"
         x="365.64557"
         y="336.00876"
         ry="4.2547359"
         rx="4.2547359" />
      <rect
         style="fill:none;fill-opacity:0.5;stroke:#f4f4f4;stroke-width:1.8;stroke-linecap:round;stroke-miterlimit:4;stroke-dasharray:none;stroke-opacity:1"
         id="rect5459"
         width="33"
         height="33"
         x="323.64557"
         y="336.00876"
         ry="4.2547359"
         rx="4.2547359" />
      <rect
         style="fill:none;fill-opacity:0.5;stroke:#f4f4f4;stroke-width:1.8;stroke-linecap:round;stroke-miterlimit:4;stroke-dasharray:none;stroke-opacity:1"
         id="rect5461"
         width="33"
         height="33"
         x="279.64557"
         y="336.00876"
         ry="4.2547359"
         rx="4.2547359" />
      <rect
         style="fill:none;fill-opacity:0.5;stroke:#f4f4f4;stroke-width:1.8;stroke-linecap:round;stroke-miterlimit:4;stroke-dasharray:none;stroke-opacity:1"
         id="rect5463"
         width="33"
         height="33"
         x="235.64557"
         y="336.00876"
         ry="4.2547359"
         rx="4.2547359" />
      <rect
         style="fill:none;fill-opacity:0.5;stroke:#f4f4f4;stroke-width:1.8;stroke-linecap:round;stroke-miterlimit:4;stroke-dasharray:none;stroke-opacity:1"
         id="rect5465"
         width="33"
         height="33"
         x="191.64557"
         y="336.00876"
         ry="4.2547359"
         rx="4.2547359" />
      <rect
         style="fill:none;fill-opacity:0.5;stroke:#f4f4f4;stroke-width:1.8;stroke-linecap:round;stroke-miterlimit:4;stroke-dasharray:none;stroke-opacity:1"
         id="rect5467"
         width="55"
         height="33"
         x="127.64557"
         y="336.00876"
         ry="4.2547359"
         rx="4.2547359" />
      <rect
         style="fill:none;fill-opacity:0.5;stroke:#f4f4f4;stroke-width:1.8;stroke-linecap:round;stroke-miterlimit:4;stroke-dasharray:none;stroke-opacity:1"
         id="rect5469"
         width="68.045403"
         height="33"
         x="671.64557"
         y="336.00876"
         ry="4.2547359"
         rx="4.2547364" />
      <rect
         style="fill:none;fill-opacity:0.5;stroke:#f4f4f4;stroke-width:1.8;stroke-linecap:round;stroke-miterlimit:4;stroke-dasharray:none;stroke-opacity:1"
         id="rect5471"
         width="33"
         height="33"
         x="627.64557"
         y="336.00876"
         ry="4.2547359"
         rx="4.2547359" />
      <rect
         style="fill:none;fill-opacity:0.5;stroke:#f4f4f4;stroke-width:1.8;stroke-linecap:round;stroke-miterlimit:4;stroke-dasharray:none;stroke-opacity:1"
         id="rect5473"
         width="33"
         height="33"
         x="585.64557"
         y="336.00876"
         ry="4.2547359"
         rx="4.2547359" />
      <rect
         style="fill:none;fill-opacity:0.5;stroke:#f4f4f4;stroke-width:1.8;stroke-linecap:round;stroke-miterlimit:4;stroke-dasharray:none;stroke-opacity:1"
         id="rect5475"
         width="33"
         height="33"
         x="541.64557"
         y="336.00876"
         ry="4.2547359"
         rx="4.2547359" />
      <rect
         style="fill:none;fill-opacity:0.5;stroke:#f4f4f4;stroke-width:1.8;stroke-linecap:round;stroke-miterlimit:4;stroke-dasharray:none;stroke-opacity:1"
         id="rect5477"
         width="33"
         height="33"
         x="497.64557"
         y="336.00876"
         ry="4.2547359"
         rx="4.2547359" />
      <rect
         style="fill:none;fill-opacity:0.5;stroke:#f4f4f4;stroke-width:1.8;stroke-linecap:round;stroke-miterlimit:4;stroke-dasharray:none;stroke-opacity:1"
         id="rect5479"
         width="33"
         height="33"
         x="453.64557"
         y="336.00876"
         ry="4.2547359"
         rx="4.2547359" />
    </g>
    <g
       id="g5589"
       inkscape:label="QWE Row"
       transform="translate(-30.954594,-88)"
       style="stroke:#f4f4f4;stroke-width:1.8;stroke-miterlimit:4;stroke-dasharray:none;stroke-opacity:1">
      <rect
         style="fill:none;fill-opacity:0.5;stroke:#f4f4f4;stroke-width:1.8;stroke-linecap:round;stroke-miterlimit:4;stroke-dasharray:none;stroke-opacity:1"
         id="rect5563"
         width="33"
         height="33"
         x="409.64557"
         y="336.00876"
         ry="4.2547359"
         rx="4.2547359" />
      <rect
         style="fill:none;fill-opacity:0.5;stroke:#f4f4f4;stroke-width:1.8;stroke-linecap:round;stroke-miterlimit:4;stroke-dasharray:none;stroke-opacity:1"
         id="rect5565"
         width="33"
         height="33"
         x="365.64557"
         y="336.00876"
         ry="4.2547359"
         rx="4.2547359" />
      <rect
         style="fill:none;fill-opacity:0.5;stroke:#f4f4f4;stroke-width:1.8;stroke-linecap:round;stroke-miterlimit:4;stroke-dasharray:none;stroke-opacity:1"
         id="rect5567"
         width="33"
         height="33"
         x="323.64557"
         y="336.00876"
         ry="4.2547359"
         rx="4.2547359" />
      <rect
         style="fill:none;fill-opacity:0.5;stroke:#f4f4f4;stroke-width:1.8;stroke-linecap:round;stroke-miterlimit:4;stroke-dasharray:none;stroke-opacity:1"
         id="rect5569"
         width="33"
         height="33"
         x="279.64557"
         y="336.00876"
         ry="4.2547359"
         rx="4.2547359" />
      <rect
         style="fill:none;fill-opacity:0.5;stroke:#f4f4f4;stroke-width:1.8;stroke-linecap:round;stroke-miterlimit:4;stroke-dasharray:none;stroke-opacity:1"
         id="rect5571"
         width="33"
         height="33"
         x="235.64557"
         y="336.00876"
         ry="4.2547359"
         rx="4.2547359" />
      <rect
         style="fill:none;fill-opacity:0.5;stroke:#f4f4f4;stroke-width:1.8;stroke-linecap:round;stroke-miterlimit:4;stroke-dasharray:none;stroke-opacity:1"
         id="rect5573"
         width="33"
         height="33"
         x="191.64557"
         y="336.00876"
         ry="4.2547359"
         rx="4.2547359" />
      <rect
         style="fill:none;fill-opacity:0.5;stroke:#f4f4f4;stroke-width:1.8;stroke-linecap:round;stroke-miterlimit:4;stroke-dasharray:none;stroke-opacity:1"
         id="rect5575"
         width="46.045406"
         height="33"
         x="136.60016"
         y="336.00876"
         ry="4.2547359"
         rx="4.2547359" />
      <rect
         style="fill:none;fill-opacity:0.5;stroke:#f4f4f4;stroke-width:1.8;stroke-linecap:round;stroke-miterlimit:4;stroke-dasharray:none;stroke-opacity:1"
         id="rect5577"
         width="33"
         height="33"
         x="671.64557"
         y="336.00876"
         ry="4.2547359"
         rx="4.2547359" />
      <rect
         style="fill:none;fill-opacity:0.5;stroke:#f4f4f4;stroke-width:1.8;stroke-linecap:round;stroke-miterlimit:4;stroke-dasharray:none;stroke-opacity:1"
         id="rect5579"
         width="33"
         height="33"
         x="627.64557"
         y="336.00876"
         ry="4.2547359"
         rx="4.2547359" />
      <rect
         style="fill:none;fill-opacity:0.5;stroke:#f4f4f4;stroke-width:1.8;stroke-linecap:round;stroke-miterlimit:4;stroke-dasharray:none;stroke-opacity:1"
         id="rect5581"
         width="33"
         height="33"
         x="585.64557"
         y="336.00876"
         ry="4.2547359"
         rx="4.2547359" />
      <rect
         style="fill:none;fill-opacity:0.5;stroke:#f4f4f4;stroke-width:1.8;stroke-linecap:round;stroke-miterlimit:4;stroke-dasharray:none;stroke-opacity:1"
         id="rect5583"
         width="33"
         height="33"
         x="541.64557"
         y="336.00876"
         ry="4.2547359"
         rx="4.2547359" />
      <rect
         style="fill:none;fill-opacity:0.5;stroke:#f4f4f4;stroke-width:1.8;stroke-linecap:round;stroke-miterlimit:4;stroke-dasharray:none;stroke-opacity:1"
         id="rect5585"
         width="33"
         height="33"
         x="497.64557"
         y="336.00876"
         ry="4.2547359"
         rx="4.2547359" />
      <rect
         style="fill:none;fill-opacity:0.5;stroke:#f4f4f4;stroke-width:1.8;stroke-linecap:round;stroke-miterlimit:4;stroke-dasharray:none;stroke-opacity:1"
         id="rect5587"
         width="33"
         height="33"
         x="453.64557"
         y="336.00876"
         ry="4.2547359"
         rx="4.2547359" />
      <rect
         style="fill:none;fill-opacity:0.5;stroke:#f4f4f4;stroke-width:1.8;stroke-linecap:round;stroke-miterlimit:4;stroke-dasharray:none;stroke-opacity:1"
         id="rect5591"
         width="33"
         height="33"
         x="715.64557"
         y="336.00876"
         ry="4.2547359"
         rx="4.2547359" />
    </g>
    <g
       id="g5761"
       inkscape:label="Number Row"
       transform="translate(-41.999999,-132)"
       style="stroke:#f4f4f4;stroke-width:1.8;stroke-miterlimit:4;stroke-dasharray:none;stroke-opacity:1">
      <rect
         style="fill:none;fill-opacity:0.5;stroke:#f4f4f4;stroke-width:1.8;stroke-linecap:round;stroke-miterlimit:4;stroke-dasharray:none;stroke-opacity:1"
         id="rect5733"
         width="33"
         height="33"
         x="409.64557"
         y="336.00876"
         ry="4.2547359"
         rx="4.2547359" />
      <rect
         style="fill:none;fill-opacity:0.5;stroke:#f4f4f4;stroke-width:1.8;stroke-linecap:round;stroke-miterlimit:4;stroke-dasharray:none;stroke-opacity:1"
         id="rect5735"
         width="33"
         height="33"
         x="365.64557"
         y="336.00876"
         ry="4.2547359"
         rx="4.2547359" />
      <rect
         style="fill:none;fill-opacity:0.5;stroke:#f4f4f4;stroke-width:1.8;stroke-linecap:round;stroke-miterlimit:4;stroke-dasharray:none;stroke-opacity:1"
         id="rect5737"
         width="33"
         height="33"
         x="323.64557"
         y="336.00876"
         ry="4.2547359"
         rx="4.2547359" />
      <rect
         style="fill:none;fill-opacity:0.5;stroke:#f4f4f4;stroke-width:1.8;stroke-linecap:round;stroke-miterlimit:4;stroke-dasharray:none;stroke-opacity:1"
         id="rect5739"
         width="33"
         height="33"
         x="279.64557"
         y="336.00876"
         ry="4.2547359"
         rx="4.2547359" />
      <rect
         style="fill:none;fill-opacity:0.5;stroke:#f4f4f4;stroke-width:1.8;stroke-linecap:round;stroke-miterlimit:4;stroke-dasharray:none;stroke-opacity:1"
         id="rect5741"
         width="33"
         height="33"
         x="235.64557"
         y="336.00876"
         ry="4.2547359"
         rx="4.2547359" />
      <rect
         style="fill:none;fill-opacity:0.5;stroke:#f4f4f4;stroke-width:1.8;stroke-linecap:round;stroke-miterlimit:4;stroke-dasharray:none;stroke-opacity:1"
         id="rect5743"
         width="33"
         height="33"
         x="191.64557"
         y="336.00876"
         ry="4.2547359"
         rx="4.2547359" />
      <rect
         style="fill:none;fill-opacity:0.5;stroke:#f4f4f4;stroke-width:1.8;stroke-linecap:round;stroke-miterlimit:4;stroke-dasharray:none;stroke-opacity:1"
         id="rect5747"
         width="33"
         height="33"
         x="671.64557"
         y="336.00876"
         ry="4.2547359"
         rx="4.2547359" />
      <rect
         style="fill:none;fill-opacity:0.5;stroke:#f4f4f4;stroke-width:1.8;stroke-linecap:round;stroke-miterlimit:4;stroke-dasharray:none;stroke-opacity:1"
         id="rect5749"
         width="33"
         height="33"
         x="627.64557"
         y="336.00876"
         ry="4.2547359"
         rx="4.2547359" />
      <rect
         style="fill:none;fill-opacity:0.5;stroke:#f4f4f4;stroke-width:1.8;stroke-linecap:round;stroke-miterlimit:4;stroke-dasharray:none;stroke-opacity:1"
         id="rect5751"
         width="33"
         height="33"
         x="585.64557"
         y="336.00876"
         ry="4.2547359"
         rx="4.2547359" />
      <rect
         style="fill:none;fill-opacity:0.5;stroke:#f4f4f4;stroke-width:1.8;stroke-linecap:round;stroke-miterlimit:4;stroke-dasharray:none;stroke-opacity:1"
         id="rect5753"
         width="33"
         height="33"
         x="541.64557"
         y="336.00876"
         ry="4.2547359"
         rx="4.2547359" />
      <rect
         style="fill:none;fill-opacity:0.5;stroke:#f4f4f4;stroke-width:1.8;stroke-linecap:round;stroke-miterlimit:4;stroke-dasharray:none;stroke-opacity:1"
         id="rect5755"
         width="33"
         height="33"
         x="497.64557"
         y="336.00876"
         ry="4.2547359"
         rx="4.2547359" />
      <rect
         style="fill:none;fill-opacity:0.5;stroke:#f4f4f4;stroke-width:1.8;stroke-linecap:round;stroke-miterlimit:4;stroke-dasharray:none;stroke-opacity:1"
         id="rect5757"
         width="33"
         height="33"
         x="453.64557"
         y="336.00876"
         ry="4.2547359"
         rx="4.2547359" />
      <rect
         style="fill:none;fill-opacity:0.5;stroke:#f4f4f4;stroke-width:1.8;stroke-linecap:round;stroke-miterlimit:4;stroke-dasharray:none;stroke-opacity:1"
         id="rect5843"
         width="33"
         height="33"
         x="147.64557"
         y="336.00876"
         ry="4.2547359"
         rx="4.2547359" />
      <rect
         style="fill:none;fill-opacity:0.5;stroke:#f4f4f4;stroke-width:1.8;stroke-linecap:round;stroke-miterlimit:4;stroke-dasharray:none;stroke-opacity:1"
         id="rect5925"
         width="44.045399"
         height="33"
         x="715.64557"
         y="336.00876"
         ry="4.2547359"
         rx="4.2547359" />
    </g>
    <g
       id="g6031"
       inkscape:label="Spacebar Row"
       transform="translate(8,42)"
       style="stroke:#f4f4f4;stroke-width:1.8;stroke-miterlimit:4;stroke-dasharray:none;stroke-opacity:1">
      <rect
         style="fill:none;fill-opacity:0.5;stroke:#f4f4f4;stroke-width:1.8;stroke-linecap:round;stroke-miterlimit:4;stroke-dasharray:none;stroke-opacity:1"
         id="rect6015"
         width="319.69476"
         height="33"
         x="235.64557"
         y="336.00876"
         ry="4.2547359"
         rx="4.2547359" />
      <rect
         style="fill:none;fill-opacity:0.5;stroke:#f4f4f4;stroke-width:1.8;stroke-linecap:round;stroke-miterlimit:4;stroke-dasharray:none;stroke-opacity:1"
         id="rect6023"
         width="33"
         height="33"
         x="635.64557"
         y="336.00876"
         ry="4.2547359"
         rx="4.2547359" />
      <rect
         style="fill:none;fill-opacity:0.5;stroke:#f4f4f4;stroke-width:1.8;stroke-linecap:round;stroke-miterlimit:4;stroke-dasharray:none;stroke-opacity:1"
         id="rect6025"
         width="57.000004"
         height="33"
         x="567.64557"
         y="336.00876"
         ry="4.2547359"
         rx="4.2547359" />
      <rect
         style="fill:none;fill-opacity:0.5;stroke:#f4f4f4;stroke-width:1.8;stroke-linecap:round;stroke-miterlimit:4;stroke-dasharray:none;stroke-opacity:1"
         id="rect6355"
         width="33"
         height="33"
         x="123.64557"
         y="336.00876"
         ry="4.2547359"
         rx="4.2547359" />
      <rect
         style="fill:none;fill-opacity:0.5;stroke:#f4f4f4;stroke-width:1.8;stroke-linecap:round;stroke-miterlimit:4;stroke-dasharray:none;stroke-opacity:1"
         id="rect6439"
         width="57"
         height="33"
         x="167.64555"
         y="336.00876"
         ry="4.2547359"
         rx="4.2547359" />
    </g>
  </g>
</svg>
