<?xml version="1.0" encoding="UTF-8" standalone="no"?>
<!-- Created with Inkscape (http://www.inkscape.org/) -->

<svg
   version="1.1"
   id="svg870"
   width="228.17477"
   height="350.70172"
   viewBox="0 0 638.88937 981.96482"
   sodipodi:docname="megaduck.svg"
   inkscape:version="1.1.2 (0a00cf5339, 2022-02-04)"
   xmlns:inkscape="http://www.inkscape.org/namespaces/inkscape"
   xmlns:sodipodi="http://sodipodi.sourceforge.net/DTD/sodipodi-0.dtd"
   xmlns="http://www.w3.org/2000/svg"
   xmlns:svg="http://www.w3.org/2000/svg">
  <defs
     id="defs874" />
  <sodipodi:namedview
     id="namedview872"
     pagecolor="#000000"
     bordercolor="#111111"
     borderopacity="1"
     inkscape:pageshadow="0"
     inkscape:pageopacity="0"
     inkscape:pagecheckerboard="1"
     showgrid="false"
     showguides="true"
     inkscape:guide-bbox="true"
     inkscape:zoom="22.627418"
     inkscape:cx="167.6285"
     inkscape:cy="11.512582"
     inkscape:window-width="1366"
     inkscape:window-height="703"
     inkscape:window-x="0"
     inkscape:window-y="0"
     inkscape:window-maximized="1"
     inkscape:current-layer="svg870"
     fit-margin-top="0"
     fit-margin-left="0"
     fit-margin-right="0"
     fit-margin-bottom="0"
     scale-x="2.8">
    <sodipodi:guide
       position="1836.5942,453.70015"
       orientation="1,0"
       id="guide1145" />
    <sodipodi:guide
       position="893.77176,574.43987"
       orientation="1,0"
       id="guide1619" />
    <sodipodi:guide
       position="489.3273,196.8641"
       orientation="0,-1"
       id="guide2100" />
    <sodipodi:guide
       position="445.21274,-666.31733"
       orientation="1,0"
       id="guide3216" />
    <sodipodi:guide
       position="686.60281,-817.98952"
       orientation="0,-1"
       id="guide3218" />
  </sodipodi:namedview>
  <text
     xml:space="preserve"
     style="font-size:7.46668px;line-height:1.25;font-family:TrasksHand;-inkscape-font-specification:TrasksHand;fill:#f4f4f4;fill-opacity:0.5;stroke-width:2.8"
     x="438.09302"
     y="48.678616"
     id="text50348"
     inkscape:label="Signature"><tspan
       sodipodi:role="line"
       id="tspan50346"
       style="fill:#f4f4f4;fill-opacity:0.5;stroke-width:2.8"
       x="438.09302"
       y="48.678616">John Loreth 2022</tspan></text>
  <g
     inkscape:groupmode="layer"
     id="layer1"
     inkscape:label="Body"
     transform="translate(-9.07863,1.1001848)"
     style="display:inline">
    <path
       id="path17584"
       style="display:inline;fill:none;stroke:#f4f4f4;stroke-width:5.6;stroke-miterlimit:4;stroke-dasharray:none;stroke-opacity:1"
       d="m 121.5372,10.474293 v 24.54882 c -2.35318,1.51479 -3.76622,4.04669 -3.77149,6.75782 -7.8e-4,4.51082 3.82602,8.16796 8.54688,8.16797 4.72086,-1e-5 8.54765,-3.65715 8.54687,-8.16797 -0.009,-2.936 -1.66669,-5.64142 -4.34179,-7.08594 v -24.2207 m 502.333,130.994147 h -18.54882 c -1.51479,-2.35318 -4.04669,-3.76622 -6.75782,-3.77149 -4.51082,-7.8e-4 -8.16796,3.82602 -8.16797,8.54688 10e-6,4.72086 3.65715,8.54765 8.16797,8.54687 2.936,-0.009 5.64142,-1.66669 7.08594,-4.34179 h 18.2207 m -608.474609,0.5703 h 18.54882 c 1.51479,2.35318 4.04669,3.76622 6.75782,3.77149 4.51082,7.8e-4 8.16796,-3.82602 8.16797,-8.54688 -10e-6,-4.72086 -3.65715,-8.54765 -8.16797,-8.54687 -2.936,0.009 -5.64142,1.66669 -7.08594,4.34179 h -18.2207 M 28.940534,371.927 h 18.54882 c 1.51479,2.35318 4.04669,3.76622 6.75782,3.77149 4.51082,7.8e-4 8.16796,-3.82602 8.16797,-8.54688 -10e-6,-4.72086 -3.65715,-8.54765 -8.16797,-8.54687 -2.936,0.009 -5.64142,1.66669 -7.08594,4.34179 h -18.2207 m 599.367326,-0.15797 h -18.54882 c -1.51479,-2.35318 -4.04669,-3.76622 -6.75782,-3.77149 -4.51082,-7.8e-4 -8.16796,3.82602 -8.16797,8.54688 10e-6,4.72086 3.65715,8.54765 8.16797,8.54687 2.936,-0.009 5.64142,-1.66669 7.08594,-4.34179 h 18.2207 M 253.68019,946.39005 a 8.546895,8.1666269 0 0 0 -8.54687,8.16797 8.546895,8.1666269 0 0 0 4.34179,7.08594 v 18.2207 h 8.98047 v -18.54882 a 8.546895,8.1666269 0 0 0 3.77149,-6.75782 8.546895,8.1666269 0 0 0 -8.54688,-8.16797 z m 74.84313,32.90545 c 61.25197,0.10126 123.30817,2.8368 182.02401,-5.36918 69.05377,-9.2087 122.9313,-37.36949 129.29168,-110.58588 6.88088,-104.75117 8.26779,-212.80983 6.3278,-322.87136 -1.55438,-18.9183 -9.34808,-37.81783 -11.16293,-62.40893 C 624.47844,400.71474 624.80931,326.03439 634.15431,253.56686 639.69748,198.89249 633.27294,135.75406 623.52288,74.878992 616.26278,28.592497 578.30892,19.392063 563.02513,15.41495 493.90526,4.3968936 407.93718,-0.32370436 328.76381,-0.0920712 251.41533,1.112533 163.14138,4.3968936 94.02151,15.41495 78.73772,19.392063 40.78386,28.592497 33.52376,74.878992 23.7737,135.75406 17.34916,198.89249 22.89233,253.56686 c 9.345,72.46753 9.67587,147.14788 -0.84957,224.49329 -1.81485,24.5911 -9.60855,43.49063 -11.16293,62.40893 -1.93999,110.06153 -0.55308,218.12019 6.3278,322.87136 6.36038,73.21639 60.23791,101.37718 129.29168,110.58588 58.71584,8.20598 120.77204,5.47044 182.02401,5.36918"
       inkscape:label="Body Outline" />
    <path
       id="rect1169"
       style="fill:none;stroke:#f4f4f4;stroke-width:5.6;stroke-miterlimit:4;stroke-dasharray:none;stroke-opacity:1"
       inkscape:label="Screen"
       d="m 172.20262,137.2751 h 312.76413 c 0.57497,0 1.03784,0.46288 1.03784,1.03784 v 282.50449 c 0,0.57496 -0.46287,1.03784 -1.03784,1.03784 H 172.20262 c -0.57496,0 -1.03784,-0.46288 -1.03784,-1.03784 V 138.31294 c 0,-0.57496 0.46288,-1.03784 1.03784,-1.03784 z" />
    <path
       style="fill:none;stroke:#f4f4f4;stroke-width:5.6;stroke-linecap:butt;stroke-linejoin:miter;stroke-miterlimit:4;stroke-dasharray:none;stroke-opacity:1"
       d="m 127.59628,87.543403 c 134.41779,-7.09508 269.26145,-5.119674 403.49787,4.59083 23.19948,2.999645 32.83037,25.608997 34.02216,46.533957 3.71463,54.10281 3.7012,110.19829 3.05923,165.41779 -0.67812,42.16137 -4.3823,85.58319 -20.18533,125.16241 -12.69183,29.16769 -45.93438,40.04457 -75.44153,41.42676 C 364.80209,482.95917 255.30476,481.52179 148.1101,465.04725 116.52262,458.20474 93.46832,428.42162 92.572621,396.41053 77.848357,303.23876 78.265546,126.86872 92.748184,114.69135 96.229347,98.571028 112.2532,89.378416 127.59628,87.543403 Z"
       id="path1249"
       sodipodi:nodetypes="cccccccccc"
       inkscape:label="Screen Bezel" />
    <path
       style="fill:none;stroke:#f4f4f4;stroke-width:2.8;stroke-linecap:butt;stroke-linejoin:miter;stroke-miterlimit:4;stroke-dasharray:none;stroke-opacity:1"
       d="m 355.45899,722.41571 c -9.86602,2.52757 -14.08855,5.07117 -16.14869,21.09123 0.6949,11.15705 5.36769,19.21203 16.74156,22.04134 96.26773,-2.88439 166.84329,-12.89526 228.55698,-25.36422 17.51873,-2.47823 20.17283,-41.97952 -12.02645,-38.74245 -72.59418,11.12409 -139.88136,20.38031 -217.1234,20.9741 z"
       id="path4725"
       sodipodi:nodetypes="cccccc"
       inkscape:label="Start-Select Indent" />
    <g
       id="g18241"
       inkscape:label="Speaker"
       style="fill:none;stroke:#f4f4f4;stroke-width:5.6;stroke-miterlimit:4;stroke-dasharray:none;stroke-opacity:1">
      <path
         id="rect7459"
         style="fill:none;stroke:#f4f4f4;stroke-width:5.6;stroke-miterlimit:4;stroke-dasharray:none;stroke-opacity:1"
         transform="rotate(-60)"
         d="m -581.25359,811.81451 h 83.4751 c 10.37151,0 18.72114,8.34963 18.72114,18.72115 0,10.37151 -8.34963,18.72114 -18.72114,18.72114 h -83.4751 c -10.37151,0 -18.72114,-8.34963 -18.72114,-18.72114 0,-10.37152 8.34963,-18.72115 18.72114,-18.72115 z" />
      <path
         id="rect7621"
         style="fill:none;stroke:#f4f4f4;stroke-width:5.6;stroke-miterlimit:4;stroke-dasharray:none;stroke-opacity:1"
         transform="rotate(-60)"
         d="m -543.04936,864.94373 h 83.47509 c 10.37151,0 18.72114,8.34963 18.72114,18.72114 0,10.37151 -8.34963,18.72114 -18.72114,18.72114 h -83.47509 c -10.37152,0 -18.72115,-8.34963 -18.72115,-18.72114 0,-10.37151 8.34963,-18.72114 18.72115,-18.72114 z" />
      <path
         id="rect7623"
         style="fill:none;stroke:#f4f4f4;stroke-width:5.6;stroke-miterlimit:4;stroke-dasharray:none;stroke-opacity:1"
         transform="rotate(-60)"
         d="m -615.94109,758.95459 h 83.4751 c 10.37151,0 18.72114,8.34963 18.72114,18.72114 0,10.37152 -8.34963,18.72115 -18.72114,18.72115 h -83.4751 c -10.37151,0 -18.72114,-8.34963 -18.72114,-18.72115 0,-10.37151 8.34963,-18.72114 18.72114,-18.72114 z" />
      <path
         id="rect7669"
         style="fill:none;stroke:#f4f4f4;stroke-width:5.6;stroke-miterlimit:4;stroke-dasharray:none;stroke-opacity:1"
         transform="rotate(-60)"
         d="m -507.29243,921.71051 h 15.23639 c 8.1411,0 14.69512,6.55402 14.69512,14.69512 0,8.1411 -6.55402,14.69512 -14.69512,14.69512 h -15.23639 c -8.14109,0 -14.69512,-6.55402 -14.69512,-14.69512 0,-8.1411 6.55403,-14.69512 14.69512,-14.69512 z" />
      <path
         id="rect7751"
         style="fill:none;stroke:#f4f4f4;stroke-width:5.6;stroke-miterlimit:4;stroke-dasharray:none;stroke-opacity:1"
         transform="rotate(-60)"
         d="m -578.3932,709.06158 h 15.23639 c 8.1411,0 14.69512,6.55403 14.69512,14.69513 0,8.14109 -6.55402,14.69512 -14.69512,14.69512 h -15.23639 c -8.14109,0 -14.69512,-6.55403 -14.69512,-14.69512 0,-8.1411 6.55403,-14.69513 14.69512,-14.69513 z" />
    </g>
    <path
       id="rect7827"
       style="display:inline;fill:none;stroke:#f4f4f4;stroke-width:2.8;stroke-miterlimit:4;stroke-dasharray:none;stroke-opacity:1"
       inkscape:label="Top Indent"
       d="m 160.1983,39.378571 h 339.67575 c 3.03727,0 5.48243,2.44516 5.48243,5.482421 0,3.037261 -2.44516,5.482421 -5.48243,5.482421 H 160.1983 c -3.03726,0 -5.48242,-2.44516 -5.48242,-5.482421 0,-3.037261 2.44516,-5.482421 5.48242,-5.482421 z" />
    <path
       id="path18091"
       style="fill:none;stroke:#f4f4f4;stroke-width:5.6;stroke-miterlimit:4;stroke-dasharray:none;stroke-opacity:1"
       inkscape:label="TR Circle"
       d="m 539.53546,46.43272 a 6.4941978,6.4941974 0 0 1 -6.4942,6.494198 6.4941978,6.4941974 0 0 1 -6.4942,-6.494198 6.4941978,6.4941974 0 0 1 6.4942,-6.494197 6.4941978,6.4941974 0 0 1 6.4942,6.494197 z" />
  </g>
  <g
     inkscape:groupmode="layer"
     id="layer2"
     inkscape:label="Buttons"
     transform="translate(-9.07863,1.1001848)">
    <path
       id="path14798"
       style="fill:none;stroke:#f4f4f4;stroke-width:5.6;stroke-miterlimit:4;stroke-dasharray:none;stroke-opacity:1"
       d="m 28.5301,307.93577 c -7.24568,2.19064 -12.98044,30.94736 -12.98044,66.10021 0,32.11344 4.78595,58.88899 11.13762,64.94922"
       sodipodi:nodetypes="csc"
       inkscape:label="Contrast" />
    <path
       id="path12283"
       style="fill:none;stroke:#f4f4f4;stroke-width:5.6;stroke-miterlimit:4;stroke-dasharray:none;stroke-opacity:1"
       d="m 628.83906,307.93577 c 7.24568,2.19064 12.98044,30.94736 12.98044,66.10021 0,32.11344 -4.78595,58.88899 -11.13762,64.94922"
       sodipodi:nodetypes="csc"
       inkscape:label="Volume" />
    <path
       id="path2490"
       style="fill:none;stroke:#f4f4f4;stroke-width:5.6;stroke-miterlimit:4;stroke-dasharray:none;stroke-opacity:1"
       inkscape:label="B"
       d="m 447.64305,602.11121 a 43.438648,43.438648 0 0 1 -43.43864,43.43864 43.438648,43.438648 0 0 1 -43.43865,-43.43864 43.438648,43.438648 0 0 1 43.43865,-43.43865 43.438648,43.438648 0 0 1 43.43864,43.43865 z" />
    <path
       id="circle2652"
       style="fill:none;stroke:#f4f4f4;stroke-width:5.6;stroke-miterlimit:4;stroke-dasharray:none;stroke-opacity:1"
       inkscape:label="A"
       d="m 577.48449,586.55914 a 43.438648,43.438648 0 0 1 -43.43865,43.43865 43.438648,43.438648 0 0 1 -43.43865,-43.43865 43.438648,43.438648 0 0 1 43.43865,-43.43865 43.438648,43.438648 0 0 1 43.43865,43.43865 z" />
    <path
       id="rect2718"
       style="fill:none;stroke:#f4f4f4;stroke-width:5.6;stroke-miterlimit:4;stroke-dasharray:none;stroke-opacity:1"
       inkscape:label="Start"
       transform="rotate(-8)"
       d="m 379.74776,786.09235 h 91.79153 c 4.32857,0 7.81331,3.48473 7.81331,7.81331 0,4.32857 -3.48474,7.81331 -7.81331,7.81331 h -91.79153 c -4.32858,0 -7.81331,-3.48474 -7.81331,-7.81331 0,-4.32858 3.48473,-7.81331 7.81331,-7.81331 z" />
    <path
       id="rect2902"
       style="fill:none;stroke:#f4f4f4;stroke-width:5.6;stroke-miterlimit:4;stroke-dasharray:none;stroke-opacity:1"
       inkscape:label="Select"
       transform="rotate(-3)"
       d="m 318.8293,753.22607 h 91.79153 c 4.32858,0 7.81331,3.48474 7.81331,7.81331 0,4.32858 -3.48473,7.81332 -7.81331,7.81332 H 318.8293 c -4.32857,0 -7.81331,-3.48474 -7.81331,-7.81332 0,-4.32857 3.48474,-7.81331 7.81331,-7.81331 z" />
    <g
       id="g4610"
       inkscape:label="D-Pad">
      <path
         id="rect2944"
         style="fill:none;stroke:#f4f4f4;stroke-width:5.6;stroke-miterlimit:4;stroke-dasharray:none;stroke-opacity:1"
         inkscape:label="N"
         d="m 168.01807,542.45978 c 9.41804,0 17.00008,7.58203 17.00008,17.00008 v 31.16319 c 0,9.41805 -7.58204,17.00008 -17.00008,17.00008 -9.41805,0 -17.00008,-7.58203 -17.00008,-17.00008 v -31.16319 c 0,-9.41805 7.58203,-17.00008 17.00008,-17.00008 z" />
      <path
         id="rect3026"
         style="fill:none;stroke:#f4f4f4;stroke-width:5.6;stroke-miterlimit:4;stroke-dasharray:none;stroke-opacity:1"
         inkscape:label="S"
         d="m 168.01807,674.45978 c 9.41804,0 17.00008,7.58203 17.00008,17.00008 v 31.16319 c 0,9.41805 -7.58204,17.00008 -17.00008,17.00008 -9.41805,0 -17.00008,-7.58203 -17.00008,-17.00008 v -31.16319 c 0,-9.41805 7.58203,-17.00008 17.00008,-17.00008 z" />
      <path
         id="path3054"
         style="fill:none;stroke:#f4f4f4;stroke-width:5.6;stroke-miterlimit:4;stroke-dasharray:none;stroke-opacity:1"
         d="m 91.03313,625.1271 c 6.416573,-30.03984 29.90349,-53.75518 59.81881,-60.50409 m 34.12005,-0.17887 c 30.33239,6.506 54.20471,30.41921 60.65102,60.77371 m -0.17765,33.81037 c -6.685,29.91144 -30.32533,53.42377 -60.30661,59.92259 m -34.1203,-0.10553 C 121.18928,712.18389 97.721798,688.66089 91.141096,658.80137"
         sodipodi:nodetypes="cccccccc"
         inkscape:label="D-Pad Circle" />
      <path
         id="rect3300"
         style="fill:none;stroke:#f4f4f4;stroke-width:5.6;stroke-miterlimit:4;stroke-dasharray:none;stroke-opacity:1"
         inkscape:label="E"
         transform="rotate(90)"
         d="m 641.86977,-265.52771 c 9.41804,0 17.00008,7.58203 17.00008,17.00008 v 31.16319 c 0,9.41805 -7.58204,17.00008 -17.00008,17.00008 -9.41805,0 -17.00008,-7.58203 -17.00008,-17.00008 v -31.16319 c 0,-9.41805 7.58203,-17.00008 17.00008,-17.00008 z" />
      <path
         id="rect3416"
         style="fill:none;stroke:#f4f4f4;stroke-width:5.6;stroke-miterlimit:4;stroke-dasharray:none;stroke-opacity:1"
         inkscape:label="W"
         transform="rotate(90)"
         d="m 641.86977,-133.52771 c 9.41804,0 17.00008,7.58203 17.00008,17.00008 v 31.163195 c 0,9.418043 -7.58204,17.000078 -17.00008,17.000078 -9.41805,0 -17.00008,-7.582035 -17.00008,-17.000078 v -31.163195 c 0,-9.41805 7.58203,-17.00008 17.00008,-17.00008 z" />
    </g>
  </g>
</svg>
