<svg xmlns="http://www.w3.org/2000/svg" width="598.885" height="350.993" viewBox="0 0 158.455 92.867"><path d="M-4.639 263.82a4.557 4.557 0 0 0-4.56 4.56v59.464a3.97 3.97 0 0 0 3.97 3.973h79.073a3.97 3.97 0 0 0 3.972-3.972V274.12a3.97 3.97 0 0 0-3.972-3.973H23.756c-1.182 0-3.07-.806-3.76-3.132-.39-1.318-1.347-2.124-2.266-2.588-.918-.464-1.773-.606-2.166-.606l-19.91-.002zm0 .588 20.203.002c.222 0 1.078.126 1.9.541.823.416 1.634 1.102 1.97 2.233.762 2.57 2.874 3.552 4.322 3.552h50.088a3.37 3.37 0 0 1 3.385 3.385v53.723a3.37 3.37 0 0 1-3.385 3.385H-5.23a3.37 3.37 0 0 1-3.384-3.385V268.38a3.96 3.96 0 0 1 3.974-3.973z" style="color:#000;font-style:normal;font-variant:normal;font-weight:400;font-stretch:normal;font-size:medium;line-height:normal;font-family:sans-serif;text-indent:0;text-align:start;text-decoration:none;text-decoration-line:none;text-decoration-style:solid;text-decoration-color:#000;letter-spacing:normal;word-spacing:normal;text-transform:none;direction:ltr;writing-mode:lr-tb;baseline-shift:baseline;text-anchor:start;white-space:normal;clip-rule:nonzero;display:inline;overflow:visible;visibility:visible;opacity:1;isolation:auto;mix-blend-mode:normal;color-interpolation:sRGB;color-interpolation-filters:linearRGB;solid-color:#000;solid-opacity:1;fill:#fff;fill-opacity:1;fill-rule:nonzero;stroke:none;stroke-width:.58751982;stroke-linecap:butt;stroke-linejoin:miter;stroke-miterlimit:4;stroke-dasharray:none;stroke-dashoffset:0;stroke-opacity:1;color-rendering:auto;image-rendering:auto;shape-rendering:auto;text-rendering:auto" transform="translate(42.286 -274.253)scale(1.07679)"/><path d="M-4.47 274.223a4.727 4.727 0 0 0-4.731 4.73v44.162h.588v-44.162c0-2.3 1.843-4.142 4.142-4.142h77.557c2.3 0 4.143 1.842 4.143 4.142v44.162h.587v-44.162a4.727 4.727 0 0 0-4.73-4.73z" style="color:#000;font-style:normal;font-variant:normal;font-weight:400;font-stretch:normal;font-size:medium;line-height:normal;font-family:sans-serif;text-indent:0;text-align:start;text-decoration:none;text-decoration-line:none;text-decoration-style:solid;text-decoration-color:#000;letter-spacing:normal;word-spacing:normal;text-transform:none;direction:ltr;writing-mode:lr-tb;baseline-shift:baseline;text-anchor:start;white-space:normal;clip-rule:nonzero;display:inline;overflow:visible;visibility:visible;opacity:1;isolation:auto;mix-blend-mode:normal;color-interpolation:sRGB;color-interpolation-filters:linearRGB;solid-color:#000;solid-opacity:1;fill:#fff;fill-opacity:1;fill-rule:nonzero;stroke:none;stroke-width:.60854167;stroke-linecap:butt;stroke-linejoin:miter;stroke-miterlimit:4;stroke-dasharray:none;stroke-dashoffset:0;stroke-opacity:1;color-rendering:auto;image-rendering:auto;shape-rendering:auto;text-rendering:auto" transform="translate(42.286 -274.253)scale(1.07679)"/><path d="M-9.021 324.762v2.312h86.658v-2.312zm.228.228h86.201v1.856H-8.793z" style="color:#000;font-style:normal;font-variant:normal;font-weight:400;font-stretch:normal;font-size:medium;line-height:normal;font-family:sans-serif;text-indent:0;text-align:start;text-decoration:none;text-decoration-line:none;text-decoration-style:solid;text-decoration-color:#000;letter-spacing:normal;word-spacing:normal;text-transform:none;direction:ltr;writing-mode:lr-tb;baseline-shift:baseline;text-anchor:start;white-space:normal;clip-rule:nonzero;display:inline;overflow:visible;visibility:visible;opacity:1;isolation:auto;mix-blend-mode:normal;color-interpolation:sRGB;color-interpolation-filters:linearRGB;solid-color:#000;solid-opacity:1;fill:#fff;fill-opacity:1;fill-rule:nonzero;stroke:none;stroke-width:.22847994;stroke-linecap:butt;stroke-linejoin:miter;stroke-miterlimit:4;stroke-dasharray:none;stroke-dashoffset:0;stroke-opacity:1;color-rendering:auto;image-rendering:auto;shape-rendering:auto;text-rendering:auto" transform="translate(42.286 -274.253)scale(1.07679)"/><path d="M-9.021 326.846v2.037h86.658v-2.037zm.228.228h86.201v1.58H-8.793z" style="color:#000;font-style:normal;font-variant:normal;font-weight:400;font-stretch:normal;font-size:medium;line-height:normal;font-family:sans-serif;text-indent:0;text-align:start;text-decoration:none;text-decoration-line:none;text-decoration-style:solid;text-decoration-color:#000;letter-spacing:normal;word-spacing:normal;text-transform:none;direction:ltr;writing-mode:lr-tb;baseline-shift:baseline;text-anchor:start;white-space:normal;clip-rule:nonzero;display:inline;overflow:visible;visibility:visible;opacity:1;isolation:auto;mix-blend-mode:normal;color-interpolation:sRGB;color-interpolation-filters:linearRGB;solid-color:#000;solid-opacity:1;fill:#fff;fill-opacity:1;fill-rule:nonzero;stroke:none;stroke-width:.22847994;stroke-linecap:butt;stroke-linejoin:miter;stroke-miterlimit:4;stroke-dasharray:none;stroke-dashoffset:0;stroke-opacity:1;color-rendering:auto;image-rendering:auto;shape-rendering:auto;text-rendering:auto" transform="translate(42.286 -274.253)scale(1.07679)"/><path d="M19.074 283.674v.135c-.502.157-.92.535-.963 1.09l-2.496 32.683a1.327 1.327 0 0 0 1.219 1.42l20.998 1.603a1.32 1.32 0 0 0 1.313-.793l.158-.369-19.31-4.256a.655.655 0 0 1-.505-.79l6.662-30.213-6.613-.506h-.004q-.076-.005-.127-.004h-.008zm.34.662q.042 0 .065.002h.002l5.859.447-6.496 29.469a1.33 1.33 0 0 0 1.008 1.578l18.199 4.014c-.068.017-.093.107-.168.101l-20.998-1.603a.655.655 0 0 1-.61-.713l2.497-32.684a.655.655 0 0 1 .642-.611" style="color:#000;font-style:normal;font-variant:normal;font-weight:400;font-stretch:normal;font-size:medium;line-height:normal;font-family:sans-serif;text-indent:0;text-align:start;text-decoration:none;text-decoration-line:none;text-decoration-style:solid;text-decoration-color:#000;letter-spacing:normal;word-spacing:normal;text-transform:none;direction:ltr;writing-mode:lr-tb;baseline-shift:baseline;text-anchor:start;white-space:normal;clip-rule:nonzero;display:inline;overflow:visible;visibility:visible;opacity:1;isolation:auto;mix-blend-mode:normal;color-interpolation:sRGB;color-interpolation-filters:linearRGB;solid-color:#000;solid-opacity:1;fill:#fff;fill-opacity:1;fill-rule:nonzero;stroke:none;stroke-width:.66145831;stroke-linecap:butt;stroke-linejoin:miter;stroke-miterlimit:4;stroke-dasharray:none;stroke-dashoffset:0;stroke-opacity:1;color-rendering:auto;image-rendering:auto;shape-rendering:auto;text-rendering:auto" transform="translate(42.286 -274.253)scale(1.07679)"/><path d="M27.21 281.205a1.326 1.326 0 0 0-1.31 1.04l-7.056 32.009a1.33 1.33 0 0 0 1.008 1.578l20.564 4.535c.71.157 1.42-.299 1.576-1.01l.13-.578-18.26-6.037a.65.65 0 0 1-.42-.836l9.724-29.416-5.656-1.248-.004-.033zm-.009.662q.065 0 .135.016l4.973 1.096-9.497 28.718a1.33 1.33 0 0 0 .842 1.674l17.69 5.85a.654.654 0 0 1-.787.5l-20.565-4.534a.655.655 0 0 1-.504-.79l7.059-32.01a.655.655 0 0 1 .654-.52" style="color:#000;font-style:normal;font-variant:normal;font-weight:400;font-stretch:normal;font-size:medium;line-height:normal;font-family:sans-serif;text-indent:0;text-align:start;text-decoration:none;text-decoration-line:none;text-decoration-style:solid;text-decoration-color:#000;letter-spacing:normal;word-spacing:normal;text-transform:none;direction:ltr;writing-mode:lr-tb;baseline-shift:baseline;text-anchor:start;white-space:normal;clip-rule:nonzero;display:inline;overflow:visible;visibility:visible;opacity:1;isolation:auto;mix-blend-mode:normal;color-interpolation:sRGB;color-interpolation-filters:linearRGB;solid-color:#000;solid-opacity:1;fill:#fff;fill-opacity:1;fill-rule:nonzero;stroke:none;stroke-width:.66145831;stroke-linecap:butt;stroke-linejoin:miter;stroke-miterlimit:4;stroke-dasharray:none;stroke-dashoffset:0;stroke-opacity:1;color-rendering:auto;image-rendering:auto;shape-rendering:auto;text-rendering:auto" transform="translate(42.286 -274.253)scale(1.07679)"/><path d="M34.775 279.735a1.33 1.33 0 0 0-1.673.842l-10.289 31.12a1.33 1.33 0 0 0 .842 1.673l19.992 6.61a1.33 1.33 0 0 0 1.673-.841l10.29-31.12a1.33 1.33 0 0 0-.842-1.674zm-.207.627 19.992 6.61a.655.655 0 0 1 .42.838l-10.288 31.12a.655.655 0 0 1-.837.423l-19.993-6.61a.656.656 0 0 1-.422-.838l10.29-31.12a.656.656 0 0 1 .838-.423" style="color:#000;font-style:normal;font-variant:normal;font-weight:400;font-stretch:normal;font-size:medium;line-height:normal;font-family:sans-serif;text-indent:0;text-align:start;text-decoration:none;text-decoration-line:none;text-decoration-style:solid;text-decoration-color:#000;letter-spacing:normal;word-spacing:normal;text-transform:none;direction:ltr;writing-mode:lr-tb;baseline-shift:baseline;text-anchor:start;white-space:normal;clip-rule:nonzero;display:inline;overflow:visible;visibility:visible;opacity:1;isolation:auto;mix-blend-mode:normal;color-interpolation:sRGB;color-interpolation-filters:linearRGB;solid-color:#000;solid-opacity:1;fill:#fff;fill-opacity:1;fill-rule:nonzero;stroke:none;stroke-width:.66145831;stroke-linecap:butt;stroke-linejoin:miter;stroke-miterlimit:4;stroke-dasharray:none;stroke-dashoffset:0;stroke-opacity:1;color-rendering:auto;image-rendering:auto;shape-rendering:auto;text-rendering:auto" transform="translate(42.286 -274.253)scale(1.07679)"/></svg>