<?xml version="1.0" encoding="UTF-8" standalone="no"?>
<!-- Created with Inkscape (http://www.inkscape.org/) -->

<svg
   version="1.1"
   id="svg3458"
   width="481.71753"
   height="346.99493"
   viewBox="0 0 1011.6068 728.68936"
   sodipodi:docname="steam.svg"
   inkscape:version="1.1.2 (0a00cf5339, 2022-02-04)"
   xmlns:inkscape="http://www.inkscape.org/namespaces/inkscape"
   xmlns:sodipodi="http://sodipodi.sourceforge.net/DTD/sodipodi-0.dtd"
   xmlns="http://www.w3.org/2000/svg"
   xmlns:svg="http://www.w3.org/2000/svg">
  <defs
     id="defs3462">
    <linearGradient
       id="a"
       x2="116.68872"
       x1="116.68872"
       y2="232.87497"
       gradientTransform="scale(0.99946338,1.0005369)"
       y1="0"
       gradientUnits="userSpaceOnUse">
      <stop
         stop-color="#111D2E"
         offset="0"
         id="stop1518" />
      <stop
         stop-color="#051839"
         offset=".21248"
         id="stop1520" />
      <stop
         stop-color="#0A1B48"
         offset=".40695"
         id="stop1522" />
      <stop
         stop-color="#132E62"
         offset=".58110"
         id="stop1524" />
      <stop
         stop-color="#144B7E"
         offset=".73760"
         id="stop1526" />
      <stop
         stop-color="#136497"
         offset=".87279"
         id="stop1528" />
      <stop
         stop-color="#1387B8"
         offset="1"
         id="stop1530" />
    </linearGradient>
  </defs>
  <sodipodi:namedview
     id="namedview3460"
     pagecolor="#000000"
     bordercolor="#111111"
     borderopacity="1"
     inkscape:pageshadow="0"
     inkscape:pageopacity="0"
     inkscape:pagecheckerboard="1"
     showgrid="false"
     showguides="true"
     inkscape:guide-bbox="true"
     inkscape:zoom="20.992233"
     inkscape:cx="282.29489"
     inkscape:cy="87.341829"
     inkscape:window-width="1366"
     inkscape:window-height="703"
     inkscape:window-x="0"
     inkscape:window-y="0"
     inkscape:window-maximized="1"
     inkscape:current-layer="svg3458"
     fit-margin-top="0"
     fit-margin-left="0"
     fit-margin-right="0"
     fit-margin-bottom="0">
    <sodipodi:guide
       position="1074.9462,238.89272"
       orientation="1,0"
       id="guide4022" />
    <sodipodi:guide
       position="184.41054,-189.42506"
       orientation="0,-1"
       id="guide4024" />
    <sodipodi:guide
       position="1269.1922,162.0217"
       orientation="0,-1"
       id="guide4442" />
    <sodipodi:guide
       position="575.40527,-236.36821"
       orientation="-0.70710678,-0.70710678"
       id="guide13753" />
    <sodipodi:guide
       position="792.70883,-400.47768"
       orientation="0,-1"
       id="guide13755" />
    <sodipodi:guide
       position="1603.2558,-222.93264"
       orientation="0.70710678,-0.70710678"
       id="guide13757" />
    <sodipodi:guide
       position="1200.5545,365.15505"
       orientation="0,-1"
       id="guide13759" />
    <sodipodi:guide
       position="1680.0318,334.05368"
       orientation="1,0"
       id="guide14156" />
    <sodipodi:guide
       position="505.80339,226.41922"
       orientation="1,0"
       id="guide14158" />
  </sodipodi:namedview>
  <text
     xml:space="preserve"
     style="font-size:5.60001px;line-height:1.25;font-family:TrasksHand;-inkscape-font-specification:TrasksHand;fill:#f4f4f4;fill-opacity:0.5;stroke-width:2.1"
     x="574.93176"
     y="197.01256"
     id="text96513"
     inkscape:label="Signature"><tspan
       sodipodi:role="line"
       id="tspan96511"
       style="fill:#f4f4f4;fill-opacity:0.5;stroke-width:2.1"
       x="574.93176"
       y="197.01256">John Loreth 2022</tspan></text>
  <g
     inkscape:groupmode="layer"
     id="layer1"
     inkscape:label="Body"
     transform="translate(-10.861683,-154.28223)">
    <path
       id="path13669"
       style="display:inline;fill:none;stroke:#f4f4f4;stroke-width:4.2;stroke-linecap:butt;stroke-linejoin:miter;stroke-miterlimit:4;stroke-dasharray:none;stroke-opacity:1"
       inkscape:label="Body Outline"
       d="m 953.85086,343.30947 c 17.19302,53.61757 31.59565,110.37264 44.25164,167.3556 9.9418,40.51188 12.3298,83.5188 18.3624,125.30546 3.3396,31.88632 7.3504,65.32699 3.2926,98.22 -7.4992,53.60272 -25.67485,77.81016 -44.68842,99.71053 -36.11705,31.67793 -62.86922,42.45397 -86.38631,46.00947 -14.06548,2.01331 -29.85139,4.29816 -43.61648,-2.51754 m -328.40122,-220.84062 147.14966,-1.0093 c 23.10822,-0.55932 41.32194,7.27312 52.85288,26.5634 35.66231,50.78853 56.9786,117.70645 91.8681,164.93545 9.47419,12.82497 21.99937,22.81547 36.53058,30.35107 M 953.85086,343.30947 C 939.66452,302.00399 921.38016,261.68413 903.8946,219.67054 891.04964,193.01685 872.42447,185.92006 861.95349,182.80571 751.04545,152.14548 633.97419,156.81715 516.66507,155.28214 M 79.479279,343.30947 c -17.19302,53.61757 -31.595649,110.37264 -44.251647,167.3556 -9.94185,40.51188 -12.329815,83.5188 -18.362369,125.30546 -3.339649,31.88632 -7.3503925,65.32699 -3.292631,98.22 7.499227,53.60272 25.674857,77.81016 44.688421,99.71053 36.117054,31.67793 62.869227,42.45397 86.386317,46.00947 14.06548,2.01331 29.85139,4.29816 43.61648,-2.51754 m 328.40122,-220.84062 -147.14966,-1.0093 c -23.10822,-0.55932 -41.32194,7.27312 -52.85288,26.5634 -35.66231,50.78853 -56.9786,117.70645 -91.8681,164.93545 -9.47419,12.82497 -21.99937,22.81547 -36.53058,30.35107 M 79.479279,343.30947 c 14.186337,-41.30548 32.470701,-81.62534 49.956261,-123.63893 12.84496,-26.65369 31.47013,-33.75048 41.94111,-36.86483 110.90804,-30.66023 227.9793,-25.98856 345.28842,-27.52357" />
    <path
       id="path14273"
       style="display:none;fill:none;stroke:#f4f4f4;stroke-width:1.05;stroke-linecap:butt;stroke-linejoin:miter;stroke-miterlimit:4;stroke-dasharray:none;stroke-opacity:1"
       d="m 227.11316,480.95737 130.20895,130.20895 h 326.76 L 813.74158,481.50685 M 736.15474,243.06211 H 303.73158"
       inkscape:label="Body Indent" />
    <path
       id="circle1159"
       style="display:inline;fill:none;stroke:#f4f4f4;stroke-width:1.05;stroke-miterlimit:4;stroke-dasharray:none;stroke-opacity:1"
       inkscape:label="Joy Stick"
       sodipodi:type="inkscape:offset"
       inkscape:radius="19.343309"
       inkscape:original="M 398.16406 445.28125 A 58 58 0 0 0 340.16406 503.28125 A 58 58 0 0 0 398.16406 561.28125 A 58 58 0 0 0 456.16406 503.28125 A 58 58 0 0 0 398.16406 445.28125 z "
       d="m 398.16406,425.9375 c -20.24843,0 -40.37165,8.33649 -54.68945,22.6543 -14.3178,14.3178 -22.6543,34.44102 -22.6543,54.68945 0,20.24843 8.3365,40.37165 22.6543,54.68945 14.3178,14.31781 34.44102,22.6543 54.68945,22.6543 20.24843,0 40.37165,-8.33649 54.68946,-22.6543 14.3178,-14.3178 22.65429,-34.44102 22.65429,-54.68945 0,-20.24843 -8.33649,-40.37165 -22.65429,-54.68945 -14.31781,-14.31781 -34.44103,-22.6543 -54.68946,-22.6543 z" />
  </g>
  <g
     inkscape:groupmode="layer"
     id="layer2"
     inkscape:label="Buttons"
     transform="translate(-10.861683,-154.28223)">
    <circle
       style="display:inline;fill:none;stroke:#f4f4f4;stroke-width:4.2;stroke-miterlimit:4;stroke-dasharray:none;stroke-opacity:1"
       id="path3627"
       cx="234.6501"
       cy="352.13611"
       r="129"
       inkscape:label="D-Pad Circle" />
    <path
       id="rect3733"
       style="display:inline;fill:none;stroke:#f4f4f4;stroke-width:4.2;stroke-miterlimit:4;stroke-dasharray:none;stroke-opacity:1"
       d="m 229.41797,249.29492 c -7.71273,0 -13.92188,8.02734 -13.92188,17.99805 v 67.34375 h -67.34375 c -9.9707,0 -17.99804,6.20914 -17.99804,13.92187 v 7.61914 c 0,7.71274 8.02734,13.92188 17.99804,13.92188 h 67.34375 v 67.34375 c 0,9.97071 6.20915,17.99609 13.92188,17.99609 h 7.61914 c 7.71273,0 13.92187,-8.02538 13.92187,-17.99609 v -67.34375 h 67.34375 c 9.97071,0 17.99805,-6.20914 17.99805,-13.92188 v -7.61914 c 0,-7.71273 -8.02734,-13.92187 -17.99805,-13.92187 h -67.34375 v -67.34375 c 0,-9.97071 -6.20914,-17.99805 -13.92187,-17.99805 z"
       inkscape:label="D-Pad Cross" />
    <circle
       style="display:inline;fill:none;stroke:#f4f4f4;stroke-width:4.2;stroke-miterlimit:4;stroke-dasharray:none;stroke-opacity:1"
       id="path4048"
       cx="398.16403"
       cy="503.2821"
       r="58"
       inkscape:label="Joy Stick" />
    <rect
       style="display:inline;fill:none;stroke:#f4f4f4;stroke-width:4.2;stroke-miterlimit:4;stroke-dasharray:none;stroke-opacity:1"
       id="rect4152"
       width="52.122105"
       height="23.829475"
       x="405.36209"
       y="331.56"
       ry="11.914738"
       inkscape:label="Select"
       rx="11.914738" />
    <rect
       style="display:inline;fill:none;stroke:#f4f4f4;stroke-width:4.2;stroke-miterlimit:4;stroke-dasharray:none;stroke-opacity:1"
       id="rect4256"
       width="52.122105"
       height="23.829475"
       x="579.36206"
       y="331.56"
       ry="11.914738"
       inkscape:label="Start"
       rx="11.914738" />
    <circle
       style="fill:none;stroke:#f4f4f4;stroke-width:4.2;stroke-miterlimit:4;stroke-dasharray:none;stroke-opacity:1"
       id="path4360"
       cx="516.9787"
       cy="343.60001"
       r="42"
       inkscape:label="Steam Button" />
    <path
       fill="#ffffff"
       d="m 519.79331,335.32122 c 0,0.0493 0,0.0986 0.002,0.14483 l -7.16822,10.41288 c -1.16118,-0.0528 -2.32638,0.15086 -3.43123,0.60597 -0.48705,0.19865 -0.94343,0.44255 -1.37164,0.72417 l -15.74023,-6.47975 c 1.3e-4,0 -0.36422,5.99195 1.15363,10.45761 l 11.12749,4.5914 c 0.55871,2.49686 2.27155,4.68695 4.79858,5.74051 4.13452,1.72744 8.90168,-0.24139 10.62157,-4.37766 0.44757,-1.08123 0.65627,-2.21525 0.6261,-3.34675 l 10.25647,-7.32964 c 0.083,0.002 0.16847,0.005 0.25145,0.005 6.13778,0 11.12647,-5.00376 11.12647,-11.1486 0,-6.14533 -4.98869,-11.14457 -11.12647,-11.14457 -6.13528,0 -11.12647,4.99924 -11.12647,11.14457 z m -1.7199,21.10081 c -1.33115,3.19588 -5.00376,4.7121 -8.19612,3.38195 -1.47272,-0.61353 -2.58461,-1.73749 -3.22605,-3.0777 l 3.62208,1.50114 c 2.35429,0.98063 5.05531,-0.13579 6.03394,-2.48932 0.98165,-2.35604 -0.132,-5.0616 -2.48504,-6.04223 l -3.74428,-1.55142 c 1.44482,-0.54815 3.08725,-0.56827 4.62182,0.0704 1.54715,0.6437 2.74755,1.85567 3.38371,3.40457 0.63616,1.5489 0.63364,3.25874 -0.0101,4.80261 m 12.84637,-13.67361 c -4.086,0 -7.41263,-3.33165 -7.41263,-7.4272 0,-4.09228 3.32663,-7.42494 7.41263,-7.42494 4.0885,0 7.41512,3.33266 7.41512,7.42494 0,4.09555 -3.32662,7.4272 -7.41512,7.4272 m -5.55445,-7.43851 c 0,-3.08097 2.49435,-5.57984 5.56701,-5.57984 3.07518,0 5.56953,2.49887 5.56953,5.57984 0,3.08121 -2.49435,5.57781 -5.56953,5.57781 -3.07266,0 -5.56701,-2.4966 -5.56701,-5.57781 z"
       id="path1537"
       style="fill:#f4f4f4;fill-opacity:1;stroke-width:1.2"
       inkscape:label="Steam Logo" />
    <circle
       style="display:inline;fill:none;stroke:#f4f4f4;stroke-width:4.2;stroke-miterlimit:4;stroke-dasharray:none;stroke-opacity:1"
       id="circle4445"
       cx="800.45007"
       cy="352.13611"
       r="129"
       inkscape:label="Trackpad Circle" />
    <ellipse
       style="fill:none;stroke:#f4f4f4;stroke-width:4.2;stroke-miterlimit:4;stroke-dasharray:none;stroke-opacity:1"
       id="path905"
       cx="644.59802"
       cy="450.62738"
       rx="30"
       ry="30.000002"
       inkscape:label="Y" />
    <ellipse
       style="fill:none;stroke:#f4f4f4;stroke-width:4.2;stroke-miterlimit:4;stroke-dasharray:none;stroke-opacity:1"
       id="ellipse1009"
       cx="589.82751"
       cy="505.01474"
       rx="30"
       ry="30.000002"
       inkscape:label="X" />
    <ellipse
       style="fill:none;stroke:#f4f4f4;stroke-width:4.2;stroke-miterlimit:4;stroke-dasharray:none;stroke-opacity:1"
       id="ellipse1011"
       cx="695.96222"
       cy="505.70105"
       rx="30"
       ry="30.000002"
       inkscape:label="B" />
    <ellipse
       style="fill:none;stroke:#f4f4f4;stroke-width:4.2;stroke-miterlimit:4;stroke-dasharray:none;stroke-opacity:1"
       id="ellipse1013"
       cx="641.19171"
       cy="560.08844"
       rx="30"
       ry="30.000002"
       inkscape:label="A" />
  </g>
</svg>
