<svg height="363.08429" viewBox="0 0 266.71151 167.01877" width="579.80762" xmlns="http://www.w3.org/2000/svg" xmlns:xlink="http://www.w3.org/1999/xlink"><mask id="a" maskUnits="userSpaceOnUse"><path d="m-.62577162.9585028h267.68254162v169.0187772h-267.68254162z" fill="#fff"/><path d="m9.1138046 22.787797v-1.478495h13.4528504 13.45285v1.478495 1.478495h-13.45285-13.4528504zm-.5381141 7.123656v-1.344086h13.7219075 13.721907v1.344086 1.344086h-13.721907-13.7219075zm-.2690573 6.989247v-1.344086h13.8564358 13.856436v1.344086 1.344086h-3.345342-3.34534l-.08514-.739248-.08514-.739247-4.506705-.0737-4.506705-.0737v.812951.812952h-5.919245-5.9192548zm28.5200428 0v-1.344086h25.15683 25.156833v1.344086 1.344086h-25.156833-25.15683zm0-6.854839v-1.209677h25.15683 25.156833v1.209677 1.209678h-25.156833-25.15683zm0-7.258064v-1.478495h25.15683 25.156833v1.478495 1.478495h-25.156833-25.15683zm-27.1747577-13.9784945v-1.4784945h31.6141977 31.614198v1.4784945 1.4784945h-31.614198-31.6141977zm-.1633146 8.0425305c.089823-.233867.1633146-.89919.1633146-1.478495v-1.053283h31.6141977 31.614198v1.075269 1.075268h-18.30432c-16.022306 0-18.323628.05027-18.45919.403226-.134776.350909-1.882888.403226-13.473193.403226-12.034028 0-13.3025733-.041-13.1550073-.425211zm63.6607693-8.0425305v-1.4784945h70.089347 70.08935v1.4784945 1.4784945h-70.08935-70.089347zm14.700838 8.0645155c-.132378-.344662-1.211184-.403226-7.427855-.403226h-7.272983v-1.075268-1.075269h70.089347 70.08935v1.478494 1.478495h-62.66149c-55.450909 0-62.679321-.0464-62.816369-.403226zm.0973 5.913979v-1.478495h62.690279 62.69028v1.478495 1.478495h-62.69028-62.690282zm0 7.123656v-1.344086h62.690279 62.69028v1.344086 1.344086h-62.69028-62.690282zm0 6.989247v-1.344086h62.690279 62.69028v1.344086 1.344086h-62.69028-62.690282zm125.877959-28.0990705v-1.473139h21.67478 21.67477l.0615.7271485c.0338.399932.0615 1.0628445.0615 1.4731395v.7459895h-21.73629-21.7363zm0 6.9855305v-1.425619h21.68118 21.68117l.0515.261364c.0283.143749.0781.710433.11052 1.259296.0324.548863.0798 1.072778.10514 1.164255.0438.158053-1.03959.166322-21.79169.166322h-21.83783zm0 7.033051v-1.425618h21.91844 21.91843l.0557.712809c.0306.392045.0807 1.033573.11136 1.425618l.0557.71281h-22.02978-22.0298zm0 6.985531v-1.473139h22.25949 22.25949v.88895c0 .488922.0275 1.151835.0611 1.473139l.0611.584189h-22.3206-22.32061zm0 6.98553v-1.425618h22.40218 22.40218v.841429c0 .462786.0275 1.104314.0611 1.425618l.0611.58419h-22.46329-22.4633zm-204.3905086-26.262178h255.0629886c.13701 0 .2473-.111462.2473-.249916v-2.969852c0-.1384535-.11029-.249916-.2473-.249916h-254.9008386m-.2862401 10.469684h255.7100587c.13728 0 .24779-.111462.24779-.249916v-2.969852c0-.138453-.11051-.249916-.24779-.249916h-255.4395086m-.6685303 10.469684h256.5715789c.13752 0 .24823-.111462.24823-.249916v-2.969852c0-.138453-.11071-.249916-.24823-.249916h-256.3594088m-.7576398 10.469684h257.4968686c.13876 0 .25047-.111462.25047-.249916v-2.969852c0-.138453-.11171-.249916-.25047-.249916h-257.3879085m-.4133905 10.469684h258.211369c.13846 0 .24992-.111462.24992-.249916v-2.969852c0-.138453-.11146-.249916-.24992-.249916h-258.0559985m249.1839485-24.530316h-255.0629878c-.1370062 0-.2473037-.111462-.2473037-.249916v-2.969852c0-.1384535.1102975-.249916.2473037-.249916h254.9008378m.28624 10.469684h-255.710055c-.1372788 0-.2477957-.111462-.2477957-.249916v-2.969852c0-.138453.1105169-.249916.2477957-.249916h255.439505m.66853 10.469684h-256.5715745c-.1375205 0-.2482319-.111462-.2482319-.249916v-2.969852c0-.138453.1107114-.249916.2482319-.249916h256.3594045m.75764 10.469684h-257.49686469c-.13876338 0-.2504753-.111462-.2504753-.249916v-2.969852c0-.138453.11171192-.249916.2504753-.249916h257.38790469m.41339 10.469684h-258.21137334c-.13845341 0-.24991596-.111462-.24991596-.249916v-2.969852c0-.138453.11146255-.249916.24991596-.249916h258.05600334" opacity=".98" stroke="#000004" stroke-width=".500223"/></mask><g fill="#f4f4f4" fill-opacity=".5" stroke-width=".46" transform="translate(-.062879 -1.958503)"><path d="m105.49836 37.883063q0 .1104-.0267.18584-.0396.11224-.12696.11224-.058 0-.12144-.02668-.0764-.0322-.0837-.07912.0258 0 .0607.0092.081.02116.1012.02116.0782 0 .11776-.0782.0313-.06256.0313-.14996 0-.06164-.0405-.17572-.0396-.115-.0396-.16008 0-.0138.007-.02208.008-.0092.0221-.0092.0359 0 .0699.1656.0285.13984.0285.207z"/><path d="m105.85256 37.976903q0 .09384-.0543.1472-.0543.05336-.14996.05336-.0524 0-.081-.02484-.0285-.02484-.0285-.07636 0-.07268.0948-.14628.0902-.06992.16652-.06992.035 0 .046.04324.006.02484.006.0736zm-.0561.02576q0-.01104-.003-.02116-.002-.01104-.007-.02484-.0147.01012-.0488.04968-.0175.02024-.0304.02944 0-.01748.004-.02852.007-.01564.012-.02668-.0405 0-.0846.03404-.0432.03404-.0432.0736 0 .02668.0294.02668.0561 0 .10856-.0276.0635-.03312.0635-.08464z"/><path d="m106.2316 38.014623q0 .04508-.034.1012-.0386.06348-.08.06348-.012 0-.0202-.01288-.007-.0138-.007-.02668 0-.01656.035-.05152.0359-.03588.0359-.04876 0-.0083-.003-.01656-.003-.0083-.004-.01104-.069.01564-.14076.07912-.0708.06348-.10764.07176-.007-.02024-.007-.0414 0-.02576.012-.05428.008-.02024.0276-.04876.0322-.04876.0681-.1104.0184-.0322.0635-.11132.046-.07912.0672-.11224.011-.01656.0193-.02484.012-.01104.0285-.01472.011.0037.0156.0138.006.01012.006.02392 0 .03128-.0405.08464-.0736.09568-.0754.09936-.0414.06256-.0414.11316l.002.0092q.0506-.02484.0598-.02852.0377-.01564.0644-.01564.0294 0 .0432.02024.0138.01932.0138.04968z"/><path d="m106.65848 37.960343q0 .06256-.0304.1334-.0331.0782-.0819.10764-.0101-.01196-.0175-.02668-.006-.01472-.006-.02944 0-.01564.046-.09292.0202-.03404.0184-.0598l-.00092-.01196q-.034.01012-.11776.06164-.0828.0506-.16744.10304-.0129 0-.0239-.0092-.0101-.01012-.0101-.02208 0-.01932.0616-.12972.0184-.03312.0662-.115.0147.01932.0193.04324.005.023.005.0552 0 .0138 0 .02116.0846-.0506.13248-.07636.0524-.02852.0718-.02852.0129 0 .0239.02944.012.02944.012.04692z"/><path d="m107.45796 38.138823q0 .01656-.0147.02576-.0138.0083-.0313.0083-.0156 0-.0396-.0037-.0543-.0083-.0699-.0083-.0276 0-.10856.0064-.046.0037-.0662.0037-.0561 0-.0561-.05612 0-.05336.035-.15272.0193-.05612.0727-.184.0478-.115.0607-.16192.005-.01472.007-.01932.007-.01104.0184-.01104.0175 0 .0294.02576.012.02484.012.04508 0 .0322-.0377.10856-.0377.07544-.0736.14812-.0396.08648-.0396.13156 0 .023.0193.0322.0138.0064.0405.0064.0202 0 .0699-.0046.0497-.0055.0662-.0055.0414 0 .0681.01196.0377.01656.0377.05336z"/><path d="m107.8002 37.976903q0 .09384-.0543.1472-.0543.05336-.14996.05336-.0524 0-.081-.02484-.0285-.02484-.0285-.07636 0-.07268.0948-.14628.0902-.06992.16652-.06992.035 0 .046.04324.006.02484.006.0736zm-.0561.02576q0-.01104-.003-.02116-.002-.01104-.007-.02484-.0147.01012-.0488.04968-.0175.02024-.0304.02944 0-.01748.004-.02852.007-.01564.012-.02668-.0405 0-.0846.03404-.0432.03404-.0432.0736 0 .02668.0294.02668.0561 0 .10856-.0276.0635-.03312.0635-.08464z"/><path d="m108.18752 37.957583q0 .02944-.0156.06256-.0147.03312-.0377.0552l-.00092-.01288q0-.01104.003-.03404.003-.023.003-.03404 0-.01564-.005-.023-.005-.0083-.0193-.0083-.0432 0-.10764.06716-.0699.0736-.13892.14628-.006 0-.011-.00092-.0138-.0037-.0184-.0046.003-.03312.023-.0736.0543-.10948.0561-.11684.007-.02944.011-.04324.004-.0138.0101-.02852.007-.01564.0166-.0276.0101-.01288.0258-.01932l.009.1104q.0396-.0322.0607-.04968.0405-.0322.0699-.0322.0294 0 .0478.01932.0184.01932.0184.04784z"/><path d="m108.63924 37.850863q0 .03864-.10304.10212-.0994.06072-.14444.06072-.0212 0-.0285-.01472-.006-.01472-.006-.0414 0-.01748 0-.02484.0616 0 .11224-.0184.0506-.0184.0883-.06072-.0276-.01012-.0561-.01012-.0672 0-.1426.05152-.0828.05612-.0828.1196 0 .06072.0828.08464.0129.0037.15548.02576.0837.01288.0837.04508 0 .0138-.0304.02208-.0304.0092-.0773.0092-.11776 0-.18584-.03588-.0902-.04784-.0902-.15364 0-.1104.1104-.17572.0938-.0552.21344-.0552.0359 0 .0653.01656.0359.02024.0359.05336z"/><path d="m109.0054 37.686183q0 .02024-.0488.08464-.0488.0644-.0488.09844 0 .01748.0202.03496.046.04048.046.04968 0 .01196-.008.023-.007.01104-.0193.01104-.0101 0-.0285-.01104-.0129-.0074-.0497-.03588-.0138.02668-.0212.04048-.0258.04876-.035.07084-.0138.04232-.0276.08464-.0239.05704-.0598.05704l-.00092-.02116q0-.06532.0423-.15456.008-.01656.046-.08556-.0727-.03956-.16008-.03956 0-.03404.0138-.04968.0147-.01656.0488-.01656.0313 0 .0782.01104.023.0055.046.01104.0175-.0055.0478-.0598.0745-.13064.1012-.14996.007.01196.012.02392.006.01196.006.023z"/><path d="m109.34489 38.014623q0 .04508-.034.1012-.0386.06348-.08.06348-.012 0-.0202-.01288-.007-.0138-.007-.02668 0-.01656.035-.05152.0359-.03588.0359-.04876 0-.0083-.003-.01656-.003-.0083-.004-.01104-.069.01564-.14076.07912-.0708.06348-.10764.07176-.007-.02024-.007-.0414 0-.02576.012-.05428.008-.02024.0276-.04876.0322-.04876.0681-.1104.0184-.0322.0635-.11132.046-.07912.0672-.11224.011-.01656.0193-.02484.012-.01104.0285-.01472.011.0037.0156.0138.006.01012.006.02392 0 .03128-.0405.08464-.0736.09568-.0754.09936-.0414.06256-.0414.11316l.002.0092q.0506-.02484.0598-.02852.0377-.01564.0644-.01564.0294 0 .0432.02024.0138.01932.0138.04968z"/><path d="m110.10021 37.714703q0 .04324-.046.11592-.0294.046-.0966.13248-.0672.08556-.0837.11224.003.00092.069.02208.0672.02024.0672.0736-.0276.0046-.0543.0083l-.0101-.00092v-.0074q-.0147-.0037-.0239-.0037-.0175 0-.0552.0055-.0377.0055-.057.0055-.0248 0-.0405-.0092-.0156-.0092-.0156-.03312 0-.01932.0708-.10948.13248-.16836.1334-.1702.0718-.09752.0718-.13064 0-.01288-.009-.01932-.008-.0064-.034-.0064-.0175 0-.0727.03404-.0267.01656-.0432.01656l-.0156-.0028q-.006-.0037-.012-.0138-.006-.01104-.006-.01748 0-.03864.0745-.07084.0635-.0276.1104-.0276.0396 0 .0607.02944.0184.02576.0184.06716z"/><path d="m110.65313 37.880303q0 .11132-.12052.19688-.1104.0782-.22724.0782-.058 0-.092-.02944-.034-.02944-.034-.08556 0-.12512.10948-.21712.10396-.0874.23276-.0874.0653 0 .0984.03864.0331.03864.0331.1058zm-.0561.02116q0-.04232-.0478-.06348-.0359-.01564-.0856-.01564-.0727 0-.1518.07084-.0791.07084-.0791.1426 0 .02944.0147.04232.0156.01196.0469.01196.0902 0 .18768-.04968.115-.05888.115-.13892z"/><path d="m111.07449 37.714703q0 .04324-.046.11592-.0294.046-.0966.13248-.0672.08556-.0837.11224.003.00092.069.02208.0672.02024.0672.0736-.0276.0046-.0543.0083l-.0101-.00092v-.0074q-.0147-.0037-.0239-.0037-.0175 0-.0552.0055-.0377.0055-.057.0055-.0248 0-.0405-.0092-.0156-.0092-.0156-.03312 0-.01932.0708-.10948.13248-.16836.1334-.1702.0718-.09752.0718-.13064 0-.01288-.009-.01932-.008-.0064-.034-.0064-.0175 0-.0727.03404-.0267.01656-.0432.01656l-.0156-.0028q-.006-.0037-.012-.0138-.006-.01104-.006-.01748 0-.03864.0745-.07084.0635-.0276.1104-.0276.0396 0 .0607.02944.0184.02576.0184.06716z"/><path d="m111.49769 37.714703q0 .04324-.046.11592-.0294.046-.0966.13248-.0672.08556-.0837.11224.003.00092.069.02208.0672.02024.0672.0736-.0276.0046-.0543.0083l-.0101-.00092v-.0074q-.0147-.0037-.0239-.0037-.0175 0-.0552.0055-.0377.0055-.057.0055-.0248 0-.0405-.0092-.0156-.0092-.0156-.03312 0-.01932.0708-.10948.13248-.16836.1334-.1702.0718-.09752.0718-.13064 0-.01288-.009-.01932-.008-.0064-.034-.0064-.0175 0-.0727.03404-.0267.01656-.0432.01656l-.0156-.0028q-.006-.0037-.012-.0138-.006-.01104-.006-.01748 0-.03864.0745-.07084.0635-.0276.1104-.0276.0396 0 .0607.02944.0184.02576.0184.06716z"/></g><g fill="none" stroke="#f4f4f4"><g transform="translate(-.062879 -1.958503)"><path d="m133.21563 2.4585028h-125.219149c-2.41072 0-4.14424 1.9496832-4.35148 4.3514781-4.47419 51.8542931-3.08352 104.4214191 1 157.3158191.18556 2.40357 1.94076 4.35148 4.35148 4.35148h124.226889m-.008-166.0187772h125.21915c2.41072 0 4.14424 1.9496832 4.35148 4.3514781 4.47419 51.8542931 3.08352 104.4214091-1 157.3158091-.18556 2.40357-1.94076 4.35148-4.35148 4.35148h-124.22663" mask="url(#a)" opacity=".98" stroke-width=".92"/><path d="m4.2220977 155.85231h258.0492823" opacity=".98" stroke-width=".23"/><path d="m.95586385 59.015119h264.40375615" opacity=".98" stroke-width=".23"/><path d="m.82447758 10.529094c4.68802632-.171975 10.02356842.34047 14.31574542-.249916 1.536891-4.7615014-3.5746-2.8913169-6.4596847-3.2197679-2.6156562 0-5.2313124 0-7.84696864 0m-.01605 10.4696839c4.70082594-.171251 10.04679334.339492 14.35205734-.249916 1.536885-4.761502-3.574647-2.891317-6.4597147-3.219768-2.6257241 0-5.2514483 0-7.87717242 0m-.03748579 10.469684c4.71792591-.170217 10.07763791.338094 14.40039391-.249916 1.536879-4.761502-3.574694-2.891317-6.4597447-3.219768-2.6429175 0-5.2858349 0-7.92875243 0m-.04248236 10.469684c4.73642369-.169028 10.11055549.336483 14.45239749-.249916 1.536855-4.761502-3.574884-2.891316-6.4598647-3.219768-2.662141 0-5.3242821 0-7.98642319 0m-.02317959 10.469684c4.75067338-.168061 10.13605948.335169 14.49243148-.249916 1.536861-4.761502-3.574837-2.891316-6.4598347-3.219768-2.6746283 0-5.3492566 0-8.02388488 0m13.97223558-24.530316c-4.688031-.171975-10.0235593.34047-14.31575169-.249916-1.53688941-4.7615014 3.57461049-2.8913168 6.45969149-3.2197679h7.8469672m.01605 10.4696839c-4.700828-.171251-10.0467872.339492-14.35206066-.249916-1.53688404-4.761502 3.57465406-2.891317 6.45971906-3.219768h7.8771716m.03748 10.469684c-4.717923-.170217-10.0776357.338094-14.40038673-.249916-1.53687917-4.761502 3.57469273-2.891317 6.45974353-3.219768h7.9287522m.04248 10.469684c-4.736426-.169028-10.1105473.336483-14.45239879-.249916-1.53685451-4.761502 3.57489139-2.891316 6.45986939-3.219768h7.9864224m.02318 10.469684c-4.750675-.168061-10.1360548.335169-14.49243421-.249916-1.53686069-4.761502 3.57484171-2.891316 6.45983791-3.219768h8.0238843m89.644787-24.530316h160.80527c1.88108-4.5679631-3.00022-3.4346881-5.90867-3.4696839-51.59813 0-103.19625 0-154.79437 0m-.18045 10.4696839h161.2132c1.88181-4.567691-3.00037-3.434845-5.90867-3.469684-51.71132 0-103.42264 0-155.13396 0m-.42148 10.469684h161.75636c1.88247-4.567444-3.00051-3.434987-5.90867-3.469684-51.90465 0-103.80929 0-155.71394 0m-.47765 10.469684h162.33971c1.88578-4.566198-3.00121-3.435705-5.90867-3.469684-52.12078 0-104.24156 0-156.36234 0m-.26063 10.469684h162.79016c1.88501-4.56649-3.00105-3.435537-5.90867-3.469684-52.26118 0-104.52235 0-156.78353 0m157.09881-24.530316c-54.3192 0-108.6384 0-162.957599 0-1.881103-4.5679543 3.000229-3.4346932 5.908669-3.4696839h156.9467m.18045 10.4696839c-54.342 0-108.684 0-163.025996 0-1.881844-4.567677 3.000386-3.434853 5.908676-3.469684h156.94676m.42147 10.469684c-54.41519 0-108.83038 0-163.245568 0-1.882491-4.567435 3.000518-3.434992 5.908668-3.469684h157.20313m.47767 10.469684c-54.53861-.0087-109.07722-.01741-163.615837-.02612-1.885813-4.566428 3.001217-3.435267 5.908677-3.46874 52.54615.0084 105.09231.01678 157.63846.02518m.26062 10.469684c-54.59702 0-109.19404 0-163.79106 0-1.884985-4.566499 3.00104-3.435531 5.90867-3.469684h157.78445" opacity=".98" stroke-width=".46"/><rect height="23.60401" opacity=".98" rx=".249916" stroke-width=".46" width="51.034172" x="36.411484" y="16.885702"/><path d="m36.366754 28.701777h51.183949" opacity=".98" stroke-width=".23"/><rect height="3.145271" opacity=".98" rx=".249916" stroke-width=".92" width="8.443077" x="20.440849" y="36.982841"/></g><g stroke-width=".92"><rect height="10.779756" opacity=".98" rx="1.710371" width="56.423714" x="93.449809" y="132.771277"/><rect height="10.779756" opacity=".98" rx="1.710371" width="10.756737" x="146.873527" y="117.771277"/><rect height="10.779756" opacity=".98" rx="1.710371" width="10.756737" x="131.873527" y="117.771277"/><rect height="10.779756" opacity=".98" rx="1.710371" width="10.756737" x="116.873527" y="117.771277"/><rect height="10.779756" opacity=".98" rx="1.710371" width="10.756737" x="101.873524" y="117.771277"/><rect height="10.779756" opacity=".98" rx="1.710371" width="10.756737" x="86.873524" y="117.771277"/><rect height="10.779756" opacity=".98" rx="1.710371" width="10.756737" x="71.873524" y="117.771277"/><rect height="10.779756" opacity=".98" rx="1.710371" width="10.756737" x="56.873524" y="117.771277"/><rect height="10.779756" opacity=".98" rx="1.710371" width="25.756739" x="19.322428" y="117.771277"/><rect height="10.779756" opacity=".98" rx="1.710371" width="25.756727" x="191.873547" y="117.771277"/><rect height="10.779756" opacity=".98" rx="1.710371" width="10.756737" x="176.873527" y="117.771277"/><rect height="10.779756" opacity=".98" rx="1.710371" width="10.756737" x="161.873527" y="117.771277"/><rect height="10.779756" opacity=".98" rx="1.710371" width="10.756737" x="139.322431" y="102.771277"/><rect height="10.779756" opacity=".98" rx="1.710371" width="10.756737" x="124.322431" y="102.771277"/><rect height="10.779756" opacity=".98" rx="1.710371" width="10.756737" x="109.322431" y="102.771277"/><rect height="10.779756" opacity=".98" rx="1.710371" width="10.756737" x="94.322428" y="102.771277"/><rect height="10.779756" opacity=".98" rx="1.710371" width="10.756737" x="79.322428" y="102.771277"/><rect height="10.779756" opacity=".98" rx="1.710371" width="10.756737" x="64.322428" y="102.771277"/><rect height="10.779756" opacity=".98" rx="1.710371" width="10.756737" x="49.322428" y="102.771277"/><rect height="10.779756" opacity=".98" rx="1.710371" width="10.756737" x="34.322428" y="102.771277"/><rect height="10.779756" opacity=".98" rx="1.710371" width="10.756737" x="19.322428" y="102.771277"/><rect height="10.779756" opacity=".98" rx="1.710371" width="10.756737" x="184.322431" y="102.771277"/><rect height="10.779756" opacity=".98" rx="1.710371" width="10.756737" x="169.322431" y="102.771277"/><rect height="10.779756" opacity=".98" rx="1.710371" width="10.756737" x="154.322431" y="102.771277"/><rect height="10.779756" opacity=".98" rx="1.710371" width="18.307831" x="199.322431" y="102.771277"/><rect height="10.779756" opacity=".98" rx="1.710371" width="10.756737" x="146.814388" y="87.771277"/><rect height="10.779756" opacity=".98" rx="1.710371" width="10.756737" x="131.814388" y="87.771277"/><rect height="10.779756" opacity=".98" rx="1.710371" width="10.756737" x="116.814388" y="87.771277"/><rect height="10.779756" opacity=".98" rx="1.710371" width="10.756737" x="101.814385" y="87.771277"/><rect height="10.779756" opacity=".98" rx="1.710371" width="10.756737" x="86.814385" y="87.771277"/><rect height="10.779756" opacity=".98" rx="1.710371" width="10.756737" x="71.814385" y="87.771277"/><rect height="10.779756" opacity=".98" rx="1.710371" width="10.756737" x="56.814385" y="87.771277"/><rect height="10.779756" opacity=".98" rx="1.710371" width="10.756737" x="41.814385" y="87.771277"/><rect height="10.779756" opacity=".98" rx="1.710371" width="10.756737" x="19.322429" y="87.771277"/><rect height="10.779756" opacity=".98" rx="1.710371" width="10.756737" x="191.814388" y="87.771277"/><rect height="10.779756" opacity=".98" rx="1.710371" width="10.756737" x="176.814388" y="87.771277"/><rect height="10.779756" opacity=".98" rx="1.710371" width="10.756737" x="161.814388" y="87.771277"/><rect height="10.779756" opacity=".98" rx="1.710371" width="10.756737" x="206.814388" y="87.771277"/><rect height="10.779756" opacity=".98" rx="1.710371" width="10.756737" x="154.268353" y="72.771277"/><rect height="10.779756" opacity=".98" rx="1.710371" width="10.756737" x="139.268353" y="72.771277"/><rect height="10.779756" opacity=".98" rx="1.710371" width="10.756737" x="124.268353" y="72.771277"/><rect height="10.779756" opacity=".98" rx="1.710371" width="10.756737" x="109.26835" y="72.771277"/><rect height="10.779756" opacity=".98" rx="1.710371" width="10.756737" x="94.26835" y="72.771277"/><rect height="10.779756" opacity=".98" rx="1.710371" width="10.756737" x="79.26835" y="72.771277"/><rect height="10.779756" opacity=".98" rx="1.710371" width="10.756737" x="64.26835" y="72.771277"/><rect height="10.779756" opacity=".98" rx="1.710371" width="10.756737" x="49.26835" y="72.771277"/><rect height="10.779756" opacity=".98" rx="1.710371" width="10.756737" x="199.268353" y="72.771277"/><rect height="10.779756" opacity=".98" rx="1.710371" width="10.756737" x="184.268353" y="72.771277"/><rect height="10.779756" opacity=".98" rx="1.710371" width="10.756737" x="169.268353" y="72.771277"/><rect height="10.779756" opacity=".98" rx="1.710371" width="10.756737" x="214.268353" y="72.771277"/><rect height="10.779756" opacity=".98" rx="1.710371" width="10.756737" x="34.26835" y="72.771277"/><rect height="10.779756" opacity=".98" rx="1.710371" width="10.756737" x="19.26835" y="72.771277"/><rect height="10.779756" opacity=".98" rx="1.710371" width="10.756737" x="229.268361" y="72.771279"/><rect height="10.779756" opacity=".98" rx="1.710371" width="10.756737" x="221.814391" y="87.771279"/><rect height="10.779756" opacity=".98" rx="1.710371" width="10.756737" x="236.814391" y="87.771279"/><rect height="10.779756" opacity=".98" rx="1.710371" width="10.756737" x="229.268361" y="102.771277"/><rect height="10.779756" opacity=".98" rx="1.710371" width="10.756737" x="221.814391" y="117.771277"/><rect height="10.779756" opacity=".98" rx="1.710371" width="10.756737" x="236.814391" y="117.771277"/></g></g></svg>